/* XPM */
static char * closeIO_xpm[] = {
"23 48 154 2",
"  	c #FBFBFB",
". 	c #F6F6F6",
"+ 	c #F3F3F3",
"@ 	c #F1F1F1",
"# 	c #ECECEC",
"$ 	c #ECECEB",
"% 	c #E9E9E8",
"& 	c #E4E4E2",
"* 	c #EEEEED",
"= 	c #F9F9F8",
"- 	c #FCFCFB",
"; 	c #EDEEED",
"> 	c #E3E4E2",
", 	c #E0E0E0",
"' 	c #F3F3F2",
") 	c #F5F6F5",
"! 	c #EDEFEC",
"~ 	c #E9EBE7",
"{ 	c #E7E9E5",
"] 	c #F2F3F2",
"^ 	c #E1E2E1",
"/ 	c #F2F2F2",
"( 	c #E0E0DF",
"_ 	c #EFF1EE",
": 	c #E6E8E4",
"< 	c #DEE1DB",
"[ 	c #DCDFD9",
"} 	c #F8F8F7",
"| 	c #F4F4F4",
"1 	c #E1E1E0",
"2 	c #F1F2F0",
"3 	c #CFD1CE",
"4 	c #8A8B88",
"5 	c #CACCC7",
"6 	c #DFE2DD",
"7 	c #C8CAC6",
"8 	c #D0D2CF",
"9 	c #F0F0F0",
"0 	c #DBDBDA",
"a 	c #F7F8F7",
"b 	c #EAECE9",
"c 	c #91938F",
"d 	c #525351",
"e 	c #60615F",
"f 	c #CCCECA",
"g 	c #E2E4E0",
"h 	c #CBCCC9",
"i 	c #5F615E",
"j 	c #929390",
"k 	c #DBDBDB",
"l 	c #F5F5F5",
"m 	c #E9E9E9",
"n 	c #F2F3F1",
"o 	c #E7E8E5",
"p 	c #D3D4D1",
"q 	c #6E706D",
"r 	c #626360",
"s 	c #BFC1BD",
"t 	c #6E6F6B",
"u 	c #70716E",
"v 	c #D3D5D1",
"w 	c #E8E8E8",
"x 	c #D4D4D3",
"y 	c #F8F8F8",
"z 	c #E8EAE6",
"A 	c #D6D8D4",
"B 	c #7E807C",
"C 	c #727470",
"D 	c #737671",
"E 	c #7F817C",
"F 	c #D7D9D5",
"G 	c #CDCDCD",
"H 	c #F4F5F4",
"I 	c #EFF0EE",
"J 	c #EBECE9",
"K 	c #CDCECB",
"L 	c #838580",
"M 	c #828480",
"N 	c #838581",
"O 	c #CECFCD",
"P 	c #F3F4F3",
"Q 	c #CBCBCB",
"R 	c #DFE1DD",
"S 	c #E9EBE8",
"T 	c #DDDFDC",
"U 	c #929490",
"V 	c #898B87",
"W 	c #8A8C88",
"X 	c #939491",
"Y 	c #DEDFDD",
"Z 	c #DEE0DC",
"` 	c #CECECE",
" .	c #CCCEC9",
"..	c #EFF0ED",
"+.	c #E1E2E0",
"@.	c #999B97",
"#.	c #90928E",
"$.	c #9A9D98",
"%.	c #D5D6D4",
"&.	c #9A9C97",
"*.	c #E2E3E1",
"=.	c #CACCC9",
"-.	c #D8D8D7",
";.	c #C2C2BF",
">.	c #D7D8D5",
",.	c #E8EAE7",
"'.	c #BFC0BD",
").	c #979995",
"!.	c #A1A39F",
"~.	c #E6E7E5",
"{.	c #F3F4F2",
"].	c #E5E6E4",
"^.	c #A0A29E",
"/.	c #C0C1BE",
"(.	c #C0C1BF",
"_.	c #E5E5E5",
":.	c #BDBDBC",
"<.	c #C5C7C3",
"[.	c #DADCD8",
"}.	c #E1E3E0",
"|.	c #C4C5C3",
"1.	c #F6F7F5",
"2.	c #E9EAE7",
"3.	c #C4C8C3",
"4.	c #BCBCBB",
"5.	c #D2D2D2",
"6.	c #B4B5B3",
"7.	c #C4C5C1",
"8.	c #E8E9E7",
"9.	c #F5F5F4",
"0.	c #C3C4C0",
"a.	c #B4B4B3",
"b.	c #C7C7C7",
"c.	c #AEAFAE",
"d.	c #C1C1BE",
"e.	c #C6C8C4",
"f.	c #DFE0DE",
"g.	c #E2E3E0",
"h.	c #AEAEAD",
"i.	c #C8C8C8",
"j.	c #ABACAA",
"k.	c #B5B6B4",
"l.	c #BFC1BE",
"m.	c #C4C5C2",
"n.	c #C6C7C4",
"o.	c #B6B6B4",
"p.	c #ADADAC",
"q.	c #EAEAE9",
"r.	c #D6D6D6",
"s.	c #C0C0C0",
"t.	c #A3A3A3",
"u.	c #9F9F9F",
"v.	c #DEDEDE",
"w.	c #D7D7D7",
"                                              ",
". . . . . . . . . . . . . . . . . . . . . . . ",
". . . . . . . . . . . . . . . . . . . . . . . ",
". . . . . . . . . . . . . . . . . . . . . . . ",
". . . . . . . . + @ # $ # @ + . . . . . . . . ",
". . . . . . + % & * = - = ; > % + . . . . . . ",
". . . . . @ , ' ) ! ~ { ~ ! ) ] ^ @ . . . . . ",
". . . . / ( = _ : < [ [ [ < : _ } ( / . . . . ",
". . . | 1 @ 2 3 4 5 6 6 6 7 4 8 2 9 1 | . . . ",
". . . # 0 a b c d e f g h i d j b a k # . . . ",
". . l 1 m n o p q r q s t r u v o n w 1 l . . ",
". . + x y 2 z z A B C D C E F z z 2 } x + . . ",
". . @ G H I J J J K L M N O J J J I P G @ . . ",
". . @ Q R S ! ! T U V W V X Y ! ! S Z Q @ . . ",
". . / `  .g ..+.@.#.$.%.&.#.&.*...g =.` / . . ",
". . + -.;.>.,.'.).!.~.{.].^.)./.,.>.(.-.+ . . ",
". . . _.:.<.[.}.|.S 1.1.1.2.|.*.[.3.4._.. . . ",
". . . @ 5.6.7.>.8.9.= = = 9.8.>.0.a.5.@ . . . ",
". . . . w b.c.d.e.>.f.g.f.>.e.'.h.b.w . . . . ",
". . . . | _.i.j.k.l.m.n.m.'.o.p.i._.| . . . . ",
". . . . . l q.r.s.p.t.u.t.p.s.r.q.l . . . . . ",
". . . . . . . / m v.w.x w.v.m / . . . . . . . ",
". . . . . . . . . l | + | l . . . . . . . . . ",
"l l l l l l l l . . . l l l l . . . . . . l l ",
"                                              ",
". . . . . . . . . . . . . . . . . . . . . . . ",
". . . . . . . . . . . . . . . . . . . . . . . ",
". . . . . . . . . . . . . . . . . . . . . . . ",
". . . . . . . . + @ # $ # @ + . . . . . . . . ",
". . . . . . + % & * = - = ; > % + . . . . . . ",
". . . . . @ , ' ) ! ~ { ~ ! ) ] ^ @ . . . . . ",
". . . . / ( = _ : < [ [ [ < : _ } ( / . . . . ",
". . . | 1 @ 2 3 4 5 6 6 6 7 4 8 2 9 1 | . . . ",
". . . # 0 a b c d e f g h i d j b a k # . . . ",
". . l 1 m n o p q r q s t r u v o n w 1 l . . ",
". . + x y 2 z z A B C D C E F z z 2 } x + . . ",
". . @ G H I J J J K L M N O J J J I P G @ . . ",
". . @ Q R S ! ! T U V W V X Y ! ! S Z Q @ . . ",
". . / `  .g ..+.@.#.$.%.&.#.&.*...g =.` / . . ",
". . + -.;.>.,.'.).!.~.{.].^.)./.,.>.(.-.+ . . ",
". . . _.:.<.[.}.|.S 1.1.1.2.|.*.[.3.4._.. . . ",
". . . @ 5.6.7.>.8.9.= = = 9.8.>.0.a.5.@ . . . ",
". . . . w b.c.d.e.>.f.g.f.>.e.'.h.b.w . . . . ",
". . . . | _.i.j.k.l.m.n.m.'.o.p.i._.| . . . . ",
". . . . . l q.r.s.p.t.u.t.p.s.r.q.l . . . . . ",
". . . . . . . / m v.w.x w.v.m / . . . . . . . ",
". . . . . . . . . l | + | l . . . . . . . . . ",
"l l l l l l l l . . . l l l l . . . . . . l l "};
