/* XPM */
static char * frameABL_xpm[] = {
"22 22 9 1",
" 	c None",
".	c #CFCFCF",
"+	c #E8E8E8",
"@	c #DEDEDE",
"#	c #E0E0E0",
"$	c #ADADAD",
"%	c #DFDFDF",
"&	c #C4C4C4",
"*	c #B1B1B1",
".+++                  ",
".+++                  ",
".+++                  ",
".+++                  ",
".+++                  ",
".+++                  ",
".+++                  ",
".+++                  ",
".+++                  ",
".+++                  ",
".+++                  ",
".+++                  ",
".+++                  ",
".+++                  ",
".+@+                  ",
".#$@                  ",
".+%+                  ",
".++@                  ",
".+#$@+@+++++++++++++++",
" ++%+#$@++++++++++++++",
" &++++%+++++++++++++++",
"   *******************"};
