/* XPM */
static char * frameAT_xpm[] = {
"1 27 4 1",
" 	c None",
".	c #FBFBFB",
"+	c #F6F6F6",
"@	c #F4F4F4",
" ",
" ",
" ",
".",
"+",
"+",
"+",
"+",
"+",
"+",
"+",
"+",
"+",
"+",
"+",
"+",
"+",
"+",
"+",
"+",
"+",
"+",
"+",
"+",
"+",
"+",
"@"};
