/* XPM */
static char * frameITL_xpm[] = {
"4 27 6 1",
" 	c None",
".	c #D4D4D4",
"+	c #CFCFCF",
"@	c #F6F6F6",
"#	c #B8B8B8",
"$	c #DADADA",
"    ",
"    ",
"    ",
"   .",
" +@@",
" @@@",
"#@@@",
"$@@@",
"$@@@",
"$@@@",
"$@@@",
"$@@@",
"$@@@",
"$@@@",
"$@@@",
"$@@@",
"$@@@",
"$@@@",
"$@@@",
"$@@@",
"$@@@",
"$@@@",
"$@@@",
"$@@@",
"$@@@",
"$@@@",
"$@@@"};
