/* XPM */
static char * frameITR_xpm[] = {
"4 27 6 1",
" 	c None",
".	c #D4D4D4",
"+	c #F6F6F6",
"@	c #CFCFCF",
"#	c #B8B8B8",
"$	c #DADADA",
"    ",
"    ",
"    ",
".   ",
"++@ ",
"+++ ",
"+++#",
"+++$",
"+++$",
"+++$",
"+++$",
"+++$",
"+++$",
"+++$",
"+++$",
"+++$",
"+++$",
"+++$",
"+++$",
"+++$",
"+++$",
"+++$",
"+++$",
"+++$",
"+++$",
"+++$",
"+++$"};
