/* XPM */
static char * menubg_xpm[] = {
"4 287 20 1",
" 	c #505050",
".	c #303030",
"+	c #2F2F2F",
"@	c #2C2C2C",
"#	c #2A2A2A",
"$	c #272727",
"%	c #242424",
"&	c #212121",
"*	c #1F1F1F",
"=	c #1D1D1D",
"-	c #1A1A1A",
";	c #171717",
">	c #151515",
",	c #121212",
"'	c #101010",
")	c #0A0A0A",
"!	c #08111F",
"~	c #09101C",
"{	c #000000",
"]	c #010101",
"    ",
"....",
"++++",
"@@@@",
"####",
"$$$$",
"%%%%",
"&&&&",
"****",
"====",
"----",
";;;;",
">>>>",
",,,,",
"''''",
"))))",
"))))",
"))))",
"))))",
"))))",
"))))",
"))))",
"))))",
"))))",
"))))",
"))))",
"))))",
"))))",
"))))",
"))))",
"))))",
"))))",
"))))",
"))))",
"))))",
"))))",
"))))",
"))))",
"))))",
"))))",
"))))",
"))))",
"))))",
"))))",
"))))",
"))))",
"))))",
"))))",
"))))",
"))))",
"))))",
"))))",
"))))",
"))))",
"))))",
"))))",
"))))",
"))))",
"))))",
"))))",
"))))",
"))))",
"))))",
"))))",
"))))",
"))))",
"))))",
"))))",
"))))",
"))))",
"))))",
"))))",
"))))",
"))))",
"))))",
"))))",
"))))",
"))))",
"))))",
"))))",
"!!!!",
"~~~~",
"))))",
"))))",
"))))",
"))))",
"))))",
"))))",
"))))",
"))))",
"))))",
"))))",
"))))",
"))))",
"))))",
"))))",
"))))",
"))))",
"))))",
"))))",
"))))",
"))))",
"))))",
"))))",
"))))",
"))))",
"))))",
"))))",
"))))",
"))))",
"))))",
"))))",
"))))",
"))))",
"))))",
"))))",
"))))",
"))))",
"))))",
"))))",
"))))",
"))))",
"))))",
"))))",
"))))",
"))))",
"))))",
"))))",
"))))",
"))))",
"))))",
"))))",
"))))",
"))))",
"))))",
"))))",
"))))",
"))))",
"))))",
"))))",
"))))",
"))))",
"))))",
"))))",
"))))",
"))))",
"))))",
"))))",
"))))",
"))))",
"))))",
"))))",
"))))",
"))))",
"))))",
"))))",
"))))",
"))))",
"))))",
"))))",
"))))",
"))))",
"))))",
"))))",
"))))",
"))))",
"))))",
"))))",
"))))",
"))))",
"))))",
"))))",
"))))",
"))))",
"))))",
"))))",
"))))",
"))))",
"))))",
"))))",
"))))",
"))))",
"))))",
"))))",
"))))",
"))))",
"))))",
"))))",
"))))",
"))))",
"))))",
"))))",
"))))",
"))))",
"))))",
"))))",
"))))",
"))))",
"))))",
"))))",
"))))",
"))))",
"))))",
"))))",
"))))",
"))))",
"))))",
"))))",
"))))",
"))))",
"))))",
"))))",
"))))",
"))))",
"))))",
"))))",
"))))",
"))))",
"))))",
"))))",
"{{{{",
"))))",
"))))",
"))))",
"))))",
"))))",
"))))",
"))))",
"))))",
"))))",
"))))",
"))))",
"))))",
"))))",
"))))",
"))))",
"))))",
"))))",
"))))",
"))))",
"))))",
"))))",
"))))",
"))))",
"))))",
"))))",
"))))",
"))))",
"))))",
"))))",
"))))",
"))))",
"))))",
"))))",
"))))",
"))))",
"))))",
"))))",
"))))",
"))))",
"))))",
"))))",
"))))",
"))))",
"))))",
"))))",
"))))",
"))))",
"))))",
"))))",
"))))",
"))))",
"))))",
"))))",
"))))",
"))))",
"))))",
"))))",
"))))",
"))))",
"))))",
"))))",
"))))",
"))))",
"))))",
"))))",
"]]]]"};
