/* XPM */
static char * menusel_xpm[] = {
"2 20 18 1",
" 	c None",
".	c #787878",
"+	c #323232",
"@	c #262626",
"#	c #1E1E1E",
"$	c #1C1C1C",
"%	c #1D1D1D",
"&	c #1A1A1A",
"*	c #191919",
"=	c #171717",
"-	c #161616",
";	c #141414",
">	c #131313",
",	c #111111",
"'	c #0F0F0F",
")	c #0E0E0E",
"!	c #0D0D0D",
"~	c #414141",
"..",
"..",
"++",
"@@",
"##",
"$%",
"&&",
"**",
"==",
"--",
";;",
">>",
",,",
"''",
"))",
"!!",
"')",
";;",
"~~",
"~~"};
