/* XPM */
static char * minimizeI_xpm[] = {
"23 48 138 2",
"  	c #FBFBFB",
". 	c #F6F6F6",
"+ 	c #F3F3F3",
"@ 	c #F1F1F1",
"# 	c #ECECEC",
"$ 	c #ECECEB",
"% 	c #E9E9E8",
"& 	c #E4E4E2",
"* 	c #EEEEED",
"= 	c #F9F9F8",
"- 	c #FCFCFB",
"; 	c #EDEEED",
"> 	c #E3E4E2",
", 	c #E0E0E0",
"' 	c #F3F3F2",
") 	c #F5F6F5",
"! 	c #EDEFEC",
"~ 	c #E9EBE7",
"{ 	c #E7E9E5",
"] 	c #F2F3F2",
"^ 	c #E1E2E1",
"/ 	c #F2F2F2",
"( 	c #E0E0DF",
"_ 	c #EFF1EE",
": 	c #E6E8E4",
"< 	c #DEE1DB",
"[ 	c #DCDFD9",
"} 	c #F8F8F7",
"| 	c #F4F4F4",
"1 	c #E1E1E0",
"2 	c #F1F2F0",
"3 	c #E5E8E4",
"4 	c #DFE2DD",
"5 	c #F0F0F0",
"6 	c #DBDBDA",
"7 	c #F7F8F7",
"8 	c #EAECE9",
"9 	c #E2E4E0",
"0 	c #DBDBDB",
"a 	c #F5F5F5",
"b 	c #E9E9E9",
"c 	c #F2F3F1",
"d 	c #E7E8E5",
"e 	c #D3D4D1",
"f 	c #9B9C99",
"g 	c #D2D3D0",
"h 	c #E5E7E3",
"i 	c #D1D3CF",
"j 	c #D3D5D1",
"k 	c #E8E8E8",
"l 	c #D4D4D3",
"m 	c #F8F8F8",
"n 	c #E8EAE6",
"o 	c #A6A8A4",
"p 	c #727470",
"q 	c #7E807C",
"r 	c #D6D8D4",
"s 	c #D5D7D3",
"t 	c #7D7F7B",
"u 	c #A7A9A5",
"v 	c #CDCDCD",
"w 	c #F4F5F4",
"x 	c #EFF0EE",
"y 	c #EBECE9",
"z 	c #DCDEDA",
"A 	c #8C8E8A",
"B 	c #828480",
"C 	c #CDCECB",
"D 	c #8B8D89",
"E 	c #8D8F8B",
"F 	c #DDDEDB",
"G 	c #F3F4F3",
"H 	c #CBCBCB",
"I 	c #DFE1DD",
"J 	c #E9EBE8",
"K 	c #DEDFDD",
"L 	c #939491",
"M 	c #898B87",
"N 	c #8A8B88",
"O 	c #939592",
"P 	c #DFE0DE",
"Q 	c #DEE0DC",
"R 	c #CECECE",
"S 	c #CCCEC9",
"T 	c #EFF0ED",
"U 	c #F0F1EF",
"V 	c #E1E2E0",
"W 	c #949692",
"X 	c #90928E",
"Y 	c #959793",
"Z 	c #E2E3E1",
"` 	c #CACCC9",
" .	c #D8D8D7",
"..	c #C2C2BF",
"+.	c #D7D8D5",
"@.	c #E8EAE7",
"#.	c #F3F4F2",
"$.	c #DBDCDA",
"%.	c #A9ACA7",
"&.	c #DDDDDA",
"*.	c #C0C1BF",
"=.	c #E5E5E5",
"-.	c #BDBDBC",
";.	c #C5C7C3",
">.	c #DADCD8",
",.	c #EDEEEB",
"'.	c #F6F7F5",
").	c #C4C8C3",
"!.	c #BCBCBB",
"~.	c #D2D2D2",
"{.	c #B4B5B3",
"].	c #C4C5C1",
"^.	c #E8E9E7",
"/.	c #F5F5F4",
"(.	c #C3C4C0",
"_.	c #B4B4B3",
":.	c #C7C7C7",
"<.	c #AEAFAE",
"[.	c #C1C1BE",
"}.	c #C6C8C4",
"|.	c #E2E3E0",
"1.	c #BFC0BD",
"2.	c #AEAEAD",
"3.	c #C8C8C8",
"4.	c #ABACAA",
"5.	c #B5B6B4",
"6.	c #BFC1BE",
"7.	c #C4C5C2",
"8.	c #C6C7C4",
"9.	c #B6B6B4",
"0.	c #ADADAC",
"a.	c #EAEAE9",
"b.	c #D6D6D6",
"c.	c #C0C0C0",
"d.	c #A3A3A3",
"e.	c #9F9F9F",
"f.	c #DEDEDE",
"g.	c #D7D7D7",
"                                              ",
". . . . . . . . . . . . . . . . . . . . . . . ",
". . . . . . . . . . . . . . . . . . . . . . . ",
". . . . . . . . . . . . . . . . . . . . . . . ",
". . . . . . . . + @ # $ # @ + . . . . . . . . ",
". . . . . . + % & * = - = ; > % + . . . . . . ",
". . . . . @ , ' ) ! ~ { ~ ! ) ] ^ @ . . . . . ",
". . . . / ( = _ : < [ [ [ < : _ } ( / . . . . ",
". . . | 1 @ 2 3 4 4 4 4 4 4 4 3 2 5 1 | . . . ",
". . . # 6 7 8 9 9 9 9 9 9 9 9 9 8 7 0 # . . . ",
". . a 1 b c d e f g h h h i f j d c k 1 a . . ",
". . + l m 2 n o p q r n s t p u n 2 } l + . . ",
". . @ v w x y z A B A C D B E F y x G v @ . . ",
". . @ H I J ! ! K L M N M O P ! ! J Q H @ . . ",
". . / R S 9 T U U V W X Y Z U U T 9 ` R / . . ",
". . +  ...+.@.#.#.#.$.%.&.#.#.#.@.+.*. .+ . . ",
". . . =.-.;.>.,.'.'.'.'.'.'.'.,.>.).!.=.. . . ",
". . . @ ~.{.].+.^./.= = = /.^.+.(._.~.@ . . . ",
". . . . k :.<.[.}.+.P |.P +.}.1.2.:.k . . . . ",
". . . . | =.3.4.5.6.7.8.7.1.9.0.3.=.| . . . . ",
". . . . . a a.b.c.0.d.e.d.0.c.b.a.a . . . . . ",
". . . . . . . / b f.g.l g.f.b / . . . . . . . ",
". . . . . . . . . a | + | a . . . . . . . . . ",
"+ + | | | | | | + | | | | | | | | | | | | | | ",
"                                              ",
". . . . . . . . . . . . . . . . . . . . . . . ",
". . . . . . . . . . . . . . . . . . . . . . . ",
". . . . . . . . . . . . . . . . . . . . . . . ",
". . . . . . . . + @ # $ # @ + . . . . . . . . ",
". . . . . . + % & * = - = ; > % + . . . . . . ",
". . . . . @ , ' ) ! ~ { ~ ! ) ] ^ @ . . . . . ",
". . . . / ( = _ : < [ [ [ < : _ } ( / . . . . ",
". . . | 1 @ 2 3 4 4 4 4 4 4 4 3 2 5 1 | . . . ",
". . . # 6 7 8 9 9 9 9 9 9 9 9 9 8 7 0 # . . . ",
". . a 1 b c d e f g h h h i f j d c k 1 a . . ",
". . + l m 2 n o p q r n s t p u n 2 } l + . . ",
". . @ v w x y z A B A C D B E F y x G v @ . . ",
". . @ H I J ! ! K L M N M O P ! ! J Q H @ . . ",
". . / R S 9 T U U V W X Y Z U U T 9 ` R / . . ",
". . +  ...+.@.#.#.#.$.%.&.#.#.#.@.+.*. .+ . . ",
". . . =.-.;.>.,.'.'.'.'.'.'.'.,.>.).!.=.. . . ",
". . . @ ~.{.].+.^./.= = = /.^.+.(._.~.@ . . . ",
". . . . k :.<.[.}.+.P |.P +.}.1.2.:.k . . . . ",
". . . . | =.3.4.5.6.7.8.7.1.9.0.3.=.| . . . . ",
". . . . . a a.b.c.0.d.e.d.0.c.b.a.a . . . . . ",
". . . . . . . / b f.g.l g.f.b / . . . . . . . ",
". . . . . . . . . a | + | a . . . . . . . . . ",
"+ + | | | | | | + | | | | | | | | | | | | | | "};
