/* XPM */
static char * restoreI_xpm[] = {
"23 48 137 2",
"  	c #FBFBFB",
". 	c #F6F6F6",
"+ 	c #F3F3F3",
"@ 	c #F1F1F1",
"# 	c #ECECEC",
"$ 	c #ECECEB",
"% 	c #E9E9E8",
"& 	c #E4E4E2",
"* 	c #EEEEED",
"= 	c #F9F9F8",
"- 	c #FCFCFB",
"; 	c #EDEEED",
"> 	c #E3E4E2",
", 	c #E0E0E0",
"' 	c #F3F3F2",
") 	c #F5F6F5",
"! 	c #EDEFEC",
"~ 	c #E9EBE7",
"{ 	c #E7E9E5",
"] 	c #F2F3F2",
"^ 	c #E1E2E1",
"/ 	c #F2F2F2",
"( 	c #E0E0DF",
"_ 	c #EFF1EE",
": 	c #E6E8E4",
"< 	c #DEE1DB",
"[ 	c #DCDFD9",
"} 	c #F8F8F7",
"| 	c #F4F4F4",
"1 	c #E1E1E0",
"2 	c #F1F2F0",
"3 	c #E5E8E4",
"4 	c #DFE2DD",
"5 	c #F0F0F0",
"6 	c #DBDBDA",
"7 	c #F7F8F7",
"8 	c #EAECE9",
"9 	c #E2E4E0",
"0 	c #BBBDB8",
"a 	c #6D6E6C",
"b 	c #BCBEBA",
"c 	c #DBDBDB",
"d 	c #F5F5F5",
"e 	c #E9E9E9",
"f 	c #F2F3F1",
"g 	c #E7E8E5",
"h 	c #E5E7E3",
"i 	c #D0D2CE",
"j 	c #676965",
"k 	c #626360",
"l 	c #676866",
"m 	c #D1D3CF",
"n 	c #E8E8E8",
"o 	c #D4D4D3",
"p 	c #F8F8F8",
"q 	c #E8EAE6",
"r 	c #D5D7D3",
"s 	c #7D7F7B",
"t 	c #727470",
"u 	c #737671",
"v 	c #7E807C",
"w 	c #D6D8D4",
"x 	c #CDCDCD",
"y 	c #F4F5F4",
"z 	c #EFF0EE",
"A 	c #EBECE9",
"B 	c #DBDCD9",
"C 	c #8B8D89",
"D 	c #828480",
"E 	c #8D8F8B",
"F 	c #CECFCD",
"G 	c #8C8E8A",
"H 	c #DCDDDA",
"I 	c #F3F4F3",
"J 	c #CBCBCB",
"K 	c #DFE1DD",
"L 	c #E9EBE8",
"M 	c #B4B6B3",
"N 	c #898B87",
"O 	c #939592",
"P 	c #DFE0DE",
"Q 	c #DEDFDD",
"R 	c #939491",
"S 	c #B6B8B5",
"T 	c #DEE0DC",
"U 	c #CECECE",
"V 	c #CCCEC9",
"W 	c #EFF0ED",
"X 	c #E3E4E1",
"Y 	c #BBBDBA",
"Z 	c #F0F1EF",
"` 	c #E2E3E1",
" .	c #E4E5E2",
"..	c #CACCC9",
"+.	c #D8D8D7",
"@.	c #C2C2BF",
"#.	c #D7D8D5",
"$.	c #E8EAE7",
"%.	c #F3F4F2",
"&.	c #C0C1BF",
"*.	c #E5E5E5",
"=.	c #BDBDBC",
"-.	c #C5C7C3",
";.	c #DADCD8",
">.	c #EDEEEB",
",.	c #F6F7F5",
"'.	c #C4C8C3",
").	c #BCBCBB",
"!.	c #D2D2D2",
"~.	c #B4B5B3",
"{.	c #C4C5C1",
"].	c #E8E9E7",
"^.	c #F5F5F4",
"/.	c #C3C4C0",
"(.	c #B4B4B3",
"_.	c #C7C7C7",
":.	c #AEAFAE",
"<.	c #C1C1BE",
"[.	c #C6C8C4",
"}.	c #E2E3E0",
"|.	c #BFC0BD",
"1.	c #AEAEAD",
"2.	c #C8C8C8",
"3.	c #ABACAA",
"4.	c #B5B6B4",
"5.	c #BFC1BE",
"6.	c #C4C5C2",
"7.	c #C6C7C4",
"8.	c #B6B6B4",
"9.	c #ADADAC",
"0.	c #EAEAE9",
"a.	c #D6D6D6",
"b.	c #C0C0C0",
"c.	c #A3A3A3",
"d.	c #9F9F9F",
"e.	c #DEDEDE",
"f.	c #D7D7D7",
"                                              ",
". . . . . . . . . . . . . . . . . . . . . . . ",
". . . . . . . . . . . . . . . . . . . . . . . ",
". . . . . . . . . . . . . . . . . . . . . . . ",
". . . . . . . . + @ # $ # @ + . . . . . . . . ",
". . . . . . + % & * = - = ; > % + . . . . . . ",
". . . . . @ , ' ) ! ~ { ~ ! ) ] ^ @ . . . . . ",
". . . . / ( = _ : < [ [ [ < : _ } ( / . . . . ",
". . . | 1 @ 2 3 4 4 4 4 4 4 4 3 2 5 1 | . . . ",
". . . # 6 7 8 9 9 9 0 a b 9 9 9 8 7 c # . . . ",
". . d 1 e f g h h i j k l m h h g f n 1 d . . ",
". . + o p 2 q q r s t u t v w q q 2 } o + . . ",
". . @ x y z A B C D E F G D G H A z I x @ . . ",
". . @ J K L ! M N O P ! Q R N S ! L T J @ . . ",
". . / U V 9 W X Y X Z Z Z ` Y  .W 9 ..U / . . ",
". . + +.@.#.$.%.%.%.%.%.%.%.%.%.$.#.&.+.+ . . ",
". . . *.=.-.;.>.,.,.,.,.,.,.,.>.;.'.).*.. . . ",
". . . @ !.~.{.#.].^.= = = ^.].#./.(.!.@ . . . ",
". . . . n _.:.<.[.#.P }.P #.[.|.1._.n . . . . ",
". . . . | *.2.3.4.5.6.7.6.|.8.9.2.*.| . . . . ",
". . . . . d 0.a.b.9.c.d.c.9.b.a.0.d . . . . . ",
". . . . . . . / e e.f.o f.e.e / . . . . . . . ",
". . . . . . . . . d | + | d . . . . . . . . . ",
"| | d d d | | | | d d d d d d | | d d d d d d ",
"                                              ",
". . . . . . . . . . . . . . . . . . . . . . . ",
". . . . . . . . . . . . . . . . . . . . . . . ",
". . . . . . . . . . . . . . . . . . . . . . . ",
". . . . . . . . + @ # $ # @ + . . . . . . . . ",
". . . . . . + % & * = - = ; > % + . . . . . . ",
". . . . . @ , ' ) ! ~ { ~ ! ) ] ^ @ . . . . . ",
". . . . / ( = _ : < [ [ [ < : _ } ( / . . . . ",
". . . | 1 @ 2 3 4 4 4 4 4 4 4 3 2 5 1 | . . . ",
". . . # 6 7 8 9 9 9 0 a b 9 9 9 8 7 c # . . . ",
". . d 1 e f g h h i j k l m h h g f n 1 d . . ",
". . + o p 2 q q r s t u t v w q q 2 } o + . . ",
". . @ x y z A B C D E F G D G H A z I x @ . . ",
". . @ J K L ! M N O P ! Q R N S ! L T J @ . . ",
". . / U V 9 W X Y X Z Z Z ` Y  .W 9 ..U / . . ",
". . + +.@.#.$.%.%.%.%.%.%.%.%.%.$.#.&.+.+ . . ",
". . . *.=.-.;.>.,.,.,.,.,.,.,.>.;.'.).*.. . . ",
". . . @ !.~.{.#.].^.= = = ^.].#./.(.!.@ . . . ",
". . . . n _.:.<.[.#.P }.P #.[.|.1._.n . . . . ",
". . . . | *.2.3.4.5.6.7.6.|.8.9.2.*.| . . . . ",
". . . . . d 0.a.b.9.c.d.c.9.b.a.0.d . . . . . ",
". . . . . . . / e e.f.o f.e.e / . . . . . . . ",
". . . . . . . . . d | + | d . . . . . . . . . ",
"| | d d d | | | | d d d d d d | | d d d d d d "};
