/* XPM */
static char * closeI_xpm[] = {
"20 50 220 2",
"  	c None",
". 	c #53524E",
"+ 	c #504F4B",
"@ 	c #141312",
"# 	c #181715",
"$ 	c #1C1B19",
"% 	c #1F1E1D",
"& 	c #222120",
"* 	c #201F1E",
"= 	c #232120",
"- 	c #2C2C28",
"; 	c #40403B",
"> 	c #4C4B47",
", 	c #242321",
"' 	c #232220",
") 	c #201F1D",
"! 	c #1E1D1B",
"~ 	c #1C1C1A",
"{ 	c #232320",
"] 	c #282824",
"^ 	c #4B4A46",
"/ 	c #494844",
"( 	c #1D1C1B",
"_ 	c #2F2E2C",
": 	c #383835",
"< 	c #40403E",
"[ 	c #242221",
"} 	c #3E3D3A",
"| 	c #464541",
"1 	c #262523",
"2 	c #3E3E3C",
"3 	c #454542",
"4 	c #464542",
"5 	c #44433F",
"6 	c #2A2927",
"7 	c #282825",
"8 	c #272726",
"9 	c #454543",
"0 	c #464643",
"a 	c #272624",
"b 	c #302F2D",
"c 	c #474642",
"d 	c #2B2A28",
"e 	c #242322",
"f 	c #424240",
"g 	c #484845",
"h 	c #2E2D2A",
"i 	c #3F3E3A",
"j 	c #363533",
"k 	c #353432",
"l 	c #2E2D2B",
"m 	c #383735",
"n 	c #4B4B48",
"o 	c #4A4A47",
"p 	c #636362",
"q 	c #535351",
"r 	c #636361",
"s 	c #494947",
"t 	c #3B3B37",
"u 	c #3C3B39",
"v 	c #3A3A37",
"w 	c #302F2E",
"x 	c #434241",
"y 	c #4D4D4A",
"z 	c #4C4C4A",
"A 	c #61615F",
"B 	c #878786",
"C 	c #545452",
"D 	c #3D3B3A",
"E 	c #42413F",
"F 	c #40403D",
"G 	c #323230",
"H 	c #4C4C49",
"I 	c #504F4C",
"J 	c #4F4E4B",
"K 	c #60605E",
"L 	c #959594",
"M 	c #41403E",
"N 	c #484745",
"O 	c #373735",
"P 	c #4E4E4C",
"Q 	c #52524F",
"R 	c #50504E",
"S 	c #4F4F4D",
"T 	c #555553",
"U 	c #A2A2A1",
"V 	c #464543",
"W 	c #4E4D4B",
"X 	c #3F3F3D",
"Y 	c #50504D",
"Z 	c #484644",
"` 	c #545451",
" .	c #535350",
"..	c #494847",
"+.	c #494948",
"@.	c #555452",
"#.	c #535250",
"$.	c #4F4E4C",
"%.	c #6E6E6D",
"&.	c #616160",
"*.	c #4D4C4A",
"=.	c #474743",
"-.	c #5A5A57",
";.	c #565553",
">.	c #464544",
",.	c #52514E",
"'.	c #4E4E4B",
").	c #4E4D4A",
"!.	c #4E4E4A",
"~.	c #4F4F4B",
"{.	c #42413D",
"].	c #60605D",
"^.	c #60605C",
"/.	c #555552",
"(.	c #52524E",
"_.	c #50504C",
":.	c #51514F",
"<.	c #343330",
"[.	c #666663",
"}.	c #656562",
"|.	c #4F4F4C",
"1.	c #53524F",
"2.	c #51514D",
"3.	c #3E3D39",
"4.	c #6C6C69",
"5.	c #6B6B68",
"6.	c #4E4D49",
"7.	c #676764",
"8.	c #72726F",
"9.	c #6E6E6B",
"0.	c #646462",
"a.	c #5F5F5C",
"b.	c #5F5F5B",
"c.	c #787875",
"d.	c #777775",
"e.	c #767673",
"f.	c #6D6D6B",
"g.	c #161413",
"h.	c #161514",
"i.	c #161615",
"j.	c #191817",
"k.	c #22201F",
"l.	c #2E2D29",
"m.	c #252321",
"n.	c #282623",
"o.	c #2B2824",
"p.	c #2D2925",
"q.	c #2C2925",
"r.	c #262422",
"s.	c #22211F",
"t.	c #232221",
"u.	c #302C28",
"v.	c #3F362C",
"w.	c #4B3F30",
"x.	c #4E4130",
"y.	c #292723",
"z.	c #37312A",
"A.	c #2A2926",
"B.	c #2D2B28",
"C.	c #3C352E",
"D.	c #534434",
"E.	c #2F2F2C",
"F.	c #393632",
"G.	c #564838",
"H.	c #383533",
"I.	c #4D4239",
"J.	c #5B4A3C",
"K.	c #59493C",
"L.	c #3C3A38",
"M.	c #4F433A",
"N.	c #3F3C3A",
"O.	c #5E4C40",
"P.	c #604E40",
"Q.	c #4D453E",
"R.	c #3F3E3C",
"S.	c #52473E",
"T.	c #41413F",
"U.	c #46423F",
"V.	c #655143",
"W.	c #544A41",
"X.	c #444340",
"Y.	c #474645",
"Z.	c #4B4744",
"`.	c #6A5547",
" +	c #594E46",
".+	c #494845",
"++	c #4D4C4B",
"@+	c #4F4C49",
"#+	c #6C574B",
"$+	c #6E584B",
"%+	c #5B524A",
"&+	c #60534B",
"*+	c #64574F",
"=+	c #735C4F",
"-+	c #705B4F",
";+	c #54524F",
">+	c #66584F",
",+	c #595957",
"'+	c #5B5854",
")+	c #785F53",
"!+	c #5F5E5A",
"~+	c #675E57",
"{+	c #7D6356",
"]+	c #64625E",
"^+	c #6C635C",
"/+	c #82665A",
"(+	c #6C6C68",
"_+	c #696865",
":+	c #696662",
"<+	c #776760",
"[+	c #83685E",
"}+	c #86695D",
"|+	c #676763",
"1+	c #71716E",
"2+	c #6F6E6B",
"3+	c #6E6C69",
"4+	c #6E6B68",
"5+	c #5E5D59",
"6+	c #71716F",
"7+	c #595956",
". . . . . . . . . . . . . . . . . . . . ",
"+ + + + + + + + + + + + + + + + + + + + ",
"@ @ @ @ @ @ # $ % & & * = - ; > > > > > ",
", , , , , , ' ) ! ~ ~ ! ) ' { ] ^ / / / ",
", , , , , * ( _ : < < : _ ( * [ % } | | ",
", , , , ! 1 2 3 3 3 3 3 3 2 1 ! [ % 4 5 ",
"6 6 7 ' 8 9 0 0 0 0 0 0 0 0 9 8 ' a b c ",
"b _ d e f g g g g g g g g g g f e d h i ",
"j k l m n n o p q n n q r s n n m l k t ",
"u v w x y y z A B C C B A z y y x w v D ",
"E F G H I I I J K L L K J I I I H G F M ",
"N 0 O P Q Q R S T U U T S R Q Q P O 0 V ",
"W y X z q Q Y C B p p B C Y Q q z X y Z ",
"`  ...+.@.#.$.%.&.*.*.&.%.$.#.@.+... .=.",
"-.-.;.>.#. .,.'.).!.!.J ~.,. .#.>.;.-.{.",
"].].^./.H  .(._.J ).).J _.(. .H /.^.:.<.",
"[.[.[.}.` |.1.2.+ !.!.+ 2.1.|.` }.A 3.<.",
"4.4.4.4.5.].q Q Y 6.6.Y Q q ].5.7.c <.<.",
"8.8.8.8.8.8.9.0.a.-.-.a.0.9.8.b.i <.<.<.",
"c.c.c.c.c.c.c.d.c.c.c.e.f.a./ <.<.<.<.<.",
"<.<.<.<.<.<.<.<.<.<.<.<.<.<.<.<.<.<.<.<.",
"<.<.<.<.<.<.<.<.<.<.<.<.<.<.<.<.<.<.<.<.",
"<.<.<.<.<.<.<.<.<.<.<.<.<.<.<.<.<.<.<.<.",
"<.<.<.<.<.<.<.<.<.<.<.<.<.<.<.<.<.<.<.<.",
"<.<.<.<.<.<.<.<.<.<.<.<.<.<.<.<.<.<.<.<.",
". . . . . . . . . . . . . . . . . . . . ",
"+ + + + + + + + + + + + + + + + + + + + ",
"@ @ @ @ @ @ @ g.h.i.i.j.k.l.; > > > > > ",
", , , , , , m.n.o.p.p.q.r.) s.] ^ / / / ",
", , , t., n.u.v.w.x.x.w.v.u.n.& ! } | | ",
", , , , y.z.x.x.x.x.x.x.x.x.z.y.& % 4 5 ",
"6 6 A.B.C.D.D.D.D.D.D.D.D.D.D.C.B.a b c ",
"b b E.F.G.G.G.G.G.G.G.G.G.G.G.G.F.E.l i ",
"j j H.I.J.J.K.L.M.J.J.M.L.K.J.J.I.H.j t ",
"u u N.O.P.P.P.Q.R.S.S.R.Q.P.P.P.O.N.u D ",
"E T.U.V.V.V.V.V.W.X.X.W.V.V.V.V.V.U.T.M ",
"N Y.Z.`.`.`.`.`. +.+.+ +`.`.`.`.`.Z.Y.V ",
"W ++@+#+$+$+$+%+y &+&+y %+$+$+$+#+@+++Z ",
"` ` 1.*+=+=+-+;+>+=+=+>+;+-+=+=+*+1.` =.",
"-.-.,+'+)+)+)+)+)+)+)+)+)+)+)+)+'+,+-.{.",
"].].].!+~+{+{+{+{+{+{+{+{+{+{+~+!+].:.<.",
"[.[.[.[.]+^+/+/+/+/+/+/+/+/+^+]+[.A 3.<.",
"4.4.4.(+(+_+:+<+[+}+}+[+<+:+_+5.|+c <.<.",
"8.8.8.8.8.8.1+2+3+4+4+3+2+1+8.5+i <.<.<.",
"c.c.c.c.c.c.c.c.c.c.c.6+|+7+/ <.<.<.<.<.",
"<.<.<.<.<.<.<.<.<.<.<.<.<.<.<.<.<.<.<.<.",
"<.<.<.<.<.<.<.<.<.<.<.<.<.<.<.<.<.<.<.<.",
"<.<.<.<.<.<.<.<.<.<.<.<.<.<.<.<.<.<.<.<.",
"<.<.<.<.<.<.<.<.<.<.<.<.<.<.<.<.<.<.<.<.",
"<.<.<.<.<.<.<.<.<.<.<.<.<.<.<.<.<.<.<.<."};
