/* XPM */
static char * closeA_xpm[] = {
"20 50 222 2",
"  	c None",
". 	c #53524E",
"+ 	c #504F4B",
"@ 	c #141312",
"# 	c #181715",
"$ 	c #1C1B19",
"% 	c #1F1E1D",
"& 	c #222120",
"* 	c #201F1E",
"= 	c #232120",
"- 	c #2C2C28",
"; 	c #40403B",
"> 	c #4C4B47",
", 	c #242321",
"' 	c #272522",
") 	c #36302B",
"! 	c #463B34",
"~ 	c #4E4139",
"{ 	c #232320",
"] 	c #282824",
"^ 	c #4B4A46",
"/ 	c #494844",
"( 	c #615045",
"_ 	c #A9845A",
": 	c #E7B16C",
"< 	c #F3BA70",
"[ 	c #242221",
"} 	c #3E3D3A",
"| 	c #464541",
"1 	c #3E352F",
"2 	c #83684F",
"3 	c #F3B86F",
"4 	c #464542",
"5 	c #44433F",
"6 	c #2A2927",
"7 	c #282825",
"8 	c #38322D",
"9 	c #83664D",
"0 	c #F3B069",
"a 	c #272624",
"b 	c #302F2D",
"c 	c #474642",
"d 	c #2F2E2C",
"e 	c #2E2C2A",
"f 	c #F2A964",
"g 	c #2E2D2A",
"h 	c #3F3E3A",
"i 	c #363533",
"j 	c #353432",
"k 	c #3F3934",
"l 	c #A87851",
"m 	c #F2A15F",
"n 	c #E69A5D",
"o 	c #565049",
"p 	c #B37F56",
"q 	c #544E49",
"r 	c #E69B5D",
"s 	c #3B3B37",
"t 	c #3C3B39",
"u 	c #3A3A37",
"v 	c #4D423C",
"w 	c #E59358",
"x 	c #F1995A",
"y 	c #926C4F",
"z 	c #4B4A47",
"A 	c #AA7752",
"B 	c #3D3B3A",
"C 	c #42413F",
"D 	c #40403D",
"E 	c #53473F",
"F 	c #F19254",
"G 	c #9A6C4D",
"H 	c #4A4947",
"I 	c #41403E",
"J 	c #484745",
"K 	c #464643",
"L 	c #554840",
"M 	c #F08A4F",
"N 	c #9A684B",
"O 	c #464543",
"P 	c #4E4D4B",
"Q 	c #4D4D4A",
"R 	c #534841",
"S 	c #E47E49",
"T 	c #F0834A",
"U 	c #926348",
"V 	c #A96B49",
"W 	c #484644",
"X 	c #545451",
"Y 	c #535350",
"Z 	c #514A47",
"` 	c #A76545",
" .	c #EF7B44",
"..	c #E37744",
"+.	c #544C47",
"@.	c #B16845",
"#.	c #564D47",
"$.	c #474743",
"%.	c #5A5A57",
"&.	c #565553",
"*.	c #614F45",
"=.	c #EF743F",
"-.	c #42413D",
";.	c #60605D",
">.	c #60605C",
",.	c #58534E",
"'.	c #825543",
").	c #EF6C3A",
"!.	c #51514F",
"~.	c #343330",
"{.	c #666663",
"].	c #656562",
"^.	c #59524C",
"/.	c #815442",
"(.	c #EE6435",
"_.	c #61615F",
":.	c #3E3D39",
"<.	c #6C6C69",
"[.	c #6B6B68",
"}.	c #605A55",
"|.	c #604F45",
"1.	c #A6563B",
"2.	c #E25B31",
"3.	c #EE5D2F",
"4.	c #676764",
"5.	c #72726F",
"6.	c #6E6C69",
"7.	c #635D58",
"8.	c #5F564E",
"9.	c #5E524A",
"0.	c #5F5F5B",
"a.	c #787875",
"b.	c #777775",
"c.	c #767673",
"d.	c #6D6D6B",
"e.	c #5F5F5C",
"f.	c #161413",
"g.	c #161514",
"h.	c #161615",
"i.	c #191817",
"j.	c #22201F",
"k.	c #2E2D29",
"l.	c #252321",
"m.	c #282623",
"n.	c #2B2824",
"o.	c #2D2925",
"p.	c #2C2925",
"q.	c #262422",
"r.	c #201F1D",
"s.	c #22211F",
"t.	c #232221",
"u.	c #302C28",
"v.	c #3F362C",
"w.	c #4B3F30",
"x.	c #4E4130",
"y.	c #1E1D1B",
"z.	c #292723",
"A.	c #37312A",
"B.	c #2A2926",
"C.	c #2D2B28",
"D.	c #3C352E",
"E.	c #534434",
"F.	c #2F2F2C",
"G.	c #393632",
"H.	c #564838",
"I.	c #2E2D2B",
"J.	c #383533",
"K.	c #4D4239",
"L.	c #5B4A3C",
"M.	c #59493C",
"N.	c #3C3A38",
"O.	c #4F433A",
"P.	c #3F3C3A",
"Q.	c #5E4C40",
"R.	c #604E40",
"S.	c #4D453E",
"T.	c #3F3E3C",
"U.	c #52473E",
"V.	c #41413F",
"W.	c #46423F",
"X.	c #655143",
"Y.	c #544A41",
"Z.	c #444340",
"`.	c #474645",
" +	c #4B4744",
".+	c #6A5547",
"++	c #594E46",
"@+	c #494845",
"#+	c #4D4C4B",
"$+	c #4F4C49",
"%+	c #6C574B",
"&+	c #6E584B",
"*+	c #5B524A",
"=+	c #60534B",
"-+	c #53524F",
";+	c #64574F",
">+	c #735C4F",
",+	c #705B4F",
"'+	c #54524F",
")+	c #66584F",
"!+	c #595957",
"~+	c #5B5854",
"{+	c #785F53",
"]+	c #5F5E5A",
"^+	c #675E57",
"/+	c #7D6356",
"(+	c #64625E",
"_+	c #6C635C",
":+	c #82665A",
"<+	c #6C6C68",
"[+	c #696865",
"}+	c #696662",
"|+	c #776760",
"1+	c #83685E",
"2+	c #86695D",
"3+	c #676763",
"4+	c #71716E",
"5+	c #6F6E6B",
"6+	c #6E6B68",
"7+	c #5E5D59",
"8+	c #71716F",
"9+	c #595956",
". . . . . . . . . . . . . . . . . . . . ",
"+ + + + + + + + + + + + + + + + + + + + ",
"@ @ @ @ @ @ # $ % & & * = - ; > > > > > ",
", , , , , , ' ) ! ~ ~ ! ) ' { ] ^ / / / ",
", , , , , ) ( _ : < < : _ ( ) [ % } | | ",
", , , , 1 2 3 3 3 3 3 3 3 3 2 1 [ % 4 5 ",
"6 6 7 8 9 0 0 0 0 0 0 0 0 0 0 9 8 a b c ",
"b d e ( f f f f f f f f f f f f ( e g h ",
"i j k l m m n o p m m p q r m m l k j s ",
"t u v w x x x y z A A z y x x x w v u B ",
"C D E F F F F F G H H G F F F F F E D I ",
"J K L M M M M M N H H N M M M M M L K O ",
"P Q R S T T T U z V V z U T T T S R Q W ",
"X Y Z `  . ...+.@. . .@.#... . .` Z Y $.",
"%.%.&.*.=.=.=.=.=.=.=.=.=.=.=.=.*.&.%.-.",
";.;.>.,.'.).).).).).).).).).).'.,.>.!.~.",
"{.{.{.].^./.(.(.(.(.(.(.(.(./.^.]._.:.~.",
"<.<.<.<.[.}.|.1.2.3.3.2.1.*.}.[.4.c ~.~.",
"5.5.5.5.5.5.6.7.8.9.9.8.7.6.5.0.h ~.~.~.",
"a.a.a.a.a.a.a.b.a.a.a.c.d.e./ ~.~.~.~.~.",
"~.~.~.~.~.~.~.~.~.~.~.~.~.~.~.~.~.~.~.~.",
"~.~.~.~.~.~.~.~.~.~.~.~.~.~.~.~.~.~.~.~.",
"~.~.~.~.~.~.~.~.~.~.~.~.~.~.~.~.~.~.~.~.",
"~.~.~.~.~.~.~.~.~.~.~.~.~.~.~.~.~.~.~.~.",
"~.~.~.~.~.~.~.~.~.~.~.~.~.~.~.~.~.~.~.~.",
". . . . . . . . . . . . . . . . . . . . ",
"+ + + + + + + + + + + + + + + + + + + + ",
"@ @ @ @ @ @ @ f.g.h.h.i.j.k.; > > > > > ",
", , , , , , l.m.n.o.o.p.q.r.s.] ^ / / / ",
", , , t., m.u.v.w.x.x.w.v.u.m.& y.} | | ",
", , , , z.A.x.x.x.x.x.x.x.x.A.z.& % 4 5 ",
"6 6 B.C.D.E.E.E.E.E.E.E.E.E.E.D.C.a b c ",
"b b F.G.H.H.H.H.H.H.H.H.H.H.H.H.G.F.I.h ",
"i i J.K.L.L.M.N.O.L.L.O.N.M.L.L.K.J.i s ",
"t t P.Q.R.R.R.S.T.U.U.T.S.R.R.R.Q.P.t B ",
"C V.W.X.X.X.X.X.Y.Z.Z.Y.X.X.X.X.X.W.V.I ",
"J `. +.+.+.+.+.+++@+@+++.+.+.+.+.+ +`.O ",
"P #+$+%+&+&+&+*+Q =+=+Q *+&+&+&+%+$+#+W ",
"X X -+;+>+>+,+'+)+>+>+)+'+,+>+>+;+-+X $.",
"%.%.!+~+{+{+{+{+{+{+{+{+{+{+{+{+~+!+%.-.",
";.;.;.]+^+/+/+/+/+/+/+/+/+/+/+^+]+;.!.~.",
"{.{.{.{.(+_+:+:+:+:+:+:+:+:+_+(+{._.:.~.",
"<.<.<.<+<+[+}+|+1+2+2+1+|+}+[+[.3+c ~.~.",
"5.5.5.5.5.5.4+5+6.6+6+6.5+4+5.7+h ~.~.~.",
"a.a.a.a.a.a.a.a.a.a.a.8+3+9+/ ~.~.~.~.~.",
"~.~.~.~.~.~.~.~.~.~.~.~.~.~.~.~.~.~.~.~.",
"~.~.~.~.~.~.~.~.~.~.~.~.~.~.~.~.~.~.~.~.",
"~.~.~.~.~.~.~.~.~.~.~.~.~.~.~.~.~.~.~.~.",
"~.~.~.~.~.~.~.~.~.~.~.~.~.~.~.~.~.~.~.~.",
"~.~.~.~.~.~.~.~.~.~.~.~.~.~.~.~.~.~.~.~."};
