/* XPM */
static char * closeO_xpm[] = {
"20 50 230 2",
"  	c None",
". 	c #53524E",
"+ 	c #504F4B",
"@ 	c #141312",
"# 	c #161514",
"$ 	c #1A1917",
"% 	c #1B1B19",
"& 	c #1E1D1C",
"* 	c #1D1C1B",
"= 	c #23211F",
"- 	c #2D2C29",
"; 	c #40403B",
"> 	c #4C4B47",
", 	c #242321",
"' 	c #242421",
") 	c #262522",
"! 	c #312C28",
"~ 	c #3C342E",
"{ 	c #413832",
"] 	c #302B27",
"^ 	c #242320",
"/ 	c #232320",
"( 	c #272724",
"_ 	c #4B4A46",
": 	c #494844",
"< 	c #242322",
"[ 	c #4F433A",
"} 	c #816749",
"| 	c #AC8755",
"1 	c #B58D58",
"2 	c #232221",
"3 	c #1F1E1D",
"4 	c #3E3D3A",
"5 	c #464541",
"6 	c #36302B",
"7 	c #665441",
"8 	c #B58B57",
"9 	c #464542",
"0 	c #44433F",
"a 	c #2A2927",
"b 	c #292826",
"c 	c #342F2B",
"d 	c #685342",
"e 	c #B78755",
"f 	c #302F2D",
"g 	c #474642",
"h 	c #302F2C",
"i 	c #2E2D2B",
"j 	c #52463E",
"k 	c #B78454",
"l 	c #2E2D2A",
"m 	c #3F3E3A",
"n 	c #363533",
"o 	c #353433",
"p 	c #3C3833",
"q 	c #856448",
"r 	c #B98051",
"s 	c #B17C50",
"t 	c #4C4842",
"u 	c #8D694B",
"v 	c #4B4642",
"w 	c #3B3B37",
"x 	c #3C3B39",
"y 	c #3B3B39",
"z 	c #48403B",
"A 	c #B2794E",
"B 	c #BA7D50",
"C 	c #785D48",
"D 	c #464642",
"E 	c #89654A",
"F 	c #3D3B3A",
"G 	c #42413F",
"H 	c #403F3E",
"I 	c #4E453F",
"J 	c #BC7A4E",
"K 	c #805F49",
"L 	c #484744",
"M 	c #41403E",
"N 	c #484745",
"O 	c #474744",
"P 	c #514742",
"Q 	c #BE754C",
"R 	c #825E49",
"S 	c #4A4846",
"T 	c #464543",
"U 	c #4E4D4B",
"V 	c #4D4D4A",
"W 	c #524944",
"X 	c #B76F4A",
"Y 	c #C0724B",
"Z 	c #7E5C49",
"` 	c #4C4B48",
" .	c #8E624A",
"..	c #484644",
"+.	c #545451",
"@.	c #535350",
"#.	c #524D49",
"$.	c #8E5F48",
"%.	c #C06F47",
"&.	c #B76C47",
"*.	c #544E49",
"=.	c #956248",
"-.	c #554F49",
";.	c #474743",
">.	c #5A5A57",
",.	c #575654",
"'.	c #5F524A",
").	c #C26C46",
"!.	c #42413D",
"~.	c #60605D",
"{.	c #5A5752",
"].	c #78584B",
"^.	c #C46844",
"/.	c #51514F",
"(.	c #343330",
"_.	c #666663",
":.	c #656562",
"<.	c #5D5853",
"[.	c #795A4C",
"}.	c #C56543",
"|.	c #61615F",
"1.	c #3E3D39",
"2.	c #6C6C69",
"3.	c #64605B",
"4.	c #645850",
"5.	c #955D49",
"6.	c #BF6142",
"7.	c #C76241",
"8.	c #655850",
"9.	c #6B6B68",
"0.	c #676764",
"a.	c #72726F",
"b.	c #737370",
"c.	c #73736F",
"d.	c #6F6D6B",
"e.	c #67635F",
"f.	c #645E58",
"g.	c #645B56",
"h.	c #5F5E5B",
"i.	c #787875",
"j.	c #777775",
"k.	c #747471",
"l.	c #6B6B69",
"m.	c #5D5D5A",
"n.	c #161413",
"o.	c #161615",
"p.	c #191817",
"q.	c #22201F",
"r.	c #2E2D29",
"s.	c #252321",
"t.	c #282623",
"u.	c #2B2824",
"v.	c #2D2925",
"w.	c #2C2925",
"x.	c #262422",
"y.	c #201F1D",
"z.	c #22211F",
"A.	c #282824",
"B.	c #302C28",
"C.	c #3F362C",
"D.	c #4B3F30",
"E.	c #4E4130",
"F.	c #222120",
"G.	c #1E1D1B",
"H.	c #292723",
"I.	c #37312A",
"J.	c #2A2926",
"K.	c #2D2B28",
"L.	c #3C352E",
"M.	c #534434",
"N.	c #272624",
"O.	c #2F2F2C",
"P.	c #393632",
"Q.	c #564838",
"R.	c #383533",
"S.	c #4D4239",
"T.	c #5B4A3C",
"U.	c #59493C",
"V.	c #3C3A38",
"W.	c #3F3C3A",
"X.	c #5E4C40",
"Y.	c #604E40",
"Z.	c #4D453E",
"`.	c #3F3E3C",
" +	c #52473E",
".+	c #41413F",
"++	c #46423F",
"@+	c #655143",
"#+	c #544A41",
"$+	c #444340",
"%+	c #474645",
"&+	c #4B4744",
"*+	c #6A5547",
"=+	c #594E46",
"-+	c #494845",
";+	c #4D4C4B",
">+	c #4F4C49",
",+	c #6C574B",
"'+	c #6E584B",
")+	c #5B524A",
"!+	c #60534B",
"~+	c #53524F",
"{+	c #64574F",
"]+	c #735C4F",
"^+	c #705B4F",
"/+	c #54524F",
"(+	c #66584F",
"_+	c #595957",
":+	c #5B5854",
"<+	c #785F53",
"[+	c #5F5E5A",
"}+	c #675E57",
"|+	c #7D6356",
"1+	c #64625E",
"2+	c #6C635C",
"3+	c #82665A",
"4+	c #6C6C68",
"5+	c #696865",
"6+	c #696662",
"7+	c #776760",
"8+	c #83685E",
"9+	c #86695D",
"0+	c #676763",
"a+	c #71716E",
"b+	c #6F6E6B",
"c+	c #6E6C69",
"d+	c #6E6B68",
"e+	c #5E5D59",
"f+	c #71716F",
"g+	c #595956",
". . . . . . . . . . . . . . . . . . . . ",
"+ + + + + + + + + + + + + + + + + + + + ",
"@ @ @ @ @ @ # $ % & & * = - ; > > > > > ",
", , , , , ' ) ! ~ { { ~ ] ^ / ( _ : : : ",
", , , < , ! [ } | 1 1 | } [ ! 2 3 4 5 5 ",
", , , , 6 7 8 8 8 8 8 8 8 8 7 6 2 3 9 0 ",
"a a b c d e e e e e e e e e e d c ( f g ",
"f h i j k k k k k k k k k k k k j i l m ",
"n o p q r r s t u r r u v s r r q p o w ",
"x y z A B B B C D E E D C B B B A z y F ",
"G H I J J J J J K L L K J J J J J I H M ",
"N O P Q Q Q Q Q R S S R Q Q Q Q Q P O T ",
"U V W X Y Y Y Z `  . .` Z Y Y Y X W V ..",
"+.@.#.$.%.%.&.*.=.%.%.=.-.&.%.%.$.#.@.;.",
">.>.,.'.).).).).).).).).).).).).'.,.>.!.",
"~.~.~.{.].^.^.^.^.^.^.^.^.^.^.].{.~./.(.",
"_._._.:.<.[.}.}.}.}.}.}.}.}.[.<.:.|.1.(.",
"2.2.2.2.2.3.4.5.6.7.7.6.5.8.3.9.0.g (.(.",
"a.a.a.a.b.c.d.e.f.g.g.f.e.d.c.h.m (.(.(.",
"i.i.i.i.i.i.i.j.i.i.i.k.l.m.: (.(.(.(.(.",
"(.(.(.(.(.(.(.(.(.(.(.(.(.(.(.(.(.(.(.(.",
"(.(.(.(.(.(.(.(.(.(.(.(.(.(.(.(.(.(.(.(.",
"(.(.(.(.(.(.(.(.(.(.(.(.(.(.(.(.(.(.(.(.",
"(.(.(.(.(.(.(.(.(.(.(.(.(.(.(.(.(.(.(.(.",
"(.(.(.(.(.(.(.(.(.(.(.(.(.(.(.(.(.(.(.(.",
". . . . . . . . . . . . . . . . . . . . ",
"+ + + + + + + + + + + + + + + + + + + + ",
"@ @ @ @ @ @ @ n.# o.o.p.q.r.; > > > > > ",
", , , , , , s.t.u.v.v.w.x.y.z.A._ : : : ",
", , , 2 , t.B.C.D.E.E.D.C.B.t.F.G.4 5 5 ",
", , , , H.I.E.E.E.E.E.E.E.E.I.H.F.3 9 0 ",
"a a J.K.L.M.M.M.M.M.M.M.M.M.M.L.K.N.f g ",
"f f O.P.Q.Q.Q.Q.Q.Q.Q.Q.Q.Q.Q.Q.P.O.i m ",
"n n R.S.T.T.U.V.[ T.T.[ V.U.T.T.S.R.n w ",
"x x W.X.Y.Y.Y.Z.`. + +`.Z.Y.Y.Y.X.W.x F ",
"G .+++@+@+@+@+@+#+$+$+#+@+@+@+@+@+++.+M ",
"N %+&+*+*+*+*+*+=+-+-+=+*+*+*+*+*+&+%+T ",
"U ;+>+,+'+'+'+)+V !+!+V )+'+'+'+,+>+;+..",
"+.+.~+{+]+]+^+/+(+]+]+(+/+^+]+]+{+~++.;.",
">.>._+:+<+<+<+<+<+<+<+<+<+<+<+<+:+_+>.!.",
"~.~.~.[+}+|+|+|+|+|+|+|+|+|+|+}+[+~./.(.",
"_._._._.1+2+3+3+3+3+3+3+3+3+2+1+_.|.1.(.",
"2.2.2.4+4+5+6+7+8+9+9+8+7+6+5+9.0+g (.(.",
"a.a.a.a.a.a.a+b+c+d+d+c+b+a+a.e+m (.(.(.",
"i.i.i.i.i.i.i.i.i.i.i.f+0+g+: (.(.(.(.(.",
"(.(.(.(.(.(.(.(.(.(.(.(.(.(.(.(.(.(.(.(.",
"(.(.(.(.(.(.(.(.(.(.(.(.(.(.(.(.(.(.(.(.",
"(.(.(.(.(.(.(.(.(.(.(.(.(.(.(.(.(.(.(.(.",
"(.(.(.(.(.(.(.(.(.(.(.(.(.(.(.(.(.(.(.(.",
"(.(.(.(.(.(.(.(.(.(.(.(.(.(.(.(.(.(.(.(."};
