/* XPM */
static char * dframeITR_xpm[] = {
"10 10 12 1",
" 	c None",
".	c #59554F",
"+	c #5A5A54",
"@	c #575651",
"#	c #565550",
"$	c #53524E",
"%	c #504F4B",
"&	c #4E4D48",
"*	c #4B4A45",
"=	c #484743",
"-	c #454440",
";	c #42413D",
".....     ",
"+++++..   ",
"@@@@@##.  ",
"$$$$$$$$. ",
"%%%%%%%%. ",
"&&&&&&&&&.",
"*********.",
"=========.",
"---------.",
";;;;;;;;;."};
