/* XPM */
static char * frameABL_xpm[] = {
"10 10 4 1",
" 	c None",
".	c #59554F",
"+	c #343330",
"@	c #353431",
".+++@+@+@@",
".+++++++++",
".+++++++++",
".+++++++++",
".+++++++++",
" +++++++++",
" @++++++++",
"  ++++++++",
"   +++++++",
"     ....."};
