/* XPM */
static char * frameABR_xpm[] = {
"10 10 4 1",
" 	c None",
".	c #353431",
"+	c #343330",
"@	c #59554F",
"..+.+.+++@",
"+++++++++@",
"+++++++++@",
"+++++++++@",
"+++++++++@",
"+++++++++ ",
"++++++++. ",
"++++++++  ",
"+++++++   ",
"@@@@@     "};
