/* XPM */
static char * maximizeO_xpm[] = {
"20 50 188 2",
"  	c None",
". 	c #53524E",
"+ 	c #504F4B",
"@ 	c #141312",
"# 	c #161514",
"$ 	c #191917",
"% 	c #1B1B19",
"& 	c #1E1D1C",
"* 	c #242321",
"= 	c #242421",
"- 	c #252422",
"; 	c #262522",
"> 	c #262623",
", 	c #242322",
"' 	c #2F2E2C",
") 	c #6D6C6A",
"! 	c #8E8E8B",
"~ 	c #ADACAA",
"{ 	c #282826",
"] 	c #4D4C4A",
"^ 	c #A8A7A5",
"/ 	c #BCBBB8",
"( 	c #2A2927",
"_ 	c #292826",
": 	c #2C2A29",
"< 	c #51504E",
"[ 	c #BCB9B8",
"} 	c #BDBBB9",
"| 	c #302F2D",
"1 	c #302F2C",
"2 	c #2F2E2D",
"3 	c #3B3A39",
"4 	c #ABAAA8",
"5 	c #BDBCBA",
"6 	c #363533",
"7 	c #353432",
"8 	c #383735",
"9 	c #787774",
"0 	c #BFBCB9",
"a 	c #B9B7B4",
"b 	c #908F8D",
"c 	c #91908E",
"d 	c #3C3B39",
"e 	c #3B3B39",
"f 	c #3F3E3C",
"g 	c #999794",
"h 	c #C0BEBA",
"i 	c #B7B5B2",
"j 	c #888785",
"k 	c #6C6B6A",
"l 	c #42413F",
"m 	c #403F3E",
"n 	c #454542",
"o 	c #B5B2AF",
"p 	c #C1BEBB",
"q 	c #B4B2AE",
"r 	c #81807F",
"s 	c #70706F",
"t 	c #9B9A97",
"u 	c #484745",
"v 	c #474744",
"w 	c #4A4947",
"x 	c #B4B1AD",
"y 	c #C0BDB8",
"z 	c #B7B3AF",
"A 	c #7D7C7A",
"B 	c #767473",
"C 	c #A29F9C",
"D 	c #C0BCB8",
"E 	c #7D7C7B",
"F 	c #4E4D4B",
"G 	c #4D4D4A",
"H 	c #9D9A95",
"I 	c #C0BCB5",
"J 	c #B3B0AA",
"K 	c #8F8C89",
"L 	c #ABA8A3",
"M 	c #545451",
"N 	c #525250",
"O 	c #85827D",
"P 	c #BEBBB3",
"Q 	c #5A5A57",
"R 	c #595856",
"S 	c #595957",
"T 	c #B0ADA5",
"U 	c #BEBAB2",
"V 	c #60605D",
"W 	c #5D5D59",
"X 	c #706F6B",
"Y 	c #BEB9AF",
"Z 	c #BEB9B0",
"` 	c #666663",
" .	c #646461",
"..	c #5E5E5B",
"+.	c #73716C",
"@.	c #B1ADA3",
"#.	c #BEB9AE",
"$.	c #6C6C69",
"%.	c #6B6B68",
"&.	c #656562",
"*.	c #61615D",
"=.	c #898680",
"-.	c #9F9C92",
";.	c #B4AFA4",
">.	c #72726F",
",.	c #737370",
"'.	c #73736F",
").	c #6E6E6C",
"!.	c #676765",
"~.	c #626261",
"{.	c #5F5F5D",
"].	c #787875",
"^.	c #777775",
"/.	c #343330",
"(.	c #151413",
"_.	c #161615",
":.	c #252321",
"<.	c #252421",
"[.	c #232221",
"}.	c #272624",
"|.	c #393835",
"1.	c #43423F",
"2.	c #4B4A48",
"3.	c #4A4946",
"4.	c #504E4C",
"5.	c #2A2926",
"6.	c #2B2A27",
"7.	c #545350",
"8.	c #545351",
"9.	c #2F2F2D",
"0.	c #333330",
"a.	c #535350",
"b.	c #585855",
"c.	c #363534",
"d.	c #494746",
"e.	c #5D5B5A",
"f.	c #5B5A58",
"g.	c #504E4D",
"h.	c #504F4D",
"i.	c #3D3C3A",
"j.	c #575553",
"k.	c #62605E",
"l.	c #5F5E5C",
"m.	c #52514F",
"n.	c #4A4948",
"o.	c #41413F",
"p.	c #434240",
"q.	c #63615F",
"r.	c #676562",
"s.	c #63615E",
"t.	c #4F4E4C",
"u.	c #5C5A58",
"v.	c #474645",
"w.	c #494845",
"x.	c #676662",
"y.	c #6B6966",
"z.	c #686663",
"A.	c #585654",
"B.	c #555452",
"C.	c #62615E",
"D.	c #585754",
"E.	c #4D4C4B",
"F.	c #4E4E4B",
"G.	c #646360",
"H.	c #6E6D69",
"I.	c #6A6A66",
"J.	c #686864",
"K.	c #545450",
"L.	c #535351",
"M.	c #72716D",
"N.	c #73726E",
"O.	c #777671",
"P.	c #5F5F5C",
"Q.	c #656561",
"R.	c #7B7A74",
"S.	c #6A6A65",
"T.	c #7C7B75",
"U.	c #807E78",
"V.	c #6C6C68",
"W.	c #696967",
"X.	c #686866",
"Y.	c #74736F",
"Z.	c #7A7975",
"`.	c #807F7A",
" +	c #71716E",
".+	c #6F6F6C",
"++	c #6D6D6B",
"@+	c #6C6C6A",
". . . . . . . . . . . . . . . . . . . . ",
"+ + + + + + + + + + + + + + + + + + + + ",
"@ @ @ @ @ @ # $ % & & % $ # @ @ @ @ @ @ ",
"* * * * * = - ; ; > > ; ; - = * * * * * ",
"* * * , * > ' ) ! ~ ~ ! ) ' > * , * * * ",
"* * * * { ] ^ / / / / / / ^ ] { * * * * ",
"( ( _ : < [ } } } } } } } } [ < : _ ( ( ",
"| 1 2 3 4 5 5 5 5 5 5 5 5 5 5 4 3 2 1 | ",
"6 7 8 9 0 0 0 0 a b c a 0 0 0 0 9 8 7 6 ",
"d e f g h h h i j k k j i h h h g f e d ",
"l m n o p p q r s t t s r q p p o n m l ",
"u v w x y z A B C D D C B E z y x w v u ",
"F G F H I J K L I I I I L K J I H F G F ",
"M M N O P P P P P P P P P P P P O N M M ",
"Q Q R S T U U U U U U U U U U T S R Q Q ",
"V V V W X Y Z Z Z Z Z Z Z Z Y X W V V V ",
"` ` `  ...+.@.#.#.#.#.#.#.@.+... .` ` ` ",
"$.$.$.$.%.&.*.=.-.;.;.-.=.*.&.%.$.$.$.$.",
">.>.>.>.,.'.).!.~.{.{.~.!.).'.,.>.>.>.>.",
"].].].].].].].^.].].].].^.].].].].].].].",
"/./././././././././././././././././././.",
"/./././././././././././././././././././.",
"/./././././././././././././././././././.",
"/./././././././././././././././././././.",
"/./././././././././././././././././././.",
". . . . . . . . . . . . . . . . . . . . ",
"+ + + + + + + + + + + + + + + + + + + + ",
"@ @ @ @ @ @ @ (.# _._.# (.@ @ @ @ @ @ @ ",
"* * * * * * * :.:.<.<.:.:.* * * * * * * ",
"* * * [.* <.}.|.1.2.2.1.|.}.<.* [.* * * ",
"* * * * - 1 3.4.4.4.4.4.4.3.1 - * * * * ",
"( ( 5.6.7 7.8.8.8.8.8.8.8.8.7.7 6.5.( ( ",
"| | 9.0.a.b.b.b.b.b.b.b.b.b.b.a.0.9.| | ",
"6 6 c.d.e.e.e.e.f.g.h.f.e.e.e.e.d.c.6 6 ",
"d d i.j.k.k.k.l.m.n.n.m.l.k.k.k.j.i.d d ",
"l o.p.q.r.r.s.8.t.u.u.t.8.s.r.r.q.p.o.l ",
"u v.w.x.y.z.A.B.C.y.y.C.B.D.z.y.x.w.v.u ",
"F E.F.G.H.I.V J.H.H.H.H.J.V I.H.G.F.E.F ",
"M K.L.C.M.M.M.M.M.M.M.M.M.M.M.M.C.L.K.M ",
"Q Q Q Q N.O.O.O.O.O.O.O.O.O.O.N.Q Q Q Q ",
"V V V P.Q.R.R.R.R.R.R.R.R.R.R.Q.P.V V V ",
"` ` ` `  .S.T.U.U.U.U.U.U.T.S. .` ` ` ` ",
"$.$.$.V.V.W.X.Y.Z.`.`.Z.Y.X.W.V.V.$.$.$.",
">.>.>.>.>.>. +.+++@+@+++.+ +>.>.>.>.>.>.",
"].].].].].].].].].].].].].].].].].].].].",
"/./././././././././././././././././././.",
"/./././././././././././././././././././.",
"/./././././././././././././././././././.",
"/./././././././././././././././././././.",
"/./././././././././././././././././././."};
