/* XPM */
static char * maximizeA_xpm[] = {
"20 50 184 2",
"  	c None",
". 	c #53524E",
"+ 	c #504F4B",
"@ 	c #141312",
"# 	c #181715",
"$ 	c #1C1B19",
"% 	c #1F1E1D",
"& 	c #222120",
"* 	c #242321",
"= 	c #252422",
"- 	c #262523",
"; 	c #272624",
"> 	c #333231",
", 	c #8D8B89",
"' 	c #BCBCB9",
") 	c #E8E7E5",
"! 	c #2A2928",
"~ 	c #5F5D5C",
"{ 	c #E1E0DE",
"] 	c #FDFCF9",
"^ 	c #2A2927",
"/ 	c #282825",
"( 	c #2C2B29",
"_ 	c #61615E",
": 	c #FAF8F6",
"< 	c #FCFAF8",
"[ 	c #302F2D",
"} 	c #2F2E2C",
"| 	c #403F3D",
"1 	c #E1DFDC",
"2 	c #FBF9F6",
"3 	c #363533",
"4 	c #353432",
"5 	c #393836",
"6 	c #959391",
"7 	c #FAF7F4",
"8 	c #F2EFED",
"9 	c #B8B6B5",
"0 	c #B9B8B6",
"a 	c #3C3B39",
"b 	c #3A3A37",
"c 	c #403F3E",
"d 	c #C1BEBB",
"e 	c #F9F6F2",
"f 	c #EDEAE6",
"g 	c #A9A8A6",
"h 	c #818080",
"i 	c #42413F",
"j 	c #40403D",
"k 	c #474644",
"l 	c #E6E2DF",
"m 	c #F8F4F0",
"n 	c #E5E2DE",
"o 	c #9C9B9A",
"p 	c #848484",
"q 	c #C2C0BD",
"r 	c #484745",
"s 	c #464643",
"t 	c #4B4B48",
"u 	c #E3E0D9",
"v 	c #F4F0EA",
"w 	c #E6E3DD",
"x 	c #949391",
"y 	c #898887",
"z 	c #C9C6C2",
"A 	c #F3EFE9",
"B 	c #949492",
"C 	c #4E4D4B",
"D 	c #4D4D4A",
"E 	c #4E4E4B",
"F 	c #BEBBB5",
"G 	c #F0ECE3",
"H 	c #DEDBD3",
"I 	c #AAA8A4",
"J 	c #D3D0C9",
"K 	c #545451",
"L 	c #535351",
"M 	c #525150",
"N 	c #9A9691",
"O 	c #EDE8DE",
"P 	c #5A5A57",
"Q 	c #595856",
"R 	c #595957",
"S 	c #D6D1C7",
"T 	c #EAE4D9",
"U 	c #60605D",
"V 	c #60605C",
"W 	c #5B5B58",
"X 	c #777671",
"Y 	c #E6DFD3",
"Z 	c #E7E0D4",
"` 	c #666663",
" .	c #646461",
"..	c #5A5A58",
"+.	c #787670",
"@.	c #D1CBBE",
"#.	c #E4DDCF",
"$.	c #6C6C69",
"%.	c #6A6A67",
"&.	c #61615F",
"*.	c #5C5B58",
"=.	c #959189",
"-.	c #B5B0A4",
";.	c #D3CCBD",
">.	c #72726F",
",.	c #6D6D6A",
"'.	c #636360",
").	c #5C5C5A",
"!.	c #575755",
"~.	c #787875",
"{.	c #777775",
"].	c #343330",
"^.	c #151413",
"/.	c #161514",
"(.	c #161615",
"_.	c #252321",
":.	c #252421",
"<.	c #232221",
"[.	c #393835",
"}.	c #43423F",
"|.	c #4B4A48",
"1.	c #302F2C",
"2.	c #4A4946",
"3.	c #504E4C",
"4.	c #2A2926",
"5.	c #2B2A27",
"6.	c #545350",
"7.	c #545351",
"8.	c #2F2F2D",
"9.	c #333330",
"0.	c #535350",
"a.	c #585855",
"b.	c #363534",
"c.	c #494746",
"d.	c #5D5B5A",
"e.	c #5B5A58",
"f.	c #504E4D",
"g.	c #504F4D",
"h.	c #3D3C3A",
"i.	c #575553",
"j.	c #62605E",
"k.	c #5F5E5C",
"l.	c #52514F",
"m.	c #4A4948",
"n.	c #41413F",
"o.	c #434240",
"p.	c #63615F",
"q.	c #676562",
"r.	c #63615E",
"s.	c #4F4E4C",
"t.	c #5C5A58",
"u.	c #474645",
"v.	c #494845",
"w.	c #676662",
"x.	c #6B6966",
"y.	c #686663",
"z.	c #585654",
"A.	c #555452",
"B.	c #62615E",
"C.	c #585754",
"D.	c #4D4C4B",
"E.	c #646360",
"F.	c #6E6D69",
"G.	c #6A6A66",
"H.	c #686864",
"I.	c #545450",
"J.	c #72716D",
"K.	c #73726E",
"L.	c #5F5F5C",
"M.	c #656561",
"N.	c #7B7A74",
"O.	c #6A6A65",
"P.	c #7C7B75",
"Q.	c #807E78",
"R.	c #6C6C68",
"S.	c #696967",
"T.	c #686866",
"U.	c #74736F",
"V.	c #7A7975",
"W.	c #807F7A",
"X.	c #71716E",
"Y.	c #6F6F6C",
"Z.	c #6D6D6B",
"`.	c #6C6C6A",
". . . . . . . . . . . . . . . . . . . . ",
"+ + + + + + + + + + + + + + + + + + + + ",
"@ @ @ @ @ @ # $ % & & % $ # @ @ @ @ @ @ ",
"* * * * * * = - - ; ; - - = * * * * * * ",
"* * * * * ; > , ' ) ) ' , > ; * * * * * ",
"* * * * ! ~ { ] ] ] ] ] ] { ~ ! * * * * ",
"^ ^ / ( _ : < < < < < < < < : _ ( / ^ ^ ",
"[ } } | 1 2 2 2 2 2 2 2 2 2 2 1 | } } [ ",
"3 4 5 6 7 7 7 7 8 9 0 8 7 7 7 7 6 5 4 3 ",
"a b c d e e e f g h h g f e e e d c b a ",
"i j k l m m n o p q q p o n m m l k j i ",
"r s t u v w x y z A A z y B w v u t s r ",
"C D E F G H I J G G G G J I H G F E D C ",
"K L M N O O O O O O O O O O O O N M L K ",
"P P Q R S T T T T T T T T T T S R Q P P ",
"U U V W X Y Z Z Z Z Z Z Z Z Y X W V U U ",
"` ` `  ...+.@.#.#.#.#.#.#.@.+... .` ` ` ",
"$.$.$.$.%.&.*.=.-.;.;.-.=.*.&.%.$.$.$.$.",
">.>.>.>.>.>.,.'.).!.!.).'.,.>.>.>.>.>.>.",
"~.~.~.~.~.~.~.{.~.~.~.~.{.~.~.~.~.~.~.~.",
"].].].].].].].].].].].].].].].].].].].].",
"].].].].].].].].].].].].].].].].].].].].",
"].].].].].].].].].].].].].].].].].].].].",
"].].].].].].].].].].].].].].].].].].].].",
"].].].].].].].].].].].].].].].].].].].].",
". . . . . . . . . . . . . . . . . . . . ",
"+ + + + + + + + + + + + + + + + + + + + ",
"@ @ @ @ @ @ @ ^./.(.(./.^.@ @ @ @ @ @ @ ",
"* * * * * * * _._.:.:._._.* * * * * * * ",
"* * * <.* :.; [.}.|.|.}.[.; :.* <.* * * ",
"* * * * = 1.2.3.3.3.3.3.3.2.1.= * * * * ",
"^ ^ 4.5.4 6.7.7.7.7.7.7.7.7.6.4 5.4.^ ^ ",
"[ [ 8.9.0.a.a.a.a.a.a.a.a.a.a.0.9.8.[ [ ",
"3 3 b.c.d.d.d.d.e.f.g.e.d.d.d.d.c.b.3 3 ",
"a a h.i.j.j.j.k.l.m.m.l.k.j.j.j.i.h.a a ",
"i n.o.p.q.q.r.7.s.t.t.s.7.r.q.q.p.o.n.i ",
"r u.v.w.x.y.z.A.B.x.x.B.A.C.y.x.w.v.u.r ",
"C D.E E.F.G.U H.F.F.F.F.H.U G.F.E.E D.C ",
"K I.L B.J.J.J.J.J.J.J.J.J.J.J.J.B.L I.K ",
"P P P P K.X X X X X X X X X X K.P P P P ",
"U U U L.M.N.N.N.N.N.N.N.N.N.N.M.L.U U U ",
"` ` ` `  .O.P.Q.Q.Q.Q.Q.Q.P.O. .` ` ` ` ",
"$.$.$.R.R.S.T.U.V.W.W.V.U.T.S.R.R.$.$.$.",
">.>.>.>.>.>.X.Y.Z.`.`.Z.Y.X.>.>.>.>.>.>.",
"~.~.~.~.~.~.~.~.~.~.~.~.~.~.~.~.~.~.~.~.",
"].].].].].].].].].].].].].].].].].].].].",
"].].].].].].].].].].].].].].].].].].].].",
"].].].].].].].].].].].].].].].].].].].].",
"].].].].].].].].].].].].].].].].].].].].",
"].].].].].].].].].].].].].].].].].].].]."};
