/* XPM */
static char * maximizeI_xpm[] = {
"20 50 176 2",
"  	c None",
". 	c #53524E",
"+ 	c #504F4B",
"@ 	c #141312",
"# 	c #181715",
"$ 	c #1C1B19",
"% 	c #1F1E1D",
"& 	c #222120",
"* 	c #242321",
"= 	c #232220",
"- 	c #201F1D",
"; 	c #1E1D1B",
"> 	c #1C1C1A",
", 	c #201F1E",
"' 	c #1D1C1B",
") 	c #2F2E2C",
"! 	c #383835",
"~ 	c #40403E",
"{ 	c #262523",
"] 	c #3E3E3C",
"^ 	c #454542",
"/ 	c #2A2927",
"( 	c #282825",
"_ 	c #272726",
": 	c #454543",
"< 	c #464643",
"[ 	c #302F2D",
"} 	c #2B2A28",
"| 	c #242322",
"1 	c #424240",
"2 	c #484845",
"3 	c #363533",
"4 	c #353432",
"5 	c #2E2D2B",
"6 	c #383735",
"7 	c #4B4B48",
"8 	c #5B5B5A",
"9 	c #5B5B59",
"0 	c #3C3B39",
"a 	c #3A3A37",
"b 	c #302F2E",
"c 	c #434241",
"d 	c #4D4D4A",
"e 	c #4C4C49",
"f 	c #656564",
"g 	c #8C8C8B",
"h 	c #42413F",
"i 	c #40403D",
"j 	c #323230",
"k 	c #504F4C",
"l 	c #4E4E4B",
"m 	c #71706F",
"n 	c #8A8989",
"o 	c #575755",
"p 	c #484745",
"q 	c #373735",
"r 	c #4E4E4C",
"s 	c #52524F",
"t 	c #50504E",
"u 	c #767675",
"v 	c #838383",
"w 	c #535351",
"x 	c #767676",
"y 	c #4E4D4B",
"z 	c #3F3F3D",
"A 	c #4C4C4A",
"B 	c #4F4F4D",
"C 	c #646463",
"D 	c #646462",
"E 	c #545451",
"F 	c #535350",
"G 	c #494847",
"H 	c #494948",
"I 	c #555452",
"J 	c #535250",
"K 	c #51504E",
"L 	c #504F4D",
"M 	c #4F4E4C",
"N 	c #5A5A57",
"O 	c #565553",
"P 	c #464544",
"Q 	c #52514E",
"R 	c #50504C",
"S 	c #4F4E4B",
"T 	c #4E4E4A",
"U 	c #60605D",
"V 	c #60605C",
"W 	c #555552",
"X 	c #52524E",
"Y 	c #4E4D4A",
"Z 	c #666663",
"` 	c #656562",
" .	c #4F4F4C",
"..	c #53524F",
"+.	c #51514D",
"@.	c #6C6C69",
"#.	c #6B6B68",
"$.	c #50504D",
"%.	c #4E4D49",
"&.	c #72726F",
"*.	c #6E6E6B",
"=.	c #5F5F5C",
"-.	c #787875",
";.	c #777775",
">.	c #343330",
",.	c #151413",
"'.	c #161514",
").	c #161615",
"!.	c #252321",
"~.	c #252421",
"{.	c #232221",
"].	c #272624",
"^.	c #393835",
"/.	c #43423F",
"(.	c #4B4A48",
"_.	c #252422",
":.	c #302F2C",
"<.	c #4A4946",
"[.	c #504E4C",
"}.	c #2A2926",
"|.	c #2B2A27",
"1.	c #545350",
"2.	c #545351",
"3.	c #2F2F2D",
"4.	c #333330",
"5.	c #585855",
"6.	c #363534",
"7.	c #494746",
"8.	c #5D5B5A",
"9.	c #5B5A58",
"0.	c #504E4D",
"a.	c #3D3C3A",
"b.	c #575553",
"c.	c #62605E",
"d.	c #5F5E5C",
"e.	c #52514F",
"f.	c #4A4948",
"g.	c #41413F",
"h.	c #434240",
"i.	c #63615F",
"j.	c #676562",
"k.	c #63615E",
"l.	c #5C5A58",
"m.	c #474645",
"n.	c #494845",
"o.	c #676662",
"p.	c #6B6966",
"q.	c #686663",
"r.	c #585654",
"s.	c #62615E",
"t.	c #585754",
"u.	c #4D4C4B",
"v.	c #646360",
"w.	c #6E6D69",
"x.	c #6A6A66",
"y.	c #686864",
"z.	c #545450",
"A.	c #72716D",
"B.	c #73726E",
"C.	c #777671",
"D.	c #656561",
"E.	c #7B7A74",
"F.	c #646461",
"G.	c #6A6A65",
"H.	c #7C7B75",
"I.	c #807E78",
"J.	c #6C6C68",
"K.	c #696967",
"L.	c #686866",
"M.	c #74736F",
"N.	c #7A7975",
"O.	c #807F7A",
"P.	c #71716E",
"Q.	c #6F6F6C",
"R.	c #6D6D6B",
"S.	c #6C6C6A",
". . . . . . . . . . . . . . . . . . . . ",
"+ + + + + + + + + + + + + + + + + + + + ",
"@ @ @ @ @ @ # $ % & & % $ # @ @ @ @ @ @ ",
"* * * * * * = - ; > > ; - = * * * * * * ",
"* * * * * , ' ) ! ~ ~ ! ) ' , * * * * * ",
"* * * * ; { ] ^ ^ ^ ^ ^ ^ ] { ; * * * * ",
"/ / ( = _ : < < < < < < < < : _ = ( / / ",
"[ ) } | 1 2 2 2 2 2 2 2 2 2 2 1 | } ) [ ",
"3 4 5 6 7 7 7 7 7 8 9 7 7 7 7 7 6 5 4 3 ",
"0 a b c d d d e f g g f e d d d c b a 0 ",
"h i j e k k l m n o o n m d k k e j i h ",
"p < q r s t u v w d d w v x t s r q < p ",
"y d z A w B C B l l l l B D B w A z d y ",
"E F G H I J K L M y y M L K J I H G F E ",
"N N O P J F Q R S T T S R Q F J P O N N ",
"U U V W e F X R S Y Y S R X F e W V U U ",
"Z Z Z ` E  ...+.+ T T + +... .E ` Z Z Z ",
"@.@.@.@.#.U w s $.%.%.$.s w U #.@.@.@.@.",
"&.&.&.&.&.&.*.D =.N N =.D *.&.&.&.&.&.&.",
"-.-.-.-.-.-.-.;.-.-.-.-.;.-.-.-.-.-.-.-.",
">.>.>.>.>.>.>.>.>.>.>.>.>.>.>.>.>.>.>.>.",
">.>.>.>.>.>.>.>.>.>.>.>.>.>.>.>.>.>.>.>.",
">.>.>.>.>.>.>.>.>.>.>.>.>.>.>.>.>.>.>.>.",
">.>.>.>.>.>.>.>.>.>.>.>.>.>.>.>.>.>.>.>.",
">.>.>.>.>.>.>.>.>.>.>.>.>.>.>.>.>.>.>.>.",
". . . . . . . . . . . . . . . . . . . . ",
"+ + + + + + + + + + + + + + + + + + + + ",
"@ @ @ @ @ @ @ ,.'.).).'.,.@ @ @ @ @ @ @ ",
"* * * * * * * !.!.~.~.!.!.* * * * * * * ",
"* * * {.* ~.].^./.(.(./.^.].~.* {.* * * ",
"* * * * _.:.<.[.[.[.[.[.[.<.:._.* * * * ",
"/ / }.|.4 1.2.2.2.2.2.2.2.2.1.4 |.}./ / ",
"[ [ 3.4.F 5.5.5.5.5.5.5.5.5.5.F 4.3.[ [ ",
"3 3 6.7.8.8.8.8.9.0.L 9.8.8.8.8.7.6.3 3 ",
"0 0 a.b.c.c.c.d.e.f.f.e.d.c.c.c.b.a.0 0 ",
"h g.h.i.j.j.k.2.M l.l.M 2.k.j.j.i.h.g.h ",
"p m.n.o.p.q.r.I s.p.p.s.I t.q.p.o.n.m.p ",
"y u.l v.w.x.U y.w.w.w.w.y.U x.w.v.l u.y ",
"E z.w s.A.A.A.A.A.A.A.A.A.A.A.A.s.w z.E ",
"N N N N B.C.C.C.C.C.C.C.C.C.C.B.N N N N ",
"U U U =.D.E.E.E.E.E.E.E.E.E.E.D.=.U U U ",
"Z Z Z Z F.G.H.I.I.I.I.I.I.H.G.F.Z Z Z Z ",
"@.@.@.J.J.K.L.M.N.O.O.N.M.L.K.J.J.@.@.@.",
"&.&.&.&.&.&.P.Q.R.S.S.R.Q.P.&.&.&.&.&.&.",
"-.-.-.-.-.-.-.-.-.-.-.-.-.-.-.-.-.-.-.-.",
">.>.>.>.>.>.>.>.>.>.>.>.>.>.>.>.>.>.>.>.",
">.>.>.>.>.>.>.>.>.>.>.>.>.>.>.>.>.>.>.>.",
">.>.>.>.>.>.>.>.>.>.>.>.>.>.>.>.>.>.>.>.",
">.>.>.>.>.>.>.>.>.>.>.>.>.>.>.>.>.>.>.>.",
">.>.>.>.>.>.>.>.>.>.>.>.>.>.>.>.>.>.>.>."};
