/* XPM */
static char * menusep_xpm[] = {
"228 1 3 1",
" 	c None",
".	c #302F2C",
"+	c #3A3A3A",
".....++++++++++++++++++++++++++++++++++++++++++++++++++++++++++++++++++++++++++++++++++++++++++++++++++++++++++++++++++++++++++++++++++++++++++++++++++++++++++++++++++++++++++++++++++++++++++++++++++++++++++++++++++++++++++....."};
