/* XPM */
static char * menuButtonA_xpm[] = {
"20 50 193 2",
"  	c None",
". 	c #53524E",
"+ 	c #504F4B",
"@ 	c #4E4D48",
"# 	c #40403B",
"$ 	c #2F2E2A",
"% 	c #141312",
"& 	c #181716",
"* 	c #34332F",
"= 	c #44433F",
"- 	c #4B4A45",
"; 	c #282824",
"> 	c #22211F",
", 	c #1E1E1C",
"' 	c #242321",
") 	c #272623",
"! 	c #252423",
"~ 	c #2D2B29",
"{ 	c #363531",
"] 	c #484743",
"^ 	c #1E1D1B",
"/ 	c #2A2926",
"( 	c #2E2D2A",
"_ 	c #30302D",
": 	c #34322F",
"< 	c #454440",
"[ 	c #1F1E1D",
"} 	c #1F1E1C",
"| 	c #1A1917",
"1 	c #1A1918",
"2 	c #201F1E",
"3 	c #282724",
"4 	c #2D2C29",
"5 	c #343330",
"6 	c #383634",
"7 	c #42413D",
"8 	c #302F2D",
"9 	c #272624",
"0 	c #2A2927",
"a 	c #262523",
"b 	c #1B1A19",
"c 	c #1C1B1A",
"d 	c #1B1A1A",
"e 	c #2B2B29",
"f 	c #33332F",
"g 	c #373532",
"h 	c #393735",
"i 	c #3E3D3A",
"j 	c #3F3E3B",
"k 	c #3F3E3A",
"l 	c #2E2D2B",
"m 	c #2B2A28",
"n 	c #242322",
"o 	c #2C2B2A",
"p 	c #333331",
"q 	c #343331",
"r 	c #2C2B29",
"s 	c #211F1E",
"t 	c #383734",
"u 	c #3A3936",
"v 	c #3B3B37",
"w 	c #403E3B",
"x 	c #3C3B38",
"y 	c #363533",
"z 	c #32312F",
"A 	c #292827",
"B 	c #32302E",
"C 	c #949390",
"D 	c #CCC7C1",
"E 	c #979390",
"F 	c #33322F",
"G 	c #262624",
"H 	c #3B3A37",
"I 	c #3D3C37",
"J 	c #393835",
"K 	c #3D3B3A",
"L 	c #3C3B39",
"M 	c #363534",
"N 	c #9B9895",
"O 	c #C8C3BC",
"P 	c #C1BCB5",
"Q 	c #9A9793",
"R 	c #353532",
"S 	c #282725",
"T 	c #31302E",
"U 	c #3B3937",
"V 	c #3A3937",
"W 	c #373632",
"X 	c #41403E",
"Y 	c #42413F",
"Z 	c #343332",
"` 	c #323130",
" .	c #403F3D",
"..	c #CEC9C2",
"+.	c #C0BAB4",
"@.	c #C2BDB6",
"#.	c #C1BBB4",
"$.	c #CDC7C1",
"%.	c #3E3D3B",
"&.	c #2F2E2C",
"*.	c #302E2C",
"=.	c #3B3A38",
"-.	c #393834",
";.	c #464543",
">.	c #484745",
",.	c #3C3C3A",
"'.	c #3B3A39",
").	c #454542",
"!.	c #CFCAC3",
"~.	c #BFBAB3",
"{.	c #C1BCB4",
"].	c #41403D",
"^.	c #363432",
"/.	c #3B3B38",
"(.	c #3A3836",
"_.	c #373633",
":.	c #484644",
"<.	c #4E4D4B",
"[.	c #454442",
"}.	c #A4A29D",
"|.	c #9D9B97",
"1.	c #40403E",
"2.	c #3C3A39",
"3.	c #3D3D3A",
"4.	c #474743",
"5.	c #545451",
"6.	c #585855",
"7.	c #50504D",
"8.	c #52524F",
"9.	c #4B4B47",
"0.	c #9C9A96",
"a.	c #CBC6C0",
"b.	c #454543",
"c.	c #484845",
"d.	c #444341",
"e.	c #484844",
"f.	c #40403C",
"g.	c #3D3C39",
"h.	c #5A5A57",
"i.	c #676764",
"j.	c #6B6B69",
"k.	c #555553",
"l.	c #5B5B58",
"m.	c #5B5A58",
"n.	c #525250",
"o.	c #4E4E4A",
"p.	c #5F5E5C",
"q.	c #555551",
"r.	c #42423F",
"s.	c #363532",
"t.	c #51514F",
"u.	c #60605D",
"v.	c #61615E",
"w.	c #696966",
"x.	c #858583",
"y.	c #7D7D7A",
"z.	c #7B7B78",
"A.	c #7F7F7C",
"B.	c #787876",
"C.	c #777774",
"D.	c #5B5A57",
"E.	c #444441",
"F.	c #3E3D39",
"G.	c #61615F",
"H.	c #666663",
"I.	c #6E6E6B",
"J.	c #80807E",
"K.	c #9D9D9B",
"L.	c #ADADAC",
"M.	c #AFAFAD",
"N.	c #9A9A98",
"O.	c #797977",
"P.	c #62625E",
"Q.	c #545350",
"R.	c #4D4D49",
"S.	c #444442",
"T.	c #474642",
"U.	c #6B6B68",
"V.	c #6C6C69",
"W.	c #686865",
"X.	c #636360",
"Y.	c #5D5D5A",
"Z.	c #575653",
"`.	c #5E5D59",
" +	c #72726F",
".+	c #696965",
"++	c #4F4D49",
"@+	c #393935",
"#+	c #494844",
"$+	c #787875",
"%+	c #737371",
"&+	c #53534F",
"*+	c #43423E",
". . . . . . . . . . . . . . . . . . . . ",
"+ + + + + + + + + + + + + + + + + + + + ",
"@ @ @ @ @ @ # $ % % % & * = @ @ @ @ @ @ ",
"- - - - - ; > , ' ' ' ) ! ~ { - - - - - ",
"] ] ] ] ^ > ' ' ' ' ' ) / ( _ : ] ] ] ] ",
"< < < [ > ' ' > } | 1 2 3 4 _ 5 6 < < < ",
"7 7 8 9 0 0 a b 1 c c d } e f g h i 7 7 ",
"j k l 8 8 m c n o p q r 9 s 8 t u v w j ",
"x v y y z ! A B C D D E F 0 G g u H I x ",
"J K L L z A M N O P P O Q R S T H U V J ",
"W X Y Y Z `  ...+.@.@.#.$.%.&.*.=.u -.W ",
"5 ;.>.>.,.'.).!.~.@.@.{.D ].^.q /.(._.5 ",
"5 :.<.<.>.[.>.}.O P P O |.1.2.L 3.H _.5 ",
"5 4.5.5.6.7.8.9.0.a.a.0.b.c.d.e.f.g._.5 ",
"5 7 h.h.i.j.6.h.k.l.m.n.5.o.p.q.r.i s.5 ",
"5 5 t.u.v.w.x.y.z.A.A.B.C.B.D.9.E.x 5 5 ",
"5 5 F.G.H.H.I.J.K.L.M.N.O.P.Q.R.S._.5 5 ",
"5 5 5 T.H.U.V.V.V.V.V.W.X.Y.Z.R.H 5 5 5 ",
"5 5 5 5 k `. + + + + +I..+v.++@+5 5 5 5 ",
"5 5 5 5 5 5 #+6.$+$+$+%+&+*+5 5 5 5 5 5 ",
"5 5 5 5 5 5 5 5 5 5 5 5 5 5 5 5 5 5 5 5 ",
"5 5 5 5 5 5 5 5 5 5 5 5 5 5 5 5 5 5 5 5 ",
"5 5 5 5 5 5 5 5 5 5 5 5 5 5 5 5 5 5 5 5 ",
"5 5 5 5 5 5 5 5 5 5 5 5 5 5 5 5 5 5 5 5 ",
"5 5 5 5 5 5 5 5 5 5 5 5 5 5 5 5 5 5 5 5 ",
". . . . . . . . . . . . . . . . . . . . ",
"+ + + + + + + + + + + + + + + + + + + + ",
"@ @ @ @ @ @ # $ % % % & * = @ @ @ @ @ @ ",
"- - - - - ; > , ' ' ' ) ! ~ { - - - - - ",
"] ] ] ] ^ > ' ' ' ' ' ) / ( _ : ] ] ] ] ",
"< < < [ > ' ' > } | 1 2 3 4 _ 5 6 < < < ",
"7 7 8 9 0 0 a b 1 c c d } e f g h i 7 7 ",
"j k l 8 8 m c n o p q r 9 s 8 t u v w j ",
"x v y y z ! A B C D D E F 0 G g u H I x ",
"J K L L z A M N O P P O Q R S T H U V J ",
"W X Y Y Z `  ...+.@.@.#.$.%.&.*.=.u -.W ",
"5 ;.>.>.,.'.).!.~.@.@.{.D ].^.q /.(._.5 ",
"5 :.<.<.>.[.>.}.O P P O |.1.2.L 3.H _.5 ",
"5 4.5.5.6.7.8.9.0.a.a.0.b.c.d.e.f.g._.5 ",
"5 7 h.h.i.j.6.h.k.l.m.n.5.o.p.q.r.i s.5 ",
"5 5 t.u.v.w.x.y.z.A.A.B.C.B.D.9.E.x 5 5 ",
"5 5 F.G.H.H.I.J.K.L.M.N.O.P.Q.R.S._.5 5 ",
"5 5 5 T.H.U.V.V.V.V.V.W.X.Y.Z.R.H 5 5 5 ",
"5 5 5 5 k `. + + + + +I..+v.++@+5 5 5 5 ",
"5 5 5 5 5 5 #+6.$+$+$+%+&+*+5 5 5 5 5 5 ",
"5 5 5 5 5 5 5 5 5 5 5 5 5 5 5 5 5 5 5 5 ",
"5 5 5 5 5 5 5 5 5 5 5 5 5 5 5 5 5 5 5 5 ",
"5 5 5 5 5 5 5 5 5 5 5 5 5 5 5 5 5 5 5 5 ",
"5 5 5 5 5 5 5 5 5 5 5 5 5 5 5 5 5 5 5 5 ",
"5 5 5 5 5 5 5 5 5 5 5 5 5 5 5 5 5 5 5 5 "};
