/* XPM */
static char * menuButtonI_xpm[] = {
"20 50 175 2",
"  	c None",
". 	c #53524E",
"+ 	c #504F4B",
"@ 	c #4E4D48",
"# 	c #40403B",
"$ 	c #2F2E2A",
"% 	c #141312",
"& 	c #181716",
"* 	c #34332F",
"= 	c #44433F",
"- 	c #4B4A45",
"; 	c #282824",
"> 	c #22211F",
", 	c #1E1E1C",
"' 	c #242321",
") 	c #272623",
"! 	c #252423",
"~ 	c #2D2B29",
"{ 	c #363531",
"] 	c #484743",
"^ 	c #1E1D1B",
"/ 	c #2A2926",
"( 	c #2E2D2A",
"_ 	c #30302D",
": 	c #34322F",
"< 	c #454440",
"[ 	c #1F1E1D",
"} 	c #1F1E1C",
"| 	c #1A1917",
"1 	c #1A1918",
"2 	c #201F1E",
"3 	c #282724",
"4 	c #2D2C29",
"5 	c #343330",
"6 	c #383634",
"7 	c #42413D",
"8 	c #302F2D",
"9 	c #272624",
"0 	c #2A2927",
"a 	c #262523",
"b 	c #1B1A19",
"c 	c #1C1B1A",
"d 	c #1B1A1A",
"e 	c #2B2B29",
"f 	c #33332F",
"g 	c #373532",
"h 	c #393735",
"i 	c #3E3D3A",
"j 	c #3F3E3B",
"k 	c #3F3E3A",
"l 	c #2E2D2B",
"m 	c #2B2A28",
"n 	c #242322",
"o 	c #2C2B2A",
"p 	c #333331",
"q 	c #343331",
"r 	c #2C2B29",
"s 	c #211F1E",
"t 	c #383734",
"u 	c #3A3936",
"v 	c #3B3B37",
"w 	c #403E3B",
"x 	c #3C3B38",
"y 	c #363533",
"z 	c #32312F",
"A 	c #292827",
"B 	c #32302E",
"C 	c #40403E",
"D 	c #4E4D4A",
"E 	c #33322F",
"F 	c #262624",
"G 	c #3B3A37",
"H 	c #3D3C37",
"I 	c #393835",
"J 	c #3D3B3A",
"K 	c #3C3B39",
"L 	c #363534",
"M 	c #353532",
"N 	c #282725",
"O 	c #31302E",
"P 	c #3B3937",
"Q 	c #3A3937",
"R 	c #373632",
"S 	c #41403E",
"T 	c #42413F",
"U 	c #343332",
"V 	c #323130",
"W 	c #403F3D",
"X 	c #3E3D3B",
"Y 	c #2F2E2C",
"Z 	c #302E2C",
"` 	c #3B3A38",
" .	c #393834",
"..	c #464543",
"+.	c #484745",
"@.	c #3C3C3A",
"#.	c #3B3A39",
"$.	c #454542",
"%.	c #41403D",
"&.	c #363432",
"*.	c #3B3B38",
"=.	c #3A3836",
"-.	c #373633",
";.	c #484644",
">.	c #4E4D4B",
",.	c #454442",
"'.	c #3C3A39",
").	c #3D3D3A",
"!.	c #474743",
"~.	c #545451",
"{.	c #585855",
"].	c #50504D",
"^.	c #52524F",
"/.	c #4B4B47",
"(.	c #454543",
"_.	c #484845",
":.	c #444341",
"<.	c #484844",
"[.	c #40403C",
"}.	c #3D3C39",
"|.	c #5A5A57",
"1.	c #676764",
"2.	c #6B6B69",
"3.	c #555553",
"4.	c #5B5B58",
"5.	c #5B5A58",
"6.	c #525250",
"7.	c #4E4E4A",
"8.	c #5F5E5C",
"9.	c #555551",
"0.	c #42423F",
"a.	c #363532",
"b.	c #51514F",
"c.	c #60605D",
"d.	c #61615E",
"e.	c #696966",
"f.	c #858583",
"g.	c #7D7D7A",
"h.	c #7B7B78",
"i.	c #7F7F7C",
"j.	c #787876",
"k.	c #777774",
"l.	c #5B5A57",
"m.	c #444441",
"n.	c #3E3D39",
"o.	c #61615F",
"p.	c #666663",
"q.	c #6E6E6B",
"r.	c #80807E",
"s.	c #9D9D9B",
"t.	c #ADADAC",
"u.	c #AFAFAD",
"v.	c #9A9A98",
"w.	c #797977",
"x.	c #62625E",
"y.	c #545350",
"z.	c #4D4D49",
"A.	c #444442",
"B.	c #474642",
"C.	c #6B6B68",
"D.	c #6C6C69",
"E.	c #686865",
"F.	c #636360",
"G.	c #5D5D5A",
"H.	c #575653",
"I.	c #5E5D59",
"J.	c #72726F",
"K.	c #696965",
"L.	c #4F4D49",
"M.	c #393935",
"N.	c #494844",
"O.	c #787875",
"P.	c #737371",
"Q.	c #53534F",
"R.	c #43423E",
". . . . . . . . . . . . . . . . . . . . ",
"+ + + + + + + + + + + + + + + + + + + + ",
"@ @ @ @ @ @ # $ % % % & * = @ @ @ @ @ @ ",
"- - - - - ; > , ' ' ' ) ! ~ { - - - - - ",
"] ] ] ] ^ > ' ' ' ' ' ) / ( _ : ] ] ] ] ",
"< < < [ > ' ' > } | 1 2 3 4 _ 5 6 < < < ",
"7 7 8 9 0 0 a b 1 c c d } e f g h i 7 7 ",
"j k l 8 8 m c n o p q r 9 s 8 t u v w j ",
"x v y y z ! A B C D D C E 0 F g u G H x ",
"I J K K z A L C D D D D C M N O G P Q I ",
"R S T T U V W D D D D D D X Y Z ` u  .R ",
"5 ..+.+.@.#.$.D D D D D D %.&.q *.=.-.5 ",
"5 ;.>.>.+.,.+.C D D D D C C '.K ).G -.5 ",
"5 !.~.~.{.].^./.C D D C (._.:.<.[.}.-.5 ",
"5 7 |.|.1.2.{.|.3.4.5.6.~.7.8.9.0.i a.5 ",
"5 5 b.c.d.e.f.g.h.i.i.j.k.j.l./.m.x 5 5 ",
"5 5 n.o.p.p.q.r.s.t.u.v.w.x.y.z.A.-.5 5 ",
"5 5 5 B.p.C.D.D.D.D.D.E.F.G.H.z.G 5 5 5 ",
"5 5 5 5 k I.J.J.J.J.J.q.K.d.L.M.5 5 5 5 ",
"5 5 5 5 5 5 N.{.O.O.O.P.Q.R.5 5 5 5 5 5 ",
"5 5 5 5 5 5 5 5 5 5 5 5 5 5 5 5 5 5 5 5 ",
"5 5 5 5 5 5 5 5 5 5 5 5 5 5 5 5 5 5 5 5 ",
"5 5 5 5 5 5 5 5 5 5 5 5 5 5 5 5 5 5 5 5 ",
"5 5 5 5 5 5 5 5 5 5 5 5 5 5 5 5 5 5 5 5 ",
"5 5 5 5 5 5 5 5 5 5 5 5 5 5 5 5 5 5 5 5 ",
". . . . . . . . . . . . . . . . . . . . ",
"+ + + + + + + + + + + + + + + + + + + + ",
"@ @ @ @ @ @ # $ % % % & * = @ @ @ @ @ @ ",
"- - - - - ; > , ' ' ' ) ! ~ { - - - - - ",
"] ] ] ] ^ > ' ' ' ' ' ) / ( _ : ] ] ] ] ",
"< < < [ > ' ' > } | 1 2 3 4 _ 5 6 < < < ",
"7 7 8 9 0 0 a b 1 c c d } e f g h i 7 7 ",
"j k l 8 8 m c n o p q r 9 s 8 t u v w j ",
"x v y y z ! A B C D D C E 0 F g u G H x ",
"I J K K z A L C D D D D C M N O G P Q I ",
"R S T T U V W D D D D D D X Y Z ` u  .R ",
"5 ..+.+.@.#.$.D D D D D D %.&.q *.=.-.5 ",
"5 ;.>.>.+.,.+.C D D D D C C '.K ).G -.5 ",
"5 !.~.~.{.].^./.C D D C (._.:.<.[.}.-.5 ",
"5 7 |.|.1.2.{.|.3.4.5.6.~.7.8.9.0.i a.5 ",
"5 5 b.c.d.e.f.g.h.i.i.j.k.j.l./.m.x 5 5 ",
"5 5 n.o.p.p.q.r.s.t.u.v.w.x.y.z.A.-.5 5 ",
"5 5 5 B.p.C.D.D.D.D.D.E.F.G.H.z.G 5 5 5 ",
"5 5 5 5 k I.J.J.J.J.J.q.K.d.L.M.5 5 5 5 ",
"5 5 5 5 5 5 N.{.O.O.O.P.Q.R.5 5 5 5 5 5 ",
"5 5 5 5 5 5 5 5 5 5 5 5 5 5 5 5 5 5 5 5 ",
"5 5 5 5 5 5 5 5 5 5 5 5 5 5 5 5 5 5 5 5 ",
"5 5 5 5 5 5 5 5 5 5 5 5 5 5 5 5 5 5 5 5 ",
"5 5 5 5 5 5 5 5 5 5 5 5 5 5 5 5 5 5 5 5 ",
"5 5 5 5 5 5 5 5 5 5 5 5 5 5 5 5 5 5 5 5 "};
