/* XPM */
static char * minimizeA_xpm[] = {
"20 50 223 2",
"  	c None",
". 	c #53524E",
"+ 	c #504F4B",
"@ 	c #4C4B47",
"# 	c #40403B",
"$ 	c #2C2C28",
"% 	c #232120",
"& 	c #201F1E",
"* 	c #222120",
"= 	c #1F1E1D",
"- 	c #1C1B19",
"; 	c #181715",
"> 	c #141312",
", 	c #494844",
"' 	c #4B4A46",
") 	c #282824",
"! 	c #232320",
"~ 	c #252422",
"{ 	c #262523",
"] 	c #272624",
"^ 	c #242321",
"/ 	c #464541",
"( 	c #3E3D3A",
"_ 	c #242221",
": 	c #333231",
"< 	c #8D8B89",
"[ 	c #BCBCB9",
"} 	c #E8E7E5",
"| 	c #44433F",
"1 	c #464542",
"2 	c #2A2928",
"3 	c #5F5D5C",
"4 	c #E1E0DE",
"5 	c #FDFCF9",
"6 	c #474642",
"7 	c #302F2D",
"8 	c #2C2B29",
"9 	c #61615E",
"0 	c #FAF8F6",
"a 	c #FCFAF8",
"b 	c #282825",
"c 	c #2A2927",
"d 	c #3F3E3A",
"e 	c #2E2D2A",
"f 	c #2F2E2C",
"g 	c #403F3D",
"h 	c #E1DFDC",
"i 	c #FBF9F6",
"j 	c #3B3B37",
"k 	c #353432",
"l 	c #393836",
"m 	c #959391",
"n 	c #FAF7F4",
"o 	c #363533",
"p 	c #3D3B3A",
"q 	c #3A3A37",
"r 	c #403F3E",
"s 	c #C1BEBB",
"t 	c #F9F6F2",
"u 	c #E6E3E0",
"v 	c #AEACAB",
"w 	c #D9D7D4",
"x 	c #ADACAB",
"y 	c #3C3B39",
"z 	c #41403E",
"A 	c #40403D",
"B 	c #474644",
"C 	c #E6E2DF",
"D 	c #F8F4F0",
"E 	c #EBE7E4",
"F 	c #969595",
"G 	c #898988",
"H 	c #CBC9C6",
"I 	c #F7F3EF",
"J 	c #42413F",
"K 	c #464543",
"L 	c #464643",
"M 	c #4B4B48",
"N 	c #E3E0D9",
"O 	c #F4F0EA",
"P 	c #E2DFDA",
"Q 	c #9C9B99",
"R 	c #848483",
"S 	c #C0BDBA",
"T 	c #484745",
"U 	c #484644",
"V 	c #4D4D4A",
"W 	c #4E4E4B",
"X 	c #BEBBB5",
"Y 	c #F0ECE3",
"Z 	c #E5E2D9",
"` 	c #A6A5A1",
" .	c #80807F",
"..	c #4E4D4B",
"+.	c #474743",
"@.	c #535351",
"#.	c #525150",
"$.	c #9A9691",
"%.	c #EDE8DE",
"&.	c #E8E3DA",
"*.	c #B2AFAA",
"=.	c #B3B0AB",
"-.	c #545451",
";.	c #42413D",
">.	c #5A5A57",
",.	c #595856",
"'.	c #595957",
").	c #D6D1C7",
"!.	c #EAE4D9",
"~.	c #343330",
"{.	c #51514F",
"].	c #60605C",
"^.	c #5B5B58",
"/.	c #777671",
"(.	c #E6DFD3",
"_.	c #E7E0D4",
":.	c #60605D",
"<.	c #3E3D39",
"[.	c #61615F",
"}.	c #646461",
"|.	c #5A5A58",
"1.	c #787670",
"2.	c #D1CBBE",
"3.	c #E4DDCF",
"4.	c #666663",
"5.	c #676764",
"6.	c #6A6A67",
"7.	c #5C5B58",
"8.	c #959189",
"9.	c #B5B0A4",
"0.	c #D3CCBD",
"a.	c #6C6C69",
"b.	c #5F5F5B",
"c.	c #72726F",
"d.	c #6D6D6A",
"e.	c #636360",
"f.	c #5C5C5A",
"g.	c #575755",
"h.	c #5F5F5C",
"i.	c #6D6D6B",
"j.	c #767673",
"k.	c #787875",
"l.	c #777775",
"m.	c #2E2D29",
"n.	c #21201F",
"o.	c #191817",
"p.	c #161615",
"q.	c #161514",
"r.	c #151413",
"s.	c #22211F",
"t.	c #1F1F1D",
"u.	c #262422",
"v.	c #252421",
"w.	c #252321",
"x.	c #1E1D1B",
"y.	c #393835",
"z.	c #43423F",
"A.	c #4B4A48",
"B.	c #232221",
"C.	c #302F2C",
"D.	c #4A4946",
"E.	c #504E4C",
"F.	c #2B2A27",
"G.	c #545350",
"H.	c #545351",
"I.	c #2A2926",
"J.	c #2E2D2B",
"K.	c #2F2F2D",
"L.	c #333330",
"M.	c #535350",
"N.	c #585855",
"O.	c #363534",
"P.	c #494746",
"Q.	c #5D5B5A",
"R.	c #3D3C3A",
"S.	c #575553",
"T.	c #62605E",
"U.	c #5E5C5B",
"V.	c #535150",
"W.	c #5B5A58",
"X.	c #41413F",
"Y.	c #434240",
"Z.	c #63615F",
"`.	c #676562",
" +	c #646260",
".+	c #535250",
"++	c #504F4D",
"@+	c #5E5C5A",
"#+	c #666562",
"$+	c #474645",
"%+	c #494845",
"&+	c #676662",
"*+	c #6B6966",
"=+	c #676663",
"-+	c #605F5C",
";+	c #4D4C4B",
">+	c #646360",
",+	c #6E6D69",
"'+	c #6C6B67",
")+	c #545450",
"!+	c #62615E",
"~+	c #72716D",
"{+	c #71706D",
"]+	c #73726E",
"^+	c #656561",
"/+	c #7B7A74",
"(+	c #6A6A65",
"_+	c #7C7B75",
":+	c #807E78",
"<+	c #676763",
"[+	c #6B6B68",
"}+	c #696967",
"|+	c #686866",
"1+	c #74736F",
"2+	c #7A7975",
"3+	c #807F7A",
"4+	c #6C6C68",
"5+	c #5E5D59",
"6+	c #71716E",
"7+	c #6F6F6C",
"8+	c #6C6C6A",
"9+	c #595956",
"0+	c #71716F",
". . . . . . . . . . . . . . . . . . . . ",
"+ + + + + + + + + + + + + + + + + + + + ",
"@ @ @ @ @ # $ % & * * = - ; > > > > > > ",
", , , ' ) ! ~ { { ] ] { { ~ ^ ^ ^ ^ ^ ^ ",
"/ / ( = _ ] : < [ } } [ < : ] ^ ^ ^ ^ ^ ",
"| 1 = _ 2 3 4 5 5 5 5 5 5 4 3 2 ^ ^ ^ ^ ",
"6 7 ] 8 9 0 a a a a a a a a 0 9 8 b c c ",
"d e f g h i i i i i i i i i i h g f f 7 ",
"j k l m n n n n n n n n n n n n m l k o ",
"p q r s t u v w t t t t w x u t s r q y ",
"z A B C D E F G H I I H G F E D C B A J ",
"K L M N O O P Q R S S R Q P O O N M L T ",
"U V W X Y Y Y Z `  . .` Z Y Y Y X W V ..",
"+.@.#.$.%.%.%.%.&.*.=.&.%.%.%.%.$.#.@.-.",
";.>.,.'.).!.!.!.!.!.!.!.!.!.!.).'.,.>.>.",
"~.{.].^./.(._._._._._._._._.(./.^.].:.:.",
"~.<.[.}.|.1.2.3.3.3.3.3.3.2.1.|.}.4.4.4.",
"~.~.6 5.6.[.7.8.9.0.0.9.8.7.[.6.a.a.a.a.",
"~.~.~.d b.c.d.e.f.g.g.f.e.d.c.c.c.c.c.c.",
"~.~.~.~.~., h.i.j.k.k.k.l.k.k.k.k.k.k.k.",
"~.~.~.~.~.~.~.~.~.~.~.~.~.~.~.~.~.~.~.~.",
"~.~.~.~.~.~.~.~.~.~.~.~.~.~.~.~.~.~.~.~.",
"~.~.~.~.~.~.~.~.~.~.~.~.~.~.~.~.~.~.~.~.",
"~.~.~.~.~.~.~.~.~.~.~.~.~.~.~.~.~.~.~.~.",
"~.~.~.~.~.~.~.~.~.~.~.~.~.~.~.~.~.~.~.~.",
". . . . . . . . . . . . . . . . . . . . ",
"+ + + + + + + + + + + + + + + + + + + + ",
"@ @ @ @ @ # m.n.o.p.p.q.r.> > > > > > > ",
", , , ' ) s.t.% u.v.v.w.w.^ ^ ^ ^ ^ ^ ^ ",
"/ / ( x.* v.] y.z.A.A.z.y.] v.^ B.^ ^ ^ ",
"| 1 = * ~ C.D.E.E.E.E.E.E.D.C.~ ^ ^ ^ ^ ",
"6 7 ] F.k G.H.H.H.H.H.H.H.H.G.k F.I.c c ",
"d J.K.L.M.N.N.N.N.N.N.N.N.N.N.M.L.K.7 7 ",
"j o O.P.Q.Q.Q.Q.Q.Q.Q.Q.Q.Q.Q.Q.P.O.o o ",
"p y R.S.T.U.V.W.T.T.T.T.W.V.U.T.S.R.y y ",
"z X.Y.Z.`. +.+++@+#+#+@+++.+ +`.Z.Y.X.J ",
"K $+%+&+*+*+=+,.H.-+-+H.,.=+*+*+&+%+$+T ",
"U ;+W >+,+,+,+'+h.N.N.h.'+,+,+,+>+W ;+..",
"+.)+@.!+~+~+~+~+{+=+=+{+~+~+~+~+!+@.)+-.",
";.>.>.>.]+/./././././././././.]+>.>.>.>.",
"~.{.:.h.^+/+/+/+/+/+/+/+/+/+/+^+h.:.:.:.",
"~.<.[.4.}.(+_+:+:+:+:+:+:+_+(+}.4.4.4.4.",
"~.~.6 <+[+}+|+1+2+3+3+2+1+|+}+4+4+a.a.a.",
"~.~.~.d 5+c.6+7+i.8+8+i.7+6+c.c.c.c.c.c.",
"~.~.~.~.~., 9+<+0+k.k.k.k.k.k.k.k.k.k.k.",
"~.~.~.~.~.~.~.~.~.~.~.~.~.~.~.~.~.~.~.~.",
"~.~.~.~.~.~.~.~.~.~.~.~.~.~.~.~.~.~.~.~.",
"~.~.~.~.~.~.~.~.~.~.~.~.~.~.~.~.~.~.~.~.",
"~.~.~.~.~.~.~.~.~.~.~.~.~.~.~.~.~.~.~.~.",
"~.~.~.~.~.~.~.~.~.~.~.~.~.~.~.~.~.~.~.~."};
