/* XPM */
static char * minimizeI_xpm[] = {
"20 50 213 2",
"  	c None",
". 	c #53524E",
"+ 	c #504F4B",
"@ 	c #4C4B47",
"# 	c #40403B",
"$ 	c #2C2C28",
"% 	c #232120",
"& 	c #201F1E",
"* 	c #222120",
"= 	c #1F1E1D",
"- 	c #1C1B19",
"; 	c #181715",
"> 	c #141312",
", 	c #494844",
"' 	c #4B4A46",
") 	c #282824",
"! 	c #232320",
"~ 	c #232220",
"{ 	c #201F1D",
"] 	c #1E1D1B",
"^ 	c #1C1C1A",
"/ 	c #242321",
"( 	c #464541",
"_ 	c #3E3D3A",
": 	c #242221",
"< 	c #1D1C1B",
"[ 	c #2F2E2C",
"} 	c #383835",
"| 	c #40403E",
"1 	c #44433F",
"2 	c #464542",
"3 	c #262523",
"4 	c #3E3E3C",
"5 	c #454542",
"6 	c #474642",
"7 	c #302F2D",
"8 	c #272624",
"9 	c #272726",
"0 	c #454543",
"a 	c #464643",
"b 	c #282825",
"c 	c #2A2927",
"d 	c #3F3E3A",
"e 	c #2E2D2A",
"f 	c #2B2A28",
"g 	c #242322",
"h 	c #424240",
"i 	c #484845",
"j 	c #3B3B37",
"k 	c #353432",
"l 	c #2E2D2B",
"m 	c #383735",
"n 	c #4B4B48",
"o 	c #363533",
"p 	c #3D3B3A",
"q 	c #3A3A37",
"r 	c #302F2E",
"s 	c #434241",
"t 	c #4D4D4A",
"u 	c #636362",
"v 	c #4E4E4B",
"w 	c #626261",
"x 	c #3C3B39",
"y 	c #41403E",
"z 	c #40403D",
"A 	c #323230",
"B 	c #4C4C49",
"C 	c #504F4C",
"D 	c #4F4E4B",
"E 	c #777776",
"F 	c #838383",
"G 	c #535250",
"H 	c #4E4D4A",
"I 	c #767675",
"J 	c #42413F",
"K 	c #464543",
"L 	c #373735",
"M 	c #4E4E4C",
"N 	c #52524F",
"O 	c #4E4E4D",
"P 	c #717170",
"Q 	c #8A8A89",
"R 	c #575755",
"S 	c #484745",
"T 	c #484644",
"U 	c #3F3F3D",
"V 	c #4C4C4A",
"W 	c #535351",
"X 	c #50504D",
"Y 	c #676766",
"Z 	c #8C8C8B",
"` 	c #4E4D4B",
" .	c #474743",
"..	c #535350",
"+.	c #494847",
"@.	c #494948",
"#.	c #555452",
"$.	c #51504E",
"%.	c #504F4D",
"&.	c #5C5C5B",
"*.	c #5D5C5B",
"=.	c #545451",
"-.	c #42413D",
";.	c #5A5A57",
">.	c #565553",
",.	c #464544",
"'.	c #52514E",
").	c #50504C",
"!.	c #4E4E4A",
"~.	c #343330",
"{.	c #51514F",
"].	c #60605C",
"^.	c #555552",
"/.	c #52524E",
"(.	c #60605D",
"_.	c #3E3D39",
":.	c #61615F",
"<.	c #656562",
"[.	c #4F4F4C",
"}.	c #53524F",
"|.	c #51514D",
"1.	c #666663",
"2.	c #676764",
"3.	c #6B6B68",
"4.	c #4E4D49",
"5.	c #6C6C69",
"6.	c #5F5F5B",
"7.	c #72726F",
"8.	c #6E6E6B",
"9.	c #646462",
"0.	c #5F5F5C",
"a.	c #6D6D6B",
"b.	c #767673",
"c.	c #787875",
"d.	c #777775",
"e.	c #2E2D29",
"f.	c #21201F",
"g.	c #191817",
"h.	c #161615",
"i.	c #161514",
"j.	c #151413",
"k.	c #22211F",
"l.	c #1F1F1D",
"m.	c #262422",
"n.	c #252421",
"o.	c #252321",
"p.	c #393835",
"q.	c #43423F",
"r.	c #4B4A48",
"s.	c #232221",
"t.	c #252422",
"u.	c #302F2C",
"v.	c #4A4946",
"w.	c #504E4C",
"x.	c #2B2A27",
"y.	c #545350",
"z.	c #545351",
"A.	c #2A2926",
"B.	c #2F2F2D",
"C.	c #333330",
"D.	c #585855",
"E.	c #363534",
"F.	c #494746",
"G.	c #5D5B5A",
"H.	c #3D3C3A",
"I.	c #575553",
"J.	c #62605E",
"K.	c #5E5C5B",
"L.	c #535150",
"M.	c #5B5A58",
"N.	c #41413F",
"O.	c #434240",
"P.	c #63615F",
"Q.	c #676562",
"R.	c #646260",
"S.	c #5E5C5A",
"T.	c #666562",
"U.	c #474645",
"V.	c #494845",
"W.	c #676662",
"X.	c #6B6966",
"Y.	c #676663",
"Z.	c #595856",
"`.	c #605F5C",
" +	c #4D4C4B",
".+	c #646360",
"++	c #6E6D69",
"@+	c #6C6B67",
"#+	c #545450",
"$+	c #62615E",
"%+	c #72716D",
"&+	c #71706D",
"*+	c #73726E",
"=+	c #777671",
"-+	c #656561",
";+	c #7B7A74",
">+	c #646461",
",+	c #6A6A65",
"'+	c #7C7B75",
")+	c #807E78",
"!+	c #676763",
"~+	c #696967",
"{+	c #686866",
"]+	c #74736F",
"^+	c #7A7975",
"/+	c #807F7A",
"(+	c #6C6C68",
"_+	c #5E5D59",
":+	c #71716E",
"<+	c #6F6F6C",
"[+	c #6C6C6A",
"}+	c #595956",
"|+	c #71716F",
". . . . . . . . . . . . . . . . . . . . ",
"+ + + + + + + + + + + + + + + + + + + + ",
"@ @ @ @ @ # $ % & * * = - ; > > > > > > ",
", , , ' ) ! ~ { ] ^ ^ ] { ~ / / / / / / ",
"( ( _ = : & < [ } | | } [ < & / / / / / ",
"1 2 = : ] 3 4 5 5 5 5 5 5 4 3 ] / / / / ",
"6 7 8 ~ 9 0 a a a a a a a a 0 9 ~ b c c ",
"d e f g h i i i i i i i i i i h g f [ 7 ",
"j k l m n n n n n n n n n n n n m l k o ",
"p q r s t n u v t t t t v w n t s r q x ",
"y z A B C D E F G H H G F I D C B A z J ",
"K a L M N N O P Q R R Q P O N N M L a S ",
"T t U V W N X v Y Z Z Y v X N W V U t ` ",
" ...+.@.#.G $.%.` &.*.` %.$.G #.@.+...=.",
"-.;.>.,.G ..'.).D !.!.D ).'...G ,.>.;.;.",
"~.{.].^.B ../.).D H H D )./...B ^.].(.(.",
"~._.:.<.=.[.}.|.+ !.!.+ |.}.[.=.<.1.1.1.",
"~.~.6 2.3.(.W N X 4.4.X N W (.3.5.5.5.5.",
"~.~.~.d 6.7.8.9.0.;.;.0.9.8.7.7.7.7.7.7.",
"~.~.~.~.~., 0.a.b.c.c.c.d.c.c.c.c.c.c.c.",
"~.~.~.~.~.~.~.~.~.~.~.~.~.~.~.~.~.~.~.~.",
"~.~.~.~.~.~.~.~.~.~.~.~.~.~.~.~.~.~.~.~.",
"~.~.~.~.~.~.~.~.~.~.~.~.~.~.~.~.~.~.~.~.",
"~.~.~.~.~.~.~.~.~.~.~.~.~.~.~.~.~.~.~.~.",
"~.~.~.~.~.~.~.~.~.~.~.~.~.~.~.~.~.~.~.~.",
". . . . . . . . . . . . . . . . . . . . ",
"+ + + + + + + + + + + + + + + + + + + + ",
"@ @ @ @ @ # e.f.g.h.h.i.j.> > > > > > > ",
", , , ' ) k.l.% m.n.n.o.o./ / / / / / / ",
"( ( _ ] * n.8 p.q.r.r.q.p.8 n./ s./ / / ",
"1 2 = * t.u.v.w.w.w.w.w.w.v.u.t./ / / / ",
"6 7 8 x.k y.z.z.z.z.z.z.z.z.y.k x.A.c c ",
"d l B.C...D.D.D.D.D.D.D.D.D.D...C.B.7 7 ",
"j o E.F.G.G.G.G.G.G.G.G.G.G.G.G.F.E.o o ",
"p x H.I.J.K.L.M.J.J.J.J.M.L.K.J.I.H.x x ",
"y N.O.P.Q.R.G %.S.T.T.S.%.G R.Q.P.O.N.J ",
"K U.V.W.X.X.Y.Z.z.`.`.z.Z.Y.X.X.W.V.U.S ",
"T  +v .+++++++@+0.D.D.0.@+++++++.+v  +` ",
" .#+W $+%+%+%+%+&+Y.Y.&+%+%+%+%+$+W #+=.",
"-.;.;.;.*+=+=+=+=+=+=+=+=+=+=+*+;.;.;.;.",
"~.{.(.0.-+;+;+;+;+;+;+;+;+;+;+-+0.(.(.(.",
"~._.:.1.>+,+'+)+)+)+)+)+)+'+,+>+1.1.1.1.",
"~.~.6 !+3.~+{+]+^+/+/+^+]+{+~+(+(+5.5.5.",
"~.~.~.d _+7.:+<+a.[+[+a.<+:+7.7.7.7.7.7.",
"~.~.~.~.~., }+!+|+c.c.c.c.c.c.c.c.c.c.c.",
"~.~.~.~.~.~.~.~.~.~.~.~.~.~.~.~.~.~.~.~.",
"~.~.~.~.~.~.~.~.~.~.~.~.~.~.~.~.~.~.~.~.",
"~.~.~.~.~.~.~.~.~.~.~.~.~.~.~.~.~.~.~.~.",
"~.~.~.~.~.~.~.~.~.~.~.~.~.~.~.~.~.~.~.~.",
"~.~.~.~.~.~.~.~.~.~.~.~.~.~.~.~.~.~.~.~."};
