/* XPM */
static char * minimizeO_xpm[] = {
"20 50 230 2",
"  	c None",
". 	c #53524E",
"+ 	c #504F4B",
"@ 	c #4C4B47",
"# 	c #40403B",
"$ 	c #2D2C29",
"% 	c #222120",
"& 	c #1D1C1B",
"* 	c #1E1D1C",
"= 	c #1B1B19",
"- 	c #191917",
"; 	c #161514",
"> 	c #141312",
", 	c #494844",
"' 	c #4B4A46",
") 	c #272724",
"! 	c #232320",
"~ 	c #232220",
"{ 	c #252421",
"] 	c #262522",
"^ 	c #262623",
"/ 	c #252422",
"( 	c #242421",
"_ 	c #242321",
": 	c #464541",
"< 	c #3E3D3A",
"[ 	c #1F1E1D",
"} 	c #232221",
"| 	c #2F2E2C",
"1 	c #6D6C6A",
"2 	c #8E8E8B",
"3 	c #ADACAA",
"4 	c #242322",
"5 	c #44433F",
"6 	c #464542",
"7 	c #282826",
"8 	c #4D4C4A",
"9 	c #A8A7A5",
"0 	c #BCBBB8",
"a 	c #474642",
"b 	c #302F2D",
"c 	c #2C2A29",
"d 	c #51504E",
"e 	c #BCB9B8",
"f 	c #BDBBB9",
"g 	c #292826",
"h 	c #2A2927",
"i 	c #3F3E3A",
"j 	c #2E2D2A",
"k 	c #2F2E2D",
"l 	c #3B3A39",
"m 	c #ABAAA8",
"n 	c #BDBCBA",
"o 	c #302F2C",
"p 	c #3B3B37",
"q 	c #353432",
"r 	c #383735",
"s 	c #787774",
"t 	c #BFBCB9",
"u 	c #363533",
"v 	c #3D3B3A",
"w 	c #3B3B39",
"x 	c #3F3E3C",
"y 	c #999794",
"z 	c #C0BEBA",
"A 	c #B3B0AD",
"B 	c #8B8A88",
"C 	c #AAA8A5",
"D 	c #3C3B39",
"E 	c #41403E",
"F 	c #403F3E",
"G 	c #454542",
"H 	c #B5B2AF",
"I 	c #C1BEBB",
"J 	c #B8B5B2",
"K 	c #7D7C7B",
"L 	c #747472",
"M 	c #A2A09D",
"N 	c #42413F",
"O 	c #464543",
"P 	c #474744",
"Q 	c #4A4947",
"R 	c #B4B1AD",
"S 	c #C0BDB8",
"T 	c #838180",
"U 	c #727170",
"V 	c #9C9997",
"W 	c #484745",
"X 	c #484644",
"Y 	c #4D4D4A",
"Z 	c #4E4D4B",
"` 	c #9D9A95",
" .	c #C0BCB5",
"..	c #B8B5AF",
"+.	c #8C8A87",
"@.	c #717070",
"#.	c #474743",
"$.	c #545451",
"%.	c #525250",
"&.	c #85827D",
"*.	c #BEBBB3",
"=.	c #BBB7B0",
"-.	c #95938F",
";.	c #96948F",
">.	c #42413D",
",.	c #5A5A57",
"'.	c #595856",
").	c #595957",
"!.	c #B0ADA5",
"~.	c #BEBAB2",
"{.	c #343330",
"].	c #51514F",
"^.	c #60605D",
"/.	c #5D5D59",
"(.	c #706F6B",
"_.	c #BEB9AF",
":.	c #BEB9B0",
"<.	c #3E3D39",
"[.	c #61615F",
"}.	c #646461",
"|.	c #5E5E5B",
"1.	c #73716C",
"2.	c #B1ADA3",
"3.	c #BEB9AE",
"4.	c #666663",
"5.	c #676764",
"6.	c #6A6A67",
"7.	c #656562",
"8.	c #61615D",
"9.	c #898680",
"0.	c #9F9C92",
"a.	c #B4AFA4",
"b.	c #6B6B68",
"c.	c #6C6C69",
"d.	c #5F5E5B",
"e.	c #73736F",
"f.	c #6E6E6C",
"g.	c #676765",
"h.	c #626261",
"i.	c #5F5F5D",
"j.	c #737370",
"k.	c #72726F",
"l.	c #5D5D5A",
"m.	c #6B6B69",
"n.	c #747471",
"o.	c #787875",
"p.	c #777775",
"q.	c #2E2D29",
"r.	c #21201F",
"s.	c #191817",
"t.	c #161615",
"u.	c #151413",
"v.	c #282824",
"w.	c #22211F",
"x.	c #1F1F1D",
"y.	c #232120",
"z.	c #262422",
"A.	c #252321",
"B.	c #1E1D1B",
"C.	c #272624",
"D.	c #393835",
"E.	c #43423F",
"F.	c #4B4A48",
"G.	c #4A4946",
"H.	c #504E4C",
"I.	c #2B2A27",
"J.	c #545350",
"K.	c #545351",
"L.	c #2A2926",
"M.	c #2E2D2B",
"N.	c #2F2F2D",
"O.	c #333330",
"P.	c #535350",
"Q.	c #585855",
"R.	c #363534",
"S.	c #494746",
"T.	c #5D5B5A",
"U.	c #3D3C3A",
"V.	c #575553",
"W.	c #62605E",
"X.	c #5E5C5B",
"Y.	c #535150",
"Z.	c #5B5A58",
"`.	c #41413F",
" +	c #434240",
".+	c #63615F",
"++	c #676562",
"@+	c #646260",
"#+	c #535250",
"$+	c #504F4D",
"%+	c #5E5C5A",
"&+	c #666562",
"*+	c #474645",
"=+	c #494845",
"-+	c #676662",
";+	c #6B6966",
">+	c #676663",
",+	c #605F5C",
"'+	c #4D4C4B",
")+	c #4E4E4B",
"!+	c #646360",
"~+	c #6E6D69",
"{+	c #6C6B67",
"]+	c #5F5F5C",
"^+	c #545450",
"/+	c #535351",
"(+	c #62615E",
"_+	c #72716D",
":+	c #71706D",
"<+	c #73726E",
"[+	c #777671",
"}+	c #656561",
"|+	c #7B7A74",
"1+	c #6A6A65",
"2+	c #7C7B75",
"3+	c #807E78",
"4+	c #676763",
"5+	c #696967",
"6+	c #686866",
"7+	c #74736F",
"8+	c #7A7975",
"9+	c #807F7A",
"0+	c #6C6C68",
"a+	c #5E5D59",
"b+	c #71716E",
"c+	c #6F6F6C",
"d+	c #6D6D6B",
"e+	c #6C6C6A",
"f+	c #595956",
"g+	c #71716F",
". . . . . . . . . . . . . . . . . . . . ",
"+ + + + + + + + + + + + + + + + + + + + ",
"@ @ @ @ @ # $ % & * * = - ; > > > > > > ",
", , , ' ) ! ~ { ] ^ ^ ] ] / ( _ _ _ _ _ ",
": : < [ } ^ | 1 2 3 3 2 1 | ^ _ 4 _ _ _ ",
"5 6 [ } 7 8 9 0 0 0 0 0 0 9 8 7 _ _ _ _ ",
"a b ) c d e f f f f f f f f e d c g h h ",
"i j k l m n n n n n n n n n n m l k o b ",
"p q r s t t t t t t t t t t t t s r q u ",
"v w x y z A B C z z z z C B A z y x w D ",
"E F G H I J K L M z z M L K J I H G F N ",
"O P Q R S S R T U V V U T R S S R Q P W ",
"X Y Z `  . . ...+.@.@.+... . . .` Z Y Z ",
"#.$.%.&.*.*.*.*.=.-.;.=.*.*.*.*.&.%.$.$.",
">.,.'.).!.~.~.~.~.~.~.~.~.~.~.!.).'.,.,.",
"{.].^./.(._.:.:.:.:.:.:.:.:._.(./.^.^.^.",
"{.<.[.}.|.1.2.3.3.3.3.3.3.2.1.|.}.4.4.4.",
"{.{.a 5.6.7.8.9.0.a.a.0.9.8.7.b.c.c.c.c.",
"{.{.{.i d.e.f.g.h.i.i.h.g.f.e.j.k.k.k.k.",
"{.{.{.{.{., l.m.n.o.o.o.p.o.o.o.o.o.o.o.",
"{.{.{.{.{.{.{.{.{.{.{.{.{.{.{.{.{.{.{.{.",
"{.{.{.{.{.{.{.{.{.{.{.{.{.{.{.{.{.{.{.{.",
"{.{.{.{.{.{.{.{.{.{.{.{.{.{.{.{.{.{.{.{.",
"{.{.{.{.{.{.{.{.{.{.{.{.{.{.{.{.{.{.{.{.",
"{.{.{.{.{.{.{.{.{.{.{.{.{.{.{.{.{.{.{.{.",
". . . . . . . . . . . . . . . . . . . . ",
"+ + + + + + + + + + + + + + + + + + + + ",
"@ @ @ @ @ # q.r.s.t.t.; u.> > > > > > > ",
", , , ' v.w.x.y.z.{ { A.A._ _ _ _ _ _ _ ",
": : < B.% { C.D.E.F.F.E.D.C.{ _ } _ _ _ ",
"5 6 [ % / o G.H.H.H.H.H.H.G.o / _ _ _ _ ",
"a b C.I.q J.K.K.K.K.K.K.K.K.J.q I.L.h h ",
"i M.N.O.P.Q.Q.Q.Q.Q.Q.Q.Q.Q.Q.P.O.N.b b ",
"p u R.S.T.T.T.T.T.T.T.T.T.T.T.T.S.R.u u ",
"v D U.V.W.X.Y.Z.W.W.W.W.Z.Y.X.W.V.U.D D ",
"E `. +.+++@+#+$+%+&+&+%+$+#+@+++.+ +`.N ",
"O *+=+-+;+;+>+'.K.,+,+K.'.>+;+;+-+=+*+W ",
"X '+)+!+~+~+~+{+]+Q.Q.]+{+~+~+~+!+)+'+Z ",
"#.^+/+(+_+_+_+_+:+>+>+:+_+_+_+_+(+/+^+$.",
">.,.,.,.<+[+[+[+[+[+[+[+[+[+[+<+,.,.,.,.",
"{.].^.]+}+|+|+|+|+|+|+|+|+|+|+}+]+^.^.^.",
"{.<.[.4.}.1+2+3+3+3+3+3+3+2+1+}.4.4.4.4.",
"{.{.a 4+b.5+6+7+8+9+9+8+7+6+5+0+0+c.c.c.",
"{.{.{.i a+k.b+c+d+e+e+d+c+b+k.k.k.k.k.k.",
"{.{.{.{.{., f+4+g+o.o.o.o.o.o.o.o.o.o.o.",
"{.{.{.{.{.{.{.{.{.{.{.{.{.{.{.{.{.{.{.{.",
"{.{.{.{.{.{.{.{.{.{.{.{.{.{.{.{.{.{.{.{.",
"{.{.{.{.{.{.{.{.{.{.{.{.{.{.{.{.{.{.{.{.",
"{.{.{.{.{.{.{.{.{.{.{.{.{.{.{.{.{.{.{.{.",
"{.{.{.{.{.{.{.{.{.{.{.{.{.{.{.{.{.{.{.{."};
