/* XPM */
static char * restoreA_xpm[] = {
"20 50 182 2",
"  	c None",
". 	c #53524E",
"+ 	c #504F4B",
"@ 	c #141312",
"# 	c #181715",
"$ 	c #1C1B19",
"% 	c #1F1E1D",
"& 	c #222120",
"* 	c #242321",
"= 	c #252422",
"- 	c #262523",
"; 	c #272624",
"> 	c #333231",
", 	c #8D8B89",
"' 	c #BCBCB9",
") 	c #E8E7E5",
"! 	c #2A2928",
"~ 	c #5F5D5C",
"{ 	c #E1E0DE",
"] 	c #FDFCF9",
"^ 	c #2A2927",
"/ 	c #282825",
"( 	c #2C2B29",
"_ 	c #61615E",
": 	c #FAF8F6",
"< 	c #FCFAF8",
"[ 	c #302F2D",
"} 	c #2F2E2C",
"| 	c #403F3D",
"1 	c #E1DFDC",
"2 	c #FBF9F6",
"3 	c #F3F1EF",
"4 	c #DDDBD9",
"5 	c #363533",
"6 	c #353432",
"7 	c #393836",
"8 	c #959391",
"9 	c #FAF7F4",
"0 	c #DCDAD8",
"a 	c #9C9C9C",
"b 	c #7A7A7A",
"c 	c #3C3B39",
"d 	c #3A3A37",
"e 	c #403F3E",
"f 	c #C1BEBB",
"g 	c #F9F6F2",
"h 	c #DBD9D6",
"i 	c #CCCAC7",
"j 	c #42413F",
"k 	c #40403D",
"l 	c #474644",
"m 	c #E6E2DF",
"n 	c #F8F4F0",
"o 	c #DBD8D4",
"p 	c #484745",
"q 	c #464643",
"r 	c #4B4B48",
"s 	c #E3E0D9",
"t 	c #F4F0EA",
"u 	c #D8D4D0",
"v 	c #4E4D4B",
"w 	c #4D4D4A",
"x 	c #4E4E4B",
"y 	c #BEBBB5",
"z 	c #F0ECE3",
"A 	c #D4D1CA",
"B 	c #C6C3BE",
"C 	c #545451",
"D 	c #535351",
"E 	c #525150",
"F 	c #9A9691",
"G 	c #EDE8DE",
"H 	c #D2CEC7",
"I 	c #949494",
"J 	c #5A5A57",
"K 	c #595856",
"L 	c #595957",
"M 	c #D6D1C7",
"N 	c #EAE4D9",
"O 	c #E3DED3",
"P 	c #D0CBC3",
"Q 	c #60605D",
"R 	c #60605C",
"S 	c #5B5B58",
"T 	c #777671",
"U 	c #E6DFD3",
"V 	c #E7E0D4",
"W 	c #666663",
"X 	c #646461",
"Y 	c #5A5A58",
"Z 	c #787670",
"` 	c #D1CBBE",
" .	c #E4DDCF",
"..	c #6C6C69",
"+.	c #6A6A67",
"@.	c #61615F",
"#.	c #5C5B58",
"$.	c #959189",
"%.	c #B5B0A4",
"&.	c #D3CCBD",
"*.	c #72726F",
"=.	c #6D6D6A",
"-.	c #636360",
";.	c #5C5C5A",
">.	c #575755",
",.	c #787875",
"'.	c #777775",
").	c #343330",
"!.	c #151413",
"~.	c #161514",
"{.	c #161615",
"].	c #252321",
"^.	c #252421",
"/.	c #232221",
"(.	c #393835",
"_.	c #43423F",
":.	c #4B4A48",
"<.	c #302F2C",
"[.	c #4A4946",
"}.	c #504E4C",
"|.	c #2A2926",
"1.	c #2B2A27",
"2.	c #545350",
"3.	c #545351",
"4.	c #2F2F2D",
"5.	c #333330",
"6.	c #535350",
"7.	c #585855",
"8.	c #575654",
"9.	c #52524F",
"0.	c #363534",
"a.	c #494746",
"b.	c #5D5B5A",
"c.	c #4A4948",
"d.	c #434241",
"e.	c #3D3C3A",
"f.	c #575553",
"g.	c #62605E",
"h.	c #5C5A59",
"i.	c #484746",
"j.	c #595756",
"k.	c #41413F",
"l.	c #434240",
"m.	c #63615F",
"n.	c #676562",
"o.	c #615F5C",
"p.	c #4D4C4A",
"q.	c #474645",
"r.	c #494845",
"s.	c #676662",
"t.	c #6B6966",
"u.	c #656361",
"v.	c #52514F",
"w.	c #4D4C4B",
"x.	c #646360",
"y.	c #6E6D69",
"z.	c #686864",
"A.	c #565654",
"B.	c #666562",
"C.	c #545450",
"D.	c #62615E",
"E.	c #72716D",
"F.	c #6D6C69",
"G.	c #5B5B59",
"H.	c #73726E",
"I.	c #757470",
"J.	c #5F5F5C",
"K.	c #656561",
"L.	c #7B7A74",
"M.	c #6A6A65",
"N.	c #7C7B75",
"O.	c #807E78",
"P.	c #6C6C68",
"Q.	c #696967",
"R.	c #686866",
"S.	c #74736F",
"T.	c #7A7975",
"U.	c #807F7A",
"V.	c #71716E",
"W.	c #6F6F6C",
"X.	c #6D6D6B",
"Y.	c #6C6C6A",
". . . . . . . . . . . . . . . . . . . . ",
"+ + + + + + + + + + + + + + + + + + + + ",
"@ @ @ @ @ @ # $ % & & % $ # @ @ @ @ @ @ ",
"* * * * * * = - - ; ; - - = * * * * * * ",
"* * * * * ; > , ' ) ) ' , > ; * * * * * ",
"* * * * ! ~ { ] ] ] ] ] ] { ~ ! * * * * ",
"^ ^ / ( _ : < < < < < < < < : _ ( / ^ ^ ",
"[ } } | 1 2 3 4 4 4 4 4 4 3 2 1 | } } [ ",
"5 6 7 8 9 9 0 a b b b b a 0 9 9 8 7 6 5 ",
"c d e f g g h b i h h i b h g g f e d c ",
"j k l m n n o b o n n o b o n n m l k j ",
"p q r s t t u b u t t u b u t t s r q p ",
"v w x y z z A b B A A B b A z z y x w v ",
"C D E F G G H I b b b b I H G G F E D C ",
"J J K L M N O P P P P P P O N M L K J J ",
"Q Q R S T U V V V V V V V V U T S R Q Q ",
"W W W X Y Z `  . . . . . .` Z Y X W W W ",
"........+.@.#.$.%.&.&.%.$.#.@.+.........",
"*.*.*.*.*.*.=.-.;.>.>.;.-.=.*.*.*.*.*.*.",
",.,.,.,.,.,.,.'.,.,.,.,.'.,.,.,.,.,.,.,.",
").).).).).).).).).).).).).).).).).).).).",
").).).).).).).).).).).).).).).).).).).).",
").).).).).).).).).).).).).).).).).).).).",
").).).).).).).).).).).).).).).).).).).).",
").).).).).).).).).).).).).).).).).).).).",
". . . . . . . . . . . . . . . . . . . . ",
"+ + + + + + + + + + + + + + + + + + + + ",
"@ @ @ @ @ @ @ !.~.{.{.~.!.@ @ @ @ @ @ @ ",
"* * * * * * * ].].^.^.].].* * * * * * * ",
"* * * /.* ^.; (._.:.:._.(.; ^.* /.* * * ",
"* * * * = <.[.}.}.}.}.}.}.[.<.= * * * * ",
"^ ^ |.1.6 2.3.3.3.3.3.3.3.3.2.6 1.|.^ ^ ",
"[ [ 4.5.6.7.8.9.9.9.9.9.9.8.7.6.5.4.[ [ ",
"5 5 0.a.b.b.8.c.d.d.d.d.c.8.b.b.a.0.5 5 ",
"c c e.f.g.g.h.i.j.h.h.j.i.h.g.g.f.e.c c ",
"j k.l.m.n.n.o.p.o.n.n.o.p.o.n.n.m.l.k.j ",
"p q.r.s.t.t.u.v.u.t.t.u.v.u.t.t.s.r.q.p ",
"v w.x x.y.y.z.A.B.z.z.B.A.z.y.y.x.x w.v ",
"C C.D D.E.E.F.@.G.G.G.G.@.F.E.E.D.D C.C ",
"J J J J H.T I.E.E.E.E.E.E.I.T H.J J J J ",
"Q Q Q J.K.L.L.L.L.L.L.L.L.L.L.K.J.Q Q Q ",
"W W W W X M.N.O.O.O.O.O.O.N.M.X W W W W ",
"......P.P.Q.R.S.T.U.U.T.S.R.Q.P.P.......",
"*.*.*.*.*.*.V.W.X.Y.Y.X.W.V.*.*.*.*.*.*.",
",.,.,.,.,.,.,.,.,.,.,.,.,.,.,.,.,.,.,.,.",
").).).).).).).).).).).).).).).).).).).).",
").).).).).).).).).).).).).).).).).).).).",
").).).).).).).).).).).).).).).).).).).).",
").).).).).).).).).).).).).).).).).).).).",
").).).).).).).).).).).).).).).).).).).)."};
