/* XPM */
static char * restoreO_xpm[] = {
"20 50 191 2",
"  	c None",
". 	c #53524E",
"+ 	c #504F4B",
"@ 	c #141312",
"# 	c #161514",
"$ 	c #191917",
"% 	c #1B1B19",
"& 	c #1E1D1C",
"* 	c #242321",
"= 	c #242421",
"- 	c #252422",
"; 	c #262522",
"> 	c #262623",
", 	c #242322",
"' 	c #2F2E2C",
") 	c #6D6C6A",
"! 	c #8E8E8B",
"~ 	c #ADACAA",
"{ 	c #282826",
"] 	c #4D4C4A",
"^ 	c #A8A7A5",
"/ 	c #BCBBB8",
"( 	c #2A2927",
"_ 	c #292826",
": 	c #2C2A29",
"< 	c #51504E",
"[ 	c #BCB9B8",
"} 	c #BDBBB9",
"| 	c #302F2D",
"1 	c #302F2C",
"2 	c #2F2E2D",
"3 	c #3B3A39",
"4 	c #ABAAA8",
"5 	c #BDBCBA",
"6 	c #B8B6B5",
"7 	c #A8A7A6",
"8 	c #363533",
"9 	c #353432",
"0 	c #383735",
"a 	c #787774",
"b 	c #BFBCB9",
"c 	c #AAA8A6",
"d 	c #7D7D7C",
"e 	c #656564",
"f 	c #3C3B39",
"g 	c #3B3B39",
"h 	c #3F3E3C",
"i 	c #999794",
"j 	c #C0BEBA",
"k 	c #ABAAA6",
"l 	c #676766",
"m 	c #A09F9C",
"n 	c #42413F",
"o 	c #403F3E",
"p 	c #454542",
"q 	c #B5B2AF",
"r 	c #C1BEBB",
"s 	c #ADABA7",
"t 	c #696968",
"u 	c #484745",
"v 	c #474744",
"w 	c #4A4947",
"x 	c #B4B1AD",
"y 	c #C0BDB8",
"z 	c #ADA9A6",
"A 	c #6B6A6A",
"B 	c #4E4D4B",
"C 	c #4D4D4A",
"D 	c #9D9A95",
"E 	c #C0BCB5",
"F 	c #ACA9A4",
"G 	c #6D6C6C",
"H 	c #A29F9C",
"I 	c #545451",
"J 	c #525250",
"K 	c #85827D",
"L 	c #BEBBB3",
"M 	c #ACA9A3",
"N 	c #80807F",
"O 	c #6E6E6D",
"P 	c #5A5A57",
"Q 	c #595856",
"R 	c #595957",
"S 	c #B0ADA5",
"T 	c #BEBAB2",
"U 	c #B9B6AD",
"V 	c #ACA9A2",
"W 	c #60605D",
"X 	c #5D5D59",
"Y 	c #706F6B",
"Z 	c #BEB9AF",
"` 	c #BEB9B0",
" .	c #666663",
"..	c #646461",
"+.	c #5E5E5B",
"@.	c #73716C",
"#.	c #B1ADA3",
"$.	c #BEB9AE",
"%.	c #6C6C69",
"&.	c #6B6B68",
"*.	c #656562",
"=.	c #61615D",
"-.	c #898680",
";.	c #9F9C92",
">.	c #B4AFA4",
",.	c #72726F",
"'.	c #737370",
").	c #73736F",
"!.	c #6E6E6C",
"~.	c #676765",
"{.	c #626261",
"].	c #5F5F5D",
"^.	c #787875",
"/.	c #777775",
"(.	c #343330",
"_.	c #151413",
":.	c #161615",
"<.	c #252321",
"[.	c #252421",
"}.	c #232221",
"|.	c #272624",
"1.	c #393835",
"2.	c #43423F",
"3.	c #4B4A48",
"4.	c #4A4946",
"5.	c #504E4C",
"6.	c #2A2926",
"7.	c #2B2A27",
"8.	c #545350",
"9.	c #545351",
"0.	c #2F2F2D",
"a.	c #333330",
"b.	c #535350",
"c.	c #585855",
"d.	c #575654",
"e.	c #52524F",
"f.	c #363534",
"g.	c #494746",
"h.	c #5D5B5A",
"i.	c #4A4948",
"j.	c #434241",
"k.	c #3D3C3A",
"l.	c #575553",
"m.	c #62605E",
"n.	c #5C5A59",
"o.	c #484746",
"p.	c #595756",
"q.	c #41413F",
"r.	c #434240",
"s.	c #63615F",
"t.	c #676562",
"u.	c #615F5C",
"v.	c #474645",
"w.	c #494845",
"x.	c #676662",
"y.	c #6B6966",
"z.	c #656361",
"A.	c #52514F",
"B.	c #4D4C4B",
"C.	c #4E4E4B",
"D.	c #646360",
"E.	c #6E6D69",
"F.	c #686864",
"G.	c #565654",
"H.	c #666562",
"I.	c #545450",
"J.	c #535351",
"K.	c #62615E",
"L.	c #72716D",
"M.	c #6D6C69",
"N.	c #61615F",
"O.	c #5B5B59",
"P.	c #73726E",
"Q.	c #777671",
"R.	c #757470",
"S.	c #5F5F5C",
"T.	c #656561",
"U.	c #7B7A74",
"V.	c #6A6A65",
"W.	c #7C7B75",
"X.	c #807E78",
"Y.	c #6C6C68",
"Z.	c #696967",
"`.	c #686866",
" +	c #74736F",
".+	c #7A7975",
"++	c #807F7A",
"@+	c #71716E",
"#+	c #6F6F6C",
"$+	c #6D6D6B",
"%+	c #6C6C6A",
". . . . . . . . . . . . . . . . . . . . ",
"+ + + + + + + + + + + + + + + + + + + + ",
"@ @ @ @ @ @ # $ % & & % $ # @ @ @ @ @ @ ",
"* * * * * = - ; ; > > ; ; - = * * * * * ",
"* * * , * > ' ) ! ~ ~ ! ) ' > * , * * * ",
"* * * * { ] ^ / / / / / / ^ ] { * * * * ",
"( ( _ : < [ } } } } } } } } [ < : _ ( ( ",
"| 1 2 3 4 5 6 7 7 7 7 7 7 6 5 4 3 2 1 | ",
"8 9 0 a b b c d e e e e d c b b a 0 9 8 ",
"f g h i j j k l m k k m l k j j i h g f ",
"n o p q r r s t s r r s t s r r q p o n ",
"u v w x y y z A z y y z A z y y x w v u ",
"B C B D E E F G H F F H G F E E D B C B ",
"I I J K L L M N O O O O N M L L K J I I ",
"P P Q R S T U V V V V V V U T S R Q P P ",
"W W W X Y Z ` ` ` ` ` ` ` ` Z Y X W W W ",
" . . ...+.@.#.$.$.$.$.$.$.#.@.+... . . .",
"%.%.%.%.&.*.=.-.;.>.>.;.-.=.*.&.%.%.%.%.",
",.,.,.,.'.).!.~.{.].].{.~.!.).'.,.,.,.,.",
"^.^.^.^.^.^.^./.^.^.^.^./.^.^.^.^.^.^.^.",
"(.(.(.(.(.(.(.(.(.(.(.(.(.(.(.(.(.(.(.(.",
"(.(.(.(.(.(.(.(.(.(.(.(.(.(.(.(.(.(.(.(.",
"(.(.(.(.(.(.(.(.(.(.(.(.(.(.(.(.(.(.(.(.",
"(.(.(.(.(.(.(.(.(.(.(.(.(.(.(.(.(.(.(.(.",
"(.(.(.(.(.(.(.(.(.(.(.(.(.(.(.(.(.(.(.(.",
". . . . . . . . . . . . . . . . . . . . ",
"+ + + + + + + + + + + + + + + + + + + + ",
"@ @ @ @ @ @ @ _.# :.:.# _.@ @ @ @ @ @ @ ",
"* * * * * * * <.<.[.[.<.<.* * * * * * * ",
"* * * }.* [.|.1.2.3.3.2.1.|.[.* }.* * * ",
"* * * * - 1 4.5.5.5.5.5.5.4.1 - * * * * ",
"( ( 6.7.9 8.9.9.9.9.9.9.9.9.8.9 7.6.( ( ",
"| | 0.a.b.c.d.e.e.e.e.e.e.d.c.b.a.0.| | ",
"8 8 f.g.h.h.d.i.j.j.j.j.i.d.h.h.g.f.8 8 ",
"f f k.l.m.m.n.o.p.n.n.p.o.n.m.m.l.k.f f ",
"n q.r.s.t.t.u.] u.t.t.u.] u.t.t.s.r.q.n ",
"u v.w.x.y.y.z.A.z.y.y.z.A.z.y.y.x.w.v.u ",
"B B.C.D.E.E.F.G.H.F.F.H.G.F.E.E.D.C.B.B ",
"I I.J.K.L.L.M.N.O.O.O.O.N.M.L.L.K.J.I.I ",
"P P P P P.Q.R.L.L.L.L.L.L.R.Q.P.P P P P ",
"W W W S.T.U.U.U.U.U.U.U.U.U.U.T.S.W W W ",
" . . . ...V.W.X.X.X.X.X.X.W.V... . . . .",
"%.%.%.Y.Y.Z.`. +.+++++.+ +`.Z.Y.Y.%.%.%.",
",.,.,.,.,.,.@+#+$+%+%+$+#+@+,.,.,.,.,.,.",
"^.^.^.^.^.^.^.^.^.^.^.^.^.^.^.^.^.^.^.^.",
"(.(.(.(.(.(.(.(.(.(.(.(.(.(.(.(.(.(.(.(.",
"(.(.(.(.(.(.(.(.(.(.(.(.(.(.(.(.(.(.(.(.",
"(.(.(.(.(.(.(.(.(.(.(.(.(.(.(.(.(.(.(.(.",
"(.(.(.(.(.(.(.(.(.(.(.(.(.(.(.(.(.(.(.(.",
"(.(.(.(.(.(.(.(.(.(.(.(.(.(.(.(.(.(.(.(."};
