/* XPM */
static char * restoreI_xpm[] = {
"20 50 173 2",
"  	c None",
". 	c #53524E",
"+ 	c #504F4B",
"@ 	c #141312",
"# 	c #181715",
"$ 	c #1C1B19",
"% 	c #1F1E1D",
"& 	c #222120",
"* 	c #242321",
"= 	c #232220",
"- 	c #201F1D",
"; 	c #1E1D1B",
"> 	c #1C1C1A",
", 	c #201F1E",
"' 	c #1D1C1B",
") 	c #2F2E2C",
"! 	c #383835",
"~ 	c #40403E",
"{ 	c #262523",
"] 	c #3E3E3C",
"^ 	c #454542",
"/ 	c #2A2927",
"( 	c #282825",
"_ 	c #272726",
": 	c #454543",
"< 	c #464643",
"[ 	c #302F2D",
"} 	c #2B2A28",
"| 	c #242322",
"1 	c #424240",
"2 	c #484845",
"3 	c #474745",
"4 	c #363533",
"5 	c #353432",
"6 	c #2E2D2B",
"7 	c #383735",
"8 	c #4B4B48",
"9 	c #494947",
"0 	c #8B8B8B",
"a 	c #7A7A7A",
"b 	c #3C3B39",
"c 	c #3A3A37",
"d 	c #302F2E",
"e 	c #434241",
"f 	c #4D4D4A",
"g 	c #42413F",
"h 	c #40403D",
"i 	c #323230",
"j 	c #4C4C49",
"k 	c #504F4C",
"l 	c #4D4C4A",
"m 	c #4F4E4B",
"n 	c #484745",
"o 	c #373735",
"p 	c #4E4E4C",
"q 	c #52524F",
"r 	c #4D4D4C",
"s 	c #4C4C4A",
"t 	c #4E4E4B",
"u 	c #4E4D4B",
"v 	c #3F3F3D",
"w 	c #535351",
"x 	c #4D4D4B",
"y 	c #4A4A48",
"z 	c #545451",
"A 	c #535350",
"B 	c #494847",
"C 	c #494948",
"D 	c #555452",
"E 	c #535250",
"F 	c #4E4D4C",
"G 	c #5A5A57",
"H 	c #565553",
"I 	c #464544",
"J 	c #51514E",
"K 	c #4C4C48",
"L 	c #60605D",
"M 	c #60605C",
"N 	c #555552",
"O 	c #52524E",
"P 	c #50504C",
"Q 	c #4E4D4A",
"R 	c #666663",
"S 	c #656562",
"T 	c #4F4F4C",
"U 	c #53524F",
"V 	c #51514D",
"W 	c #4E4E4A",
"X 	c #6C6C69",
"Y 	c #6B6B68",
"Z 	c #50504D",
"` 	c #4E4D49",
" .	c #72726F",
"..	c #6E6E6B",
"+.	c #646462",
"@.	c #5F5F5C",
"#.	c #787875",
"$.	c #777775",
"%.	c #343330",
"&.	c #151413",
"*.	c #161514",
"=.	c #161615",
"-.	c #252321",
";.	c #252421",
">.	c #232221",
",.	c #272624",
"'.	c #393835",
").	c #43423F",
"!.	c #4B4A48",
"~.	c #252422",
"{.	c #302F2C",
"].	c #4A4946",
"^.	c #504E4C",
"/.	c #2A2926",
"(.	c #2B2A27",
"_.	c #545350",
":.	c #545351",
"<.	c #2F2F2D",
"[.	c #333330",
"}.	c #585855",
"|.	c #575654",
"1.	c #363534",
"2.	c #494746",
"3.	c #5D5B5A",
"4.	c #4A4948",
"5.	c #3D3C3A",
"6.	c #575553",
"7.	c #62605E",
"8.	c #5C5A59",
"9.	c #484746",
"0.	c #595756",
"a.	c #41413F",
"b.	c #434240",
"c.	c #63615F",
"d.	c #676562",
"e.	c #615F5C",
"f.	c #474645",
"g.	c #494845",
"h.	c #676662",
"i.	c #6B6966",
"j.	c #656361",
"k.	c #52514F",
"l.	c #4D4C4B",
"m.	c #646360",
"n.	c #6E6D69",
"o.	c #686864",
"p.	c #565654",
"q.	c #666562",
"r.	c #545450",
"s.	c #62615E",
"t.	c #72716D",
"u.	c #6D6C69",
"v.	c #61615F",
"w.	c #5B5B59",
"x.	c #73726E",
"y.	c #777671",
"z.	c #757470",
"A.	c #656561",
"B.	c #7B7A74",
"C.	c #646461",
"D.	c #6A6A65",
"E.	c #7C7B75",
"F.	c #807E78",
"G.	c #6C6C68",
"H.	c #696967",
"I.	c #686866",
"J.	c #74736F",
"K.	c #7A7975",
"L.	c #807F7A",
"M.	c #71716E",
"N.	c #6F6F6C",
"O.	c #6D6D6B",
"P.	c #6C6C6A",
". . . . . . . . . . . . . . . . . . . . ",
"+ + + + + + + + + + + + + + + + + + + + ",
"@ @ @ @ @ @ # $ % & & % $ # @ @ @ @ @ @ ",
"* * * * * * = - ; > > ; - = * * * * * * ",
"* * * * * , ' ) ! ~ ~ ! ) ' , * * * * * ",
"* * * * ; { ] ^ ^ ^ ^ ^ ^ ] { ; * * * * ",
"/ / ( = _ : < < < < < < < < : _ = ( / / ",
"[ ) } | 1 2 2 3 3 3 3 3 3 2 2 1 | } ) [ ",
"4 5 6 7 8 8 9 0 a a a a 0 9 8 8 7 6 5 4 ",
"b c d e f f 8 a 9 8 8 9 a 8 f f e d c b ",
"g h i j k k l a j m m j a l k k j i h g ",
"n < o p q q r a s t t s a r q q p o < n ",
"u f v s w q x a y j j y a x q w s v f u ",
"z A B C D E F 0 a a a a 0 F E D C B A z ",
"G G H I E A J f j K K j f J A E I H G G ",
"L L M N j A O P m Q Q m P O A j N M L L ",
"R R R S z T U V + W W + V U T z S R R R ",
"X X X X Y L w q Z ` ` Z q w L Y X X X X ",
" . . . . . ...+.@.G G @.+... . . . . . .",
"#.#.#.#.#.#.#.$.#.#.#.#.$.#.#.#.#.#.#.#.",
"%.%.%.%.%.%.%.%.%.%.%.%.%.%.%.%.%.%.%.%.",
"%.%.%.%.%.%.%.%.%.%.%.%.%.%.%.%.%.%.%.%.",
"%.%.%.%.%.%.%.%.%.%.%.%.%.%.%.%.%.%.%.%.",
"%.%.%.%.%.%.%.%.%.%.%.%.%.%.%.%.%.%.%.%.",
"%.%.%.%.%.%.%.%.%.%.%.%.%.%.%.%.%.%.%.%.",
". . . . . . . . . . . . . . . . . . . . ",
"+ + + + + + + + + + + + + + + + + + + + ",
"@ @ @ @ @ @ @ &.*.=.=.*.&.@ @ @ @ @ @ @ ",
"* * * * * * * -.-.;.;.-.-.* * * * * * * ",
"* * * >.* ;.,.'.).!.!.).'.,.;.* >.* * * ",
"* * * * ~.{.].^.^.^.^.^.^.].{.~.* * * * ",
"/ / /.(.5 _.:.:.:.:.:.:.:.:._.5 (././ / ",
"[ [ <.[.A }.|.q q q q q q |.}.A [.<.[ [ ",
"4 4 1.2.3.3.|.4.e e e e 4.|.3.3.2.1.4 4 ",
"b b 5.6.7.7.8.9.0.8.8.0.9.8.7.7.6.5.b b ",
"g a.b.c.d.d.e.l e.d.d.e.l e.d.d.c.b.a.g ",
"n f.g.h.i.i.j.k.j.i.i.j.k.j.i.i.h.g.f.n ",
"u l.t m.n.n.o.p.q.o.o.q.p.o.n.n.m.t l.u ",
"z r.w s.t.t.u.v.w.w.w.w.v.u.t.t.s.w r.z ",
"G G G G x.y.z.t.t.t.t.t.t.z.y.x.G G G G ",
"L L L @.A.B.B.B.B.B.B.B.B.B.B.A.@.L L L ",
"R R R R C.D.E.F.F.F.F.F.F.E.D.C.R R R R ",
"X X X G.G.H.I.J.K.L.L.K.J.I.H.G.G.X X X ",
" . . . . . .M.N.O.P.P.O.N.M. . . . . . .",
"#.#.#.#.#.#.#.#.#.#.#.#.#.#.#.#.#.#.#.#.",
"%.%.%.%.%.%.%.%.%.%.%.%.%.%.%.%.%.%.%.%.",
"%.%.%.%.%.%.%.%.%.%.%.%.%.%.%.%.%.%.%.%.",
"%.%.%.%.%.%.%.%.%.%.%.%.%.%.%.%.%.%.%.%.",
"%.%.%.%.%.%.%.%.%.%.%.%.%.%.%.%.%.%.%.%.",
"%.%.%.%.%.%.%.%.%.%.%.%.%.%.%.%.%.%.%.%."};
