/* XPM */
static char * titleAS_xpm[] = {
"1 25 13 1",
" 	c None",
".	c #53524E",
"+	c #504F4B",
"@	c #4E4D48",
"#	c #4B4A45",
"$	c #484743",
"%	c #454440",
"&	c #42413D",
"*	c #3F3E3B",
"=	c #3C3B38",
"-	c #393835",
";	c #373632",
">	c #343330",
".",
"+",
"@",
"#",
"$",
"%",
"&",
"*",
"=",
"-",
";",
">",
">",
">",
">",
">",
">",
">",
">",
">",
">",
">",
">",
">",
">"};
