/* XPM */
static char * titleIJ_xpm[] = {
"8 25 12 1",
" 	c None",
".	c #504E4A",
"+	c #4C4B47",
"@	c #494844",
"#	c #464541",
"$	c #43423E",
"%	c #403F3B",
"&	c #3D3C38",
"*	c #3A3936",
"=	c #373633",
"-	c #343330",
";	c #33322F",
"........",
"++++++++",
"@@@@@@@@",
"########",
"$$$$$$$$",
"%%%%%%%%",
"&&&&&&&&",
"********",
"========",
"--------",
"--------",
"--------",
"--------",
"--------",
"--------",
"--------",
"--------",
"--------",
"--------",
"--------",
"--------",
"--------",
"--------",
";;;;;;;;",
";;;;;;;;"};
