/* XPM */
static char * taskbuttonbg_xpm[] = {
"200 24 66 1",
" 	c None",
".	c #2A2927",
"+	c #242221",
"@	c #201F1E",
"#	c #2A2928",
"$	c #242321",
"%	c #2A2726",
"&	c #31312D",
"*	c #32312E",
"=	c #31312E",
"-	c #32312F",
";	c #32322E",
">	c #32322F",
",	c #33322F",
"'	c #292826",
")	c #232222",
"!	c #312F2E",
"~	c #32302E",
"{	c #30302D",
"]	c #31302D",
"^	c #31302E",
"/	c #302F2D",
"(	c #2F2F2C",
"_	c #302E2D",
":	c #302F2C",
"<	c #302E2C",
"[	c #2F2E2C",
"}	c #2F2E2B",
"|	c #2E2D2B",
"1	c #2E2E2C",
"2	c #2F2D2B",
"3	c #2E2E2B",
"4	c #2D2D2B",
"5	c #2E2C2B",
"6	c #2E2D2A",
"7	c #2D2C2A",
"8	c #2C2B29",
"9	c #2D2B29",
"0	c #2E2C2A",
"a	c #2C2B2A",
"b	c #2C2C2A",
"c	c #2B2A28",
"d	c #2C2A28",
"e	c #2B2B29",
"f	c #2B2A29",
"g	c #2B2928",
"h	c #2C2A29",
"i	c #2C2B28",
"j	c #2A2A28",
"k	c #2A2826",
"l	c #2A2926",
"m	c #2B2A27",
"n	c #292827",
"o	c #2B2927",
"p	c #292725",
"q	c #282625",
"r	c #282724",
"s	c #232321",
"t	c #292724",
"u	c #282725",
"v	c #292726",
"w	c #292825",
"x	c #2A2827",
"y	c #242421",
"z	c #242222",
"A	c #232221",
".+@@@@@@@@@@@@@@@@@@@@@@@@@@@@@@@@@@@@@@@@@@@@@@@@@@@@@@@@@@@@@@@@@@@@@@@@@@@@@@@@@@@@@@@@@@@@@@@@@@@@@@@@@@@@@@@@@@@@@@@@@@@@@@@@@@@@@@@@@@@@@@@@@@@@@@@@@@@@@@@@@@@@@@@@@@@@@@@@@@@@@@@@@@@@@@@@@@@@+#",
"$%&*==***==***=*****************-**;*-*;**-*;;*--;;*->;;-->>;-->>;;>,>;>>,,>>>,,>>>,,,>>,,,>,,,,,,,,,,,,,,,,>,,,>>,,,>>>,,>>>,,>>;>,-;;>>--;>>--;;>-*;;--*;;*-**;*-*;**-*****************=***==***==*&')",
"@!~~~~~~~~~~~~~~~~~~~~~~~~~~~~~~~~~~~~~~~{~~~~~~~~~~~~~~~~~~~~~~~~~~~~~~~~~~~~~~~~~~~~~~~~~~~~~~~~~~~~~~~~~~~~~~~~~~~~~~~~~~~~~~~~~~~~~!]~~~~~~~~~~~~~~~~~~~~~~~~~~~~~~~~~~~~~~~~~~~~~~~~~~~~~~~~~~~~~!@",
"@~^^^^^^^^^^^^^^^^^^^^^^^^^^^^^^^^^^^^^^^/^^^^^^^^^^^^^^^^^^^^^^^^^^^^^^^^^^^^^^^^^^^^^^^^^^^^^^^^^^^^^^^^^^^^^^^^^^^^^^^]^^^^^^^^^^^^^]{^^^^^^^^^^^^^^^^^^^^^^^^^^^^^^^^^^^^^^^^^^^^^^^^^^^^^^^^^^^^^~@",
"@{///////////////////////////////////////(/////////////////////////////////////////////////////////////////////////////////////////////__/////////////////////////////////////////////////////////////{@",
"@::::::::::::::::::::::::::::::::::::::::<:::::::::::::::::::::::::::::::::::::::::::::::::::::::::::::::::::::::::::::::_:::::::::::::::::::::::::::::::::::::::::::::::::::::::::::::::::::::::::::::@",
"@[}}}}}}}}}}}}}}}}}}}}}}}}}}}}}}}}}}}}}}}|}}}}}}}}}}}}}}}}}}}}}}}}}}}}}}}}}}}}}}}}}}}}}}}}}}}}}}}}}}}}}}}}}}}}}}}}}}}}}}}1}}}}}}}}}}}}}}}}}}}}}}}}}}}}}}}}}}}}}}}}}}}}}}}}}}}}}}}}}}}}}}}}}}}}}}}}}}}}[@",
"@[222222222222222222222222222222222222222|222222222222222222222222222222222222222222222222222222222222222222222222222222232222222222222332222222222222222222222222222222222222222222222222222222222222[@",
"@12||||2|2|2||2||||||||||||||2|2|2||2|2||42|2|2|2|2|2|2|2|2|2|2|2|2|2|2|2|2|22|2||2|22||2|2|2|2|2|2|2|2||222222222222222||22|2|2222|22||522222|2222|2|2|2|2|2|2|2|22|2|2|2|2|2|22|2|2|2||222222222222|1@",
"@677777777777777777777777777777777777777787777777777777777777777777777777777777777777777777777777777777777777777777777777777777777777779977777777777777777777777777777777777777777777777777777777777776@",
"@099999999999999999999999999999999999999989999999999999999999999999999999999999999999999999999999999999999999999999999999a99999999999998899999999999999999999999999999999999999999999999999999999999990@",
"@088888888888888888888888888888888888888888888888888888888888888888888888888888888888888888888888888888888888888888888888888888888888888888888888888888888888888888888888888888888888888888888888888880@",
"@bccccccccccccccccccccccccccccccccccccccccccccccccccccccccccccccccccccccccccccccccccccccccccccccccccccccccccccccccccccccccccccccccccccccccccccccccccccccccccccccccccccccccccccccccccccccccccccccccccccb@",
"@8dddddddddddddddddddddddddddddddddddddddcdddddddddddddddddddddddddddddddddddddddddddddddddddddddddddddddddddddddddddddddedddddddddddddccddddddddddddddddddddddddddddddddddddddddddddddddddddddddddddd8@",
"@dfffffffffffffffffffffffffffffffffffffff.fffffffffffffffffffffffffffffffffffffffffffffffffffffffffffffffffffffffffffffffcfffffffffffffggfffffffffffffffffffffffffffffffffffffffffffffffffffffffffffffd@",
"@cheeeeheheheeheeeeeeeeeeeeeeheheheeheheechehehehehehehehehehehehehehehehehehheheehehheeheheheheheheheheehhhhhhhhhhhhhhheihhehehhhhehheidhhhhhehhhhehehehehehehehehhehehehehehehheheheheehhhhhhhhhhhhec@",
"@jddddddddddddddddddddddddddddddddddddddd#dddddddddddddddddddddddddddddddddddddddddddddddddddddddddddddddddddddddddddddddcdddddddddddddccdddddddddddddddddddddddddddddddddddddddddddddddddddddddddddddj@",
"@kccccccccccccccccccccccccccccccccccccccclcccccccccccccccccccccccccccccccccccccccccccccccccccccccccccccccccccccccccccccccccccccccccccccmmccccccccccccccccccccccccccccccccccccccccccccccccccccccccccccck@",
"@niiiiiiiiiiiiiiiiiiiiiiiiiiiiiiiiiiiiiiioiiiiiiiiiiiiiiiiiiiiiiiiiiiiiiiiiiiiiiiiiiiiiiiiiiiiiiiiiiiiiiiiiiiiiiiiiiiiiiihiiiiiiiiiiiiicciiiiiiiiiiiiiiiiiiiiiiiiiiiiiiiiiiiiiiiiiiiiiiiiiiiiiiiiiiiiin@",
"@'hhhhhhhhhhhhhhhhhhhhhhhhhhhhhhhhhhhhhhh.hhhhhhhhhhhhhhhhhhhhhhhhhhhhhhhhhhhhhhhhhhhhhhhhhhhhhhhhhhhhhhhhhhhhhhhhhhhhhhhhhhhhhhhhhhhhhgghhhhhhhhhhhhhhhhhhhhhhhhhhhhhhhhhhhhhhhhhhhhhhhhhhhhhhhhhhhhh'@",
"@p888888888888888888888888888888888888888.8888888888888888888888888888888888888888888888888888888888888888888888888888888d8888888888888dc8888888888888888888888888888888888888888888888888888888888888p@",
"@q999999999999999999999999999999999999999l9999999999999999999999999999999999999999999999999999999999999999999999999999999i9999999999999cm9999999999999999999999999999999999999999999999999999999999999r@",
"s$tuuuppppupppppppvppwwvvww''v'''kk'''kk'kkkkkkkkkkkkllkxx.ll.x..o..oooo.ooooooooooooogmooooccccooooooooccccoooomgooooooooooooo.oooo..o..x.ll.xxkllxkkkkkkkkkkk'kk'''kk'''v''wwvvwwppvpppppppuppppuuutyz",
"#A@@@@@@@@@@@@@@@@@@@@@@@@@@@@@@@@@@@@@@@@@@@@@@@@@@@@@@@@@@@@@@@@@@@@@@@@@@@@@@@@@@@@@@@@@@@@@@@@@@@@@@@@@@@@@@@@@@@@@@@@@@@@@@@@@@@@@@@@@@@@@@@@@@@@@@@@@@@@@@@@@@@@@@@@@@@@@@@@@@@@@@@@@@@@@@@@@@@@sc"};
