/* XPM */
static char * collapse_xpm[] = {
"17 20 215 2",
"  	c None",
". 	c #857E73",
"+ 	c #595651",
"@ 	c #ABA59D",
"# 	c #B7B2A9",
"$ 	c #B6B1A8",
"% 	c #B6B0A8",
"& 	c #B9B3AB",
"* 	c #A29C94",
"= 	c #504E4A",
"- 	c #948D7F",
"; 	c #ADA8A0",
"> 	c #F3F1ED",
", 	c #F7F7F2",
"' 	c #F8F6F3",
") 	c #F9F8F5",
"! 	c #FAF9F6",
"~ 	c #FBFAF7",
"{ 	c #FBF9F7",
"] 	c #FAF8F6",
"^ 	c #F9F7F4",
"/ 	c #F7F6F2",
"( 	c #F9F8F4",
"_ 	c #ECE9E4",
": 	c #9F9A92",
"< 	c #989082",
"[ 	c #C6C1BA",
"} 	c #F6F4F1",
"| 	c #E9E6E1",
"1 	c #ECEAE5",
"2 	c #EEEAE6",
"3 	c #EFECE8",
"4 	c #F0EDE9",
"5 	c #F0EEEA",
"6 	c #EFEBE7",
"7 	c #EDEAE6",
"8 	c #EBE8E3",
"9 	c #F5F3EF",
"0 	c #B8B2A9",
"a 	c #C1BCB5",
"b 	c #F2EFEC",
"c 	c #E8E4DF",
"d 	c #EDE9E5",
"e 	c #E9E6E0",
"f 	c #B4AEA5",
"g 	c #C0BBB4",
"h 	c #EFECE7",
"i 	c #E4E1DB",
"j 	c #E9E6E2",
"k 	c #EAE6E2",
"l 	c #E9E5E1",
"m 	c #EBE7E2",
"n 	c #EBE7E3",
"o 	c #E7E4DF",
"p 	c #E6E3DD",
"q 	c #EDEAE5",
"r 	c #B4ADA5",
"s 	c #C0BAB3",
"t 	c #ECE8E4",
"u 	c #E2DDD8",
"v 	c #E5E1DC",
"w 	c #F0ECE7",
"x 	c #E7E3DF",
"y 	c #E5E1DB",
"z 	c #E3DFD9",
"A 	c #EAE7E2",
"B 	c #B3ADA4",
"C 	c #999083",
"D 	c #BFB9B2",
"E 	c #DFDAD4",
"F 	c #E2DED8",
"G 	c #E4E0DA",
"H 	c #E0DCD7",
"I 	c #ADAAA6",
"J 	c #D8D5D0",
"K 	c #EEEAE4",
"L 	c #E0DCD6",
"M 	c #999183",
"N 	c #BEB8B1",
"O 	c #DBD7D0",
"P 	c #DEDAD3",
"Q 	c #E0DCD5",
"R 	c #E5E1DA",
"S 	c #92908D",
"T 	c #7E7C7A",
"U 	c #DFDBD5",
"V 	c #EAE6DF",
"W 	c #DDD9D2",
"X 	c #E5E2DC",
"Y 	c #B2ACA3",
"Z 	c #BEB7AF",
"` 	c #E5E0D9",
" .	c #D9D4CC",
"..	c #DBD6CE",
"+.	c #DCD7CF",
"@.	c #E0DAD3",
"#.	c #E0DBD3",
"$.	c #8B8985",
"%.	c #7E7C78",
"&.	c #D3CFC7",
"*.	c #DED9D1",
"=.	c #DBD6CF",
"-.	c #E4DFD8",
";.	c #B2ABA3",
">.	c #999184",
",.	c #BDB7AE",
"'.	c #E2DDD6",
").	c #D7D2CA",
"!.	c #D8D3CB",
"~.	c #E6E0D7",
"{.	c #4F4E4D",
"].	c #8D8A86",
"^.	c #E1DBD3",
"/.	c #D9D4CB",
"(.	c #E1DCD5",
"_.	c #B2ABA2",
":.	c #BBB6AD",
"<.	c #DFDBD3",
"[.	c #D5D0C7",
"}.	c #D6D1C9",
"|.	c #D6D1C8",
"1.	c #D8D3CA",
"2.	c #E0DBD2",
"3.	c #9D9994",
"4.	c #6C6A67",
"5.	c #BEBAB3",
"6.	c #DEDAD2",
"7.	c #B1ABA1",
"8.	c #9A9284",
"9.	c #BAB4AC",
"0.	c #DCD7D0",
"a.	c #D2CCC4",
"b.	c #D4CEC6",
"c.	c #D5CFC7",
"d.	c #DBD5CC",
"e.	c #9C9894",
"f.	c #6F6D6B",
"g.	c #C4BFB9",
"h.	c #DFD9D1",
"i.	c #D5CFC6",
"j.	c #D4CEC5",
"k.	c #B0AAA1",
"l.	c #9A9285",
"m.	c #B9B3AA",
"n.	c #D0CAC1",
"o.	c #D2CDC4",
"p.	c #D2CDC6",
"q.	c #93908C",
"r.	c #BFBBB4",
"s.	c #E2DDD4",
"t.	c #D5D0C8",
"u.	c #D4CFC6",
"v.	c #D1CBC2",
"w.	c #B0A99F",
"x.	c #D7D1C8",
"y.	c #CFC9C0",
"z.	c #D3CDC5",
"A.	c #D4CFC7",
"B.	c #D6D0C9",
"C.	c #DBD5CE",
"D.	c #D8D2CA",
"E.	c #D6D1CA",
"F.	c #D4CEC7",
"G.	c #D6D0C7",
"H.	c #AFA89F",
"I.	c #9B9385",
"J.	c #B7B0A7",
"K.	c #D5CEC6",
"L.	c #CFC8C0",
"M.	c #D8D2CB",
"N.	c #D7D2CB",
"O.	c #D5CEC7",
"P.	c #D0C9C1",
"Q.	c #AEA89E",
"R.	c #9B9386",
"S.	c #B6AFA6",
"T.	c #D9D3CC",
"U.	c #CFC9C1",
"V.	c #D2CCC3",
"W.	c #AEA79D",
"X.	c #B5AEA4",
"Y.	c #D2CBC2",
"Z.	c #CEC8BF",
"`.	c #D5CFC8",
" +	c #D8D1CA",
".+	c #DBD4CF",
"++	c #DAD4CE",
"@+	c #D7D1C9",
"#+	c #CEC9C0",
"$+	c #D0CAC0",
"%+	c #ADA69C",
"&+	c #9C9487",
"*+	c #D0C9C0",
"=+	c #CDC7BE",
"-+	c #D6CEC7",
";+	c #DDD8D1",
">+	c #DDD7D1",
",+	c #D1CBC3",
"'+	c #CEC7BE",
")+	c #CFC8BF",
"!+	c #AFA89E",
"~+	c #978F83",
"{+	c #A29C92",
"]+	c #CDC6BC",
"^+	c #DAD4CD",
"/+	c #DCD6CF",
"(+	c #C9C2B8",
"_+	c #9A938B",
":+	c #847E73",
"<+	c #585551",
"[+	c #A49D94",
"}+	c #ADA79D",
"|+	c #AEA79E",
"1+	c #9C958D",
"2+	c #514D49",
". + @ # $ % $ $ $ $ $ $ % % & * = ",
"- ; > , ' ' ) ! ~ { ] ^ ' / ( _ : ",
"< [ } | 1 2 3 4 5 5 4 6 7 1 8 9 0 ",
"< a b c 8 _ d 2 6 6 2 d _ 8 e 4 f ",
"< g h i c j k l m n m k | o p q r ",
"< s t u v p o w m x o x p y z A B ",
"C D e E F G H I J K i G z F L o B ",
"M N p O P Q R S T U V L U P W X Y ",
"M Z `  ...+.@.#.$.%.&.*.=.....-.;.",
">.,.'.). . .!.~.).{.].^.). ./.(._.",
">.:.<.[.}.|.1.2.3.4.5./.|.}.|.6.7.",
"8.9.0.a.b.c.d.e.f.g.h.c.i.b.j.=.k.",
"l.m./.n.o.[.p.q.r.s.}.t.u.o.v.1.w.",
"l.0 x.y.z.A.B.C.+.D.E.B.F.o.n.G.H.",
"I.J.K.L.z.c.}.M.M.M.N.B.O.a.P.z.Q.",
"R.S.z.y.z.c.}.M.T.T.M.}.c.a.U.V.W.",
"R.X.Y.Z.z.`. +T..+++T.@+c.a.#+$+%+",
"&+S.*+=+a.-+M.=.;+>+C. +K.,+'+)+!+",
"~+{+]+y.a.K.@+^+/+/+T.@+j.,+*+(+_+",
":+<+[+W.}+}+W.W.|+|+W.}+}+%+H.1+2+"};
