/* XPM */
static char * expand_xpm[] = {
"17 20 212 2",
"  	c None",
". 	c #514E49",
"+ 	c #A29C94",
"@ 	c #B9B3AB",
"# 	c #B6B0A8",
"$ 	c #B6B1A8",
"% 	c #B7B2A9",
"& 	c #AAA39B",
"* 	c #534F4A",
"= 	c #D1D2D2",
"- 	c #A09B92",
"; 	c #ECEAE5",
"> 	c #F9F8F4",
", 	c #F7F6F2",
"' 	c #F8F6F3",
") 	c #F9F7F4",
"! 	c #FAF8F6",
"~ 	c #FBF9F7",
"{ 	c #FBFAF7",
"] 	c #FAF9F6",
"^ 	c #F9F8F5",
"/ 	c #F2F0EB",
"( 	c #A6A199",
"_ 	c #E1E0DE",
": 	c #B8B2A9",
"< 	c #F4F3EF",
"[ 	c #EAE8E3",
"} 	c #EDEAE6",
"| 	c #EFEBE7",
"1 	c #F0EDE9",
"2 	c #F0EEEA",
"3 	c #EFECE8",
"4 	c #EEEAE6",
"5 	c #E9E6E1",
"6 	c #F5F3F0",
"7 	c #C0BBB3",
"8 	c #E5E3E1",
"9 	c #B4AEA5",
"0 	c #E9E6E0",
"a 	c #EBE8E3",
"b 	c #ECE9E4",
"c 	c #EDE9E5",
"d 	c #E8E4DF",
"e 	c #F1EEEA",
"f 	c #BBB6AE",
"g 	c #E5E3E0",
"h 	c #B4ADA5",
"i 	c #EDEAE5",
"j 	c #E6E3DD",
"k 	c #E7E4DF",
"l 	c #EAE6E2",
"m 	c #EBE7E2",
"n 	c #EBE7E3",
"o 	c #E9E5E1",
"p 	c #E9E6E2",
"q 	c #E4E1DB",
"r 	c #EEEBE6",
"s 	c #BBB5AD",
"t 	c #E5E4E1",
"u 	c #B3ADA4",
"v 	c #EAE7E2",
"w 	c #E3DFD9",
"x 	c #E5E1DB",
"y 	c #E7E3DF",
"z 	c #F0ECE7",
"A 	c #E5E1DC",
"B 	c #E2DDD8",
"C 	c #BAB4AC",
"D 	c #E6E4E1",
"E 	c #E0DCD6",
"F 	c #E2DED8",
"G 	c #E4E0DA",
"H 	c #EEEAE4",
"I 	c #D8D5D0",
"J 	c #ADAAA6",
"K 	c #E0DCD7",
"L 	c #DFDAD4",
"M 	c #B2ACA3",
"N 	c #E5E2DC",
"O 	c #DDD9D2",
"P 	c #DEDAD3",
"Q 	c #DFDBD5",
"R 	c #EAE6DF",
"S 	c #7E7C7A",
"T 	c #92908D",
"U 	c #E5E1DA",
"V 	c #E0DCD5",
"W 	c #DBD7D0",
"X 	c #B8B2AA",
"Y 	c #E6E4E2",
"Z 	c #B2ABA3",
"` 	c #E4DFD8",
" .	c #DBD6CE",
"..	c #DBD6CF",
"+.	c #DED9D1",
"@.	c #D3CFC7",
"#.	c #7E7C78",
"$.	c #8B8985",
"%.	c #E0DBD3",
"&.	c #E0DAD3",
"*.	c #DCD7CF",
"=.	c #D9D4CC",
"-.	c #B8B1A9",
";.	c #B2ABA2",
">.	c #E1DCD5",
",.	c #D9D4CB",
"'.	c #D7D2CA",
").	c #E1DBD3",
"!.	c #8D8A86",
"~.	c #4F4E4D",
"{.	c #E6E0D7",
"].	c #D8D3CB",
"^.	c #B7B0A7",
"/.	c #E6E5E2",
"(.	c #B1ABA1",
"_.	c #DEDAD2",
":.	c #D6D1C8",
"<.	c #D6D1C9",
"[.	c #BEBAB3",
"}.	c #6C6A67",
"|.	c #9D9994",
"1.	c #E0DBD2",
"2.	c #D8D3CA",
"3.	c #D5D0C7",
"4.	c #B6B0A6",
"5.	c #E7E5E3",
"6.	c #B0AAA1",
"7.	c #D4CEC5",
"8.	c #D4CEC6",
"9.	c #D5CFC6",
"0.	c #D5CFC7",
"a.	c #DFD9D1",
"b.	c #C4BFB9",
"c.	c #6F6D6B",
"d.	c #9C9894",
"e.	c #DBD5CC",
"f.	c #D2CCC4",
"g.	c #B5AEA5",
"h.	c #B0A99F",
"i.	c #D1CBC2",
"j.	c #D2CDC4",
"k.	c #D4CFC6",
"l.	c #D5D0C8",
"m.	c #E2DDD4",
"n.	c #BFBBB4",
"o.	c #93908C",
"p.	c #D2CDC6",
"q.	c #D0CAC1",
"r.	c #B4ADA3",
"s.	c #AFA89F",
"t.	c #D6D0C7",
"u.	c #D4CEC7",
"v.	c #D6D0C9",
"w.	c #D6D1CA",
"x.	c #D8D2CA",
"y.	c #DBD5CE",
"z.	c #D4CFC7",
"A.	c #D3CDC5",
"B.	c #CFC9C0",
"C.	c #B3ACA2",
"D.	c #E7E6E4",
"E.	c #AEA89E",
"F.	c #D0C9C1",
"G.	c #D5CEC7",
"H.	c #D7D2CB",
"I.	c #D8D2CB",
"J.	c #CFC8C0",
"K.	c #D4CDC5",
"L.	c #B1AAA0",
"M.	c #E8E6E4",
"N.	c #AEA79D",
"O.	c #D2CCC3",
"P.	c #CFC9C1",
"Q.	c #D9D3CC",
"R.	c #ADA69C",
"S.	c #D0CAC0",
"T.	c #CEC9C0",
"U.	c #D7D1C9",
"V.	c #DAD4CE",
"W.	c #DBD4CE",
"X.	c #D8D1CA",
"Y.	c #D5CFC8",
"Z.	c #CEC8BF",
"`.	c #D1CAC1",
" +	c #AFA89D",
".+	c #E8E7E4",
"++	c #AFA89E",
"@+	c #CFC8BF",
"#+	c #CEC7BE",
"$+	c #D1CBC3",
"%+	c #D5CEC6",
"&+	c #DDD7D1",
"*+	c #DDD8D1",
"=+	c #D6CEC7",
"-+	c #CDC7BE",
";+	c #B1A99F",
">+	c #E9E8E5",
",+	c #9A948B",
"'+	c #C9C2B8",
")+	c #D0C9C0",
"!+	c #DCD6CF",
"~+	c #DAD4CD",
"{+	c #CCC5BA",
"]+	c #9C958B",
"^+	c #E4E3E1",
"/+	c #514E4A",
"(+	c #9C958D",
"_+	c #ADA79D",
":+	c #AEA79E",
"<+	c #A39C93",
"[+	c #524E49",
"}+	c #D2D2D1",
". + @ # # $ $ $ $ $ $ # $ % & * = ",
"- ; > , ' ) ! ~ { ] ^ ' ' , / ( _ ",
": < [ ; } | 1 2 2 1 3 4 ; 5 6 7 8 ",
"9 1 0 a b c 4 | | 4 c b a d e f g ",
"h i j k 5 l m n m o l p d q r s t ",
"u v w x j y k y m z k j A B n C D ",
"u k E F w G q H I J K G F L d @ D ",
"M N O P Q E R Q S T U V P W N X Y ",
"Z `  . ...+.@.#.$.%.&.*. .=.` -.Y ",
";.>.,.=.'.).!.~.'.{.].=.=.'.>.^./.",
"(._.:.<.:.,.[.}.|.1.2.:.<.3._.4.5.",
"6...7.8.9.0.a.b.c.d.e.0.8.f...g.5.",
"h.2.i.j.k.l.<.m.n.o.p.3.j.q.2.r.5.",
"s.t.q.j.u.v.w.x.*.y.v.z.A.B.t.C.D.",
"E.A.F.f.G.v.H.I.I.I.<.0.A.J.K.L.M.",
"N.O.P.f.0.<.I.Q.Q.I.<.0.A.B.O.h.M.",
"R.S.T.f.0.U.Q.V.W.Q.X.Y.A.Z.`. +.+",
"++@+#+$+%+X.y.&+*+..I.=+f.-+@+;+>+",
",+'+)+$+7.U.Q.!+!+~+U.%+f.)+{+]+^+",
"/+(+s.R._+_+N.:+:+N.N._+_+N.<+[+}+"};
