/* XPM */
static char * start_xpm[] = {
"48 18 13 1",
" 	c None",
".	c #4D4D4D",
"+	c #343434",
"@	c #0D0D0D",
"#	c #C4C4C4",
"$	c #E8E8E8",
"%	c #818181",
"&	c #CCCCCC",
"*	c #B1B1B1",
"=	c #9E9E9E",
"-	c #E0E0E0",
";	c #626262",
">	c #C6C6C6",
"                                                ",
"                   ..+ @..+ @.. ...+ @...       ",
"                  +#$$@%$$&@*$$@$$$=@.$$$.      ",
"     ..           +=$$+&$$$+*$$@$$$$@=$$$.      ",
"    .--@          ++&$%$$$$%$$=@$$#$@#$$$.    @@",
"    .--@ @..+@+@@..@@=$$$*$$$$%@$$*$.$=$$;   @.$",
"    .--@@>---*@.----.+$$=;$$$$.@$$.++@@$$.   @$#",
"    .--@%-%@%;@>-;;->@$$%@$$$$@@$$@*=;+$$.  +*$*",
"    .--@=-. @@@--====+$$@@&$$*@@$@===%.@+@ @=$$#",
"    .--@;-=.>>@*-;.=%.$$@+%$$=+@@;&;==%.%.@@&&$$",
"    .--@@%-->;+@>--*@+.+@ +;.@@+;%*=%=%;;%.%#=&$",
"     @@  @@@@@ +@@@@        @@%&*;=%%*%%;.;#=*=$",
"                         @++;#$===%;=#%;;+==#**$",
"            .++@@@@@+@@++;;%*$#%=;%;#=%%;%&=%*&#",
"           @.;%%%%%%==%=%=&&#&%=*;;*%==;.$**;=$#",
"       @@+.;;%%%=%=**=%=*&$*$%%%%;=*%*%%%&%%.#&&",
"      @;;;;;;%%%%%=%%=&$&##&=%%;;*&%&*==&%;..&#*",
"                                                "};
