/* XPM */
static char * taskbuttonactive_xpm[] = {
"199 24 66 1",
" 	c None",
".	c #2D2B29",
"+	c #352D2A",
"@	c #382E2A",
"#	c #503F38",
"$	c #6C5247",
"%	c #6C5248",
"&	c #52403A",
"*	c #342D2A",
"=	c #654D44",
"-	c #705449",
";	c #70534A",
">	c #6A5047",
",	c #674F46",
"'	c #73564B",
")	c #73574B",
"!	c #6E5449",
"~	c #73564C",
"{	c #74574B",
"]	c #6F5349",
"^	c #674F45",
"/	c #72564A",
"(	c #6E5448",
"_	c #654E45",
":	c #705549",
"<	c #6B5248",
"[	c #6A5147",
"}	c #644E45",
"|	c #6D5349",
"1	c #6C5348",
"2	c #695147",
"3	c #644D45",
"4	c #6B5148",
"5	c #685047",
"6	c #634D44",
"7	c #685046",
"8	c #695047",
"9	c #664F47",
"0	c #664F46",
"a	c #624C44",
"b	c #654E46",
"c	c #614C43",
"d	c #644E44",
"e	c #614B43",
"f	c #604B43",
"g	c #664E45",
"h	c #5F4A42",
"i	c #664E44",
"j	c #5F4941",
"k	c #664F45",
"l	c #5E4A41",
"m	c #5D4940",
"n	c #5E4A42",
"o	c #684F45",
"p	c #675046",
"q	c #5D4941",
"r	c #5D4840",
"s	c #695046",
"t	c #684F46",
"u	c #694F46",
"v	c #5B473F",
"w	c #342D29",
"x	c #4C3C37",
"y	c #4A3C36",
"z	c #352E2A",
"A	c #2E2C29",
".+@@@@@@@@@@@@@@@@@@@@@@@@@@@@@@@@@@@@@@@@@@@@@@@@@@@@@@@@@@@@@@@@@@@@@@@@@@@@@@@@@@@@@@@@@@@@@@@@@@@@@@@@@@@@@@@@@@@@@@@@@@@@@@@@@@@@@@@@@@@@@@@@@@@@@@@@@@@@@@@@@@@@@@@@@@@@@@@@@@@@@@@@@@@@@@@@@@@+.",
"+#$$%%%$%%%%%%%%%%%%%%%$%%$%$$%$$%$%$$%$$%$$%$$%$$%$$%$%$$%$%$%$%$$%$$%$%$$%$$%$%$$%$$%$$%$$%$$%$$%$$%$$%$$%$%$$%$$$$$$$$$$$$$$$$$$%$$%$$%$$%$$$$%$$$%$$%$$%$$%$$%$$%$$%$$%$$%$$%$$%$$%$$%$$%$$$$$$$%&*",
"@=-;;;;;;;;;;;;;;;;;;;;;;;;;-;;-;;;;-;;-;;-;;-;;-;;-;;;;-;;;;;;;;-;;-;;;;-;;-;;;;-;;-;;-;;-;;-;;-;;-;;-;;-;;;;-;;;------;-;-;-;-;-;;-;;-;;-;;-;-;;;-;;-;;-;;-;;-;;-;;-;;-;;-;;-;;-;;-;;-;;-;;-;-;--;;>@",
"@,')))))))))))))))))))))))))'))'))))'))'))'))'))'))'))))'))))))))'))'))))'))'))))'))'))'))'))'))'))'))'))'))))')))'''''')')')')')'))'))'))'))')')))'))'))'))'))'))'))'))'))'))'))'))'))'))'))')')''))!@",
"@,~~{{{~{{{{{{{{{{{{{{{~{{~{~~{~~{~{~~{~~{~~{~~{~~{~~{~{~~{~{~{~{~~{~~{~{~~{~~{~{~~{~~{~~{~~{~~{~~{~~{~~{~~{~{~~{~~~~~~~~~~~~~~~~~~{~~{~~{~~{~~~~{~~~{~~{~~{~~{~~{~~{~~{~~{~~{~~{~~{~~{~~{~~{~~~~~~~{]@",
"@^///////////////////////////////////////////////////////////////////////////////////////////////////////////////////////////////////////////////////////////////////////////////////////////////////(@",
"@_:::::::::::::::::::::::::::::::::::::::::::::::::::::::::::::::::::::::::::::::::::::::::::::::::::::::::::::::::::::::::::::::::::::::::::::::::::::::::::::::::::::::::::::::::::::::::::::::::::<@",
"@_!!!!!!!!!!!!!!!!!!!!!!!!!!!!!!!!!!!!!!!!!!!!!!!!!!!!!!!!!!!!!!!!!!!!!!!!!!!!!!!!!!!!!!!!!!!!!!!!!!!!!!!!!!!!!!!!!!!!!!!!!!!!!!!!!!!!!!!!!!!!!!!!!!!!!!!!!!!!!!!!!!!!!!!!!!!!!!!!!!!!!!!!!!!!!!!!!!![@",
"@}|1111111111111111111111111|11|1111|11|11|11|11|11|1111|11111111|11|1111|11|1111|11|11|11|11|11|11|11|11|1111|111||||||1|1|1|1|1|11|11|11|11|1|111|11|11|11|11|11|11|11|11|11|11|11|11|11|11|1|1||112@",
"@34444444444444444444444444444444444444444444444444444444444444444444444444444444444444444444444444444444444444444444444444444444444444444444444444444444444444444444444444444444444444444444444444445@",
"@6788888888888888888888888887887888878878878878878878888788888888788788887887888878878878878878878878878878888788877777787878787878878878878878788878878878878878878878878878878878878878878878787788,@",
"@69999999999999999999999999999999999999999999999999999999999999999999999999999999999999999999999999999999999999999999999999999999999999999999999999999999999999999999999999999999999999999999999999990@",
"@abbbbbbbbbbbbbbbbbbbbbbbbbbbbbbbbbbbbbbbbbbbbbbbbbbbbbbbbbbbbbbbbbbbbbbbbbbbbbbbbbbbbbbbbbbbbbbbbbbbbbbbbbbbbbbbbbbbbbbbbbbbbbbbbbbbbbbbbbbbbbbbbbbbbbbbbbbbbbbbbbbbbbbbbbbbbbbbbbbbbbbbbbbbbbbbbbbb_@",
"@cd_________________________d__d____d__d__d__d__d__d____d________d__d____d__d____d__d__d__d__d__d__d__d__d____d___dddddd_d_d_d_d_d__d__d__d__d_d___d__d__d__d__d__d__d__d__d__d__d__d__d__d__d_d_dd__6@",
"@ebbbbbbbbbbbbbbbbbbbbbbbbbbbbbbbbbbbbbbbbbbbbbbbbbbbbbbbbbbbbbbbbbbbbbbbbbbbbbbbbbbbbbbbbbbbbbbbbbbbbbbbbbbbbbbbbbbbbbbbbbbbbbbbbbbbbbbbbbbbbbbbbbbbbbbbbbbbbbbbbbbbbbbbbbbbbbbbbbbbbbbbbbbbbbbbbbbba@",
"@fg_________________________g__g____g__g__g__g__g__g____g________g__g____g__g____g__g__g__g__g__g__g__g__g____g___gggggg_g_g_g_g_g__g__g__g__g_g___g__g__g__g__g__g__g__g__g__g__g__g__g__g__g_g_gg__e@",
"@h___________________________________________________________________________________________________________________________________________________________________________________________________h@",
"@hiiiiiiiiiiiiiiiiiiiiiiiiiiiiiiiiiiiiiiiiiiiiiiiiiiiiiiiiiiiiiiiiiiiiiiiiiiiiiiiiiiiiiiiiiiiiiiiiiiiiiiiiiiiiiiiiiiiiiiiiiiiiiiiiiiiiiiiiiiiiiiiiiiiiiiiiiiiiiiiiiiiiiiiiiiiiiiiiiiiiiiiiiiiiiiiiiiij@",
"@h^kkkkkkkkkkkkkkkkkkkkkkkkk^kk^kkkk^kk^kk^kk^kk^kk^kkkk^kkkkkkkk^kk^kkkk^kk^kkkk^kk^kk^kk^kk^kk^kk^kk^kk^kkkk^kkk^^^^^^k^k^k^k^k^kk^kk^kk^kk^k^kkk^kk^kk^kk^kk^kk^kk^kk^kk^kk^kk^kk^kk^kk^kk^k^k^^kkl@",
"@l,,^^^,^^^^^^^^^^^^^^^,^^,^,,^,,^,^,,^,,^,,^,,^,,^,,^,^,,^,^,^,^,,^,,^,^,,^,,^,^,,^,,^,,^,,^,,^,,^,,^,,^,,^,^,,^,,,,,,,,,,,,,,,,,,^,,^,,^,,^,,,,^,,,^,,^,,^,,^,,^,,^,,^,,^,,^,,^,,^,,^,,^,,^,,,,,,,^m@",
"@nopppppppppppppppppppppppppoppoppppoppoppoppoppoppoppppoppppppppoppoppppoppoppppoppoppoppoppoppoppoppoppoppppopppoooooopopopopopoppoppoppoppopopppoppoppoppoppoppoppoppoppoppoppoppoppoppoppopopooppq@",
"@rstuuutuuuuuuuuuuuuuuutuutustustutustustustustustustutustutututustustutustustutustustustustustustustustustutustutsssssststststststustustustuststutstustustustustustustustustustustustustustuststsstuv@",
"wxtstttstttttttttttttttsttsttsttststtsttsttsttsttsttststtststststtsttststtsttststtsttsttsttsttsttsttsttsttststtststtttttststststststtsttsttsttststststtsttsttsttsttsttsttsttsttsttsttsttsttsttststtsty+",
".+@@@@@@@@@@@@@@@@@@@@@@@@@@@@@@@@@@@@@@@@@@@@@@@@@@@@@@@@@@@@@@@@@@@@@@@@@@@@@@@@@@@@@@@@@@@@@@@@@@@@@@@@@@@@@@@@@@@@@@@@@@@@@@@@@@@@@@@@@@@@@@@@@@@@@@@@@@@@@@@@@@@@@@@@@@@@@@@@@@@@@@@@@@@@@@@@@@@zA"};
