/* XPM */
static char *application_x_java[] = {
/* columns rows colors chars-per-pixel */
"32 32 85 1",
"  c #1B1815",
". c #211D1B",
"X c #27231E",
"o c #2D2721",
"O c #2C2825",
"+ c #322C25",
"@ c #39322B",
"# c #443C35",
"$ c #423D38",
"% c #464039",
"& c #534639",
"* c #514A44",
"= c #575049",
"- c #59514A",
"; c #5A5550",
": c #625643",
"> c #685F54",
", c #6B6051",
"< c #69635C",
"1 c #6F685F",
"2 c #6F6B67",
"3 c #6C6C6C",
"4 c #726A61",
"5 c #7D7167",
"6 c #7C756C",
"7 c #727272",
"8 c #7F7F7F",
"9 c #95846B",
"0 c #878078",
"q c #8D857B",
"w c #AD9A7C",
"e c #838383",
"r c #8F8984",
"t c #9A8C80",
"y c #909090",
"u c #9D9D9D",
"i c #A0968F",
"p c #A39F9B",
"a c #B4A58E",
"s c #A8A39C",
"d c #B0A397",
"f c #B8AB94",
"g c #B1A79C",
"h c #A4A3A3",
"j c #A9A6A2",
"k c #A7A8A5",
"l c #ABA9A7",
"z c #ADADAC",
"x c #B4ABA1",
"c c #B3B3B3",
"v c #BBB6B2",
"b c #B7B8B4",
"n c #BFBBB4",
"m c #BABABA",
"M c #C4BDB6",
"N c #C8C1B0",
"B c #CBC5BF",
"V c #C2C2C2",
"C c #C6C8C5",
"Z c #CACBC5",
"A c #CBCCCA",
"S c #D3CCC3",
"D c #CED0C9",
"F c #D1D3CD",
"G c #DBD3C8",
"H c #CFD0D0",
"J c #D3D3D2",
"K c #D6D8D2",
"L c #D9DAD5",
"P c #D7D8D8",
"I c #DBDCDA",
"U c #E4DED4",
"Y c #DFE0DC",
"T c #E0E1DE",
"R c #E3E3E3",
"E c #E8E9E6",
"W c #E6E7E8",
"Q c #E7E8E8",
"! c #EBECEC",
"~ c #EFF0EE",
"^ c #EFF0F0",
"/ c #F3F3F3",
"( c #F7F8F8",
") c #FAFAFA",
"_ c None",
/* pixels */
"________________________________",
"________________________________",
"____^!!!^^^^/^^////////////(____",
"____!WWQQQQ!!^^!!!^^^/^^^///____",
"____!QQ!!!!!!!!!^^^//^//////____",
"____!QQ!!!^!^^/////((//////(____",
"____!Q!!^!!!!!EEW!^((////(/(____",
"____^!!!QTPHAVmccmR^^IQ/(/((____",
"____^!!WAchlvBGGU!/ITlmL!(((____",
"____/!!Hpgpxiq616jDMSafsI/()____",
"____/!Qmq5#.X+@%*-r10,9wzP!)____",
"____^^!VMO .XX+@#-<2,&:NAQ^)____",
"____/^!CGKs2-*#@#=<4qxKDmJW)____",
"____/^^HFAZDFFLYUIKIR/LFVUQ)____",
"____//!JZZZFFFKLLTWE!EFAHTQ)____",
"____(^!CbZZAFFKKIYLILJJhcJR)____",
"____^WHmcFZFKLKLLKKKPKLPCHR)____",
"____/RJmcHJFKLLILLLLPPJmU!W)____",
"____^WAmmmIKLIIIYTYLITY!/(()____",
"____/RHVCAKTTITTTTTTRIPHJ(/)____",
"____/!HVVIWJTQR!TTTIAHJR(/^/____",
"____/!WVCJTRCAIUTFAW!^/)^II^____",
"____/WPWIUW!WACVZI^!^^WYmmRc____",
"____(/IcHQ^/(!W!~!UTIAuyVPc_____",
"____)(/RA8uHIRRRPVczu3)/Pc______",
"____(((((!Ize733377euc(Im_______",
"____((()))()(/!QRRRRPAIm________",
"____((())))))))))/^!IJc_________",
"____(/)))))))))))(^!Ic__________",
"____))))))))))))))/^c___________",
"________________________________",
"________________________________"
};
