/* XPM */
static char * folder_32x32_xpm[] = {
"32 32 95 2",
"  	c None",
". 	c #6096E3",
"+ 	c #5E95E3",
"@ 	c #6298E3",
"# 	c #A8C8EC",
"$ 	c #96BCE9",
"% 	c #A1C3EB",
"& 	c #93B9E9",
"* 	c #6298E4",
"= 	c #699DE5",
"- 	c #9ABEE9",
"; 	c #79A9E0",
"> 	c #3578CC",
", 	c #2E73C8",
"' 	c #3377CC",
") 	c #ADCAF0",
"! 	c #AFCCF1",
"~ 	c #AECBF0",
"{ 	c #397BCF",
"] 	c #5B96E3",
"^ 	c #619AE6",
"/ 	c #639CE6",
"( 	c #629BE6",
"_ 	c #3F81D3",
": 	c #5E99E7",
"< 	c #669FEC",
"[ 	c #68A0EB",
"} 	c #67A0EB",
"| 	c #4585D7",
"1 	c #629CEA",
"2 	c #6DA4F1",
"3 	c #6DA4EF",
"4 	c #6DA4F0",
"5 	c #4B8ADB",
"6 	c #659EEC",
"7 	c #73A9F4",
"8 	c #72A8F3",
"9 	c #518EDE",
"0 	c #68A1EC",
"a 	c #78ADF5",
"b 	c #77ACF3",
"c 	c #77ADF4",
"d 	c #5793E2",
"e 	c #6AA2EC",
"f 	c #7EB1F6",
"g 	c #7CAFF4",
"h 	c #7DB0F5",
"i 	c #5D97E4",
"j 	c #6DA4EC",
"k 	c #84B6F7",
"l 	c #81B3F5",
"m 	c #82B4F5",
"n 	c #629DE8",
"o 	c #6FA6ED",
"p 	c #89BAF8",
"q 	c #86B7F6",
"r 	c #87B8F6",
"s 	c #69A1EB",
"t 	c #71A7ED",
"u 	c #90BEF9",
"v 	c #8BBBF6",
"w 	c #8CBCF7",
"x 	c #6EA5EC",
"y 	c #73A9ED",
"z 	c #95C3F9",
"A 	c #90BFF6",
"B 	c #91C0F7",
"C 	c #75AAEE",
"D 	c #75AAEF",
"E 	c #9BC6F9",
"F 	c #95C2F7",
"G 	c #96C3F7",
"H 	c #7AAEF1",
"I 	c #76ABF0",
"J 	c #A0CBFA",
"K 	c #9AC6F7",
"L 	c #9BC7F8",
"M 	c #77ACF2",
"N 	c #A5CEFB",
"O 	c #9FCAF8",
"P 	c #A0CAF8",
"Q 	c #78ADF3",
"R 	c #AAD2FB",
"S 	c #A4CEF9",
"T 	c #77ADF5",
"U 	c #A0CDFC",
"V 	c #9BCAFA",
"W 	c #87B7F8",
"X 	c #8CC3FA",
"Y 	c #8AC1F9",
"Z 	c #86B7F8",
"` 	c #AACDF6",
" .	c #B7D6FC",
"..	c #A8CBF5",
"+.	c #000000",
"                                                                ",
"                                                                ",
"                                                                ",
"                                                                ",
"    . + + + + + @                                               ",
"    + # # # # # $ @                                             ",
"    + % % % % % % & * + + + + + + + + + + + + + + + + + + =     ",
"    + - - - - - - - - - - - - - - - - - - - - - - - - - - +     ",
"    + ; ; ; ; ; ; ; ; ; ; ; ; ; ; ; ; ; ; ; ; ; ; ; ; ; ; +     ",
"> , , , , , , , , , , , , , , , , , , , , , , , , , , , , , , > ",
"' ) ! ~ ~ ~ ~ ~ ~ ~ ~ ~ ~ ~ ~ ~ ~ ~ ~ ~ ~ ~ ~ ~ ~ ~ ~ ~ ~ ~ ) ' ",
"{ ] ^ / / / / / / / / / / / / / / / / / / / / / / / / / / ( ] { ",
"_ : < [ [ [ [ [ [ [ [ [ [ [ [ [ [ [ [ [ [ [ [ [ [ [ [ [ [ } : _ ",
"| 1 2 3 3 3 3 3 3 3 3 3 3 3 3 3 3 3 3 3 3 3 3 3 3 3 3 3 3 4 1 | ",
"5 6 7 8 8 8 8 8 8 8 8 8 8 8 8 8 8 8 8 8 8 8 8 8 8 8 8 8 8 8 6 5 ",
"9 0 a b b b b b b b b b b b b b b b b b b b b b b b b b b c 0 9 ",
"d e f g g g g g g g g g g g g g g g g g g g g g g g g g g h e d ",
"i j k l l l l l l l l l l l l l l l l l l l l l l l l l l m j i ",
"n o p q q q q q q q q q q q q q q q q q q q q q q q q q q r o n ",
"s t u v v v v v v v v v v v v v v v v v v v v v v v v v v w t s ",
"x y z A A A A A A A A A A A A A A A A A A A A A A A A A A B y x ",
"C D E F F F F F F F F F F F F F F F F F F F F F F F F F F G D C ",
"H I J K K K K K K K K K K K K K K K K K K K K K K K K K K L I H ",
"  M N O O O O O O O O O O O O O O O O O O O O O O O O O O P M   ",
"  Q R S S S S S S S S S S S S S S S S S S S S S S S S S S S Q   ",
"  T U V V V V V V V V V V V V V V V V V V V V V V V V V V V T   ",
"  W X Y Y Y Y Y Y Y Y Y Y Y Y Y Y Y Y Y Y Y Y Y Y Y Y Y Y Y Z   ",
"  `  . . . . . . . . . . . . . . . . . . . . . . . . . . . ...  ",
"    +.+.+.+.+.+.+.+.+.+.+.+.+.+.+.+.+.+.+.+.+.+.+.+.+.+.+.+.    ",
"                                                                ",
"                                                                ",
"                                                                "};
