/* XPM */
static char * folder_16x16_xpm[] = {
"16 16 40 1",
" 	c None",
".	c #000000",
"+	c #669DEE",
"@	c #000000",
"#	c #000000",
"$	c #A4D0FE",
"%	c #9DCAFA",
"&	c #79B0F7",
"*	c #7BAFF3",
"=	c #6FA6ED",
"-	c #629CE7",
";	c #94BBEC",
">	c #5693E1",
",	c #4989DA",
"'	c #679FED",
")	c #377ACD",
"!	c #3E80D2",
"~	c #68A0ED",
"{	c #3277CA",
"]	c #3377CB",
"^	c #669FED",
"/	c #70A7F1",
"(	c #75AAF3",
"_	c #7AAEF4",
":	c #80B3F5",
"<	c #81BAFA",
"[	c #84B6F5",
"}	c #85B6F5",
"|	c #85BFFA",
"1	c #8DBCF6",
"2	c #8DBDF7",
"3	c #95BBE8",
"4	c #96C4F8",
"5	c #99C5F8",
"6	c #A4C5EB",
"7	c #A5CEF9",
"8	c #AFD3FC",
"9	c #AFD4FC",
"0	c #B2CEF5",
"a	c #B4D0F5",
"                ",
" ^^^^'          ",
" ^666;~^^^^^^^^ ",
" ^333333333333^ ",
")]{{{{{{{{{{{{])",
"!0aaaaaaaaaaaa0!",
",/((((((((((((/,",
">_::::::::::::_>",
"-[111111111111}-",
"=25555555555552=",
"*47777777777774*",
"&<||||||||||||<&",
"$98888888888889%",
"  ############  ",
"                ",
"                "};
