/* XPM */
static char *opera[] = {
/* columns rows colors chars-per-pixel */
"32 32 87 1",
"  c #131313",
". c #1D1111",
"X c #3F0A0C",
"o c #420808",
"O c #5A0D0F",
"+ c #620808",
"@ c #7E0000",
"# c #7B060E",
"$ c #7B0712",
"% c #830101",
"& c #8B0101",
"* c #890208",
"= c #930001",
"- c #9B0000",
"; c #920208",
": c #9B040E",
"> c #960809",
", c #9A080B",
"< c #9A0613",
"1 c #A40000",
"2 c #AB0000",
"3 c #A4030B",
"4 c #AC030B",
"5 c #A3080F",
"6 c #B30000",
"7 c #BB0001",
"8 c #B3030A",
"9 c #BD030B",
"0 c #BC0C0C",
"q c #A20513",
"w c #AA0512",
"e c #A90813",
"r c #B40410",
"t c #BA0412",
"y c #B20816",
"u c #B30618",
"i c #BA0619",
"p c #BE081A",
"a c #C30202",
"s c #CB0202",
"d c #C4050C",
"f c #CA070F",
"g c #C70C0C",
"h c #CE0808",
"j c #D30101",
"k c #DB0101",
"l c #D30909",
"z c #DB0D0D",
"x c #C0081A",
"c c #D10A13",
"v c #DA0D13",
"b c #CE1818",
"n c #E10F0F",
"m c #E00F17",
"M c #E51010",
"N c #EB1313",
"B c #F31616",
"V c #F11F1F",
"C c #FC1B1B",
"Z c #ED2424",
"A c #E62D2D",
"S c #FF2424",
"D c #FE2B2B",
"F c #E83535",
"G c #FE3232",
"H c #FF3B3B",
"J c #E64A4A",
"K c #F14646",
"L c #FF4444",
"P c #F14E4E",
"I c #FE4C4C",
"U c #F25555",
"Y c #FF5353",
"T c #F45D5D",
"R c #FF5A5A",
"E c #FF6363",
"W c #FF6B6B",
"Q c #FF7272",
"! c #FF7B7B",
"~ c #FF8282",
"^ c #FF8B8B",
"/ c #FF9292",
"( c #FF9B9B",
") c #FFA2A2",
"_ c #FFAAAA",
"` c #FFB2B2",
"' c None",
/* pixels */
"''''''''''''''''''''''''''''''''",
"'''''''''''``__))___''''''''''''",
"'''''''''_)/~~~!~!!~^(('''''''''",
"'''''''((~!!!!TJJTQQWQ!^''''''''",
"''''''/^QQQWU011110PWEEE!!''''''",
"'''''~!WWWWU62''''22KRRRYEW'''''",
"''''QQEEEEE0''''''''0IIYIIRY''''",
"''''WRRYYYF2''''''''2ALLLLLY''''",
"'''RRYIYIIb''''''''''gHHHHGHL'''",
"'''YLILLLL7''''''''''6DGGDGGG'''",
"''LLHHHHHD6''''''''''6VDDSSSSS''",
"''HHHGGGGZ6''''''''''6MCCCCCCC''",
"''GDDDDSSM7''''''''''7zCCCBBCB''",
"''SSSSCCCM7''''''''''7lBNNNNMMM'",
"'CCCCBCBCz7''''''''''alMnnnvzzz'",
"'BBBBBBBNla''''''''''7hzlzzllll'",
"'NmNMMMMnla''''''''''aslhhhhada'",
"'nvzzzzzlha''''''''''aaaa77a7d7'",
"''cllllhhjs''''''''''aa76666696'",
"''dhgaaaass''''''''''sa6666228''",
"''d7777767s''''''''''s61221114''",
"''7t666667s''''''''''j61111-81''",
"'''9222121j''''''''''j------4'''",
"'''4911111a'''''''''j7-====3-'''",
"''''r1-1--6j''''''''j1=&=&=3''''",
"''''-i-====s''''''''s&&&&&w&''''",
"'''''-i=&&&-k''''''j-&%%%w&'''''",
"'''''';i&&&&=kkkkkk-@@@%w:''''''",
"''''''';ie**%>6974&**#,i*'''''''",
"''''''''+,py5>>>>>>,ep<O''''''''",
"'''''''' .o$5yppxpyq$o  ''''''''",
"''''''''''''''''''''''''''''''''"
};
