/* XPM */
static char *utilities_terminal[] = {
/* columns rows colors chars-per-pixel */
"16 16 113 2",
"   c #000000",
".  c #262626",
"X  c #272727",
"o  c #282828",
"O  c #292929",
"+  c #2E2E2E",
"@  c #2F2F2F",
"#  c #30302F",
"$  c #303030",
"%  c #313130",
"&  c #313131",
"*  c #323231",
"=  c #323232",
"-  c #333332",
";  c #333433",
":  c #343434",
">  c #353535",
",  c #353635",
"<  c #363636",
"1  c #373736",
"2  c #373837",
"3  c #383938",
"4  c #393938",
"5  c #3A3B39",
"6  c #3A3B3A",
"7  c #3B3D3B",
"8  c #3C3C3B",
"9  c #3C3D3B",
"0  c #3C3C3C",
"q  c #3C3D3C",
"w  c #3D3E3C",
"e  c #3E3E3D",
"r  c #3F403E",
"t  c #40413F",
"y  c #414140",
"u  c #414240",
"i  c #424341",
"p  c #424442",
"a  c #444443",
"s  c #444543",
"d  c #454644",
"f  c #454645",
"g  c #464744",
"h  c #464745",
"j  c #464845",
"k  c #474845",
"l  c #474846",
"z  c #494A47",
"x  c #484948",
"c  c #4A4B48",
"v  c #4A4B49",
"b  c #4B4B49",
"n  c #4B4D4A",
"m  c #4C4E4B",
"M  c #4D4E4C",
"N  c #525351",
"B  c #5A5C59",
"V  c #626362",
"C  c #7B7B7B",
"Z  c #7D7D7D",
"A  c #818181",
"S  c #838383",
"D  c #848484",
"F  c #858585",
"G  c #878787",
"H  c #8A8A8A",
"J  c #8B8B8A",
"K  c #8E8E8E",
"L  c #999998",
"P  c #B2B2B2",
"I  c #B4B4B4",
"U  c #B5B5B5",
"Y  c #B7B7B7",
"T  c #B8B8B8",
"R  c #BABAB9",
"E  c #BABABA",
"W  c #BDBDBD",
"Q  c #BEBEBE",
"!  c #BFBFBF",
"~  c #C0C0C0",
"^  c #C1C1C1",
"/  c #C2C3C2",
"(  c #C3C3C2",
")  c #C3C3C3",
"_  c #C5C5C4",
"`  c #C5C5C5",
"'  c #C6C6C6",
"]  c #C7C7C7",
"[  c #C8C8C8",
"{  c #CACACA",
"}  c #CBCBCB",
"|  c #CCCCCC",
" . c #CDCDCD",
".. c #CECECE",
"X. c #CFCFCF",
"o. c #D1D1D1",
"O. c #D2D2D2",
"+. c #D4D4D4",
"@. c #D6D6D6",
"#. c #D7D7D7",
"$. c #D9D9D9",
"%. c #DBDBDB",
"&. c #DCDCDC",
"*. c #DFDFDF",
"=. c #E1E1E1",
"-. c #E4E4E4",
";. c #E5E5E5",
":. c #E7E7E7",
">. c #E8E8E8",
",. c #E9E9E9",
"<. c #EDEDED",
"1. c #EFEFEF",
"2. c None",
/* pixels */
"2.2.2.2.2.2.2.2.2.2.2.2.2.2.2.2.",
"2.{ o.@.%.*.-.>.1.1.>.-.*.&.o.2.",
"2.{ a h p r q 4 1 1 @ @ @ = o.2.",
"2.{ n R J N c h q q : : = O o.2.",
"2.| n B ) %.z t 4 # + + @ X | 2.",
"2.{ c _ L M V ) U @ + + @ X | 2.",
"2.{ l m l p w 3 = $ + + @ o { 2.",
"2.| i c a t w 1 = @ @ @ @ o { 2.",
"2. .r c h r 4 : $ @ + + + X _ 2.",
"2.| y h i q 4 1 @ @ @ @ + X _ 2.",
"2.| 7 h i 7 2 = @ @ + @ @ X [ 2.",
"2.o.R U R W ! ) W R U U P I _ 2.",
"2._ D D D J K K J D D S Z C W 2.",
"2.W o.%.*.=.:.-.*.$.@.| [ ) U 2.",
"2.                            2.",
"2.2.2.2.2.2.2.2.2.2.2.2.2.2.2.2."
};
