/* XPM */
static char *utilities_terminal___x__[] = {
/* columns rows colors chars-per-pixel */
"32 32 246 2",
"   c #0A0A0A",
".  c #111110",
"X  c #111111",
"o  c #191919",
"O  c #222222",
"+  c #232323",
"@  c #242424",
"#  c #252525",
"$  c #262626",
"%  c #282828",
"&  c #292A29",
"*  c #2A2A2A",
"=  c #2B2B2B",
"-  c #2B2C2B",
";  c #2C2C2C",
":  c #2C2D2C",
">  c #2E2E2E",
",  c #2F2F2E",
"<  c #2F2F2F",
"1  c #30302F",
"2  c #30312F",
"3  c #303030",
"4  c #303130",
"5  c #313130",
"6  c #313131",
"7  c #313231",
"8  c #323231",
"9  c #323232",
"0  c #323332",
"q  c #333332",
"w  c #333333",
"e  c #333432",
"r  c #333433",
"t  c #343433",
"y  c #343434",
"u  c #343534",
"i  c #353534",
"p  c #353535",
"a  c #353635",
"s  c #363635",
"d  c #363735",
"f  c #363636",
"g  c #363736",
"h  c #373736",
"j  c #373837",
"k  c #383837",
"l  c #383937",
"z  c #383838",
"x  c #383938",
"c  c #393938",
"v  c #393939",
"b  c #393A38",
"n  c #393B38",
"m  c #393A39",
"M  c #3A3B38",
"N  c #3A3A39",
"B  c #3A3B39",
"V  c #3B3B39",
"C  c #3A3B3A",
"Z  c #3B3B3A",
"A  c #3B3B3B",
"S  c #3B3C3A",
"D  c #3B3D3A",
"F  c #3B3C3B",
"G  c #3C3C3B",
"H  c #3C3D3B",
"J  c #3C3E3B",
"K  c #3C3D3C",
"L  c #3D3D3C",
"P  c #3D3D3D",
"I  c #3C3E3C",
"U  c #3D3E3C",
"Y  c #3D3E3D",
"T  c #3E3F3C",
"R  c #3E3F3D",
"E  c #3F3F3D",
"W  c #3E3F3E",
"Q  c #3F3F3F",
"!  c #3F403E",
"~  c #3F403F",
"^  c #40413F",
"/  c #404140",
"(  c #414140",
")  c #414240",
"_  c #414340",
"`  c #414241",
"'  c #424340",
"]  c #424241",
"[  c #424341",
"{  c #424342",
"}  c #434441",
"|  c #434442",
" . c #434542",
".. c #434443",
"X. c #444542",
"o. c #444443",
"O. c #444543",
"+. c #444643",
"@. c #454643",
"#. c #444544",
"$. c #454644",
"%. c #454744",
"&. c #454645",
"*. c #464744",
"=. c #464745",
"-. c #474746",
";. c #464845",
":. c #474845",
">. c #474945",
",. c #474846",
"<. c #474946",
"1. c #474847",
"2. c #484946",
"3. c #484947",
"4. c #484A47",
"5. c #494A47",
"6. c #494A48",
"7. c #494B48",
"8. c #4A4B48",
"9. c #4A4B49",
"0. c #4B4B4A",
"q. c #4A4C49",
"w. c #4B4C49",
"e. c #4B4C4A",
"r. c #4B4D4A",
"t. c #4C4D4A",
"y. c #4C4D4B",
"u. c #4C4E4B",
"i. c #4D4E4B",
"p. c #4D4E4C",
"a. c #4D4F4C",
"s. c #4E4F4C",
"d. c #4E4F4D",
"f. c #4E504C",
"g. c #4F504D",
"h. c #4F504E",
"j. c #4F514E",
"k. c #50514F",
"l. c #51524F",
"z. c #515350",
"x. c #525350",
"c. c #525351",
"v. c #535351",
"b. c #535452",
"n. c #535553",
"m. c #545653",
"M. c #555653",
"N. c #555654",
"B. c #555754",
"V. c #565754",
"C. c #565855",
"Z. c #575855",
"A. c #575956",
"S. c #585956",
"D. c #585A56",
"F. c #585A57",
"G. c #595A57",
"H. c #595B57",
"J. c #5A5B58",
"K. c #5A5C58",
"L. c #5A5C59",
"P. c #5B5C59",
"I. c #5B5D59",
"U. c #5C5E5A",
"Y. c #797A77",
"T. c #7F807E",
"R. c #81827F",
"E. c #818380",
"W. c #949694",
"Q. c #969794",
"!. c #9A9A9A",
"~. c #A2A2A2",
"^. c #A8A8A8",
"/. c #ABABAB",
"(. c #ADADAD",
"). c #AEAEAE",
"_. c #B0B0B0",
"`. c #B1B1B1",
"'. c #B2B2B2",
"]. c #B3B3B3",
"[. c #B5B5B5",
"{. c #B6B6B6",
"}. c #B7B7B7",
"|. c #B8B8B8",
" X c #B9B9B9",
".X c #BABABA",
"XX c #BBBBBB",
"oX c #BCBCBC",
"OX c #BDBDBD",
"+X c #BEBEBE",
"@X c #BFBFBF",
"#X c #C0C0C0",
"$X c #C1C1C1",
"%X c #C2C2C2",
"&X c #C3C3C3",
"*X c #C4C4C4",
"=X c #C5C5C5",
"-X c #C6C6C6",
";X c #C7C7C7",
":X c #C8C8C8",
">X c #C9C9C9",
",X c #CACACA",
"<X c #CBCBCB",
"1X c #CECECB",
"2X c #CCCCCC",
"3X c #CDCDCD",
"4X c #CECECD",
"5X c #CECECE",
"6X c #CFCFCF",
"7X c #D0D0D0",
"8X c #D1D1D1",
"9X c #D3D3D3",
"0X c #D4D4D4",
"qX c #D5D5D5",
"wX c #D6D6D6",
"eX c #D7D7D6",
"rX c #D7D7D7",
"tX c #D8D8D7",
"yX c #D8D8D8",
"uX c #D9D9D9",
"iX c #DADADA",
"pX c #DBDBDB",
"aX c #DCDCDC",
"sX c #DDDDDD",
"dX c #DEDEDE",
"fX c #DFDFDF",
"gX c #DFE0DF",
"hX c #E0E0E0",
"jX c #E1E1E1",
"kX c #E2E2E2",
"lX c #E3E3E3",
"zX c #E4E4E4",
"xX c #E5E5E5",
"cX c #E6E6E6",
"vX c #E7E7E7",
"bX c #E9E9E9",
"nX c #EAEAEA",
"mX c #EBEBEB",
"MX c #ECECEC",
"NX c #EDEDED",
"BX c #EEEEEE",
"VX c #EFEFEF",
"CX c #F1F1F1",
"ZX c #F2F2F2",
"AX c #F4F4F4",
"SX c None",
/* pixels */
"SXSXSXSXSXSXSXSXSXSXSXSXSXSXSXSXSXSXSXSXSXSXSXSXSXSXSXSXSXSXSXSX",
"SXSXSXSXSXSXSXSXSXSXSXSXSXSXSXSXSXSXSXSXSXSXSXSXSXSXSXSXSXSXSXSX",
"SXSX2X8X8XrXrXuXuXdXfXjXlXxXvXMXVXVXVXVXMXbXvXlXlXfXsXsXuX2XSXSX",
"SXSX8X|.|.|.@X@X%X%X-X-X:X<X2X2X7X8X0X8X7X<X<X;X;X-X%X#X%XrXSXSX",
"SXSX-Xo :.@. .[ ~ T T J N N f p 9 9 6 6 > > > * * > * * X :XSXSX",
"SXSX&X:.U.J.A.V.v.v.k.p.u.7.&.&.[ [ Q P A f v f f N f N * :XSXSX",
"SXSX%X:.I.H.A.M.v.v.k.p.7.7.&.&.[ Q Q T A f f p p 9 9 > # -XSXSX",
"SXSX%X:.I.A.A.M.v.k.k.y.7.3.&.#.[ T A f 9 6 > > > > > > + -XSXSX",
"SXSX&X:.H.H.M.n.v.v.p.u.7.1.#.T J f e 9 > > > > > > > > + -XSXSX",
"SXSX%X:.H.1XR.v.l.g.y.:.[ Q L N f f 9 9 > > > > > > > > + &XSXSX",
"SXSX%X%.H.Q.gX2XY.7.&.[ T T J k f i 9 > > > > > > > > > + -XSXSX",
"SXSX%X .H.A.I.rXAX&. ./ T T N N f i 9 6 > > > > > > > > + %XSXSX",
"SXSX%X .V.W.zXrXT.@.[ ( T L N k i e 9 > > > > > > > > > + @XSXSX",
"SXSX%XT g.rXE.7.&.&.y.7.&.&.H f i e 2 > > > > > > > > > + %XSXSX",
"SXSX%XJ g.u.5.:.:.u.VXVXVXVX[ f e 9 9 > > > > > > > > > + %XSXSX",
"SXSX%XJ u.u.5.:.&.@.7.7.&.&.N f e 9 > > > > > > > > > > + @XSXSX",
"SXSX%XJ u.u.:.:. .[ ~ T J N j y y 9 > > > > > > > > > > + @XSXSX",
"SXSX*XJ u.u.:.:.@.[ ~ J N N f f 9 4 > > > > > > > > > > + #XSXSX",
"SXSX-XN u.:.:.&. .^ ~ P N v f e 9 9 > > > > > > > > > > + @XSXSX",
"SXSX-Xk u.5.:. .[ ^ T J N j f e 2 > > > > > > > > > > > + %XSXSX",
"SXSX-XN u.:.&.@.[ ~ T N k j i e 4 > > > > > > > > > > > + %XSXSX",
"SXSX:XN 7.5.&. .[ T T N j f i 9 6 > > > > > > > > > > > + %XSXSX",
"SXSX2Xj 5.:. . .~ P T N j f e 9 > > > > > > > > > > > > + -XSXSX",
"SXSX2X. i f e 9 2 : > > * * # # + + + + + + + + + + + +   -XSXSX",
"SXSX8XdXgXjXlXxXxXnXnXVXVXVXZXVXVXnXnXxXxXjXjXdXuXuXrX8XrX:XSXSX",
"SXSX8X2X|.oX@X@X%X-X-X:X:X2X2X:X:X-X%X%X@X@X|.{.{.].].(.@X-XSXSX",
"SXSX8X2X{.|. X|.@X@X%X%X-X:X:X-X%X%X@X|.|.{.{.].].(./.^.%X-XSXSX",
"SXSX~.:X2X2X7XrXrXuXuXdXjXjXjXdXuXrXrX8X8X2X:X-X%X%X@X@X@X!.SXSX",
"SXSXSXSXSXSXSXSXSXSXSXSXSXSXSXSXSXSXSXSXSXSXSXSXSXSXSXSXSXSXSXSX",
"SXSXSXSXSXSXSXSXSXSXSXSXSXSXSXSXSXSXSXSXSXSXSXSXSXSXSXSXSXSXSXSX",
"SXSXSXSXSXSXSXSXSXSXSXSXSXSXSXSXSXSXSXSXSXSXSXSXSXSXSXSXSXSXSXSX",
"SXSXSXSXSXSXSXSXSXSXSXSXSXSXSXSXSXSXSXSXSXSXSXSXSXSXSXSXSXSXSXSX"
};
