/* XPM */
static char * a_xpm[] = {
"10 20 41 1",
" 	c None",
".	c #549DE9",
"+	c #2E4A70",
"@	c #335681",
"#	c #355A88",
"$	c #2F4C74",
"%	c #4E91D8",
"&	c #3A6597",
"*	c #31527C",
"=	c #4378B4",
"-	c #2E4B71",
";	c #3B6699",
">	c #4C8DD1",
",	c #447AB7",
"'	c #5197E0",
")	c #539CE8",
"!	c #304F77",
"~	c #4D8FD4",
"{	c #5299E3",
"]	c #4175AF",
"^	c #386293",
"/	c #305079",
"(	c #4986C7",
"_	c #375F8F",
":	c #4176B0",
"<	c #396495",
"[	c #4985C6",
"}	c #3E6EA5",
"|	c #4B8ACD",
"1	c #4378B3",
"2	c #539BE6",
"3	c #2F4C73",
"4	c #4C8CD0",
"5	c #396294",
"6	c #457EBC",
"7	c #375E8D",
"8	c #2F4E76",
"9	c #539CE7",
"0	c #4985C7",
"a	c #386090",
"b	c #4072AB",
"..........",
"++++++++++",
"++++++++++",
"++++++++++",
"++++@#$+++",
"++++%.&+++",
"+++*..=-++",
"+++;..>-++",
"+++,.')!++",
"+++~{].^++",
"++/)(_.:++",
"++<.[}.|++",
"++1....23+",
"++4{556.7+",
"+890++a.b+",
"++++++++++",
"++++++++++",
"++++++++++",
"++++++++++",
".........."};
