/* XPM */
static char * colon_xpm[] = {
"10 20 3 1",
" 	c None",
".	c #549DE9",
"+	c #2E4A70",
"..........",
"++++++++++",
"++++++++++",
"++++++++++",
"++++++++++",
"++++++++++",
"++++..++++",
"++++..++++",
"++++++++++",
"++++++++++",
"++++++++++",
"++++++++++",
"++++++++++",
"++++..++++",
"++++..++++",
"++++++++++",
"++++++++++",
"++++++++++",
"++++++++++",
".........."};
