/* XPM */
static char * dot_xpm[] = {
"10 20 8 1",
" 	c None",
".	c #549DE9",
"+	c #2E4A70",
"@	c #32537D",
"#	c #4884C5",
"$	c #3C699E",
"%	c #335782",
"&	c #4277B2",
"..........",
"++++++++++",
"++++++++++",
"++++++++++",
"++++++++++",
"++++++++++",
"++++++++++",
"++++++++++",
"++++++++++",
"++++++++++",
"++++++++++",
"++++++++++",
"++++++++++",
"+++@#$++++",
"+++%.&++++",
"++++++++++",
"++++++++++",
"++++++++++",
"++++++++++",
".........."};
