/* XPM */
static char * m_xpm[] = {
"14 20 45 1",
" 	c None",
".	c #549DE9",
"+	c #2E4A70",
"@	c #2F4C73",
"#	c #355A88",
"$	c #32537E",
"%	c #335581",
"&	c #335782",
"*	c #4E8FD6",
"=	c #5196DF",
"-	c #2F4D75",
";	c #386090",
">	c #3C699E",
",	c #4883C3",
"'	c #4C8CD0",
")	c #539CE8",
"!	c #32547F",
"~	c #365C8B",
"{	c #4E90D6",
"]	c #4277B1",
"^	c #4680BE",
"/	c #4378B3",
"(	c #4F92DA",
"_	c #5197E0",
":	c #2F4C74",
"<	c #31517A",
"[	c #539BE6",
"}	c #4B8ACD",
"|	c #4780BF",
"1	c #4277B2",
"2	c #3F70A8",
"3	c #3C6A9F",
"4	c #4073AB",
"5	c #3B679A",
"6	c #305079",
"7	c #529AE5",
"8	c #4D8ED3",
"9	c #5094DC",
"0	c #5095DE",
"a	c #2E4B72",
"b	c #457DBB",
"c	c #4174AD",
"d	c #355A87",
"e	c #539BE7",
"f	c #31527C",
"..............",
"++++++++++++++",
"++++++++++++++",
"++++++++++++++",
"+@#$++++++%#++",
"+&.*+++++@=.-+",
"+&..;++++>..-+",
"+&..,++++'..-+",
"+&..)!++~...-+",
"+&.{.]++^.{.-+",
"+&./(_:<[}|.-+",
"+&.12.34.5|.-+",
"+&.167890a|.-+",
"+&.1+b..c+|.-+",
"+&.1+d.ef+|.-+",
"++++++++++++++",
"++++++++++++++",
"++++++++++++++",
"++++++++++++++",
".............."};
