/* XPM */
static char * n0_xpm[] = {
"10 20 30 1",
" 	c None",
".	c #549DE9",
"+	c #2E4A70",
"@	c #32537D",
"#	c #355A88",
"$	c #2E4A71",
"%	c #365B8A",
"&	c #5198E1",
"*	c #467FBD",
"=	c #31517A",
"-	c #529AE5",
";	c #4276B0",
">	c #4173AC",
",	c #4A88CB",
"'	c #335782",
")	c #4379B4",
"!	c #304F78",
"~	c #4780BF",
"{	c #4277B2",
"]	c #2F4D75",
"^	c #457DBB",
"/	c #32547F",
"(	c #304E77",
"_	c #4E90D6",
":	c #4986C8",
"<	c #4884C5",
"[	c #4F93DA",
"}	c #3D6BA0",
"|	c #31527C",
"1	c #539CE8",
"..........",
"++++++++++",
"++++++++++",
"++++++++++",
"+++@###$++",
"++%&...*$+",
"+=&-;>,.;+",
"+'.)++!.~+",
"+'.{++].~+",
"+'.{++].~+",
"+'.{++].~+",
"+'.{++].~+",
"+'.^++/.~+",
"+(_.:<[.}+",
"++|_..1}++",
"++++++++++",
"++++++++++",
"++++++++++",
"++++++++++",
".........."};
