/* XPM */
static char * n1_xpm[] = {
"10 20 8 1",
" 	c None",
".	c #549DE9",
"+	c #2E4A70",
"@	c #2F4C73",
"#	c #355A88",
"$	c #32537D",
"%	c #335782",
"&	c #4277B2",
"..........",
"++++++++++",
"++++++++++",
"++++++++++",
"++++@#$+++",
"++++%.&+++",
"++++%.&+++",
"++++%.&+++",
"++++%.&+++",
"++++%.&+++",
"++++%.&+++",
"++++%.&+++",
"++++%.&+++",
"++++%.&+++",
"++++%.&+++",
"++++++++++",
"++++++++++",
"++++++++++",
"++++++++++",
".........."};
