/* XPM */
static char * n2_xpm[] = {
"10 20 34 1",
" 	c None",
".	c #549DE9",
"+	c #2E4A70",
"@	c #32537D",
"#	c #355A88",
"$	c #2E4A71",
"%	c #365B8A",
"&	c #5198E1",
"*	c #467FBD",
"=	c #31517A",
"-	c #529AE5",
";	c #4276B0",
">	c #4173AC",
",	c #4A88CB",
"'	c #2F4E76",
")	c #3B6699",
"!	c #355B89",
"~	c #304F78",
"{	c #4780BF",
"]	c #375F8E",
"^	c #315079",
"/	c #4C8CD1",
"(	c #5299E3",
"_	c #539CE7",
":	c #375E8D",
"<	c #4D8ED3",
"[	c #4B8BCE",
"}	c #4A88CA",
"|	c #335782",
"1	c #4680BE",
"2	c #4277B2",
"3	c #4E91D8",
"4	c #4884C5",
"5	c #3F70A7",
"..........",
"++++++++++",
"++++++++++",
"++++++++++",
"+++@###$++",
"++%&...*$+",
"+=&-;>,.;+",
"+')!++~.{+",
"++++++].{+",
"++^/((_(:+",
"+'<.[,}:++",
"+|.1++++++",
"+|.2++++++",
"+|.344445+",
"+|......{+",
"++++++++++",
"++++++++++",
"++++++++++",
"++++++++++",
".........."};
