/* XPM */
static char * n3_xpm[] = {
"10 20 42 1",
" 	c None",
".	c #549DE9",
"+	c #2E4A70",
"@	c #32537D",
"#	c #355A88",
"$	c #2E4A71",
"%	c #365B8A",
"&	c #5198E1",
"*	c #467FBD",
"=	c #31517A",
"-	c #529AE5",
";	c #4276B0",
">	c #4173AC",
",	c #4A88CB",
"'	c #2F4E76",
")	c #3B6699",
"!	c #355B89",
"~	c #304F78",
"{	c #4780BF",
"]	c #375F8E",
"^	c #4378B4",
"/	c #5299E3",
"(	c #539CE7",
"_	c #529AE4",
":	c #375E8D",
"<	c #3E6FA6",
"[	c #5095DE",
"}	c #539CE8",
"|	c #3C689D",
"1	c #335682",
"2	c #315079",
"3	c #4277B2",
"4	c #3C699D",
"5	c #32547F",
"6	c #304E76",
"7	c #4E8FD6",
"8	c #4986C8",
"9	c #4884C5",
"0	c #4F93DA",
"a	c #3D6CA1",
"b	c #4C8DD2",
"c	c #3F6FA7",
"..........",
"++++++++++",
"++++++++++",
"++++++++++",
"+++@###$++",
"++%&...*$+",
"+=&-;>,.;+",
"+')!++~.{+",
"++++++].{+",
"++++^/(_:+",
"++++<,[}|+",
"++++++1.{+",
"+234++5.{+",
"+67.890.a+",
"++2b...c++",
"++++++++++",
"++++++++++",
"++++++++++",
"++++++++++",
".........."};
