/* XPM */
static char * n4_xpm[] = {
"10 20 31 1",
" 	c None",
".	c #549DE9",
"+	c #2E4A70",
"@	c #355A87",
"#	c #345783",
"$	c #3D6CA1",
"%	c #4C8CD0",
"&	c #529AE4",
"*	c #2E4B72",
"=	c #4C8DD2",
"-	c #539CE7",
";	c #4377B2",
">	c #447AB6",
",	c #5095DE",
"'	c #386090",
")	c #539CE8",
"!	c #4D8ED4",
"~	c #2F4C73",
"{	c #304E76",
"]	c #5094DD",
"^	c #3D6CA2",
"/	c #375E8E",
"(	c #5197E0",
"_	c #4E90D6",
":	c #335782",
"<	c #4780BF",
"[	c #304F78",
"}	c #3F6FA7",
"|	c #5298E2",
"1	c #4F93DB",
"2	c #396294",
"..........",
"++++++++++",
"++++++++++",
"++++++++++",
"++++++@#++",
"+++++$.%++",
"++++#&.%++",
"+++*=.-%++",
"+++;.>,%++",
"++')!~,%++",
"+{].^/(_#+",
"+:......<+",
"+[}}}}|12+",
"++++++,%++",
"++++++,%++",
"++++++++++",
"++++++++++",
"++++++++++",
"++++++++++",
".........."};
