/* XPM */
static char * n5_xpm[] = {
"10 20 35 1",
" 	c None",
".	c #549DE9",
"+	c #2E4A70",
"@	c #2F4C73",
"#	c #355A88",
"$	c #335580",
"%	c #335782",
"&	c #4780BF",
"*	c #4B8ACD",
"=	c #4173AC",
"-	c #3A6597",
";	c #4277B2",
">	c #4A87C9",
",	c #2E4B71",
"'	c #2E4B72",
")	c #4782C2",
"!	c #529AE4",
"~	c #5299E3",
"{	c #3D6CA1",
"]	c #447BB8",
"^	c #4A88CB",
"/	c #5095DE",
"(	c #539CE8",
"_	c #3C699E",
":	c #335682",
"<	c #315079",
"[	c #3C699D",
"}	c #32547F",
"|	c #304E77",
"1	c #4E90D6",
"2	c #4986C8",
"3	c #4884C5",
"4	c #4F93DA",
"5	c #31527C",
"6	c #3F6FA7",
"..........",
"++++++++++",
"++++++++++",
"++++++++++",
"+@######$+",
"+%......&+",
"+%.*====-+",
"+%.;++++++",
"+%.>,+++++",
"+').!~~{++",
"++']^^/(_+",
"++++++:.&+",
"+<;[++}.&+",
"+|1.234.{+",
"++51...6++",
"++++++++++",
"++++++++++",
"++++++++++",
"++++++++++",
".........."};
