/* XPM */
static char * n6_xpm[] = {
"10 20 40 1",
" 	c None",
".	c #549DE9",
"+	c #2E4A70",
"@	c #32537D",
"#	c #355A88",
"$	c #2E4A71",
"%	c #365B8A",
"&	c #5198E1",
"*	c #467FBD",
"=	c #31517A",
"-	c #529AE5",
";	c #4276B0",
">	c #4173AC",
",	c #4A88CB",
"'	c #335782",
")	c #4379B4",
"!	c #2F4C74",
"~	c #3B6699",
"{	c #365C8B",
"]	c #4277B2",
"^	c #539BE6",
"/	c #5299E3",
"(	c #5298E2",
"_	c #3B679B",
":	c #4F93DB",
"<	c #5095DE",
"[	c #539CE8",
"}	c #3C689C",
"|	c #335682",
"1	c #4780BF",
"2	c #457DBB",
"3	c #32547F",
"4	c #304E77",
"5	c #4E90D6",
"6	c #4986C8",
"7	c #4884C5",
"8	c #4F93DA",
"9	c #3D6CA1",
"0	c #31527C",
"a	c #3F6FA7",
"..........",
"++++++++++",
"++++++++++",
"++++++++++",
"+++@###$++",
"++%&...*$+",
"+=&-;>,.;+",
"+'.)++!~{+",
"+'.]++++++",
"+'.^//(_++",
"+'.:,,<[}+",
"+'.]++|.1+",
"+'.2++3.1+",
"+45.678.9+",
"++05...a++",
"++++++++++",
"++++++++++",
"++++++++++",
"++++++++++",
".........."};
