/* XPM */
static char * n7_xpm[] = {
"10 20 32 1",
" 	c None",
".	c #549DE9",
"+	c #2E4A70",
"@	c #2F4C73",
"#	c #355A88",
"$	c #2E4A71",
"%	c #335782",
"&	c #467FBD",
"*	c #305079",
"=	c #4173AC",
"-	c #4B8BCF",
";	c #3F70A7",
">	c #2E4B72",
",	c #4E90D7",
"'	c #529AE5",
")	c #32537E",
"!	c #3F6FA6",
"~	c #4174AE",
"{	c #5198E1",
"]	c #5094DD",
"^	c #2F4D75",
"/	c #447BB7",
"(	c #3C699D",
"_	c #345884",
":	c #539CE7",
"<	c #4C8CD0",
"[	c #4986C8",
"}	c #365D8C",
"|	c #396394",
"1	c #4781C0",
"2	c #4E90D6",
"3	c #32547F",
"..........",
"++++++++++",
"++++++++++",
"++++++++++",
"+@#####$++",
"+%.....&$+",
"+*====-.;+",
"+++++>,')+",
"+++++!.~++",
"++++*{]^++",
"++++/.(+++",
"+++_:<++++",
"+++[.}++++",
"++|.1+++++",
"+>2'3+++++",
"++++++++++",
"++++++++++",
"++++++++++",
"++++++++++",
".........."};
