/* XPM */
static char * n8_xpm[] = {
"10 20 45 1",
" 	c None",
".	c #549DE9",
"+	c #2E4A70",
"@	c #32537D",
"#	c #355A88",
"$	c #2E4A71",
"%	c #365B8A",
"&	c #5198E1",
"*	c #467FBD",
"=	c #31517A",
"-	c #529AE5",
";	c #4276B0",
">	c #4173AC",
",	c #4A88CB",
"'	c #335782",
")	c #4379B4",
"!	c #304F78",
"~	c #4780BF",
"{	c #4A87C9",
"]	c #2E4B71",
"^	c #375F8E",
"/	c #2E4B72",
"(	c #4883C3",
"_	c #529AE4",
":	c #5299E3",
"<	c #539CE7",
"[	c #375E8D",
"}	c #2F4E76",
"|	c #4D8ED3",
"1	c #4B8BCE",
"2	c #5095DE",
"3	c #539CE8",
"4	c #3C689D",
"5	c #4680BE",
"6	c #335682",
"7	c #457DBB",
"8	c #32547F",
"9	c #304E77",
"0	c #4E90D6",
"a	c #4986C8",
"b	c #4884C5",
"c	c #4F93DA",
"d	c #3D6CA1",
"e	c #31527C",
"f	c #3F6FA7",
"..........",
"++++++++++",
"++++++++++",
"++++++++++",
"+++@###$++",
"++%&...*$+",
"+=&-;>,.;+",
"+'.)++!.~+",
"+'.{]+^.~+",
"+/(._:<_[+",
"+}|.1,234+",
"+'.5++6.~+",
"+'.7++8.~+",
"+90.abc.d+",
"++e0...f++",
"++++++++++",
"++++++++++",
"++++++++++",
"++++++++++",
".........."};
