/* XPM */
static char * n9_xpm[] = {
"10 20 38 1",
" 	c None",
".	c #549DE9",
"+	c #2E4A70",
"@	c #32537D",
"#	c #355A88",
"$	c #2E4A71",
"%	c #365B8A",
"&	c #5198E1",
"*	c #467FBD",
"=	c #31517A",
"-	c #529AE5",
";	c #4276B0",
">	c #4173AC",
",	c #4A88CB",
"'	c #335782",
")	c #4379B4",
"!	c #304F78",
"~	c #4780BF",
"{	c #4A87C9",
"]	c #2E4B71",
"^	c #2F4D75",
"/	c #4781C0",
"(	c #529AE4",
"_	c #5299E3",
":	c #4378B4",
"<	c #4B89CC",
"[	c #315079",
"}	c #4277B2",
"|	c #3C699D",
"1	c #32547F",
"2	c #304E77",
"3	c #4E90D6",
"4	c #4986C8",
"5	c #4884C5",
"6	c #4F93DA",
"7	c #3D6CA1",
"8	c #31527C",
"9	c #3F6FA7",
"..........",
"++++++++++",
"++++++++++",
"++++++++++",
"+++@###$++",
"++%&...*$+",
"+=&-;>,.;+",
"+'.)++!.~+",
"+'.{]+^.~+",
"+]/.(__.~+",
"++$:,,<.~+",
"++++++^.~+",
"+[}|++1.~+",
"+23.456.7+",
"++83...9++",
"++++++++++",
"++++++++++",
"++++++++++",
"++++++++++",
".........."};
