/* XPM */
static char * p_xpm[] = {
"10 20 26 1",
" 	c None",
".	c #549DE9",
"+	c #2E4A70",
"@	c #2E4A71",
"#	c #2F4C73",
"$	c #355A88",
"%	c #355A89",
"&	c #335782",
"*	c #467FBD",
"=	c #4B8ACE",
"-	c #4173AD",
";	c #4173AC",
">	c #4A88CB",
",	c #4276B0",
"'	c #4277B2",
")	c #304F78",
"!	c #4780BF",
"~	c #375F8E",
"{	c #539BE6",
"]	c #5299E3",
"^	c #539CE7",
"/	c #5198E2",
"(	c #365D8C",
"_	c #4F93DB",
":	c #4A87CA",
"<	c #355B89",
"..........",
"++++@+++++",
"++++@+++++",
"++++@+++++",
"+#$$%$$@++",
"+&.....*@+",
"+&.=-;>.,+",
"+&.'@+).!+",
"+&.'@+~.!+",
"+&.{]]^/(+",
"+&._>>:<++",
"+&.'@+++++",
"+&.'@+++++",
"+&.'@+++++",
"+&.'@+++++",
"+++@@+++++",
"+++@@+++++",
"+++@@+++++",
"+++@@+++++",
".........."};
