/* XPM */
static char * slash_xpm[] = {
"10 20 30 1",
" 	c None",
".	c #549DE9",
"+	c #2E4A70",
"@	c #365C8B",
"#	c #4D8ED3",
"$	c #447AB6",
"%	c #3F71A8",
"&	c #2E4B71",
"*	c #5095DE",
"=	c #32547E",
"-	c #386192",
";	c #4B89CC",
">	c #467FBD",
",	c #3D6CA1",
"'	c #2F4D74",
")	c #5197E0",
"!	c #305079",
"~	c #3B669A",
"{	c #4884C5",
"]	c #4884C4",
"^	c #3B679A",
"/	c #5197E1",
"(	c #2F4D75",
"_	c #4680BE",
":	c #396293",
"<	c #5096DF",
"[	c #2E4B72",
"}	c #447BB7",
"|	c #4D8ED4",
"1	c #375D8C",
"..........",
"++++++++++",
"++++++++++",
"++++++@#++",
"++++++$%++",
"+++++&*=++",
"+++++-;+++",
"+++++>,+++",
"++++')!+++",
"++++~{++++",
"++++]^++++",
"+++!/(++++",
"+++,_+++++",
"+++;:+++++",
"++=<[+++++",
"++%}++++++",
"++|1++++++",
"++++++++++",
"++++++++++",
".........."};
