/* XPM */
static char * space_xpm[] = {
"8 20 3 1",
" 	c None",
".	c #549DE9",
"+	c #2E4A70",
"........",
"++++++++",
"++++++++",
"++++++++",
"++++++++",
"++++++++",
"++++++++",
"++++++++",
"++++++++",
"++++++++",
"++++++++",
"++++++++",
"++++++++",
"++++++++",
"++++++++",
"++++++++",
"++++++++",
"++++++++",
"++++++++",
"........"};
