/* XPM */
static char * closeO_xpm[] = {
"46 46 528 2",
"  	c None",
". 	c #293454",
"+ 	c #2A3354",
"@ 	c #2A3256",
"# 	c #293356",
"$ 	c #283255",
"% 	c #293357",
"& 	c #273359",
"* 	c #273457",
"= 	c #283353",
"- 	c #293452",
"; 	c #2A3553",
"> 	c #273456",
", 	c #27355A",
"' 	c #2D3E6A",
") 	c #2A3E71",
"! 	c #3E5082",
"~ 	c #2A3A64",
"{ 	c #EFF3FF",
"] 	c #F0F4FF",
"^ 	c #F1F5FF",
"/ 	c #F3F4FF",
"( 	c #F2F3FF",
"_ 	c #EEF3FF",
": 	c #E6EEFF",
"< 	c #C6D3FD",
"[ 	c #C0D4FF",
"} 	c #8298D1",
"| 	c #2C4271",
"1 	c #80737D",
"2 	c #F9A38F",
"3 	c #F9A28E",
"4 	c #F9A18D",
"5 	c #FAA18C",
"6 	c #FAA08C",
"7 	c #FAA28C",
"8 	c #F99F8A",
"9 	c #F0B0A5",
"0 	c #4B4A5A",
"a 	c #D8E2FD",
"b 	c #D0E6FF",
"c 	c #AECFFA",
"d 	c #E0E3F2",
"e 	c #D5E6FF",
"f 	c #C3E5FF",
"g 	c #402C29",
"h 	c #F3CEC8",
"i 	c #E6998D",
"j 	c #E8988D",
"k 	c #E9998D",
"l 	c #EB9A8D",
"m 	c #EC9A8C",
"n 	c #EE9A8C",
"o 	c #F09A8C",
"p 	c #F29B8B",
"q 	c #F49C8C",
"r 	c #F79C8C",
"s 	c #F89D8D",
"t 	c #F99D8D",
"u 	c #FA9D8C",
"v 	c #FB9E8C",
"w 	c #F89C8C",
"x 	c #F69C8C",
"y 	c #F39C8C",
"z 	c #F19C8B",
"A 	c #EB998D",
"B 	c #EFBDB5",
"C 	c #5D403B",
"D 	c #E3E2F2",
"E 	c #D7E6FD",
"F 	c #CEE9FF",
"G 	c #402A26",
"H 	c #977375",
"I 	c #987375",
"J 	c #535666",
"K 	c #987475",
"L 	c #5C3D38",
"M 	c #E4E1F2",
"N 	c #DAE5FB",
"O 	c #D5E7FD",
"P 	c #3E2724",
"Q 	c #F2C9C4",
"R 	c #E38F83",
"S 	c #E48F84",
"T 	c #E58F83",
"U 	c #E69083",
"V 	c #E89083",
"W 	c #EA9183",
"X 	c #EB9283",
"Y 	c #ED9282",
"Z 	c #EF9282",
"` 	c #F19383",
" .	c #F39483",
"..	c #F59483",
"+.	c #F69482",
"@.	c #FFFFFF",
"#.	c #977071",
"$.	c #F49483",
"%.	c #F19483",
"&.	c #F09282",
"*.	c #E79083",
"=.	c #EDB6AE",
"-.	c #5B3934",
";.	c #DDE3F9",
">.	c #3E2521",
",.	c #F0C5BE",
"'.	c #E08577",
").	c #E08678",
"!.	c #E18678",
"~.	c #E38678",
"{.	c #E58778",
"].	c #E68777",
"^.	c #E88778",
"/.	c #EB8878",
"(.	c #EC8978",
"_.	c #EF8978",
":.	c #F08A78",
"<.	c #F28A77",
"[.	c #F38B78",
"}.	c #966C6D",
"|.	c #966C6C",
"1.	c #FDFDFD",
"2.	c #F18A77",
"3.	c #EF8A78",
"4.	c #ED8978",
"5.	c #EA8778",
"6.	c #E78778",
"7.	c #E48678",
"8.	c #E28678",
"9.	c #EBB0A6",
"0.	c #5A3530",
"a.	c #E5E1F0",
"b.	c #DEE3F9",
"c.	c #3D221D",
"d.	c #EEBFB8",
"e.	c #DB7A6B",
"f.	c #DC7A6C",
"g.	c #DE7B6B",
"h.	c #DF7B6C",
"i.	c #E17C6C",
"j.	c #E37D6C",
"k.	c #E57D6C",
"l.	c #E77D6C",
"m.	c #E97E6C",
"n.	c #EC7F6D",
"o.	c #EC806D",
"p.	c #EF806D",
"q.	c #F1806D",
"r.	c #F2806D",
"s.	c #F3816C",
"t.	c #956868",
"u.	c #FAFAFA",
"v.	c #EE806C",
"w.	c #EA7E6D",
"x.	c #E87E6C",
"y.	c #E67D6C",
"z.	c #E27C6B",
"A.	c #E17B6C",
"B.	c #DE7B6C",
"C.	c #E8A89F",
"D.	c #58312B",
"E.	c #3B1E1A",
"F.	c #EBBAB2",
"G.	c #D66E5E",
"H.	c #D76E5E",
"I.	c #D86F5E",
"J.	c #DA705F",
"K.	c #DC715F",
"L.	c #DE715E",
"M.	c #DF715E",
"N.	c #E3725E",
"O.	c #E4735D",
"P.	c #E6735E",
"Q.	c #E9745E",
"R.	c #EB745F",
"S.	c #ED755E",
"T.	c #EF755E",
"U.	c #F1755F",
"V.	c #946363",
"W.	c #E9E9E9",
"X.	c #F0755E",
"Y.	c #EE755E",
"Z.	c #EA745F",
"`.	c #E7745E",
" +	c #E2725E",
".+	c #DD715E",
"++	c #DC6F5F",
"@+	c #D96F5F",
"#+	c #E4A196",
"$+	c #562C26",
"%+	c #E7E0F0",
"&+	c #E0E2F9",
"*+	c #2D0701",
"=+	c #D39188",
"-+	c #A31A06",
";+	c #A51A06",
">+	c #A71B05",
",+	c #AA1C05",
"'+	c #AE1D05",
")+	c #B11D05",
"!+	c #B51E05",
"~+	c #B81E04",
"{+	c #BC1F03",
"]+	c #C11F03",
"^+	c #C42003",
"/+	c #C92003",
"(+	c #CC2202",
"_+	c #CE2202",
":+	c #D02302",
"<+	c #D22302",
"[+	c #87413C",
"}+	c #D12302",
"|+	c #CF2202",
"1+	c #CA2003",
"2+	c #C72103",
"3+	c #C32003",
"4+	c #BE1F03",
"5+	c #AD1C05",
"6+	c #A91C05",
"7+	c #C36A5D",
"8+	c #410A02",
"9+	c #E8DFF0",
"0+	c #DDE2F8",
"a+	c #2E0802",
"b+	c #D49389",
"c+	c #A51E08",
"d+	c #A71F08",
"e+	c #A92008",
"f+	c #AD2108",
"g+	c #B02208",
"h+	c #B32207",
"i+	c #B72207",
"j+	c #BA2206",
"k+	c #BE2306",
"l+	c #C32406",
"m+	c #C62406",
"n+	c #CA2505",
"o+	c #CD2605",
"p+	c #CF2605",
"q+	c #D22604",
"r+	c #88423D",
"s+	c #E2E2E2",
"t+	c #D02605",
"u+	c #CB2605",
"v+	c #C82505",
"w+	c #C52406",
"x+	c #C02406",
"y+	c #BD2306",
"z+	c #B92206",
"A+	c #B52207",
"B+	c #B22207",
"C+	c #AF2208",
"D+	c #AC2108",
"E+	c #C46D5E",
"F+	c #420C03",
"G+	c #E8E0EF",
"H+	c #DFE4FA",
"I+	c #2F0A04",
"J+	c #D6978C",
"K+	c #A9260E",
"L+	c #AB260E",
"M+	c #AD280D",
"N+	c #B0290D",
"O+	c #B32A0D",
"P+	c #B72A0D",
"Q+	c #BA2B0C",
"R+	c #BE2B0B",
"S+	c #C22D0B",
"T+	c #C52E0A",
"U+	c #C82F0A",
"V+	c #CB300A",
"W+	c #CE310A",
"X+	c #874740",
"Y+	c #88473F",
"Z+	c #DCDCDC",
"`+	c #87473F",
" @	c #CF310A",
".@	c #CC310A",
"+@	c #CA2F0A",
"@@	c #C72E0A",
"#@	c #C32D0A",
"$@	c #C12C0B",
"%@	c #BD2B0B",
"&@	c #B92B0C",
"*@	c #B62A0D",
"=@	c #AE290D",
"-@	c #C77262",
";@	c #440F06",
">@	c #300E05",
",@	c #D99C8F",
"'@	c #B03114",
")@	c #B23214",
"!@	c #B33413",
"~@	c #B63513",
"{@	c #B83613",
"]@	c #BB3813",
"^@	c #BF3A13",
"/@	c #C13A13",
"(@	c #C63C13",
"_@	c #C93D12",
":@	c #CC3F12",
"<@	c #CF4012",
"[@	c #D14311",
"}@	c #D7D7D7",
"|@	c #894F42",
"1@	c #D24211",
"2@	c #CF4211",
"3@	c #CE3F12",
"4@	c #CB3E12",
"5@	c #C83D12",
"6@	c #C53B13",
"7@	c #BE3913",
"8@	c #BC3713",
"9@	c #CC7A67",
"0@	c #461408",
"a@	c #DCE2F8",
"b@	c #331208",
"c@	c #DDA593",
"d@	c #B8421D",
"e@	c #BA441D",
"f@	c #BA461C",
"g@	c #BD471C",
"h@	c #C0491C",
"i@	c #C34A1C",
"j@	c #C54C1C",
"k@	c #C94F1C",
"l@	c #CB511B",
"m@	c #CE521B",
"n@	c #D0551B",
"o@	c #D4561B",
"p@	c #D7581B",
"q@	c #8A5747",
"r@	c #8B5846",
"s@	c #DB5B1A",
"t@	c #D8591B",
"u@	c #D5571B",
"v@	c #D3561B",
"w@	c #D0541B",
"x@	c #CD521B",
"y@	c #CB501B",
"z@	c #C94D1C",
"A@	c #C64B1C",
"B@	c #C24A1C",
"C@	c #C0481C",
"D@	c #BC471C",
"E@	c #BA451C",
"F@	c #BB4721",
"G@	c #D08771",
"H@	c #4D1B0C",
"I@	c #35170B",
"J@	c #E2AD98",
"K@	c #C35328",
"L@	c #C35628",
"M@	c #C45727",
"N@	c #C65827",
"O@	c #CA5B27",
"P@	c #CC5D27",
"Q@	c #CF6127",
"R@	c #D16226",
"S@	c #D36626",
"T@	c #D66826",
"U@	c #D86B26",
"V@	c #DB6C26",
"W@	c #DD6E25",
"X@	c #DF7126",
"Y@	c #E07326",
"Z@	c #E17326",
"`@	c #E07226",
" #	c #DE6F25",
".#	c #DC6D26",
"+#	c #DA6B26",
"@#	c #D76926",
"##	c #D36726",
"$#	c #D26526",
"%#	c #D06126",
"&#	c #CF6027",
"*#	c #CB5C27",
"=#	c #C95A27",
"-#	c #C76136",
";#	c #CD947F",
">#	c #5E2C18",
",#	c #E4E0EF",
"'#	c #381C0E",
")#	c #E6B59D",
"!#	c #CB6432",
"~#	c #CC6532",
"{#	c #CE6831",
"]#	c #D06B31",
"^#	c #D26E30",
"/#	c #D47330",
"(#	c #D5762F",
"_#	c #D77A2F",
":#	c #DB7D2F",
"<#	c #DC832F",
"[#	c #DE862F",
"}#	c #E08A2F",
"|#	c #E28F30",
"1#	c #E3912F",
"2#	c #E5942F",
"3#	c #E69530",
"4#	c #E6952F",
"5#	c #E4922E",
"6#	c #E2902E",
"7#	c #E18C2F",
"8#	c #DF882F",
"9#	c #DE852F",
"0#	c #DC802F",
"a#	c #DA7C2F",
"b#	c #D7782F",
"c#	c #D57530",
"d#	c #D37130",
"e#	c #D06C34",
"f#	c #D27443",
"g#	c #DB916D",
"h#	c #A78372",
"i#	c #916556",
"j#	c #E3E0F1",
"k#	c #3B2011",
"l#	c #F2D4C3",
"m#	c #E9AC81",
"n#	c #EAB080",
"o#	c #EBB380",
"p#	c #EDB57F",
"q#	c #EFB97D",
"r#	c #EFBE7D",
"s#	c #F1C37D",
"t#	c #F1C97C",
"u#	c #F3CC7B",
"v#	c #F3D17A",
"w#	c #F3D57A",
"x#	c #F5D97A",
"y#	c #F5DC79",
"z#	c #F5DE79",
"A#	c #F5E279",
"B#	c #F5E478",
"C#	c #F5E678",
"D#	c #F5E878",
"E#	c #F5DF79",
"F#	c #F5DD79",
"G#	c #F4D67A",
"H#	c #F3D27B",
"I#	c #F3CE7A",
"J#	c #F2CA7C",
"K#	c #F1C67D",
"L#	c #F0C17D",
"M#	c #EFBB7D",
"N#	c #EDB87E",
"O#	c #EDB986",
"P#	c #D2A985",
"Q#	c #A07E69",
"R#	c #5B3621",
"S#	c #F7B6A6",
"T#	c #E2E1F3",
"U#	c #29160A",
"V#	c #592F16",
"W#	c #593016",
"X#	c #5A3115",
"Y#	c #5A3315",
"Z#	c #5C3515",
"`#	c #5C3715",
" $	c #5D3916",
".$	c #5E3C16",
"+$	c #5F3E15",
"@$	c #604116",
"#$	c #614416",
"$$	c #624616",
"%$	c #624816",
"&$	c #634A16",
"*$	c #634C17",
"=$	c #644C17",
"-$	c #624916",
";$	c #614516",
">$	c #604216",
",$	c #604016",
"'$	c #5F3E16",
")$	c #5E3B16",
"!$	c #5D3816",
"~$	c #5C3615",
"{$	c #5B3515",
"]$	c #5A3316",
"^$	c #764220",
"/$	c #A26F53",
"($	c #F9B6A6",
"_$	c #F0B8B0",
":$	c #DFE1F6",
"<$	c #F1CFCD",
"[$	c #DDE2F9",
"}$	c #DADBED",
"|$	c #DDDCEC",
"1$	c #DDDCEA",
"2$	c #DEDDED",
"3$	c #DEDDEB",
"4$	c #E0DFEF",
"5$	c #E2E1EF",
"6$	c #E4E2EF",
"7$	c #E5E3F0",
"8$	c #E6E4F1",
"9$	c #E8E6F3",
"0$	c #E7E5F0",
"a$	c #E9E7F2",
"b$	c #E3E3EF",
"c$	c #E3E1EF",
"d$	c #DFE2F5",
"e$	c #DDE2F6",
"f$	c #E0EAFF",
"g$	c #E1EBFF",
"h$	c #E3EAFF",
"i$	c #E3EBFF",
"j$	c #E5EDFF",
"k$	c #E7EFFF",
"l$	c #E8EEFF",
"m$	c #E8F0FF",
"n$	c #E9EFFF",
"o$	c #E4EBFF",
"p$	c #DDE4FE",
"q$	c #DBE2FE",
"r$	c #DBE2FF",
"s$	c #ACBBE2",
"t$	c #ACBCE0",
"u$	c #AABCE2",
"v$	c #ABBAE1",
"w$	c #ADBCE3",
"x$	c #ADBDE1",
"y$	c #ABBBDF",
"z$	c #ADBBE0",
"A$	c #ACBADF",
"B$	c #ADBBE2",
"C$	c #ADBAE4",
". + . @ # # . # . # # # @ . . # # # # $ % # # # % & * # . . = . . . . . . - ; . > , ' ) ! ~ ",
"{ ] ] ] ] ] ] ] ] ^ ^ / / / / ( ( ( ( ( ( ( ( ( / ( ( ( ( ( ( ( ( ( ( ( ( ( ] ] _ : < [ } | ",
"1 2 3 4 5 6 6 6 6 6 6 6 6 6 6 6 6 6 6 6 6 6 6 6 6 6 6 6 6 6 6 6 6 6 6 6 6 6 5 7 8 9 0 a b c ",
"1 2 3 4 5 6 6 6 6 6 6 6 6 6 6 6 6 6 6 6 6 6 6 6 6 6 6 6 6 6 6 6 6 6 6 6 6 6 5 7 8 9 0 d e f ",
"g h i i j k l m n o p q q r s t u v v v v v v v v v u t s w x q y z o n m A k j i B C D E F ",
"G h i i j k l m n o p q q r s H I J J J K v K J J J I H s w x q y z o n m A k j i B L M N O ",
"P Q R S T U V W X Y Z `  ...+.J J @.@.@.J #.J @.@.@.J J +...$.%.&.Z Y X W *.U T S =.-.M ;.N ",
">.,.'.).!.~.{.].^./.(._.:.<.[.}.|.J 1.1.1.J 1.1.1.J |.}.[.<.2.3.4./.5.6.].7.8.!.).9.0.a.b.b.",
"c.d.e.f.g.h.i.j.k.l.m.n.o.p.q.r.s.t.J u.u.u.u.u.J t.s.r.q.p.v.o.w.x.y.k.z.A.B.g.f.C.D.a.b.b.",
"E.F.G.H.I.J.K.L.M.N.O.P.Q.R.S.S.T.U.V.J W.W.W.J V.U.X.Y.S.R.Z.`.P.O. +M..+++@+I.H.#+$+%+b.&+",
"*+=+-+;+>+,+'+)+!+~+{+]+^+/+(+_+:+<+[+J W.W.W.J [+<+}+|+(+1+2+3+4+{+~+!+)+5+6+>+;+7+8+9+b.0+",
"a+b+c+d+e+f+g+h+i+j+k+l+m+n+o+p+q+r+J s+s+s+s+s+J r+q+t+p+u+v+w+x+y+z+A+B+C+D+e+d+E+F+G+b.H+",
"I+J+K+L+M+N+O+P+Q+R+S+T+U+V+W+X+Y+J Z+Z+Z+J Z+Z+Z+J Y+`+ @.@+@@@#@$@%@&@*@O+=@M+L+-@;@G+b.;.",
">@,@'@)@!@~@{@]@^@/@(@_@:@<@[@J J }@}@}@J |@J }@}@}@J J 1@2@3@4@5@6@/@7@8@{@~@!@)@9@0@G+b.a@",
"b@c@d@e@f@g@h@i@j@k@l@m@n@o@p@q@r@J J J r@s@r@J J J r@r@t@u@v@w@x@y@z@A@B@C@D@E@F@G@H@%+b.b.",
"I@J@K@L@M@N@O@P@Q@R@S@T@U@V@W@X@Y@Z@Z@Z@Z@Z@Z@Z@Z@Z@Y@`@ #.#+#@###$#%#&#*#=#N@M@-#;#>#,#b.b.",
"'#)#!#~#{#]#^#/#(#_#:#<#[#}#|#1#2#3#3#3#3#3#3#3#3#3#4#5#6#7#8#9#0#a#b#c#d#^#e#f#g#h#i#j#0+b.",
"k#l#m#n#o#p#q#r#s#t#u#v#w#x#y#z#A#B#B#C#D#D#D#C#B#B#A#E#F#x#G#H#I#J#K#L#M#N#O#P#Q#R#S#T#b.0+",
"U#V#V#W#X#Y#Z#`# $.$+$@$#$$$%$&$*$=$=$=$=$=$=$=$=$=$=$&$-$$$;$>$,$'$)$!$~${$]$^$/$($_$:$0+0+",
"<$2 3 4 5 6 6 6 6 6 6 6 6 6 6 6 6 6 6 6 6 6 6 6 6 6 6 6 6 6 6 6 6 6 6 6 6 6 5 7 8 9 [$b.b.b.",
"}$|$|$|$|$1$1$2$2$2$2$2$2$2$3$4$5$6$7$8$9$0$0$0$0$0$0$0$0$0$a$a$a$a$0$7$7$b$b$c$D d$e$0+b.H+",
"f$f$f$f$f$f$f$f$f$f$g$h$h$g$g$h$h$i$i$j$k$k$k$k$k$k$k$k$k$l$k$l$m$n$m$l$k$k$k$o$p$q$q$q$q$r$",
"s$s$s$s$s$t$t$u$u$s$s$v$v$s$s$s$v$t$t$w$t$t$x$t$y$t$t$t$t$z$t$z$t$z$t$z$s$t$t$z$A$s$s$s$B$C$",
". + . @ # # . # . # # # @ . . # # # # $ % # # # % & * # . . = . . . . . . - ; . > , ' ) ! ~ ",
"{ ] ] ] ] ] ] ] ] ^ ^ / / / / ( ( ( ( ( ( ( ( ( / ( ( ( ( ( ( ( ( ( ( ( ( ( ] ] _ : < [ } | ",
"1 2 3 4 5 6 6 6 6 6 6 6 6 6 6 6 6 6 6 6 6 6 6 6 6 6 6 6 6 6 6 6 6 6 6 6 6 6 5 7 8 9 0 a b c ",
"1 2 3 4 5 6 6 6 6 6 6 6 6 6 6 6 6 6 6 6 6 6 6 6 6 6 6 6 6 6 6 6 6 6 6 6 6 6 5 7 8 9 0 d e f ",
"g h i i j k l m n o p q q r s t u v v v v v v v v v u t s w x q y z o n m A k j i B C D E F ",
"G h i i j k l m n o p q q r s H I J J J K v K J J J I H s w x q y z o n m A k j i B L M N O ",
"P Q R S T U V W X Y Z `  ...+.J J @.@.@.J #.J @.@.@.J J +...$.%.&.Z Y X W *.U T S =.-.M ;.N ",
">.,.'.).!.~.{.].^./.(._.:.<.[.}.|.J 1.1.1.J 1.1.1.J |.}.[.<.2.3.4./.5.6.].7.8.!.).9.0.a.b.b.",
"c.d.e.f.g.h.i.j.k.l.m.n.o.p.q.r.s.t.J u.u.u.u.u.J t.s.r.q.p.v.o.w.x.y.k.z.A.B.g.f.C.D.a.b.b.",
"E.F.G.H.I.J.K.L.M.N.O.P.Q.R.S.S.T.U.V.J W.W.W.J V.U.X.Y.S.R.Z.`.P.O. +M..+++@+I.H.#+$+%+b.&+",
"*+=+-+;+>+,+'+)+!+~+{+]+^+/+(+_+:+<+[+J W.W.W.J [+<+}+|+(+1+2+3+4+{+~+!+)+5+6+>+;+7+8+9+b.0+",
"a+b+c+d+e+f+g+h+i+j+k+l+m+n+o+p+q+r+J s+s+s+s+s+J r+q+t+p+u+v+w+x+y+z+A+B+C+D+e+d+E+F+G+b.H+",
"I+J+K+L+M+N+O+P+Q+R+S+T+U+V+W+X+Y+J Z+Z+Z+J Z+Z+Z+J Y+`+ @.@+@@@#@$@%@&@*@O+=@M+L+-@;@G+b.;.",
">@,@'@)@!@~@{@]@^@/@(@_@:@<@[@J J }@}@}@J |@J }@}@}@J J 1@2@3@4@5@6@/@7@8@{@~@!@)@9@0@G+b.a@",
"b@c@d@e@f@g@h@i@j@k@l@m@n@o@p@q@r@J J J r@s@r@J J J r@r@t@u@v@w@x@y@z@A@B@C@D@E@F@G@H@%+b.b.",
"I@J@K@L@M@N@O@P@Q@R@S@T@U@V@W@X@Y@Z@Z@Z@Z@Z@Z@Z@Z@Z@Y@`@ #.#+#@###$#%#&#*#=#N@M@-#;#>#,#b.b.",
"'#)#!#~#{#]#^#/#(#_#:#<#[#}#|#1#2#3#3#3#3#3#3#3#3#3#4#5#6#7#8#9#0#a#b#c#d#^#e#f#g#h#i#j#0+b.",
"k#l#m#n#o#p#q#r#s#t#u#v#w#x#y#z#A#B#B#C#D#D#D#C#B#B#A#E#F#x#G#H#I#J#K#L#M#N#O#P#Q#R#S#T#b.0+",
"U#V#V#W#X#Y#Z#`# $.$+$@$#$$$%$&$*$=$=$=$=$=$=$=$=$=$=$&$-$$$;$>$,$'$)$!$~${$]$^$/$($_$:$0+0+",
"<$2 3 4 5 6 6 6 6 6 6 6 6 6 6 6 6 6 6 6 6 6 6 6 6 6 6 6 6 6 6 6 6 6 6 6 6 6 5 7 8 9 [$b.b.b.",
"}$|$|$|$|$1$1$2$2$2$2$2$2$2$3$4$5$6$7$8$9$0$0$0$0$0$0$0$0$0$a$a$a$a$0$7$7$b$b$c$D d$e$0+b.H+",
"f$f$f$f$f$f$f$f$f$f$g$h$h$g$g$h$h$i$i$j$k$k$k$k$k$k$k$k$k$l$k$l$m$n$m$l$k$k$k$o$p$q$q$q$q$r$",
"s$s$s$s$s$t$t$u$u$s$s$v$v$s$s$s$v$t$t$w$t$t$x$t$y$t$t$t$t$z$t$z$t$z$t$z$s$t$t$z$A$s$s$s$B$C$"};
