/* XPM */
static char * closeI_xpm[] = {
"46 46 229 2",
"  	c None",
". 	c #1F2643",
"+ 	c #202542",
"@ 	c #1F2642",
"# 	c #202543",
"$ 	c #1D2742",
"% 	c #1C2842",
"& 	c #1D2643",
"* 	c #1D2846",
"= 	c #1F294D",
"- 	c #26335F",
"; 	c #2A3E71",
"> 	c #3E5082",
", 	c #2A3A64",
"' 	c #E6EFFF",
") 	c #E7F1FF",
"! 	c #E8F2FF",
"~ 	c #E9F1FF",
"{ 	c #E5EFFF",
"] 	c #E3EDFF",
"^ 	c #E4EEFF",
"/ 	c #E4EDFF",
"( 	c #E2EFFF",
"_ 	c #E3EFFF",
": 	c #DFEBFF",
"< 	c #BCC8F8",
"[ 	c #C0D4FF",
"} 	c #8298D1",
"| 	c #2C4271",
"1 	c #797F95",
"2 	c #CFD6F0",
"3 	c #CFD6F3",
"4 	c #CDD6F5",
"5 	c #CED7F6",
"6 	c #CDD6F7",
"7 	c #CCD5F4",
"8 	c #CCD7F5",
"9 	c #CDD6F3",
"0 	c #D0D7F3",
"a 	c #4E5571",
"b 	c #D8E2FD",
"c 	c #D0E6FF",
"d 	c #AECFFA",
"e 	c #797F8F",
"f 	c #E4EAFF",
"g 	c #CFD6F2",
"h 	c #CDD7F2",
"i 	c #DFE6F9",
"j 	c #505666",
"k 	c #E0E3F2",
"l 	c #D5E6FF",
"m 	c #C3E5FF",
"n 	c #798092",
"o 	c #CFD7EE",
"p 	c #D0D6EE",
"q 	c #D0D6F0",
"r 	c #E0E5F8",
"s 	c #525566",
"t 	c #E3E2F2",
"u 	c #D7E6FD",
"v 	c #CEE9FF",
"w 	c #CED7F4",
"x 	c #838BA2",
"y 	c #848AA0",
"z 	c #51566A",
"A 	c #515669",
"B 	c #505769",
"C 	c #848B9E",
"D 	c #D0D6EC",
"E 	c #838AA4",
"F 	c #E4E1F2",
"G 	c #DAE5FB",
"H 	c #D5E7FD",
"I 	c #CCD5F2",
"J 	c #50566C",
"K 	c #515767",
"L 	c #FBFFFF",
"M 	c #FCFFFF",
"N 	c #535760",
"O 	c #878A99",
"P 	c #535763",
"Q 	c #D0D7F1",
"R 	c #DDE3F9",
"S 	c #848AA2",
"T 	c #858A9D",
"U 	c #535762",
"V 	c #FAFDFF",
"W 	c #FCFDFF",
"X 	c #54575E",
"Y 	c #FBFEFF",
"Z 	c #CED5EF",
"` 	c #E5E1F0",
" .	c #DEE3F9",
"..	c #7A7F92",
"+.	c #535665",
"@.	c #F9F9FF",
"#.	c #FAF9FE",
"$.	c #F9FAFE",
"%.	c #F9FAFF",
"&.	c #F8FBFF",
"*.	c #525662",
"=.	c #858A9E",
"-.	c #CCD7F3",
";.	c #E4EBFE",
">.	c #858B9B",
",.	c #565660",
"'.	c #E9E9EB",
").	c #E8E9ED",
"!.	c #545760",
"~.	c #535667",
"{.	c #E7E0F0",
"].	c #E0E2F9",
"^.	c #CFD7EC",
"/.	c #D1D7EF",
"(.	c #848A9A",
"_.	c #E8E9EB",
":.	c #53565F",
"<.	c #E1E6F9",
"[.	c #E8DFF0",
"}.	c #DDE2F8",
"|.	c #D0D8EF",
"1.	c #DFE2E9",
"2.	c #E1E2E6",
"3.	c #E1E2E7",
"4.	c #E0E3EA",
"5.	c #E8E0EF",
"6.	c #DFE4FA",
"7.	c #D9DCE3",
"8.	c #DBDCE0",
"9.	c #DADDE6",
"0.	c #DBDCE1",
"a.	c #828AA1",
"b.	c #798093",
"c.	c #D3D7E2",
"d.	c #D4D7DE",
"e.	c #D4D7E0",
"f.	c #D3D7E3",
"g.	c #4F576C",
"h.	c #CED8F3",
"i.	c #DCE2F8",
"j.	c #848B9D",
"k.	c #DEE4F4",
"l.	c #555867",
"m.	c #CFD5ED",
"n.	c #CDD7F0",
"o.	c #D3D9EF",
"p.	c #D3D9E9",
"q.	c #636675",
"r.	c #E4E0EF",
"s.	c #E5EAFD",
"t.	c #D1D6EA",
"u.	c #CED6ED",
"v.	c #D0D8ED",
"w.	c #D3DAED",
"x.	c #DDE2F5",
"y.	c #A9ACBB",
"z.	c #9194A3",
"A.	c #E3E0F1",
"B.	c #797F8D",
"C.	c #F0F3FF",
"D.	c #E0E6F6",
"E.	c #DFE6F8",
"F.	c #E0E7F9",
"G.	c #E0E5F9",
"H.	c #DEE6F9",
"I.	c #DEE7F8",
"J.	c #E2E7FA",
"K.	c #C9CFDF",
"L.	c #9BA1AF",
"M.	c #575A69",
"N.	c #D5DBEB",
"O.	c #E2E1F3",
"P.	c #525661",
"Q.	c #505662",
"R.	c #505664",
"S.	c #525564",
"T.	c #696F7D",
"U.	c #969CAA",
"V.	c #D4D9ED",
"W.	c #DFE1F6",
"X.	c #EDF1FD",
"Y.	c #EDF0FF",
"Z.	c #EBF1FD",
"`.	c #EDF1FC",
" +	c #ECF0FB",
".+	c #EBF1FF",
"++	c #ECF2FF",
"@+	c #DADFF3",
"#+	c #DADBED",
"$+	c #DDDCEC",
"%+	c #DDDCEA",
"&+	c #DEDDED",
"*+	c #DEDDEB",
"=+	c #E0DFEF",
"-+	c #E2E1EF",
";+	c #E4E2EF",
">+	c #E5E3F0",
",+	c #E6E4F1",
"'+	c #E8E6F3",
")+	c #E7E5F0",
"!+	c #E9E7F2",
"~+	c #E3E3EF",
"{+	c #E3E1EF",
"]+	c #DFE2F5",
"^+	c #DDE2F6",
"/+	c #E0EAFF",
"(+	c #E1EBFF",
"_+	c #E3EAFF",
":+	c #E3EBFF",
"<+	c #E5EDFF",
"[+	c #E7EFFF",
"}+	c #E8EEFF",
"|+	c #E8F0FF",
"1+	c #E9EFFF",
"2+	c #E4EBFF",
"3+	c #DDE4FE",
"4+	c #DBE2FE",
"5+	c #DBE2FF",
"6+	c #ACBBE2",
"7+	c #ACBCE0",
"8+	c #AABCE2",
"9+	c #ABBAE1",
"0+	c #ADBCE3",
"a+	c #ADBDE1",
"b+	c #ABBBDF",
"c+	c #ADBBE0",
"d+	c #ACBADF",
"e+	c #ADBBE2",
"f+	c #ADBAE4",
". . . . . + + @ . # . @ @ # # . @ @ @ @ @ + + @ @ . . @ @ @ $ $ % & & $ $ & & & * = - ; > , ",
"' ) ) ) ) ) ) ! ! ~ ~ ! ! ~ ~ ) { { { ] ^ ^ ^ / ^ ^ ^ ^ ^ ^ ^ ( ( ^ ^ ^ ^ ^ ^ ^ _ : < [ } | ",
"1 2 3 4 4 5 4 4 4 4 4 4 4 4 4 4 5 4 4 4 4 5 4 6 4 7 4 4 4 4 4 8 8 4 4 4 4 4 4 4 9 0 a b c d ",
"e f 2 g 9 9 9 9 9 9 9 9 9 9 9 h h h h h h 9 9 h g g g h h 9 9 9 9 9 9 h h 9 9 9 2 i j k l m ",
"n f o g 9 4 4 9 9 9 9 9 9 9 h 2 2 2 2 2 2 g g 2 p p q g h 3 3 9 9 9 9 9 9 9 9 9 2 r s t u v ",
"n f o g w 4 4 9 9 9 9 9 9 9 h x y z A B C D y A A z y E h 3 3 9 9 9 9 9 9 9 9 9 2 r s F G H ",
"n f o g I 4 4 9 9 9 9 9 9 9 g J K L M M N O P M M L A J Q h 9 9 9 9 9 9 9 9 9 9 2 r s F R G ",
"n f o g 9 4 4 9 9 9 9 9 9 9 g S T U V W W X V W Y P T x Z h 9 9 9 9 9 9 9 9 9 9 2 r s `  . .",
"..f o 2 h 9 9 9 9 9 9 3 3 9 9 g o C +.@.#.$.%.&.*.=.2 g h 9 9 9 9 9 9 9 9 -.-.4 g r s `  . .",
"..;.o 2 h 9 9 9 9 9 9 3 3 9 9 9 h p >.,.'.'.).!.>.p g 9 9 I 9 9 9 9 9 9 9 -.-.4 g r ~.{. .].",
"n ;.^.g 9 9 9 9 9 9 9 9 9 9 9 9 h /.(.!._.'.).:.>.p g 9 9 9 9 9 9 9 9 9 9 h h 9 2 <.s [. .}.",
"n ;.^.g 9 9 9 9 9 9 9 9 9 9 9 g |.C +.1.2.2.3.4.*.=.2 g h 9 9 9 9 9 9 9 9 h h 9 2 r s 5. .6.",
"n ;.o g 9 9 9 9 9 9 9 9 9 9 g S T U 7.8.8.!.9.0.7.P T a.2 h 9 9 9 9 9 9 9 9 9 9 2 r s 5. .R ",
"b.f o g 9 9 9 9 9 9 9 9 9 9 g J K c.d.d.N O +.e.d.f.A g.2 h.9 9 9 9 9 9 9 9 9 9 2 r s 5. .i.",
"b.f o g 9 9 9 9 9 9 9 9 9 9 h E y z A B j.D y A A z y E h 9 9 9 9 9 9 9 9 9 9 g p k.l.{. . .",
"b.;.D 2 h h h h h h h g h g g 2 o /.m.^.o 2 q p D p p 2 n.h h.h h h h h h h g 2 o.p.q.r. . .",
"..s.t.^.u.2 2 o o 2 2 p o q o o o p p ^.v.p /.D D D D o o 2 2 o o 2 o o ^.o D w.x.y.z.A.}. .",
"B.C.D.E.F.i i i E.i i G.E.G.i H.I.i i i E.G.G.i E.r r E.E.i i i E.i i E.E.F.J.K.L.M.N.O. .}.",
"P.*.*.Q.Q.R.Q.Q.Q.R.Q.*.Q.S.Q.Q.Q.R.Q.Q.Q.+.*.Q.Q.*.*.Q.Q.R.Q.Q.Q.R.Q.Q.Q.Q.Q.T.U.k.V.W.}.}.",
"X.Y.Y.X.X.X.X.X.Z.X.Z.X.Z.X.Z.X.X.X.X.`.`.X. +`.`.X.X.`.`.`.`.`.`.X.X.`.`.X.X..+++@+}. . . .",
"#+$+$+$+$+%+%+&+&+&+&+&+&+&+*+=+-+;+>+,+'+)+)+)+)+)+)+)+)+)+!+!+!+!+)+>+>+~+~+{+t ]+^+}. .6.",
"/+/+/+/+/+/+/+/+/+/+(+_+_+(+(+_+_+:+:+<+[+[+[+[+[+[+[+[+[+}+[+}+|+1+|+}+[+[+[+2+3+4+4+4+4+5+",
"6+6+6+6+6+7+7+8+8+6+6+9+9+6+6+6+9+7+7+0+7+7+a+7+b+7+7+7+7+c+7+c+7+c+7+c+6+7+7+c+d+6+6+6+e+f+",
". . . . . + + @ . # . @ @ # # . @ @ @ @ @ + + @ @ . . @ @ @ $ $ % & & $ $ & & & * = - ; > , ",
"' ) ) ) ) ) ) ! ! ~ ~ ! ! ~ ~ ) { { { ] ^ ^ ^ / ^ ^ ^ ^ ^ ^ ^ ( ( ^ ^ ^ ^ ^ ^ ^ _ : < [ } | ",
"1 2 3 4 4 5 4 4 4 4 4 4 4 4 4 4 5 4 4 4 4 5 4 6 4 7 4 4 4 4 4 8 8 4 4 4 4 4 4 4 9 0 a b c d ",
"e f 2 g 9 9 9 9 9 9 9 9 9 9 9 h h h h h h 9 9 h g g g h h 9 9 9 9 9 9 h h 9 9 9 2 i j k l m ",
"n f o g 9 4 4 9 9 9 9 9 9 9 h 2 2 2 2 2 2 g g 2 p p q g h 3 3 9 9 9 9 9 9 9 9 9 2 r s t u v ",
"n f o g w 4 4 9 9 9 9 9 9 9 h x y z A B C D y A A z y E h 3 3 9 9 9 9 9 9 9 9 9 2 r s F G H ",
"n f o g I 4 4 9 9 9 9 9 9 9 g J K L M M N O P M M L A J Q h 9 9 9 9 9 9 9 9 9 9 2 r s F R G ",
"n f o g 9 4 4 9 9 9 9 9 9 9 g S T U V W W X V W Y P T x Z h 9 9 9 9 9 9 9 9 9 9 2 r s `  . .",
"..f o 2 h 9 9 9 9 9 9 3 3 9 9 g o C +.@.#.$.%.&.*.=.2 g h 9 9 9 9 9 9 9 9 -.-.4 g r s `  . .",
"..;.o 2 h 9 9 9 9 9 9 3 3 9 9 9 h p >.,.'.'.).!.>.p g 9 9 I 9 9 9 9 9 9 9 -.-.4 g r ~.{. .].",
"n ;.^.g 9 9 9 9 9 9 9 9 9 9 9 9 h /.(.!._.'.).:.>.p g 9 9 9 9 9 9 9 9 9 9 h h 9 2 <.s [. .}.",
"n ;.^.g 9 9 9 9 9 9 9 9 9 9 9 g |.C +.1.2.2.3.4.*.=.2 g h 9 9 9 9 9 9 9 9 h h 9 2 r s 5. .6.",
"n ;.o g 9 9 9 9 9 9 9 9 9 9 g S T U 7.8.8.!.9.0.7.P T a.2 h 9 9 9 9 9 9 9 9 9 9 2 r s 5. .R ",
"b.f o g 9 9 9 9 9 9 9 9 9 9 g J K c.d.d.N O +.e.d.f.A g.2 h.9 9 9 9 9 9 9 9 9 9 2 r s 5. .i.",
"b.f o g 9 9 9 9 9 9 9 9 9 9 h E y z A B j.D y A A z y E h 9 9 9 9 9 9 9 9 9 9 g p k.l.{. . .",
"b.;.D 2 h h h h h h h g h g g 2 o /.m.^.o 2 q p D p p 2 n.h h.h h h h h h h g 2 o.p.q.r. . .",
"..s.t.^.u.2 2 o o 2 2 p o q o o o p p ^.v.p /.D D D D o o 2 2 o o 2 o o ^.o D w.x.y.z.A.}. .",
"B.C.D.E.F.i i i E.i i G.E.G.i H.I.i i i E.G.G.i E.r r E.E.i i i E.i i E.E.F.J.K.L.M.N.O. .}.",
"P.*.*.Q.Q.R.Q.Q.Q.R.Q.*.Q.S.Q.Q.Q.R.Q.Q.Q.+.*.Q.Q.*.*.Q.Q.R.Q.Q.Q.R.Q.Q.Q.Q.Q.T.U.k.V.W.}.}.",
"X.Y.Y.X.X.X.X.X.Z.X.Z.X.Z.X.Z.X.X.X.X.`.`.X. +`.`.X.X.`.`.`.`.`.`.X.X.`.`.X.X..+++@+}. . . .",
"#+$+$+$+$+%+%+&+&+&+&+&+&+&+*+=+-+;+>+,+'+)+)+)+)+)+)+)+)+)+!+!+!+!+)+>+>+~+~+{+t ]+^+}. .6.",
"/+/+/+/+/+/+/+/+/+/+(+_+_+(+(+_+_+:+:+<+[+[+[+[+[+[+[+[+[+}+[+}+|+1+|+}+[+[+[+2+3+4+4+4+4+5+",
"6+6+6+6+6+7+7+8+8+6+6+9+9+6+6+6+9+7+7+0+7+7+a+7+b+7+7+7+7+c+7+c+7+c+7+c+6+7+7+c+d+6+6+6+e+f+"};
