/* XPM */
static char * frameBR_xpm[] = {
"22 22 6 1",
" 	c None",
".	c #222328",
"+	c #050505",
"@	c #262627",
"#	c #010101",
"$	c #000000",
"                 .....",
"                 .....",
"                 .....",
"                 .....",
"                 .....",
"                 .....",
"                 .....",
"                 .....",
"                 .....",
"                 .....",
"                 .....",
"                 .....",
"                 .....",
"                 .....",
"                 .....",
"                 .....",
"                 .....",
"                 .....",
"                 ....+",
"....................@.",
"....................# ",
"...................$  "};
