/* XPM */
static char * frameATR_xpm[] = {
"6 27 80 1",
" 	c None",
".	c #2A3E71",
"+	c #3E5082",
"@	c #C0D4FF",
"#	c #8298D1",
"$	c #2C4271",
"%	c #3E5074",
"&	c #D8E2FD",
"*	c #D0E6FF",
"=	c #AECFFA",
"-	c #486793",
";	c #384A70",
">	c #E0E3F2",
",	c #D5E6FF",
"'	c #C3E5FF",
")	c #A2C9F4",
"!	c #1F3D6F",
"~	c #243964",
"{	c #E3E2F2",
"]	c #D7E6FD",
"^	c #CEE9FF",
"/	c #B2D8FD",
"(	c #6592CD",
"_	c #21467B",
":	c #E4E1F2",
"<	c #DAE5FB",
"[	c #D5E7FD",
"}	c #BBDDFF",
"|	c #72A9E2",
"1	c #073A71",
"2	c #DDE3F9",
"3	c #C9E6FF",
"4	c #76B6E6",
"5	c #003562",
"6	c #E5E1F0",
"7	c #DEE3F9",
"8	c #71B4DF",
"9	c #00345B",
"0	c #CFE8FF",
"a	c #6EB3DD",
"b	c #00335A",
"c	c #E7E0F0",
"d	c #E0E2F9",
"e	c #69B0DA",
"f	c #003259",
"g	c #E8DFF0",
"h	c #DDE2F8",
"i	c #67B0DB",
"j	c #003157",
"k	c #E8E0EF",
"l	c #DFE4FA",
"m	c #CFEAFF",
"n	c #66AFDA",
"o	c #003156",
"p	c #CBE9FF",
"q	c #62ADD7",
"r	c #DCE2F8",
"s	c #CCEAFF",
"t	c #60ADD9",
"u	c #003155",
"v	c #5FAED9",
"w	c #E4E0EF",
"x	c #60AFDA",
"y	c #003054",
"z	c #E3E0F1",
"A	c #5FACD8",
"B	c #E2E1F3",
"C	c #5CA9D5",
"D	c #DFE1F6",
"E	c #5EABD7",
"F	c #CAE8FF",
"G	c #5BAAD5",
"H	c #DBE2FE",
"I	c #DBE2FF",
"J	c #5CABD6",
"K	c #ACBBE2",
"L	c #ADBBE2",
"M	c #ADBAE4",
"N	c #C7EAFF",
"O	c #59AAD9",
"      ",
"      ",
"      ",
"      ",
".+    ",
"@#$%  ",
"&*=-; ",
">,')!~",
"{]^/(_",
":<[}|1",
":2<345",
"677^89",
"6770ab",
"c7d0ef",
"g7h^ij",
"k7lmno",
"k72pqo",
"k7rstu",
"c77svu",
"w77sxy",
"zh7sAu",
"B7hsCu",
"DhhpEu",
"777FEu",
"h7lsGu",
"HHIpJu",
"KLMNOu"};
