/* XPM */
static char * maximizeI_xpm[] = {
"26 46 159 2",
"  	c None",
". 	c #293357",
"+ 	c #1D2645",
"@ 	c #1C2546",
"# 	c #1F2547",
"$ 	c #1E2444",
"% 	c #1F2545",
"& 	c #1C2743",
"* 	c #1D2643",
"= 	c #1C2745",
"- 	c #1F2643",
"; 	c #EBF4FF",
"> 	c #E3ECFF",
", 	c #E3EBFF",
"' 	c #E2EDFF",
") 	c #E2ECFF",
"! 	c #E4ECFF",
"~ 	c #E3EEFF",
"{ 	c #E4EDFF",
"] 	c #E6EFFF",
"^ 	c #8B8E9D",
"/ 	c #F6FBFF",
"( 	c #F5FBFF",
"_ 	c #F5FCFF",
": 	c #F4FCFF",
"< 	c #F6FDFF",
"[ 	c #F7FCFF",
"} 	c #8C8D92",
"| 	c #E7EAF9",
"1 	c #D1D7E5",
"2 	c #D1D7E7",
"3 	c #D1D6E9",
"4 	c #D0D7E9",
"5 	c #D0D7E7",
"6 	c #DDE3F1",
"7 	c #8A8D94",
"8 	c #E6EBFE",
"9 	c #D0D7EA",
"0 	c #CFD7EE",
"a 	c #CFD6F0",
"b 	c #D0D6EC",
"c 	c #CFD7EC",
"d 	c #DCE3F5",
"e 	c #878A91",
"f 	c #E4EBFE",
"g 	c #D0D8EF",
"h 	c #CFD6F2",
"i 	c #CDD6F3",
"j 	c #848AA0",
"k 	c #515669",
"l 	c #515767",
"m 	c #50576A",
"n 	c #828A9F",
"o 	c #CCD5F2",
"p 	c #CDD7F0",
"q 	c #DBE3F8",
"r 	c #858891",
"s 	c #E4EBFD",
"t 	c #535667",
"u 	c #F9FBFF",
"v 	c #FBFBFF",
"w 	c #FBFCFF",
"x 	c #F9FCFF",
"y 	c #F8FCFF",
"z 	c #505666",
"A 	c #CCD5F4",
"B 	c #CDD6F5",
"C 	c #CCD7F3",
"D 	c #83868F",
"E 	c #E3EAFC",
"F 	c #545665",
"G 	c #FAFAFF",
"H 	c #FCFBFF",
"I 	c #535763",
"J 	c #CED7F6",
"K 	c #CBD6F2",
"L 	c #CED8F1",
"M 	c #DCE2F8",
"N 	c #80838C",
"O 	c #E5ECFF",
"P 	c #545760",
"Q 	c #535665",
"R 	c #535669",
"S 	c #565660",
"T 	c #7B7F8A",
"U 	c #E8E8F2",
"V 	c #E6E9F0",
"W 	c #535762",
"X 	c #D1D6EA",
"Y 	c #D1D5EE",
"Z 	c #545663",
"` 	c #636977",
" .	c #D0D6EE",
"..	c #636979",
"+.	c #E2E2EA",
"@.	c #E1E1E9",
"#.	c #DFE2E7",
"$.	c #646A7A",
"%.	c #DBDBE3",
"&.	c #DBDCE0",
"*.	c #DBDCE1",
"=.	c #DCDBE0",
"-.	c #D9DCE1",
";.	c #CED7F4",
">.	c #666C7C",
",.	c #D4D6E2",
"'.	c #D6D6DE",
").	c #D6D7DC",
"!.	c #D4D7DE",
"~.	c #D3D7E2",
"{.	c #D0D7F1",
"].	c #CDD7F2",
"^.	c #686E7E",
"/.	c #848AA2",
"(.	c #51566A",
"_.	c #838BA0",
":.	c #6B7181",
"<.	c #CED5F1",
"[.	c #D0D6F0",
"}.	c #CED8F3",
"|.	c #6F7585",
"1.	c #E5EAFD",
"2.	c #DCE3F6",
"3.	c #777D8B",
"4.	c #EDF3FF",
"5.	c #E0E6F6",
"6.	c #E0E5F8",
"7.	c #DFE6F9",
"8.	c #DFE6F8",
"9.	c #515560",
"0.	c #525661",
"a.	c #525662",
"b.	c #4F5561",
"c.	c #505662",
"d.	c #505664",
"e.	c #EDF1FD",
"f.	c #EEF0FD",
"g.	c #EBF1FD",
"h.	c #EEF0FC",
"i.	c #F4EEF8",
"j.	c #D7DCEF",
"k.	c #D7DCF0",
"l.	c #D6DBEE",
"m.	c #D8DDF0",
"n.	c #D6DDEF",
"o.	c #D8DEEE",
"p.	c #DADDEE",
"q.	c #E0EAFF",
"r.	c #DFE8FF",
"s.	c #E0E9FF",
"t.	c #E1E8FF",
"u.	c #E2E9FF",
"v.	c #DFEBFF",
"w.	c #E1EBFF",
"x.	c #ACBBE2",
"y.	c #ADBCE3",
"z.	c #ACBCE0",
"A.	c #A9BBE1",
"B.	c #AABCE2",
". + @ # $ + + % + & & * * = = = = = = + + * * % % - ",
"; > > , , , ' , > ) ' , > ) ' , > , ' , > ! ~ ! { ] ",
"^ / / / ( ( _ / _ ( _ ( _ : : ( _ ( _ / _ ( < / [ / ",
"} | 1 2 3 4 3 2 2 2 2 2 2 5 5 2 2 2 2 3 3 4 4 3 2 6 ",
"7 8 9 0 a a 0 b b 9 9 b b 9 9 b b b c 0 a a a a 0 d ",
"e f g h i i h j k k l k k l l k k m n h o i i i p q ",
"r s c h i i a t u v w w w w w w x y z a i A B C p q ",
"D E c h i o 0 F G w w w w w w H w x I 0 i J B K L M ",
"N O c h i B a F v v P Q R l Q S v x I 0 i i i i p M ",
"T f c h i B a F U V W X Y b 3 Z U V I 0 i i o i a M ",
"` f c h i i 0 F U V W X  .b 3 Z U V W 0 i i i i a M ",
"..f c h i i 0 F +.@.P Q k l Q S @.#.W 0 i i i i p M ",
"$.f 0 h i i 0 F %.&.&.*.*.*.*.=.&.-.I 0 i ;.i i p M ",
">.f 0 h ;.i a t ,.'.).).).).).).!.~.l {.i ;.i i ].M ",
"^.f c h i i h /.(.k l k k l l k k m _.h i i i i ].M ",
":.s b a ].].<.[. .b b  . .b b  . .0 0 h }.].].].a M ",
"|.1.9  .a 0 0  . .c c 0 0 c c  . .c 0 0 a 0 0 a  .2.",
"3.4.5.6.7.7.8.7.7.7.7.7.7.7.8.7.7.7.8.7.7.7.8.7.6.5.",
"W 9.0.a.b.c.c.d.c.c.c.d.d.c.c.d.c.c.c.d.c.c.c.d.a.0.",
"e.e.e.e.e.f.f.e.e.e.e.e.e.e.e.e.e.e.e.e.g.e.e.e.h.i.",
"j.j.k.k.k.k.j.j.j.j.j.l.j.j.j.j.m.m.n.n.n.m.m.m.o.p.",
"q.q.q.r.s.s.q.t.u.q.q.q.q.q.q.q.q.q.q.v.v.q.q.q.w.q.",
"x.x.x.x.x.x.x.x.x.y.x.z.z.x.x.x.x.x.x.x.x.x.x.A.B.x.",
". + @ # $ + + % + & & * * = = = = = = + + * * % % - ",
"; > > , , , ' , > ) ' , > ) ' , > , ' , > ! ~ ! { ] ",
"^ / / / ( ( _ / _ ( _ ( _ : : ( _ ( _ / _ ( < / [ / ",
"} | 1 2 3 4 3 2 2 2 2 2 2 5 5 2 2 2 2 3 3 4 4 3 2 6 ",
"7 8 9 0 a a 0 b b 9 9 b b 9 9 b b b c 0 a a a a 0 d ",
"e f g h i i h j k k l k k l l k k m n h o i i i p q ",
"r s c h i i a t u v w w w w w w x y z a i A B C p q ",
"D E c h i o 0 F G w w w w w w H w x I 0 i J B K L M ",
"N O c h i B a F v v P Q R l Q S v x I 0 i i i i p M ",
"T f c h i B a F U V W X Y b 3 Z U V I 0 i i o i a M ",
"` f c h i i 0 F U V W X  .b 3 Z U V W 0 i i i i a M ",
"..f c h i i 0 F +.@.P Q k l Q S @.#.W 0 i i i i p M ",
"$.f 0 h i i 0 F %.&.&.*.*.*.*.=.&.-.I 0 i ;.i i p M ",
">.f 0 h ;.i a t ,.'.).).).).).).!.~.l {.i ;.i i ].M ",
"^.f c h i i h /.(.k l k k l l k k m _.h i i i i ].M ",
":.s b a ].].<.[. .b b  . .b b  . .0 0 h }.].].].a M ",
"|.1.9  .a 0 0  . .c c 0 0 c c  . .c 0 0 a 0 0 a  .2.",
"3.4.5.6.7.7.8.7.7.7.7.7.7.7.8.7.7.7.8.7.7.7.8.7.6.5.",
"W 9.0.a.b.c.c.d.c.c.c.d.d.c.c.d.c.c.c.d.c.c.c.d.a.0.",
"e.e.e.e.e.f.f.e.e.e.e.e.e.e.e.e.e.e.e.e.g.e.e.e.h.i.",
"j.j.k.k.k.k.j.j.j.j.j.l.j.j.j.j.m.m.n.n.n.m.m.m.o.p.",
"q.q.q.r.s.s.q.t.u.q.q.q.q.q.q.q.q.q.q.v.v.q.q.q.w.q.",
"x.x.x.x.x.x.x.x.x.y.x.z.z.x.x.x.x.x.x.x.x.x.x.A.B.x."};
