/* XPM */
static char * maximizeA_xpm[] = {
"26 46 217 2",
"  	c None",
". 	c #293357",
"+ 	c #2A3257",
"@ 	c #293356",
"# 	c #273456",
"$ 	c #2A3457",
"% 	c #2A3354",
"& 	c #293454",
"* 	c #2A3256",
"= 	c #EBF4FF",
"- 	c #EAF5FF",
"; 	c #EAF3FF",
"> 	c #ECF5FF",
", 	c #EDF4FF",
"' 	c #EFF4FF",
") 	c #8B8E9D",
"! 	c #F8FBFF",
"~ 	c #F9FCFF",
"{ 	c #F6FCFF",
"] 	c #F5FBFF",
"^ 	c #F7FDFF",
"/ 	c #FBFBFF",
"( 	c #FFF8FF",
"_ 	c #8C8D92",
": 	c #F3F4F9",
"< 	c #E4E7EE",
"[ 	c #E4E7F0",
"} 	c #E3E8EE",
"| 	c #E8E6EB",
"1 	c #FAEAEB",
"2 	c #8A8D94",
"3 	c #F1F4FB",
"4 	c #E4E6F2",
"5 	c #E3E7F3",
"6 	c #E3E7F2",
"7 	c #E2E6F2",
"8 	c #E7E4ED",
"9 	c #FAEAED",
"0 	c #878A91",
"a 	c #F1F4FD",
"b 	c #E3E6F5",
"c 	c #8E929E",
"d 	c #535763",
"e 	c #545662",
"f 	c #555763",
"g 	c #535562",
"h 	c #E7E6EE",
"i 	c #858891",
"j 	c #EEF1FA",
"k 	c #E1E3EF",
"l 	c #E0E4F0",
"m 	c #DEE4F0",
"n 	c #E1E5F0",
"o 	c #FBFCFF",
"p 	c #FCFBFF",
"q 	c #E4E3EB",
"r 	c #F7E7EA",
"s 	c #83868F",
"t 	c #EDF0F9",
"u 	c #DBDFEA",
"v 	c #DAE0EC",
"w 	c #DBE1ED",
"x 	c #DCE0EC",
"y 	c #DCE0EB",
"z 	c #545760",
"A 	c #FCFCFE",
"B 	c #FBFCFE",
"C 	c #DBDFEB",
"D 	c #DDE1ED",
"E 	c #E0DFE7",
"F 	c #F7E4E8",
"G 	c #80838C",
"H 	c #E9EDF8",
"I 	c #D7DBE6",
"J 	c #D5DBE7",
"K 	c #D5DBE9",
"L 	c #D7DBE7",
"M 	c #56565E",
"N 	c #535762",
"O 	c #545663",
"P 	c #54575E",
"Q 	c #D4DAE8",
"R 	c #DCD9E4",
"S 	c #F4E0E2",
"T 	c #7B7F8A",
"U 	c #E6EAF6",
"V 	c #CFD5E3",
"W 	c #CFD5E5",
"X 	c #535760",
"Y 	c #E6E9F0",
"Z 	c #E8E8F2",
"` 	c #D1D4E3",
" .	c #D1D4E5",
"..	c #CED5E5",
"+.	c #D6D2E0",
"@.	c #F2DCDF",
"#.	c #636977",
"$.	c #D2D8E8",
"%.	c #AAAFC2",
"&.	c #A9B0C3",
"*.	c #A9AFC5",
"=.	c #ACAFC0",
"-.	c #A9B0C2",
";.	c #A9B1C6",
">.	c #B1ADBC",
",.	c #DDC0C5",
"'.	c #636979",
").	c #D3D8EB",
"!.	c #A9AFC7",
"~.	c #A8B0C7",
"{.	c #AAAFC3",
"].	c #DFE2E9",
"^.	c #E1E1E9",
"/.	c #55555F",
"(.	c #525564",
"_.	c #535665",
":.	c #E1E2E7",
"<.	c #A9B1C8",
"[.	c #B1ADBE",
"}.	c #DFC0C6",
"|.	c #646A7A",
"1.	c #D4D9EC",
"2.	c #AAB0C8",
"3.	c #A9B0CA",
"4.	c #AAB1C4",
"5.	c #D9DCE1",
"6.	c #DBDCE0",
"7.	c #DCDBE0",
"8.	c #DBDCE1",
"9.	c #DBDCDE",
"0.	c #B2ADC1",
"a.	c #DEC0C8",
"b.	c #666C7C",
"c.	c #D4D9ED",
"d.	c #ACB2C8",
"e.	c #ABB3CA",
"f.	c #ABB2CC",
"g.	c #515765",
"h.	c #D4D7E0",
"i.	c #D6D6DE",
"j.	c #D6D7DC",
"k.	c #D6D7DB",
"l.	c #ACB3CD",
"m.	c #B3B0C3",
"n.	c #E0C2CA",
"o.	c #686E7E",
"p.	c #D6DBEF",
"q.	c #B0B6CC",
"r.	c #AFB7CE",
"s.	c #ADB7D0",
"t.	c #AFB6D2",
"u.	c #AFB6D0",
"v.	c #787F92",
"w.	c #515669",
"x.	c #525566",
"y.	c #535667",
"z.	c #515767",
"A.	c #B0B8CF",
"B.	c #B7B4C7",
"C.	c #E0C5CE",
"D.	c #6B7181",
"E.	c #D9DEF1",
"F.	c #B6BDD0",
"G.	c #B5BDD4",
"H.	c #B5BCD6",
"I.	c #B5BBD1",
"J.	c #B7BDD3",
"K.	c #B7BCD2",
"L.	c #B6BCD2",
"M.	c #BDBACD",
"N.	c #E3C9D2",
"O.	c #6F7585",
"P.	c #DCE2F2",
"Q.	c #BDC2D5",
"R.	c #BCC3D6",
"S.	c #BCC2D8",
"T.	c #BCC2DA",
"U.	c #BBC1D7",
"V.	c #BDC3D9",
"W.	c #BBC2D5",
"X.	c #C3C0D1",
"Y.	c #E8CFD5",
"Z.	c #777D8B",
"`.	c #EDF0FF",
" +	c #E0E3F4",
".+	c #DDE3F3",
"++	c #DDE2F5",
"@+	c #E3E1EE",
"#+	c #F1DCE3",
"$+	c #545864",
"%+	c #525662",
"&+	c #56545F",
"*+	c #5F5259",
"=+	c #EDF1FD",
"-+	c #EEF0FD",
";+	c #EBF1FD",
">+	c #EEF0FC",
",+	c #F4EEF8",
"'+	c #D7DCEF",
")+	c #D7DCF0",
"!+	c #D6DBEE",
"~+	c #D8DDF0",
"{+	c #D6DDEF",
"]+	c #D8DEEE",
"^+	c #DADDEE",
"/+	c #E0EAFF",
"(+	c #DFE8FF",
"_+	c #E0E9FF",
":+	c #E1E8FF",
"<+	c #E2E9FF",
"[+	c #DFEBFF",
"}+	c #E1EBFF",
"|+	c #ACBBE2",
"1+	c #ADBCE3",
"2+	c #ACBCE0",
"3+	c #A9BBE1",
"4+	c #AABCE2",
". . . . . + + . @ . @ . # . @ @ @ @ @ $ @ @ @ % & * ",
"= = = - - ; = = = = = - - = = = = = = = = = > = , ' ",
") ! ~ { { ! ! ] { ! ! { { ~ ! ^ { ~ ! { { ! ! { / ( ",
"_ : < < < [ [ } } [ [ < < [ [ < < [ [ < < < < < | 1 ",
"2 3 [ 4 5 6 6 5 5 5 5 7 5 5 5 5 5 5 5 6 6 6 6 6 8 9 ",
"0 a 4 5 b 5 5 c d e e e e f e e e g c 5 5 5 5 5 h 9 ",
"i j k l m l n e ~ o p o o o o o o / f l m l l m q r ",
"s t u v w x y z o p A o o o o B o / z C v D x v E F ",
"G H I J K K L z ~ / M z N O e P o / z L J K Q K R S ",
"T U V W W W V X Y Z e ` W  .` z Y Z e V ..W W W +.@.",
"#.$.%.&.*.*.%.X Y Z O =.%.%.=.z Y Z O -.;.*.*.*.>.,.",
"'.).&.!.~.!.{.N ].^./.O (._.d P :.^.O &.<.~.!.~.[.}.",
"|.1.&.2.3.3.4.N 5.6.7.6.8.6.6.9.6.8.O 4.3.3.3.3.0.a.",
"b.c.d.e.f.f.d.g.h.i.j.j.j.k.k.j.i.h.(.d.f.l.f.f.m.n.",
"o.p.q.r.s.t.u.v.w.x.y.z.z.y.y.z.z.w.v.A.s.t.t.s.B.C.",
"D.E.F.G.G.H.H.I.J.K.K.L.L.K.K.L.L.L.I.G.G.H.H.H.M.N.",
"O.P.Q.R.S.T.S.S.R.S.U.R.R.V.S.W.W.S.S.S.S.T.S.S.X.Y.",
"Z.`. +.+++++++++++++++++++++++++++++++++++++++++@+#+",
"N O d d d O O d d $+d d d d d d %+d d d d d d d &+*+",
"=+=+=+=+=+-+-+=+=+=+=+=+=+=+=+=+=+=+=+=+;+=+=+=+>+,+",
"'+'+)+)+)+)+'+'+'+'+'+!+'+'+'+'+~+~+{+{+{+~+~+~+]+^+",
"/+/+/+(+_+_+/+:+<+/+/+/+/+/+/+/+/+/+/+[+[+/+/+/+}+/+",
"|+|+|+|+|+|+|+|+|+1+|+2+2+|+|+|+|+|+|+|+|+|+|+3+4+|+",
". . . . . + + . @ . @ . # . @ @ @ @ @ $ @ @ @ % & * ",
"= = = - - ; = = = = = - - = = = = = = = = = > = , ' ",
") ! ~ { { ! ! ] { ! ! { { ~ ! ^ { ~ ! { { ! ! { / ( ",
"_ : < < < [ [ } } [ [ < < [ [ < < [ [ < < < < < | 1 ",
"2 3 [ 4 5 6 6 5 5 5 5 7 5 5 5 5 5 5 5 6 6 6 6 6 8 9 ",
"0 a 4 5 b 5 5 c d e e e e f e e e g c 5 5 5 5 5 h 9 ",
"i j k l m l n e ~ o p o o o o o o / f l m l l m q r ",
"s t u v w x y z o p A o o o o B o / z C v D x v E F ",
"G H I J K K L z ~ / M z N O e P o / z L J K Q K R S ",
"T U V W W W V X Y Z e ` W  .` z Y Z e V ..W W W +.@.",
"#.$.%.&.*.*.%.X Y Z O =.%.%.=.z Y Z O -.;.*.*.*.>.,.",
"'.).&.!.~.!.{.N ].^./.O (._.d P :.^.O &.<.~.!.~.[.}.",
"|.1.&.2.3.3.4.N 5.6.7.6.8.6.6.9.6.8.O 4.3.3.3.3.0.a.",
"b.c.d.e.f.f.d.g.h.i.j.j.j.k.k.j.i.h.(.d.f.l.f.f.m.n.",
"o.p.q.r.s.t.u.v.w.x.y.z.z.y.y.z.z.w.v.A.s.t.t.s.B.C.",
"D.E.F.G.G.H.H.I.J.K.K.L.L.K.K.L.L.L.I.G.G.H.H.H.M.N.",
"O.P.Q.R.S.T.S.S.R.S.U.R.R.V.S.W.W.S.S.S.S.T.S.S.X.Y.",
"Z.`. +.+++++++++++++++++++++++++++++++++++++++++@+#+",
"N O d d d O O d d $+d d d d d d %+d d d d d d d &+*+",
"=+=+=+=+=+-+-+=+=+=+=+=+=+=+=+=+=+=+=+=+;+=+=+=+>+,+",
"'+'+)+)+)+)+'+'+'+'+'+!+'+'+'+'+~+~+{+{+{+~+~+~+]+^+",
"/+/+/+(+_+_+/+:+<+/+/+/+/+/+/+/+/+/+/+[+[+/+/+/+}+/+",
"|+|+|+|+|+|+|+|+|+1+|+2+2+|+|+|+|+|+|+|+|+|+|+3+4+|+"};
