/* XPM */
static char * menusep_xpm[] = {
"28 1 27 1",
" 	c None",
".	c #155B83",
"+	c #175E86",
"@	c #1A6088",
"#	c #185E87",
"$	c #155A85",
"%	c #195E89",
"&	c #21668F",
"*	c #236792",
"=	c #1F648F",
"-	c #195F8A",
";	c #155C86",
">	c #1F628D",
",	c #21638E",
"'	c #155B86",
")	c #145985",
"!	c #12537E",
"~	c #11537D",
"{	c #1C5C86",
"]	c #1F5E87",
"^	c #1D5C85",
"/	c #0F4F78",
"(	c #104E77",
"_	c #104F7A",
":	c #0F507A",
"<	c #14557F",
"[	c #18557C",
".+@#$%&**=-;>,')!~{]^/(/_:<["};
