/* XPM */
static char * menubg_xpm[] = {
"160 36 31 1",
" 	c None",
".	c #4F7DAC",
"+	c #517FAE",
"@	c #5380AF",
"#	c #5381B0",
"$	c #5785B4",
"%	c #5481B0",
"&	c #5784B3",
"*	c #5B89B8",
"=	c #5885B4",
"-	c #4F7CAB",
";	c #507DAC",
">	c #4C7AA9",
",	c #4C79A8",
"'	c #4B79A8",
")	c #5D8AB9",
"!	c #5583B2",
"~	c #5280AF",
"{	c #527FAE",
"]	c #5684B3",
"^	c #5A88B7",
"/	c #6992BB",
"(	c #6F97C1",
"_	c #6B94BD",
":	c #6F98C1",
"<	c #6A92BC",
"[	c #6790B9",
"}	c #668FB8",
"|	c #678FB9",
"1	c #6B93BC",
"2	c #6E96C0",
".+..@@@###$#%#&%%$$$$$$$$$$$$*$=$*$*$*$*$**$**=****$$*$**$*=$$$$$$$$$$%$$$$%$$#$%%@+###++..--;-..->--,''>>>'->--+.+.+#########%$%$$$$%$$$$$$$**=$*$**$****))==)=",
"+++%@@######$&%&$%$$$$$$$===$$*$*$*$*$*$*$$****$$$*$*$*$$=$**$*$$$$$$$$$$%%$###%%%@+#+...+--->>+>>>>,'''>>>'-....+.++.#+##%%$#$#$%%$$$$$$$====$**$*$****=*==))))",
"++@@@#####$#&%!!$$$%$$$$==$*$$$=$*$*$*$*$*$*$*$**$$*$*=**=*$===$$$$$$$$$%$$%%$###%#+.+.+.++->.->>.>'''>>-->-.>.>+.+...#@###$%$#$%$$$$$$$$=$*$==$$*$**$****=))==)",
"++@@%####%$%!!!$$%$$$$$$==$$*=*=*$*$*$*$*$*$*$*$$**$*$==$$=$$$$$$$$$%$%%$%##%######+@.+.+.+>.->>>>',,,-''>---.+..+.+#####%####$%%$%$$$$$$*$$*=$**$*$**$*$*))=))=",
"~@#####&##$%$%#$$%$$$$$$$=$$$$$==*$*$*$*$*$**$*$**$*=$$$$*===$$$$$$#$$#$%$###%%++@++.++....>->>''-'>>-.>>-->--.+.++{%+#######$%$]]]=$$$$$=$^$^=*$*$$*$*******=**",
"@@######%$%$%$$$$$$$$$$=$=*$*$*=*$*$*$*$*$*$=*$*===*$*=*===$$$$$$$$$$#$#%%####%#@++++.>..----'>>,,''>>>>>...;;+.+{#++%###%]]$#$$=]=$$$$=$^$$$=*$*$*$**$*$*=***=*",
"@####%#&%%#&$#$&$$$$$$$=$*$*$$$*=*$*$*$*$*$**=*$*=*$$$$$==$$==$%#$$##$$##%%###+#@+-+.-++->.>>>>>'''>>->-.>.-;+.++.+#####]#%]#$]]%=$$$$$=^$^$^=$*$*$**********=**",
"@####%&#$&&!#$#$$$$$$$$=$$$$*$$=*=*$*$*$*$*$*$$==$=$*$*$=$$$=%$$$$#$$##%$%##%+#++;+.>+.>-->>->>'',>>>-->-...;.+.+%%+%#%%]#$#$%]]]]$$$$$=^$$$^==**$*$$$$*$$*$$**$",
"###%####!!!!!$!$$$$$$$==$$$*$*=*==**$*$**$***===$=$*===$$$$$$$%$$$#$%$$%#####{{+.+.+.+---->''-,,>>>>>>>-+.>.+@.@++#####%#%#$%]]]]$$$$$$=$$$^=^=^$*$**$*$*$*$$*$*",
"##%$#&#$!!!!$!$!$$$$$$==*$$$$$======*$*$====$$$*^^$$==$$$$$$%$$%$#$#%%#####++%+++++.+>->'>>>',,'>>->>-----+...@.+%####]%#$$#]$]]]$$$$$==$^$$=^=$*$*$$*$*$*$**$*$",
"######&%!!#$!$&$$$$$$$===*$*$*$$=*=*===*=*$**=*$==$$=$$$$$%$$$$$#$%##%##%%{%#++.-+;;.>.>->>>''',>>->-->+.-...@+#%+###%#]#]%$%]]]==$$$$====^===^==*$**$***$***===",
"#%#%$%$&!!$$$!$$$$$$$$===$$=$$*$$$==*====$==$$$$$==$$$$$$$$$$#%$$%#$$###%+%+++-+;;;-'.>>->>>'''->>>>.>-..-.+.+#++%##%]##$%$%]$]]]]=$$$====^$^$$=$==*=*$=$==$$=*$",
"%#$##!!&##!$$#$$$$$$$===$*$*$$$*$*$$$$$*$*$*==*$$$$$$$=$$%$$$#$#%#%#####%{%+.+.+.+.>---.''-''',->>>>'-;;;+;+.+@@###%#%#%$%$%]]]]]$$$$$==^$$$^$$^*=*==*=*$*$$$*=$",
"####$#!!&$$&&$$$$$$$$===$$$$*$$$$$*$*$$$$$$$==$$$$$$$$$%$$$#$##$$$######{%+++...+>>.>.>>->'''','-.>.--;;;;;+##+####%#]%$%$%]]]]]]=$$$$$=$$^$^$=^=$$$$=$$$$*$$$==",
"##$%#$%$#$#$$!==$$$$$===$*$$$*$*$$$$$*$*$*$$==$$$$$$$$$$$#$#$%%#%%$###+#%{+.....+..>->->,,'''->'.>.->+.++.++.++@###%###$$%$%]]]]$$$$$$$===^$$$$$$$*$$*$$$=====$$",
"$#$%$#$%!$$&$#$$$$$$$$==$$*$$$$$*$*$$$$$$$*$=$$$$$$$$$%$$$#$%$#$######%+{+.+.+-.--'>>>>>,,''',>>>.>.-+>..+++%##%###]]]]#%$%$]]]]$$$$$$$$===$$^^$$*$$$$*$$===$$$$",
"%##!!!%$$!$%$$$$$$$$$$==$*$*$$$$$$$$$$^=====$$$$$$$$$%$%$#$%$%%###%%{#{#++-+...-.>--.->>''''>'->-.>.-.-++++.@+####%]%##$$%]$]]]]==$$$$$$====^$=^*=$$*===$$$$$$$$",
"$%$#!!$%!$&$&$$$$$$$$$==$$$$$*$*$*$**$===$$$$$$$$$$%$$$#%$%$$#%%###+#++++++...-->.>->>>''''->>->.>..-.+.++##@####%%##]$#%$%$]]]]]$$$$$$$$====$=$==$===$$$$$$$$$$",
"%%%$!&%$$&$&$$$$$$$$$$======*=$$*=$$====$$$$$$$$$$%$$%$$$$$###$%%%%#+#+++.+-..---->>>>>'',>'->-->-.--;.++.+.++###%]##%#$$%%$]]]]]$$$$$$$$$$$===$==$$$$$$$$$$$%$$",
"%$$#&%$$!$#$$$$$$$$$$$$=======$===$==$$$$$$$$$$$$$$$=#$#%###%#%%%+%{#++-+....--->>.>>>',,,-'>>->.>..;;+..+###@######]]]%%$$$]]]]]=$$$$$$$$$$$$$$$$$$$$$$$$$$$$$$",
"!!!!%&$&!$!$$%$$$$$$$$$$=========$$$$$$$$$$$$$%$#$$$$%$#%%%#%###%%{{+#.......>-->>>'-,'''>>>>>----...+.+{++{#######]%%$%$%]]]]]]]$$$$$$$$$$$$$$$$$$$$$$$$]]]$$$]",
"!!!!=$%$$!$!$$=$$$$$$$$$$$$====$$$$$$$$$$$$$$$$$$$##%$%$$$#$####%{{+.+.+....>..>>>>',,,,>>.-->.>--..+.+.{+%#{####]##]]%$%$%$]]]]]=$$$$$$$$$$$$$$$$$$=$$]]]]]$%]%",
"!!!!%$$&!$!$&$$$$$$$$$$$$$$$$$$$$$$$$$$$$$$$%$%$$$$$$%%##%######{{{+.+.+....-->--->>,,'->>>>>-.>-....++++{#{####%%]###$#$%]$]]]]]]==$$$$$$$$$$$$$$$$]]]]]]]]%$%]",
"!!!!$##$$!$!$$$$$$$$$$$$$$$$$$$$$$$$$$$$$%$$$$$$$##%$#$#%%######++{++.+....--->>'>>>''''>>.>>.-.....+.+++%{######%]#]]#$%=%]]]]]]=%=$$$$=$$$$$$$$$]]]]]]$$]%]%$%",
"!!!!$#$&!$!$&$$$$$$$$$$$$$$$$$$$$$$$$$$$$$$%$$$%#$%$%%#%%####@@@++.+.++.----->.>''-'''-'>>>-.>>.-;-+;+++{%{%#####]%#%]$#$%$$]]]]]]=]%==$==$$==$$]]]]]]$]$%$#$%$$",
"!!!!#$!$$!$!$$&$=$$$$$$$$$$$$$$$$$$$$%=$$#$$$%%$$###$#$#%###@@@@+++.+.-.--->>->>>>,''','>>>.>..+-;+.++;+%{%{######]#%$#$#$%]]]]]]]]]===]%=]]]]]]]]]]]]=%%$%$#$%#",
"!!!!=%%$&$!$&%$#==$$$$$$$$$$$$$==%%=$$$%$$$%$#$%%#$##%######@@#~++.+...----->->>>>,'''>>--.>.>--.+.+;+++{{{%###%]]##%#$#$%]%]]]]]]]]]]=]=]=]]]]]]]]]$%$%$%$%]#]#",
"!!!!%&$&$#$&$&$$%$$$$$$$$$$$$$%==$$$$%$$$%$%#$#$$$#%$#######~~..+.+-...---->>>>>>',,,->>>>>.-.--+-+.+;+{{{{%###%###]#$#$%$%$$]]]]]]]]]%=]]]]]]]]]]]]%=%$%$%$####",
"!!!!&%$#!$!$!$&&%$%$%$%$$$$$$$$$$$$$$%$%$%$##$$%%########@@##.@.+.+-+-;---->>'-',,'>>>>>>>.>>.--.+.+.{.#######%%$#$#%$%$$%=%]]]]]]]]]]]]]]]]]]]]]$%$%$#$%]]]##]%",
"!!!!%&!$!$$!$!$#$$$$$$$$$%#$$%$%#$%$$$%$#$%$$#%##$######@@@@#....+.-.>.-->>->''',,'>>>>->.-...+.+.+..#%{######%%#####%$#%$%=%]]]]]]]]]]]]]]]]]]]$]$%$#]%$###%]##",
"!!!!!!!!$#=$!$!$$$%$$$%$$$$$%=$$$$$%$%$%$#$#%#$%%######@@@~.#...+.....--->->>>-'',''>>>-->.>--...+.+++{{%{#####%%#$##$#$$%=%=$]]]]]]]]]]]]]]===%%$#$$#$%%#]#%%##",
"!!!!!!!!%=%%$!$&$%$$$%$$$%$%$&$%#%$$%$%$$$##%$##%%###@@@@@~~.~~....>.--'>->>>>''',-'>>>----....++.+.+++%{####%%%#$#%%$$#%$%=%%=$]]]]]]]]]]]]]%]%$#$%#$##]###%###",
"#&$%!!!&&#$&$=%=$$%$$$$$$$$&$%$%$#$%%&!!%$%%#$%#%%###@@@#.~...+....---->>->>>-'','>-'''-->--..--+-+++{%{#{###%%%%#$%#$#$%$%$=%]$]]]]=]]]]=%]%]]]=%$%$#$%##]%####",
"##%$!!&##&&%%%$$$%%$%$%%%%&#%$%$%$%$&!!###$%##%#%###@@@@~.@......->.-->-->>>''',,-''-;->>-;;..-++++;+%{%{%##%%%]#$%%$#$#]%$#%]%$]]]]%]]]]]{=]]%]%$%$$%$#]#%%%###",
"&#$%$&$=$!&%$=$%$]$$%$=$$$$$$#$@&%&!$^#&##%%$%%%%%%#@@@@@@###..+....--->>->>>>>-'',-;,;-;--+.++.++@++{%{##%%##]%%==%$$$%$=$$$$$$=]]===]]]==]]]%=%=$%]%%%]%%$%%%%",
"/(/__//_//:/://_:<(<(/_<(<<(<(/(//(/////:/:<<//___<<<<</[[/[//<<[/[/[[[[[[/}}}}}}/|/}|//[[/[//////11/111</1/1(</<2////:/(_<(///:<1(<(<11(<(<1(<1(</(</2/<<<</1<<"};
