/* XPM */
static char * minimizeO_xpm[] = {
"26 46 301 2",
"  	c None",
". 	c #293357",
"+ 	c #273457",
"@ 	c #EAF4FF",
"# 	c #EBF4FF",
"$ 	c #EAF5FF",
"% 	c #ECF5FF",
"& 	c #EAF0FF",
"* 	c #505568",
"= 	c #F6FCFF",
"- 	c #F8FBFF",
"; 	c #F7FDFF",
"> 	c #BAE5FB",
", 	c #3E505C",
"' 	c #CBE3F0",
") 	c #A8CFE7",
"! 	c #ABD0E8",
"~ 	c #ABD2EB",
"{ 	c #AED2EC",
"] 	c #AFD6EE",
"^ 	c #B2D6F0",
"/ 	c #B5D8F1",
"( 	c #B6D9F2",
"_ 	c #B8DAF2",
": 	c #B7DBF3",
"< 	c #B9DBF3",
"[ 	c #B8DBF3",
"} 	c #B7DAF2",
"| 	c #B5D7F0",
"1 	c #B1D5EF",
"2 	c #AFD6ED",
"3 	c #ADD3EC",
"4 	c #C5DFEF",
"5 	c #B7E3FB",
"6 	c #3C4F5A",
"7 	c #B4E2FA",
"8 	c #394C59",
"9 	c #C8DFEF",
"0 	c #A1C9E5",
"a 	c #A3CAE6",
"b 	c #A6CCE7",
"c 	c #A7CEE8",
"d 	c #AAD1EC",
"e 	c #ABD2EC",
"f 	c #AED5EE",
"g 	c #AFD6F0",
"h 	c #AFD7F1",
"i 	c #AFD8F1",
"j 	c #B0D8F2",
"k 	c #AFD8F2",
"l 	c #B0D9F2",
"m 	c #AED6EF",
"n 	c #ABD4EE",
"o 	c #A9D2EC",
"p 	c #AACFEB",
"q 	c #A8CDE8",
"r 	c #BFDBED",
"s 	c #B2E2FA",
"t 	c #354856",
"u 	c #C3DCEC",
"v 	c #99C5E0",
"w 	c #9BC6E1",
"x 	c #9DC6E3",
"y 	c #9FC9E5",
"z 	c #A1CBE7",
"A 	c #A5CCE9",
"B 	c #A7CFEC",
"C 	c #A9D1EC",
"D 	c #AAD2ED",
"E 	c #ABD3EE",
"F 	c #ABD3EF",
"G 	c #AAD2EE",
"H 	c #A6CEEB",
"I 	c #A3CCE8",
"J 	c #BBD7EB",
"K 	c #B1E2FA",
"L 	c #314554",
"M 	c #BDD8EB",
"N 	c #92BEDD",
"O 	c #94C0DD",
"P 	c #96C1DF",
"Q 	c #97C3E0",
"R 	c #99C6E3",
"S 	c #9BC8E5",
"T 	c #9EC9E7",
"U 	c #9FCBE8",
"V 	c #A1CCEA",
"W 	c #A2CCEB",
"X 	c #A2CDEC",
"Y 	c #A2CDEB",
"Z 	c #A1CCEB",
"` 	c #A1CCE9",
" .	c #9DC9E7",
"..	c #9BC7E4",
"+.	c #9AC6E3",
"@.	c #94BFDD",
"#.	c #B5D2E8",
"$.	c #2B4351",
"%.	c #B8D4E7",
"&.	c #87B7D7",
"*.	c #89B8D8",
"=.	c #8BB9DB",
"-.	c #8DBBDC",
";.	c #8FBEDF",
">.	c #92C1E0",
",.	c #95C3E2",
"'.	c #98C5E3",
").	c #99C7E5",
"!.	c #99C8E5",
"~.	c #9AC8E6",
"{.	c #9AC9E6",
"].	c #99C9E6",
"^.	c #99C6E4",
"/.	c #96C5E3",
"(.	c #94C3E2",
"_.	c #91C1E0",
":.	c #90BEDE",
"<.	c #8BB9DA",
"[.	c #AECEE3",
"}.	c #082A42",
"|.	c #73A7C9",
"1.	c #146AA6",
"2.	c #176EA7",
"3.	c #1A72AB",
"4.	c #1E75AE",
"5.	c #237AB3",
"6.	c #426788",
"7.	c #535666",
"8.	c #426888",
"9.	c #287DB7",
"0.	c #2379B1",
"a.	c #1E75AF",
"b.	c #1A72AA",
"c.	c #176CA7",
"d.	c #609BC4",
"e.	c #AFE1FA",
"f.	c #092B43",
"g.	c #73A7CB",
"h.	c #156CA7",
"i.	c #186EAA",
"j.	c #1D72AD",
"k.	c #2076B0",
"l.	c #237DB7",
"m.	c #FFFFFF",
"n.	c #2484BA",
"o.	c #237CB5",
"p.	c #2076AF",
"q.	c #186DAA",
"r.	c #629BC4",
"s.	c #0A2C44",
"t.	c #76A8CD",
"u.	c #196EAB",
"v.	c #1E71AD",
"w.	c #2175AF",
"x.	c #227AB4",
"y.	c #2484B9",
"z.	c #DCDCDC",
"A.	c #238DBD",
"B.	c #2585B9",
"C.	c #227BB4",
"D.	c #2175AE",
"E.	c #1E70AD",
"F.	c #649EC6",
"G.	c #0C2D46",
"H.	c #7CADCF",
"I.	c #2173AE",
"J.	c #2375AF",
"K.	c #287AB4",
"L.	c #2881B8",
"M.	c #288DBE",
"N.	c #D7D7D7",
"O.	c #2896C4",
"P.	c #2B8DBE",
"Q.	c #2781B7",
"R.	c #287AB3",
"S.	c #2374AF",
"T.	c #699FC7",
"U.	c #12344D",
"V.	c #83ADCD",
"W.	c #2E7BB6",
"X.	c #2D7CB5",
"Y.	c #2E83BA",
"Z.	c #308CBE",
"`.	c #3197C6",
" +	c #45768F",
".+	c #437991",
"++	c #2FA3CA",
"@+	c #3197C5",
"#+	c #308BBF",
"$+	c #2D7BB5",
"%+	c #6EA4CC",
"&+	c #B3E3FB",
"*+	c #1F415E",
"=+	c #91B0CA",
"-+	c #438AC0",
";+	c #3683BC",
">+	c #378AC1",
",+	c #3895C7",
"'+	c #39A2CF",
")+	c #36ADD3",
"!+	c #35B7D6",
"~+	c #32BFD9",
"{+	c #30C3DC",
"]+	c #2DC6DC",
"^+	c #2BCBDC",
"/+	c #2ACDDC",
"(+	c #2ACBDC",
"_+	c #34B6D6",
":+	c #35ADD2",
"<+	c #39A2CC",
"[+	c #3796C7",
"}+	c #75A8D1",
"|+	c #88D5FA",
"1+	c #507391",
"2+	c #8297A7",
"3+	c #7EB0D6",
"4+	c #5097CA",
"5+	c #4398CA",
"6+	c #42A0D1",
"7+	c #41ABD6",
"8+	c #3FB8DA",
"9+	c #3BC2DF",
"0+	c #39C7E1",
"a+	c #37CFE2",
"b+	c #32D4E4",
"c+	c #30D7E4",
"d+	c #2FD8E5",
"e+	c #3AC2DF",
"f+	c #3CB8D9",
"g+	c #42ACD5",
"h+	c #41A0D0",
"i+	c #4096CA",
"j+	c #3E8CC4",
"k+	c #7CAED6",
"l+	c #87D3F9",
"m+	c #A0CBE7",
"n+	c #234055",
"o+	c #768E9E",
"p+	c #98B6CC",
"q+	c #A7DBEC",
"r+	c #A0E1EF",
"s+	c #9BE8F3",
"t+	c #91EDF6",
"u+	c #84F2F8",
"v+	c #3CF7F8",
"w+	c #24FAFA",
"x+	c #1AFCFA",
"y+	c #12FDFB",
"z+	c #0BFEFB",
"A+	c #06FEFB",
"B+	c #0BFDFB",
"C+	c #12FCFA",
"D+	c #1BFAF9",
"E+	c #25F7F8",
"F+	c #3CF3F7",
"G+	c #84EEF5",
"H+	c #93E7F2",
"I+	c #99E1EF",
"J+	c #A0D8EC",
"K+	c #9FD1E9",
"L+	c #D4DCF9",
"M+	c #8DD7FA",
"N+	c #97CEF1",
"O+	c #527EA0",
"P+	c #275270",
"Q+	c #1B4358",
"R+	c #1C475B",
"S+	c #1C4D5E",
"T+	c #1C545F",
"U+	c #1A5861",
"V+	c #185A61",
"W+	c #185D62",
"X+	c #166064",
"Y+	c #146264",
"Z+	c #146364",
"`+	c #1C535F",
" @	c #1C3E54",
".@	c #1A3C54",
"+@	c #D9DFF7",
"@@	c #D9DFF5",
"#@	c #D8DFF1",
"$@	c #E6ECFC",
"%@	c #EDF0FF",
"&@	c #EDF1FD",
"*@	c #ECF2FE",
"=@	c #EBF1FD",
"-@	c #DBE0F6",
";@	c #D9E0F3",
">@	c #DADFF2",
",@	c #D9DEF1",
"'@	c #D8DDF0",
")@	c #D7DEF0",
"!@	c #D7DCEF",
"~@	c #D5DCEE",
"{@	c #E3EAFF",
"]@	c #E1EBFF",
"^@	c #E4EBFF",
"/@	c #E0EAFF",
"(@	c #ACBCE0",
"_@	c #ACBBE2",
":@	c #AABCE2",
". . . . + + + . . . . . . . . . . . . . . . . . . . ",
"@ # # $ $ $ $ # # # % # # # # # # # # # # # # # # # ",
"& * = - - = = - - = = - - = = - - = = - - = ; - - - ",
"> , ' ) ! ~ { ] ^ / ( _ : < [ [ [ } ( | 1 2 3 ~ ! 4 ",
"> , ' ) ! ~ { ] ^ / ( _ : < [ [ [ } ( | 1 2 3 ~ ! 4 ",
"5 6 ' ) ! ~ { ] ^ / ( _ : < [ [ [ } ( | 1 2 3 ~ ! 4 ",
"7 8 9 0 a b c d e f g h i j k l h g m n o p q b a r ",
"s t u v w x y z A B C D E E F E G D C H I z y x w J ",
"K L M N O P Q R S T U V W W X Y Z ` U  ...+.Q P @.#.",
"K $.%.&.*.=.-.;.>.,.'.).!.~.{.].!.^./.(._.:.-.<.*.[.",
"K }.|.1.2.3.4.5.6.7.7.7.7.7.7.7.7.7.7.8.9.0.a.b.c.d.",
"e.f.g.h.i.j.k.l.7.m.m.m.m.m.m.m.m.m.m.7.n.o.p.j.q.r.",
"K s.t.u.v.w.x.y.7.z.z.z.z.z.z.z.z.z.z.7.A.B.C.D.E.F.",
"s G.H.I.J.K.L.M.7.N.N.N.N.N.N.N.N.N.N.7.O.P.Q.R.S.T.",
"7 U.V.W.X.Y.Z.`. +7.7.7.7.7.7.7.7.7.7..+++@+#+Y.$+%+",
"&+*+=+-+;+>+,+'+)+!+~+{+]+^+/+(+]+{+~+_+:+<+[+>+;+}+",
"|+1+2+3+4+5+6+7+8+9+0+a+b+c+d+c+b+a+0+e+f+g+h+i+j+k+",
"l+m+n+o+p+q+r+s+t+u+v+w+x+y+z+A+B+C+D+E+F+G+H+I+J+K+",
"L+M+N+O+P+Q+R+S+T+U+V+W+X+Y+Z+Y+X+W+V+U+`+S+R+Q+ @.@",
"+@@@#@$@%@&@&@&@&@&@&@&@*@&@=@&@=@&@=@&@=@&@=@&@=@&@",
"-@;@;@>@>@>@>@>@>@,@,@,@#@'@)@'@)@'@)@'@)@!@)@!@~@!@",
"{@]@]@{@{@]@]@{@{@^@{@]@]@]@/@/@/@/@/@/@/@/@/@/@/@/@",
"(@_@(@_@(@_@(@_@(@_@_@_@_@_@(@_@(@_@_@_@_@:@:@_@_@_@",
". . . . + + + . . . . . . . . . . . . . . . . . . . ",
"@ # # $ $ $ $ # # # % # # # # # # # # # # # # # # # ",
"& * = - - = = - - = = - - = = - - = = - - = ; - - - ",
"> , ' ) ! ~ { ] ^ / ( _ : < [ [ [ } ( | 1 2 3 ~ ! 4 ",
"> , ' ) ! ~ { ] ^ / ( _ : < [ [ [ } ( | 1 2 3 ~ ! 4 ",
"5 6 ' ) ! ~ { ] ^ / ( _ : < [ [ [ } ( | 1 2 3 ~ ! 4 ",
"7 8 9 0 a b c d e f g h i j k l h g m n o p q b a r ",
"s t u v w x y z A B C D E E F E G D C H I z y x w J ",
"K L M N O P Q R S T U V W W X Y Z ` U  ...+.Q P @.#.",
"K $.%.&.*.=.-.;.>.,.'.).!.~.{.].!.^./.(._.:.-.<.*.[.",
"K }.|.1.2.3.4.5.6.7.7.7.7.7.7.7.7.7.7.8.9.0.a.b.c.d.",
"e.f.g.h.i.j.k.l.7.m.m.m.m.m.m.m.m.m.m.7.n.o.p.j.q.r.",
"K s.t.u.v.w.x.y.7.z.z.z.z.z.z.z.z.z.z.7.A.B.C.D.E.F.",
"s G.H.I.J.K.L.M.7.N.N.N.N.N.N.N.N.N.N.7.O.P.Q.R.S.T.",
"7 U.V.W.X.Y.Z.`. +7.7.7.7.7.7.7.7.7.7..+++@+#+Y.$+%+",
"&+*+=+-+;+>+,+'+)+!+~+{+]+^+/+(+]+{+~+_+:+<+[+>+;+}+",
"|+1+2+3+4+5+6+7+8+9+0+a+b+c+d+c+b+a+0+e+f+g+h+i+j+k+",
"l+m+n+o+p+q+r+s+t+u+v+w+x+y+z+A+B+C+D+E+F+G+H+I+J+K+",
"L+M+N+O+P+Q+R+S+T+U+V+W+X+Y+Z+Y+X+W+V+U+`+S+R+Q+ @.@",
"+@@@#@$@%@&@&@&@&@&@&@&@*@&@=@&@=@&@=@&@=@&@=@&@=@&@",
"-@;@;@>@>@>@>@>@>@,@,@,@#@'@)@'@)@'@)@'@)@!@)@!@~@!@",
"{@]@]@{@{@]@]@{@{@^@{@]@]@]@/@/@/@/@/@/@/@/@/@/@/@/@",
"(@_@(@_@(@_@(@_@(@_@_@_@_@_@(@_@(@_@_@_@_@:@:@_@_@_@"};
