/* XPM */
static char * minimizeA_xpm[] = {
"26 46 167 2",
"  	c None",
". 	c #293357",
"+ 	c #273457",
"@ 	c #EAF4FF",
"# 	c #EBF4FF",
"$ 	c #EAF5FF",
"% 	c #ECF5FF",
"& 	c #EAF0FF",
"* 	c #505568",
"= 	c #F6FCFF",
"- 	c #F8FBFF",
"; 	c #F7FDFF",
"> 	c #EBF1FF",
", 	c #525661",
"' 	c #EEF1F8",
") 	c #E4E7EE",
"! 	c #E4E7F0",
"~ 	c #E6E6EE",
"{ 	c #EFEFF7",
"] 	c #EBEFFA",
"^ 	c #E3E7F2",
"/ 	c #E3E7F0",
"( 	c #E4E6F2",
"_ 	c #ECEFF6",
": 	c #525662",
"< 	c #ECF0FB",
"[ 	c #E3E7F3",
"} 	c #EDF0F9",
"| 	c #E0E4F0",
"1 	c #DEE4F0",
"2 	c #E0E4EF",
"3 	c #EAEDF6",
"4 	c #E8ECF7",
"5 	c #DCE0EC",
"6 	c #DAE0EC",
"7 	c #E7E9F5",
"8 	c #E5E9F4",
"9 	c #D6DCE8",
"0 	c #D5DBE9",
"a 	c #D7DAE9",
"b 	c #E3E5F1",
"c 	c #E0E7F1",
"d 	c #CFD5E3",
"e 	c #CFD5E5",
"f 	c #CFD5E1",
"g 	c #D1D5E1",
"h 	c #CFD4E7",
"i 	c #DFE3EF",
"j 	c #EDF0FF",
"k 	c #505662",
"l 	c #CAD0DE",
"m 	c #AAAFC2",
"n 	c #A9AFC5",
"o 	c #A9B0C3",
"p 	c #757B8B",
"q 	c #535762",
"r 	c #545760",
"s 	c #545662",
"t 	c #767C8C",
"u 	c #AAAFC3",
"v 	c #C3C9D7",
"w 	c #505664",
"x 	c #C9CFDF",
"y 	c #AAB0C6",
"z 	c #A8B0C7",
"A 	c #A8B0C5",
"B 	c #535667",
"C 	c #FCFFFF",
"D 	c #FEFFFF",
"E 	c #FEFEFF",
"F 	c #FDFEFF",
"G 	c #525566",
"H 	c #A9AFC7",
"I 	c #C5CADD",
"J 	c #525564",
"K 	c #CAD0E0",
"L 	c #A9B0CA",
"M 	c #A9B1C8",
"N 	c #535669",
"O 	c #DBDBE3",
"P 	c #DDDDDF",
"Q 	c #DCDCDE",
"R 	c #DCDBE0",
"S 	c #DBDCE1",
"T 	c #AAB0C8",
"U 	c #C4C9DC",
"V 	c #CDD3E3",
"W 	c #ACB2C8",
"X 	c #ABB2CC",
"Y 	c #AAB4CD",
"Z 	c #ACB2CA",
"` 	c #51566A",
" .	c #D4D6E2",
"..	c #D6D7DC",
"+.	c #D5D5DD",
"@.	c #D7D8DD",
"#.	c #D4D7E0",
"$.	c #C7CCDF",
"%.	c #ECF2FF",
"&.	c #595C6B",
"*.	c #B2B8CE",
"=.	c #AFB6D0",
"-.	c #ADB7D0",
";.	c #AEB8D1",
">.	c #787E96",
",.	c #515669",
"'.	c #515767",
").	c #AFB7CE",
"!.	c #B0B6CE",
"~.	c #C8CDE0",
"{.	c #EBF0FF",
"].	c #666978",
"^.	c #C6CCDA",
"/.	c #BBC2D5",
"(.	c #B5BDD4",
"_.	c #B6BCD4",
":.	c #B6BCD2",
"<.	c #B7BCD2",
"[.	c #B6BCD6",
"}.	c #CCD1E4",
"|.	c #E5EAFD",
"1.	c #9194A3",
"2.	c #858897",
"3.	c #D2D8E8",
"4.	c #C1C8DB",
"5.	c #BEC5D8",
"6.	c #BCC2D8",
"7.	c #BCC3D6",
"8.	c #BDC3D9",
"9.	c #BDC4D7",
"0.	c #D1D6E9",
"a.	c #D7DEF1",
"b.	c #D5DBEB",
"c.	c #545A68",
"d.	c #7D8393",
"e.	c #C7CDDD",
"f.	c #DFE5F5",
"g.	c #DCE3F5",
"h.	c #DDE2F5",
"i.	c #DEE3F6",
"j.	c #DBE2F4",
"k.	c #DDE3F3",
"l.	c #D9DFF7",
"m.	c #D3DAED",
"n.	c #979DAD",
"o.	c #6A6D7C",
"p.	c #D9DFF5",
"q.	c #D8DFF1",
"r.	c #E6ECFC",
"s.	c #EDF1FD",
"t.	c #ECF2FE",
"u.	c #EBF1FD",
"v.	c #DBE0F6",
"w.	c #D9E0F3",
"x.	c #DADFF2",
"y.	c #D9DEF1",
"z.	c #D8DDF0",
"A.	c #D7DEF0",
"B.	c #D7DCEF",
"C.	c #D5DCEE",
"D.	c #E3EAFF",
"E.	c #E1EBFF",
"F.	c #E4EBFF",
"G.	c #E0EAFF",
"H.	c #ACBCE0",
"I.	c #ACBBE2",
"J.	c #AABCE2",
". . . . + + + . . . . . . . . . . . . . . . . . . . ",
"@ # # $ $ $ $ # # # % # # # # # # # # # # # # # # # ",
"& * = - - = = - - = = - - = = - - = = - - = ; - - - ",
"> , ' ) ) ) ) ! ! ) ) ! ! ) ) ! ! ) ) ! ! ! ! ! ~ { ",
"> , ] ^ ^ ^ ^ ^ ^ ^ ^ ^ ^ ^ ^ ^ ^ ^ / ^ ( ( ( ( ! _ ",
"> : < [ [ [ [ [ [ [ [ [ [ [ [ [ [ ^ ^ [ [ [ [ ^ ^ } ",
"> , ] | | 1 1 | | 1 1 | | 1 | | | | 1 | | 1 1 | 2 3 ",
"> , 4 5 5 6 6 5 5 6 6 5 5 6 6 5 5 6 6 5 6 6 6 6 5 7 ",
"> , 8 9 0 0 0 0 0 0 0 0 0 0 0 0 0 0 0 0 0 0 0 0 a b ",
"> : c d e e e e d f g g g g g g g g f d e e e h e i ",
"j k l m n o o m p q r s s r r s r r q t u o n n u v ",
"j w x y z z A n B C D E E D D E F D C G n H z H n I ",
"> J K y L L M H N O P Q Q Q Q R Q Q S B T T L L y U ",
"> J V W X Y X Z `  ...........+.@...#.` Z X X X Z $.",
"%.&.x *.=.-.;.=.>.,.B B B '.'.G B '.,.>.=.).=.=.!.~.",
"{.].^./.(.(.(.(._.:.<.<.<.:.:.<.<.:.:.(.(.(.(.[._.}.",
"|.1.2.3.4.5.6.6.6.6.7.6.8.7.9.6.6./.6.6.6.6.6.6.6.0.",
"a.b.c.d.e.f.g.h.g.h.g.h.g.h.g.h.g.h.g.h.g.i.j.h.h.k.",
"l.m.i.n.o.: k : k : k : k : k : k : k : k : k : : , ",
"l.p.q.r.j s.s.s.s.s.s.s.t.s.u.s.u.s.u.s.u.s.u.s.u.s.",
"v.w.w.x.x.x.x.x.x.y.y.y.q.z.A.z.A.z.A.z.A.B.A.B.C.B.",
"D.E.E.D.D.E.E.D.D.F.D.E.E.E.G.G.G.G.G.G.G.G.G.G.G.G.",
"H.I.H.I.H.I.H.I.H.I.I.I.I.I.H.I.H.I.I.I.I.J.J.I.I.I.",
". . . . + + + . . . . . . . . . . . . . . . . . . . ",
"@ # # $ $ $ $ # # # % # # # # # # # # # # # # # # # ",
"& * = - - = = - - = = - - = = - - = = - - = ; - - - ",
"> , ' ) ) ) ) ! ! ) ) ! ! ) ) ! ! ) ) ! ! ! ! ! ~ { ",
"> , ] ^ ^ ^ ^ ^ ^ ^ ^ ^ ^ ^ ^ ^ ^ ^ / ^ ( ( ( ( ! _ ",
"> : < [ [ [ [ [ [ [ [ [ [ [ [ [ [ ^ ^ [ [ [ [ ^ ^ } ",
"> , ] | | 1 1 | | 1 1 | | 1 | | | | 1 | | 1 1 | 2 3 ",
"> , 4 5 5 6 6 5 5 6 6 5 5 6 6 5 5 6 6 5 6 6 6 6 5 7 ",
"> , 8 9 0 0 0 0 0 0 0 0 0 0 0 0 0 0 0 0 0 0 0 0 a b ",
"> : c d e e e e d f g g g g g g g g f d e e e h e i ",
"j k l m n o o m p q r s s r r s r r q t u o n n u v ",
"j w x y z z A n B C D E E D D E F D C G n H z H n I ",
"> J K y L L M H N O P Q Q Q Q R Q Q S B T T L L y U ",
"> J V W X Y X Z `  ...........+.@...#.` Z X X X Z $.",
"%.&.x *.=.-.;.=.>.,.B B B '.'.G B '.,.>.=.).=.=.!.~.",
"{.].^./.(.(.(.(._.:.<.<.<.:.:.<.<.:.:.(.(.(.(.[._.}.",
"|.1.2.3.4.5.6.6.6.6.7.6.8.7.9.6.6./.6.6.6.6.6.6.6.0.",
"a.b.c.d.e.f.g.h.g.h.g.h.g.h.g.h.g.h.g.h.g.i.j.h.h.k.",
"l.m.i.n.o.: k : k : k : k : k : k : k : k : k : : , ",
"l.p.q.r.j s.s.s.s.s.s.s.t.s.u.s.u.s.u.s.u.s.u.s.u.s.",
"v.w.w.x.x.x.x.x.x.y.y.y.q.z.A.z.A.z.A.z.A.B.A.B.C.B.",
"D.E.E.D.D.E.E.D.D.F.D.E.E.E.G.G.G.G.G.G.G.G.G.G.G.G.",
"H.I.H.I.H.I.H.I.H.I.I.I.I.I.H.I.H.I.I.I.I.J.J.I.I.I."};
