/* XPM */
static char * folder_48x48_xpm[] = {
"32 28 412 2",
"  	c None",
". 	c #CCCEC9",
"+ 	c #CED0CC",
"@ 	c #D0D1CD",
"# 	c #CACBC9",
"$ 	c #DBDBDA",
"% 	c #E2E3E2",
"& 	c #E9E9E9",
"* 	c #EEEFEE",
"= 	c #F1F1F1",
"- 	c #F0F0F0",
"; 	c #EBEBEB",
"> 	c #E2E2E1",
", 	c #F4F4F4",
"' 	c #F3F3F3",
") 	c #F2F2F2",
"! 	c #EFEFEF",
"~ 	c #D3D4D3",
"{ 	c #F5F5F5",
"] 	c #E6E6E5",
"^ 	c #BABBB8",
"/ 	c #BCBDBA",
"( 	c #C2C3C0",
"_ 	c #C8C9C7",
": 	c #C5C6C4",
"< 	c #CBCCCA",
"[ 	c #CBCBCA",
"} 	c #CDCECC",
"| 	c #DADBDA",
"1 	c #CCCDCB",
"2 	c #D3D3D2",
"3 	c #D6D6D5",
"4 	c #DCDDDC",
"5 	c #DFE0DF",
"6 	c #E1E1E1",
"7 	c #E0E0E0",
"8 	c #DDDDDD",
"9 	c #DBDBDB",
"0 	c #D8D8D8",
"a 	c #D5D5D5",
"b 	c #D3D3D3",
"c 	c #C1C2C0",
"d 	c #F6F6F6",
"e 	c #EEEEEE",
"f 	c #EDEDED",
"g 	c #EAEAEA",
"h 	c #E8E8E8",
"i 	c #E5E5E5",
"j 	c #E2E2E2",
"k 	c #DADADA",
"l 	c #D7D7D7",
"m 	c #D4D4D4",
"n 	c #D2D2D2",
"o 	c #AAABA9",
"p 	c #ECECEC",
"q 	c #E6E6E6",
"r 	c #DEDEDE",
"s 	c #D9D9D9",
"t 	c #CDCDCD",
"u 	c #C9C9C9",
"v 	c #CCCCCC",
"w 	c #E7E7E7",
"x 	c #DCDCDC",
"y 	c #CBCBCB",
"z 	c #C2C2C2",
"A 	c #B8B9BA",
"B 	c #AEB1B3",
"C 	c #A4AAB2",
"D 	c #9CA6B4",
"E 	c #91A0B7",
"F 	c #8A9CBD",
"G 	c #7D92BA",
"H 	c #8296BC",
"I 	c #798DB7",
"J 	c #7C8DB8",
"K 	c #D4D5D4",
"L 	c #F7F7F7",
"M 	c #DFDFDF",
"N 	c #CBCCCC",
"O 	c #C5C6C7",
"P 	c #BFC3C7",
"Q 	c #B5BCC6",
"R 	c #A3AFC1",
"S 	c #8A9BBB",
"T 	c #748BB7",
"U 	c #5F7BB2",
"V 	c #4C6BAC",
"W 	c #3B5AA1",
"X 	c #2E4C97",
"Y 	c #2A4892",
"Z 	c #536AA4",
"` 	c #7F8FBA",
" .	c #8292BC",
"..	c #C7C8C6",
"+.	c #D1D1D1",
"@.	c #CFD0D4",
"#.	c #C1C6D0",
"$.	c #AAB4C9",
"%.	c #91A1C3",
"&.	c #798FBE",
"*.	c #617DB9",
"=.	c #4B6BB1",
"-.	c #3B5EAC",
";.	c #3458AA",
">.	c #3459AB",
",.	c #3458AB",
"'.	c #3357A9",
").	c #3255A6",
"!.	c #3152A3",
"~.	c #2F509E",
"{.	c #4B65A7",
"].	c #7F90BD",
"^.	c #7F8FBC",
"/.	c #7F8FBB",
"(.	c #8190BB",
"_.	c #BDBEBC",
":.	c #F8F8F8",
"<.	c #B9B9B9",
"[.	c #8C98B6",
"}.	c #3F599C",
"|.	c #2F4D98",
"1.	c #2F4F9E",
"2.	c #3154A4",
"3.	c #3357AA",
"4.	c #355AAE",
"5.	c #375CB0",
"6.	c #385EB2",
"7.	c #395FB3",
"8.	c #395FB4",
"9.	c #385EB3",
"0.	c #375DB1",
"a.	c #355BAE",
"b.	c #4462AC",
"c.	c #7F91C2",
"d.	c #7F91C0",
"e.	c #7F90BE",
"f.	c #A4A5A3",
"g.	c #91959C",
"h.	c #2E4A92",
"i.	c #2D4C99",
"j.	c #3052A1",
"k.	c #365BAF",
"l.	c #385FB2",
"m.	c #3A61B5",
"n.	c #3C63B7",
"o.	c #3D64B9",
"p.	c #3E65BA",
"q.	c #3C62B7",
"r.	c #3A60B5",
"s.	c #3E61B2",
"t.	c #7E92C6",
"u.	c #7F92C5",
"v.	c #7F91C3",
"w.	c #C4C4C4",
"x.	c #606F90",
"y.	c #2E4E9B",
"z.	c #3355A4",
"A.	c #375DAD",
"B.	c #3B62B3",
"C.	c #3F67B7",
"D.	c #426ABA",
"E.	c #446DBD",
"F.	c #466FBF",
"G.	c #466FC0",
"H.	c #466FC1",
"I.	c #456EC1",
"J.	c #446CC1",
"K.	c #436BC0",
"L.	c #4269BF",
"M.	c #4068BD",
"N.	c #3F66BB",
"O.	c #3D63B8",
"P.	c #3D63B6",
"Q.	c #7A90C9",
"R.	c #7F93C9",
"S.	c #8093C7",
"T.	c #F9F9F9",
"U.	c #B2B3B2",
"V.	c #455E95",
"W.	c #3659A5",
"X.	c #3B62AF",
"Y.	c #4069B5",
"Z.	c #456FBA",
"`.	c #4973BE",
" +	c #4C78C2",
".+	c #4F7AC4",
"++	c #507BC6",
"@+	c #4F7BC6",
"#+	c #4E79C5",
"$+	c #4D77C5",
"%+	c #4B75C4",
"&+	c #4972C4",
"*+	c #466FC3",
"=+	c #446CC2",
"-+	c #436BC1",
";+	c #4168BE",
">+	c #748DCC",
",+	c #7F95CE",
"'+	c #8196CC",
")+	c #CACBCA",
"!+	c #9EA0A1",
"~+	c #3C5EA2",
"{+	c #3E66AF",
"]+	c #446EB7",
"^+	c #4A75BC",
"/+	c #4F7BC1",
"(+	c #5481C5",
"_+	c #5784C8",
":+	c #5784C9",
"<+	c #5683C8",
"[+	c #5481C7",
"}+	c #537FC7",
"|+	c #517CC6",
"1+	c #4C76C5",
"2+	c #466EC3",
"3+	c #6C88CD",
"4+	c #7F96D2",
"5+	c #7F95D0",
"6+	c #BABBB9",
"7+	c #FAFAFA",
"8+	c #878E99",
"9+	c #3F67AD",
"0+	c #4671B7",
"a+	c #4D79BD",
"b+	c #5381C3",
"c+	c #5988C8",
"d+	c #5D8CCA",
"e+	c #5D8CCB",
"f+	c #5D8DCB",
"g+	c #5C8BCA",
"h+	c #5B89CA",
"i+	c #5987C9",
"j+	c #517DC7",
"k+	c #4770C3",
"l+	c #446DC2",
"m+	c #6785CC",
"n+	c #8098D5",
"o+	c #A9AAA8",
"p+	c #738196",
"q+	c #4672B5",
"r+	c #4E7CBC",
"s+	c #5685C3",
"t+	c #5E8ECA",
"u+	c #6394CE",
"v+	c #6495CF",
"w+	c #6596D0",
"x+	c #6596CF",
"y+	c #6192CD",
"z+	c #5F8FCB",
"A+	c #5A88C9",
"B+	c #5480C7",
"C+	c #4871C3",
"D+	c #6182CA",
"E+	c #849BD4",
"F+	c #999A98",
"G+	c #CECECE",
"H+	c #657A97",
"I+	c #4E7CBB",
"J+	c #5787C3",
"K+	c #6192CC",
"L+	c #699AD2",
"M+	c #6B9ED4",
"N+	c #6D9FD6",
"O+	c #6EA1D6",
"P+	c #6EA1D7",
"Q+	c #6DA0D6",
"R+	c #6C9ED5",
"S+	c #6A9CD3",
"T+	c #6798D1",
"U+	c #6494CE",
"V+	c #6090CC",
"W+	c #5582C8",
"X+	c #4C77C5",
"Y+	c #5D80C8",
"Z+	c #879DD4",
"`+	c #E4E5E4",
" @	c #C6C6C6",
".@	c #5D799D",
"+@	c #5787C2",
"@@	c #6293CC",
"#@	c #6C9FD4",
"$@	c #71A5D9",
"%@	c #74A8DB",
"&@	c #76AADC",
"*@	c #76ABDD",
"=@	c #77ABDD",
"-@	c #76AADD",
";@	c #72A6D9",
">@	c #6FA2D7",
",@	c #6799D1",
"'@	c #6293CE",
")@	c #5E8DCB",
"!@	c #5988C9",
"~@	c #597FC7",
"{@	c #8BA0D4",
"]@	c #CECECD",
"^@	c #BCBCBC",
"/@	c #5C7FA8",
"(@	c #5F91CA",
"_@	c #79AEDF",
":@	c #7CB2E1",
"<@	c #7EB4E3",
"[@	c #7FB5E4",
"}@	c #7DB2E2",
"|@	c #7AAFE0",
"1@	c #73A7DA",
"2@	c #699BD3",
"3@	c #6494CF",
"4@	c #5E8ECB",
"5@	c #567FC7",
"6@	c #8BA1D3",
"7@	c #BEBEBD",
"8@	c #B5B5B4",
"9@	c #5D86B4",
"0@	c #689BD0",
"a@	c #75AADC",
"b@	c #7EB3E3",
"c@	c #81B8E5",
"d@	c #84BCE8",
"e@	c #87BEE9",
"f@	c #88C0EA",
"g@	c #87BFEA",
"h@	c #85BCE8",
"i@	c #82B9E6",
"j@	c #7FB5E3",
"k@	c #70A3D8",
"l@	c #5580C7",
"m@	c #8197C9",
"n@	c #AFB0AE",
"o@	c #AFAFAE",
"p@	c #6290C0",
"q@	c #6FA4D7",
"r@	c #7FB6E4",
"s@	c #8AC1EB",
"t@	c #8DC5EE",
"u@	c #8FC8F0",
"v@	c #91CAF1",
"w@	c #90C9F0",
"x@	c #8DC6EF",
"y@	c #8AC2EC",
"z@	c #86BEE9",
"A@	c #6E9ED4",
"B@	c #719DD2",
"C@	c #759DD2",
"D@	c #789CD2",
"E@	c #728FC3",
"F@	c #989997",
"G@	c #A8AAAC",
"H@	c #6798C9",
"I@	c #7AB0DF",
"J@	c #8CC5EE",
"K@	c #91CBF1",
"L@	c #95CFF4",
"M@	c #98D2F6",
"N@	c #99D4F8",
"O@	c #98D3F7",
"P@	c #96D0F5",
"Q@	c #92CCF2",
"R@	c #8FC7EF",
"S@	c #8EC3EB",
"T@	c #8FC0E9",
"U@	c #92BEE6",
"V@	c #92BBE3",
"W@	c #8DB2DA",
"X@	c #84A6CE",
"Y@	c #7D9CC5",
"Z@	c #A1A7AB",
"`@	c #6C9FD0",
" #	c #85BDE8",
".#	c #8DC6EE",
"+#	c #93CDF3",
"@#	c #9DD9FA",
"##	c #A0DCFC",
"$#	c #A2DEFE",
"%#	c #A4DFFE",
"&#	c #A6DFFD",
"*#	c #A9DEFB",
"=#	c #ACDCF9",
"-#	c #ACD8F5",
";#	c #A3CDEB",
">#	c #98BEDE",
",#	c #8FB2D3",
"'#	c #CBCCCB",
")#	c #9CA4AA",
"!#	c #77ADDC",
"~#	c #8CC4ED",
"{#	c #93CCF2",
"]#	c #99D4F7",
"^#	c #A1DCFC",
"/#	c #ABE3FF",
"(#	c #B5E7FF",
"_#	c #BCEAFF",
":#	c #BFEBFE",
"<#	c #B7E1F7",
"[#	c #AAD3EC",
"}#	c #9FC5E0",
"|#	c #BBBCBA",
"1#	c #9DA8B0",
"2#	c #88BEE8",
"3#	c #99CDF1",
"4#	c #A6D8F7",
"5#	c #B2E2FC",
"6#	c #BCE8FF",
"7#	c #BAE3F8",
"8#	c #B4DAEE",
"9#	c #ACD0E4",
"0#	c #989A97",
"a#	c #9BA7AD",
"b#	c #A7D2F1",
"c#	c #A8D2F0",
"d#	c #A2CAE6",
"e#	c #A0C6E1",
"            . + @                                               ",
"  # $ % & * = - - ;                                             ",
"  > , ' ' ) ) = - - !                                           ",
"  ~ { , ' ' ) ) = - - ]             ^ / ( _ : < [ }             ",
"  # { , , ' ' ) = = - ! | 1 2 3 4 5 6 7 8 9 0 a b b             ",
"  c d { , , ' ' ) = = - - ! e f g h i j 7 8 k l m n             ",
"  o d d { , , ' ' ) = = - - ! e p & q j r s b t u v             ",
"    & d d { , , ' ) ) - ! f g w j x m y z A B C D E F G H I J   ",
"    K L d { { , - g i M s n N O P Q R S T U V W X Y Z ` ` `  .  ",
"    ..L L d { ! x +.@.#.$.%.&.*.=.-.;.>.>.,.'.).!.~.{.].^./.(.  ",
"    _.:.L L , j <.[.}.|.1.2.3.4.5.6.7.8.8.7.9.0.a.;.b.c.d.e.    ",
"    f.:.:.L = n g.h.i.j.'.k.l.m.n.o.p.p.p.p.o.q.r.9.s.t.u.v.    ",
"      - :.L f w.x.y.z.A.B.C.D.E.F.G.H.I.J.K.L.M.N.O.P.Q.R.S.    ",
"      k T.L w U.V.W.X.Y.Z.`. +.+++@+#+$+%+&+*+=+-+;+p.>+,+'+    ",
"      )+T.L 6 !+~+{+]+^+/+(+_+:+_+<+[+}+|+#+1+&+2+=+-+3+4+5+    ",
"      6+7+d k 8+9+0+a+b+c+d+e+f+d+g+h+i+_+[+j+#+%+k+l+m+n+      ",
"      o+7+{ b p+q+r+s+t+u+v+w+w+x+u+y+z+d+A+_+B+++1+C+D+E+      ",
"      F+L ' G+H+I+J+K+L+M+N+O+P+Q+R+S+T+U+V+g+i+W+|+X+Y+Z+      ",
"        `+)  @.@+@@@#@$@%@&@*@=@-@%@;@>@M+,@'@)@!@W+|+~@{@      ",
"        ]@- ^@/@(@M+&@_@:@<@[@[@<@}@|@=@1@P+2@3@4@!@W+5@6@      ",
"        7@- 8@9@0@a@b@c@d@e@f@f@g@h@i@j@|@a@k@S+v+)@i+l@m@      ",
"        n@- o@p@q@r@h@s@t@u@v@v@w@x@y@z@c@:@-@k@A@B@C@D@E@      ",
"        F@! G@H@I@e@J@K@L@M@N@N@O@P@Q@R@S@T@U@V@W@X@Y@          ",
"          j Z@`@ #.#+#O@@###$#%#&#*#=#-#;#>#,#                  ",
"          '#)#!#~#{#]#^#/#(#_#:#<#[#}#                          ",
"          |#1#2#3#4#5#6#7#8#9#                                  ",
"          0#a#b#c#d#e#                                          ",
"                                                                "};
