/* XPM */
static char * desktop_xpm[] = {
"23 23 239 2",
"  	c None",
". 	c #404454",
"+ 	c #BEBEBE",
"@ 	c #BFBFBF",
"# 	c #B1B1B1",
"$ 	c #B0B0B0",
"% 	c #6E7E96",
"& 	c #6F839F",
"* 	c #6E829E",
"= 	c #677B97",
"- 	c #A0A0A0",
"; 	c #A1A1A1",
"> 	c #848C9C",
", 	c #8DA5BD",
"' 	c #ADC9DD",
") 	c #C2DEF2",
"! 	c #CCE8FC",
"~ 	c #CAE6FA",
"{ 	c #BEDAEE",
"] 	c #A7BFD7",
"^ 	c #849CB4",
"/ 	c #8F8F8F",
"( 	c #8E8E8E",
"_ 	c #657D9D",
": 	c #B4D0E4",
"< 	c #CEE9FC",
"[ 	c #D3EDFF",
"} 	c #CFE7FF",
"| 	c #CDE6FF",
"1 	c #CDE9FF",
"2 	c #D1EBFF",
"3 	c #D5EEFF",
"4 	c #CCE7FA",
"5 	c #ACC8DC",
"6 	c #7E7E7E",
"7 	c #7F7F7F",
"8 	c #7D7D7D",
"9 	c #5F7997",
"0 	c #B4D0EC",
"a 	c #C9E4FF",
"b 	c #BFDFFF",
"c 	c #B5DAFF",
"d 	c #AFD7FF",
"e 	c #ADD6FF",
"f 	c #B3D9FF",
"g 	c #B9DCFF",
"h 	c #C5E2FF",
"i 	c #CFEAFF",
"j 	c #B1C9E1",
"k 	c #7C7C7C",
"l 	c #6F6F6F",
"m 	c #6E6E6E",
"n 	c #A1C1E1",
"o 	c #B7DBFF",
"p 	c #A1CFFF",
"q 	c #95C8FD",
"r 	c #8BC2FB",
"s 	c #85BFFB",
"t 	c #AAD2FA",
"u 	c #9CCBFC",
"v 	c #90C6FE",
"w 	c #9ECDFE",
"x 	c #C3E1FF",
"y 	c #9DBDD5",
"z 	c #181818",
"A 	c #6E8EAE",
"B 	c #A3CEFB",
"C 	c #96C9FE",
"D 	c #81BCF9",
"E 	c #7DB8F5",
"F 	c #89BCF1",
"G 	c #76B1EE",
"H 	c #B4D4F4",
"I 	c #EBF3FB",
"J 	c #94C3F4",
"K 	c #86BCF4",
"L 	c #92C4F8",
"M 	c #8FC5FD",
"N 	c #A5D1FF",
"O 	c #AED2F6",
"P 	c #6985A1",
"Q 	c #171717",
"R 	c #101010",
"S 	c #7DA5CD",
"T 	c #77B6F7",
"U 	c #66A8EC",
"V 	c #84B7EC",
"W 	c #CCE0F4",
"X 	c #ACCCEC",
"Y 	c #8DB7E3",
"Z 	c #D2E2F2",
"` 	c #8FBAE7",
" .	c #C5DDF5",
"..	c #BFDBF7",
"+.	c #82B9F2",
"@.	c #86C0FC",
"#.	c #A8D2FE",
"$.	c #7F9FBF",
"%.	c #0F0F0F",
"&.	c #0C0C0C",
"*.	c #0B0B0B",
"=.	c #354155",
"-.	c #7FAEDF",
";.	c #7CB7F4",
">.	c #62A5EA",
",.	c #4E95DE",
"'.	c #649FDC",
").	c #B2CEEA",
"!.	c #D1E1F1",
"~.	c #91B9E1",
"{.	c #AFCBE7",
"].	c #B1CDE9",
"^.	c #A4C8EC",
"/.	c #68A6E6",
"(.	c #71B0F1",
"_.	c #8EC4FC",
":.	c #80AAD6",
"<.	c #030303",
"[.	c #4F637F",
"}.	c #7EB0E4",
"|.	c #6BADF1",
"1.	c #589BE0",
"2.	c #3E85CE",
"3.	c #377ABF",
"4.	c #5188C1",
"5.	c #6A95C2",
"6.	c #82A6CA",
"7.	c #BACEE2",
"8.	c #7AA2CA",
"9.	c #6796C7",
"0.	c #4F8AC7",
"a.	c #488ACE",
"b.	c #7FBAF7",
"c.	c #7DACDD",
"d.	c #131B23",
"e.	c #020202",
"f.	c #304458",
"g.	c #568CC4",
"h.	c #2E71B6",
"i.	c #175A9F",
"j.	c #155A95",
"k.	c #487BB0",
"l.	c #B5C9DD",
"m.	c #CADAEA",
"n.	c #85A8CB",
"o.	c #A1BDD9",
"p.	c #D1DDE9",
"q.	c #8BABCB",
"r.	c #25609D",
"s.	c #13569B",
"t.	c #3372B3",
"u.	c #4279B2",
"v.	c #1F3347",
"w.	c #316CA9",
"x.	c #105398",
"y.	c #16599E",
"z.	c #5785B5",
"A.	c #B9CDE1",
"B.	c #91B1D1",
"C.	c #6E99C6",
"D.	c #769EC6",
"E.	c #AFC7DF",
"F.	c #9EBAD6",
"G.	c #2F6AA7",
"H.	c #115499",
"I.	c #17528F",
"J.	c #0A1216",
"K.	c #010101",
"L.	c #2E6196",
"M.	c #2164A9",
"N.	c #14579C",
"O.	c #185BA0",
"P.	c #2366AB",
"Q.	c #467DB6",
"R.	c #3473B4",
"S.	c #83ABD3",
"T.	c #E2EAF2",
"U.	c #6492C2",
"V.	c #3F7AB7",
"W.	c #3D78B5",
"X.	c #1C5FA4",
"Y.	c #15589D",
"Z.	c #184778",
"`.	c #24486C",
" +	c #286BB0",
".+	c #1A5DA2",
"++	c #185FA8",
"@+	c #2063A8",
"#+	c #2669AE",
"$+	c #236AB3",
"%+	c #588DC4",
"&+	c #93B7DB",
"*+	c #437EBB",
"=+	c #1F66AF",
"-+	c #1D60A5",
";+	c #155CA5",
">+	c #185798",
",+	c #153555",
"'+	c #040408",
")+	c #296099",
"!+	c #2067B0",
"~+	c #1F62A7",
"{+	c #246BB4",
"]+	c #286FB8",
"^+	c #2D74BD",
"/+	c #3679BE",
"(+	c #2A71BA",
"_+	c #256CB5",
":+	c #1C63AC",
"<+	c #14477C",
"[+	c #15293D",
"}+	c #27629F",
"|+	c #2269B2",
"1+	c #2C73BC",
"2+	c #337AC3",
"3+	c #377EC7",
"4+	c #347BC4",
"5+	c #1E65AE",
"6+	c #195089",
"7+	c #070B0F",
"8+	c #000000",
"9+	c #112539",
"0+	c #215891",
"a+	c #276AAF",
"b+	c #4990D9",
"c+	c #5198E1",
"d+	c #498FD7",
"e+	c #2265AA",
"f+	c #1B4E83",
"g+	c #101C24",
"h+	c #193D61",
"i+	c #265586",
"j+	c #336EAB",
"k+	c #447FBC",
"l+	c #326DAA",
"m+	c #205388",
"n+	c #1A3A5A",
"o+	c #12222E",
"p+	c #1A2E42",
". . . . . . . . . . . . . . . . . . . . . . . ",
"+ + + @ + + + @ + + + + + + @ + + + @ + + + + ",
"# # $ $ # # $ $ # % & * = $ $ # # $ $ # $ # # ",
"- - ; - - - > , ' ) ! ~ { ] ^ - - ; - ; ; - - ",
"/ / / ( / _ : < [ } | 1 2 3 4 5 / / ( / / ( ( ",
"6 7 7 8 9 0 a b c d e f f g h i j 7 8 6 6 k 7 ",
"l m l l n o p q r s t } u v w e x y l l m m l ",
"z z z A B C D E F G H I J K L M N O P Q z z Q ",
"R R R S q T U V W X Y Z `  ...+.@.#.$.R R R %.",
"&.*.=.-.;.>.,.'.).!.~.{.].Z ^./.(._.:.*.&.*.*.",
"<.<.[.}.|.1.2.3.4.5.6.7.8.9.0.a.>.b.c.d.<.<.e.",
"e.e.f.g.h.i.j.k.l.m.n.o.o.p.q.r.s.t.u.v.e.e.e.",
"e.e.v.w.i.x.y.z.A.B.C.m.D.E.F.G.H.s.I.J.e.e.e.",
"K.K.K.L.M.N.O.P.Q.R.S.T.U.V.W.X.Y.y.Z.K.K.K.K.",
"K.K.K.`. +.+++@+#+$+%+&+*+$+=+-+;+>+,+K.K.K.K.",
"K.K.K.'+)+!+~+=+{+]+^+/+(+_+!+:+.+<+K.K.K.K.K.",
"e.e.e.e.[+}+|+_+1+2+3+3+4+1+_+5+6+7+e.e.e.e.e.",
"8+8+8+8+8+9+0+a+4+b+c+c+d+2+e+f+g+8+8+8+8+8+8+",
"8+8+8+8+8+8+8+h+i+j+k+k+l+m+n+8+8+8+8+8+8+8+8+",
"8+8+8+8+8+8+8+8+8+o+p+p+o+8+8+8+8+8+8+8+8+8+8+",
"8+8+8+8+8+8+8+8+8+8+8+8+8+8+8+8+8+8+8+8+8+8+8+",
"8+8+8+8+8+8+8+8+8+8+8+8+8+8+8+8+8+8+8+8+8+8+8+",
"8+8+8+8+8+8+8+8+8+8+8+8+8+8+8+8+8+8+8+8+8+8+8+"};
