/* XPM */
static char * desktop_xpm[] = {
"40 46 267 2",
"  	c None",
". 	c #CDCDCD",
"+ 	c #CACACA",
"@ 	c #C8C8C8",
"# 	c #C9C9C9",
"$ 	c #D0D0D0",
"% 	c #ABABAA",
"& 	c #62625E",
"* 	c #656661",
"= 	c #656561",
"- 	c #646460",
"; 	c #636460",
"> 	c #62635F",
", 	c #61615E",
"' 	c #61615D",
") 	c #60605C",
"! 	c #5F5F5C",
"~ 	c #5E5E5C",
"{ 	c #5E5E5B",
"] 	c #5D5D5A",
"^ 	c #5C5C5A",
"/ 	c #5C5C59",
"( 	c #5A5A58",
"_ 	c #5A5A57",
": 	c #595957",
"< 	c #585856",
"[ 	c #575755",
"} 	c #565655",
"| 	c #565654",
"1 	c #555553",
"2 	c #545453",
"3 	c #535352",
"4 	c #525251",
"5 	c #4F4F4E",
"6 	c #818180",
"7 	c #CECECE",
"8 	c #CCCCCC",
"9 	c #868685",
"0 	c #50514B",
"a 	c #55564F",
"b 	c #54544E",
"c 	c #53534E",
"d 	c #52524D",
"e 	c #50514C",
"f 	c #50504A",
"g 	c #4F4F4A",
"h 	c #4E4E49",
"i 	c #4D4D48",
"j 	c #4C4C47",
"k 	c #4A4A46",
"l 	c #494945",
"m 	c #484844",
"n 	c #474743",
"o 	c #454542",
"p 	c #444441",
"q 	c #434340",
"r 	c #42423F",
"s 	c #41413F",
"t 	c #40403E",
"u 	c #3E3E3C",
"v 	c #3D3D3C",
"w 	c #3C3C3B",
"x 	c #3B3B3A",
"y 	c #3A3A38",
"z 	c #373736",
"A 	c #323231",
"B 	c #282827",
"C 	c #4D4D4D",
"D 	c #CBCBCB",
"E 	c #CBCBCC",
"F 	c #868684",
"G 	c #50504B",
"H 	c #51514C",
"I 	c #4B4B47",
"J 	c #4B4B46",
"K 	c #484845",
"L 	c #474744",
"M 	c #464642",
"N 	c #434341",
"O 	c #424240",
"P 	c #3F3F3D",
"Q 	c #3D3D3B",
"R 	c #3C3C3A",
"S 	c #3B3B39",
"T 	c #2F2F2E",
"U 	c #262626",
"V 	c #1E1E1D",
"W 	c #151515",
"X 	c #454545",
"Y 	c #858583",
"Z 	c #4E4E4A",
"` 	c #4D4D49",
" .	c #4C4C48",
"..	c #464643",
"+.	c #41413E",
"@.	c #3F3F3C",
"#.	c #363634",
"$.	c #2D2D2C",
"%.	c #222222",
"&.	c #1A1A1A",
"*.	c #161616",
"=.	c #121212",
"-.	c #848483",
";.	c #353534",
">.	c #2B2B2A",
",.	c #1F1F1F",
"'.	c #181818",
").	c #141414",
"!.	c #838382",
"~.	c #393938",
"{.	c #333332",
"].	c #1B1B1A",
"^.	c #838381",
"/.	c #393937",
"(.	c #373735",
"_.	c #313130",
":.	c #1D1D1C",
"<.	c #828281",
"[.	c #444442",
"}.	c #3E3E3D",
"|.	c #3A3A39",
"1.	c #393936",
"2.	c #343432",
"3.	c #292928",
"4.	c #171716",
"5.	c #383836",
"6.	c #353533",
"7.	c #212121",
"8.	c #171717",
"9.	c #808080",
"0.	c #3C3C39",
"a.	c #383837",
"b.	c #323230",
"c.	c #272726",
"d.	c #7F7F7F",
"e.	c #333331",
"f.	c #2D2D2B",
"g.	c #20201F",
"h.	c #7E7E7E",
"i.	c #2C2C2B",
"j.	c #1B1B1B",
"k.	c #191919",
"l.	c #7E7E7D",
"m.	c #323232",
"n.	c #202020",
"o.	c #1D1D1D",
"p.	c #7D7D7D",
"q.	c #31312F",
"r.	c #343433",
"s.	c #2C2C2C",
"t.	c #252524",
"u.	c #232323",
"v.	c #252525",
"w.	c #272727",
"x.	c #282828",
"y.	c #292929",
"z.	c #242424",
"A.	c #1E1E1E",
"B.	c #1C1C1C",
"C.	c #7C7C7C",
"D.	c #2E2E2C",
"E.	c #30302F",
"F.	c #2B2B2B",
"G.	c #2E2E2E",
"H.	c #2F2F2F",
"I.	c #2A2A2A",
"J.	c #7C7C7B",
"K.	c #333333",
"L.	c #2D2D2D",
"M.	c #343434",
"N.	c #363636",
"O.	c #353535",
"P.	c #313131",
"Q.	c #7B7B7B",
"R.	c #373737",
"S.	c #393939",
"T.	c #3B3B3B",
"U.	c #3C3C3C",
"V.	c #3D3D3D",
"W.	c #3A3A3A",
"X.	c #383838",
"Y.	c #464646",
"Z.	c #7A7A7A",
"`.	c #2E2E2D",
" +	c #3F3F3F",
".+	c #414141",
"++	c #424242",
"@+	c #434343",
"#+	c #404040",
"$+	c #3E3E3E",
"%+	c #484848",
"&+	c #CCCCCD",
"*+	c #494949",
"=+	c #474747",
"-+	c #303030",
";+	c #939393",
">+	c #444444",
",+	c #4C4C4C",
"'+	c #505050",
")+	c #535353",
"!+	c #565656",
"~+	c #575757",
"{+	c #555555",
"]+	c #525252",
"^+	c #4E4E4E",
"/+	c #4A4A4A",
"(+	c #616161",
"_+	c #BABABA",
":+	c #D8D8D8",
"<+	c #C5C5C5",
"[+	c #C2C2C2",
"}+	c #C3C3C3",
"|+	c #C4C4C4",
"1+	c #C6C6C6",
"2+	c #CFCFCF",
"3+	c #C7C7C7",
"4+	c #D5D5D5",
"5+	c #B4B4B4",
"6+	c #D9D9D9",
"7+	c #DADADA",
"8+	c #DBDBDB",
"9+	c #DCDCDC",
"0+	c #D7D7D7",
"a+	c #D3D3D3",
"b+	c #BEBEBE",
"c+	c #D1D1D1",
"d+	c #B8B8B8",
"e+	c #B7B7B7",
"f+	c #BBBBBB",
"g+	c #BCBCBC",
"h+	c #B0B0B0",
"i+	c #AFAFAF",
"j+	c #B3B3B3",
"k+	c #ACACAC",
"l+	c #ABABAB",
"m+	c #B5B5B5",
"n+	c #A3A3A3",
"o+	c #ADADAD",
"p+	c #A6A6A6",
"q+	c #9A9A9A",
"r+	c #909090",
"s+	c #A8A8A8",
"t+	c #A9A9A9",
"u+	c #A1A1A1",
"v+	c #E6E6E6",
"w+	c #E0E0E0",
"x+	c #ECECEC",
"y+	c #BFBFBF",
"z+	c #EAEAEA",
"A+	c #EEEEEE",
"B+	c #E2E2E2",
"C+	c #EFEFEF",
"D+	c #EDEDED",
"E+	c #E7E7E7",
"F+	c #DDDDDD",
"G+	c #E3E3E3",
"H+	c #D6D6D6",
"I+	c #E5E5E5",
"J+	c #969696",
"K+	c #9E9E9E",
"L+	c #E4E4E4",
"M+	c #E8E8E8",
"N+	c #B1B1B1",
"O+	c #DEDEDE",
"P+	c #999999",
"Q+	c #C0C0C0",
"R+	c #B6B6B6",
"                                                                                ",
"                                                                                ",
"                                                                                ",
"                                                                                ",
"                                                                                ",
"                                                                                ",
"                                                                                ",
"                                                                                ",
"                                                                                ",
"                                                                                ",
"        . + @ @ @ @ @ @ @ @ @ @ @ @ @ @ @ @ @ @ @ @ @ @ @ @ @ @ @ # $           ",
"        % & * = - ; > & , ' ) ! ~ { ] ^ / ( _ : < [ } | 1 2 2 3 4 5 6 7         ",
"      8 9 0 a b c d e f g h i j k l m n o p q r s t u v w x y z A B C D         ",
"      E F G c d H G g h i I J l K L M o N O r t P u Q R S z T U V W X +         ",
"      8 Y i G g Z `  .J k K m ..o p q r +.P @.Q R x y #.$.%.&.*.W =.X D         ",
"      8 -.k `  .I k l m n ..o q O +.t P v w x S y ;.>.,.'.W ).W W =.X D         ",
"      8 !.n k l m L M p N O s t @.u Q R S ~.z {.B ].W ).).W W W W =.X D         ",
"      8 ^.p L ..o p q r +.P u Q R S y /.(._.B :.W ).W W W W W W W =.X D         ",
"      8 <.s [.q r +.t }.u w x |.~.1.z 2.3.V 4.).).W W W W W W W W =.X D         ",
"      8 6 u s t P u Q x S y /.5.(.6.$.7.8.W W W W W W W W W W W W =.X D         ",
"      8 9.0.u v w x y /.a.z (.6.b.c.].W ).).).).).W W W W W W W W =.X D         ",
"      8 d.5.S y ~.a.(.#.6.2.e.f.g.8.*.*.*.*.*.*.W ).).).W W W W W =.X D         ",
"      8 h.#.a.5.(.#.2.2.{.A i.,.&.&.j.j.j.j.&.&.k.8.*.W ).).W W W =.X D         ",
"      8 l.2.#.6.2.{.e.2.m.i.%.,.n.7.%.%.%.7.7.n.,.o.j.k.8.*.).).W =.X D         ",
"      8 p.q.e.b.A {.r.{.s.t.u.v.w.w.x.y.x.x.w.U z.u.7.A.B.&.8.W ).=.X D         ",
"      8 C.D.E._.A r.r.$.c.w.y.F.s.G.H.H.H.G.G.s.I.x.U z.7.,.j.'.*.=.X D         ",
"      8 J.I.T _.A K.s.x.I.L.H.m.K.M.N.N.N.O.M.K.P.G.s.y.U u.n.B.k.).X D         ",
"      8 Q.y.T _._.s.y.F.H.m.M.R.S.T.U.V.V.U.W.X.R.K.P.G.I.w.u.n.B.*.Y.D         ",
"      8 Z.x.`.`.I.x.F.H.m.N.S.U. +.+++@+@+++#+$+T.X.M.P.G.I.U %.A.k.%+D         ",
"      &+Z.c.I.c.U y.L.P.O.X.U.#+@+Y.%+*+*+=+X ++ +T.R.M.-+s.x.z.n.&.%+D         ",
"      8 ;+H.G.G.P.M.S.V.#+>+%+,+'+)+!+~+~+{+]+^+/+Y.@+ +U.R.K.-+s.U (+7         ",
"      _+:+<+[+}+|+<+1+@ # + D 8 . 7 2+$ 2+2+7 . 8 D + @ 3+1+<+|+[+[+4+<+        ",
"      5+$ 6+6+7+7+7+7+7+7+8+8+8+8+8+9+9+9+9+8+8+8+8+8+6+:+0+0+0+a+a+0+b+        ",
"        + c+c+c+c+c+c+c+c+c+c+c+c+c+c+c+c+c+c+c+c+c+c+$ 2+. 7 7 8 7 c+d+        ",
"        e+f+g+g+g+g+g+g+g+g+g+_+h+i+j+5+i+k+l+m+g+g+g+f+f+f+f+f+f+g+f+          ",
"                                ;+n+o+j+p+q+r+                                  ",
"                                s+|+$ :+1+e+t+u+                                ",
"                            v+0+8 w+v+x+6+8 y+|+v+                              ",
"                        + z+A+8+B+C+z+D+8+$ @ # E+D+F+                          ",
"                        D E+G+H+F+C+D+A+8+2++ . 8+I+8+J+                        ",
"                        K+7 L+E+F+H+0+7+. @ $ B+M+8+5+                          ",
"                            N+a+O+H+2+8 8 c+7+7+<+P+                            ",
"                                  5+f+Q+b+R+o+                                  ",
"                                                                                ",
"                                                                                ",
"                                                                                "};
