/* XPM */
static char * icewm_xpm[] = {
"36 45 852 2",
"  	c None",
". 	c #1D2226",
"+ 	c #2552AD",
"@ 	c #2E56B5",
"# 	c #2759B2",
"$ 	c #2254AD",
"% 	c #1F4EA8",
"& 	c #1F4EAA",
"* 	c #224EAD",
"= 	c #2954B3",
"- 	c #335DBF",
"; 	c #3D67C9",
"> 	c #4876D4",
", 	c #5483DB",
"' 	c #5E8EE0",
") 	c #6192E1",
"! 	c #578AD9",
"~ 	c #4A7CD3",
"{ 	c #3F70CF",
"] 	c #3767CB",
"^ 	c #3560C6",
"/ 	c #315DBE",
"( 	c #2B59B7",
"_ 	c #2758B7",
": 	c #2F5CC3",
"< 	c #335EC6",
"[ 	c #3961C3",
"} 	c #3F66C1",
"| 	c #21232B",
"1 	c #1F2227",
"2 	c #284FAE",
"3 	c #316AC1",
"4 	c #285BAE",
"5 	c #3363AD",
"6 	c #3D6EB3",
"7 	c #5080C2",
"8 	c #6995D2",
"9 	c #7EA9E0",
"0 	c #8FB8EC",
"a 	c #9DC5F6",
"b 	c #A7CDFA",
"c 	c #B1CEF8",
"d 	c #B6D3FB",
"e 	c #B8D4FB",
"f 	c #B9D5FA",
"g 	c #B5D3F9",
"h 	c #ADCDF6",
"i 	c #A6C6F5",
"j 	c #9EBFF2",
"k 	c #8AB1EA",
"l 	c #7BA3E0",
"m 	c #6893D7",
"n 	c #4F7EC6",
"o 	c #3463B1",
"p 	c #2354A3",
"q 	c #2053A4",
"r 	c #285BAC",
"s 	c #2F55AA",
"t 	c #222727",
"u 	c #2A4B90",
"v 	c #306ABE",
"w 	c #295DB0",
"x 	c #5687CA",
"y 	c #6091D3",
"z 	c #6799D8",
"A 	c #75A3E1",
"B 	c #80ADE8",
"C 	c #8CB5ED",
"D 	c #96BBF0",
"E 	c #9DC1F5",
"F 	c #A4C5F8",
"G 	c #AACBF8",
"H 	c #AECDFB",
"I 	c #AECDFC",
"J 	c #AFCDFF",
"K 	c #ADCBFF",
"L 	c #A7C8FD",
"M 	c #9FC4F9",
"N 	c #96BEF2",
"O 	c #8FB8F0",
"P 	c #87B0EE",
"Q 	c #7DAAED",
"R 	c #6FA1E0",
"S 	c #6498D2",
"T 	c #5C92D0",
"U 	c #3F74C0",
"V 	c #1B4FA5",
"W 	c #205CB4",
"X 	c #3D5998",
"Y 	c #14489C",
"Z 	c #2659AC",
"` 	c #356AB6",
" .	c #5486CD",
"..	c #618DD6",
"+.	c #6B9CD7",
"@.	c #76A4E0",
"#.	c #80ADEE",
"$.	c #86B4F0",
"%.	c #92BCEE",
"&.	c #99BCF6",
"*.	c #9DC1FD",
"=.	c #A2C6F6",
"-.	c #A4C8F8",
";.	c #A1C0F7",
">.	c #97BEF5",
",.	c #93B3EE",
"'.	c #93C4FC",
").	c #98BBF3",
"!.	c #90B4F2",
"~.	c #7DB3EF",
"{.	c #7FA7E4",
"].	c #77A4DD",
"^.	c #6698DD",
"/.	c #5F90DD",
"(.	c #4F85C5",
"_.	c #2058A5",
":.	c #164B9B",
"<.	c #194A97",
"[.	c #114598",
"}.	c #1A4DA0",
"|.	c #376DB7",
"1.	c #5287CD",
"2.	c #5B96DC",
"3.	c #6A99DF",
"4.	c #76A3E6",
"5.	c #80ADF0",
"6.	c #86B2EF",
"7.	c #8BB8F3",
"8.	c #94C1FC",
"9.	c #9ABEF8",
"0.	c #91B7F6",
"a.	c #BCCDE7",
"b.	c #D2DAED",
"c.	c #D9E2EB",
"d.	c #BED0E4",
"e.	c #9CBCF7",
"f.	c #9ABDFF",
"g.	c #8FBCF7",
"h.	c #85AEF0",
"i.	c #B5C9E2",
"j.	c #ABC1E6",
"k.	c #8BADDD",
"l.	c #6D9ADB",
"m.	c #518CD2",
"n.	c #3063B2",
"o.	c #0E4295",
"p.	c #104490",
"q.	c #104497",
"r.	c #4076C0",
"s.	c #5489CF",
"t.	c #6392D6",
"u.	c #689BEA",
"v.	c #73A8EC",
"w.	c #7AABEE",
"x.	c #87B2F7",
"y.	c #8EB4FF",
"z.	c #8DB6EE",
"A.	c #93C1F5",
"B.	c #8BB3EE",
"C.	c #F0F4F5",
"D.	c #F5F3F8",
"E.	c #F6F5F1",
"F.	c #C8D7EE",
"G.	c #94BFF6",
"H.	c #93BAFB",
"I.	c #8BB7F6",
"J.	c #B6C9EA",
"K.	c #F0ECED",
"L.	c #EFEEF3",
"M.	c #EBEEE7",
"N.	c #DEE2ED",
"O.	c #6E99DE",
"P.	c #5786CA",
"Q.	c #3D72BE",
"R.	c #0D4194",
"S.	c #0D418D",
"T.	c #094092",
"U.	c #0D4496",
"V.	c #477FCA",
"W.	c #568CD4",
"X.	c #6196DC",
"Y.	c #679EE1",
"Z.	c #71A5EE",
"`.	c #77A8E0",
" +	c #81ADF6",
".+	c #85B4F8",
"++	c #88BAF9",
"@+	c #86B8F3",
"#+	c #8AB6F5",
"$+	c #F6F6EE",
"%+	c #F7F5F8",
"&+	c #EFF8F5",
"*+	c #D0DEF9",
"=+	c #89BBF0",
"-+	c #84B6FB",
";+	c #9FBDF1",
">+	c #F4F4F6",
",+	c #EDF6F1",
"'+	c #E9F1F3",
")+	c #ECEBF1",
"!+	c #93B2E0",
"~+	c #5E96E3",
"{+	c #5490D6",
"]+	c #3D7ACA",
"^+	c #144B9E",
"/+	c #0F4291",
"(+	c #083F91",
"_+	c #144B9D",
":+	c #4982CF",
"<+	c #558DD7",
"[+	c #6390E3",
"}+	c #639EE4",
"|+	c #6BA6EC",
"1+	c #6D9FE8",
"2+	c #5A8CD3",
"3+	c #76A7F3",
"4+	c #82B2F4",
"5+	c #84B3F9",
"6+	c #84B2F0",
"7+	c #FAF8EC",
"8+	c #FEFAFB",
"9+	c #F9F8FD",
"0+	c #D1DDF5",
"a+	c #83B2F8",
"b+	c #8DB3F1",
"c+	c #E9F5F3",
"d+	c #FDF4F5",
"e+	c #F2F7F3",
"f+	c #F9F2EC",
"g+	c #B8CCED",
"h+	c #659DE8",
"i+	c #5F93DE",
"j+	c #5390E0",
"k+	c #4C80D6",
"l+	c #1E54AA",
"m+	c #0F4492",
"n+	c #084093",
"o+	c #1D55A8",
"p+	c #4782D0",
"q+	c #548DDA",
"r+	c #5898E2",
"s+	c #679BF1",
"t+	c #6692F1",
"u+	c #99B3E4",
"v+	c #F2F9F2",
"w+	c #AEBDE8",
"x+	c #6A97DB",
"y+	c #7BAAF2",
"z+	c #7FAAEF",
"A+	c #FEFCFF",
"B+	c #FBFAF5",
"C+	c #FFFCFB",
"D+	c #CBE1EF",
"E+	c #7EAEEC",
"F+	c #DDE9FF",
"G+	c #FDF5F2",
"H+	c #F5FAF3",
"I+	c #F8F8F8",
"J+	c #D3E1FE",
"K+	c #6DA1EA",
"L+	c #679AEB",
"M+	c #5E94EA",
"N+	c #508DDE",
"O+	c #4987D2",
"P+	c #255DB4",
"Q+	c #114696",
"R+	c #0A4297",
"S+	c #225BB2",
"T+	c #4582D3",
"U+	c #518CDC",
"V+	c #5995DE",
"W+	c #5A9EE7",
"X+	c #7593D9",
"Y+	c #F2F3F5",
"Z+	c #F8F9FB",
"`+	c #F5FBF9",
" @	c #E6EDF5",
".@	c #B3CCEB",
"+@	c #7FA6DD",
"@@	c #FCFBFF",
"#@	c #FDFDFF",
"$@	c #F9FCFF",
"%@	c #CCE0F8",
"&@	c #B8D7F6",
"*@	c #FDFDF5",
"=@	c #FFFAFC",
"-@	c #FDFEF9",
";@	c #E5ECFC",
">@	c #70A9EC",
",@	c #61A0F0",
"'@	c #619CEC",
")@	c #5994E0",
"!@	c #538EDE",
"~@	c #4B86D6",
"{@	c #2C64BB",
"]@	c #13479A",
"^@	c #0C4499",
"/@	c #255EB5",
"(@	c #4885D8",
"_@	c #4F89DB",
":@	c #5792E0",
"<@	c #5C95EC",
"[@	c #6598E9",
"}@	c #B3CDEE",
"|@	c #FCF9F2",
"1@	c #FFF8FF",
"2@	c #FCFFF8",
"3@	c #84A7DD",
"4@	c #FCFCFC",
"5@	c #FFFCFF",
"6@	c #F8FFF5",
"7@	c #ECEFF8",
"8@	c #FCFAFB",
"9@	c #F6FFFD",
"0@	c #F3FCF9",
"a@	c #88AFEA",
"b@	c #6797EB",
"c@	c #6099E6",
"d@	c #5997E4",
"e@	c #5A93EC",
"f@	c #5289E4",
"g@	c #4384D4",
"h@	c #2E67C0",
"i@	c #15499C",
"j@	c #10479A",
"k@	c #2763B9",
"l@	c #4C8BDB",
"m@	c #558DE2",
"n@	c #5396E4",
"o@	c #5D96ED",
"p@	c #6897E5",
"q@	c #ECF4F7",
"r@	c #FFFAFB",
"s@	c #F7F6FB",
"t@	c #8EB3E0",
"u@	c #6A9EE7",
"v@	c #FCFCFE",
"w@	c #FFFEFF",
"x@	c #F9FDFF",
"y@	c #FAFEFF",
"z@	c #FFFAFF",
"A@	c #B4CEF3",
"B@	c #5D9CE1",
"C@	c #5595EC",
"D@	c #5C94E7",
"E@	c #5493E3",
"F@	c #538FE5",
"G@	c #468BD9",
"H@	c #3F74D0",
"I@	c #2F6BC1",
"J@	c #184D9D",
"K@	c #2866BB",
"L@	c #3B79CC",
"M@	c #4A88DD",
"N@	c #4E8DDD",
"O@	c #5490E8",
"P@	c #578EDE",
"Q@	c #5297E2",
"R@	c #CBDCEE",
"S@	c #EBF2FA",
"T@	c #83ABE6",
"U@	c #5C9AE7",
"V@	c #659DE7",
"W@	c #F9FFF8",
"X@	c #FEFCFD",
"Y@	c #F0FAF9",
"Z@	c #FFFFFA",
"`@	c #FFFDFF",
" #	c #F9FEFA",
".#	c #EEF3F7",
"+#	c #659EE1",
"@#	c #4E90DE",
"##	c #558FE3",
"$#	c #4B8ADA",
"%#	c #3C81DE",
"&#	c #3274CB",
"*#	c #316DC5",
"=#	c #194DA0",
"-#	c #164EA1",
";#	c #2969C0",
">#	c #3472C7",
",#	c #4080D7",
"'#	c #4B88DB",
")#	c #4C8DDF",
"!#	c #5890DB",
"~#	c #7CA1E5",
"{#	c #A4C5F0",
"]#	c #528FE0",
"^#	c #5494DB",
"/#	c #5D98E4",
"(#	c #FBFFFF",
"_#	c #FDFDFD",
":#	c #C9DBEF",
"<#	c #D1E0F3",
"[#	c #FCFEFB",
"}#	c #FEFEFF",
"|#	c #FFFBFC",
"1#	c #C9E2F8",
"2#	c #4F8AD8",
"3#	c #4486DA",
"4#	c #3B7BD2",
"5#	c #3575D6",
"6#	c #3177CF",
"7#	c #316EC7",
"8#	c #1B4FA3",
"9#	c #154DA0",
"0#	c #2A6AC1",
"a#	c #3070C7",
"b#	c #3577CE",
"c#	c #78A6E1",
"d#	c #C2D9E7",
"e#	c #E7F2F6",
"f#	c #F7FAFF",
"g#	c #F7FDF9",
"h#	c #5C98E1",
"i#	c #4F8FD6",
"j#	c #548EE2",
"k#	c #5F9AE8",
"l#	c #FAF9F7",
"m#	c #FCFDFF",
"n#	c #C3DBF7",
"o#	c #71A1EB",
"p#	c #F0FCFC",
"q#	c #FCFFFF",
"r#	c #FBFAFF",
"s#	c #A2C4E9",
"t#	c #4380DB",
"u#	c #3578CF",
"v#	c #3479D4",
"w#	c #3772D0",
"x#	c #3474CB",
"y#	c #326FC8",
"z#	c #1A51A4",
"A#	c #154E9F",
"B#	c #2868BF",
"C#	c #2F6FC6",
"D#	c #2F71C8",
"E#	c #98B1E9",
"F#	c #F2F9F1",
"G#	c #F9FAFF",
"H#	c #F7FCF8",
"I#	c #F0F4F7",
"J#	c #458CDA",
"K#	c #4F8CDF",
"L#	c #5B95DF",
"M#	c #FFFEFA",
"N#	c #FDFEFF",
"O#	c #C5DBF2",
"P#	c #4C8CE4",
"Q#	c #A0C1EE",
"R#	c #FBFFFA",
"S#	c #FDFCF7",
"T#	c #F3F9F9",
"U#	c #70A1DC",
"V#	c #2F72CD",
"W#	c #2E70C7",
"X#	c #3275CC",
"Y#	c #306EC5",
"Z#	c #306DC6",
"`#	c #1B52A5",
" $	c #1750A1",
".$	c #2465B9",
"+$	c #296ABE",
"@$	c #2B6BC2",
"#$	c #7FA7DA",
"$$	c #F7FAF1",
"%$	c #FEF6F3",
"&$	c #FDF7F7",
"*$	c #F1F5F6",
"=$	c #4784DD",
"-$	c #5E96E1",
";$	c #FEFDFF",
">$	c #F9FEF8",
",$	c #FFFEF9",
"'$	c #CBDFFA",
")$	c #497FD7",
"!$	c #4985DD",
"~$	c #C6E0F7",
"{$	c #FFFCF4",
"]$	c #FCFBF7",
"^$	c #FBFCFE",
"/$	c #D9ECF3",
"($	c #4D86CB",
"_$	c #3071C5",
":$	c #256DC2",
"<$	c #296DC0",
"[$	c #2D6AC3",
"}$	c #164FA0",
"|$	c #2361B6",
"1$	c #2564B4",
"2$	c #2766B6",
"3$	c #276AC3",
"4$	c #437ACC",
"5$	c #71A5DF",
"6$	c #BCCEF2",
"7$	c #F9F9FB",
"8$	c #5991DC",
"9$	c #3F7FD9",
"0$	c #3C7DE3",
"a$	c #F9FDFC",
"b$	c #FEFBFF",
"c$	c #FFFDF6",
"d$	c #C3D8F7",
"e$	c #4B7BE1",
"f$	c #3D82DD",
"g$	c #6B97DE",
"h$	c #EBF2FF",
"i$	c #FCFCFA",
"j$	c #FAFBF6",
"k$	c #F4F9FC",
"l$	c #BAD2F4",
"m$	c #2F74C2",
"n$	c #2865BE",
"o$	c #2368B5",
"p$	c #2A68BF",
"q$	c #1D51A4",
"r$	c #2260B3",
"s$	c #2360B0",
"t$	c #2261B0",
"u$	c #2A64B6",
"v$	c #3372BF",
"w$	c #357AD5",
"x$	c #4983D7",
"y$	c #F1F1FD",
"z$	c #ACC6E7",
"A$	c #4081DD",
"B$	c #4880DD",
"C$	c #5A93EA",
"D$	c #F9FFF5",
"E$	c #C4DEF9",
"F$	c #4580E4",
"G$	c #6397EA",
"H$	c #A0BFF5",
"I$	c #FCFBF9",
"J$	c #F8F8F6",
"K$	c #F4F3F8",
"L$	c #CBD7EF",
"M$	c #5889D6",
"N$	c #2165B6",
"O$	c #265DAD",
"P$	c #2864BA",
"Q$	c #1D52A2",
"R$	c #154C9F",
"S$	c #205FAF",
"T$	c #1F5AAA",
"U$	c #215CAA",
"V$	c #2860B5",
"W$	c #3171C8",
"X$	c #3C7ED5",
"Y$	c #4884E4",
"Z$	c #C7DDEB",
"`$	c #F7F7F9",
" %	c #86A3F3",
".%	c #4B82E6",
"+%	c #5493F0",
"@%	c #AACCF2",
"#%	c #90BDF4",
"$%	c #77A7F3",
"%%	c #5B8FF5",
"&%	c #4C8CF0",
"*%	c #6C9CE6",
"=%	c #E7EEF4",
"-%	c #ACC7F6",
";%	c #B1CDF5",
">%	c #98BEED",
",%	c #5E95E8",
"'%	c #3979D1",
")%	c #2966B6",
"!%	c #245CAF",
"~%	c #1B5CAC",
"{%	c #2662B8",
"]%	c #184F9F",
"^%	c #11499C",
"/%	c #1D5CAC",
"(%	c #1853A1",
"_%	c #1D56A3",
":%	c #1D60A7",
"<%	c #3476CC",
"[%	c #417DDF",
"}%	c #8FAAF7",
"|%	c #F3F8F2",
"1%	c #F3F5F0",
"2%	c #EEEEF8",
"3%	c #95C0ED",
"4%	c #578CF2",
"5%	c #5989F7",
"6%	c #4E8BF5",
"7%	c #508AEB",
"8%	c #6091F7",
"9%	c #719CEB",
"0%	c #E4ECF9",
"a%	c #FEF8FC",
"b%	c #F4F4F2",
"c%	c #98BCEE",
"d%	c #4989ED",
"e%	c #4584E3",
"f%	c #3F72CD",
"g%	c #255EAF",
"h%	c #1C5BA2",
"i%	c #1E56A1",
"j%	c #164D9D",
"k%	c #0D4598",
"l%	c #1958A8",
"m%	c #144D9A",
"n%	c #174F99",
"o%	c #2156A4",
"p%	c #316FC4",
"q%	c #638EEC",
"r%	c #E4E2F0",
"s%	c #F0F2F1",
"t%	c #F5F7F2",
"u%	c #F4F5FA",
"v%	c #D5E1FB",
"w%	c #B4CBF4",
"x%	c #A7BDF9",
"y%	c #B7D3FB",
"z%	c #DBE3F0",
"A%	c #F2FBF8",
"B%	c #F0FAF1",
"C%	c #F5F5F5",
"D%	c #F4F6F5",
"E%	c #F0F5FB",
"F%	c #94AFF6",
"G%	c #4C83E0",
"H%	c #3971CE",
"I%	c #255CAC",
"J%	c #185397",
"K%	c #215AB1",
"L%	c #134A9A",
"M%	c #0A4295",
"N%	c #1552A3",
"O%	c #124C96",
"P%	c #12488E",
"Q%	c #1C519D",
"R%	c #356DCA",
"S%	c #78A0E5",
"T%	c #DFEBE7",
"U%	c #EDEFEE",
"V%	c #EEEBF2",
"W%	c #AECFF0",
"X%	c #A5BDF9",
"Y%	c #D7E2F4",
"Z%	c #F3F5F2",
"`%	c #F4F2FF",
" &	c #EEF8ED",
".&	c #E9EDF6",
"+&	c #B8CAFC",
"@&	c #9DBBF9",
"#&	c #E2E4F9",
"$&	c #F0F1EC",
"%&	c #F8EDF5",
"&&	c #B2C6EB",
"*&	c #5188ED",
"=&	c #3673CC",
"-&	c #1E53A3",
";&	c #124B8E",
">&	c #1E56AB",
",&	c #124797",
"'&	c #0C4396",
")&	c #124D9D",
"!&	c #0E4690",
"~&	c #0E448A",
"{&	c #194E9C",
"]&	c #4379DD",
"^&	c #84ABF0",
"/&	c #C4D3F0",
"(&	c #83ABF0",
"_&	c #6094FF",
":&	c #5D90F9",
"<&	c #80A9FB",
"[&	c #EBF1ED",
"}&	c #EDF4EC",
"|&	c #F3EEEA",
"1&	c #A9C7F9",
"2&	c #6092FF",
"3&	c #5E91FC",
"4&	c #70A1FF",
"5&	c #B7D0F9",
"6&	c #B7D1E8",
"7&	c #648DF7",
"8&	c #4383E4",
"9&	c #366EC3",
"0&	c #1C4FA0",
"a&	c #0F4992",
"b&	c #13498F",
"c&	c #134695",
"d&	c #124B9C",
"e&	c #0B418B",
"f&	c #0D4389",
"g&	c #154F98",
"h&	c #3265B6",
"i&	c #3D6FD0",
"j&	c #3F7BDB",
"k&	c #5286E9",
"l&	c #4F8DF2",
"m&	c #6291FD",
"n&	c #6093FC",
"o&	c #679BFF",
"p&	c #DCE3E9",
"q&	c #ECECEA",
"r&	c #EFEAF0",
"s&	c #82B0FB",
"t&	c #5F92FB",
"u&	c #6591FE",
"v&	c #5F92FF",
"w&	c #6197F9",
"x&	c #608EF0",
"y&	c #4C81E1",
"z&	c #3C77DB",
"A&	c #366BC7",
"B&	c #1D4D9F",
"C&	c #0D4787",
"D&	c #0E4794",
"E&	c #144496",
"F&	c #17509F",
"G&	c #0B408C",
"H&	c #0A4088",
"I&	c #1A4EA1",
"J&	c #2258B8",
"K&	c #2E66BD",
"L&	c #3E6BD0",
"M&	c #4076DA",
"N&	c #527EE7",
"O&	c #5285F0",
"P&	c #598CF5",
"Q&	c #5F96FD",
"R&	c #C3D2EF",
"S&	c #E5E4E0",
"T&	c #DCE2EE",
"U&	c #6D99FF",
"V&	c #5E96F7",
"W&	c #5596FA",
"X&	c #588CF9",
"Y&	c #5780F2",
"Z&	c #4D7EE5",
"`&	c #3E79D5",
" *	c #316BCE",
".*	c #2C5FBA",
"+*	c #1B50A0",
"@*	c #0F458D",
"#*	c #0F438F",
"$*	c #0C4191",
"%*	c #11428E",
"&*	c #154597",
"**	c #2158A8",
"=*	c #114692",
"-*	c #073D87",
";*	c #0B489B",
">*	c #1C54A9",
",*	c #2359AF",
"'*	c #2A60C0",
")*	c #326DC9",
"!*	c #3D70CC",
"~*	c #4779DA",
"{*	c #4A7DE6",
"]*	c #5081E8",
"^*	c #6697F3",
"/*	c #69A1F6",
"(*	c #6D9AED",
"_*	c #5689F4",
":*	c #5184ED",
"<*	c #4E7BE2",
"[*	c #4278DA",
"}*	c #3B70CE",
"|*	c #3668CB",
"1*	c #2F62BE",
"2*	c #2157AD",
"3*	c #174C9A",
"4*	c #0A3F8D",
"5*	c #073F8C",
"6*	c #144798",
"7*	c #184995",
"8*	c #253654",
"9*	c #235DB1",
"0*	c #1758AC",
"a*	c #174497",
"b*	c #0A4193",
"c*	c #164DA0",
"d*	c #2056AE",
"e*	c #275DB7",
"f*	c #2E63C1",
"g*	c #356ACA",
"h*	c #3A6FCF",
"i*	c #4273D2",
"j*	c #4577D6",
"k*	c #4577DA",
"l*	c #4478DB",
"m*	c #4476D9",
"n*	c #4173D4",
"o*	c #3C6DCC",
"p*	c #3669C5",
"q*	c #2E63BF",
"r*	c #265CB6",
"s*	c #1D53AB",
"t*	c #093C8F",
"u*	c #134397",
"v*	c #1E53AF",
"w*	c #2D3852",
"x*	c #242626",
"y*	c #182A4C",
"z*	c #2353B5",
"A*	c #1D55A2",
"B*	c #0E4595",
"C*	c #053C8C",
"D*	c #073E90",
"E*	c #11489B",
"F*	c #1A50A6",
"G*	c #2258B0",
"H*	c #2C61BD",
"I*	c #3365C6",
"J*	c #366BCB",
"K*	c #386DCD",
"L*	c #376DCD",
"M*	c #356BCD",
"N*	c #3368C8",
"O*	c #3166C6",
"P*	c #2F61C2",
"Q*	c #2B5CB8",
"R*	c #2557B6",
"S*	c #1D4FAE",
"T*	c #11479F",
"U*	c #16489D",
"V*	c #2D5CB8",
"W*	c #203154",
"X*	c #232526",
"Y*	c #0C0C0D",
"Z*	c #303D4B",
"`*	c #1E2F53",
" =	c #1E2F59",
".=	c #1F305B",
"+=	c #243460",
"@=	c #273864",
"#=	c #283967",
"$=	c #2B3C6B",
"%=	c #2F3F6F",
"&=	c #344373",
"*=	c #344379",
"==	c #394B79",
"-=	c #3F5178",
";=	c #405577",
">=	c #3F5476",
",=	c #3C4E75",
"'=	c #374979",
")=	c #364279",
"!=	c #354175",
"~=	c #364273",
"{=	c #344275",
"]=	c #333E76",
"^=	c #2D3A6C",
"/=	c #2C395C",
"(=	c #314156",
"_=	c #212223",
"                                                                        ",
"                                                                        ",
"                                                                        ",
"                                                                        ",
"                                                                        ",
"                                                                        ",
"                                                                        ",
"                                                                        ",
"                                                                        ",
"        . + @ # $ % & * = - ; > , ' ) ! ~ { ] ^ / ( _ : < [ } |         ",
"      1 2 3 4 5 6 7 8 9 0 a b c d e f g h i j k l m n o p q r s t       ",
"      u v w x y z A B C D E F G H I J K L M N O P Q R S T U V W X       ",
"      Y Z `  ...+.@.#.$.%.&.*.=.-.;.>.,.F '.).!.~.{.].^./.(._.:.<.      ",
"      [.}.|.1.2.3.4.5.6.7.8.9.0.a.b.c.d.e.f.g.h.i.j.k.l...m.n.o.p.      ",
"      o.q.r.s.t.u.v.w.x.y.z.A.B.C.D.E.F.G.H.I.J.K.L.M.N.O.P.Q.R.S.      ",
"      T.U.V.W.X.Y.Z.`. +.+++@+#+$+%+&+*+=+-+;+>+,+'+)+!+~+{+]+^+/+      ",
"      (+_+:+<+[+}+|+1+2+3+4+5+6+7+8+9+0+a+b+c+d+e+f+g+h+i+j+k+l+m+      ",
"      n+o+p+q+r+s+t+u+v+w+x+y+z+A+B+C+D+E+F+G+H+I+J+K+L+M+N+O+P+Q+      ",
"      R+S+T+U+V+W+X+Y+Z+`+ @.@+@@@#@$@%@&@*@=@-@;@>@,@'@)@!@~@{@]@      ",
"      ^@/@(@_@:@<@[@}@|@1@2@8+3@4@5@6@7@8@A+9@0@a@b@c@d@e@f@g@h@i@      ",
"      j@k@T+l@m@n@o@p@q@r@s@t@u@v@w@x@4@y@z@-@A@B@C@D@E@F@G@H@I@J@      ",
"      ^+K@L@M@N@O@P@Q@R@S@T@U@V@W@X@w@Y@Z@`@ #.#+#:@@###$#%#&#*#=#      ",
"      -#;#>#,#'#)#!#~#$@{#]#^#/#(#_#5@:#<#[#}#|#1#:@2#3#4#5#6#7#8#      ",
"      9#0#a#b#c#d#e#f#g#h#i#j#k#l#w@m#n#o#p#=@q#r#s#t#u#v#w#x#y#z#      ",
"      A#B#C#D#E#F#G#H#I#U+J#K#L#M#2@N#O#P#Q#R#S#`@T#U#V#W#X#Y#Z#`#      ",
"       $.$+$@$#$$$%$&$*$(@=$3#-$;$>$,$'$)$!$~${$]$^$/$($_$:$<$[$`#      ",
"      }$|$1$2$3$4$5$6$7$8$9$0$m@a$b$c$d$e$f$g$h$i$j$k$l$m$n$o$p$q$      ",
"      _+r$s$t$u$v$w$x$y$z$A$B$C$D$z@m#E$=$F$G$H$I$J$K$L$M$N$O$P$Q$      ",
"      R$S$T$U$V$W$X$Y$Z$`$ %.%+%@%#%$%%%&%*%=%-%;%>%,%'%)%!%~%{%]%      ",
"      ^%/%(%_%:%<%[%}%|%1%2%3%4%5%6%7%8%9%0%a%b%c%d%e%f%g%h%i%/@j%      ",
"      k%l%m%n%o%p%q%r%s%t%Y+u%v%w%x%y%z%A%B%C%D%E%F%G%H%I%J%}$K%L%      ",
"      M%N%O%P%Q%R%S%T%U%V%W%X%Y%Z%`% &.&+&@&#&$&%&&&*&=&-&;&i@>&,&      ",
"      '&)&!&~&{&@$]&^&/&(&_&:&<&[&}&|&1&2&3&4&5&6&7&8&9&0&a&b&`#c&      ",
"      [.d&e&f&g&h&i&j&k&l&m&n&o&p&q&r&s&t&u&v&w&x&y&z&A&B&C&D&]@p.      ",
"      E&F&G&H&I&J&K&L&M&N&O&P&Q&R&S&T&U&V&W&X&Y&Z&`& *.*+*@*#*$*%*      ",
"      &***=*-*;*>*,*'*)*!*~*{*]*^*/*(*_*:*]*<*[*}*|*1*2*3*4*5*6*7*      ",
"      8*9*0*a*(+b*c*d*e*f*g*h*i*j*k*l*l*m*n*o*p*q*r*s*R$R.t*u*v*w*      ",
"      x*y*z*A*B*C*D*E*F*G*e*H*I*J*K*L*M*N*O*P*Q*R*S*T*$*4*U*V*W*X*      ",
"        Y*Z*`* =.=+=@=#=$=%=&=*===-=;=>=,='=*=)=!=~={=]=^=/=(=_=        ",
"                                                                        ",
"                                                                        ",
"                                                                        ",
"                                                                        ",
"                                                                        ",
"                                                                        "};
