/* XPM */
static char * taskbarbg_xpm[] = {
"12 65 13 1",
" 	c None",
".	c #D9D9D9",
"+	c #DADADA",
"@	c #DBDBDB",
"#	c #D8D8D8",
"$	c #65707B",
"%	c #050505",
"&	c #040404",
"*	c #060606",
"=	c #010101",
"-	c #030303",
";	c #020202",
">	c #060000",
".+@+####..##",
"$$$$$$$$$$$$",
"$$$$$$$$$$$$",
"$$$$$$$$$$$$",
"$$$$$$$$$$$$",
"$$$$$$$$$$$$",
"$$$$$$$$$$$$",
"$$$$$$$$$$$$",
"$$$$$$$$$$$$",
"$$$$$$$$$$$$",
"%%%%&&%%%%**",
"============",
"&-&-%&%%*%*%",
";;;;;;;;;;;;",
"----;;;;;;;;",
"------------",
"------------",
"------------",
"------------",
"------------",
"------------",
"------------",
"------------",
"------------",
"------------",
"------------",
"------------",
"------------",
"------------",
"------------",
"------------",
"------------",
"------------",
"------------",
"------------",
"------------",
"------------",
"------------",
"------------",
"------------",
"------------",
"------------",
"------------",
"------------",
"------------",
"------------",
"------------",
"------------",
"------------",
"------------",
"------------",
"------------",
"------------",
">>>>>>>>>>>>",
">>>>>>>>>>>>",
">>>>>>>>>>>>",
">>>>>>>>>>>>",
">>>>>>>>>>>>",
">>>>>>>>>>>>",
">>>>>>>>>>>>",
">>>>>>>>>>>>",
">>>>>>>>>>>>",
">>>>>>>>>>>>",
">>>>>>>>>>>>",
">>>>>>>>>>>>"};
