/* XPM */
static char * taskbuttonminimized_xpm[] = {
"6 65 57 1",
" 	c None",
".	c #65707B",
"+	c #000B00",
"@	c #000700",
"#	c #000100",
"$	c #020003",
"%	c #010005",
"&	c #000004",
"*	c #000103",
"=	c #000302",
"-	c #000400",
";	c #000200",
">	c #010200",
",	c #030200",
"'	c #020100",
")	c #060201",
"!	c #040301",
"~	c #060405",
"{	c #030303",
"]	c #060606",
"^	c #040404",
"/	c #070707",
"(	c #080808",
"_	c #050505",
":	c #090909",
"<	c #0A0A0A",
"[	c #0B0B0B",
"}	c #0F0F0F",
"|	c #0D0D0D",
"1	c #101010",
"2	c #0E0E0E",
"3	c #111111",
"4	c #121212",
"5	c #131313",
"6	c #181818",
"7	c #141414",
"8	c #191919",
"9	c #151515",
"0	c #1A1A1A",
"a	c #161616",
"b	c #171717",
"c	c #1B1B1B",
"d	c #1D1D1D",
"e	c #1E1E1E",
"f	c #1C1C1C",
"g	c #1F1F1F",
"h	c #202020",
"i	c #212121",
"j	c #232323",
"k	c #252525",
"l	c #262626",
"m	c #242424",
"n	c #272727",
"o	c #282828",
"p	c #292929",
"q	c #2A2A2A",
"r	c #2B2B2B",
"......",
"......",
"......",
"......",
"......",
"......",
"......",
"......",
"......",
"++++++",
"++++++",
"@@@@@@",
"######",
"$$$$$$",
"%%%%%%",
"&&&&&&",
"******",
"======",
"------",
";;;;;;",
">#>#>#",
",',','",
")!)!)!",
"~{~{~{",
"]^]^]^",
"/^/^/^",
"(_(_(_",
":]:]:]",
"</</</",
"[([([(",
"[([([(",
"}|}|}|",
"}|}|}|",
"121212",
"121212",
"3}3}3}",
"4}4}4}",
"4}4}4}",
"515151",
"565656",
"565656",
"787878",
"989898",
"909090",
"a0a0a0",
"a0a0a0",
"bcbcbc",
"0d0d0d",
"0d0d0d",
"cecece",
"fgfgfg",
"dgdgdg",
"eheheh",
"gigigi",
"hihihi",
"jkjkjk",
"jljljl",
"mlmlml",
"knknkn",
"lololo",
"npnpnp",
"oqoqoq",
"pqpqpq",
"rrrrrr",
"rrrrrr"};
