/* XPM */
static char * toolbuttonbg_xpm[] = {
"6 65 5 1",
" 	c None",
".	c #65707B",
"+	c #000B00",
"@	c #05181A",
"#	c #000700",
"......",
"......",
"......",
"......",
"......",
"......",
"......",
"......",
"......",
"+++@@@",
"######",
"######",
"######",
"######",
"######",
"######",
"######",
"######",
"######",
"######",
"######",
"######",
"######",
"######",
"######",
"######",
"######",
"######",
"######",
"######",
"######",
"######",
"######",
"######",
"######",
"######",
"######",
"######",
"######",
"######",
"######",
"######",
"######",
"######",
"######",
"######",
"######",
"######",
"######",
"######",
"######",
"######",
"######",
"######",
"######",
"######",
"######",
"######",
"######",
"######",
"######",
"######",
"######",
"######",
"######"};
