/* XPM */
static char * toolbarbg_xpm[] = {
"6 65 36 1",
" 	c None",
".	c #65707B",
"+	c #000C00",
"@	c #000D00",
"#	c #000700",
"$	c #000200",
"%	c #000100",
"&	c #020500",
"*	c #050306",
"=	c #070206",
"-	c #050304",
";	c #030000",
">	c #010000",
",	c #030005",
"'	c #040005",
")	c #030004",
"!	c #050005",
"~	c #040003",
"{	c #040006",
"]	c #010004",
"^	c #010002",
"/	c #000000",
"(	c #000400",
"_	c #010300",
":	c #111610",
"<	c #272926",
"[	c #2B2B29",
"}	c #2B2B2B",
"|	c #282627",
"1	c #282629",
"2	c #2B292C",
"3	c #2D282C",
"4	c #292929",
"5	c #2A2829",
"6	c #272727",
"7	c #181818",
"......",
"......",
"......",
"......",
"......",
"......",
"++@@##",
"$$%$&&",
"$$%$&&",
"**=-;>",
",,')!~",
"{{,,))",
"]]]]^^",
"%%/%/%",
"((_(_(",
"::::::",
"<<<<<<",
"[[}[}[",
"||1|1|",
"223232",
"445454",
"444444",
"444444",
"444444",
"444444",
"444444",
"444444",
"444444",
"444444",
"444444",
"444444",
"444444",
"444444",
"444444",
"444444",
"444444",
"444444",
"444444",
"444444",
"444444",
"444444",
"444444",
"444444",
"444444",
"444444",
"444444",
"444444",
"444444",
"444444",
"444444",
"444444",
"444444",
"444444",
"444444",
"444444",
"444444",
"444444",
"444444",
"444444",
"444444",
"444444",
"444444",
"444444",
"666666",
"777777"};
