/* XPM */
static char * workspacebuttonactive_xpm[] = {
"24 65 57 1",
" 	c None",
".	c #65707B",
"+	c #CCCCCC",
"@	c #000B00",
"#	c #000700",
"$	c #000100",
"%	c #020003",
"&	c #010005",
"*	c #000004",
"=	c #000103",
"-	c #000302",
";	c #000400",
">	c #000200",
",	c #010200",
"'	c #030200",
")	c #020100",
"!	c #060201",
"~	c #040301",
"{	c #060405",
"]	c #030303",
"^	c #060606",
"/	c #040404",
"(	c #070707",
"_	c #080808",
":	c #050505",
"<	c #090909",
"[	c #0A0A0A",
"}	c #0B0B0B",
"|	c #0F0F0F",
"1	c #0D0D0D",
"2	c #101010",
"3	c #0E0E0E",
"4	c #111111",
"5	c #121212",
"6	c #131313",
"7	c #181818",
"8	c #141414",
"9	c #191919",
"0	c #151515",
"a	c #1A1A1A",
"b	c #161616",
"c	c #171717",
"d	c #1B1B1B",
"e	c #1D1D1D",
"f	c #1E1E1E",
"g	c #1C1C1C",
"h	c #1F1F1F",
"i	c #202020",
"j	c #212121",
"k	c #232323",
"l	c #252525",
"m	c #262626",
"n	c #242424",
"o	c #272727",
"p	c #282828",
"q	c #292929",
"r	c #2A2A2A",
"........................",
"........................",
"........................",
"........................",
"........................",
"........................",
"........................",
"........................",
"........................",
"++++++++++++++++++++++++",
"+@@@@@@@@@@@@@@@@@@@@@@+",
"+######################+",
"+$$$$$$$$$$$$$$$$$$$$$$+",
"+%%%%%%%%%%%%%%%%%%%%%%+",
"+&&&&&&&&&&&&&&&&&&&&&&+",
"+**********************+",
"+======================+",
"+----------------------+",
"+;;;;;;;;;;;;;;;;;;;;;;+",
"+>>>>>>>>>>>>>>>>>>>>>>+",
"+,$,$,$,$,,$,$,,$,$,$,$+",
"+')')')')'')')'')')')')+",
"+!~!~!~!~!!~!~!!~!~!~!~+",
"+{]{]{]{]{{]{]{{]{]{]{]+",
"+^/^/^/^/^^/^/^^/^/^/^/+",
"+(/(/(/(/((/(/((/(/(/(/+",
"+_:_:_:_:__:_:__:_:_:_:+",
"+<^<^<^<^<<^<^<<^<^<^<^+",
"+[([([([([[([([[([([([(+",
"+}_}_}_}_}}_}_}}_}_}_}_+",
"+}_}_}_}_}}_}_}}_}_}_}_+",
"+|1|1|1|1||1|1||1|1|1|1+",
"+|1|1|1|1||1|1||1|1|1|1+",
"+2323232322323223232323+",
"+2323232322323223232323+",
"+4|4|4|4|44|4|44|4|4|4|+",
"+5|5|5|5|55|5|55|5|5|5|+",
"+5|5|5|5|55|5|55|5|5|5|+",
"+6262626266262662626262+",
"+6767676766767667676767+",
"+6767676766767667676767+",
"+8989898988989889898989+",
"+0909090900909009090909+",
"+0a0a0a0a00a0a00a0a0a0a+",
"+bababababbababbabababa+",
"+bababababbababbabababa+",
"+cdcdcdcdccdcdccdcdcdcd+",
"+aeaeaeaeaaeaeaaeaeaeae+",
"+aeaeaeaeaaeaeaaeaeaeae+",
"+dfdfdfdfddfdfddfdfdfdf+",
"+ghghghghgghghgghghghgh+",
"+eheheheheeheheeheheheh+",
"+fififififfififfifififi+",
"+hjhjhjhjhhjhjhhjhjhjhj+",
"+ijijijijiijijiijijijij+",
"+klklklklkklklkklklklkl+",
"+kmkmkmkmkkmkmkkmkmkmkm+",
"+nmnmnmnmnnmnmnnmnmnmnm+",
"+lolololollolollolololo+",
"+mpmpmpmpmmpmpmmpmpmpmp+",
"+oqoqoqoqooqoqooqoqoqoq+",
"+prprprprpprprpprprprpr+",
"+qqqqqqqqqqqqqqqqqqqqqq+",
"++++++++++++++++++++++++",
"++++++++++++++++++++++++"};
