/* XPM */
static char * workspacebuttonbg_xpm[] = {
"6 65 4 1",
" 	c None",
".	c #65707B",
"+	c #000B00",
"@	c #000700",
"......",
"......",
"......",
"......",
"......",
"......",
"......",
"......",
"......",
"++++++",
"@@@@@@",
"@@@@@@",
"@@@@@@",
"@@@@@@",
"@@@@@@",
"@@@@@@",
"@@@@@@",
"@@@@@@",
"@@@@@@",
"@@@@@@",
"@@@@@@",
"@@@@@@",
"@@@@@@",
"@@@@@@",
"@@@@@@",
"@@@@@@",
"@@@@@@",
"@@@@@@",
"@@@@@@",
"@@@@@@",
"@@@@@@",
"@@@@@@",
"@@@@@@",
"@@@@@@",
"@@@@@@",
"@@@@@@",
"@@@@@@",
"@@@@@@",
"@@@@@@",
"@@@@@@",
"@@@@@@",
"@@@@@@",
"@@@@@@",
"@@@@@@",
"@@@@@@",
"@@@@@@",
"@@@@@@",
"@@@@@@",
"@@@@@@",
"@@@@@@",
"@@@@@@",
"@@@@@@",
"@@@@@@",
"@@@@@@",
"@@@@@@",
"@@@@@@",
"@@@@@@",
"@@@@@@",
"@@@@@@",
"@@@@@@",
"@@@@@@",
"@@@@@@",
"@@@@@@",
"@@@@@@",
"@@@@@@"};
