/* XPM */
static char * folder_32x32_xpm[] = {
"20 20 224 2",
"  	c None",
". 	c #E7CC9E",
"+ 	c #DFC8A1",
"@ 	c #E4CDA5",
"# 	c #E6D2AF",
"$ 	c #EBD6B2",
"% 	c #F0E0C5",
"& 	c #F5E4C9",
"* 	c #FBE9CB",
"= 	c #FCDDA9",
"- 	c #F4D6A2",
"; 	c #F0D6AB",
"> 	c #F3D8AA",
", 	c #FCDEAA",
"' 	c #F3D59F",
") 	c #D7C19F",
"! 	c #FDE5BC",
"~ 	c #FDE5BB",
"{ 	c #FDE6BD",
"] 	c #FEEDD1",
"^ 	c #FEECCF",
"/ 	c #FAE2BA",
"( 	c #E4C695",
"_ 	c #F0DFC1",
": 	c #FEE9C6",
"< 	c #FDDFAD",
"[ 	c #FCDCA6",
"} 	c #F0D39D",
"| 	c #D9C3A0",
"1 	c #FDE4BA",
"2 	c #FDE4B9",
"3 	c #FDE7C0",
"4 	c #FEECCC",
"5 	c #F7E5C6",
"6 	c #D9C095",
"7 	c #B69D75",
"8 	c #F5E2C3",
"9 	c #FEE7C1",
"0 	c #FDDFAB",
"a 	c #FBDAA1",
"b 	c #EDD09B",
"c 	c #D8C29F",
"d 	c #FBE2B7",
"e 	c #FBE2B6",
"f 	c #FCE7C0",
"g 	c #FDEAC8",
"h 	c #EFDAB6",
"i 	c #B7A077",
"j 	c #9B8664",
"k 	c #F6E3C1",
"l 	c #FEE5BC",
"m 	c #F9D79D",
"n 	c #EACE98",
"o 	c #D7C19D",
"p 	c #F9E0B3",
"q 	c #FAE0B2",
"r 	c #FBE6BF",
"s 	c #FCE7C2",
"t 	c #ECD3A6",
"u 	c #B29B73",
"v 	c #998461",
"w 	c #F7E2BF",
"x 	c #FDE3B7",
"y 	c #FCDDA8",
"z 	c #F6D498",
"A 	c #E9CC97",
"B 	c #D8C19D",
"C 	c #F8DEAF",
"D 	c #FAE4BD",
"E 	c #FAE3BB",
"F 	c #EACC98",
"G 	c #B09970",
"H 	c #97815D",
"I 	c #F7E2BE",
"J 	c #FCE2B3",
"K 	c #FBDCA5",
"L 	c #F3D193",
"M 	c #E7CB95",
"N 	c #D3BE9A",
"O 	c #F6DBAB",
"P 	c #F6DCAD",
"Q 	c #F8E1B8",
"R 	c #F7DDAE",
"S 	c #E7C892",
"T 	c #AE976C",
"U 	c #96805B",
"V 	c #F8E2BC",
"W 	c #FCE0AF",
"X 	c #F9D9A2",
"Y 	c #F1CF90",
"Z 	c #E5C892",
"` 	c #D0BA97",
" .	c #F3D9A7",
"..	c #F4DBAB",
"+.	c #F6DEB1",
"@.	c #F4D7A0",
"#.	c #E4C68E",
"$.	c #AC9468",
"%.	c #957F5A",
"&.	c #F8E1BA",
"*.	c #FCDEAB",
"=.	c #F6D69D",
"-.	c #EECD8D",
";.	c #E1C58F",
">.	c #CDB894",
",.	c #F1D6A3",
"'.	c #F2D9A8",
").	c #F3D9A9",
"!.	c #F1D196",
"~.	c #E1C389",
"{.	c #AA9266",
"].	c #947E59",
"^.	c #F9E1B8",
"/.	c #FBDCA6",
"(.	c #F4D398",
"_.	c #EBCA8A",
":.	c #DDC18C",
"<.	c #CCB591",
"[.	c #EFD49F",
"}.	c #F0D6A4",
"|.	c #EFCE91",
"1.	c #DFC084",
"2.	c #A89064",
"3.	c #937D58",
"4.	c #F9E0B5",
"5.	c #F9D9A1",
"6.	c #F1D093",
"7.	c #E7C688",
"8.	c #D9BC89",
"9.	c #BFAA86",
"0.	c #ECD09A",
"a.	c #EED39F",
"b.	c #ECCE92",
"c.	c #ECCB8C",
"d.	c #DCBD82",
"e.	c #A68F62",
"f.	c #927C57",
"g.	c #F9DFB1",
"h.	c #EECD8F",
"i.	c #E3C285",
"j.	c #D4B885",
"k.	c #DCC499",
"l.	c #E9CF9E",
"m.	c #E9CC95",
"n.	c #E8C88B",
"o.	c #E8C788",
"p.	c #DABB80",
"q.	c #A58E61",
"r.	c #917D55",
"s.	c #BEA881",
"t.	c #F4D499",
"u.	c #EBCA8B",
"v.	c #DEBE82",
"w.	c #CFB381",
"x.	c #706250",
"y.	c #E7DCC8",
"z.	c #E6D3AE",
"A.	c #E3C58C",
"B.	c #E4C385",
"C.	c #DCBC80",
"D.	c #AF9767",
"E.	c #A7926D",
"F.	c #F1D195",
"G.	c #E7C687",
"H.	c #D9B97E",
"I.	c #CAAE7D",
"J.	c #685C4B",
"K.	c #E6DBC7",
"L.	c #E3CEA8",
"M.	c #DEBE83",
"N.	c #E0BF83",
"O.	c #DFBF82",
"P.	c #C2A672",
"Q.	c #947F57",
"R.	c #A5906B",
"S.	c #EECE90",
"T.	c #E2C284",
"U.	c #D4B47B",
"V.	c #C5A978",
"W.	c #615646",
"X.	c #E4DAC6",
"Y.	c #DFC9A3",
"Z.	c #DABA7F",
"`.	c #DBBB80",
" +	c #C5A873",
".+	c #947E56",
"++	c #A28E69",
"@+	c #EBCA8C",
"#+	c #DDBD81",
"$+	c #CFB078",
"%+	c #C1A474",
"&+	c #5B5142",
"*+	c #BFC2BD",
"=+	c #D1BF9D",
"-+	c #D4B57B",
";+	c #D6B67C",
">+	c #D7B77D",
",+	c #D8B87E",
"'+	c #C3A672",
")+	c #927D55",
"!+	c #A08C67",
"~+	c #CAAB75",
"{+	c #C5AA7E",
"]+	c #564C3E",
"^+	c #A1AFB5",
"/+	c #C7B898",
"(+	c #D0B079",
"_+	c #D1B27A",
":+	c #D3B37A",
"<+	c #D4B57C",
"[+	c #C7AC7B",
"}+	c #8E7C5B",
"|+	c #948466",
"1+	c #E2C285",
"2+	c #CFB484",
"3+	c #463E33",
"4+	c #C0AE8D",
"5+	c #CCAF7C",
"6+	c #D1B582",
"7+	c #D5BA89",
"8+	c #82735D",
"9+	c #DDBE83",
"0+	c #D6BC8A",
"a+	c #DFC797",
"                              . + @     ",
"              # $ % & * = - ; > , '     ",
"          ) ! ~ { ] ^ / ( _ : < [ }     ",
"          | 1 2 3 4 5 6 7 8 9 0 a b     ",
"          c d e f g h i j k l , m n     ",
"          o p q r s t u v w x y z A     ",
"          B C C D E F G H I J K L M     ",
"          N O P Q R S T U V W X Y Z     ",
"          `  ...+.@.#.$.%.&.*.=.-.;.    ",
"          >.,.'.).!.~.{.].^./.(._.:.    ",
"          <.[.}.} |.1.2.3.4.5.6.7.8.    ",
"          9.0.a.b.c.d.e.f.g.=.h.i.j.    ",
"          k.l.m.n.o.p.q.r.s.t.u.v.w.    ",
"        x.y.z.A.i.B.C.D.r.E.F.G.H.I.    ",
"        J.K.L.M.v.N.O.P.Q.R.S.T.U.V.    ",
"        W.X.Y.H.Z.`.C. +.+++@+#+$+%+    ",
"        &+*+=+-+;+>+,+'+)+!+7.H.~+{+    ",
"        ]+^+/+(+_+:+<+[+}+|+1+U.2+      ",
"        3+4+5+6+7+        8+9+0+        ",
"                            a+          "};
