/* XPM */
static char * desktop_xpm[] = {
"20 20 142 2",
"  	c None",
". 	c #A3B3C4",
"+ 	c #A5B5C6",
"@ 	c #B0BDCB",
"# 	c #BDC8D3",
"$ 	c #CCD3DA",
"% 	c #D9DDE1",
"& 	c #E1E4E6",
"* 	c #E3E5E8",
"= 	c #DCE0E6",
"- 	c #CFD7E2",
"; 	c #BFCBDB",
"> 	c #B0C1D6",
", 	c #083387",
"' 	c #0B3789",
") 	c #0E398A",
"! 	c #16428F",
"~ 	c #1B468F",
"{ 	c #204B93",
"] 	c #255095",
"^ 	c #295496",
"/ 	c #2E5998",
"( 	c #38629C",
"_ 	c #3B659E",
": 	c #3F69A0",
"< 	c #446DA1",
"[ 	c #597DA7",
"} 	c #ABBDD4",
"| 	c #5176BB",
"1 	c #5479BE",
"2 	c #567DC0",
"3 	c #537BBF",
"4 	c #4F78BF",
"5 	c #4A77BF",
"6 	c #4675BD",
"7 	c #4374BD",
"8 	c #4779BE",
"9 	c #487BC0",
"0 	c #4D81C1",
"a 	c #5286C4",
"b 	c #5F84AD",
"c 	c #A7BAD2",
"d 	c #083388",
"e 	c #5276BC",
"f 	c #5076BE",
"g 	c #4F78C2",
"h 	c #4C78C4",
"i 	c #4776C5",
"j 	c #4376C5",
"k 	c #4175C5",
"l 	c #4076C5",
"m 	c #487DC9",
"n 	c #4D84CB",
"o 	c #5289CD",
"p 	c #578ECF",
"q 	c #6389B5",
"r 	c #A5B8D1",
"s 	c #083489",
"t 	c #4C73BD",
"u 	c #4771BF",
"v 	c #4774C6",
"w 	c #4474C9",
"x 	c #4175CD",
"y 	c #3F76D0",
"z 	c #3D77D0",
"A 	c #407BD2",
"B 	c #4D88D8",
"C 	c #528DDA",
"D 	c #5893DC",
"E 	c #5D98DF",
"F 	c #6890BF",
"G 	c #446DBA",
"H 	c #3E6BBF",
"I 	c #3E70C8",
"J 	c #3B72CE",
"K 	c #3974D5",
"L 	c #3A77D8",
"M 	c #3C7ADA",
"N 	c #4483DD",
"O 	c #518FE3",
"P 	c #5795E6",
"Q 	c #5C9AE8",
"R 	c #61A0EA",
"S 	c #6B95C6",
"T 	c #3A66B7",
"U 	c #3464BE",
"V 	c #356AC9",
"W 	c #346FD2",
"X 	c #3471D9",
"Y 	c #3778DE",
"Z 	c #3E7EE1",
"` 	c #4687E4",
" .	c #5494EA",
"..	c #5A9AED",
"+.	c #5F9FEF",
"@.	c #65A5F2",
"#.	c #6E9ACC",
"$.	c #29519B",
"%.	c #2450A1",
"&.	c #2D65C8",
"*.	c #2D6AD3",
"=.	c #2F70DC",
"-.	c #387AE2",
";.	c #3F81E5",
">.	c #4789E8",
",.	c #5596EE",
"'.	c #5B9CF1",
").	c #61A2F3",
"!.	c #67A8F6",
"~.	c #6F9BCE",
"{.	c #6B99B9",
"].	c #72B2FA",
"^.	c #3488FF",
"/.	c #669EC3",
"(.	c #3070DC",
"_.	c #5496EE",
":.	c #6F9BCF",
"<.	c #959799",
"[.	c #F73E0E",
"}.	c #76C631",
"|.	c #848585",
"1.	c #75787B",
"2.	c #18B2FF",
"3.	c #FFDA59",
"4.	c #216EC2",
"5.	c #353535",
"6.	c #3A3A3A",
"7.	c #3C7CA8",
"8.	c #1052A7",
"9.	c #298EC3",
"0.	c #373737",
"a.	c #A4B4C5",
"b.	c #ADBBCA",
"c.	c #BAC6D1",
"d.	c #C9D1D9",
"e.	c #D6DBE0",
"f.	c #E0E3E5",
"g.	c #E3E6E8",
"h.	c #DEE2E7",
"i.	c #D2DAE2",
"j.	c #C2CEDD",
"k.	c #B3C3D6",
"                                        ",
"                                        ",
"                                        ",
"    . . . . . + @ # $ % & * = - ; >     ",
"    . , ' ) ! ~ { ] ^ / ( _ : < [ }     ",
"    . , | 1 2 3 4 5 6 7 8 9 0 a b c     ",
"    . d e f g h i j k l m n o p q r     ",
"    . s t u v w x y z A B C D E F r     ",
"    . s G H I J K L M N O P Q R S r     ",
"    . s T U V W X Y Z `  ...+.@.#.r     ",
"    . s $.%.&.*.=.-.;.>.,.'.).!.~.r     ",
"    . s {.].^./.(.-.;.>._.'.).!.:.r     ",
"    . <.].[.}.^.|.|.|.|.|.|.|.|.|.r     ",
"    . 1.^.2.3.4.5.5.5.5.5.5.5.5.5.r     ",
"    . 6.7.4.8.9.0.0.0.0.0.0.0.0.0.r     ",
"    a.b.c.d.e.f.g.h.i.j.k.c r r r r     ",
"                                        ",
"                                        ",
"                                        ",
"                                        "};
