/* XPM */
static char * icewm_xpm[] = {
"51 30 891 2",
"  	c None",
". 	c #585458",
"+ 	c #515659",
"@ 	c #50555A",
"# 	c #424A4E",
"$ 	c #2A373C",
"% 	c #00121C",
"& 	c #072837",
"* 	c #284662",
"= 	c #3D6B9F",
"- 	c #60ABDA",
"; 	c #A8D4F6",
"> 	c #B5DDFF",
", 	c #B1D9FF",
"' 	c #ACD1F6",
") 	c #37434F",
"! 	c #040204",
"~ 	c #000000",
"{ 	c #060606",
"] 	c #343434",
"^ 	c #2C333C",
"/ 	c #9FC0E1",
"( 	c #B3DAFF",
"_ 	c #B3D9FF",
": 	c #B5DBFF",
"< 	c #A8D3F4",
"[ 	c #59A1D3",
"} 	c #1B4D85",
"| 	c #06243E",
"1 	c #0C1922",
"2 	c #393E43",
"3 	c #4E484E",
"4 	c #595359",
"5 	c #B5B5B3",
"6 	c #B4B6B5",
"7 	c #B5B5B5",
"8 	c #9D9F9E",
"9 	c #676C71",
"0 	c #0D1723",
"a 	c #0E1C32",
"b 	c #2A4764",
"c 	c #3872A8",
"d 	c #71B8E5",
"e 	c #A9D8FD",
"f 	c #A9D4FD",
"g 	c #A6D1FE",
"h 	c #A9D3FD",
"i 	c #6E8BA8",
"j 	c #010101",
"k 	c #070707",
"l 	c #202020",
"m 	c #050505",
"n 	c #374553",
"o 	c #A7D4FD",
"p 	c #A9D6FD",
"q 	c #6EADDE",
"r 	c #215A95",
"s 	c #182A42",
"t 	c #242E34",
"u 	c #7C787C",
"v 	c #A1A1A1",
"w 	c #B6B6B6",
"x 	c #8C8C8C",
"y 	c #8C8E8D",
"z 	c #8A8C8B",
"A 	c #8B8D8C",
"B 	c #848685",
"C 	c #5D6163",
"D 	c #121B24",
"E 	c #081A32",
"F 	c #294761",
"G 	c #3971A5",
"H 	c #75BBE7",
"I 	c #A1D5FD",
"J 	c #9CCFFE",
"K 	c #99CBFF",
"L 	c #9CCCFE",
"M 	c #9DCCFD",
"N 	c #40556A",
"O 	c #030303",
"P 	c #080808",
"Q 	c #040708",
"R 	c #87B1DB",
"S 	c #9FCDFD",
"T 	c #9FD2FD",
"U 	c #6DADDF",
"V 	c #215993",
"W 	c #13283F",
"X 	c #293337",
"Y 	c #696B6A",
"Z 	c #8C8C8A",
"` 	c #898B8A",
" .	c #6E7274",
"..	c #2A3138",
"+.	c #061324",
"@.	c #1C3E52",
"#.	c #3C6A9E",
"$.	c #68B5E6",
"%.	c #94D0FE",
"&.	c #8DC8FF",
"*.	c #8BC4FF",
"=.	c #8DC5FF",
"-.	c #8FC6FF",
";.	c #2F4155",
">.	c #373737",
",.	c #484848",
"'.	c #1E1E1E",
").	c #777777",
"!.	c #646464",
"~.	c #0D0D0D",
"{.	c #597C9F",
"].	c #8FC9FF",
"^.	c #93CCFD",
"/.	c #61AADD",
"(.	c #1B4981",
"_.	c #1A2736",
":.	c #414549",
"<.	c #747675",
"[.	c #8A8A88",
"}.	c #868887",
"|.	c #787A79",
"1.	c #4A5256",
"2.	c #010E1F",
"3.	c #0F213B",
"4.	c #3C5C88",
"5.	c #55A6D9",
"6.	c #87CBFB",
"7.	c #82C0FA",
"8.	c #7EBFFC",
"9.	c #81BDFB",
"0.	c #82BEFC",
"a.	c #354A5F",
"b.	c #9E9E9E",
"c.	c #C0C0C0",
"d.	c #1A1A1A",
"e.	c #9F9F9F",
"f.	c #979797",
"g.	c #CFCFCF",
"h.	c #272727",
"i.	c #436485",
"j.	c #82BFFE",
"k.	c #82C2FE",
"l.	c #85C5FB",
"m.	c #4A9AD2",
"n.	c #5F155E",
"o.	c #1E2C32",
"p.	c #7A7B79",
"q.	c #828483",
"r.	c #656766",
"s.	c #1B222B",
"t.	c #04162E",
"u.	c #2A4A68",
"v.	c #3F8ABF",
"w.	c #78BFF0",
"x.	c #78BBF4",
"y.	c #73B4F1",
"z.	c #72B4F2",
"A.	c #74B5F2",
"B.	c #74B6F4",
"C.	c #75B7F5",
"D.	c #76B8F6",
"E.	c #364D64",
"F.	c #5A5A5A",
"G.	c #887D62",
"H.	c #836A1D",
"I.	c #B8A670",
"J.	c #232017",
"K.	c #8B8B8B",
"L.	c #3F3F3F",
"M.	c #406486",
"N.	c #77B9F7",
"O.	c #76B7F4",
"P.	c #75B6ED",
"Q.	c #3178B5",
"R.	c #172A47",
"S.	c #333B3F",
"T.	c #6C6F6B",
"U.	c #7F7D7F",
"V.	c #7D7F7E",
"W.	c #807E80",
"X.	c #787678",
"Y.	c #474B4D",
"Z.	c #020C18",
"`.	c #0D3241",
" +	c #396899",
".+	c #5FB1E5",
"++	c #72B7EC",
"@+	c #68A9E6",
"#+	c #66A8E6",
"$+	c #68AAE8",
"%+	c #69ABE9",
"&+	c #6AACEA",
"*+	c #6BADEB",
"=+	c #6EAEEA",
"-+	c #2E4A64",
";+	c #927D46",
">+	c #DDAC01",
",+	c #FBC711",
"'+	c #F5C503",
")+	c #CEA30C",
"!+	c #D3B85B",
"~+	c #1A1810",
"{+	c #2F4B65",
"]+	c #6DAFED",
"^+	c #6EAFEC",
"/+	c #58A6DC",
"(+	c #1B477D",
"_+	c #212D35",
":+	c #5B5D5C",
"<+	c #757776",
"[+	c #797779",
"}+	c #767877",
"|+	c #655F65",
"1+	c #20282C",
"2+	c #061322",
"3+	c #264462",
"4+	c #418FC5",
"5+	c #68B2E6",
"6+	c #5FA4DF",
"7+	c #5A9CDA",
"8+	c #5B9DDB",
"9+	c #5C9EDC",
"0+	c #5D9FDD",
"a+	c #5EA0DE",
"b+	c #5FA1DF",
"c+	c #60A2E0",
"d+	c #61A3E1",
"e+	c #62A4E2",
"f+	c #3D556F",
"g+	c #D8A800",
"h+	c #FFCC01",
"i+	c #FFCE0B",
"j+	c #FFCB17",
"k+	c #EDBD17",
"l+	c #DFAD01",
"m+	c #281E00",
"n+	c #15232F",
"o+	c #61A1DD",
"p+	c #64ABE2",
"q+	c #347EBC",
"r+	c #451B43",
"s+	c #3E4144",
"t+	c #737173",
"u+	c #727072",
"v+	c #4C5054",
"w+	c #030D19",
"x+	c #0C2530",
"y+	c #355B8B",
"z+	c #53AAE1",
"A+	c #5BA4DD",
"B+	c #4F91CF",
"C+	c #4D8FCD",
"D+	c #4E90CE",
"E+	c #5092D0",
"F+	c #5193D1",
"G+	c #5294D2",
"H+	c #5395D3",
"I+	c #5496D4",
"J+	c #5597D5",
"K+	c #5698D6",
"L+	c #5799D7",
"M+	c #335577",
"N+	c #9A7828",
"O+	c #E3B101",
"P+	c #EBB701",
"Q+	c #E2B106",
"R+	c #E0B10C",
"S+	c #D1B255",
"T+	c #26241E",
"U+	c #383838",
"V+	c #2C282C",
"W+	c #477DAF",
"X+	c #579CD7",
"Y+	c #4B9CD5",
"Z+	c #1C3D6E",
"`+	c #283034",
" @	c #595D5F",
".@	c #6F7170",
"+@	c #696C6D",
"@@	c #646064",
"#@	c #353B41",
"$@	c #000D1E",
"%@	c #113143",
"&@	c #3979AF",
"*@	c #51A2DB",
"=@	c #488FCC",
"-@	c #4082C0",
";@	c #4183C1",
">@	c #4385C3",
",@	c #4486C4",
"'@	c #4688C6",
")@	c #4789C7",
"!@	c #488AC8",
"~@	c #498BC9",
"{@	c #4A8CCA",
"]@	c #4B8DCB",
"^@	c #4C8ECC",
"/@	c #1F3851",
"(@	c #A4A29E",
"_@	c #AF934F",
":@	c #CA9F1C",
"<@	c #CDA845",
"[@	c #DFD5BD",
"}@	c #F8F8F8",
"|@	c #8A8A8A",
"1@	c #0E0E0E",
"2@	c #1D364D",
"3@	c #4D8ECB",
"4@	c #4587C5",
"5@	c #4C93D0",
"6@	c #2766A1",
"7@	c #222E3E",
"8@	c #534D53",
"9@	c #616362",
"0@	c #656165",
"a@	c #515352",
"b@	c #21282F",
"c@	c #000F26",
"d@	c #1E3C5E",
"e@	c #4296CC",
"f@	c #4695D2",
"g@	c #377BBB",
"h@	c #3375B3",
"i@	c #3577B5",
"j@	c #3678B6",
"k@	c #387AB8",
"l@	c #3A7CBA",
"m@	c #3B7DBB",
"n@	c #3C7EBC",
"o@	c #3E80BE",
"p@	c #3F81BF",
"q@	c #316391",
"r@	c #2F3235",
"s@	c #F0F0F0",
"t@	c #D0D0D0",
"u@	c #BBB9B7",
"v@	c #E7E6E5",
"w@	c #FEFEFE",
"x@	c #FFFFFF",
"y@	c #F1F1F1",
"z@	c #212121",
"A@	c #060206",
"B@	c #2E5E8A",
"C@	c #3D7FBD",
"D@	c #397BB9",
"E@	c #3779B7",
"F@	c #3679B8",
"G@	c #428AC8",
"H@	c #3484C2",
"I@	c #4B1B48",
"J@	c #3F4649",
"K@	c #555756",
"L@	c #5F5D5F",
"M@	c #5C5E5D",
"N@	c #494B4A",
"O@	c #121922",
"P@	c #00132C",
"Q@	c #254975",
"R@	c #45A4DB",
"S@	c #3686C4",
"T@	c #276AA9",
"U@	c #2668A6",
"V@	c #286AA8",
"W@	c #2A6CAA",
"X@	c #2C6EAC",
"Y@	c #2D6FAD",
"Z@	c #2F71AF",
"`@	c #3072B0",
" #	c #3173B1",
".#	c #3274B2",
"+#	c #2E69A0",
"@#	c #0A141C",
"##	c #B4B4B4",
"$#	c #FCFCFC",
"%#	c #FAFAFA",
"&#	c #747474",
"*#	c #08131C",
"=#	c #2E6AA2",
"-#	c #2E70AE",
";#	c #286BAA",
">#	c #317BB9",
",#	c #3990CD",
"'#	c #183560",
")#	c #333D41",
"!#	c #505251",
"~#	c #585658",
"{#	c #424242",
"]#	c #091019",
"^#	c #001634",
"/#	c #285A88",
"(#	c #3D9CD9",
"_#	c #2979B7",
":#	c #1B5E9D",
"<#	c #1C5E9C",
"[#	c #1E609E",
"}#	c #2062A0",
"|#	c #2264A2",
"1#	c #2466A4",
"2#	c #2567A5",
"3#	c #2769A7",
"4#	c #2967A7",
"5#	c #0D2237",
"6#	c #1D1D1D",
"7#	c #DEDEDE",
"8#	c #F7F7F7",
"9#	c #F6F6F6",
"0#	c #FBFBFB",
"a#	c #E5E5E5",
"b#	c #D5D5D5",
"c#	c #BEBEBE",
"d#	c #0E253A",
"e#	c #2869A6",
"f#	c #2163A1",
"g#	c #1F619F",
"h#	c #246DAA",
"i#	c #338AC7",
"j#	c #1C487A",
"k#	c #3C2A3C",
"l#	c #4B4D4C",
"m#	c #514D51",
"n#	c #4D4F4E",
"o#	c #3B3B3B",
"p#	c #170317",
"q#	c #00193E",
"r#	c #286696",
"s#	c #3692D2",
"t#	c #226FB0",
"u#	c #155795",
"v#	c #175997",
"w#	c #195B99",
"x#	c #1D5F9D",
"y#	c #2365A3",
"z#	c #1A4776",
"A#	c #050305",
"B#	c #5D5D5D",
"C#	c #F9F9F9",
"D#	c #E9E9E9",
"E#	c #CCCCCC",
"F#	c #464646",
"G#	c #151515",
"H#	c #040404",
"I#	c #010405",
"J#	c #18456E",
"K#	c #1B5D9B",
"L#	c #1D62A3",
"M#	c #2D7FBF",
"N#	c #205A90",
"O#	c #25333B",
"P#	c #454746",
"Q#	c #4B494B",
"R#	c #484A49",
"S#	c #363636",
"T#	c #000812",
"U#	c #021C44",
"V#	c #2D72A3",
"W#	c #2C7DBC",
"X#	c #1A609C",
"Y#	c #104F90",
"Z#	c #125492",
"`#	c #145694",
" $	c #165896",
".$	c #185A98",
"+$	c #1A5C9A",
"@$	c #1E5C9C",
"#$	c #0F2437",
"$$	c #1F1F1F",
"%$	c #D7D7D7",
"&$	c #EDEDED",
"*$	c #A4A4A4",
"=$	c #0F0F0F",
"-$	c #061420",
";$	c #1D5D99",
">$	c #175C9D",
",$	c #287ABA",
"'$	c #24659C",
")$	c #23323B",
"!$	c #434544",
"~$	c #201C20",
"{$	c #191919",
"]$	c #000B10",
"^$	c #012D41",
"/$	c #3078AA",
"($	c #276AA3",
"_$	c #10365A",
":$	c #031F3B",
"<$	c #06305C",
"[$	c #0B4377",
"}$	c #104F8A",
"|$	c #135593",
"1$	c #154E83",
"2$	c #13181B",
"3$	c #787878",
"4$	c #F3F3F3",
"5$	c #313131",
"6$	c #121212",
"7$	c #020002",
"8$	c #11406B",
"9$	c #115493",
"0$	c #0F518F",
"a$	c #125594",
"b$	c #2373B1",
"c$	c #23679B",
"d$	c #182730",
"e$	c #262827",
"f$	c #1B191B",
"g$	c #000D12",
"h$	c #00293C",
"i$	c #2D75A3",
"j$	c #296FAB",
"k$	c #11385D",
"l$	c #011429",
"m$	c #001830",
"n$	c #001C38",
"o$	c #012243",
"p$	c #032D55",
"q$	c #063866",
"r$	c #0A4078",
"s$	c #0E4B84",
"t$	c #0A2B4C",
"u$	c #0C0C0C",
"v$	c #535353",
"w$	c #071F35",
"x$	c #125090",
"y$	c #104D8C",
"z$	c #0D4783",
"A$	c #0A3E74",
"B$	c #063464",
"C$	c #03284D",
"D$	c #082C4E",
"E$	c #1D598B",
"F$	c #1B2833",
"G$	c #242625",
"H$	c #000814",
"I$	c #002032",
"J$	c #296B99",
"K$	c #2E7CB8",
"L$	c #14416A",
"M$	c #011A31",
"N$	c #001932",
"O$	c #00203E",
"P$	c #002344",
"Q$	c #00264A",
"R$	c #002A52",
"S$	c #00284E",
"T$	c #080E14",
"U$	c #2D2D2D",
"V$	c #E1E1E1",
"W$	c #6E6E6E",
"X$	c #00070E",
"Y$	c #012E57",
"Z$	c #012A53",
"`$	c #00264C",
" %	c #001E3C",
".%	c #001A34",
"+%	c #092B4B",
"@%	c #216395",
"#%	c #1F5E8F",
"$%	c #232524",
"%%	c #1E1C1E",
"&%	c #1C181C",
"*%	c #190519",
"=%	c #001828",
"-%	c #205C86",
";%	c #3890C8",
">%	c #184C7C",
",%	c #002242",
"'%	c #002446",
")%	c #002850",
"!%	c #00172E",
"~%	c #090909",
"{%	c #494949",
"]%	c #DFDFDF",
"^%	c #0B0B0B",
"/%	c #000408",
"(%	c #00274C",
"_%	c #002140",
":%	c #001C36",
"<%	c #0D355B",
"[%	c #2876AC",
"}%	c #194C77",
"|%	c #212C31",
"1%	c #231F23",
"2%	c #1B171B",
"3%	c #0B1219",
"4%	c #00101C",
"5%	c #13476B",
"6%	c #3F9DD3",
"7%	c #1C5B90",
"8%	c #062A4C",
"9%	c #001F3E",
"0%	c #002448",
"a%	c #002950",
"b%	c #002B54",
"c%	c #252B33",
"d%	c #886D02",
"e%	c #665E3E",
"f%	c #FEFDFC",
"g%	c #6B6B69",
"h%	c #181818",
"i%	c #020912",
"j%	c #002142",
"k%	c #022140",
"l%	c #12426E",
"m%	c #2F87BF",
"n%	c #15385B",
"o%	c #252C2F",
"p%	c #191D1F",
"q%	c #13181D",
"r%	c #000C12",
"s%	c #06324C",
"t%	c #3D9BCB",
"u%	c #2268A4",
"v%	c #0D3B65",
"w%	c #002A56",
"x%	c #0E3254",
"y%	c #CDA91B",
"z%	c #FFCE27",
"A%	c #DDB30D",
"B%	c #89826D",
"C%	c #F4F4F4",
"D%	c #FAF4E6",
"E%	c #FCCE30",
"F%	c #937611",
"G%	c #251F0B",
"H%	c #907A24",
"I%	c #0B3155",
"J%	c #052C51",
"K%	c #185486",
"L%	c #1A2D42",
"M%	c #252B2D",
"N%	c #1C1A1C",
"O%	c #171B1D",
"P%	c #1E1A1E",
"Q%	c #1E161E",
"R%	c #01070F",
"S%	c #011F2F",
"T%	c #3083AE",
"U%	c #155183",
"V%	c #02284E",
"W%	c #002952",
"X%	c #123250",
"Y%	c #383E42",
"Z%	c #987A1E",
"`%	c #FECC1E",
" &	c #FFD133",
".&	c #A78603",
"+&	c #52514C",
"@&	c #E4DBC6",
"#&	c #F7C20B",
"$&	c #A07502",
"%&	c #160E00",
"&&	c #1C1200",
"*&	c #AA8206",
"=&	c #EEC51E",
"-&	c #1C3A54",
";&	c #002C5A",
">&	c #0C3E68",
",&	c #216AA3",
"'&	c #2774A5",
")&	c #232D35",
"!&	c #2A262A",
"~&	c #0D1113",
"{&	c #14577E",
"]&	c #3EA0D8",
"^&	c #1E64A0",
"/&	c #093965",
"(&	c #072F55",
"_&	c #CBA211",
":&	c #FCC710",
"<&	c #FEC914",
"[&	c #FFD02D",
"}&	c #FACC14",
"|&	c #544300",
"1&	c #2A2A2A",
"2&	c #D4D4D4",
"3&	c #C7BCAB",
"4&	c #EEB902",
"5&	c #ECB700",
"6&	c #C48F00",
"7&	c #D19E01",
"8&	c #FBCA1F",
"9&	c #FCCD2C",
"0&	c #6C6844",
"a&	c #012F5F",
"b&	c #033059",
"c&	c #145184",
"d&	c #308EC4",
"e&	c #18496E",
"f&	c #292D31",
"g&	c #1D2021",
"h&	c #000912",
"i&	c #022A44",
"j&	c #3C9AC6",
"k&	c #297DBD",
"l&	c #14548A",
"m&	c #02305A",
"n&	c #06315A",
"o&	c #DFB10F",
"p&	c #FFD131",
"q&	c #DCB106",
"r&	c #151001",
"s&	c #7A7A7A",
"t&	c #B8AE9C",
"u&	c #E3AB01",
"v&	c #FFCD05",
"w&	c #FECD0A",
"x&	c #FECF12",
"y&	c #F5CA35",
"z&	c #7E7544",
"A&	c #08355E",
"B&	c #002F5A",
"C&	c #0B4173",
"D&	c #1E6AA4",
"E&	c #2F8EBF",
"F&	c #1B3447",
"G&	c #081014",
"H&	c #00141C",
"I&	c #175C7F",
"J&	c #3FA6DB",
"K&	c #206EAA",
"L&	c #0B4779",
"M&	c #043160",
"N&	c #D4A810",
"O&	c #FFCC1D",
"P&	c #C4A734",
"Q&	c #E5E5E3",
"R&	c #D2D2D2",
"S&	c #503E22",
"T&	c #FFCE23",
"U&	c #FDD033",
"V&	c #454B51",
"W&	c #063C6E",
"X&	c #165A94",
"Y&	c #3192C9",
"Z&	c #1C577C",
"`&	c #283138",
" *	c #020A0E",
".*	c #022134",
"+*	c #3796BD",
"@*	c #2F8CCD",
"#*	c #1A64A2",
"$*	c #14426C",
"%*	c #EDC00B",
"&*	c #FFCF2B",
"**	c #FAC906",
"=*	c #CEBC90",
"-*	c #EEEEEE",
";*	c #CACACA",
">*	c #767676",
",*	c #141414",
"'*	c #4A3100",
")*	c #EEBA06",
"!*	c #F3C731",
"~*	c #958743",
"{*	c #0E3E6A",
"]*	c #11558F",
"^*	c #257CB9",
"/*	c #2C8CB8",
"(*	c #203440",
"_*	c #111517",
":*	c #000A16",
"<*	c #0A3C5C",
"[*	c #44AEDA",
"}*	c #277FC3",
"|*	c #275F8B",
"1*	c #EABD08",
"2*	c #F9C205",
"3*	c #FBC60F",
"4*	c #FDC917",
"5*	c #FFCD21",
"6*	c #FBC901",
"7*	c #946A04",
"8*	c #1D1D1B",
"9*	c #262626",
"0*	c #171717",
"a*	c #664300",
"b*	c #EFBB05",
"c*	c #FFD02F",
"d*	c #FFCF29",
"e*	c #F7C61D",
"f*	c #AC8F2A",
"g*	c #304456",
"h*	c #033B6F",
"i*	c #0E538E",
"j*	c #1F71B1",
"k*	c #37A0D1",
"l*	c #1A4560",
"m*	c #322C32",
"n*	c #1F191F",
"o*	c #1E181E",
"p*	c #1B1D1C",
"q*	c #091115",
"r*	c #001924",
"s*	c #165D82",
"t*	c #43ADDF",
"u*	c #2276B6",
"v*	c #305978",
"w*	c #584F3A",
"x*	c #84641E",
"y*	c #B2810A",
"z*	c #D9A401",
"A*	c #F2BD04",
"B*	c #FAC908",
"C*	c #F9C803",
"D*	c #DEA700",
"E*	c #855903",
"F*	c #1B2127",
"G*	c #33373B",
"H*	c #463C46",
"I*	c #4F454F",
"J*	c #3E4348",
"K*	c #0A1724",
"L*	c #624108",
"M*	c #D89E00",
"N*	c #F0BB04",
"O*	c #F1BD07",
"P*	c #D2A006",
"Q*	c #5C5034",
"R*	c #01376F",
"S*	c #0D518B",
"T*	c #1D71B1",
"U*	c #37A0D7",
"V*	c #1C5D7E",
"W*	c #2A363C",
"X*	c #1A161A",
"Y*	c #00132E",
"Z*	c #1F7295",
"`*	c #3EA8DA",
" =	c #2177B3",
".=	c #135A91",
"+=	c #053C6F",
"@=	c #022F5E",
"#=	c #1E334C",
"$=	c #5E4B2C",
"%=	c #A07210",
"&=	c #BA8004",
"*=	c #8B631D",
"==	c #294B6D",
"-=	c #20578A",
";=	c #25598F",
">=	c #265D90",
",=	c #255B8D",
"'=	c #205184",
")=	c #1B4877",
"!=	c #324258",
"~=	c #9C680E",
"{=	c #B27B04",
"]=	c #9C6C0E",
"^=	c #433741",
"/=	c #013667",
"(=	c #043E74",
"_=	c #0F5591",
":=	c #1D72B3",
"<=	c #37A2D9",
"[=	c #1F6E93",
"}=	c #293A43",
"|=	c #2B292B",
"1=	c #161A1C",
"2=	c #171317",
"3=	c #161216",
"4=	c #09131B",
"5=	c #012939",
"6=	c #1D7295",
"7=	c #42AFDC",
"8=	c #2580BF",
"9=	c #1966A1",
"0=	c #0D4D83",
"a=	c #043B6E",
"b=	c #053A6B",
"c=	c #134171",
"d=	c #264D74",
"e=	c #265988",
"f=	c #2B6499",
"g=	c #3470A8",
"h=	c #3A78B2",
"i=	c #3D78B5",
"j=	c #3A76AE",
"k=	c #346AA2",
"l=	c #2D6497",
"m=	c #25578B",
"n=	c #234E7B",
"o=	c #22486E",
"p=	c #113E6D",
"q=	c #043C70",
"r=	c #0A4882",
"s=	c #15639F",
"t=	c #217DBD",
"u=	c #38A8DC",
"v=	c #1F7193",
"w=	c #273B45",
"x=	c #282828",
". . + + + + @ + # $ % & * = - ; > , , , , ' ) ! ~ ~ { ] ^ / ( _ _ ( : < [ } | 1 2 3 4 + + @ @ . . . . ",
"5 5 6 7 7 6 6 8 9 0 a b c d e f g g g h h i j ~ ~ ~ k l m n o h f h h f p q r s t u v w 7 6 7 5 5 5 5 ",
"x x y y z A B C D E F G H I J K K K L L M N ~ O ~ ~ j P ~ Q R S M M M L J T U V W X Y B A Z Z x x x x ",
"` ` ` ` ` `  ...+.@.#.$.%.&.*.*.=.=.=.-.-.;.>.,.{ '.).!.~.~ {.].-.-.-.-.=.=.^./.(._.:.<.` [.[.` ` ` ` ",
"}.}.}.}.}.|.1.2.3.4.5.6.7.8.9.9.0.0.0.0.0.a.b.c.d.e.f.g.h.~ i.j.j.k.0.0.0.0.0.l.m.n.o.C p.}.}.}.}.}.}.",
"q.q.q.q.q.r.s.t.u.v.w.x.y.z.A.A.B.C.C.D.D.E.F.G.H.I.J.K.L.~ M.N.D.D.D.D.C.C.B.O.P.Q.R.S.T.q.q.q.q.q.q.",
"U.U.V.W.X.Y.Z.`. +.+++@+#+@+$+%+%+%+&+*+=+-+;+>+,+'+)+!+~+~ {+]+=+*+*+&+&+&+%+%+^+/+(+_+:+<+V.U.U.U.U.",
"[+[+}+[+|+1+2+3+4+5+6+7+8+9+9+0+a+b+c+d+e+f+g+h+i+j+k+l+m+P n+o+e+d+c+c+b+b+a+0+a+p+q+r+s+r.}+[+[+[+[+",
"t+t+t+u+v+w+x+y+z+A+B+C+D+E+F+G+H+I+J+K+L+M+N+O+P+Q+R+S+T+U+V+W+L+K+K+J+I+H+G+F+E+X+Y+Z+`+ @.@t+t+t+t+",
"+@+@+@@@#@$@%@&@*@=@-@;@>@,@'@)@!@~@{@]@^@/@(@_@:@<@[@}@|@P 1@2@3@]@]@{@~@)@'@4@>@'@5@6@7@8@9@+@+@+@+@",
"0@0@9@a@b@c@d@e@f@g@h@i@j@k@l@m@n@o@p@-@q@r@s@t@u@v@w@x@y@z@~ A@B@-@p@o@C@m@l@D@E@F@G@H@I@J@K@0@0@0@0@",
"L@L@M@N@O@P@Q@R@S@T@U@V@W@X@Y@Z@`@ #.#+#@###x@$#%#x@x@x@x@&#~ ~ *#=#h@.#`@Z@-#X@W@;#>#,#'#)#!#L@L@L@L@",
"~#~#K@{#]#^#/#(#_#:#<#[#}#|#1#2#3#V@4#5#6#7#x@8#9#x@0#a#b#c#{ ~ ~ d#e#V@3#U@1#|#f#g#h#i#j#k#l#~#~#~#~#",
"m#m#n#o#p#q#r#s#t#u#v#w#<#x#g#}#|#y#z#A#B#a#w@0#C#x@$#D#E#7 F#G#H#I#J#y#|#f#g#x#K#w#L#M#N#O#P#m#m#m#m#",
"Q#Q#R#S#T#U#V#W#X#Y#Z#`# $.$+$K#x#@$#$$$%$x@x@x@x@x@x@x@x@&$*$=$=$j -$;$x#<#+$.$ $`#>$,$'$)$!$Q#Q#Q#Q#",
"~$~$~${$]$^$/$($_$:$<$[$}$|$u# $.$1$2$3$w@x@x@x@x@x@x@x@x@x@4$5$6$~.7$8$.$ $u#|$9$0$a$b$c$d$e$~$~$~$~$",
"~$~$~$f$g$h$i$j$k$l$m$n$o$p$q$r$s$t$u$t@x@x@x@C#x@x@x@x@x@x@w@v$H#=$~ w$x$y$z$A$B$C$D$E$c$F$G$~$~$~$~$",
"~$~$~$f$H$I$J$K$L$M$N$n$O$P$Q$R$S$T$U$4$x@x@0#V$x@x@x@x@x@x@x@W$O k ~ X$Y$Z$`$P$ %.%+%@%#%o.$%~$~$~$~$",
"%%%%%%&%*%=%-%;%>%:$n$O$,%'%Q$)%!%~%{%%#x@x@C#]%x@x@x@x@x@x@x@&#1@^%~ /%`$(%'%_% %:%<%[%}%|%1%%%%%%%%%",
"%%%%%%2%3%4%5%6%7%8%9%P$0%`$a%b%c%d%e%}@x@x@}@]%x@x@x@x@x@x@f%g%h%6$'.i%)%S$Q$'%j%k%l%m%n%o%%%%%%%%%%%",
"p%p%%%&%q%r%s%t%u%v%P$0%S$R$w%x%y%z%A%B%C%x@$#D#x@x@x@x@x@D%E%F%~ ~ G%H%I%b%a%`$'%J%K%m%L%M%N%p%p%p%p%",
"O%O%P%P%Q%R%S%T%M#U%V%S$W%X%Y%Z%`% &z%.&+&a#x@w@x@x@x@x@x@@&#&$&%&&&*&=&-&;&w%a%(%>&,&'&)&!&P%O%O%O%O%",
"N%N%P%P%2%~&4%{&]&^&/&W%(&_&:&<&[& & &}&|&1&2&x@x@x@x@x@x@3&4&5&6&7&8&9&0&a&;&w%b&c&d&e&f&g&%%N%N%N%N%",
"%%%%P%P%&%h%h&i&j&k&l&m&n&o&p& & & & &[&q&r&s&x@x@x@x@x@x@t&u&v&w&x&p& &y&z&A&B&C&D&E&F&V+&%P%%%%%%%%%",
"N%N%N%N%&%&%G&H&I&J&K&L&M&N&[& & & & & &O&P&Q&x@x@x@x@w@R&S&u&T&p&p& & & &U&V&W&X&Y&Z&`&1%&%N%N%N%N%N%",
"N%N%N%N%N%2%Q% *.*+*@*#*$*%*&* & & & & &z%**=*y@C#-*;*>*,*'*)*[& & & & &!*~*{*]*^*/*(*V+&%N%N%N%N%N%N%",
"N%N%N%N%N%N%2%_*:*<*[*}*|*1*2*3*4*5*[&p&T&6*7*8*9*0*P ~ ~ a*b*z%c*d*e*f*g*h*i*j*k*l*m*%%n*o*n*N%N%N%N%",
"&%&%&%&%&%&%2%p*q*r*s*t*u*v*w*x*y*z*A*B*C*D*E*F*G*H*I*J*K*L*M*N*O*P*Q*B$R*S*T*U*V*W*e$X*o*o*o*&%&%&%&%",
"&%&%&%&%&%&%&%2%p%q*Y*Z*`* =.=+=@=#=$=%=&=*===-=;=>=,='=)=!=~={=]=^=/=(=_=:=<=[=}=|=&%&%&%1=1=&%&%&%&%",
"2=2=2=2=3=2=2=2=2=d.4=5=6=7=8=9=0=a=b=c=d=e=f=g=h=i=j=k=l=m=n=o=p=q=r=s=t=u=v=w=x=X*2=2=2=_*_*2=2=2=2="};
