/* XPM */
static char * taskbuttonactive_xpm[] = {
"300 30 100 2",
"  	c None",
". 	c #515459",
"+ 	c #505358",
"@ 	c #535459",
"# 	c #505559",
"$ 	c #51545B",
"% 	c #B5B5B5",
"& 	c #ACACAC",
"* 	c #9C9C9C",
"= 	c #A09E9F",
"- 	c #A4A2A3",
"; 	c #A3A3A1",
"> 	c #A3A3A3",
", 	c #9F9F9F",
"' 	c #9D9B9E",
") 	c #ACACAE",
"! 	c #858585",
"~ 	c #8F8F8D",
"{ 	c #575654",
"] 	c #202020",
"^ 	c #141414",
"/ 	c #141412",
"( 	c #575556",
"_ 	c #8F8F8F",
": 	c #7D7D7D",
"< 	c #565654",
"[ 	c #272624",
"} 	c #393939",
"| 	c #3A3A3A",
"1 	c #383838",
"2 	c #383836",
"3 	c #353535",
"4 	c #1A1819",
"5 	c #565656",
"6 	c #8A8A8A",
"7 	c #1E1E1E",
"8 	c #3D3D3D",
"9 	c #3E3E3E",
"0 	c #424242",
"a 	c #444444",
"b 	c #3C3C3C",
"c 	c #898989",
"d 	c #8D8D8D",
"e 	c #151515",
"f 	c #3F3F3F",
"g 	c #474747",
"h 	c #434345",
"i 	c #444446",
"j 	c #454545",
"k 	c #8B8B8B",
"l 	c #888888",
"m 	c #868688",
"n 	c #444442",
"o 	c #868686",
"p 	c #838385",
"q 	c #838383",
"r 	c #7F7F7F",
"s 	c #7A7A7A",
"t 	c #767676",
"u 	c #747474",
"v 	c #191919",
"w 	c #1A1A1A",
"x 	c #131313",
"y 	c #737572",
"z 	c #616161",
"A 	c #60625F",
"B 	c #626262",
"C 	c #191B1A",
"D 	c #121413",
"E 	c #181A19",
"F 	c #131514",
"G 	c #606062",
"H 	c #5F6160",
"I 	c #19191B",
"J 	c #181818",
"K 	c #606060",
"L 	c #5F5F61",
"M 	c #5E605F",
"N 	c #555557",
"O 	c #545655",
"P 	c #2F2F31",
"Q 	c #151314",
"R 	c #141213",
"S 	c #535353",
"T 	c #2F3032",
"U 	c #1A1A1C",
"V 	c #5D5B5C",
"W 	c #535152",
"X 	c #1D1D1D",
"Y 	c #515151",
"Z 	c #5C5C5C",
"` 	c #18191B",
" .	c #1C1C1E",
"..	c #303032",
"+.	c #5F5F5F",
"@.	c #525252",
"#.	c #313133",
"$.	c #1B1B1D",
"%.	c #131416",
"&.	c #141416",
". + . @ @ . . @ @ . @ . @ @ . @ @ . @ @ . @ . @ @ . @ @ . @ . @ @ . @ . @ @ . @ @ . @ . . @ @ . @ . @ @ . @ @ . @ @ . @ . @ @ . @ @ . @ . @ @ . @ . @ @ . @ @ . @ @ . . @ @ . @ . @ @ . @ @ . @ @ . @ . @ @ . @ @ . @ . @ @ . @ . @ @ . @ @ . @ @ . @ @ . @ @ . @ . @ @ . @ @ . @ . @ @ . @ . @ @ . @ @ . @ . . @ @ . @ . @ @ . @ @ . @ @ . @ . @ @ . @ @ . @ . @ @ . @ . @ @ . @ @ . @ @ . . @ @ . @ . @ @ . @ @ . @ @ . @ . @ @ . @ @ . @ . @ @ . @ . @ @ . @ @ . @ @ @ . @ . @ @ . @ @ . @ . @ @ . @ . @ @ . @ @ . @ @ . . @ @ . @ . @ @ . @ @ . @ @ . @ . @ @ . @ @ . @ . @ @ . @ . @ @ . @ @ . @ . # . . . . $ $ $ ",
"% & * = - ; ; - - ; - ; - - ; - - ; - - ; - ; - - ; - - ; - ; - - ; - ; - - ; - - ; - ; ; - - ; - ; - - ; - - ; - - ; - ; - - ; - - ; - ; - - ; - ; - - ; - - ; - - ; ; - - ; - ; - - ; - - ; - - ; - ; - - ; - - ; - ; - - ; - ; - - ; - - ; - - ; - - ; - - ; - ; - - ; - - ; - ; - - ; - ; - - ; - - ; - ; ; - - ; - ; - - ; - - ; - - ; - ; - - ; - - ; - ; - - ; - ; - - ; - - ; - - ; ; - - ; - ; - - ; - - ; - - ; - ; - - ; - - ; - ; - - ; - ; - - ; - - ; - - - ; - ; - - ; - - ; - ; - - ; - ; - - ; - - ; - - ; ; - - ; - ; - - ; - - ; - - ; - ; - - ; - - ; - ; - - ; - ; - - ; - - ; - ; ; - - > , ' ) % ",
"! ~ { ] ^ ^ ^ ^ ^ ^ ^ ^ ^ ^ ^ ^ ^ ^ ^ ^ ^ ^ ^ ^ ^ ^ ^ ^ ^ ^ ^ ^ ^ ^ ^ ^ ^ ^ ^ ^ ^ ^ ^ ^ ^ ^ ^ ^ ^ ^ ^ ^ ^ ^ ^ ^ ^ ^ ^ ^ ^ ^ ^ ^ ^ ^ ^ ^ ^ ^ ^ ^ ^ ^ ^ ^ ^ ^ ^ ^ ^ ^ ^ ^ ^ ^ ^ ^ ^ ^ ^ ^ ^ ^ ^ ^ ^ ^ ^ ^ ^ ^ ^ ^ ^ ^ ^ ^ ^ ^ ^ ^ ^ ^ ^ ^ ^ ^ ^ ^ ^ ^ ^ ^ ^ ^ ^ ^ ^ ^ ^ ^ ^ ^ ^ ^ ^ ^ ^ ^ ^ ^ ^ ^ ^ ^ ^ ^ ^ ^ ^ ^ ^ ^ ^ ^ ^ ^ ^ ^ ^ ^ ^ ^ ^ ^ ^ ^ ^ ^ ^ ^ ^ ^ ^ ^ ^ ^ ^ ^ ^ ^ ^ ^ ^ ^ ^ ^ ^ ^ ^ ^ ^ ^ ^ ^ ^ ^ ^ ^ ^ ^ ^ ^ ^ ^ ^ ^ ^ ^ ^ ^ ^ ^ ^ ^ ^ ^ ^ ^ ^ ^ ^ ^ ^ ^ ^ ^ ^ ^ ^ ^ ^ ^ ^ ^ ^ ^ ^ ^ ^ ^ ^ ^ ^ ^ ^ ^ ^ ^ ^ ^ ^ ^ ^ ^ ^ ^ ^ ^ ^ ^ ^ ^ ^ ^ ^ ^ ^ ^ ^ ^ ^ ^ ^ ^ ^ ^ ^ ^ ^ ^ ^ ^ ^ ^ ^ ^ ^ ^ ^ / / ^ ^ ^ ] ( _ ! ",
": < [ } | 1 1 1 1 1 1 1 1 1 1 1 1 1 1 1 1 1 1 1 1 1 1 1 1 1 1 1 1 1 1 1 1 1 1 1 1 1 1 1 1 1 1 1 1 1 1 1 1 1 1 1 1 1 1 1 1 1 1 1 1 1 1 1 1 1 1 1 1 1 1 1 1 1 1 1 1 1 1 1 1 1 1 1 1 1 1 1 1 1 1 1 1 1 1 1 1 1 1 1 1 1 1 1 1 1 1 1 1 1 1 1 1 1 1 1 1 1 1 1 1 1 1 1 1 1 1 1 1 1 1 1 1 1 1 1 1 1 1 1 1 1 1 1 1 1 1 1 1 1 1 1 1 1 1 1 1 1 1 1 1 1 1 1 1 1 1 1 1 1 1 1 1 1 1 1 1 1 1 1 1 1 1 1 1 1 1 1 1 1 1 1 1 1 1 1 1 1 1 1 1 1 1 1 1 1 1 1 1 1 1 1 1 1 1 1 1 1 1 1 1 1 1 1 1 1 1 1 1 1 1 1 1 1 1 1 1 1 1 1 1 1 1 1 1 1 1 1 1 1 1 1 1 1 1 1 1 1 1 1 1 1 1 1 1 1 1 1 1 1 1 1 1 1 1 1 1 1 1 1 1 1 1 1 1 1 1 2 2 1 1 } 3 4 5 : ",
"6 7 8 } 9 0 a a a a a a a a a a a a a a a a a a a a a a a a a a a a a a a a a a a a a 0 a a a a a a a a a a a a a a a a a a a a a a a a a a a a a a a a a a a a a a 0 a a a a a a a a a a a a a a a a a a a a a a a a a a a a a a a a a a a a a a a a a a a a a a a a a a a a a a a a a a a a a a a a a a a 0 a a a a a a a a a a a a a a a a a a a a a a a a a a a a a a a a a a a a a a 0 a a a a a a a a a a a a a a a a a a a a a a a a a a a a a a a a a a a a a a a a a a a a a a a a a a a a a a a a a a a a a a a 0 a a a a a a a a a a a a a a a a a a a a a a a a a a a a a a a a a a a a a a a a a a 0 b 7 c ",
"d e b f a a a a a a a a a a a a a a a a a a a a a a a a a a a a a a a a a a a a a a a a a a a a a a a a a a a a a a a a a a a a a a a a a a a a a a a a a a a a a a a a a a a a a a a a a a a a a a a a a a a a a a a a a a a a a a a a a a a a a a a a a a a a a a a a a a a a a a a a a a a a a a a a a a a a a a a a a a a a a a a a a a a a a a a a a a a a a a a a a a a a a a a a a a a a a a a a a a a a a a a a a a a a a a a a a a a a a a a a a a a a a a a a a a a a a a a a a a a a a a a a a a a a a a a a a a a a a a a a a a a a a a a a a a a a a a a a a a a a a a a a a a a a a a a a a a a a a g ^ d ",
"6 ^ 1 h i j a j j a j a j j a j j a j j a j a j j a j j a j a j j a j a j j a j j a j j a j j a j a j j a j j a j j a j a j j a j j a j a j j a j a j j a j j a j j j a j j a j a j j a j j a j j a j a j j a j j a j a j j a j a j j a j j a j j a j j a j j a j a j j a j j a j a j j a j a j j a j j a j j a j j a j a j j a j j a j j a j a j j a j j a j a j j a j a j j a j j a j j j a j j a j a j j a j j a j j a j a j j a j j a j a j j a j a j j a j j a j j j a j a j j a j j a j a j j a j a j j a j j a j j j a j j a j a j j a j j a j j a j a j j a j j a j a j j a j a j j a j j a j a a a a a a a ^ k ",
"l ^ 1 h a a a j j a j a j j a j j a j j a j a j j a j j a j a j j a j a j j a j j a j a a j j a j a j j a j j a j j a j a j j a j j a j a j j a j a j j a j j a j j a a j j a j a j j a j j a j j a j a j j a j j a j a j j a j a j j a j j a j j a j j a j j a j a j j a j j a j a j j a j a j j a j j a j a a j j a j a j j a j j a j j a j a j j a j j a j a j j a j a j j a j j a j j a a j j a j a j j a j j a j j a j a j j a j j a j a j j a j a j j a j j a j j j a j a j j a j j a j a j j a j a j j a j j a j j a a j j a j a j j a j j a j j a j a j j a j j a j a j j a j a j j a j j a j a a a a a a a ^ l ",
"m ^ 1 a a a n a a n a n a a n a a n a a n a n a a n a a n a n a a n a n a a n a a n a a n a a n a n a a n a a n a a n a n a a n a a n a n a a n a n a a n a a n a a a n a a n a n a a n a a n a a n a n a a n a a n a n a a n a n a a n a a n a a n a a n a a n a n a a n a a n a n a a n a n a a n a a n a a n a a n a n a a n a a n a a n a n a a n a a n a n a a n a n a a n a a n a a a n a a n a n a a n a a n a a n a n a a n a a n a n a a n a n a a n a a n a a a n a n a a n a a n a n a a n a n a a n a a n a a a n a a n a n a a n a a n a a n a n a a n a a n a n a a n a n a a n a a n a a a a a n n a ^ o ",
"p ^ 1 a a n n a a n a n a a n a a n a a n a n a a n a a n a n a a n a n a a n a a n a n n a a n a n a a n a a n a a n a n a a n a a n a n a a n a n a a n a a n a a n n a a n a n a a n a a n a a n a n a a n a a n a n a a n a n a a n a a n a a n a a n a a n a n a a n a a n a n a a n a n a a n a a n a n n a a n a n a a n a a n a a n a n a a n a a n a n a a n a n a a n a a n a a n n a a n a n a a n a a n a a n a n a a n a a n a n a a n a n a a n a a n a a a n a n a a n a a n a n a a n a n a a n a a n a a n n a a n a n a a n a a n a a n a n a a n a a n a n a a n a n a a n a a n a a a a a n n a ^ q ",
"r ^ 1 a a a a a a a a a a a a a a a a a a a a a a a a a a a a a a a a a a a a a a a a a a a a a a a a a a a a a a a a a a a a a a a a a a a a a a a a a a a a a a a a a a a a a a a a a a a a a a a a a a a a a a a a a a a a a a a a a a a a a a a a a a a a a a a a a a a a a a a a a a a a a a a a a a a a a a a a a a a a a a a a a a a a a a a a a a a a a a a a a a a a a a a a a a a a a a a a a a a a a a a a a a a a a a a a a a a a a a a a a a a a a a a a a a a a a a a a a a a a a a a a a a a a a a a a a a a a a a a a a a a a a a a a a a a a a a a a a a a a a a a a a a a a a a a a a a a a a a a ^ r ",
": ^ 1 a a a a a a a a a a a a a a a a a a a a a a a a a a a a a a a a a a a a a a a a a a a a a a a a a a a a a a a a a a a a a a a a a a a a a a a a a a a a a a a a a a a a a a a a a a a a a a a a a a a a a a a a a a a a a a a a a a a a a a a a a a a a a a a a a a a a a a a a a a a a a a a a a a a a a a a a a a a a a a a a a a a a a a a a a a a a a a a a a a a a a a a a a a a a a a a a a a a a a a a a a a a a a a a a a a a a a a a a a a a a a a a a a a a a a a a a a a a a a a a a a a a a a a a a a a a a a a a a a a a a a a a a a a a a a a a a a a a a a a a a a a a a a a a a a a a a a a a ^ : ",
"s ^ 1 a a a a a a a a a a a a a a a a a a a a a a a a a a a a a a a a a a a a a a a a a a a a a a a a a a a a a a a a a a a a a a a a a a a a a a a a a a a a a a a a a a a a a a a a a a a a a a a a a a a a a a a a a a a a a a a a a a a a a a a a a a a a a a a a a a a a a a a a a a a a a a a a a a a a a a a a a a a a a a a a a a a a a a a a a a a a a a a a a a a a a a a a a a a a a a a a a a a a a a a a a a a a a a a a a a a a a a a a a a a a a a a a a a a a a a a a a a a a a a a a a a a a a a a a a a a a a a a a a a a a a a a a a a a a a a a a a a a a a a a a a a a a a a a a n n a a a a a ^ s ",
"t ^ 1 a a a a a a a a a a a a a a a a a a a a a a a a a a a a a a a a a a a a a a a a a a a a a a a a a a a a a a a a a a a a a a a a a a a a a a a a a a a a a a a a a a a a a a a a a a a a a a a a a a a a a a a a a a a a a a a a a a a a a a a a a a a a a a a a a a a a a a a a a a a a a a a a a a a a a a a a a a a a a a a a a a a a a a a a a a a a a a a a a a a a a a a a a a a a a a a a a a a a a a a a a a a a a a a a a a a a a a a a a a a a a a a a a a a a a a a a a a a a a a a a a a a a a a a a a a a a a a a a a a a a a a a a a a a a a a a a a a a a a a a a a a a a a a a a n n a a a a a ^ t ",
"u ^ v v v 4 4 v v 4 v 4 v v 4 v v 4 v v 4 v 4 v v 4 v v 4 v 4 v v 4 v 4 v v 4 v v 4 v 4 4 v v 4 v 4 v v 4 v v 4 v v 4 v 4 v v 4 v v 4 v 4 v v 4 v 4 v v 4 v v 4 v v 4 4 v v 4 v 4 v v 4 v v 4 v v 4 v 4 v v 4 v v 4 v 4 v v 4 v 4 v v 4 v v 4 v v 4 v v 4 v v 4 v 4 v v 4 v v 4 v 4 v v 4 v 4 v v 4 v v 4 v 4 4 v v 4 v 4 v v 4 v v 4 v v 4 v 4 v v 4 v v 4 v 4 v v 4 v 4 v v 4 v v 4 v v 4 4 v v 4 v 4 v v 4 v v 4 v v 4 v 4 v v 4 v v 4 v 4 v v 4 v 4 v v 4 v v 4 v v v 4 v 4 v v 4 v v 4 v 4 v v 4 v 4 v v 4 v v 4 v v 4 4 v v 4 v 4 v v 4 v v 4 v v 4 v 4 v v 4 v v 4 v 4 v v 4 v 4 v v 4 v v 4 v v v 4 4 v v w x y ",
"z ^ v v v 4 4 v v 4 v 4 v v 4 v v 4 v v 4 v 4 v v 4 v v 4 v 4 v v 4 v 4 v v 4 v v 4 v 4 4 v v 4 v 4 v v 4 v v 4 v v 4 v 4 v v 4 v v 4 v 4 v v 4 v 4 v v 4 v v 4 v v 4 4 v v 4 v 4 v v 4 v v 4 v v 4 v 4 v v 4 v v 4 v 4 v v 4 v 4 v v 4 v v 4 v v 4 v v 4 v v 4 v 4 v v 4 v v 4 v 4 v v 4 v 4 v v 4 v v 4 v 4 4 v v 4 v 4 v v 4 v v 4 v v 4 v 4 v v 4 v v 4 v 4 v v 4 v 4 v v 4 v v 4 v v 4 4 v v 4 v 4 v v 4 v v 4 v v 4 v 4 v v 4 v v 4 v 4 v v 4 v 4 v v 4 v v 4 v v v 4 v 4 v v 4 v v 4 v 4 v v 4 v 4 v v 4 v v 4 v v 4 4 v v 4 v 4 v v 4 v v 4 v v 4 v 4 v v 4 v v 4 v 4 v v 4 v 4 v v 4 v v 4 v v v 4 4 v v v ^ A ",
"B ^ v v v 4 4 v v 4 v 4 v v 4 v v 4 v v 4 v 4 v v 4 v v 4 v 4 v v 4 v 4 v v 4 v v 4 v 4 4 v v 4 v 4 v v 4 v v 4 v v 4 v 4 v v 4 v v 4 v 4 v v 4 v 4 v v 4 v v 4 v v 4 4 v v 4 v 4 v v 4 v v 4 v v 4 v 4 v v 4 v v 4 v 4 v v 4 v 4 v v 4 v v 4 v v 4 v v 4 v v 4 v 4 v v 4 v v 4 v 4 v v 4 v 4 v v 4 v v 4 v 4 4 v v 4 v 4 v v 4 v v 4 v v 4 v 4 v v 4 v v 4 v 4 v v 4 v 4 v v 4 v v 4 v v 4 4 v v 4 v 4 v v 4 v v 4 v v 4 v 4 v v 4 v v 4 v 4 v v 4 v 4 v v 4 v v 4 v v v 4 v 4 v v 4 v v 4 v 4 v v 4 v 4 v v 4 v v 4 v v 4 4 v v 4 v 4 v v 4 v v 4 v v 4 v 4 v v 4 v v 4 v 4 v v 4 v 4 v v 4 v v 4 v v v v v v v C D z ",
"z ^ v v v 4 4 v v 4 v 4 v v 4 v v 4 v v 4 v 4 v v 4 v v 4 v 4 v v 4 v 4 v v 4 v v 4 v 4 4 v v 4 v 4 v v 4 v v 4 v v 4 v 4 v v 4 v v 4 v 4 v v 4 v 4 v v 4 v v 4 v v 4 4 v v 4 v 4 v v 4 v v 4 v v 4 v 4 v v 4 v v 4 v 4 v v 4 v 4 v v 4 v v 4 v v 4 v v 4 v v 4 v 4 v v 4 v v 4 v 4 v v 4 v 4 v v 4 v v 4 v 4 4 v v 4 v 4 v v 4 v v 4 v v 4 v 4 v v 4 v v 4 v 4 v v 4 v 4 v v 4 v v 4 v v 4 4 v v 4 v 4 v v 4 v v 4 v v 4 v 4 v v 4 v v 4 v 4 v v 4 v 4 v v 4 v v 4 v v v 4 v 4 v v 4 v v 4 v 4 v v 4 v 4 v v 4 v v 4 v v 4 4 v v 4 v 4 v v 4 v v 4 v v 4 v 4 v v 4 v v 4 v 4 v v 4 v 4 v v 4 v v 4 v v v v v v v E F z ",
"G ^ v v v v v v v v v v v v v v v v v v v v v v v v v v v v v v v v v v v v v v v v v v v v v v v v v v v v v v v v v v v v v v v v v v v v v v v v v v v v v v v v v v v v v v v v v v v v v v v v v v v v v v v v v v v v v v v v v v v v v v v v v v v v v v v v v v v v v v v v v v v v v v v v v v v v v v v v v v v v v v v v v v v v v v v v v v v v v v v v v v v v v v v v v v v v v v v v v v v v v v v v v v v v v v v v v v v v v v v v v v v v v v v v v v v v v v v v v v v v v v v v v v v v v v v v v v v v v v v v v v v v v v v v v v v v v v v v v v v v v v v v v v v v v v v v v v v 4 4 v v v ^ H ",
"G ^ v v v v v v v v v v v v v v v v v v v v v v v v v v v v v v v v v v v v v v v v v v v v v v v v v v v v v v v v v v v v v v v v v v v v v v v v v v v v v v v v v v v v v v v v v v v v v v v v v v v v v v v v v v v v v v v v v v v v v v v v v v v v v v v v v v v v v v v v v v v v v v v v v v v v v v v v v v v v v v v v v v v v v v v v v v v v v v v v v v v v v v v v v v v v v v v v v v v v v v v v v v v v v v v v v v v v v v v v v v v v v v v v v v v v v v v v v v v v v v v v v v v v v v v v v v v v v v v v v v v v v v v v v v v v v v v v v v v v v v v v v v v v v v v v v v v 4 4 v v v ^ H ",
"G ^ v v v I I v v I v I v v I v v I v v I v I v v I v v I v I v v I v I v v I v v I v I I v v I v I v v I v v I v v I v I v v I v v I v I v v I v I v v I v v I v v I I v v I v I v v I v v I v v I v I v v I v v I v I v v I v I v v I v v I v v I v v I v v I v I v v I v v I v I v v I v I v v I v v I v I I v v I v I v v I v v I v v I v I v v I v v I v I v v I v I v v I v v I v v I I v v I v I v v I v v I v v I v I v v I v v I v I v v I v I v v I v v I v v v I v I v v I v v I v I v v I v I v v I v v I v v I I v v I v I v v I v v I v v I v I v v I v v I v I v v I v I v v I v v I v v v v v v v v ^ H ",
"G ^ v v v I I v v I v I v v I v v I v v I v I v v I v v I v I v v I v I v v I v v I v I I v v I v I v v I v v I v v I v I v v I v v I v I v v I v I v v I v v I v v I I v v I v I v v I v v I v v I v I v v I v v I v I v v I v I v v I v v I v v I v v I v v I v I v v I v v I v I v v I v I v v I v v I v I I v v I v I v v I v v I v v I v I v v I v v I v I v v I v I v v I v v I v v I I v v I v I v v I v v I v v I v I v v I v v I v I v v I v I v v I v v I v v v I v I v v I v v I v I v v I v I v v I v v I v v I I v v I v I v v I v v I v v I v I v v I v v I v I v v I v I v v I v v I v v v v v v J v ^ H ",
"K ^ v v v v v v v v v v v v v v v v v v v v v v v v v v v v v v v v v v v v v v v v v v v v v v v v v v v v v v v v v v v v v v v v v v v v v v v v v v v v v v v v v v v v v v v v v v v v v v v v v v v v v v v v v v v v v v v v v v v v v v v v v v v v v v v v v v v v v v v v v v v v v v v v v v v v v v v v v v v v v v v v v v v v v v v v v v v v v v v v v v v v v v v v v v v v v v v v v v v v v v v v v v v v v v v v v v v v v v v v v v v v v v v v v v v v v v v v v v v v v v v v v v v v v v v v v v v v v v v v v v v v v v v v v v v v v v v v v v v v v v v v v v v v v v v v v v v v v v v E F K ",
"K ^ v v v v v v v v v v v v v v v v v v v v v v v v v v v v v v v v v v v v v v v v v v v v v v v v v v v v v v v v v v v v v v v v v v v v v v v v v v v v v v v v v v v v v v v v v v v v v v v v v v v v v v v v v v v v v v v v v v v v v v v v v v v v v v v v v v v v v v v v v v v v v v v v v v v v v v v v v v v v v v v v v v v v v v v v v v v v v v v v v v v v v v v v v v v v v v v v v v v v v v v v v v v v v v v v v v v v v v v v v v v v v v v v v v v v v v v v v v v v v v v v v v v v v v v v v v v v v v v v v v v v v v v v v v v v v v v v v v v v v v v v v v v v v v v v v v v v v v v E F K ",
"L ^ v w v v v v v v v v v v v v v v v v v v v v v v v v v v v v v v v v v v v v v v v v v v v v v v v v v v v v v v v v v v v v v v v v v v v v v v v v v v v v v v v v v v v v v v v v v v v v v v v v v v v v v v v v v v v v v v v v v v v v v v v v v v v v v v v v v v v v v v v v v v v v v v v v v v v v v v v v v v v v v v v v v v v v v v v v v v v v v v v v v v v v v v v v v v v v v v v v v v v v v v v v v v v v v v v v v v v v v v v v v v v v v v v v v v v v v v v v v v v v v v v v v v v v v v v v v v v v v v v v v v v v v v v v v v v v v v v v v v v v v v v v v v v v v v v v v v v v v v ^ M ",
"N 7 J v v v v v v v v v v v v v v v v v v v v v v v v v v v v v v v v v v v v v v v v v v v v v v v v v v v v v v v v v v v v v v v v v v v v v v v v v v v v v v v v v v v v v v v v v v v v v v v v v v v v v v v v v v v v v v v v v v v v v v v v v v v v v v v v v v v v v v v v v v v v v v v v v v v v v v v v v v v v v v v v v v v v v v v v v v v v v v v v v v v v v v v v v v v v v v v v v v v v v v v v v v v v v v v v v v v v v v v v v v v v v v v v v v v v v v v v v v v v v v v v v v v v v v v v v v v v v v v v v v v v v v v v v v v v v v v v v v v v v v v v v v v v v v v v v v v v v v v 7 O ",
"P ( Q v v v v E E v E v E E v E E v E E v E v E E v E E v E v E E v E v E E v E E v E v v E E v E v E E v E E v E E v E v E E v E E v E v E E v E v E E v E E v E E v v E E v E v E E v E E v E E v E v E E v E E v E v E E v E v E E v E E v E E v E E v E E v E v E E v E E v E v E E v E v E E v E E v E v v E E v E v E E v E E v E E v E v E E v E E v E v E E v E v E E v E E v E E v v E E v E v E E v E E v E E v E v E E v E E v E v E E v E v E E v E E v E E E v E v E E v E E v E v E E v E v E E v E E v E E v v E E v E v E E v E E v E E v E v E E v E E v E v E E v E v E E v E E v E v v v v v v R S T ",
"U V W 7 ^ ^ ^ F F ^ F ^ F F ^ F F ^ F F ^ F ^ F F ^ F F ^ F ^ F F ^ F ^ F F ^ F F ^ F ^ ^ F F ^ F ^ F F ^ F F ^ F F ^ F ^ F F ^ F F ^ F ^ F F ^ F ^ F F ^ F F ^ F F ^ ^ F F ^ F ^ F F ^ F F ^ F F ^ F ^ F F ^ F F ^ F ^ F F ^ F ^ F F ^ F F ^ F F ^ F F ^ F F ^ F ^ F F ^ F F ^ F ^ F F ^ F ^ F F ^ F F ^ F ^ ^ F F ^ F ^ F F ^ F F ^ F F ^ F ^ F F ^ F F ^ F ^ F F ^ F ^ F F ^ F F ^ F F ^ ^ F F ^ F ^ F F ^ F F ^ F F ^ F ^ F F ^ F F ^ F ^ F F ^ F ^ F F ^ F F ^ F F F ^ F ^ F F ^ F F ^ F ^ F F ^ F ^ F F ^ F F ^ F F ^ ^ F F ^ F ^ F F ^ F F ^ F F ^ F ^ F F ^ F F ^ F ^ F F ^ F ^ F F ^ F F ^ F ^ ^ ^ ^ ^ X Y Z U ",
"`  ...S +.+.+.+.+.+.+.+.+.+.+.+.+.+.+.+.+.+.+.+.+.+.+.+.+.+.+.+.+.+.+.+.+.+.+.+.+.+.+.+.+.+.+.+.+.+.+.+.+.+.+.+.+.+.+.+.+.+.+.+.+.+.+.+.+.+.+.+.+.+.+.+.+.+.+.+.+.+.+.+.+.+.+.+.+.+.+.+.+.+.+.+.+.+.+.+.+.+.+.+.+.+.+.+.+.+.+.+.+.+.+.+.+.+.+.+.+.+.+.+.+.+.+.+.+.+.+.+.+.+.+.+.+.+.+.+.+.+.+.+.+.+.+.+.+.+.+.+.+.+.+.+.+.+.+.+.+.+.+.+.+.+.+.+.+.+.+.+.+.+.+.+.+.+.+.+.+.+.+.+.+.+.+.+.+.+.+.+.+.+.+.+.+.+.+.+.+.+.+.+.+.+.+.+.+.+.+.+.+.+.+.+.+.+.+.+.+.+.+.+.+.+.+.+.+.+.+.+.+.+.+.+.+.+.+.+.+.+.+.+.+.+.+.+.+.+.+.+.+.+.+.+.+.+.+.+.+.+.+.+.+.+.+.+.+.+.+.+.+.+.+.+.+.+.+.+.+.+.+.+.+.+.+.+.+.+.+.+.+.+.+.K @.#.$.I ",
"%.%.%.^ ^ ^ ^ ^ ^ ^ ^ ^ ^ ^ ^ ^ ^ ^ ^ ^ ^ ^ ^ ^ ^ ^ ^ ^ ^ ^ ^ ^ ^ ^ ^ ^ ^ ^ ^ ^ ^ ^ ^ ^ ^ ^ ^ ^ ^ ^ ^ ^ ^ ^ ^ ^ ^ ^ ^ ^ ^ ^ ^ ^ ^ ^ ^ ^ ^ ^ ^ ^ ^ ^ ^ ^ ^ ^ ^ ^ ^ ^ ^ ^ ^ ^ ^ ^ ^ ^ ^ ^ ^ ^ ^ ^ ^ ^ ^ ^ ^ ^ ^ ^ ^ ^ ^ ^ ^ ^ ^ ^ ^ ^ ^ ^ ^ ^ ^ ^ ^ ^ ^ ^ ^ ^ ^ ^ ^ ^ ^ ^ ^ ^ ^ ^ ^ ^ ^ ^ ^ ^ ^ ^ ^ ^ ^ ^ ^ ^ ^ ^ ^ ^ ^ ^ ^ ^ ^ ^ ^ ^ ^ ^ ^ ^ ^ ^ ^ ^ ^ ^ ^ ^ ^ ^ ^ ^ ^ ^ ^ ^ ^ ^ ^ ^ ^ ^ ^ ^ ^ ^ ^ ^ ^ ^ ^ ^ ^ ^ ^ ^ ^ ^ ^ ^ ^ ^ ^ ^ ^ ^ ^ ^ ^ ^ ^ ^ ^ ^ ^ ^ ^ ^ ^ ^ ^ ^ ^ ^ ^ ^ ^ ^ ^ ^ ^ ^ ^ ^ ^ ^ ^ ^ ^ ^ ^ ^ ^ ^ ^ ^ ^ ^ ^ ^ ^ ^ ^ ^ ^ ^ ^ ^ ^ ^ ^ ^ ^ ^ ^ ^ ^ ^ ^ ^ ^ ^ ^ ^ ^ ^ ^ ^ ^ ^ ^ ^ ^ ^ ^ ^ ^ ^ ^ ^ x %.%.&."};
