/* XPM */
static char * workspacebuttonactive_xpm[] = {
"28 30 77 1",
" 	c None",
".	c #515459",
"+	c #515558",
"@	c #535459",
"#	c #ACACAC",
"$	c #9D9D9D",
"%	c #9C9C9A",
"&	c #9F9E9C",
"*	c #9F9D9E",
"=	c #9F9F9D",
"-	c #888785",
";	c #555452",
">	c #292826",
",	c #151412",
"'	c #161211",
")	c #171312",
"!	c #312D2C",
"~	c #A1A09E",
"{	c #CCCBC9",
"]	c #D4D0CF",
"^	c #D2D1CF",
"/	c #252422",
"(	c #A9A8A6",
"_	c #B9B8B6",
":	c #A6A5A3",
"<	c #A39F9E",
"[	c #C5C4C2",
"}	c #9D9C9A",
"|	c #9C9897",
"1	c #151314",
"2	c #C0BCBD",
"3	c #938F8E",
"4	c #948E8E",
"5	c #B8B4B5",
"6	c #898584",
"7	c #8A8484",
"8	c #AFABAC",
"9	c #7E7A79",
"0	c #807A7A",
"a	c #7F7B7A",
"b	c #141414",
"c	c #A6A4A5",
"d	c #757170",
"e	c #9C9A9B",
"f	c #676664",
"g	c #959394",
"h	c #5E5D5B",
"i	c #141213",
"j	c #8F8B8C",
"k	c #555354",
"l	c #898586",
"m	c #4E4D4B",
"n	c #4E4C4D",
"o	c #666465",
"p	c #131313",
"q	c #626061",
"r	c #131514",
"s	c #615F60",
"t	c #141412",
"u	c #605F5D",
"v	c #141416",
"w	c #5D5B5C",
"x	c #5B595A",
"y	c #5A5859",
"z	c #585657",
"A	c #000000",
"B	c #515151",
"C	c #1E1E1E",
"D	c #151515",
"E	c #242424",
"F	c #3C3C3C",
"G	c #3D3D3D",
"H	c #191919",
"I	c #4F4F4F",
"J	c #545253",
"K	c #535351",
"L	c #262626",
"..++@@++@@+@@@++@@@++@@++...",
"#$%&**=&**=***=&***&=**&%$##",
"-;>,,',,,',,)',,,),,,',,>;--",
";!~{]]^^]]^]]]^^]]]^^]]{~!;;",
"/(_:<<<<<<<<<<<<<<<<<<<:_(//",
",[}|||||||||||||||||||||}[,,",
"1233343334333433333334333211",
"1566776667666766666667766511",
"1890aaaaaaaaaaaaaaaaaaa09811",
"bcdddddddddddddddddddddddcbb",
"befffffffffffffffffffffffebb",
"1ghhhhhhhhhhhhhhhhhhhhhhhg11",
"ij;;kk;;kk;k;k;;k;k;;kk;;jii",
"1lmmnnmmnnmnnnmmnnnmmnnmml11",
"1opbbbbbbbbbbbbbbbbbbbbbpo11",
"bobbbbbbbbbbbbbbbbbbbbbbbobb",
"bqbbbbrrbbrbbbrrbbbrrbbbbqbb",
"bsbbbbrrbbrbbbrrbbbrrbbbbsbb",
"tubbvvbbbvbbbvbbbbbbbvvbbutt",
"thbbvvbbbvbbbvbbbbbbbvvbbhtt",
"bw11bb11bb1bbb11bbb11bb11wbb",
"bx11bb11bb1bbb11bbb11bb11xbb",
"byvvbbbbbbbbbbbbbbbbbbbvvybb",
"bzvvbbbbbbbbbbbbbbbbbbbvvzbA",
"bBCDbbbbbbbbbbbbbbbbbbbDCBAA",
"EFGCbbbbbbbbbbbbbbbbbbbCGFAA",
"AHFIJJKKJJKJJJKKJJJKKJJIFHAA",
"AALbb1tbb1tb11tbb1bbt1bbLAAA",
"AAAAAAAAAAAAAAAAAAAAAAAAAAAA",
"AAAAAAAAAAAAAAAAAAAAAAAAAAAA"};
