/* XPM */
static char * workspacebuttonactive_xpm[] = {
"19 30 40 1",
" 	c None",
".	c #B4B6B5",
"+	c #8B8D8C",
"@	c #8F8F8D",
"#	c #575654",
"$	c #202020",
"%	c #141414",
"&	c #565654",
"*	c #272624",
"=	c #393939",
"-	c #3A3A3A",
";	c #383838",
">	c #1E1E1E",
",	c #3D3D3D",
"'	c #3E3E3E",
")	c #424242",
"!	c #444444",
"~	c #151515",
"{	c #3C3C3C",
"]	c #3F3F3F",
"^	c #434345",
"/	c #444446",
"(	c #454545",
"_	c #444442",
":	c #191919",
"<	c #1A1819",
"[	c #19191B",
"}	c #1A1A1A",
"|	c #181818",
"1	c #575556",
"2	c #151314",
"3	c #181A19",
"4	c #5D5B5C",
"5	c #535152",
"6	c #131514",
"7	c #1C1C1E",
"8	c #303032",
"9	c #535353",
"0	c #5F5F5F",
"a	c #131416",
"...................",
"+++++++++++++++++++",
"@#$%%%%%%%%%%%%%$#@",
"&*=-;;;;;;;;;;;-=*&",
">,=')!!!!!!!!!)'=,>",
"~{]!!!!!!!!!!!!!]{~",
"%;^/(!((!!(!(!(/^;%",
"%;^!!!((!!(!(!!!^;%",
"%;!!!_!!__!_!_!!!;%",
"%;!!__!!__!_!__!!;%",
"%;!!!!!!!!!!!!!!!;%",
"%;!!!!!!!!!!!!!!!;%",
"%;!!!!!!!!!!!!!!!;%",
"%;!!!!!!!!!!!!!!!;%",
"%:::<<::<<:<:<<:::%",
"%:::<<::<<:<:<<:::%",
"%:::<<::<<:<:<<:::%",
"%:::<<::<<:<:<<:::%",
"%:::::::::::::::::%",
"%:::::::::::::::::%",
"%:::[[::[[:[:[[:::%",
"%:::[[::[[:[:[[:::%",
"%:::::::::::::::::%",
"%:::::::::::::::::%",
"%:}:::::::::::::}:%",
">|:::::::::::::::|>",
"12::::33::3:3::::21",
"45>%%%66%%6%6%%%>54",
"7890000000000000987",
"aa%%%%%%%%%%%%%%%aa"};
