/* XPM */
static char * icewm_xpm[] = {
"64 24 348 2",
"  	c None",
". 	c #2E4A70",
"+ 	c #2E4A71",
"@ 	c #2E4C73",
"# 	c #304E76",
"$ 	c #32507B",
"% 	c #345582",
"& 	c #365988",
"* 	c #385D8E",
"= 	c #3B6194",
"- 	c #3D659A",
"; 	c #3F689E",
"> 	c #4169A1",
", 	c #416BA3",
"' 	c #416BA4",
") 	c #4371AC",
"! 	c #4578B7",
"~ 	c #4476B3",
"{ 	c #4372AD",
"] 	c #416EA8",
"^ 	c #416CA5",
"/ 	c #2F4D75",
"( 	c #345884",
"_ 	c #396293",
": 	c #3C689D",
"< 	c #386090",
"[ 	c #355A88",
"} 	c #355986",
"| 	c #2F4B71",
"1 	c #304C73",
"2 	c #314E76",
"3 	c #32517A",
"4 	c #34547F",
"5 	c #355784",
"6 	c #375A88",
"7 	c #395B8A",
"8 	c #3B5D8D",
"9 	c #3D6092",
"0 	c #3F6398",
"a 	c #40679D",
"b 	c #416AA0",
"c 	c #345783",
"d 	c #3B689C",
"e 	c #4276B0",
"f 	c #4781C1",
"g 	c #4C8BCF",
"h 	c #4F92D9",
"i 	c #457EBB",
"j 	c #4276B1",
"k 	c #4882C3",
"l 	c #3C699D",
"m 	c #345885",
"n 	c #2E4B71",
"o 	c #2F4C73",
"p 	c #304E75",
"q 	c #314F77",
"r 	c #325078",
"s 	c #34527A",
"t 	c #35537C",
"u 	c #37547D",
"v 	c #375680",
"w 	c #385883",
"x 	c #3A5B87",
"y 	c #3D6090",
"z 	c #3E6496",
"A 	c #3F679A",
"B 	c #40689E",
"C 	c #3E6DA4",
"D 	c #4781C0",
"E 	c #4E91D8",
"F 	c #539CE7",
"G 	c #549DE9",
"H 	c #4B89CC",
"I 	c #4A87CA",
"J 	c #539CE8",
"K 	c #4F92DA",
"L 	c #4782C2",
"M 	c #3E6FA6",
"N 	c #2E4B72",
"O 	c #2F4C74",
"P 	c #304D75",
"Q 	c #324F77",
"R 	c #335078",
"S 	c #335178",
"T 	c #345179",
"U 	c #36567F",
"V 	c #395A86",
"W 	c #3B5E8C",
"X 	c #3C6191",
"Y 	c #3D6496",
"Z 	c #3E669A",
"` 	c #4069A0",
" .	c #5196DF",
"..	c #4E90D7",
"+.	c #4F93DB",
"@.	c #5197E0",
"#.	c #3C699E",
"$.	c #304F78",
"%.	c #304C72",
"&.	c #314D73",
"*.	c #324E75",
"=.	c #334F78",
"-.	c #34517A",
";.	c #36557F",
">.	c #375984",
",.	c #3A5C8A",
"'.	c #3D6192",
").	c #406599",
"!.	c #41699E",
"~.	c #416BA2",
"{.	c #335580",
"].	c #4175AF",
"^.	c #4985C7",
"/.	c #457CBA",
"(.	c #4072AA",
"_.	c #447AB6",
":.	c #4884C5",
"<.	c #4E90D6",
"[.	c #539BE7",
"}.	c #4F93DA",
"|.	c #304E77",
"1.	c #314F78",
"2.	c #33517A",
"3.	c #34537D",
"4.	c #365681",
"5.	c #385985",
"6.	c #3C6091",
"7.	c #3E6498",
"8.	c #3F679C",
"9.	c #416AA1",
"0.	c #457DBB",
"a.	c #529AE4",
"b.	c #529AE5",
"c.	c #4A89CC",
"d.	c #3A6598",
"e.	c #3A6699",
"f.	c #3B6699",
"g.	c #3B679B",
"h.	c #3B679A",
"i.	c #396394",
"j.	c #3A6496",
"k.	c #4275B0",
"l.	c #4A87C9",
"m.	c #5299E4",
"n.	c #4680BF",
"o.	c #365B8A",
"p.	c #2F4C72",
"q.	c #304C74",
"r.	c #34537C",
"s.	c #385A86",
"t.	c #3A5D8B",
"u.	c #3D6091",
"v.	c #3F679B",
"w.	c #416AA3",
"x.	c #4D8ED3",
"y.	c #396495",
"z.	c #3F6FA7",
"A.	c #457CB9",
"B.	c #4986C8",
"C.	c #4C8DD1",
"D.	c #4C8CD0",
"E.	c #4985C6",
"F.	c #447BB7",
"G.	c #386191",
"H.	c #4073AC",
"I.	c #365B89",
"J.	c #2F4B72",
"K.	c #33507A",
"L.	c #355480",
"M.	c #385785",
"N.	c #3C5E90",
"O.	c #3D6295",
"P.	c #3F659A",
"Q.	c #40679E",
"R.	c #32547F",
"S.	c #539BE6",
"T.	c #5298E2",
"U.	c #335682",
"V.	c #304D73",
"W.	c #314F76",
"X.	c #33527A",
"Y.	c #365884",
"Z.	c #395C8D",
"`.	c #3B6093",
" +	c #3D6296",
".+	c #40669C",
"++	c #4169A0",
"@+	c #447BB8",
"#+	c #375E8D",
"$+	c #3D6CA2",
"%+	c #4A88CB",
"&+	c #5198E2",
"*+	c #5299E3",
"=+	c #335782",
"-+	c #4379B4",
";+	c #314D74",
">+	c #324E77",
",+	c #355581",
"'+	c #375886",
")+	c #3B5E8E",
"!+	c #3C6193",
"~+	c #3E6598",
"{+	c #3F689D",
"]+	c #3C6A9E",
"^+	c #447AB7",
"/+	c #355B89",
"(+	c #4174AE",
"_+	c #5094DD",
":+	c #4B8ACD",
"<+	c #457DBA",
"[+	c #4174AD",
"}+	c #3E6DA3",
"|+	c #3F6FA6",
"1+	c #467EBC",
"2+	c #31517B",
"3+	c #4377B2",
"4+	c #3E6EA4",
"5+	c #314E75",
"6+	c #325077",
"7+	c #325179",
"8+	c #33527B",
"9+	c #365682",
"0+	c #385A88",
"a+	c #3A5F8E",
"b+	c #3D6293",
"c+	c #3F689C",
"d+	c #40699F",
"e+	c #335581",
"f+	c #4E8FD6",
"g+	c #4277B1",
"h+	c #4071A9",
"i+	c #396294",
"j+	c #325079",
"k+	c #32507A",
"l+	c #33527D",
"m+	c #34547E",
"n+	c #375985",
"o+	c #3E6394",
"p+	c #3F6599",
"q+	c #41689D",
"r+	c #4D8FD5",
"s+	c #3F70A8",
"t+	c #5197E1",
"u+	c #4379B5",
"v+	c #375F8F",
"w+	c #386091",
"x+	c #31527C",
"y+	c #32537D",
"z+	c #396395",
"A+	c #2F4B73",
"B+	c #2F4C75",
"C+	c #304F77",
"D+	c #32517B",
"E+	c #365885",
"F+	c #385D8C",
"G+	c #3A5D8D",
"H+	c #3D6A9F",
"I+	c #4073AB",
"J+	c #3A6597",
"K+	c #4B89CD",
"L+	c #315079",
"M+	c #345784",
"N+	c #2F4D73",
"O+	c #314F75",
"P+	c #355580",
"Q+	c #385B89",
"R+	c #3B5F90",
"S+	c #3D6396",
"T+	c #3F659B",
"U+	c #416AA2",
"V+	c #3F70A7",
"W+	c #5095DE",
"X+	c #305079",
"Y+	c #4986C7",
"Z+	c #314E78",
"`+	c #33527C",
" @	c #35547F",
".@	c #365683",
"+@	c #385A87",
"@@	c #3F679D",
"#@	c #4169A2",
"$@	c #4C8CD1",
"%@	c #32527C",
"&@	c #3E6EA5",
"*@	c #4173AD",
"=@	c #4C8DD2",
"-@	c #2F4D74",
";@	c #34527C",
">@	c #3A5C8B",
",@	c #3D6498",
"'@	c #375E8E",
")@	c #375F8E",
"!@	c #31517A",
"~@	c #2F4E76",
"{@	c #4E91D7",
"]@	c #304C75",
"^@	c #375783",
"/@	c #3B5E8F",
"(@	c #467FBE",
"_@	c #4883C3",
":@	c #32537E",
"<@	c #4D8ED4",
"[@	c #33537D",
"}@	c #3F669C",
"|@	c #3D6BA0",
"1@	c #4B8ACE",
"2@	c #365C8B",
"3@	c #467FBD",
"4@	c #304D74",
"5@	c #33547E",
"6@	c #345681",
"7@	c #365984",
"8@	c #395C89",
"9@	c #3A5D8C",
"0@	c #3C6092",
"a@	c #3F669B",
"b@	c #355A87",
"c@	c #3D6BA1",
"d@	c #4B8BCF",
"e@	c #365783",
"f@	c #3A6091",
"g@	c #3C6394",
"h@	c #4D8FD4",
"i@	c #32547E",
"j@	c #365D8C",
"k@	c #355682",
"l@	c #375A87",
"m@	c #3A5E8F",
"n@	c #3C6397",
"o@	c #406AA1",
"p@	c #4378B4",
"q@	c #2F4E75",
"r@	c #315078",
"s@	c #375885",
"t@	c #395D8E",
"u@	c #3F689F",
"v@	c #4883C4",
"w@	c #385A8A",
"x@	c #3C6196",
"y@	c #3E669C",
"z@	c #406AA2",
"A@	c #5094DC",
"B@	c #5096DF",
"C@	c #4378B3",
"D@	c #365582",
"E@	c #3A5E90",
"F@	c #3F68A1",
"G@	c #4069A2",
". . . . . . . . . . . . . . . . . . . . . . . . . . . . . . . . . . . . . . + @ # $ % & * = - ; > , ' ) ! ~ { ] ^ ' ' ' ' ' ' ' ",
". . . . . . . . . . . . . . . . . . / ( _ : < . . . . [ _ } / . . . . . . . | 1 2 3 4 5 6 7 8 9 0 a b , ' ' ' ' ' ' ' ' ' ' ' ' ",
". . . . . . . . . . . . . . . . c d e f g h i . . . . j g k j l m + . . . . n o p q r s t u v w x y z A B > , ' ' ' ' ' ' ' ' ' ",
". . . . . . . . . . . . . . c C D E F G G G H . . . . I G G J K L M } . . . . N O P 2 Q R S T t U V W X Y Z ` , ' ' ' ' ' ' ' ' ",
". . . . . . . . . . . . # d D  .G G G G G G ... . . . +.G G G G G @.k #.$.. . . . . | %.&.*.=.-.t ;.>.,.'.).!.~.' ' ' ' ' ' ' ' ",
". . . . . . . . . . . {.].E J G G G J E ^./.(.. . . . _.:.<.[.G G G J }.j c . . . . n o p |.1.2.3.4.5.,.6.7.8.9.' ' ' ' ' ' ' ' ",
". . . . . . . . . . } 0.a.G G G b.c.j : d.e.f.g.: h.i.j.i.h.k.l.m.G G G b.n.o.. . . . p.o q.2 R r.4.s.t.u.z v.` w.' ' ' ' ' ' ' ",
". . . . . . . . . } L F G G J x.].y.j.z.A.B.C...h ..D.E.F.C G.< H.D.J G G J E.I.. . . + J.o p K.L.M.7 N.O.P.Q.` w.' ' ' ' ' ' ' ",
". . . . . . . . R.f J G G S.L d.i.e H T.J G G G G G G G J @.B.i.O i.n.b.G G J :.U.. . . . n p.V.W.X.Y.Z.`. +7..+++~.' ' ' ' ' ' ",
". . . . . . . / _.F G G b.@+#+$+%+S.G G G G F &+@.*+J G G G b.y.. . =+-+*+G G J 0.$.. . . . | %.;+>+2.,+'+7 )+!+~+{+` , ' ' ' ' ",
". . . . . . . ]+*+G G [.^+/+(+_+G G G *+:+<+[+M }+|+].1+D.S.E./ . . . 2+3+b.G G b.4+. . . . J.5+6+7+8+3.9+0+a+b+~+c+d+, ' ' ' ' ",
". . . . . . e+f+G G G f } g+*+G G S.l.h+i+_ N . . . O j.d.(+< . . . . ( R.1+J G G h ( . . . o j+k+l+m+4.n+t.6.o+p+q+9., ' ' ' ' ",
". . . . . . g+J G G r+/+s+*+G G t+u+v+w+H.f x+. . . y+k [+z+/ . . . #+f : c C.G G G @+. . . . A+B+C+D+,+E+6 F+G+6.P.` ~.' ' ' ' ",
". . . . . {._+G G S.H+< _+G G t+I+c C %+b.J J+. . . d.G S.K+|+L+. < l.J f+m h.b.G G  .M+. . . . n N+O+3 3.P+Y.Q+R+S+T+++U+, ' ' ",
". . . . . V+J G G K+y+B.G G S.k.R.(+W+G G G _.. . . _.G G G  .g+X+}+J G J 0.# Y+G G G ].. . . . | q.Z+`+ @.@+@R+7.@@B d+#@w.' ' ",
". . . . N $@G G J g.J+S.G G E.%@h+T.G G J C.|+. . . &@D.J G G m.*@m =@G G &+I.z+F G G <.O . . . n -@# j+;@;.w >@,@U+' , ' ' ' ' ",
". . . . =+S.G G +.X+^.G G T.'@)@W+G G b.i z+2+. . . !@i+A.m.G G  ._ : F G G ^+~@{@G G F [ . . . . + A+]@Z+D+m+^@/@.+w.' ' ' ' ' ",
". . . . #.G G G (@. (._@<._@O :.G G J /.{.. . . . . . . :@u+F G G I 2+<@G G +./ F.G G G &@. . . . o 1.D+[@4 9+5.,.u.}@w.' ' ' ' ",
". . . . _.G G G |@. O } h.#+} a.G G =@{.. . . . . . . . . y+1@G G S.2@(+G G J I.e.G G G 3@. . . . 4@1.D+5@6@7@8@9@0@a@U+' ' ' ' ",
". . . . B.G G G I.. . . . . V+G G G 4+. . . . m z+b@. . . . l J G G *@#+J G G c@=+J G G d@. . . . | 4@q D+4 e@7 f@g@{+, ' ' ' ' ",
". . . . h@G G J !@. . . . . D G G S.i@. . . [ L C._@j@. . . !@*+G G :.X+[.G G g+/ [.G G +.. . . . . J.4@1.[@k@l@m@n@o@' ' ' ' ' ",
". . . . K G G F O . + N o . c.G G @.. . . . p@J G G 0.. . . . +.G G =@. a.G G /.. m.G G @.. . . . . + q@r@`+4 s@t@- u@o@' ' ' ' ",
". . . . }.G G F o : *@].|+. H G G @.. . . . 3@G G G v@. . . . }.G G =@. a.G G <+. m.G G @.. . . . . . p.# k+4 w@x@y@u@z@' ' ' ' ",
". . . . r+G G J !@_@J G A@. f J B@%+o . . . z+h@*+f+f.. . . . _@K [.^.C+[.G G C@-@[.G G +.. . . . . + A+|.D+D@E@u@F@G@w.' ' ' ' "};
