/* XPM */
static char * closeA_xpm[] = {
"20 40 35 1",
" 	c None",
".	c #898989",
"+	c #A7A7A7",
"@	c #3C3C3C",
"#	c #C2C2C2",
"$	c #C5C5C5",
"%	c #F8F8F8",
"&	c #C9C9C9",
"*	c #F4F4F4",
"=	c #CDCDCD",
"-	c #F1F1F1",
";	c #000000",
">	c #D1D1D1",
",	c #EDEDED",
"'	c #D4D4D4",
")	c #EAEAEA",
"!	c #D8D8D8",
"~	c #E7E7E7",
"{	c #DCDCDC",
"]	c #E3E3E3",
"^	c #E0E0E0",
"/	c #E4E4E4",
"(	c #DDDDDD",
"_	c #E8E8E8",
":	c #D9D9D9",
"<	c #EBEBEB",
"[	c #D6D6D6",
"}	c #EFEFEF",
"|	c #D3D3D3",
"1	c #F3F3F3",
"2	c #CFCFCF",
"3	c #F7F7F7",
"4	c #CCCCCC",
"5	c #FAFAFA",
"6	c #FFFFFF",
".+@@@@@@@@@@@@@@@@+.",
"+@################@+",
"@##################@",
"@$$%%%%%%%%%%%%%%$$@",
"@&&**************&&@",
"@==--;;------;;--==@",
"@>>,,;;;,,,,;;;,,>>@",
"@'')));;;));;;)))''@",
"@!!~~~~;;;;;;~~~~!!@",
"@{{]]]]];;;;]]]]]{{@",
"@^^^^^^^;;;;^^^^^^^@",
"@//((((;;;;;;((((//@",
"@__:::;;;::;;;:::__@",
"@<<[[;;;[[[[;;;[[<<@",
"@}}||;;||||||;;||}}@",
"@112222222222222211@",
"@334244444444444433@",
"@555555555555555555@",
"+@6666666666666666@+",
".+@@@@@@@@@@@@@@@@+.",
"+.@@@@@@@@@@@@@@@@.+",
".@################@.",
"@##################@",
"@$$22222222222222$$@",
"@&&22222222222222&&@",
"@==22;;222222;;22==@",
"@>>22;;;2222;;;22>>@",
"@''222;;;22;;;222''@",
"@!!2222;;;;;;2222!!@",
"@{{22222;;;;22222{{@",
"@^^22222;;;;22222^^@",
"@//2222;;;;;;2222//@",
"@__222;;;22;;;222__@",
"@<<22;;;2222;;;22<<@",
"@}}22;;22|222;;22}}@",
"@112222222222222211@",
"@332222222222222233@",
"@555555555555555555@",
".@6666666666666666@.",
"+.@@@@@@@@@@@@@@@@.+"};
