/* XPM */
static char * menuButtonA_xpm[] = {
"20 40 34 1",
" 	c None",
".	c #898989",
"+	c #A7A7A7",
"@	c #3C3C3C",
"#	c #C2C2C2",
"$	c #C5C5C5",
"%	c #F8F8F8",
"&	c #C9C9C9",
"*	c #F4F4F4",
"=	c #CDCDCD",
"-	c #F1F1F1",
";	c #D1D1D1",
">	c #EDEDED",
",	c #D4D4D4",
"'	c #EAEAEA",
")	c #D8D8D8",
"!	c #E7E7E7",
"~	c #DCDCDC",
"{	c #E3E3E3",
"]	c #E0E0E0",
"^	c #DDDDDD",
"/	c #E4E4E4",
"(	c #E8E8E8",
"_	c #D9D9D9",
":	c #EBEBEB",
"<	c #D6D6D6",
"[	c #EFEFEF",
"}	c #D3D3D3",
"|	c #F3F3F3",
"1	c #CFCFCF",
"2	c #F7F7F7",
"3	c #CCCCCC",
"4	c #FAFAFA",
"5	c #FFFFFF",
".+@@@@@@@@@@@@@@@@+.",
"+@################@+",
"@##################@",
"@$$%%%%%%%%%%%%%%$$@",
"@&&**************&&@",
"@==--------------==@",
"@;;>>>>>>>>>>>>>>;;@",
"@,,'''''''''''''',,@",
"@))!!!!!!!!!!!!!!))@",
"@~~{{{{{{{{{{{{{{~~@",
"@]]]]]^]^]^]^]^]^]]@",
"@//^^^^^^^^^^^^^^//@",
"@((______________((@",
"@::<<<<<<<<<<<<<<::@",
"@[[}}}}}}}}}}}}}}[[@",
"@||11111111111111||@",
"@223133333333333322@",
"@444444444444444444@",
"+@5555555555555555@+",
".+@@@@@@@@@@@@@@@@+.",
"+.@@@@@@@@@@@@@@@@.+",
".@@@@@@@@@@@@@@@@@@.",
"@@@@@@@@@@@@@@@@@@@@",
"@@@@@@@@@@@@@@@@@@@@",
"@@@@@@@@@@@@@@@@@@@@",
"@@@@@@@@@@@@@@@@@@@@",
"@@@@@@@@@@@@@@@@@@@@",
"@@@@@@@@@@@@@@@@@@@@",
"@@@@@@@@@@@@@@@@@@@@",
"@@@@@@@@@@@@@@@@@@@@",
"@@@@@@@@@@@@@@@@@@@@",
"@@@@@@@@@@@@@@@@@@@@",
"@@@@@@@@@@@@@@@@@@@@",
"@@@@@@@@@@@@@@@@@@@@",
"@@@@@@@@@@@@@@@@@@@@",
"@@@@@@@@@@@@@@@@@@@@",
"@@@@@@@@@@@@@@@@@@@@",
"@@@@@@@@@@@@@@@@@@@@",
".@@@@@@@@@@@@@@@@@@.",
"+.@@@@@@@@@@@@@@@@.+"};
