/* XPM */
static char * restoreA_xpm[] = {
"20 40 5 1",
" 	c None",
".	c #898989",
"+	c #A7A7A7",
"@	c #3C3C3C",
"#	c #CCCCCC",
".+@@@@@@@@@@@@@@@@+.",
"+@################@+",
"@##################@",
"@##################@",
"@##################@",
"@#######@@@@@@@####@",
"@#######@@@@@@@####@",
"@#######@#####@####@",
"@#######@#####@####@",
"@####@@@@@@@##@####@",
"@####@@@@@@@@@@####@",
"@####@#####@#######@",
"@####@#####@#######@",
"@####@#####@#######@",
"@####@@@@@@@#######@",
"@##################@",
"@##################@",
"@##################@",
"+@################@+",
".+@@@@@@@@@@@@@@@@+.",
"+.@@@@@@@@@@@@@@@@.+",
".@@@@@@@@@@@@@@@@@@.",
"@@@@@@@@@@@@@@@@@@@@",
"@@@@@@@@@@@@@@@@@@@@",
"@@@@@@@@@@@@@@@@@@@@",
"@@@@@@@@.......@@@@@",
"@@@@@@@@.......@@@@@",
"@@@@@@@@.@@@@@.@@@@@",
"@@@@@@@@.@@@@@.@@@@@",
"@@@@@.......@@.@@@@@",
"@@@@@..........@@@@@",
"@@@@@.@@@@@.@@@@@@@@",
"@@@@@.@@@@@.@@@@@@@@",
"@@@@@.@@@@@.@@@@@@@@",
"@@@@@.......@@@@@@@@",
"@@@@@@@@@@@@@@@@@@@@",
"@@@@@@@@@@@@@@@@@@@@",
"@@@@@@@@@@@@@@@@@@@@",
".@@@@@@@@@@@@@@@@@@.",
"+.@@@@@@@@@@@@@@@@.+"};
