/* XPM */
static char * closeA_xpm[] = {
"46 46 674 2",
"  	c None",
". 	c #293454",
"+ 	c #2A3354",
"@ 	c #2A3256",
"# 	c #293356",
"$ 	c #283255",
"% 	c #293357",
"& 	c #273359",
"* 	c #273457",
"= 	c #283353",
"- 	c #293452",
"; 	c #2A3553",
"> 	c #273456",
", 	c #27355A",
"' 	c #2D3E6A",
") 	c #2A3E71",
"! 	c #3E5082",
"~ 	c #2A3A64",
"{ 	c #EFF3FF",
"] 	c #F0F4FF",
"^ 	c #F1F5FF",
"/ 	c #F3F4FF",
"( 	c #F2F3FF",
"_ 	c #EEF3FF",
": 	c #E6EEFF",
"< 	c #C6D3FD",
"[ 	c #C0D4FF",
"} 	c #8298D1",
"| 	c #2C4271",
"1 	c #80737D",
"2 	c #FFF7FF",
"3 	c #FFF6FF",
"4 	c #FFF6FE",
"5 	c #FFF5FD",
"6 	c #FFF5FE",
"7 	c #FFF6FC",
"8 	c #FFF5FC",
"9 	c #FFF5FA",
"0 	c #FFF8FF",
"a 	c #4B4A5A",
"b 	c #D8E2FD",
"c 	c #D0E6FF",
"d 	c #AECFFA",
"e 	c #85706F",
"f 	c #EAD5D4",
"g 	c #CFB5B6",
"h 	c #D3B5B5",
"i 	c #D4B5B3",
"j 	c #D5B6B4",
"k 	c #D8B6B4",
"l 	c #D9B6B4",
"m 	c #DDB7B4",
"n 	c #DEB6B4",
"o 	c #DFB8B3",
"p 	c #DFBAB4",
"q 	c #DEBBB7",
"r 	c #DDBBB9",
"s 	c #DBBCB9",
"t 	c #DEBBB9",
"u 	c #E0BBB5",
"v 	c #E0BAB7",
"w 	c #DDBBBA",
"x 	c #E0B8B6",
"y 	c #DFB7B5",
"z 	c #D9B5B5",
"A 	c #D8B6B5",
"B 	c #D7B5B3",
"C 	c #D5B5B6",
"D 	c #D2B6B5",
"E 	c #E4CFCE",
"F 	c #52474B",
"G 	c #E0E3F2",
"H 	c #D5E6FF",
"I 	c #C3E5FF",
"J 	c #856D6D",
"K 	c #EFD1D1",
"L 	c #D4B1AF",
"M 	c #DAAEAD",
"N 	c #DBAEAB",
"O 	c #DEAEAC",
"P 	c #DFAEAA",
"Q 	c #E1AEAA",
"R 	c #E4AFAB",
"S 	c #E5AEAB",
"T 	c #E8AEAA",
"U 	c #E9B0A9",
"V 	c #E5B0AA",
"W 	c #E2B2AE",
"X 	c #DAB8B7",
"Y 	c #D8B8B9",
"Z 	c #DAB6B6",
"` 	c #DFB6B4",
" .	c #E4B3AF",
"..	c #E4B4B0",
"+.	c #DDB6B7",
"@.	c #DAB8B9",
"#.	c #DBB7B7",
"$.	c #E3B2AE",
"%.	c #E6B1AD",
"&.	c #E9AFAB",
"*.	c #E6AFAC",
"=.	c #E2AFAB",
"-.	c #E1AEAB",
";.	c #DEAEAA",
">.	c #D7AFAF",
",.	c #E7CBC8",
"'.	c #544447",
").	c #E3E2F2",
"!.	c #D7E6FD",
"~.	c #CEE9FF",
"{.	c #83696A",
"].	c #F1CDCD",
"^.	c #D5A9A8",
"/.	c #DAA7A4",
"(.	c #DEA7A4",
"_.	c #E0A6A4",
":.	c #E1A7A5",
"<.	c #E4A9A5",
"[.	c #E4A7A2",
"}.	c #E7A8A3",
"|.	c #E7A8A1",
"1.	c #EBA8A2",
"2.	c #ECA7A0",
"3.	c #E7AAA5",
"4.	c #A17373",
"5.	c #997778",
"6.	c #694F52",
"7.	c #684F52",
"8.	c #6B4E50",
"9.	c #D9B0AE",
"0.	c #9D7575",
"a.	c #6C4E50",
"b.	c #6C4D52",
"c.	c #9C7578",
"d.	c #A47271",
"e.	c #E7ACA8",
"f.	c #EAA9A3",
"g.	c #E8A7A1",
"h.	c #E3A8A4",
"i.	c #E1A7A3",
"j.	c #DEA7A2",
"k.	c #D7A7A5",
"l.	c #E9C7C5",
"m.	c #544145",
"n.	c #E4E1F2",
"o.	c #DAE5FB",
"p.	c #D5E7FD",
"q.	c #816564",
"r.	c #EFC9C8",
"s.	c #D0A3A0",
"t.	c #D8A19E",
"u.	c #DBA09C",
"v.	c #DC9F9C",
"w.	c #DDA09B",
"x.	c #DFA09B",
"y.	c #E1A09A",
"z.	c #E3A09A",
"A.	c #E3A098",
"B.	c #E7A09A",
"C.	c #E7A199",
"D.	c #EAA19A",
"E.	c #E0A5A1",
"F.	c #6F4C50",
"G.	c #645157",
"H.	c #FFFBFF",
"I.	c #FFFDFF",
"J.	c #FFFCFF",
"K.	c #5E5357",
"L.	c #8A797F",
"M.	c #625157",
"N.	c #FFFCFD",
"O.	c #FFFAFF",
"P.	c #664F55",
"Q.	c #734B4C",
"R.	c #DDA5A4",
"S.	c #E6A39D",
"T.	c #E5A099",
"U.	c #D5A29F",
"V.	c #E5C2C0",
"W.	c #513E42",
"X.	c #DDE3F9",
"Y.	c #7F5F60",
"Z.	c #EEC6C6",
"`.	c #CC9C9A",
" +	c #D39997",
".+	c #D79893",
"++	c #D89793",
"@+	c #D99892",
"#+	c #DB9892",
"$+	c #DD9891",
"%+	c #DF9892",
"&+	c #E09A92",
"*+	c #E39892",
"=+	c #E59B92",
"-+	c #E79A92",
";+	c #DF9E98",
">+	c #9B6E71",
",+	c #8E7378",
"'+	c #615257",
")+	c #FDFCFF",
"!+	c #58555C",
"~+	c #FEFCFF",
"{+	c #FFFBFD",
"]+	c #625255",
"^+	c #917375",
"/+	c #9E6E6E",
"(+	c #E39D95",
"_+	c #E29992",
":+	c #E09993",
"<+	c #DC9993",
"[+	c #D69792",
"}+	c #D09B97",
"|+	c #E4BEBB",
"1+	c #4F3B3D",
"2+	c #E5E1F0",
"3+	c #DEE3F9",
"4+	c #7C5A59",
"5+	c #EAC1BF",
"6+	c #C69390",
"7+	c #CE918E",
"8+	c #D1908A",
"9+	c #D3908A",
"0+	c #D59089",
"a+	c #D7908A",
"b+	c #D99089",
"c+	c #DB908A",
"d+	c #DC9289",
"e+	c #E0918A",
"f+	c #E2948A",
"g+	c #E3938A",
"h+	c #E3948D",
"i+	c #DF9690",
"j+	c #D59A96",
"k+	c #966E6F",
"l+	c #665053",
"m+	c #FEF8FC",
"n+	c #F9FAFE",
"o+	c #FAFAFC",
"p+	c #FBF9FC",
"q+	c #FDF8FF",
"r+	c #645155",
"s+	c #996D6C",
"t+	c #D69994",
"u+	c #DD9690",
"v+	c #E2958D",
"w+	c #DF928A",
"x+	c #DE9189",
"y+	c #DA8F89",
"z+	c #CC928E",
"A+	c #E1B8B4",
"B+	c #4C3639",
"C+	c #7A5453",
"D+	c #EDBBBA",
"E+	c #C48784",
"F+	c #CB847E",
"G+	c #D2857D",
"H+	c #D4857E",
"I+	c #D6867D",
"J+	c #D9867E",
"K+	c #DA867C",
"L+	c #DD867C",
"M+	c #DE867C",
"N+	c #E0867B",
"O+	c #E2867B",
"P+	c #E7877B",
"Q+	c #E8867B",
"R+	c #EB867A",
"S+	c #E18A81",
"T+	c #CD9190",
"U+	c #8F6C70",
"V+	c #E8E9EB",
"W+	c #E9E9EB",
"X+	c #EBE9EC",
"Y+	c #5B545C",
"Z+	c #886D72",
"`+	c #D2918B",
" @	c #E28A80",
".@	c #E8887C",
"+@	c #E88679",
"@@	c #E6867A",
"#@	c #E4867A",
"$@	c #E3877C",
"%@	c #DD867D",
"&@	c #D8857D",
"*@	c #D5857C",
"=@	c #D3867E",
"-@	c #C9867E",
";@	c #E1B1AD",
">@	c #4B3134",
",@	c #E7E0F0",
"'@	c #E0E2F9",
")@	c #5B2B2B",
"!@	c #DB9B99",
"~@	c #954842",
"{@	c #9F453D",
"]@	c #A4433A",
"^@	c #A7453A",
"/@	c #AB463A",
"(@	c #AC463A",
"_@	c #AF473A",
":@	c #B3473A",
"<@	c #B64839",
"[@	c #B94838",
"}@	c #BD493A",
"|@	c #C04838",
"1@	c #C24839",
"2@	c #C34838",
"3@	c #BA4E42",
"4@	c #A15754",
"5@	c #7C5454",
"6@	c #5F5355",
"7@	c #ECE7EB",
"8@	c #5D535B",
"9@	c #785559",
"0@	c #A6564D",
"a@	c #BC4E3F",
"b@	c #C24A3A",
"c@	c #C24938",
"d@	c #C14939",
"e@	c #BD4837",
"f@	c #BB4738",
"g@	c #B84737",
"h@	c #B0483B",
"i@	c #A9443A",
"j@	c #A64439",
"k@	c #9B463F",
"l@	c #C58A84",
"m@	c #351314",
"n@	c #E8DFF0",
"o@	c #DDE2F8",
"p@	c #5D2A29",
"q@	c #DF9B98",
"r@	c #9C4943",
"s@	c #A6453C",
"t@	c #AC4439",
"u@	c #AF4538",
"v@	c #B14538",
"w@	c #B44639",
"x@	c #B64638",
"y@	c #BB4836",
"z@	c #BD4836",
"A@	c #C64937",
"B@	c #C84938",
"C@	c #C54A3A",
"D@	c #BF4D42",
"E@	c #B0534B",
"F@	c #8C4F4C",
"G@	c #6D4D4E",
"H@	c #E9DEE2",
"I@	c #E2E1E6",
"J@	c #E3E1E4",
"K@	c #E5E0E4",
"L@	c #E6E0E4",
"M@	c #924D48",
"N@	c #B35347",
"O@	c #BF4F43",
"P@	c #C54D3D",
"Q@	c #C54A38",
"R@	c #C34836",
"S@	c #C14837",
"T@	c #B34538",
"U@	c #B14539",
"V@	c #AD453A",
"W@	c #A1473E",
"X@	c #CB8C85",
"Y@	c #351113",
"Z@	c #E8E0EF",
"`@	c #DFE4FA",
" #	c #5E2C2B",
".#	c #E09F9B",
"+#	c #9E4F48",
"@#	c #A84E45",
"##	c #AE4C41",
"$#	c #B04B3F",
"%#	c #B24C3E",
"&#	c #B74D40",
"*#	c #B84C3F",
"=#	c #BB4D3E",
"-#	c #BD4E3D",
";#	c #C3503E",
">#	c #C5503E",
",#	c #C8503F",
"'#	c #BC5648",
")#	c #944E4C",
"!#	c #7F5557",
"~#	c #E3D8DC",
"{#	c #DDDBDE",
"]#	c #DBDADF",
"^#	c #59545A",
"/#	c #E0DADE",
"(#	c #DFDADE",
"_#	c #E4D8DA",
":#	c #6B4E52",
"<#	c #865455",
"[#	c #974E48",
"}#	c #B6584E",
"|#	c #C15342",
"1#	c #C74F3E",
"2#	c #C44F3E",
"3#	c #C24E3F",
"4#	c #B94D40",
"5#	c #B44C3F",
"6#	c #B24C40",
"7#	c #AF4A40",
"8#	c #A45046",
"9#	c #CC9088",
"0#	c #361415",
"a#	c #5F2F2F",
"b#	c #E0A3A0",
"c#	c #A25952",
"d#	c #AA564C",
"e#	c #AF554A",
"f#	c #B35549",
"g#	c #B6564A",
"h#	c #B75548",
"i#	c #BB5748",
"j#	c #BE5849",
"k#	c #C05948",
"l#	c #C45947",
"m#	c #C85A49",
"n#	c #CA5D49",
"o#	c #BD6154",
"p#	c #7D4747",
"q#	c #E2D2D5",
"r#	c #DED4D5",
"s#	c #DFD3D5",
"t#	c #625253",
"u#	c #775E61",
"v#	c #685050",
"w#	c #E2D2D3",
"x#	c #E0D2D2",
"y#	c #E5D0D5",
"z#	c #6F4D4E",
"A#	c #814642",
"B#	c #B66459",
"C#	c #C25E4E",
"D#	c #C85B47",
"E#	c #C75948",
"F#	c #C35848",
"G#	c #C15749",
"H#	c #B85649",
"I#	c #B1554A",
"J#	c #B1544C",
"K#	c #A6584E",
"L#	c #CF968F",
"M#	c #361617",
"N#	c #DCE2F8",
"O#	c #613536",
"P#	c #E2ABA8",
"Q#	c #A8655D",
"R#	c #AF625A",
"S#	c #B96258",
"T#	c #BC645A",
"U#	c #BD6358",
"V#	c #C06457",
"W#	c #C16556",
"X#	c #C46756",
"Y#	c #C76856",
"Z#	c #C96857",
"`#	c #CB6855",
" $	c #C66D5D",
".$	c #9A574F",
"+$	c #8D5C58",
"@$	c #724C49",
"#$	c #704D4B",
"$$	c #734B49",
"%$	c #8E5D59",
"&$	c #B1756D",
"*$	c #955A52",
"=$	c #744B49",
"-$	c #905B55",
";$	c #9C564C",
">$	c #C16E5E",
",$	c #C66957",
"'$	c #CC6956",
")$	c #C76655",
"!$	c #C76656",
"~$	c #C46456",
"{$	c #C16455",
"]$	c #B66257",
"^$	c #B66258",
"/$	c #AF665F",
"($	c #D19E9A",
"_$	c #3A1C1E",
":$	c #623839",
"<$	c #AD746D",
"[$	c #B5726A",
"}$	c #B97067",
"|$	c #BB7168",
"1$	c #BD7066",
"2$	c #C17367",
"3$	c #C27366",
"4$	c #C47566",
"5$	c #C77665",
"6$	c #C97666",
"7$	c #CD7766",
"8$	c #CF7865",
"9$	c #CC7B6A",
"0$	c #C57D6F",
"a$	c #BE8075",
"b$	c #B7827A",
"c$	c #B7827C",
"d$	c #BB827B",
"e$	c #C08076",
"f$	c #C97D6F",
"g$	c #C87E71",
"h$	c #BC817B",
"i$	c #B8837D",
"j$	c #BA8178",
"k$	c #BF8176",
"l$	c #CA7B6A",
"m$	c #CC7967",
"n$	c #CE7965",
"o$	c #CC7665",
"p$	c #C87565",
"q$	c #C87567",
"r$	c #C67468",
"s$	c #C27267",
"t$	c #C07266",
"u$	c #B77169",
"v$	c #B87B76",
"w$	c #D3A7A4",
"x$	c #432A2E",
"y$	c #E4E0EF",
"z$	c #663F40",
"A$	c #E2B9B7",
"B$	c #B0807C",
"C$	c #B97F7B",
"D$	c #BB7F77",
"E$	c #BE7F78",
"F$	c #C08077",
"G$	c #C28279",
"H$	c #C58279",
"I$	c #C58377",
"J$	c #C78376",
"K$	c #C98578",
"L$	c #CC8778",
"M$	c #CE8677",
"N$	c #CF8778",
"O$	c #CC8979",
"P$	c #CA8B7C",
"Q$	c #C98B7E",
"R$	c #CA8A7E",
"S$	c #CC8A7C",
"T$	c #CE8979",
"U$	c #CD8879",
"V$	c #CC8A7E",
"W$	c #CB8B7F",
"X$	c #CC8777",
"Y$	c #CB8677",
"Z$	c #C88477",
"`$	c #C78378",
" %	c #C38379",
".%	c #C08178",
"+%	c #BE7F76",
"@%	c #BD827C",
"#%	c #C08B87",
"$%	c #D1A5A4",
"%%	c #B29391",
"&%	c #725F65",
"*%	c #E3E0F1",
"=%	c #69494A",
"-%	c #F5D3D2",
";%	c #DAB4B1",
">%	c #DFB3B0",
",%	c #E3B3AF",
"'%	c #E3B4AE",
")%	c #E6B5B0",
"!%	c #E6B5AE",
"~%	c #E9B7B0",
"{%	c #E8B6AD",
"]%	c #E9B7AE",
"^%	c #EBB7AC",
"/%	c #EDB7AD",
"(%	c #EEB8AE",
"_%	c #EEB8AC",
":%	c #EFB9AD",
"<%	c #F1B9AC",
"[%	c #F1B8AD",
"}%	c #E8B6AF",
"|%	c #E5B6B0",
"1%	c #E4B5AF",
"2%	c #E1B4AE",
"3%	c #E4B8B5",
"4%	c #D3ADAC",
"5%	c #AA8C8C",
"6%	c #453035",
"7%	c #E1D7E0",
"8%	c #E2E1F3",
"9%	c #463234",
"0%	c #42292C",
"a%	c #452928",
"b%	c #472929",
"c%	c #482A28",
"d%	c #492B29",
"e%	c #4A2C2A",
"f%	c #4B2D2B",
"g%	c #4C2E2C",
"h%	c #4E2F2C",
"i%	c #4F302D",
"j%	c #50312E",
"k%	c #51322F",
"l%	c #52332E",
"m%	c #51322D",
"n%	c #523331",
"o%	c #4F322E",
"p%	c #4E312D",
"q%	c #4D302C",
"r%	c #4B2F2C",
"s%	c #4A2E2B",
"t%	c #492D2A",
"u%	c #482C2B",
"v%	c #472B2A",
"w%	c #432928",
"x%	c #543837",
"y%	c #7C686A",
"z%	c #E8E0EB",
"A%	c #D9D8EA",
"B%	c #DFE1F6",
"C%	c #F7EDF5",
"D%	c #F9ECF3",
"E%	c #FBECF3",
"F%	c #FAEDF4",
"G%	c #F9EDF1",
"H%	c #F8EBF2",
"I%	c #F8ECF0",
"J%	c #FBECF1",
"K%	c #FBECEF",
"L%	c #FAEEF2",
"M%	c #F8EDF1",
"N%	c #F8ECF6",
"O%	c #DFDEEE",
"P%	c #DEE3F7",
"Q%	c #DADBED",
"R%	c #DDDCEC",
"S%	c #DDDCEA",
"T%	c #DEDDED",
"U%	c #DEDDEB",
"V%	c #E0DFEF",
"W%	c #E2E1EF",
"X%	c #E4E2EF",
"Y%	c #E5E3F0",
"Z%	c #E6E4F1",
"`%	c #E8E6F3",
" &	c #E7E5F0",
".&	c #E9E7F2",
"+&	c #E3E3EF",
"@&	c #E3E1EF",
"#&	c #DFE2F5",
"$&	c #DDE2F6",
"%&	c #E0EAFF",
"&&	c #E1EBFF",
"*&	c #E3EAFF",
"=&	c #E3EBFF",
"-&	c #E5EDFF",
";&	c #E7EFFF",
">&	c #E8EEFF",
",&	c #E8F0FF",
"'&	c #E9EFFF",
")&	c #E4EBFF",
"!&	c #DDE4FE",
"~&	c #DBE2FE",
"{&	c #DBE2FF",
"]&	c #ACBBE2",
"^&	c #ACBCE0",
"/&	c #AABCE2",
"(&	c #ABBAE1",
"_&	c #ADBCE3",
":&	c #ADBDE1",
"<&	c #ABBBDF",
"[&	c #ADBBE0",
"}&	c #ACBADF",
"|&	c #ADBBE2",
"1&	c #ADBAE4",
". + . @ # # . # . # # # @ . . # # # # $ % # # # % & * # . . = . . . . . . - ; . > , ' ) ! ~ ",
"{ ] ] ] ] ] ] ] ] ^ ^ / / / / ( ( ( ( ( ( ( ( ( / ( ( ( ( ( ( ( ( ( ( ( ( ( ] ] _ : < [ } | ",
"1 2 2 2 2 3 3 3 2 4 5 6 6 7 7 8 8 8 9 8 8 8 9 8 8 8 9 8 8 6 6 6 6 4 4 3 3 3 3 3 2 0 a b c d ",
"e f g h i j j k l l m m n o p q r s s r t u v r w r q v x y y m m m l z A B j C D E F G H I ",
"J K L M N O O P Q Q R S T U V W n X Y Z `  ...+.@.#.` $.%.&.&.*.R R =.-.P P ;.N >.,.'.).!.~.",
"{.].^./.(._.:.<.[.}.|.1.1.2.3.4.5.6.7.8.5.9.0.a.6.b.c.d.e.f.2.1.g.|.}.[.h.i.j.(.k.l.m.n.o.p.",
"q.r.s.t.u.v.w.x.y.z.A.B.C.D.E.F.G.H.I.J.K.L.M.N.H.O.P.Q.R.S.D.B.T.A.z.y.x.w.u.u.U.V.W.n.X.o.",
"Y.Z.`. +.+++@+#+$+%+&+*+=+-+;+>+,+'+H.)+)+!+~+~+{+]+^+/+v.(+-+=+_+_+:+$+<+@+[+.+}+|+1+2+3+3+",
"4+5+6+7+8+9+0+a+b+c+d+e+f+g+h+i+j+k+l+m+n+o+p+q+r+s+t+u+v+f+g+f+w+x+y+b+a+0+9+8+z+A+B+2+3+3+",
"C+D+E+F+G+H+I+J+K+L+M+N+O+P+Q+R+S+T+U+K.V+W+X+Y+Z+`+ @.@+@@@#@$@N+M+%@K+&@*@H+=@-@;@>@,@3+'@",
")@!@~@{@]@^@/@(@_@:@<@[@}@|@1@2@3@4@5@6@V+W+7@8@9@0@a@b@c@d@e@f@g@<@:@h@(@i@j@]@k@l@m@n@3+o@",
"p@q@r@s@t@u@v@w@x@y@z@c@A@B@C@D@E@F@G@H@I@J@K@L@8.M@N@O@P@Q@A@R@S@e@f@x@T@U@V@t@W@X@Y@Z@3+`@",
" #.#+#@###$#%#&#*#=#-#;#>#,#'#)#!#7.~#{#]#^#/#(#_#:#<#[#}#|#1#2#3#-#=#4#5#6#7###8#9#0#Z@3+X.",
"a#b#c#d#e#f#g#h#i#j#k#l#m#n#o#p#:#q#r#s#t#u#v#w#x#y#z#A#B#C#D#E#F#G#j#i#H#g#I#J#K#L#M#Z@3+N#",
"O#P#Q#R#B#S#T#U#V#W#X#Y#Z#`# $.$+$@$#$$$%$&$*$=$#$=$-$;$>$,$'$)$!$~${$V#U#T#]$^$/$($_$,@3+3+",
":$$.<$[$}$|$1$2$3$4$5$6$7$8$9$0$a$b$c$d$e$f$g$h$i$j$k$0$l$m$n$o$p$q$r$s$t$1$|$u$v$w$x$y$3+3+",
"z$A$B$C$D$E$F$G$H$I$J$K$L$M$N$O$P$Q$Q$R$S$T$U$V$W$P$S$O$U$M$X$Y$Z$`$H$ %.%+%@%#%$%%%&%*%o@3+",
"=%-%;%>%W ,%'%)%!%~%{%]%^%/%(%_%:%<%<%[%[%<%<%[%[%[%:%_%(%^%^%]%]%}%)%|%1%2%3%4%5%6%7%8%3+o@",
"9%0%a%a%b%b%c%d%e%f%g%g%h%i%j%k%k%k%k%l%m%k%k%n%k%j%k%k%o%p%q%g%r%s%t%u%v%w%w%x%y%z%A%B%o@o@",
"C%D%E%F%D%G%G%D%D%D%D%H%D%D%I%D%G%J%J%K%K%J%G%G%G%L%G%G%G%G%G%G%G%M%M%G%D%M%G%J%N%O%P%3+3+3+",
"Q%R%R%R%R%S%S%T%T%T%T%T%T%T%U%V%W%X%Y%Z%`% & & & & & & & & &.&.&.&.& &Y%Y%+&+&@&).#&$&o@3+`@",
"%&%&%&%&%&%&%&%&%&%&&&*&*&&&&&*&*&=&=&-&;&;&;&;&;&;&;&;&;&>&;&>&,&'&,&>&;&;&;&)&!&~&~&~&~&{&",
"]&]&]&]&]&^&^&/&/&]&]&(&(&]&]&]&(&^&^&_&^&^&:&^&<&^&^&^&^&[&^&[&^&[&^&[&]&^&^&[&}&]&]&]&|&1&",
". + . @ # # . # . # # # @ . . # # # # $ % # # # % & * # . . = . . . . . . - ; . > , ' ) ! ~ ",
"{ ] ] ] ] ] ] ] ] ^ ^ / / / / ( ( ( ( ( ( ( ( ( / ( ( ( ( ( ( ( ( ( ( ( ( ( ] ] _ : < [ } | ",
"1 2 2 2 2 3 3 3 2 4 5 6 6 7 7 8 8 8 9 8 8 8 9 8 8 8 9 8 8 6 6 6 6 4 4 3 3 3 3 3 2 0 a b c d ",
"e f g h i j j k l l m m n o p q r s s r t u v r w r q v x y y m m m l z A B j C D E F G H I ",
"J K L M N O O P Q Q R S T U V W n X Y Z `  ...+.@.#.` $.%.&.&.*.R R =.-.P P ;.N >.,.'.).!.~.",
"{.].^./.(._.:.<.[.}.|.1.1.2.3.4.5.6.7.8.5.9.0.a.6.b.c.d.e.f.2.1.g.|.}.[.h.i.j.(.k.l.m.n.o.p.",
"q.r.s.t.u.v.w.x.y.z.A.B.C.D.E.F.G.H.I.J.K.L.M.N.H.O.P.Q.R.S.D.B.T.A.z.y.x.w.u.u.U.V.W.n.X.o.",
"Y.Z.`. +.+++@+#+$+%+&+*+=+-+;+>+,+'+H.)+)+!+~+~+{+]+^+/+v.(+-+=+_+_+:+$+<+@+[+.+}+|+1+2+3+3+",
"4+5+6+7+8+9+0+a+b+c+d+e+f+g+h+i+j+k+l+m+n+o+p+q+r+s+t+u+v+f+g+f+w+x+y+b+a+0+9+8+z+A+B+2+3+3+",
"C+D+E+F+G+H+I+J+K+L+M+N+O+P+Q+R+S+T+U+K.V+W+X+Y+Z+`+ @.@+@@@#@$@N+M+%@K+&@*@H+=@-@;@>@,@3+'@",
")@!@~@{@]@^@/@(@_@:@<@[@}@|@1@2@3@4@5@6@V+W+7@8@9@0@a@b@c@d@e@f@g@<@:@h@(@i@j@]@k@l@m@n@3+o@",
"p@q@r@s@t@u@v@w@x@y@z@c@A@B@C@D@E@F@G@H@I@J@K@L@8.M@N@O@P@Q@A@R@S@e@f@x@T@U@V@t@W@X@Y@Z@3+`@",
" #.#+#@###$#%#&#*#=#-#;#>#,#'#)#!#7.~#{#]#^#/#(#_#:#<#[#}#|#1#2#3#-#=#4#5#6#7###8#9#0#Z@3+X.",
"a#b#c#d#e#f#g#h#i#j#k#l#m#n#o#p#:#q#r#s#t#u#v#w#x#y#z#A#B#C#D#E#F#G#j#i#H#g#I#J#K#L#M#Z@3+N#",
"O#P#Q#R#B#S#T#U#V#W#X#Y#Z#`# $.$+$@$#$$$%$&$*$=$#$=$-$;$>$,$'$)$!$~${$V#U#T#]$^$/$($_$,@3+3+",
":$$.<$[$}$|$1$2$3$4$5$6$7$8$9$0$a$b$c$d$e$f$g$h$i$j$k$0$l$m$n$o$p$q$r$s$t$1$|$u$v$w$x$y$3+3+",
"z$A$B$C$D$E$F$G$H$I$J$K$L$M$N$O$P$Q$Q$R$S$T$U$V$W$P$S$O$U$M$X$Y$Z$`$H$ %.%+%@%#%$%%%&%*%o@3+",
"=%-%;%>%W ,%'%)%!%~%{%]%^%/%(%_%:%<%<%[%[%<%<%[%[%[%:%_%(%^%^%]%]%}%)%|%1%2%3%4%5%6%7%8%3+o@",
"9%0%a%a%b%b%c%d%e%f%g%g%h%i%j%k%k%k%k%l%m%k%k%n%k%j%k%k%o%p%q%g%r%s%t%u%v%w%w%x%y%z%A%B%o@o@",
"C%D%E%F%D%G%G%D%D%D%D%H%D%D%I%D%G%J%J%K%K%J%G%G%G%L%G%G%G%G%G%G%G%M%M%G%D%M%G%J%N%O%P%3+3+3+",
"Q%R%R%R%R%S%S%T%T%T%T%T%T%T%U%V%W%X%Y%Z%`% & & & & & & & & &.&.&.&.& &Y%Y%+&+&@&).#&$&o@3+`@",
"%&%&%&%&%&%&%&%&%&%&&&*&*&&&&&*&*&=&=&-&;&;&;&;&;&;&;&;&;&>&;&>&,&'&,&>&;&;&;&)&!&~&~&~&~&{&",
"]&]&]&]&]&^&^&/&/&]&]&(&(&]&]&]&(&^&^&_&^&^&:&^&<&^&^&^&^&[&^&[&^&[&^&[&]&^&^&[&}&]&]&]&|&1&"};
