/* XPM */
static char * frameAT_xpm[] = {
"6 27 52 1",
" 	c None",
".	c #2A3E71",
"+	c #3E5082",
"@	c #E4E1F2",
"#	c #DDE3F9",
"$	c #E5E1F0",
"%	c #DEE3F9",
"&	c #CEE9FF",
"*	c #71B4DF",
"=	c #00345B",
"-	c #CFE8FF",
";	c #6EB3DD",
">	c #00335A",
",	c #E7E0F0",
"'	c #E0E2F9",
")	c #69B0DA",
"!	c #003259",
"~	c #E8DFF0",
"{	c #DDE2F8",
"]	c #67B0DB",
"^	c #003157",
"/	c #E8E0EF",
"(	c #DFE4FA",
"_	c #CFEAFF",
":	c #66AFDA",
"<	c #003156",
"[	c #CBE9FF",
"}	c #62ADD7",
"|	c #DCE2F8",
"1	c #CCEAFF",
"2	c #60ADD9",
"3	c #003155",
"4	c #5FAED9",
"5	c #E4E0EF",
"6	c #60AFDA",
"7	c #003054",
"8	c #E3E0F1",
"9	c #5FACD8",
"0	c #E2E1F3",
"a	c #5CA9D5",
"b	c #DFE1F6",
"c	c #5EABD7",
"d	c #CAE8FF",
"e	c #5BAAD5",
"f	c #DBE2FE",
"g	c #DBE2FF",
"h	c #5CABD6",
"i	c #ACBBE2",
"j	c #ADBBE2",
"k	c #ADBAE4",
"l	c #C7EAFF",
"m	c #59AAD9",
"      ",
"      ",
"      ",
"      ",
".....+",
"@@@@@#",
"$%%&*=",
"$%%-;>",
",%'-)!",
"~%{&]^",
"/%(_:<",
"/%#[}<",
"/%|123",
",%%143",
"5%%167",
"8{%193",
"0%{1a3",
"b{{[c3",
"%%%dc3",
"5%%167",
"8{%193",
"0%{1a3",
"b{{[c3",
"%%%dc3",
"{%(1e3",
"ffg[h3",
"ijklm3"};
