/* XPM */
static char * frameABR_xpm[] = {
"26 26 65 1",
" 	c None",
".	c #ACBAE7",
"+	c #B1CEF6",
"@	c #B3D3FA",
"#	c #B5D9FF",
"$	c #59A9DC",
"%	c #003153",
"&	c #B2D2F9",
"*	c #9CC1ED",
"=	c #9ACFFF",
"-	c #5CA3D9",
";	c #00325A",
">	c #8AC9F5",
",	c #6DB6E9",
"'	c #477EB6",
")	c #13345D",
"!	c #A3C0E0",
"~	c #A2C1E0",
"{	c #A3C0E2",
"]	c #A3C2E1",
"^	c #A2C0E2",
"/	c #A0C1E2",
"(	c #9FC0E3",
"_	c #9FC1E7",
":	c #94C5F0",
"<	c #7ECAFE",
"[	c #60A9DE",
"}	c #062C5D",
"|	c #061536",
"1	c #AFF6FF",
"2	c #ACF5FF",
"3	c #A9F4FF",
"4	c #A8F3FF",
"5	c #A9F3FF",
"6	c #A8F2FF",
"7	c #A7F3FF",
"8	c #96E4FF",
"9	c #8DDEFF",
"0	c #7ED4FF",
"a	c #66BBF2",
"b	c #5DA9E7",
"c	c #1B5288",
"d	c #1C3355",
"e	c #66ADCB",
"f	c #66ADCD",
"g	c #61AACA",
"h	c #60ABCA",
"i	c #60ABCB",
"j	c #5EAACC",
"k	c #5EADD6",
"l	c #53A9D8",
"m	c #3684B5",
"n	c #003162",
"o	c #15375D",
"p	c #0C2641",
"q	c #0A2540",
"r	c #0A2542",
"s	c #082642",
"t	c #0B2643",
"u	c #0B2540",
"v	c #0B253E",
"w	c #0A243F",
"x	c #0D2B4D",
"y	c #1A3552",
"z	c #081827",
"                    .+@#$%",
"                    .+@#$%",
"                    .+@#$%",
"                    .+@#$%",
"                    .+@#$%",
"                    .+&#$%",
"                    .+@#$%",
"                    .+&#$%",
"                    .+@#$%",
"                    .+@#$%",
"                    .+@#$%",
"                    .+@#$%",
"                    .+@#$%",
"                    .+@#$%",
"                    .+&#$%",
"                    .+@#$%",
"                    .+&#$%",
"                    .+@#$%",
"                    .+@#$%",
"                    .+@#$%",
"                    .+*=-;",
"                    .+>,')",
"!!~~{{]~{{~~^^~~{^/(_:<[}|",
"123444444444445647890abcd ",
"efgggghhhhghhhiggijklmno  ",
"ppqqrrsssstrqqqquvwrxyz   "};
