/* XPM */
static char * frameABL_xpm[] = {
"26 26 58 1",
" 	c None",
".	c #1D254A",
"+	c #D5E1FF",
"@	c #B4C1F8",
"#	c #AEB9E6",
"$	c #9C9FAE",
"%	c #656A6D",
"&	c #6787C4",
"*	c #A7CCFF",
"=	c #9FBFEE",
"-	c #19366E",
";	c #8DB6EE",
">	c #A0CBFE",
",	c #9DBFEC",
"'	c #A2C0E6",
")	c #A2C0E4",
"!	c #A3C1E3",
"~	c #A2C0E2",
"{	c #A3C0E2",
"]	c #A4C1E3",
"^	c #A1BFE1",
"/	c #A1C0DF",
"(	c #394E79",
"_	c #315996",
":	c #7CB3F4",
"<	c #7FC4FF",
"[	c #7FCBFF",
"}	c #87D3FF",
"|	c #8AD7FF",
"1	c #A0EBFF",
"2	c #A0ECFF",
"3	c #A1EBFF",
"4	c #A6F0FF",
"5	c #A6EFFF",
"6	c #314D7C",
"7	c #09366F",
"8	c #4889C1",
"9	c #59A2D9",
"0	c #61ADDE",
"a	c #60ABD5",
"b	c #60ABD2",
"c	c #61ABCE",
"d	c #60ACD0",
"e	c #61ABD0",
"f	c #62ACCF",
"g	c #61ACCC",
"h	c #62ABCE",
"i	c #1C2A44",
"j	c #2C446A",
"k	c #18355F",
"l	c #0E2A52",
"m	c #0C284D",
"n	c #0B284A",
"o	c #0B2848",
"p	c #0B2846",
"q	c #092646",
"r	c #092644",
"s	c #0B2546",
".+@#$%                    ",
".+@#$%                    ",
".+@#$%                    ",
".+@#$%                    ",
".+@#$%                    ",
".+@#$%                    ",
".+@#$%                    ",
".+@#$%                    ",
".+@#$%                    ",
".+@#$%                    ",
".+@#$%                    ",
".+@#$%                    ",
".+@#$%                    ",
".+@#$%                    ",
".+@#$%                    ",
".+@#$%                    ",
".+@#$%                    ",
".+@#$%                    ",
".+@#$%                    ",
".+@#$%                    ",
".+@#$%                    ",
"&*=#$%                    ",
"-;>,'')!~{~~~]~^~!~!~{{~/{",
"(_:<[}|1233323322333233445",
" 67890abcccccccddeccfcccgh",
"  ijklmnooooooopoooooooqrs"};
