/* XPM */
static char * frameATL_xpm[] = {
"5 27 63 1",
" 	c None",
".	c #4C5B94",
"+	c #3E5090",
"@	c #98A7E2",
"#	c #4F5F90",
"$	c #6E7CAD",
"%	c #D4E0FE",
"&	c #D4DEFC",
"*	c #425283",
"=	c #D9E2FF",
"-	c #E4EBFE",
";	c #DEE5FC",
">	c #4B5D8F",
",	c #A0ADE1",
"'	c #EBF2FF",
")	c #D4DBFA",
"!	c #374778",
"~	c #DBE7FF",
"{	c #E5EBFF",
"]	c #D6DCF9",
"^	c #2E3C61",
"/	c #E7F4FE",
"(	c #DBE2FC",
"_	c #D4DBF9",
":	c #2A3757",
"<	c #E5EFFD",
"[	c #D5DCFA",
"}	c #D5DCF9",
"|	c #D7DDF9",
"1	c #283555",
"2	c #E7F1FE",
"3	c #D9DFF9",
"4	c #D5DBF9",
"5	c #273454",
"6	c #ECF7FF",
"7	c #DAE0F9",
"8	c #283353",
"9	c #EDF6FF",
"0	c #D5DBFA",
"a	c #273252",
"b	c #273250",
"c	c #EEF7FF",
"d	c #D8DFFB",
"e	c #27314C",
"f	c #27304D",
"g	c #EDF8FF",
"h	c #292F4F",
"i	c #D6DDF9",
"j	c #292F51",
"k	c #292E54",
"l	c #ECF5FF",
"m	c #263054",
"n	c #DBE0FA",
"o	c #223254",
"p	c #EBF6FF",
"q	c #EBF5FF",
"r	c #D6DDFB",
"s	c #D9E0FC",
"t	c #233154",
"u	c #E8F4FF",
"v	c #D8E1FC",
"w	c #D0D7F7",
"x	c #AEBAE2",
"     ",
"     ",
"     ",
"     ",
"    .",
"   +@",
" #$%&",
" *=-;",
">,'))",
"!~{)]",
"^/()_",
":<[}|",
"12[34",
"56)7)",
"8903}",
"89))_",
"a9))_",
"bcd)_",
"e6[)_",
"fg[)[",
"h6[)i",
"j6[)|",
"kl0)4",
"ml))n",
"opd)|",
"oqrrs",
"tuvwx"};
