/* XPM */
static char * maximizeO_xpm[] = {
"26 46 295 2",
"  	c None",
". 	c #1D327C",
"+ 	c #F3F5FA",
"@ 	c #F5F6FA",
"# 	c #627483",
"$ 	c #FCFCFC",
"% 	c #607380",
"& 	c #D6E6F3",
"* 	c #A8CCE6",
"= 	c #AACDE7",
"- 	c #ACCFE8",
"; 	c #AED0EB",
"> 	c #B0D4EC",
", 	c #B2D5ED",
"' 	c #B3D7EF",
") 	c #B6D9F0",
"! 	c #B8DAF1",
"~ 	c #B8DAF2",
"{ 	c #B9DBF2",
"] 	c #B7DBF3",
"^ 	c #B7D9F1",
"/ 	c #B5D7F0",
"( 	c #B4D5EE",
"_ 	c #B1D4EC",
": 	c #ACD0E8",
"< 	c #AACEE7",
"[ 	c #C3DEED",
"} 	c #5C707F",
"| 	c #576F7D",
"1 	c #7A8A9D",
"2 	c #535666",
"3 	c #7C8C9F",
"4 	c #526A7A",
"5 	c #D2E4F0",
"6 	c #A0C8E2",
"7 	c #A2C9E4",
"8 	c #A4CBE5",
"9 	c #A5CDE7",
"0 	c #A8CFE8",
"a 	c #AED4ED",
"b 	c #ABD2EC",
"c 	c #A9CFE9",
"d 	c #A6CDE7",
"e 	c #A5CBE5",
"f 	c #BFDAEA",
"g 	c #4E6477",
"h 	c #CFE2EF",
"i 	c #99C1DF",
"j 	c #9CC4DF",
"k 	c #9EC5E1",
"l 	c #A0C7E3",
"m 	c #A2CAE5",
"n 	c #A9CFEA",
"o 	c #A6CCE7",
"p 	c #A3CAE6",
"q 	c #A0C8E3",
"r 	c #9DC6E1",
"s 	c #BBD5E9",
"t 	c #466173",
"u 	c #C9DFEC",
"v 	c #8FBCD9",
"w 	c #91BDDA",
"x 	c #93C0DD",
"y 	c #95C1DF",
"z 	c #9AC6E0",
"A 	c #9FC9E6",
"B 	c #9CC7E4",
"C 	c #9AC6E1",
"D 	c #96C1DF",
"E 	c #96C1DD",
"F 	c #91BEDA",
"G 	c #B3D0E6",
"H 	c #3F5B6D",
"I 	c #C4DBEA",
"J 	c #86B4D4",
"K 	c #87B5D6",
"L 	c #8AB8D7",
"M 	c #8BB9DB",
"N 	c #90BCDC",
"O 	c #E9E9E9",
"P 	c #9AC8E4",
"Q 	c #9AC9E5",
"R 	c #99C7E5",
"S 	c #98C3E1",
"T 	c #94C1E0",
"U 	c #90BDDD",
"V 	c #8CBBDB",
"W 	c #8BB8D8",
"X 	c #ADCBE2",
"Y 	c #093250",
"Z 	c #8EB6D2",
"` 	c #1266A2",
" .	c #1569A5",
"..	c #186EA6",
"+.	c #1D72AC",
"@.	c #2477AE",
"#.	c #3688C0",
"$.	c #3689C1",
"%.	c #378AC1",
"&.	c #2F81B8",
"*.	c #2B7DB6",
"=.	c #2577B0",
"-.	c #1F73AD",
";.	c #1A6EA7",
">.	c #156AA5",
",.	c #5E96BF",
"'.	c #0B3351",
").	c #8FB7D3",
"!.	c #1468A3",
"~.	c #176AA6",
"{.	c #1C70A8",
"].	c #1E77AE",
"^.	c #227DB2",
"/.	c #E2E2E2",
"(.	c #2E86BC",
"_.	c #2B80B8",
":.	c #2679B2",
"<.	c #2174AE",
"[.	c #1E6FAA",
"}.	c #5F98C0",
"|.	c #0D3553",
"1.	c #90B8D4",
"2.	c #176BA4",
"3.	c #1A6CA8",
"4.	c #1E74AB",
"5.	c #207DB2",
"6.	c #2289B9",
"7.	c #DCDCDC",
"8.	c #2C91BF",
"9.	c #2B89BA",
"0.	c #297DB6",
"a.	c #2476AF",
"b.	c #2171AB",
"c.	c #1A6DA8",
"d.	c #629AC2",
"e.	c #113754",
"f.	c #94B9D5",
"g.	c #1E6FA9",
"h.	c #2273AB",
"i.	c #247CB1",
"j.	c #2587BA",
"k.	c #2794BE",
"l.	c #D7D7D7",
"m.	c #2F9AC6",
"n.	c #3090BF",
"o.	c #2E84BA",
"p.	c #2B7CB5",
"q.	c #2876B0",
"r.	c #2272AB",
"s.	c #669EC5",
"t.	c #153B59",
"u.	c #98BDD8",
"v.	c #2775AE",
"w.	c #297BB3",
"x.	c #2D87BA",
"y.	c #2B92C0",
"z.	c #2E9DC5",
"A.	c #437890",
"B.	c #447A92",
"C.	c #34A5CB",
"D.	c #3599C6",
"E.	c #338EC0",
"F.	c #3284BB",
"G.	c #307BB6",
"H.	c #2B79B2",
"I.	c #6DA2C9",
"J.	c #1B415E",
"K.	c #9CC1DB",
"L.	c #317DB5",
"M.	c #3286BC",
"N.	c #3592C2",
"O.	c #359CC8",
"P.	c #34A9CF",
"Q.	c #33B4D3",
"R.	c #32BDD8",
"S.	c #30C2DB",
"T.	c #2DC6DC",
"U.	c #2BCBDB",
"V.	c #2ACDDC",
"W.	c #32C3DC",
"X.	c #35C0D9",
"Y.	c #37B8D6",
"Z.	c #3AAFD3",
"`.	c #3CA4CF",
" +	c #3D98C8",
".+	c #3C8DC3",
"++	c #3A85BC",
"@+	c #3480B9",
"#+	c #74A7CD",
"$+	c #224763",
"%+	c #A1C5E1",
"&+	c #3B87BF",
"*+	c #3D8FC4",
"=+	c #3D9CC9",
"-+	c #3DA8D1",
";+	c #3AB5D6",
">+	c #3AC0DD",
",+	c #39C6DF",
"'+	c #37CEE2",
")+	c #32D4E4",
"!+	c #30D7E5",
"~+	c #30D8E5",
"{+	c #38CFE2",
"]+	c #3CC9E1",
"^+	c #3DC4E0",
"/+	c #42B9DB",
"(+	c #44AFD7",
"_+	c #45A3D2",
":+	c #4397CA",
"<+	c #418DC3",
"[+	c #3E88C0",
"}+	c #7BADD3",
"|+	c #2A4E69",
"1+	c #D2E8F2",
"2+	c #9DD6E9",
"3+	c #9BDEED",
"4+	c #97E4F0",
"5+	c #8EEBF4",
"6+	c #77F0F6",
"7+	c #3CF5F7",
"8+	c #26F8F8",
"9+	c #1DFBFA",
"0+	c #16FCFA",
"a+	c #10FDFB",
"b+	c #0AFEFB",
"c+	c #06FEFB",
"d+	c #17FBFA",
"e+	c #1FF9F9",
"f+	c #27F6F8",
"g+	c #3DF2F6",
"h+	c #79ECF4",
"i+	c #91E6F2",
"j+	c #97E0EE",
"k+	c #9BDAEB",
"l+	c #9DD3E8",
"m+	c #193446",
"n+	c #1A3A52",
"o+	c #193B53",
"p+	c #1A4055",
"q+	c #1A4557",
"r+	c #1C4D5B",
"s+	c #1B525E",
"t+	c #1A5661",
"u+	c #185A61",
"v+	c #185D62",
"w+	c #165F64",
"x+	c #146264",
"y+	c #146364",
"z+	c #166064",
"A+	c #195A61",
"B+	c #1B5862",
"C+	c #1D5460",
"D+	c #1E4F5D",
"E+	c #1E485B",
"F+	c #1E4358",
"G+	c #1D3F54",
"H+	c #1B3C53",
"I+	c #79D4FB",
"J+	c #71D2FB",
"K+	c #70D3FB",
"L+	c #6DD1FB",
"M+	c #6BD0FB",
"N+	c #69D1FC",
"O+	c #68D1FC",
"P+	c #68D0FC",
"Q+	c #67D0FC",
"R+	c #6AD1FC",
"S+	c #6CD2FC",
"T+	c #6FD3FC",
"U+	c #71D3FC",
"V+	c #73D4FC",
"W+	c #76D4FB",
"X+	c #7CD6FB",
"Y+	c #81D6FC",
"Z+	c #84D7FB",
"`+	c #8CD9FB",
" @	c #D7DCEF",
".@	c #D7DCF0",
"+@	c #D6DBEE",
"@@	c #D8DDF0",
"#@	c #D6DDEF",
"$@	c #D8DEEE",
"%@	c #DADDEE",
"&@	c #E0EAFF",
"*@	c #DFE8FF",
"=@	c #E0E9FF",
"-@	c #E1E8FF",
";@	c #E2E9FF",
">@	c #DFEBFF",
",@	c #E1EBFF",
"'@	c #ACBBE2",
")@	c #ADBCE3",
"!@	c #ACBCE0",
"~@	c #A9BBE1",
"{@	c #AABCE2",
". . . . . . . . . . . . . . . . . . . . . . . . . . ",
"+ + + + + + + + + + + + + + + + + + + + + + + + + @ ",
"# $ $ $ $ $ $ $ $ $ $ $ $ $ $ $ $ $ $ $ $ $ $ $ $ $ ",
"% & * = - ; > , ' ) ! ~ { { ] { { ~ ^ / ( _ ; : < [ ",
"} & * = - ; > , ' ) ! ~ { { ] { { ~ ^ / ( _ ; : < [ ",
"| & * = - ; > 1 2 2 2 2 2 2 2 2 2 2 3 / ( _ ; : < [ ",
"4 5 6 7 8 9 0 2 $ $ $ $ $ $ $ $ $ $ 2 a b c d e 7 f ",
"g h i j k l m 2 $ $ $ $ $ $ $ $ $ $ 2 n o p q r j s ",
"t u v w x y z 2 $ $ 2 2 2 2 2 2 $ $ 2 A B C D E F G ",
"H I J K L M N 2 O O 2 P Q Q R 2 O O 2 S T U V W K X ",
"Y Z `  ...+.@.2 O O 2 #.$.$.%.2 O O 2 &.*.=.-.;.>.,.",
"'.).!.~.{.].^.2 /./.2 2 2 2 2 2 /./.2 (._.:.<.[.~.}.",
"|.1.2.3.4.5.6.2 7.7.7.7.7.7.7.7.7.7.2 8.9.0.a.b.c.d.",
"e.f.g.h.i.j.k.2 l.l.l.l.l.l.l.l.l.l.2 m.n.o.p.q.r.s.",
"t.u.v.w.x.y.z.A.2 2 2 2 2 2 2 2 2 2 B.C.D.E.F.G.H.I.",
"J.K.L.M.N.O.P.Q.R.S.T.U.V.V.U.T.W.X.Y.Z.`. +.+++@+#+",
"$+%+&+*+=+-+;+>+,+'+)+!+~+~+!+)+{+]+^+/+(+_+:+<+[+}+",
"|+1+2+3+4+5+6+7+8+9+0+a+b+b+c+b+a+d+e+f+g+h+i+j+k+l+",
"m+n+o+p+q+r+s+t+u+v+w+x+y+y+x+z+v+A+B+C+D+E+F+G+H+n+",
"I+J+K+L+M+N+O+P+Q+Q+Q+Q+Q+P+O+N+R+S+T+U+V+W+X+Y+Z+`+",
" @ @.@.@.@.@ @ @ @ @ @+@ @ @ @ @@@@@#@#@#@@@@@@@$@%@",
"&@&@&@*@=@=@&@-@;@&@&@&@&@&@&@&@&@&@&@>@>@&@&@&@,@&@",
"'@'@'@'@'@'@'@'@'@)@'@!@!@'@'@'@'@'@'@'@'@'@'@~@{@'@",
". . . . . . . . . . . . . . . . . . . . . . . . . . ",
"+ + + + + + + + + + + + + + + + + + + + + + + + + @ ",
"# $ $ $ $ $ $ $ $ $ $ $ $ $ $ $ $ $ $ $ $ $ $ $ $ $ ",
"% & * = - ; > , ' ) ! ~ { { ] { { ~ ^ / ( _ ; : < [ ",
"} & * = - ; > , ' ) ! ~ { { ] { { ~ ^ / ( _ ; : < [ ",
"| & * = - ; > 1 2 2 2 2 2 2 2 2 2 2 3 / ( _ ; : < [ ",
"4 5 6 7 8 9 0 2 $ $ $ $ $ $ $ $ $ $ 2 a b c d e 7 f ",
"g h i j k l m 2 $ $ $ $ $ $ $ $ $ $ 2 n o p q r j s ",
"t u v w x y z 2 $ $ 2 2 2 2 2 2 $ $ 2 A B C D E F G ",
"H I J K L M N 2 O O 2 P Q Q R 2 O O 2 S T U V W K X ",
"Y Z `  ...+.@.2 O O 2 #.$.$.%.2 O O 2 &.*.=.-.;.>.,.",
"'.).!.~.{.].^.2 /./.2 2 2 2 2 2 /./.2 (._.:.<.[.~.}.",
"|.1.2.3.4.5.6.2 7.7.7.7.7.7.7.7.7.7.2 8.9.0.a.b.c.d.",
"e.f.g.h.i.j.k.2 l.l.l.l.l.l.l.l.l.l.2 m.n.o.p.q.r.s.",
"t.u.v.w.x.y.z.A.2 2 2 2 2 2 2 2 2 2 B.C.D.E.F.G.H.I.",
"J.K.L.M.N.O.P.Q.R.S.T.U.V.V.U.T.W.X.Y.Z.`. +.+++@+#+",
"$+%+&+*+=+-+;+>+,+'+)+!+~+~+!+)+{+]+^+/+(+_+:+<+[+}+",
"|+1+2+3+4+5+6+7+8+9+0+a+b+b+c+b+a+d+e+f+g+h+i+j+k+l+",
"m+n+o+p+q+r+s+t+u+v+w+x+y+y+x+z+v+A+B+C+D+E+F+G+H+n+",
"I+J+K+L+M+N+O+P+Q+Q+Q+Q+Q+P+O+N+R+S+T+U+V+W+X+Y+Z+`+",
" @ @.@.@.@.@ @ @ @ @ @+@ @ @ @ @@@@@#@#@#@@@@@@@$@%@",
"&@&@&@*@=@=@&@-@;@&@&@&@&@&@&@&@&@&@&@>@>@&@&@&@,@&@",
"'@'@'@'@'@'@'@'@'@)@'@!@!@'@'@'@'@'@'@'@'@'@'@~@{@'@"};
