/* XPM */
static char * menuButtonI_xpm[] = {
"13 38 73 1",
" 	c None",
".	c #000000",
"+	c #FFFFFF",
"@	c #B2D1E5",
"#	c #ACCFE7",
"$	c #ABCFE7",
"%	c #ADD1E8",
"&	c #AACFE7",
"*	c #AACFE8",
"=	c #ADD0E7",
"-	c #A5CCE3",
";	c #9EC6E0",
">	c #96C1DC",
",	c #8CB9D7",
"'	c #91B6D0",
")	c #649EC7",
"!	c #669FC7",
"~	c #6BA1C7",
"{	c #1C6FA5",
"]	c #2D77AC",
"^	c #2372AA",
"/	c #2070A8",
"(	c #2A77AE",
"_	c #3188BB",
":	c #3188BA",
"<	c #3087BA",
"[	c #3087B9",
"}	c #2F85B8",
"|	c #2E84B7",
"1	c #2D82B6",
"2	c #317CB4",
"3	c #3B95C5",
"4	c #3B96C5",
"5	c #3C96C5",
"6	c #3B95C4",
"7	c #3992C3",
"8	c #3791C1",
"9	c #3C85BB",
"0	c #3F9AC9",
"a	c #3F9BC9",
"b	c #438EC2",
"c	c #97E0ED",
"d	c #3F91BD",
"e	c #3B94C4",
"f	c #3D98C7",
"g	c #3E99C8",
"h	c #B4D4EA",
"i	c #B2D4EB",
"j	c #A4CAE4",
"k	c #9BC6E0",
"l	c #91BEDC",
"m	c #7DA3BE",
"n	c #2B76AB",
"o	c #2C77AC",
"p	c #2778AE",
"q	c #287AB0",
"r	c #2B7EB4",
"s	c #2C81B5",
"t	c #2E83B7",
"u	c #3085B9",
"v	c #3086B9",
"w	c #3189BB",
"x	c #358EBF",
"y	c #3C96C6",
"z	c #3D97C6",
"A	c #3E98C7",
"B	c #3E98C6",
"C	c #3D97C7",
"D	c #3E98C8",
"E	c #3F99C8",
"F	c #47A4D1",
"G	c #79ECF3",
"H	c #828282",
".............",
"+++++++++++++",
"@#$$$$$$$$$$%",
"&***********=",
"************=",
"************=",
"++******++**-",
"+++****++++*;",
"++++**+++++*>",
"++++++++++**,",
"'++++++++)!~{",
"]^++++++^^^^/",
"^^^++++^^^^^^",
"^^^^++^^^^^^(",
"_:<<[}|111|<2",
"3344455556789",
"0aaaaaaaaaaab",
"00000000000ac",
"de333eeee5fga",
".............",
"+++++++++++++",
"&&&&&&&&&&&&h",
"************i",
"************i",
"************i",
"++******++***",
"+++****++++*j",
"++++**+++++*k",
"++++++++++&&l",
"m++++++++n]op",
"]^++++++^^^^q",
"^^^++++^^^^^r",
"s111++1111t}u",
"tttttttttv_wx",
"yyyyyyyyzfAAB",
"CCCCCCCCDgEEF",
"CCCCCCCCgEEEG",
"HHHHHHHHHHHHH"};
