/* XPM */
static char * menubg_xpm[] = {
"297 1 7 1",
" 	c None",
".	c #BDBDBF",
"+	c #FFFFFF",
"@	c #ECECEC",
"#	c #ECECEE",
"$	c #E2E2E2",
"%	c #F5F5F5",
".+@@@@@@@@@##@@@@@@@@@@@@@@@@@$+%%%%%%%%%%%%%%%%%%%%%%%%%%%%%%%%%%%%%%%%%%%%%%%%%%%%%%%%%%%%%%%%%%%%%%%%%%%%%%%%%%%%%%%%%%%%%%%%%%%%%%%%%%%%%%%%%%%%%%%%%%%%%%%%%%%%%%%%%%%%%%%%%%%%%%%%%%%%%%%%%%%%%%%%%%%%%%%%%%%%%%%%%%%%%%%%%%%%%%%%%%%%%%%%%%%%%%%%%%%%%%%%%%%%%%%%%%%%%%%%%%%%%%%%%%%%%%%%%%%%%%%%+"};
