/* XPM */
static char * menusep_xpm[] = {
"297 2 142 2",
"  	c None",
". 	c #BDBDBF",
"+ 	c #FFFFFF",
"@ 	c #ECECEC",
"# 	c #EBEBEB",
"$ 	c #EAEAEA",
"% 	c #E9E9E9",
"& 	c #EAE8E9",
"* 	c #E8E8E8",
"= 	c #E7E7E7",
"- 	c #E7E9E8",
"; 	c #E6E8E7",
"> 	c #E6E6E6",
", 	c #E6E6E8",
"' 	c #E4E6E5",
") 	c #E3E5E4",
"! 	c #E4E4E6",
"~ 	c #E2E3E5",
"{ 	c #E2E2E4",
"] 	c #D9D9DB",
"^ 	c #F2F4F3",
"/ 	c #E8EAE9",
"( 	c #E9E9EB",
"_ 	c #E7E7E9",
": 	c #E5E6E8",
"< 	c #E3E4E6",
"[ 	c #E5E5E7",
"} 	c #E1E2E4",
"| 	c #E1E1E3",
"1 	c #E0E0E2",
"2 	c #DFE0E2",
"3 	c #DEDFE1",
"4 	c #DEDEE0",
"5 	c #DCDDDF",
"6 	c #DBDCDE",
"7 	c #DADBDD",
"8 	c #D9DADC",
"9 	c #DADADC",
"0 	c #D7D8DA",
"a 	c #D8D8DA",
"b 	c #D6D6D8",
"c 	c #D5D6D8",
"d 	c #D4D5D7",
"e 	c #D5D5D7",
"f 	c #D4D4D6",
"g 	c #D2D3D5",
"h 	c #D1D2D4",
"i 	c #D0D1D5",
"j 	c #CFD0D2",
"k 	c #CECFD3",
"l 	c #CFD0D4",
"m 	c #CECFD1",
"n 	c #CDCED2",
"o 	c #CDCED0",
"p 	c #CCCDD1",
"q 	c #CBCCCE",
"r 	c #CBCCD0",
"s 	c #CACBCD",
"t 	c #C9CACE",
"u 	c #C9CACC",
"v 	c #C8C9CD",
"w 	c #C8C9CB",
"x 	c #C7C8CC",
"y 	c #C6C7C9",
"z 	c #C6C7CB",
"A 	c #C5C6C8",
"B 	c #C4C5C9",
"C 	c #C4C5C7",
"D 	c #C3C4C8",
"E 	c #C3C4C6",
"F 	c #C2C3C5",
"G 	c #C2C3C7",
"H 	c #C1C2C4",
"I 	c #C1C2C6",
"J 	c #C0C1C5",
"K 	c #BFC0C4",
"L 	c #BEBFC3",
"M 	c #BDBEC2",
"N 	c #BCBDC1",
"O 	c #BBBCC0",
"P 	c #BABBBF",
"Q 	c #B9BABE",
"R 	c #B8B9BD",
"S 	c #B7B8BC",
"T 	c #C0C1C3",
"U 	c #C5C6CA",
"V 	c #CACBCF",
"W 	c #CCCDCF",
"X 	c #D0D1D3",
"Y 	c #D2D2D4",
"Z 	c #D3D3D5",
"` 	c #D3D4D6",
" .	c #D7D7D9",
"..	c #D6D7D9",
"+.	c #D8D9DB",
"@.	c #DBDBDD",
"#.	c #DCDCDE",
"$.	c #DDDDDF",
"%.	c #E0E1E3",
"&.	c #E8E8EA",
"*.	c #EAEAEC",
"=.	c #EDEDED",
"-.	c #EEEEEE",
";.	c #EFEFEF",
">.	c #F0F0F0",
",.	c #F1F1F1",
"'.	c #F2F2F2",
").	c #F3F3F3",
"!.	c #F4F4F4",
"~.	c #F5F5F5",
"{.	c #E6E4E5",
"].	c #E4E4E4",
"^.	c #E3E3E3",
"/.	c #E2E4E3",
"(.	c #E0E2E1",
"_.	c #E0E0E0",
":.	c #DFDFE1",
"<.	c #DCDEDD",
"[.	c #DBDDDC",
"}.	c #D1D1D3",
"|.	c #DDDFDE",
"1.	c #DADCDB",
"2.	c #CECED0",
"3.	c #C9C9CB",
"4.	c #C8C8CA",
"5.	c #C7C7C9",
"6.	c #C6C6C8",
"7.	c #C5C5C7",
"8.	c #C4C4C6",
"9.	c #BFC0C2",
"0.	c #BEBFC1",
"a.	c #BDBEC0",
"b.	c #BCBDBF",
"c.	c #BBBCBE",
"d.	c #BABBBD",
"e.	c #B9BABC",
"f.	c #C3C3C5",
"g.	c #C7C8CA",
"h.	c #CCCCCE",
"i.	c #D0D0D2",
"j.	c #E1E1E1",
"k.	c #E5E5E5",
". + @ # # # # $ $ % % & & * = - ; > > , , , , ' ) ! ! ~ ~ { ] ^ / ( ( - / _ _ : < [ ! < ~ { { } } | 1 2 3 4 4 5 5 6 7 7 8 9 9 0 0 a b c d e f g g h h i j k j l m n o p q r s t u v w v w x y z A B C D E D F G H I J J J J K L M M M M M N N O O P P P P P Q Q Q R R R R R S S S S S S S S S S S S S S S S S S S S S S S S S S S S S R R R Q Q P P P P P P O O N N N M M L L K K K J J T I H G F D E D C U A U y x w v w v u V q r W n o n m k j l X h h Y Z ` ` e e c c b  ...0 +.+.7 8 @.#.6 5 4 $.3 3 1 1 %.} ~ ~ ! ! [ , , [ , &.&.&.( ( ( *.*.*.% # @ =.=.=.=.-.-.;.;.;.>.>.,.,.,.'.'.'.).).).!.!.!.!.~.~.+ ",
". + @ $ % * = > > > > {.{.].^./.(._._.:.:.$.$.<.[.#.9 +.0 a }.- |.4 #.1.1.] ] 0 .. .b c d f Z g g Y }.j m 2.2.W W q s s w 3.4.y y 5.6.C C 7.8.E E F F I T J T J 9.L 0.L a.M b.N a.O b.N b.O c.O c.P d.P d.Q e.Q e.Q Q Q Q Q Q R R R R Q Q Q Q Q Q Q Q Q Q Q Q R R R R R R R R R R R R R R R R R R R R R R R R R R R R R R R R R R R R R R R Q Q Q Q Q Q Q Q Q Q Q Q Q R R R R Q Q Q Q Q e.Q e.P d.P d.P c.O c.O c.N a.N b.N b.M a.L 0.L 0.K 9.J H I H F E f.8.C C 6.6.y y 5.4.g.w u u s s h.2.o m }.i.X X Y Z ` ` d d b b  .] ] ] 9 #.#.#.$.4 :.1 1 { j.^.].k.> = = * * % $ # $ # @ =.=.-.-.;.,.,.'.).'.).).!.~.+ "};
