/* XPM */
static char * minimizeI_xpm[] = {
"26 46 130 2",
"  	c None",
". 	c #1C2542",
"+ 	c #1D2643",
"@ 	c #1D2742",
"# 	c #1F2643",
"$ 	c #1C2743",
"% 	c #1C2745",
"& 	c #1D2645",
"* 	c #E2ECFF",
"= 	c #E3ECFF",
"- 	c #E2EDFF",
"; 	c #E3EBFF",
"> 	c #EAF0FF",
", 	c #1C2134",
"' 	c #F6FBFF",
") 	c #F5FCFF",
"! 	c #F5FBFF",
"~ 	c #F4FAFF",
"{ 	c #F7FCFF",
"] 	c #EBF1FF",
"^ 	c #525662",
"/ 	c #E2E6F2",
"( 	c #D1D7E7",
"_ 	c #D0D7E9",
": 	c #D1D6E9",
"< 	c #DDE3F1",
"[ 	c #ECF2FF",
"} 	c #525564",
"| 	c #E0E6F6",
"1 	c #D0D6EC",
"2 	c #CFD6F0",
"3 	c #CFD7EE",
"4 	c #CFD6F2",
"5 	c #DDE2F5",
"6 	c #EBF2FF",
"7 	c #E0E5F8",
"8 	c #CDD6F3",
"9 	c #CDD7F2",
"0 	c #CDD6F5",
"a 	c #DCE3F6",
"b 	c #EAF1FF",
"c 	c #CCD7F3",
"d 	c #CFD6F3",
"e 	c #CDD8F4",
"f 	c #CDD7F0",
"g 	c #CED7F4",
"h 	c #D0D7F3",
"i 	c #D0D6F0",
"j 	c #D0D6EE",
"k 	c #CED5EF",
"l 	c #DCE2F8",
"m 	c #848AA0",
"n 	c #535667",
"o 	c #535763",
"p 	c #535665",
"q 	c #525566",
"r 	c #DFE4F7",
"s 	c #CED8F3",
"t 	c #505769",
"u 	c #FCFFFF",
"v 	c #FEFFFF",
"w 	c #FEFEFF",
"x 	c #FCFEFF",
"y 	c #51566A",
"z 	c #515767",
"A 	c #DBDBE3",
"B 	c #DCDCDE",
"C 	c #515669",
"D 	c #CCD5F2",
"E 	c #4F5565",
"F 	c #E1E6F9",
"G 	c #D4D6E2",
"H 	c #D6D7DC",
"I 	c #D7D6DC",
"J 	c #575D6D",
"K 	c #DADFF2",
"L 	c #838BA2",
"M 	c #535669",
"N 	c #646A78",
"O 	c #CFD5E5",
"P 	c #D3D9EF",
"Q 	c #CCD6F1",
"R 	c #E4EBFD",
"S 	c #8F95A1",
"T 	c #9DA1AD",
"U 	c #DEE4F4",
"V 	c #D3DAED",
"W 	c #CFD7EC",
"X 	c #CDD8EC",
"Y 	c #CED6EB",
"Z 	c #D7DEF1",
"` 	c #D5DBE9",
" .	c #565A66",
"..	c #8F95A3",
"+.	c #CAD0DE",
"@.	c #E2E7FA",
"#.	c #DFE6F8",
"$.	c #DEE5F8",
"%.	c #DFE6F9",
"&.	c #DEE7F8",
"*.	c #D6DEF5",
"=.	c #D4D9ED",
"-.	c #DFE5F5",
";.	c #979DAB",
">.	c #696F7B",
",.	c #505662",
"'.	c #4F5561",
").	c #515763",
"!.	c #505664",
"~.	c #D7DDF5",
"{.	c #D9DEF2",
"].	c #E6ECFC",
"^.	c #EBF1FD",
"/.	c #EDF1FD",
"(.	c #EDF0FF",
"_.	c #DBE0F6",
":.	c #D9E0F3",
"<.	c #D9DEF1",
"[.	c #D8DFF1",
"}.	c #D8DDF0",
"|.	c #D7DEF0",
"1.	c #D7DCEF",
"2.	c #D5DCEE",
"3.	c #E3EAFF",
"4.	c #E1EBFF",
"5.	c #E4EBFF",
"6.	c #E0EAFF",
"7.	c #ACBCE0",
"8.	c #ACBBE2",
"9.	c #AABCE2",
". + + @ @ # # # # + @ $ $ + + $ $ + + $ $ $ $ $ % & ",
"* = = = - ; = ; = ; = ; - ; = ; = ; = ; = ; = ; - = ",
"> , ' ) ) ' ' ! ) ' ) ! ) ' ) ! ) ' ' ~ ) ' ' ! ) { ",
"] ^ / ( _ : : _ _ : : _ _ : : _ : : : : : : : : ( < ",
"[ } | 1 2 3 3 3 3 2 2 2 2 2 2 3 2 2 4 2 2 4 4 2 3 5 ",
"6 } 7 2 8 9 9 9 9 8 8 8 8 8 8 9 8 8 0 8 8 0 0 8 2 a ",
"b } | 2 8 8 8 8 8 0 0 8 8 8 8 c c 8 8 d d 0 0 e f a ",
"b } | 2 8 8 8 8 8 0 0 8 8 8 8 c c 8 8 d d 0 0 c f a ",
"b } 7 2 8 g 8 8 8 d d 0 0 8 8 8 8 8 8 8 8 8 8 8 2 a ",
"6 } 7 2 8 8 g 9 h i j i 2 3 3 3 3 3 2 4 9 8 8 8 k l ",
"b } 7 2 8 8 9 2 m n o o o p p o o p n m 2 9 8 8 2 l ",
"b q r 2 g 8 s 2 t u v v v w w v v w x y 2 9 8 8 2 l ",
"b q 7 2 8 8 9 3 z A B B B B B B B B A C 3 9 D 8 2 l ",
"b E F 2 8 8 9 2 C G H H H H H H H I G C 2 9 8 8 2 l ",
"b J K j 4 8 8 9 L y C z z C C z z M y L 9 8 8 8 2 l ",
"b N O P 2 4 Q f 2 j j 1 1 j j 1 1 j 3 2 f 9 9 9 2 a ",
"R S T U V 1 3 3 3 j j W W j j W W 1 W W X 3 2 3 Y a ",
"Z `  ...+.@.#.#.$.%.%.%.#.%.%.%.#.#.#.&.&.%.%.%.#.| ",
"*.=.-.;.>.,.'.).'.!.!.,.,.!.,.,.,.,.,.,.,.,.,.,.,.^ ",
"*.~.{.].] ] ^./.^.(.] /./././././.(./././.(./././.(.",
"_.:.:.K K K K K K <.<.<.[.}.|.}.|.}.|.}.|.1.|.1.2.1.",
"3.4.4.3.3.4.4.3.3.5.3.4.4.4.6.6.6.6.6.6.6.6.6.6.6.6.",
"7.8.7.8.7.8.7.8.7.8.8.8.8.8.7.8.7.8.8.8.8.9.9.8.8.8.",
". + + @ @ # # # # + @ $ $ + + $ $ + + $ $ $ $ $ % & ",
"* = = = - ; = ; = ; = ; - ; = ; = ; = ; = ; = ; - = ",
"> , ' ) ) ' ' ! ) ' ) ! ) ' ) ! ) ' ' ~ ) ' ' ! ) { ",
"] ^ / ( _ : : _ _ : : _ _ : : _ : : : : : : : : ( < ",
"[ } | 1 2 3 3 3 3 2 2 2 2 2 2 3 2 2 4 2 2 4 4 2 3 5 ",
"6 } 7 2 8 9 9 9 9 8 8 8 8 8 8 9 8 8 0 8 8 0 0 8 2 a ",
"b } | 2 8 8 8 8 8 0 0 8 8 8 8 c c 8 8 d d 0 0 e f a ",
"b } | 2 8 8 8 8 8 0 0 8 8 8 8 c c 8 8 d d 0 0 c f a ",
"b } 7 2 8 g 8 8 8 d d 0 0 8 8 8 8 8 8 8 8 8 8 8 2 a ",
"6 } 7 2 8 8 g 9 h i j i 2 3 3 3 3 3 2 4 9 8 8 8 k l ",
"b } 7 2 8 8 9 2 m n o o o p p o o p n m 2 9 8 8 2 l ",
"b q r 2 g 8 s 2 t u v v v w w v v w x y 2 9 8 8 2 l ",
"b q 7 2 8 8 9 3 z A B B B B B B B B A C 3 9 D 8 2 l ",
"b E F 2 8 8 9 2 C G H H H H H H H I G C 2 9 8 8 2 l ",
"b J K j 4 8 8 9 L y C z z C C z z M y L 9 8 8 8 2 l ",
"b N O P 2 4 Q f 2 j j 1 1 j j 1 1 j 3 2 f 9 9 9 2 a ",
"R S T U V 1 3 3 3 j j W W j j W W 1 W W X 3 2 3 Y a ",
"Z `  ...+.@.#.#.$.%.%.%.#.%.%.%.#.#.#.&.&.%.%.%.#.| ",
"*.=.-.;.>.,.'.).'.!.!.,.,.!.,.,.,.,.,.,.,.,.,.,.,.^ ",
"*.~.{.].] ] ^./.^.(.] /./././././.(./././.(./././.(.",
"_.:.:.K K K K K K <.<.<.[.}.|.}.|.}.|.}.|.1.|.1.2.1.",
"3.4.4.3.3.4.4.3.3.5.3.4.4.4.6.6.6.6.6.6.6.6.6.6.6.6.",
"7.8.7.8.7.8.7.8.7.8.8.8.8.8.7.8.7.8.8.8.8.9.9.8.8.8."};
