/* XPM */
static char * restoreI_xpm[] = {
"26 46 74 1",
" 	c None",
".	c #293357",
"+	c #1D2645",
"@	c #1C2546",
"#	c #1F2547",
"$	c #1E2444",
"%	c #1F2545",
"&	c #1C2743",
"*	c #1D2643",
"=	c #1C2745",
"-	c #1F2643",
";	c #EBF4FF",
">	c #E3ECFF",
",	c #E3EBFF",
"'	c #E2EDFF",
")	c #E2ECFF",
"!	c #E4ECFF",
"~	c #E3EEFF",
"{	c #E4EDFF",
"]	c #E6EFFF",
"^	c #8B8E9D",
"/	c #F6FBFF",
"(	c #F5FBFF",
"_	c #F5FCFF",
":	c #F4FCFF",
"<	c #F6FDFF",
"[	c #F7FCFF",
"}	c #8C8D92",
"|	c #E7EAF9",
"1	c #D1D7E5",
"2	c #D1D7E7",
"3	c #D1D6E9",
"4	c #D0D7E9",
"5	c #D0D7E7",
"6	c #DDE3F1",
"7	c #7B8091",
"8	c #E7EBF8",
"9	c #CDD6F2",
"0	c #858B9F",
"a	c #535666",
"b	c #DDE3F6",
"c	c #FCFCFC",
"d	c #999AA4",
"e	c #E9E9E9",
"f	c #E2E2E2",
"g	c #DCDCDC",
"h	c #D7D7D7",
"i	c #F0F3FB",
"j	c #E1E6F7",
"k	c #525661",
"l	c #EDF1FD",
"m	c #EEF0FD",
"n	c #EBF1FD",
"o	c #EEF0FC",
"p	c #F4EEF8",
"q	c #D7DCEF",
"r	c #D7DCF0",
"s	c #D6DBEE",
"t	c #D8DDF0",
"u	c #D6DDEF",
"v	c #D8DEEE",
"w	c #DADDEE",
"x	c #E0EAFF",
"y	c #DFE8FF",
"z	c #E0E9FF",
"A	c #E1E8FF",
"B	c #E2E9FF",
"C	c #DFEBFF",
"D	c #E1EBFF",
"E	c #ACBBE2",
"F	c #ADBCE3",
"G	c #ACBCE0",
"H	c #A9BBE1",
"I	c #AABCE2",
".+@#$++%+&&**======++**%%-",
";>>,,,',>)',>)',>,',>!~!{]",
"^///((_/_(_(_::(_(_/_(</[/",
"}|123432222225522223344326",
"7899999990aaaaaaaa0999999b",
"789999999acccccccca999999b",
"78999990aaaaaaaadca999999b",
"7899999accccccccaca999999b",
"7899999accccccccaea999999b",
"7899999accaaaaccaea999999b",
"7899999aeeaccaeeafa999999b",
"7899999aeeaccaeeaga999999b",
"7899999affaaaaffaha999999b",
"7899999aggggggggaa0999999b",
"7899999ahhhhhhhha99999999b",
"78999990aaaaaaaa099999999b",
"7899999999999999999999999b",
"7ijjjjjjjjjjjjjjjjjjjjjjjj",
"kkkkkkkkkkkkkkkkkkkkkkkkkk",
"lllllmmlllllllllllllnlllop",
"qqrrrrqqqqqsqqqqttuuutttvw",
"xxxyzzxABxxxxxxxxxxCCxxxDx",
"EEEEEEEEEFEGGEEEEEEEEEEHIE",
".+@#$++%+&&**======++**%%-",
";>>,,,',>)',>)',>,',>!~!{]",
"^///((_/_(_(_::(_(_/_(</[/",
"}|123432222225522223344326",
"7899999990aaaaaaaa0999999b",
"789999999acccccccca999999b",
"78999990aaaaaaaadca999999b",
"7899999accccccccaca999999b",
"7899999accccccccaea999999b",
"7899999accaaaaccaea999999b",
"7899999aeeaccaeeafa999999b",
"7899999aeeaccaeeaga999999b",
"7899999affaaaaffaha999999b",
"7899999aggggggggaa0999999b",
"7899999ahhhhhhhha99999999b",
"78999990aaaaaaaa099999999b",
"7899999999999999999999999b",
"7ijjjjjjjjjjjjjjjjjjjjjjjj",
"kkkkkkkkkkkkkkkkkkkkkkkkkk",
"lllllmmlllllllllllllnlllop",
"qqrrrrqqqqqsqqqqttuuutttvw",
"xxxyzzxABxxxxxxxxxxCCxxxDx",
"EEEEEEEEEFEGGEEEEEEEEEEHIE"};
