/* XPM */
static char * restoreO_xpm[] = {
"26 46 313 2",
"  	c None",
". 	c #293357",
"+ 	c #2A3257",
"@ 	c #293356",
"# 	c #273456",
"$ 	c #2A3457",
"% 	c #2A3354",
"& 	c #293454",
"* 	c #2A3256",
"= 	c #EBF4FF",
"- 	c #EAF5FF",
"; 	c #EAF3FF",
"> 	c #ECF5FF",
", 	c #EDF4FF",
"' 	c #EFF4FF",
") 	c #3E505C",
"! 	c #CBE3F0",
"~ 	c #A8CFE7",
"{ 	c #ABD0E8",
"] 	c #ABD2EB",
"^ 	c #AED2EC",
"/ 	c #AFD6EE",
"( 	c #B2D6F0",
"_ 	c #B5D8F1",
": 	c #B6D9F2",
"< 	c #B8DAF2",
"[ 	c #B7DBF3",
"} 	c #B9DBF3",
"| 	c #B8DBF3",
"1 	c #B7DAF2",
"2 	c #B5D7F0",
"3 	c #B1D5EF",
"4 	c #AFD6ED",
"5 	c #ADD3EC",
"6 	c #5C707F",
"7 	c #D6E6F3",
"8 	c #A8CCE6",
"9 	c #AACDE7",
"0 	c #ACCFE8",
"a 	c #AED0EB",
"b 	c #B0D4EC",
"c 	c #B2D5ED",
"d 	c #B3D7EF",
"e 	c #7C8C9E",
"f 	c #535666",
"g 	c #7C8C9F",
"h 	c #B4D5EE",
"i 	c #B1D4EC",
"j 	c #ACD0E8",
"k 	c #576F7D",
"l 	c #FCFCFC",
"m 	c #AACEE7",
"n 	c #C3DEED",
"o 	c #526A7A",
"p 	c #D2E4F0",
"q 	c #A0C8E2",
"r 	c #A2C9E4",
"s 	c #A4CBE5",
"t 	c #A5CDE7",
"u 	c #A8CFE8",
"v 	c #77899C",
"w 	c #999AA4",
"x 	c #AED4ED",
"y 	c #ABD2EC",
"z 	c #A9CFE9",
"A 	c #A6CDE7",
"B 	c #A5CBE5",
"C 	c #BFDAEA",
"D 	c #4E6477",
"E 	c #CFE2EF",
"F 	c #99C1DF",
"G 	c #9CC4DF",
"H 	c #9EC5E1",
"I 	c #A0C7E3",
"J 	c #A2CAE5",
"K 	c #A9CFEA",
"L 	c #A6CCE7",
"M 	c #A3CAE6",
"N 	c #A0C8E3",
"O 	c #9DC6E1",
"P 	c #BBD5E9",
"Q 	c #466173",
"R 	c #C9DFEC",
"S 	c #8FBCD9",
"T 	c #91BDDA",
"U 	c #93C0DD",
"V 	c #95C1DF",
"W 	c #9AC6E0",
"X 	c #E9E9E9",
"Y 	c #9FC9E6",
"Z 	c #9CC7E4",
"` 	c #9AC6E1",
" .	c #96C1DF",
"..	c #96C1DD",
"+.	c #91BEDA",
"@.	c #B3D0E6",
"#.	c #3F5B6D",
"$.	c #C4DBEA",
"%.	c #86B4D4",
"&.	c #87B5D6",
"*.	c #8AB8D7",
"=.	c #8BB9DB",
"-.	c #90BCDC",
";.	c #98C3E1",
">.	c #94C1E0",
",.	c #90BDDD",
"'.	c #8CBBDB",
").	c #8BB8D8",
"!.	c #ADCBE2",
"~.	c #093250",
"{.	c #8EB6D2",
"].	c #1266A2",
"^.	c #1569A5",
"/.	c #186EA6",
"(.	c #1D72AC",
"_.	c #2477AE",
":.	c #E2E2E2",
"<.	c #2F81B8",
"[.	c #2B7DB6",
"}.	c #2577B0",
"|.	c #1F73AD",
"1.	c #1A6EA7",
"2.	c #156AA5",
"3.	c #5E96BF",
"4.	c #0B3351",
"5.	c #8FB7D3",
"6.	c #1468A3",
"7.	c #176AA6",
"8.	c #1C70A8",
"9.	c #1E77AE",
"0.	c #227DB2",
"a.	c #DCDCDC",
"b.	c #2E86BC",
"c.	c #2B80B8",
"d.	c #2679B2",
"e.	c #2174AE",
"f.	c #1E6FAA",
"g.	c #5F98C0",
"h.	c #0D3553",
"i.	c #90B8D4",
"j.	c #176BA4",
"k.	c #1A6CA8",
"l.	c #1E74AB",
"m.	c #207DB2",
"n.	c #2289B9",
"o.	c #D7D7D7",
"p.	c #2C91BF",
"q.	c #2B89BA",
"r.	c #297DB6",
"s.	c #2476AF",
"t.	c #2171AB",
"u.	c #1A6DA8",
"v.	c #629AC2",
"w.	c #113754",
"x.	c #94B9D5",
"y.	c #1E6FA9",
"z.	c #2273AB",
"A.	c #247CB1",
"B.	c #2587BA",
"C.	c #2794BE",
"D.	c #43758D",
"E.	c #2F9AC6",
"F.	c #3090BF",
"G.	c #2E84BA",
"H.	c #2B7CB5",
"I.	c #2876B0",
"J.	c #2272AB",
"K.	c #669EC5",
"L.	c #153B59",
"M.	c #98BDD8",
"N.	c #2775AE",
"O.	c #297BB3",
"P.	c #2D87BA",
"Q.	c #2B92C0",
"R.	c #2E9DC5",
"S.	c #2EB4D2",
"T.	c #2FAED0",
"U.	c #34A5CB",
"V.	c #3599C6",
"W.	c #338EC0",
"X.	c #3284BB",
"Y.	c #307BB6",
"Z.	c #2B79B2",
"`.	c #6DA2C9",
" +	c #1B415E",
".+	c #9CC1DB",
"++	c #317DB5",
"@+	c #3286BC",
"#+	c #3592C2",
"$+	c #359CC8",
"%+	c #34A9CF",
"&+	c #467D92",
"*+	c #458396",
"=+	c #35C0D9",
"-+	c #37B8D6",
";+	c #3AAFD3",
">+	c #3CA4CF",
",+	c #3D98C8",
"'+	c #3C8DC3",
")+	c #3A85BC",
"!+	c #3480B9",
"~+	c #74A7CD",
"{+	c #224763",
"]+	c #A1C5E1",
"^+	c #3B87BF",
"/+	c #3D8FC4",
"(+	c #3D9CC9",
"_+	c #3DA8D1",
":+	c #3AB5D6",
"<+	c #3AC0DD",
"[+	c #39C6DF",
"}+	c #37CEE2",
"|+	c #32D4E4",
"1+	c #30D7E5",
"2+	c #30D8E5",
"3+	c #38CFE2",
"4+	c #3CC9E1",
"5+	c #3DC4E0",
"6+	c #42B9DB",
"7+	c #44AFD7",
"8+	c #45A3D2",
"9+	c #4397CA",
"0+	c #418DC3",
"a+	c #3E88C0",
"b+	c #7BADD3",
"c+	c #2A4E69",
"d+	c #D2E8F2",
"e+	c #9DD6E9",
"f+	c #9BDEED",
"g+	c #97E4F0",
"h+	c #8EEBF4",
"i+	c #77F0F6",
"j+	c #3CF5F7",
"k+	c #26F8F8",
"l+	c #1DFBFA",
"m+	c #16FCFA",
"n+	c #10FDFB",
"o+	c #0AFEFB",
"p+	c #06FEFB",
"q+	c #17FBFA",
"r+	c #1FF9F9",
"s+	c #27F6F8",
"t+	c #3DF2F6",
"u+	c #79ECF4",
"v+	c #91E6F2",
"w+	c #97E0EE",
"x+	c #9BDAEB",
"y+	c #9DD3E8",
"z+	c #193446",
"A+	c #1A3A52",
"B+	c #193B53",
"C+	c #1A4055",
"D+	c #1A4557",
"E+	c #1C4D5B",
"F+	c #1B525E",
"G+	c #1A5661",
"H+	c #185A61",
"I+	c #185D62",
"J+	c #165F64",
"K+	c #146264",
"L+	c #146364",
"M+	c #166064",
"N+	c #195A61",
"O+	c #1B5862",
"P+	c #1D5460",
"Q+	c #1E4F5D",
"R+	c #1E485B",
"S+	c #1E4358",
"T+	c #1D3F54",
"U+	c #1B3C53",
"V+	c #79D4FB",
"W+	c #71D2FB",
"X+	c #70D3FB",
"Y+	c #6DD1FB",
"Z+	c #6BD0FB",
"`+	c #69D1FC",
" @	c #68D1FC",
".@	c #68D0FC",
"+@	c #67D0FC",
"@@	c #6AD1FC",
"#@	c #6CD2FC",
"$@	c #6FD3FC",
"%@	c #71D3FC",
"&@	c #73D4FC",
"*@	c #76D4FB",
"=@	c #7CD6FB",
"-@	c #81D6FC",
";@	c #84D7FB",
">@	c #8CD9FB",
",@	c #EDF1FD",
"'@	c #EEF0FD",
")@	c #EBF1FD",
"!@	c #EEF0FC",
"~@	c #F4EEF8",
"{@	c #D7DCEF",
"]@	c #D7DCF0",
"^@	c #D6DBEE",
"/@	c #D8DDF0",
"(@	c #D6DDEF",
"_@	c #D8DEEE",
":@	c #DADDEE",
"<@	c #E0EAFF",
"[@	c #DFE8FF",
"}@	c #E0E9FF",
"|@	c #E1E8FF",
"1@	c #E2E9FF",
"2@	c #DFEBFF",
"3@	c #E1EBFF",
"4@	c #ACBBE2",
"5@	c #ADBCE3",
"6@	c #ACBCE0",
"7@	c #A9BBE1",
"8@	c #AABCE2",
". . . . . + + . @ . @ . # . @ @ @ @ @ $ @ @ @ % & * ",
"= = = - - ; = = = = = - - = = = = = = = = = > = , ' ",
") ! ~ { ] ^ / ( _ : < [ } | | | 1 : 2 3 4 5 ] { ] { ",
"6 7 8 9 0 a b c d e f f f f f f f f g 2 h i a j a j ",
"k 7 8 9 0 a b c d f l l l l l l l l f 2 h i a j m n ",
"o p q r s t u v f f f f f f f f w l f x y z A B r C ",
"D E F G H I J f l l l l l l l l f l f K L M N O G P ",
"Q R S T U V W f l l l l l l l l f X f Y Z `  ...+.@.",
"#.$.%.&.*.=.-.f l l f f f f l l f X f ;.>.,.'.).&.!.",
"~.{.].^./.(._.f X X f l l f X X f :.f <.[.}.|.1.2.3.",
"4.5.6.7.8.9.0.f X X f l l f X X f a.f b.c.d.e.f.7.g.",
"h.i.j.k.l.m.n.f :.:.f f f f :.:.f o.f p.q.r.s.t.u.v.",
"w.x.y.z.A.B.C.f a.a.a.a.a.a.a.a.f f D.E.F.G.H.I.J.K.",
"L.M.N.O.P.Q.R.f o.o.o.o.o.o.o.o.f S.T.U.V.W.X.Y.Z.`.",
" +.+++@+#+$+%+&+f f f f f f f f *+=+-+;+>+,+'+)+!+~+",
"{+]+^+/+(+_+:+<+[+}+|+1+2+2+1+|+3+4+5+6+7+8+9+0+a+b+",
"c+d+e+f+g+h+i+j+k+l+m+n+o+o+p+o+n+q+r+s+t+u+v+w+x+y+",
"z+A+B+C+D+E+F+G+H+I+J+K+L+L+K+M+I+N+O+P+Q+R+S+T+U+A+",
"V+W+X+Y+Z+`+ @.@+@+@+@+@+@.@ @`+@@#@$@%@&@*@=@-@;@>@",
",@,@,@,@,@'@'@,@,@,@,@,@,@,@,@,@,@,@,@,@)@,@,@,@!@~@",
"{@{@]@]@]@]@{@{@{@{@{@^@{@{@{@{@/@/@(@(@(@/@/@/@_@:@",
"<@<@<@[@}@}@<@|@1@<@<@<@<@<@<@<@<@<@<@2@2@<@<@<@3@<@",
"4@4@4@4@4@4@4@4@4@5@4@6@6@4@4@4@4@4@4@4@4@4@4@7@8@4@",
". . . . . + + . @ . @ . # . @ @ @ @ @ $ @ @ @ % & * ",
"= = = - - ; = = = = = - - = = = = = = = = = > = , ' ",
") ! ~ { ] ^ / ( _ : < [ } | | | 1 : 2 3 4 5 ] { ] { ",
"6 7 8 9 0 a b c d e f f f f f f f f g 2 h i a j a j ",
"k 7 8 9 0 a b c d f l l l l l l l l f 2 h i a j m n ",
"o p q r s t u v f f f f f f f f w l f x y z A B r C ",
"D E F G H I J f l l l l l l l l f l f K L M N O G P ",
"Q R S T U V W f l l l l l l l l f X f Y Z `  ...+.@.",
"#.$.%.&.*.=.-.f l l f f f f l l f X f ;.>.,.'.).&.!.",
"~.{.].^./.(._.f X X f l l f X X f :.f <.[.}.|.1.2.3.",
"4.5.6.7.8.9.0.f X X f l l f X X f a.f b.c.d.e.f.7.g.",
"h.i.j.k.l.m.n.f :.:.f f f f :.:.f o.f p.q.r.s.t.u.v.",
"w.x.y.z.A.B.C.f a.a.a.a.a.a.a.a.f f D.E.F.G.H.I.J.K.",
"L.M.N.O.P.Q.R.f o.o.o.o.o.o.o.o.f S.T.U.V.W.X.Y.Z.`.",
" +.+++@+#+$+%+&+f f f f f f f f *+=+-+;+>+,+'+)+!+~+",
"{+]+^+/+(+_+:+<+[+}+|+1+2+2+1+|+3+4+5+6+7+8+9+0+a+b+",
"c+d+e+f+g+h+i+j+k+l+m+n+o+o+p+o+n+q+r+s+t+u+v+w+x+y+",
"z+A+B+C+D+E+F+G+H+I+J+K+L+L+K+M+I+N+O+P+Q+R+S+T+U+A+",
"V+W+X+Y+Z+`+ @.@+@+@+@+@+@.@ @`+@@#@$@%@&@*@=@-@;@>@",
",@,@,@,@,@'@'@,@,@,@,@,@,@,@,@,@,@,@,@,@)@,@,@,@!@~@",
"{@{@]@]@]@]@{@{@{@{@{@^@{@{@{@{@/@/@(@(@(@/@/@/@_@:@",
"<@<@<@[@}@}@<@|@1@<@<@<@<@<@<@<@<@<@<@2@2@<@<@<@3@<@",
"4@4@4@4@4@4@4@4@4@5@4@6@6@4@4@4@4@4@4@4@4@4@4@7@8@4@"};
