/* XPM */
static char * restoreA_xpm[] = {
"26 46 118 2",
"  	c None",
". 	c #293357",
"+ 	c #2A3257",
"@ 	c #293356",
"# 	c #273456",
"$ 	c #2A3457",
"% 	c #2A3354",
"& 	c #293454",
"* 	c #2A3256",
"= 	c #EBF4FF",
"- 	c #EAF5FF",
"; 	c #EAF3FF",
"> 	c #ECF5FF",
", 	c #EDF4FF",
"' 	c #EFF4FF",
") 	c #8B8E9D",
"! 	c #F8FBFF",
"~ 	c #F9FCFF",
"{ 	c #F6FCFF",
"] 	c #F5FBFF",
"^ 	c #F7FDFF",
"/ 	c #FBFBFF",
"( 	c #FFF8FF",
"_ 	c #8C8D92",
": 	c #F3F4F9",
"< 	c #E4E7EE",
"[ 	c #E4E7F0",
"} 	c #E3E8EE",
"| 	c #E8E6EB",
"1 	c #FAEAEB",
"2 	c #8A8D93",
"3 	c #F2F4FA",
"4 	c #E3E7F3",
"5 	c #8E92A0",
"6 	c #535666",
"7 	c #ECEFF7",
"8 	c #888A91",
"9 	c #FCFCFC",
"0 	c #868890",
"a 	c #F0F1F7",
"b 	c #E0E4F1",
"c 	c #8D909E",
"d 	c #999AA4",
"e 	c #E9ECF5",
"f 	c #83868E",
"g 	c #EEF0F7",
"h 	c #DBE0ED",
"i 	c #E7EAF3",
"j 	c #80838C",
"k 	c #EBEDF4",
"l 	c #D6DBE9",
"m 	c #E9E9E9",
"n 	c #E3E6F0",
"o 	c #7C7F88",
"p 	c #E8EAF1",
"q 	c #D0D5E4",
"r 	c #DFE3ED",
"s 	c #646977",
"t 	c #D5D8E3",
"u 	c #A8AFC6",
"v 	c #E2E2E2",
"w 	c #C4C9D9",
"x 	c #646A77",
"y 	c #D6D9E5",
"z 	c #A8B0C7",
"A 	c #DCDCDC",
"B 	c #C4CADA",
"C 	c #656A79",
"D 	c #D6DAE6",
"E 	c #A9B0CA",
"F 	c #D7D7D7",
"G 	c #C5CADB",
"H 	c #676B7A",
"I 	c #D7DAE6",
"J 	c #ABB2CC",
"K 	c #777C8F",
"L 	c #C7CBDD",
"M 	c #696D7D",
"N 	c #D8DBE8",
"O 	c #AEB7D0",
"P 	c #C8CDDF",
"Q 	c #6C7181",
"R 	c #DBDFEC",
"S 	c #B4BCD7",
"T 	c #7B8094",
"U 	c #CCD1E3",
"V 	c #707484",
"W 	c #DEE2EF",
"X 	c #BBC2DE",
"Y 	c #D1D7E8",
"Z 	c #787D8B",
"` 	c #EFF0F8",
" .	c #DEE3F1",
"..	c #545761",
"+.	c #EDF1FD",
"@.	c #EEF0FD",
"#.	c #EBF1FD",
"$.	c #EEF0FC",
"%.	c #F4EEF8",
"&.	c #D7DCEF",
"*.	c #D7DCF0",
"=.	c #D6DBEE",
"-.	c #D8DDF0",
";.	c #D6DDEF",
">.	c #D8DEEE",
",.	c #DADDEE",
"'.	c #E0EAFF",
").	c #DFE8FF",
"!.	c #E0E9FF",
"~.	c #E1E8FF",
"{.	c #E2E9FF",
"].	c #DFEBFF",
"^.	c #E1EBFF",
"/.	c #ACBBE2",
"(.	c #ADBCE3",
"_.	c #ACBCE0",
":.	c #A9BBE1",
"<.	c #AABCE2",
". . . . . + + . @ . @ . # . @ @ @ @ @ $ @ @ @ % & * ",
"= = = - - ; = = = = = - - = = = = = = = = = > = , ' ",
") ! ~ { { ! ! ] { ! ! { { ~ ! ^ { ~ ! { { ! ! { / ( ",
"_ : < < < [ [ } } [ [ < < [ [ < < [ [ < < < < < | 1 ",
"2 3 4 4 4 4 4 4 4 5 6 6 6 6 6 6 6 6 5 4 4 4 4 4 4 7 ",
"8 3 4 4 4 4 4 4 4 6 9 9 9 9 9 9 9 9 6 4 4 4 4 4 4 7 ",
"0 a b b b b b c 6 6 6 6 6 6 6 6 d 9 6 b b b b b b e ",
"f g h h h h h 6 9 9 9 9 9 9 9 9 6 9 6 h h h h h h i ",
"j k l l l l l 6 9 9 9 9 9 9 9 9 6 m 6 l l l l l l n ",
"o p q q q q q 6 9 9 6 6 6 6 9 9 6 m 6 q q q q q q r ",
"s t u u u u u 6 m m 6 9 9 6 m m 6 v 6 u u u u u u w ",
"x y z z z z z 6 m m 6 9 9 6 m m 6 A 6 z z z z z z B ",
"C D E E E E E 6 v v 6 6 6 6 v v 6 F 6 E E E E E E G ",
"H I J J J J J 6 A A A A A A A A 6 6 K J J J J J J L ",
"M N O O O O O 6 F F F F F F F F 6 O O O O O O O O P ",
"Q R S S S S S T 6 6 6 6 6 6 6 6 T S S S S S S S S U ",
"V W X X X X X X X X X X X X X X X X X X X X X X X Y ",
"Z `  . . . . . . . . . . . . . . . . . . . . . . . .",
"....................................................",
"+.+.+.+.+.@.@.+.+.+.+.+.+.+.+.+.+.+.+.+.#.+.+.+.$.%.",
"&.&.*.*.*.*.&.&.&.&.&.=.&.&.&.&.-.-.;.;.;.-.-.-.>.,.",
"'.'.'.).!.!.'.~.{.'.'.'.'.'.'.'.'.'.'.].].'.'.'.^.'.",
"/././././././././.(./._._././././././././././.:.<./.",
". . . . . + + . @ . @ . # . @ @ @ @ @ $ @ @ @ % & * ",
"= = = - - ; = = = = = - - = = = = = = = = = > = , ' ",
") ! ~ { { ! ! ] { ! ! { { ~ ! ^ { ~ ! { { ! ! { / ( ",
"_ : < < < [ [ } } [ [ < < [ [ < < [ [ < < < < < | 1 ",
"2 3 4 4 4 4 4 4 4 5 6 6 6 6 6 6 6 6 5 4 4 4 4 4 4 7 ",
"8 3 4 4 4 4 4 4 4 6 9 9 9 9 9 9 9 9 6 4 4 4 4 4 4 7 ",
"0 a b b b b b c 6 6 6 6 6 6 6 6 d 9 6 b b b b b b e ",
"f g h h h h h 6 9 9 9 9 9 9 9 9 6 9 6 h h h h h h i ",
"j k l l l l l 6 9 9 9 9 9 9 9 9 6 m 6 l l l l l l n ",
"o p q q q q q 6 9 9 6 6 6 6 9 9 6 m 6 q q q q q q r ",
"s t u u u u u 6 m m 6 9 9 6 m m 6 v 6 u u u u u u w ",
"x y z z z z z 6 m m 6 9 9 6 m m 6 A 6 z z z z z z B ",
"C D E E E E E 6 v v 6 6 6 6 v v 6 F 6 E E E E E E G ",
"H I J J J J J 6 A A A A A A A A 6 6 K J J J J J J L ",
"M N O O O O O 6 F F F F F F F F 6 O O O O O O O O P ",
"Q R S S S S S T 6 6 6 6 6 6 6 6 T S S S S S S S S U ",
"V W X X X X X X X X X X X X X X X X X X X X X X X Y ",
"Z `  . . . . . . . . . . . . . . . . . . . . . . . .",
"....................................................",
"+.+.+.+.+.@.@.+.+.+.+.+.+.+.+.+.+.+.+.+.#.+.+.+.$.%.",
"&.&.*.*.*.*.&.&.&.&.&.=.&.&.&.&.-.-.;.;.;.-.-.-.>.,.",
"'.'.'.).!.!.'.~.{.'.'.'.'.'.'.'.'.'.'.].].'.'.'.^.'.",
"/././././././././.(./._._././././././././././.:.<./."};
