/* XPM */
static char * titleAP_xpm[] = {
"1 23 13 1",
" 	c None",
".	c #29325B",
"+	c #E6F2FF",
"@	c #CBD4FB",
"#	c #CBD5F9",
"$	c #C9D2F9",
"%	c #C9D3F7",
"&	c #CCD4F9",
"*	c #CED6FB",
"=	c #CED7F8",
"-	c #D1D8F5",
";	c #DCE5FF",
">	c #A9BAE5",
".",
"+",
"@",
"#",
"@",
"$",
"%",
"%",
"$",
"@",
"#",
"#",
"#",
"#",
"#",
"&",
"&",
"*",
"&",
"=",
"-",
";",
">"};
