/* XPM */
static char * titleIP_xpm[] = {
"12 23 72 1",
" 	c None",
".	c #4A5275",
"+	c #4A5273",
"@	c #4A5274",
"#	c #4B5274",
"$	c #4B5273",
"%	c #41496B",
"&	c #293356",
"*	c #EAF4FF",
"=	c #EBF5FF",
"-	c #D3DAFA",
";	c #D0D9FB",
">	c #CDD7FB",
",	c #CDD7FA",
"'	c #CED8FA",
")	c #CDD5F9",
"!	c #CCD4F9",
"~	c #D4DBFA",
"{	c #D2D9FA",
"]	c #CED7FB",
"^	c #CFD8FA",
"/	c #D3DBFB",
"(	c #D0D7FA",
"_	c #CDD7F9",
":	c #CCD5F9",
"<	c #D1D9FC",
"[	c #CED7FA",
"}	c #CED6F8",
"|	c #CED5F8",
"1	c #D2DAFA",
"2	c #CFD9FB",
"3	c #CED8F9",
"4	c #CDD6F9",
"5	c #D3DBFA",
"6	c #D0D9FA",
"7	c #CED7F9",
"8	c #D2DBFB",
"9	c #CED8FB",
"0	c #CDD6FA",
"a	c #D3DCFB",
"b	c #D3DCFA",
"c	c #D1DAFB",
"d	c #D1D9FA",
"e	c #D1DAFC",
"f	c #D3DBF9",
"g	c #CFD8F9",
"h	c #D5DBFA",
"i	c #D5DBF9",
"j	c #D6DBF9",
"k	c #D5DAF8",
"l	c #D2DAF8",
"m	c #D7DBF6",
"n	c #D7DBF4",
"o	c #D7DBF5",
"p	c #D6DBF5",
"q	c #D6DBF6",
"r	c #D0D7F6",
"s	c #CDD5F8",
"t	c #E1E8FF",
"u	c #E0E8FF",
"v	c #E2EAFF",
"w	c #E7EFFF",
"x	c #E6EEFF",
"y	c #B9C6E8",
"z	c #B7C7E8",
"A	c #B8C7E8",
"B	c #B8C6E8",
"C	c #B8C7E7",
"D	c #B8C6E9",
"E	c #B8C7E9",
"F	c #B5C3E6",
"G	c #AEBBDD",
".+.@@#$#$%&&",
"**********==",
"-;>>,''''')!",
"~{]>,''''^!!",
"~/(,>,'''_:!",
"~~<'>,'''[}|",
"~~12>>3334!!",
"~~56>>,''7!!",
"~~~8_>>9'0!!",
"~~~a6>>>9,!!",
"b~b~c,>>>,!!",
"b~b~-_>>>4!!",
"~~~~~d]>>0!!",
"~~~~~a^>>0!!",
"~~~~~~e,>0!!",
"~~~~~~1>>0!!",
"~~~~~f/g,0!!",
"~~~~~~a1'0!!",
"~~~~h~~-;0!!",
"iiiijkiil}!!",
"mnmoooppqrss",
"ttttttttuvwx",
"yzyABACDEFGG"};
