/* XPM */
static char *folder_16x16[] = {
"16 16 57 1 0 0",
"  c #000000",
"! c #B46729",
"# c #B86E2E",
"$ c #C0752F",
"% c #C37831",
"& c #C77C33",
"' c #BC7534",
"( c #C57C37",
") c #C67E38",
"* c #C17C3A",
"+ c #C68440",
", c #DE9649",
"- c #D48F4A",
". c #D08E4D",
"/ c #D49455",
"0 c #E09F57",
"1 c #E09F58",
"2 c #DC9E5F",
"3 c #E5AE5F",
"4 c #E5B063",
"5 c #E5B163",
"6 c #CE9B65",
"7 c #E3A866",
"8 c #E3A867",
"9 c #E6B267",
": c #E6B368",
"; c #E6B46C",
"< c #E7B46C",
"= c #E7B56C",
"> c #E7B56D",
"? c #E8B770",
"@ c #E8B771",
"A c #E8B871",
"B c #E5AF72",
"C c #E8B872",
"D c #E7AD73",
"E c #E8B873",
"F c #E6B176",
"G c #E6AE77",
"H c #E6B277",
"I c #E7B57C",
"J c #E9B582",
"K c #E9BB85",
"L c #E9BC87",
"M c #EBC291",
"N c #ECC494",
"O c #EDC697",
"P c #EEC99C",
"Q c #EFCDA3",
"R c #F0CFA6",
"S c #F1D6B1",
"T c #F2D7B3",
"U c #F3D9B6",
"V c #F3DCBB",
"W c #F6E3C6",
"X c #FFFFFF",
"Y c None",
"6!!!!!6YYYYYYYYY",
"!JDDDG!6YYYYYYYY",
"!J---26!!!!!!!6Y",
"!J)(((.///////!Y",
"!J+*'#!!!!!!!!!Y",
"!$%&+BILMPRSVW!Y",
"!TCACAAACACAAU!Y",
"!Q@?@@?@?@?>=R!Y",
"!N<;<;<;<;<;:O!Y",
"!K9;9;9;9;9;5L!Y",
"!F44444444444H!Y",
"!7333333333338!Y",
"!0333333333331!Y",
"!,EEEEEEEEEEE,!Y",
"6!!!!!!!!!!!!!6Y",
"YYYYYYYYYYYYYYYY"
};
