/* XPM */
static char *folder_32x32[] = {
"32 32 178 2 0 0",
"   c #000000",
"!  c #AF5F1E",
"#  c #B05F1E",
"$  c #B15F1E",
"%  c #B0601E",
"&  c #B0601F",
"'  c #B1611F",
"(  c #B16120",
")  c #B26120",
"*  c #B26220",
"+  c #B26221",
",  c #B16321",
"-  c #B26321",
".  c #B06222",
"/  c #B16222",
"0  c #B26322",
"1  c #B06223",
"2  c #B36323",
"3  c #B36423",
"4  c #B26324",
"5  c #B56424",
"6  c #B56824",
"7  c #B46625",
"8  c #B36526",
"9  c #B76926",
":  c #B76927",
";  c #B76E27",
"<  c #B36628",
"=  c #B76928",
">  c #B76A28",
"?  c #B86A28",
"@  c #B86F28",
"A  c #B46729",
"B  c #B86A29",
"C  c #B76B29",
"D  c #B96E2A",
"E  c #B86B2B",
"F  c #B86C2B",
"G  c #B96D2C",
"H  c #B96D2D",
"I  c #BA6E2D",
"J  c #B46F31",
"K  c #BB7231",
"L  c #C07831",
"M  c #C67F39",
"N  c #C77F39",
"O  c #C7803A",
"P  c #C7813D",
"Q  c #C78543",
"R  c #CF8944",
"S  c #C78546",
"T  c #C38247",
"U  c #C78748",
"V  c #C8894A",
"W  c #BD864F",
"X  c #C78D51",
"Y  c #D59555",
"Z  c #C48E56",
"[  c #CF9356",
"\  c #D59657",
"]  c #CD9359",
"^  c #E3AB59",
"_  c #E3AB5A",
"`  c #E3AC5A",
"a  c #E3AB5B",
"b  c #E3AC5B",
"c  c #E3AC5C",
"d  c #E4AC5C",
"e  c #E3AD5C",
"f  c #E4AD5C",
"g  c #C9945D",
"h  c #E3AC5D",
"i  c #E3AD5D",
"j  c #E4AD5D",
"k  c #E4AD5E",
"l  c #E4AE5E",
"m  c #E4AE5F",
"n  c #E4AE60",
"o  c #E4AF60",
"p  c #D49B61",
"q  c #E4AF61",
"r  c #E5AF61",
"s  c #E4AF62",
"t  c #E5AF62",
"u  c #E5B062",
"v  c #D89C63",
"w  c #E4AF63",
"x  c #E5B063",
"y  c #DBA564",
"z  c #E5B064",
"{  c #E5B164",
"|  c #CE9B65",
"}  c #E5B165",
"~  c #E5B166",
" ! c #E5B266",
"!! c #E6B266",
"#! c #E6B267",
"$! c #E6B268",
"%! c #E6B368",
"&! c #E6B369",
"'! c #E6B36A",
"(! c #E6B46A",
")! c #E6B46B",
"*! c #DAA36C",
"+! c #E6B46C",
",! c #E7B46C",
"-! c #E7B56C",
".! c #E7B56D",
"/! c #E7B56E",
"0! c #E7B66E",
"1! c #E7B66F",
"2! c #E7B670",
"3! c #E7B770",
"4! c #DCA571",
"5! c #E0AF71",
"6! c #E7B771",
"7! c #E8B771",
"8! c #E8B772",
"9! c #E8B872",
":! c #E8B873",
";! c #E8B874",
"<! c #E8B974",
"=! c #E8B975",
">! c #E8BA76",
"?! c #E9BA76",
"@! c #E8BA77",
"A! c #E9BA77",
"B! c #E9BA78",
"C! c #E9BB78",
"D! c #E9BB79",
"E! c #E8BB7A",
"F! c #E9BB7A",
"G! c #E9BC7A",
"H! c #E9BB7B",
"I! c #E9BC7B",
"J! c #E3B67D",
"K! c #E3B77D",
"L! c #E8BD7D",
"M! c #E9BF80",
"N! c #EABF81",
"O! c #E9BF82",
"P! c #EAC186",
"Q! c #E6BE89",
"R! c #EBC48B",
"S! c #E9C18D",
"T! c #E9C18E",
"U! c #EAC28E",
"V! c #EBC58F",
"W! c #ECC891",
"X! c #EDCA96",
"Y! c #DEBD98",
"Z! c #EDCA98",
"[! c #EECB99",
"\! c #EAC89B",
"]! c #EBC99D",
"^! c #EECFA0",
"_! c #EFCFA0",
"`! c #EFD0A2",
"a! c #F0D1A3",
"b! c #F0D1A4",
"c! c #F0D2A6",
"d! c #F0D3A8",
"e! c #F0D4AA",
"f! c #F1D6AF",
"g! c #F2D8B4",
"h! c #F2D9B5",
"i! c #F2DAB6",
"j! c #F3DAB7",
"k! c #F3DBB7",
"l! c #F3DBB8",
"m! c #F4DDBD",
"n! c #F4DEBE",
"o! c #F4DEBF",
"p! c #F3DCC0",
"q! c #F4DFC0",
"r! c #F4DFC1",
"s! c #FFFFFF",
"t! c None",
"t!t!t!t!t!t!t!t!t!t!t!t!t!t!t!t!t!t!t!t!t!t!t!t!t!t!t!t!t!t!t!t!",
"t!t!t!t!t!t!t!t!t!t!t!t!t!t!t!t!t!t!t!t!t!t!t!t!t!t!t!t!t!t!t!t!",
"t!t!t!t!t!t!t!t!t!t!t!t!t!t!t!t!t!t!t!t!t!t!t!t!t!t!t!t!t!t!t!t!",
"t!t!t!t!t!t!t!t!t!t!t!t!t!t!t!t!t!t!t!t!t!t!t!t!t!t!t!t!t!t!t!t!",
"t!t!t!| # # # # # # # # # # * t!t!t!t!t!t!t!t!t!t!t!t!t!t!t!t!t!",
"t!t!t!# 4!*!*!*!*!*!*!*!*!v 5 | t!t!t!t!t!t!t!t!t!t!t!t!t!t!t!t!",
"t!t!t!1 Y!\ Y Y Y Y Y Y Y p ] ) | t!t!t!t!t!t!t!t!t!t!t!t!t!t!t!",
"t!t!t!1 | R R R R R R R R R [ T & $ $ $ $ $ $ $ $ $ $ $ $ | t!t!",
"t!t!t!1 g O O O O O O O O O O U X V Q P N N N N N N N N M ' t!t!",
"t!t!t!1 Z L L L L L L L D * # # # # # # # # # # # # # # ! 3 t!t!",
"t!t!t!1 W @ @ @ @ @ ; 6 C \!r!q!q!o!n!n!m!l!f!d!_![!W!R!O!7 t!t!",
"t!t!t!. J - + + + + ( K ]!c!G!G!I!H!F!I!I!I!G!G!G!D!D!A!A!? t!t!",
"t!t!t!2 S Q!T!S!S!S!U!`!k!C!C!B!A!A!A!A!A!?!>!>!>!=!=!=!=!> t!t!",
"t!t!t!+ p!b!b!b!b!b!a!X!>!>!=!=!=!=!=!<!<!<!<!;!:!:!:!:!9!= t!t!",
"t!t!t!A l!=!=!=!<!<!<!<!=!<!<!<!=!<!<!<!<!8!7!7!7!6!6!3!3!: t!t!",
"t!t!t!A j!:!9!9!9!9!9!9!9!9!9!9!9!9!9!9!8!1!1!1!1!0!0!0!/!: t!t!",
"t!t!t!A i!3!3!3!3!3!2!1!3!3!3!3!2!1!3!3!2!1!.!-!-!-!,!+!)!: t!t!",
"t!t!t!A h!0!/!.!.!(!(!'!(!(!'!(!(!'!(!(!'!'!&!(!'!'!&!&!+!9 t!t!",
"t!t!t!A g!+!)!)!$!$!$!#!$!$!$!$!$!#!#!$!$!$!#!#!$!#!#!#!1!> t!t!",
"t!t!t!A h!&!&!&!&!&!&!&!%!&!&!&!&!&!&!%!&!&!&!%!} } } } 6!B t!t!",
"t!t!t!A h!$!#!!! !~ $!#!!!$!#!!! !~ $!#!!! !~ ~ x x u u ;!E t!t!",
"t!t!t!< e!} { z z z x { z z { z z { z z { z z z q o n n @!F t!t!",
"t!t!t!8 ^!z t t t r r q q o t t t r r t t t r r k k k k E!G t!t!",
"t!t!t!4 Z!w n m m m m m l k k k j j j n m m m m m c b b L!H t!t!",
"t!t!t!/ V!n j j j j f d d c c b b b b ` _ _ _ _ ^ ^ ^ ^ M!I t!t!",
"t!t!t!& P!s i i e c c c h c c c c c a a a a a _ _ _ _ _ N!I t!t!",
"t!t!t!% y K!K!J!J!J!J!J!J!J!J!J!J!J!J!J!J!J!J!J!J!J!J!J!5!0 t!t!",
"t!t!t!| , * * * * * * * * * * * * * * * * * * * * * * * - | t!t!",
"t!t!t!t!t!t!t!t!t!t!t!t!t!t!t!t!t!t!t!t!t!t!t!t!t!t!t!t!t!t!t!t!",
"t!t!t!t!t!t!t!t!t!t!t!t!t!t!t!t!t!t!t!t!t!t!t!t!t!t!t!t!t!t!t!t!",
"t!t!t!t!t!t!t!t!t!t!t!t!t!t!t!t!t!t!t!t!t!t!t!t!t!t!t!t!t!t!t!t!",
"t!t!t!t!t!t!t!t!t!t!t!t!t!t!t!t!t!t!t!t!t!t!t!t!t!t!t!t!t!t!t!t!"
};
