/* XPM */
static char * n0_xpm[] = {
"14 21 245 2",
"  	c None",
". 	c #121215",
"+ 	c #191B1B",
"@ 	c #191C1E",
"# 	c #221F1B",
"$ 	c #191C1F",
"% 	c #191D20",
"& 	c #191D21",
"* 	c #221D17",
"= 	c #1F1C17",
"- 	c #1C1E20",
"; 	c #222224",
"> 	c #231F1C",
", 	c #222326",
"' 	c #1C1D1D",
") 	c #2D2B2C",
"! 	c #302E2F",
"~ 	c #302D2E",
"{ 	c #2C2622",
"] 	c #212227",
"^ 	c #272222",
"/ 	c #1F1F1F",
"( 	c #1C1F23",
"_ 	c #191A19",
": 	c #1D1E1E",
"< 	c #232326",
"[ 	c #322C28",
"} 	c #6E6D6F",
"| 	c #9A9B9A",
"1 	c #ADADAE",
"2 	c #9D9D9C",
"3 	c #5F6566",
"4 	c #312C28",
"5 	c #1F2021",
"6 	c #29221C",
"7 	c #1A1513",
"8 	c #1E222A",
"9 	c #4D3C43",
"0 	c #B0BABB",
"a 	c #D9D8D7",
"b 	c #D7D7DB",
"c 	c #D2D3D6",
"d 	c #D7D8D8",
"e 	c #D5D6D7",
"f 	c #D4D4D2",
"g 	c #ADB2B4",
"h 	c #2F353C",
"i 	c #222225",
"j 	c #141417",
"k 	c #2B2E2E",
"l 	c #A1A6A5",
"m 	c #D7D7D5",
"n 	c #D9D9D8",
"o 	c #D1D3D7",
"p 	c #C0C2BB",
"q 	c #C0C4BF",
"r 	c #D8D7D6",
"s 	c #D7D8D9",
"t 	c #948F94",
"u 	c #2B292D",
"v 	c #171516",
"w 	c #5B5455",
"x 	c #D7D5D3",
"y 	c #D6D7D8",
"z 	c #CFD1D2",
"A 	c #8A8882",
"B 	c #3D3E3C",
"C 	c #3A3F3C",
"D 	c #989BA0",
"E 	c #D7D8D2",
"F 	c #D8D9D3",
"G 	c #CBCFCD",
"H 	c #3B4242",
"I 	c #1A1615",
"J 	c #16111E",
"K 	c #9EA1A2",
"L 	c #D9DADE",
"M 	c #D4D5D1",
"N 	c #BFB9B5",
"O 	c #272E27",
"P 	c #1F2126",
"Q 	c #1F2124",
"R 	c #38352E",
"S 	c #C1C2C3",
"T 	c #D6D6D8",
"U 	c #D4D5D8",
"V 	c #968989",
"W 	c #25262A",
"X 	c #B8B9B5",
"Y 	c #D5D6DB",
"Z 	c #83888A",
"` 	c #1D2024",
" .	c #202021",
"..	c #1D2127",
"+.	c #A4A5A6",
"@.	c #AAACA8",
"#.	c #121418",
"$.	c #2C2F38",
"%.	c #BCBEBC",
"&.	c #6D7375",
"*.	c #242326",
"=.	c #22201F",
"-.	c #222428",
";.	c #191F28",
">.	c #888A88",
",.	c #DADBD4",
"'.	c #B8B5B3",
").	c #262028",
"!.	c #3A3232",
"~.	c #A2A79E",
"{.	c #B8B3AC",
"].	c #AAB3AC",
"^.	c #544B4A",
"/.	c #1D1512",
"(.	c #201611",
"_.	c #1F1611",
":.	c #1C1512",
"<.	c #616766",
"[.	c #B2B3AC",
"}.	c #B4B3AC",
"|.	c #9A9E97",
"1.	c #212226",
"2.	c #0D0A15",
"3.	c #171921",
"4.	c #1F1A23",
"5.	c #181A23",
"6.	c #0C0C15",
"7.	c #05030F",
"8.	c #100D19",
"9.	c #1C1A23",
"0.	c #1D1A23",
"a.	c #171720",
"b.	c #070712",
"c.	c #151B1F",
"d.	c #4A4D55",
"e.	c #4F524F",
"f.	c #55515B",
"g.	c #262026",
"h.	c #312B2C",
"i.	c #575153",
"j.	c #455254",
"k.	c #464851",
"l.	c #1A101D",
"m.	c #3A343B",
"n.	c #C5C3C0",
"o.	c #D8D5DF",
"p.	c #DADBD5",
"q.	c #68686F",
"r.	c #27211C",
"s.	c #282422",
"t.	c #212020",
"u.	c #7B8189",
"v.	c #D6D7D3",
"w.	c #BABDB6",
"x.	c #26282A",
"y.	c #2E2E2E",
"z.	c #BBBCC1",
"A.	c #D3D4D3",
"B.	c #D9D9D3",
"C.	c #7B7A7D",
"D.	c #24201C",
"E.	c #242222",
"F.	c #8E9297",
"G.	c #D7D8D6",
"H.	c #DADBD7",
"I.	c #B6B4B2",
"J.	c #1E1921",
"K.	c #1F171C",
"L.	c #B9B6B0",
"M.	c #9F9D9E",
"N.	c #221E19",
"O.	c #1A212B",
"P.	c #232421",
"Q.	c #B2B4B3",
"R.	c #D7D8DA",
"S.	c #D5D5D6",
"T.	c #AEA6A2",
"U.	c #0D0E18",
"V.	c #788386",
"W.	c #D8D4DF",
"X.	c #C3C6C4",
"Y.	c #3E4041",
"Z.	c #312227",
"`.	c #27221C",
" +	c #5D545B",
".+	c #D1CECB",
"++	c #D7D8DD",
"@+	c #D7D7D2",
"#+	c #646E6C",
"$+	c #181314",
"%+	c #46413E",
"&+	c #C9CBC8",
"*+	c #D3D4D6",
"=+	c #AFB1B1",
"-+	c #6B6B6F",
";+	c #6F7272",
">+	c #BCB9BF",
",+	c #D7D8D7",
"'+	c #D8D9D9",
")+	c #BEBCB7",
"!+	c #343A3C",
"~+	c #262522",
"{+	c #738782",
"]+	c #D6D7D1",
"^+	c #D8D8D5",
"/+	c #D9D7DA",
"(+	c #D4D5D6",
"_+	c #D9DAD9",
":+	c #D5D5DA",
"<+	c #D7D8D5",
"[+	c #D4D5D0",
"}+	c #6D7176",
"|+	c #1F2327",
"1+	c #1D1714",
"2+	c #222429",
"3+	c #232121",
"4+	c #7B7C7D",
"5+	c #C0C3BF",
"6+	c #D6D6D1",
"7+	c #D7D7DD",
"8+	c #B8BEB8",
"9+	c #5F7164",
"0+	c #232427",
"a+	c #22201E",
"b+	c #101412",
"c+	c #1F2320",
"d+	c #232223",
"e+	c #292724",
"f+	c #423D36",
"g+	c #51625D",
"h+	c #6D746D",
"i+	c #6C726A",
"j+	c #4C5B5D",
"k+	c #353837",
"l+	c #232526",
"m+	c #262424",
"n+	c #272320",
"o+	c #160F11",
"p+	c #222020",
"q+	c #2E261F",
"r+	c #2D251E",
"s+	c #25201C",
"t+	c #2C251E",
"u+	c #26211C",
"v+	c #2B231B",
". + @ # @ $ % & $ * % = - . ",
"* ; > , ' ) ! ~ { ] ^ / ( _ ",
"% : < [ } | 1 1 2 3 4 5 6 _ ",
"7 8 9 0 a b c d e f g h i j ",
"7 k l m n o p q r d s t u v ",
"7 w x y z A B C D E F G H I ",
"J K L M N O P Q R S T U V . ",
"W X Y M Z `  . ...+.F U @.#.",
"$.%.L M &.*.=.-.;.>.,.U '.).",
"!.~.{.].^./.(._.:.<.[.}.|.1.",
"2.3.4.5.6.7.7.7.7.8.9.0.a.b.",
"c.d.e.f.g.7.7.7.7.h.i.j.k.l.",
"m.n.o.p.q.;.r.s.t.u.v.o.w.x.",
"y.z.A.B.C.D.E.t.t.F.G.H.I.J.",
"K.L.s F M.*.N.O.P.Q.R.S.T.U.",
". V.E W.X.Y.Z.`. +.+++@+#+j ",
"$+%+&+*+d =+-+;+>+,+'+)+!+v ",
"U.~+{+]+^+/+(+_+:+<+[+}+|+I ",
"1+2+3+4+5+6+7+E E 8+9+0+a+7 ",
"b+c+d+e+f+g+h+i+j+k+l+m+n+. ",
"o+p+> q+# D.r+# s+t+# u+v+7 "};
