/* XPM */
static char * n1_xpm[] = {
"14 21 174 2",
"  	c None",
". 	c #121215",
"+ 	c #1E1D1A",
"@ 	c #1D1E1D",
"# 	c #1E1E1C",
"$ 	c #1D1E1E",
"% 	c #1C1E20",
"& 	c #1C1E1F",
"* 	c #151314",
"= 	c #1D1B16",
"- 	c #212427",
"; 	c #222427",
"> 	c #252521",
", 	c #232525",
"' 	c #262C2F",
") 	c #313130",
"! 	c #303534",
"~ 	c #292B29",
"{ 	c #242523",
"] 	c #21211D",
"^ 	c #1F1E1A",
"/ 	c #17181D",
"( 	c #222426",
"_ 	c #22211C",
": 	c #62646B",
"< 	c #AEAFB1",
"[ 	c #AAB3AC",
"} 	c #6E6360",
"| 	c #161619",
"1 	c #171616",
"2 	c #232321",
"3 	c #212221",
"4 	c #312F31",
"5 	c #B3B4B1",
"6 	c #D4D4DE",
"7 	c #D9DAD5",
"8 	c #76717B",
"9 	c #26251E",
"0 	c #1A1917",
"a 	c #232423",
"b 	c #393A3D",
"c 	c #404345",
"d 	c #66595F",
"e 	c #9F9EA0",
"f 	c #D6D7D3",
"g 	c #D7D8D4",
"h 	c #6B7270",
"i 	c #232524",
"j 	c #111016",
"k 	c #3E3A30",
"l 	c #B2B4B7",
"m 	c #CCCFCB",
"n 	c #D4D4DA",
"o 	c #D5D5D3",
"p 	c #D5D5DD",
"q 	c #74757D",
"r 	c #25231B",
"s 	c #212428",
"t 	c #20242A",
"u 	c #141011",
"v 	c #373B40",
"w 	c #C0C4C3",
"x 	c #CFD9D4",
"y 	c #D1D9D4",
"z 	c #787377",
"A 	c #27251D",
"B 	c #2E312C",
"C 	c #4E555A",
"D 	c #695D5B",
"E 	c #665E64",
"F 	c #585F65",
"G 	c #C8CAC7",
"H 	c #D7D8D8",
"I 	c #D8D8D4",
"J 	c #787578",
"K 	c #1C1914",
"L 	c #242B32",
"M 	c #352A2E",
"N 	c #CCCBC7",
"O 	c #D6D6DB",
"P 	c #727679",
"Q 	c #0E0B10",
"R 	c #1C1711",
"S 	c #1D1D1D",
"T 	c #9EA6A1",
"U 	c #6A5F5D",
"V 	c #05030F",
"W 	c #161821",
"X 	c #181A22",
"Y 	c #140E16",
"Z 	c #0B0A12",
"` 	c #4C4955",
" .	c #514D5B",
"..	c #514C5B",
"+.	c #332630",
"@.	c #0C0B13",
"#.	c #23221E",
"$.	c #1D2023",
"%.	c #262827",
"&.	c #C2C6CE",
"*.	c #767579",
"=.	c #24231E",
"-.	c #1D2022",
";.	c #201F1C",
">.	c #202224",
",.	c #1E2124",
"'.	c #332525",
").	c #CAC9C5",
"!.	c #D5D5D2",
"~.	c #747379",
"{.	c #24221A",
"].	c #1B2026",
"^.	c #23211B",
"/.	c #111014",
"(.	c #1E2227",
"_.	c #25221A",
":.	c #1B2027",
"<.	c #767078",
"[.	c #222322",
"}.	c #1E1F1D",
"|.	c #222424",
"1.	c #161414",
"2.	c #1E2123",
"3.	c #23221D",
"4.	c #202223",
"5.	c #1F201F",
"6.	c #232728",
"7.	c #C8C9C6",
"8.	c #74747D",
"9.	c #1C2127",
"0.	c #1E1E1B",
"a.	c #151315",
"b.	c #1F1F1C",
"c.	c #212426",
"d.	c #212629",
"e.	c #D3D6DC",
"f.	c #6C7378",
"g.	c #21211E",
"h.	c #1D2127",
"i.	c #202325",
"j.	c #1F201E",
"k.	c #1C2024",
"l.	c #22221E",
"m.	c #202529",
"n.	c #C9CBC7",
"o.	c #D5D6D2",
"p.	c #787277",
"q.	c #20211F",
"r.	c #222321",
"s.	c #110F12",
"t.	c #1E1F1F",
"u.	c #1D232A",
"v.	c #322424",
"w.	c #B0B6B4",
"x.	c #BDBFC1",
"y.	c #BEC0BC",
"z.	c #676A6F",
"A.	c #202222",
"B.	c #1A1815",
"C.	c #22221D",
"D.	c #212326",
"E.	c #343732",
"F.	c #3A3933",
"G.	c #2B2D2C",
"H.	c #25241F",
"I.	c #1E1F1E",
"J.	c #222323",
"K.	c #141215",
"L.	c #26241C",
"M.	c #24231C",
"N.	c #292519",
"O.	c #28251A",
"P.	c #25231D",
"Q.	c #292417",
". + @ # # $ % % $ # # & % * ",
"= - ; > > , ' ) ! ~ { ; ] ^ ",
"/ , , ( ( _ : < [ } , ( ( | ",
"1 2 , > 3 4 5 6 7 8 ( { 9 / ",
"0 a b c d e f g 7 h ( i > / ",
"j k l m n 7 6 o p q r s t u ",
"/ v w x y 7 7 7 7 z t { A | ",
"1 B C D E F G H I J t { A | ",
"K ; { L , M N O f P t { t | ",
"Q R R R R S T [ [ U R R R Q ",
"V V V V V V W X X Y V V V V ",
"V V V V V Z `  ...+.V V @.V ",
"u t 3 #.$.%.&.7 7 *.& =.-.u ",
"u ;.>.] ,.'.).H !.~.{.].^./.",
"/ $ (._.:.( G O 7 <.[.}.|.1.",
"u 2.3.4.5.6.7.g f 8._.9.0.u ",
"a.b.c.& [.d.G e.I f.g.|.h.1 ",
"| i.j.k.l.m.n.o.7 p.q.r.5.u ",
"s.r.=.t.u.v.w.x.y.z.2.j.A.1.",
"B.t.i.C.q.D.E.v F.G.H.I.J.K.",
"u L.M.N.{.O.P.P.O.{.N.M.Q.j "};
