/* XPM */
static char * n2_xpm[] = {
"14 21 277 2",
"  	c None",
". 	c #121215",
"+ 	c #1F1D1A",
"@ 	c #1B1D1F",
"# 	c #1E1D1C",
"$ 	c #1D1D1C",
"% 	c #201E1B",
"& 	c #1A1C1D",
"* 	c #1B1C1C",
"= 	c #1B1D1E",
"- 	c #1D1E1E",
"; 	c #1C1C1C",
"> 	c #16171A",
", 	c #1A1919",
"' 	c #212121",
") 	c #202123",
"! 	c #242222",
"~ 	c #2B2727",
"{ 	c #322E2D",
"] 	c #31353C",
"^ 	c #3D3835",
"/ 	c #303137",
"( 	c #2D2B28",
"_ 	c #232121",
": 	c #21201E",
"< 	c #191819",
"[ 	c #181516",
"} 	c #23201D",
"| 	c #242526",
"1 	c #3A3A3C",
"2 	c #666468",
"3 	c #8A8382",
"4 	c #9A9A9E",
"5 	c #A29FA1",
"6 	c #928E95",
"7 	c #7C7B7D",
"8 	c #5A5256",
"9 	c #332E2E",
"0 	c #222020",
"a 	c #15171C",
"b 	c #242425",
"c 	c #47494B",
"d 	c #909190",
"e 	c #C4C2C4",
"f 	c #D5D6D3",
"g 	c #D7D7DC",
"h 	c #D7D8D3",
"i 	c #D6D5D9",
"j 	c #D1CFD2",
"k 	c #B5B0B4",
"l 	c #737374",
"m 	c #313132",
"n 	c #16171B",
"o 	c #333433",
"p 	c #8A8E91",
"q 	c #CDCFCC",
"r 	c #D6D7D8",
"s 	c #CFCDCC",
"t 	c #B1B2B1",
"u 	c #AEAEAC",
"v 	c #C2C5C4",
"w 	c #D6D6D7",
"x 	c #D4D5D5",
"y 	c #BDC0BC",
"z 	c #646466",
"A 	c #1C191B",
"B 	c #191519",
"C 	c #5C5559",
"D 	c #C2C3C4",
"E 	c #D6D7D7",
"F 	c #C2C5C3",
"G 	c #777978",
"H 	c #45494C",
"I 	c #4D4640",
"J 	c #626968",
"K 	c #B3B7B6",
"L 	c #D6D6D6",
"M 	c #A39F9E",
"N 	c #2C242A",
"O 	c #1C1B1E",
"P 	c #737572",
"Q 	c #D1D3CE",
"R 	c #D4D5D1",
"S 	c #959391",
"T 	c #373A3F",
"U 	c #29221A",
"V 	c #232428",
"W 	c #302E2B",
"X 	c #7A7C7D",
"Y 	c #CFCFD0",
"Z 	c #D7D7D6",
"` 	c #B5B7B6",
" .	c #333538",
"..	c #1F1F21",
"+.	c #807F7C",
"@.	c #BBBFBA",
"#.	c #B6BAB5",
"$.	c #6A6E6A",
"%.	c #282928",
"&.	c #22201F",
"*.	c #1D1F23",
"=.	c #282827",
"-.	c #727676",
";.	c #CECFCE",
">.	c #D6D7D5",
",.	c #BFBFB9",
"'.	c #3E3D3E",
").	c #171518",
"!.	c #373833",
"~.	c #3A4443",
"{.	c #3B4241",
"].	c #2D302E",
"^.	c #202328",
"/.	c #26221F",
"(.	c #252621",
"_.	c #3D3F43",
":.	c #9E9D9E",
"<.	c #D5D5D4",
"[.	c #D7D8D6",
"}.	c #AAADAC",
"|.	c #2A2D33",
"1.	c #120D11",
"2.	c #1E1714",
"3.	c #171415",
"4.	c #1B1516",
"5.	c #1B1616",
"6.	c #191517",
"7.	c #1B1514",
"8.	c #1A1F1C",
"9.	c #4F4F53",
"0.	c #979695",
"a.	c #A3A4A0",
"b.	c #A2A39F",
"c.	c #737170",
"d.	c #1A171C",
"e.	c #05030F",
"f.	c #080611",
"g.	c #231D24",
"h.	c #2B292F",
"i.	c #29292F",
"j.	c #29282E",
"k.	c #14171C",
"l.	c #060510",
"m.	c #0B0810",
"n.	c #0C0810",
"o.	c #0D0B13",
"p.	c #0C0C16",
"q.	c #0E0D18",
"r.	c #352D34",
"s.	c #595A64",
"t.	c #576065",
"u.	c #636169",
"v.	c #5F5E65",
"w.	c #3D4245",
"x.	c #15161B",
"y.	c #0B0913",
"z.	c #090510",
"A.	c #141215",
"B.	c #1D1B1C",
"C.	c #211C19",
"D.	c #282426",
"E.	c #56565B",
"F.	c #A2A1A8",
"G.	c #C2C4C4",
"H.	c #C4C7CA",
"I.	c #C4C5C3",
"J.	c #979B9D",
"K.	c #4A4D4F",
"L.	c #252220",
"M.	c #1D1C20",
"N.	c #100E16",
"O.	c #171617",
"P.	c #25221F",
"Q.	c #2A3031",
"R.	c #707273",
"S.	c #BEBCBE",
"T.	c #D1D2D2",
"U.	c #D9DAD4",
"V.	c #C7C5C3",
"W.	c #8B8887",
"X.	c #47413C",
"Y.	c #282522",
"Z.	c #232323",
"`.	c #22201E",
" +	c #151014",
".+	c #191616",
"++	c #2D2B2A",
"@+	c #767171",
"#+	c #C5C6C8",
"$+	c #D6D7D9",
"%+	c #D5D4D3",
"&+	c #B2B1AE",
"*+	c #5F5A5E",
"=+	c #252427",
"-+	c #1B2026",
";+	c #1F2225",
">+	c #24211E",
",+	c #222123",
"'+	c #121017",
")+	c #141319",
"!+	c #4C4D50",
"~+	c #BBBCBD",
"{+	c #D8D8D7",
"]+	c #B6B0B1",
"^+	c #4F5457",
"/+	c #3E3833",
"(+	c #35373C",
"_+	c #383633",
":+	c #323536",
"<+	c #3A3837",
"[+	c #313233",
"}+	c #14141E",
"|+	c #1E1A1D",
"1+	c #817E7D",
"2+	c #D3D4D3",
"3+	c #D5D6D8",
"4+	c #D3D4D7",
"5+	c #B5B9B9",
"6+	c #9B9D9E",
"7+	c #999A9B",
"8+	c #999C9E",
"9+	c #999B9D",
"0+	c #989B9E",
"a+	c #9A9D9F",
"b+	c #848484",
"c+	c #2B2A30",
"d+	c #28262A",
"e+	c #A5A39F",
"f+	c #D8D8D6",
"g+	c #D8D8D9",
"h+	c #D7D8D9",
"i+	c #D9DAD6",
"j+	c #D7D8D4",
"k+	c #D7D8D7",
"l+	c #D7D8D5",
"m+	c #D7D8D8",
"n+	c #D7D7D5",
"o+	c #B4B6B2",
"p+	c #323238",
"q+	c #25272B",
"r+	c #959792",
"s+	c #B3B8B8",
"t+	c #B6B8B3",
"u+	c #B4B7B5",
"v+	c #B0B7B3",
"w+	c #BCB8B5",
"x+	c #B3BBB5",
"y+	c #B5B8B5",
"z+	c #B2B8B2",
"A+	c #B8B8B2",
"B+	c #989D9C",
"C+	c #2D3035",
"D+	c #191C20",
"E+	c #3D3D3B",
"F+	c #3D4441",
"G+	c #42453F",
"H+	c #434343",
"I+	c #3E4245",
"J+	c #404543",
"K+	c #3D433F",
"L+	c #434441",
"M+	c #3F4244",
"N+	c #434342",
"O+	c #424345",
"P+	c #3E3C3B",
"Q+	c #191A1D",
"R+	c #151013",
"S+	c #25211D",
"T+	c #28221C",
"U+	c #2A231B",
"V+	c #221F1C",
"W+	c #2D251D",
"X+	c #221F1A",
"Y+	c #29231C",
"Z+	c #29221C",
"`+	c #2D2319",
" @	c #191413",
". + @ # $ % & * & = - % ; > ",
", ' ) ! ~ { ] ^ / ( ! _ : < ",
"[ } | 1 2 3 4 5 6 7 8 9 0 a ",
"< b c d e f g h i j k l m n ",
"> o p q r s t u v w x y z A ",
"B C D E F G H I J K E L M N ",
"O P Q R S T U V W X Y Z `  .",
"..+.@.#.$.%.&.*.=.-.;.>.,.'.",
").!.~.{.].^./.(._.:.<.[.}.|.",
"1.2.3.4.5.6.7.8.9.0.a.b.c.d.",
"e.e.e.e.e.e.e.f.g.h.i.j.k.l.",
"m.n.o.p.q.r.s.t.u.v.w.x.y.z.",
"A.B.C.D.E.F.G.H.I.J.K.L.M.N.",
"O.P.Q.R.S.T.U.V.W.X.Y.Z.`. +",
".+++@+#+$+%+&+*+=+-+;+>+,+'+",
")+!+~+{+>.]+^+/+(+_+:+<+[+}+",
"|+1+2+3+4+5+6+7+8+9+0+a+b+c+",
"d+e+f+g+h+i+$+j+k+l+m+n+o+p+",
"q+r+s+t+u+v+w+s+x+y+z+A+B+C+",
"D+E+F+G+H+I+J+K+L+M+N+O+P+Q+",
"R+S+T+U+T+V+W+X+Y+T+Z+V+`+ @"};
