/* XPM */
static char * n3_xpm[] = {
"14 21 215 2",
"  	c #0D0C15",
". 	c #1A1C20",
"+ 	c #221F18",
"@ 	c #191A1A",
"# 	c #221D1F",
"$ 	c #1A1B1B",
"% 	c #231E20",
"& 	c #191B1D",
"* 	c #181B1E",
"= 	c #050311",
"- 	c #161618",
"; 	c #121217",
"> 	c #271E18",
", 	c #231F1D",
"' 	c #2C2324",
") 	c #1E1E20",
"! 	c #1F1E21",
"~ 	c #2C2629",
"{ 	c #282A2D",
"] 	c #2D2E31",
"^ 	c #20252C",
"/ 	c #2A2125",
"( 	c #282025",
"_ 	c #1A1718",
": 	c #212223",
"< 	c #252118",
"[ 	c #191D21",
"} 	c #191C20",
"| 	c #2D211D",
"1 	c #282525",
"2 	c #706B6A",
"3 	c #90989E",
"4 	c #A7A7A5",
"5 	c #A8ABA4",
"6 	c #99999B",
"7 	c #797879",
"8 	c #383334",
"9 	c #382216",
"0 	c #1D1C1D",
"a 	c #2F211D",
"b 	c #3E424D",
"c 	c #AFBAB7",
"d 	c #D6D6D4",
"e 	c #D7D7DF",
"f 	c #D7D7DB",
"g 	c #D0CBCC",
"h 	c #141015",
"i 	c #2B2B2B",
"j 	c #A7A39E",
"k 	c #D7D7DE",
"l 	c #C9CBC9",
"m 	c #B2B5B4",
"n 	c #B7B5B4",
"o 	c #C9CCC9",
"p 	c #D6D6D8",
"q 	c #D6D6D3",
"r 	c #160E13",
"s 	c #5C4E54",
"t 	c #D5D4D3",
"u 	c #CDCBCA",
"v 	c #62605F",
"w 	c #262923",
"x 	c #312A22",
"y 	c #5F6D68",
"z 	c #CDCFD1",
"A 	c #D7D7DA",
"B 	c #14171F",
"C 	c #707771",
"D 	c #A0A3A0",
"E 	c #262122",
"F 	c #1B1D21",
"G 	c #2A2120",
"H 	c #262128",
"I 	c #B4BDB4",
"J 	c #141418",
"K 	c #4E4E4E",
"L 	c #6A6E69",
"M 	c #606E6C",
"N 	c #475150",
"O 	c #262225",
"P 	c #1C2021",
"Q 	c #222120",
"R 	c #2D2830",
"S 	c #BEC0BC",
"T 	c #D7D7DC",
"U 	c #6D6668",
"V 	c #191D22",
"W 	c #191E25",
"X 	c #282225",
"Y 	c #261F1E",
"Z 	c #1B1D1F",
"` 	c #2E282E",
" .	c #848383",
"..	c #D0D0CF",
"+.	c #6C6461",
"@.	c #180C11",
"#.	c #1E1615",
"$.	c #1E1914",
"%.	c #271614",
"&.	c #241C13",
"*.	c #1D232A",
"=.	c #9C9895",
"-.	c #AEAEAA",
";.	c #B3B0AC",
">.	c #AAB0AC",
",.	c #A9A8A5",
"'.	c #A7AAA6",
").	c #68706E",
"!.	c #070512",
"~.	c #1A1922",
"{.	c #1B1A24",
"].	c #1D1A24",
"^.	c #191A24",
"/.	c #181620",
"(.	c #1B1C23",
"_.	c #18151E",
":.	c #0A0913",
"<.	c #0C0B14",
"[.	c #0B0A14",
"}.	c #1B2820",
"|.	c #2D3A3C",
"1.	c #524E55",
"2.	c #4D5157",
"3.	c #535157",
"4.	c #444944",
"5.	c #3A3638",
"6.	c #0A0813",
"7.	c #2F221F",
"8.	c #1B2021",
"9.	c #282428",
"0.	c #2F211C",
"a.	c #192029",
"b.	c #25241F",
"c.	c #2F2320",
"d.	c #4A4D4E",
"e.	c #B7BDBC",
"f.	c #727C78",
"g.	c #14161D",
"h.	c #1A181C",
"i.	c #453935",
"j.	c #3A3A3B",
"k.	c #3A3939",
"l.	c #272728",
"m.	c #2B221E",
"n.	c #232324",
"o.	c #1D1F26",
"p.	c #2A211E",
"q.	c #72787B",
"r.	c #D6D6D7",
"s.	c #6B5D5F",
"t.	c #14151A",
"u.	c #1F1E23",
"v.	c #A2A8A8",
"w.	c #CBC4C5",
"x.	c #BFC3C5",
"y.	c #666364",
"z.	c #1A2021",
"A.	c #211D1A",
"B.	c #202025",
"C.	c #5E635A",
"D.	c #D7D7D9",
"E.	c #717777",
"F.	c #A9A6A4",
"G.	c #D6D6D5",
"H.	c #A09FA4",
"I.	c #2A2826",
"J.	c #241F1E",
"K.	c #2A2427",
"L.	c #919496",
"M.	c #6E776D",
"N.	c #D5D4D5",
"O.	c #D3D2DA",
"P.	c #919393",
"Q.	c #6A5A5F",
"R.	c #585A5F",
"S.	c #9F9093",
"T.	c #D1CFCF",
"U.	c #CCC9C7",
"V.	c #484146",
"W.	c #221816",
"X.	c #313238",
"Y.	c #A7ACA4",
"Z.	c #D6D6D6",
"`.	c #D5D5D2",
" +	c #8A8480",
".+	c #1F2121",
"++	c #201B16",
"@+	c #201F1B",
"#+	c #343133",
"$+	c #8B908C",
"%+	c #C8C9C6",
"&+	c #CDCACC",
"*+	c #9C9791",
"=+	c #161D2A",
"-+	c #2E1F1A",
";+	c #1B1013",
">+	c #272225",
",+	c #29201D",
"'+	c #1E2526",
")+	c #383C3E",
"!+	c #49565D",
"~+	c #6B706A",
"{+	c #617171",
"]+	c #4C5D51",
"^+	c #3C3F40",
"/+	c #21262A",
"(+	c #101016",
"_+	c #2B1D1A",
":+	c #0D0F1C",
"<+	c #1E1E1B",
"[+	c #26241D",
"}+	c #2C281E",
"|+	c #2C211E",
"1+	c #25221D",
"2+	c #181819",
"  . + @ @ # $ % @ & * = - ; ",
"> , ' ) ! ~ { ] ^ / ( _ : < ",
"[ } | 1 2 3 4 5 6 7 8 9 0 [ ",
"@ a b c d d d e d f g b a @ ",
"h i j k d l m n o p q j i h ",
"r s t d u v w x y z A t s r ",
"B C d d D E F G H I d d C B ",
"J K L M N O P Q R S e T U J ",
"J & V W X Y Z `  ...d d +.B ",
"@.#.$.%.&.*.=.-.;.>.,.'.).  ",
"= = = = = !.~.{.].^./.(._.!.",
"= !.:.= <.[.}.|.1.2.3.4.5.6.",
"J 7.8.9.0.a.b.c.d.e.d d f.g.",
"h.i.j.k.l.m.n.o.p.q.A r.s.t.",
"u.v.w.x.y.z.A.B.} C.d D.E.  ",
"J F.f G.H.I.Y J.K.L.d d +.B ",
"J M.N.d O.P.Q.R.S.T.e U.V.W.",
"  X.Y.d d d d d A Z.`. +.+  ",
"++@+#+$+%+d d d d &+*+=+-+J ",
";+>+,+'+)+!+~+{+]+^+/+(+_+:+",
"J <+[+7.}+|+1+1+|+}+7.- 2+J "};
