/* XPM */
static char * n4_xpm[] = {
"14 21 246 2",
"  	c #151516",
". 	c #1A1A17",
"+ 	c #1C1C18",
"@ 	c #171515",
"# 	c #161717",
"$ 	c #191817",
"% 	c #1D1D1A",
"& 	c #171617",
"* 	c #1C1E20",
"= 	c #16181D",
"- 	c #16171B",
"; 	c #181618",
"> 	c #181616",
", 	c #181817",
"' 	c #1C1D1C",
") 	c #1D1E1D",
"! 	c #191A1B",
"~ 	c #191917",
"{ 	c #1B1C1C",
"] 	c #1A1B1A",
"^ 	c #141617",
"/ 	c #161718",
"( 	c #1A1A19",
"_ 	c #1B1B1F",
": 	c #1C1D1E",
"< 	c #1B1B1D",
"[ 	c #1C1B19",
"} 	c #222220",
"| 	c #1F2121",
"1 	c #1F2122",
"2 	c #1C1C1D",
"3 	c #202122",
"4 	c #343535",
"5 	c #434545",
"6 	c #464545",
"7 	c #464542",
"8 	c #2D2F2E",
"9 	c #1E1F22",
"0 	c #1C1E1F",
"a 	c #1D1C20",
"b 	c #171616",
"c 	c #23221F",
"d 	c #1F2120",
"e 	c #23211F",
"f 	c #1C1C23",
"g 	c #2C2A29",
"h 	c #878787",
"i 	c #A8A9A9",
"j 	c #A8A9AB",
"k 	c #A9A9A7",
"l 	c #585D60",
"m 	c #18191A",
"n 	c #1A1918",
"o 	c #131214",
"p 	c #212220",
"q 	c #1E2224",
"r 	c #22221E",
"s 	c #1E1F21",
"t 	c #61605D",
"u 	c #D1D2D6",
"v 	c #DDDFDF",
"w 	c #D9DCDF",
"x 	c #DCDDDB",
"y 	c #7B787A",
"z 	c #1F1F1A",
"A 	c #1D2022",
"B 	c #1C1D1A",
"C 	c #24211E",
"D 	c #1E2121",
"E 	c #2F3231",
"F 	c #B2BABB",
"G 	c #D6D7D5",
"H 	c #D0D1CF",
"I 	c #D7D8D5",
"J 	c #D8D9D7",
"K 	c #736D74",
"L 	c #1C1A18",
"M 	c #1B1A19",
"N 	c #141315",
"O 	c #121013",
"P 	c #212325",
"Q 	c #21211E",
"R 	c #272522",
"S 	c #7F7B7F",
"T 	c #C3C4C4",
"U 	c #A7AAAA",
"V 	c #D6D6D5",
"W 	c #777677",
"X 	c #1E1E1B",
"Y 	c #1D1F20",
"Z 	c #131314",
"` 	c #151314",
" .	c #202121",
"..	c #212222",
"+.	c #494147",
"@.	c #C8CAC9",
"#.	c #D8D6D4",
"$.	c #808282",
"%.	c #858386",
"&.	c #D7D8D6",
"*.	c #766F76",
"=.	c #201E1A",
"-.	c #151717",
";.	c #191717",
">.	c #232321",
",.	c #302D2A",
"'.	c #979596",
").	c #DADBD9",
"!.	c #C0B9B5",
"~.	c #373736",
"{.	c #7A827E",
"].	c #D9DAD8",
"^.	c #1F1F1E",
"/.	c #222221",
"(.	c #0F0F13",
"_.	c #24211B",
":.	c #5E5B5A",
"<.	c #CDCECC",
"[.	c #D1D2D0",
"}.	c #545C59",
"|.	c #22201C",
"1.	c #787F7B",
"2.	c #D3D4D2",
"3.	c #D1D1CF",
"4.	c #726E73",
"5.	c #1E1D1A",
"6.	c #21211D",
"7.	c #0F111A",
"8.	c #07050D",
"9.	c #0A070E",
"0.	c #444647",
"a.	c #61615F",
"b.	c #555858",
"c.	c #0C0C12",
"d.	c #3D353B",
"e.	c #686260",
"f.	c #556260",
"g.	c #373237",
"h.	c #1F1D1B",
"i.	c #202120",
"j.	c #161A1E",
"k.	c #06050D",
"l.	c #120F16",
"m.	c #17151E",
"n.	c #18131B",
"o.	c #09080F",
"p.	c #08070E",
"q.	c #0F0E17",
"r.	c #19151E",
"s.	c #0C0B13",
"t.	c #1B1B1A",
"u.	c #282023",
"v.	c #9B9795",
"w.	c #ADADB1",
"x.	c #807B7D",
"y.	c #181A16",
"z.	c #191A16",
"A.	c #151413",
"B.	c #696C6F",
"C.	c #B6AEB0",
"D.	c #4B4F54",
"E.	c #1F1D19",
"F.	c #1D2124",
"G.	c #323B3A",
"H.	c #C8CAC8",
"I.	c #D3D3D3",
"J.	c #B3B3B6",
"K.	c #A19696",
"L.	c #9A99A1",
"M.	c #A19797",
"N.	c #B8BABC",
"O.	c #D7D7D6",
"P.	c #9A9A9A",
"Q.	c #393D39",
"R.	c #25221C",
"S.	c #403E3C",
"T.	c #D2D1CF",
"U.	c #DBDCD9",
"V.	c #D7D7D5",
"W.	c #D7D8D7",
"X.	c #D8D8D6",
"Y.	c #D5D4D4",
"Z.	c #D6D7D7",
"`.	c #D8DAD8",
" +	c #716B67",
".+	c #1B1A1A",
"++	c #343435",
"@+	c #A3A3A4",
"#+	c #ACACAE",
"$+	c #ACADAE",
"%+	c #ADADB0",
"&+	c #B0ADAA",
"*+	c #B0ADB0",
"=+	c #C6C9C6",
"-+	c #D6D6D4",
";+	c #CDD1D0",
">+	c #6A746F",
",+	c #1D1B19",
"'+	c #23211D",
")+	c #1C1D21",
"!+	c #383939",
"~+	c #3A3936",
"{+	c #3C3B3B",
"]+	c #383839",
"^+	c #393939",
"/+	c #9B9D9C",
"(+	c #898D95",
"_+	c #40454B",
":+	c #201D1B",
"<+	c #212221",
"[+	c #181818",
"}+	c #1B1D1E",
"|+	c #1B1C1B",
"1+	c #1D1D1C",
"2+	c #1A1D1D",
"3+	c #181D23",
"4+	c #919292",
"5+	c #D9DBD9",
"6+	c #6B6A71",
"7+	c #252525",
"8+	c #20201E",
"9+	c #212223",
"0+	c #20211F",
"a+	c #212121",
"b+	c #8D8F8D",
"c+	c #D1D3D3",
"d+	c #D6D3D2",
"e+	c #656668",
"f+	c #22211D",
"g+	c #222322",
"h+	c #222222",
"i+	c #202020",
"j+	c #202021",
"k+	c #4E5455",
"l+	c #737473",
"m+	c #757276",
"n+	c #41433F",
"o+	c #23211E",
"p+	c #22211F",
"q+	c #21201D",
"r+	c #22211E",
"s+	c #232524",
"t+	c #292823",
"u+	c #292727",
"v+	c #25251F",
"w+	c #24221D",
"  . + @ # $ % & * = - ; > > ",
", ' ) ! ~ { ] ^ ! / ( _ : < ",
"[ } | 1 2 3 4 5 6 7 8 9 0 a ",
"b c d e f g h i j k l % m n ",
"o p q r s t u v w x y z A B ",
"$ C | D E F G H I J K L M N ",
"O P Q R S J T U J V W X Y Z ",
"`  ...+.@.#.$.%.G &.*.=.p -.",
";.>.,.'.).!.~.{.].&.*.^./.(.",
"O _.:.<.[.}.|.1.2.3.4.5.6.7.",
"8.9.0.a.b.c.9.d.e.f.g.h.i.j.",
"k.l.m.n.o.p.k.q.m.r.s.t./.o ",
"u.v.w.x.y.z.A.B.w.C.D.E...F.",
"G.H.I.J.K.L.M.N.u O.P.Q.P R.",
"S.T.U.V V.W.X.Y.Z.`.3. +.+..",
"++@+#+$+%+&+*+=+J -+;+>+,+'+",
")+!+!+~+{+]+^+/+J X.(+_+:+<+",
"[+}+|+1+2+3+) 4+&.5+6+7+8+9+",
"n ..0+..|  .a+b+c+d+e+f+} g+",
"n <+0+h+i+..j+k+l+m+n+c c <+",
"n o+f+p+q+} r+s+t+u+v+w+q+r+"};
