/* XPM */
static char * n5_xpm[] = {
"14 21 219 2",
"  	c #121215",
". 	c #1E1D18",
"+ 	c #191C20",
"@ 	c #1C1B18",
"# 	c #17181B",
"$ 	c #1C1C18",
"% 	c #15161C",
"& 	c #1D1C18",
"* 	c #1E1E1B",
"= 	c #182030",
"- 	c #24231E",
"; 	c #222221",
"> 	c #23221D",
", 	c #1D1D18",
"' 	c #1E1F1E",
") 	c #212222",
"! 	c #201F21",
"~ 	c #1F2123",
"{ 	c #1D2024",
"] 	c #21211E",
"^ 	c #1D2023",
"/ 	c #202120",
"( 	c #202224",
"_ 	c #23211C",
": 	c #222321",
"< 	c #1E2027",
"[ 	c #21211D",
"} 	c #191A19",
"| 	c #1C1E20",
"1 	c #453E3D",
"2 	c #6D716E",
"3 	c #6A7070",
"4 	c #6D716F",
"5 	c #696F71",
"6 	c #6E726F",
"7 	c #6F6C72",
"8 	c #716B73",
"9 	c #2E2E29",
"0 	c #22211B",
"a 	c #81777C",
"b 	c #D9D9D4",
"c 	c #D8D9D7",
"d 	c #D5D5DC",
"e 	c #D9DAD5",
"f 	c #D4D4DE",
"g 	c #625C60",
"h 	c #212224",
"i 	c #151315",
"j 	c #8B8F8D",
"k 	c #D2D3D2",
"l 	c #D7D9D6",
"m 	c #D0D7DB",
"n 	c #D6D7D4",
"o 	c #D6D7D3",
"p 	c #D5D6D7",
"q 	c #D4D6D8",
"r 	c #5D5558",
"s 	c #111016",
"t 	c #2D2B22",
"u 	c #959B9F",
"v 	c #D7D8D9",
"w 	c #CCCBCD",
"x 	c #766F6D",
"y 	c #64635E",
"z 	c #646769",
"A 	c #666766",
"B 	c #676764",
"C 	c #656768",
"D 	c #292C36",
"E 	c #20211E",
"F 	c #12141D",
"G 	c #322E2D",
"H 	c #B8ADAF",
"I 	c #BEC0BE",
"J 	c #232727",
"K 	c #1D2127",
"L 	c #202126",
"M 	c #23221C",
"N 	c #1B2230",
"O 	c #1D2125",
"P 	c #222220",
"Q 	c #151212",
"R 	c #353739",
"S 	c #BDBEBC",
"T 	c #AAAEAB",
"U 	c #2B2A2E",
"V 	c #3C3937",
"W 	c #403C3E",
"X 	c #393934",
"Y 	c #2D2A2C",
"Z 	c #25231C",
"` 	c #1A1F29",
" .	c #23231F",
"..	c #212221",
"+.	c #141011",
"@.	c #3A3D40",
"#.	c #CED0CC",
"$.	c #BEB6BE",
"%.	c #A3999F",
"&.	c #C5C2C3",
"*.	c #D4CCD1",
"=.	c #BDBFBF",
"-.	c #AFA6A7",
";.	c #6C676B",
">.	c #222121",
",.	c #222324",
"'.	c #1D232A",
").	c #0E0B10",
"!.	c #3A382F",
"~.	c #AAB3AC",
"{.	c #A9B2AB",
"].	c #6A7571",
"^.	c #23262A",
"/.	c #05030F",
"(.	c #0B0A14",
"_.	c #181A22",
":.	c #1A1919",
"<.	c #1C1A17",
"[.	c #1D1818",
"}.	c #3F353A",
"|.	c #453F48",
"1.	c #3B3841",
"2.	c #0B0A12",
"3.	c #4A4953",
"4.	c #52515C",
"5.	c #514C5B",
"6.	c #4C4751",
"7.	c #180F18",
"8.	c #101019",
"9.	c #24221C",
"0.	c #222426",
"a.	c #1E1F1F",
"b.	c #1F2025",
"c.	c #212223",
"d.	c #1B202A",
"e.	c #22201C",
"f.	c #898385",
"g.	c #D6D7D2",
"h.	c #BCBDB8",
"i.	c #252629",
"j.	c #1F2223",
"k.	c #1D1F1F",
"l.	c #242320",
"m.	c #202125",
"n.	c #20211F",
"o.	c #222323",
"p.	c #606161",
"q.	c #D9DAD6",
"r.	c #D3D3DD",
"s.	c #B5B5B4",
"t.	c #171621",
"u.	c #5F6665",
"v.	c #6C7170",
"w.	c #393F42",
"x.	c #1D1E1E",
"y.	c #25221A",
"z.	c #21201C",
"A.	c #1D1F21",
"B.	c #5D6468",
"C.	c #A1AAA4",
"D.	c #100F16",
"E.	c #22191F",
"F.	c #B8B3B0",
"G.	c #D7D8D3",
"H.	c #8A8990",
"I.	c #1C1E1F",
"J.	c #22221D",
"K.	c #2B2523",
"L.	c #A3A0AB",
"M.	c #6B6C6C",
"N.	c #868A88",
"O.	c #D8D9D4",
"P.	c #D3D3DE",
"Q.	c #CACCC9",
"R.	c #7F787E",
"S.	c #444446",
"T.	c #5A5252",
"U.	c #8E9391",
"V.	c #D1D1D5",
"W.	c #BABCBA",
"X.	c #393A38",
"Y.	c #17181D",
"Z.	c #161619",
"`.	c #323835",
" +	c #B2B9B1",
".+	c #D6D6DA",
"++	c #D7D7D4",
"@+	c #D2D1DD",
"#+	c #D5D8DA",
"$+	c #D2D5DB",
"%+	c #747475",
"&+	c #1E2123",
"*+	c #33393C",
"=+	c #939592",
"-+	c #C9CCCA",
";+	c #BFC0BE",
">+	c #66756F",
",+	c #1F201E",
"'+	c #202222",
")+	c #161414",
"!+	c #171616",
"~+	c #20201E",
"{+	c #272A2C",
"]+	c #3C3E3D",
"^+	c #5F5E5D",
"/+	c #6A7375",
"(+	c #5D6B6A",
"_+	c #4D4F49",
":+	c #373A3F",
"<+	c #2C2820",
"[+	c #141215",
"}+	c #26241C",
"|+	c #24231C",
"1+	c #292519",
"2+	c #24221A",
"3+	c #28251A",
"4+	c #25231D",
"5+	c #292417",
"6+	c #6D6C6E",
"  . + . @ # $ % & * = - ; > ",
", ' ) ! ~ { ] ^ / ( _ : < [ ",
"} | 1 2 3 4 5 6 5 7 8 6 9 0 ",
"$ ; a b c d e f e e e e g h ",
"i : j k l m n o o p q o r > ",
"s t u v w x y z A B B C D E ",
"F G H e I J K L M N h O P > ",
"Q R S f T U V W X Y Z `  ...",
"+.@.#.e $.%.&.*.=.-.;.>.,.'.",
").!.~.~.~.~.~.~.~.~.{.].^.0 ",
"/.(._._._._._._._._._._.:.<.",
"/.[.}.|.1./././.2.3.4.5.6.7.",
"8.9.0.a.Z b.c.d.e.f.g.o h.i.",
"+.j.( k.l.m.n.c.o.p.q.r.s.t.",
"+ u.5 v.w.x.y.z.A.B.e e C.D.",
"E.F.e G.H.0.I.J.K.L.f e M.+.",
"i N.O.P.Q.R.S.T.U.V.O.W.X.Y.",
"Z.`. +e e .+++@+g.#+$+%+o.+.",
"+.&+*+=+-+e e e e ;+>+,+'+)+",
"!+K ~+{+]+^+/+(+_+:+<+' o.[+",
"+.}+|+1+2+3+4+4+3+2+1+|+5+6+"};
