/* XPM */
static char * n6_xpm[] = {
"14 21 200 2",
"  	c #111114",
". 	c #1B1C1A",
"+ 	c #181B1F",
"@ 	c #1C1C18",
"# 	c #1B1C18",
"$ 	c #191A1A",
"% 	c #1A1B19",
"& 	c #1A1B1A",
"* 	c #191A1B",
"= 	c #151614",
"- 	c #161719",
"; 	c #1B1D1D",
"> 	c #16191D",
", 	c #20211F",
"' 	c #1E2023",
") 	c #1F2121",
"! 	c #1E2022",
"~ 	c #27241D",
"{ 	c #29292B",
"] 	c #2D3032",
"^ 	c #2C2D2D",
"/ 	c #23272A",
"( 	c #1E2024",
"_ 	c #1D1D1A",
": 	c #1A1C22",
"< 	c #1F2122",
"[ 	c #22221D",
"} 	c #1E2021",
"| 	c #212320",
"1 	c #353234",
"2 	c #817A77",
"3 	c #9EA0A9",
"4 	c #AFAFAE",
"5 	c #A6A6A4",
"6 	c #929394",
"7 	c #5B5D5C",
"8 	c #1B1C1B",
"9 	c #1F201D",
"0 	c #141415",
"a 	c #1E1F21",
"b 	c #636365",
"c 	c #C4C7C6",
"d 	c #D3D7DC",
"e 	c #D9D8D5",
"f 	c #D8D8D6",
"g 	c #D2D7DC",
"h 	c #CED4DB",
"i 	c #686968",
"j 	c #161617",
"k 	c #131313",
"l 	c #222524",
"m 	c #4A4A46",
"n 	c #C5C5C6",
"o 	c #D8D7D4",
"p 	c #BDBEBD",
"q 	c #B2B3B0",
"r 	c #C2C1BF",
"s 	c #D7D6D3",
"t 	c #D9D8D6",
"u 	c #948E90",
"v 	c #1C1A1C",
"w 	c #1E1F1E",
"x 	c #131210",
"y 	c #262727",
"z 	c #959496",
"A 	c #D4D6DA",
"B 	c #D5D7D8",
"C 	c #AFACAA",
"D 	c #393C40",
"E 	c #262720",
"F 	c #463E43",
"G 	c #BAB9B6",
"H 	c #D6D6D4",
"I 	c #8C8E8F",
"J 	c #14171A",
"K 	c #1C1D1C",
"L 	c #151618",
"M 	c #4D4C49",
"N 	c #D2D0D3",
"O 	c #D7D7D4",
"P 	c #CFCDCC",
"Q 	c #515050",
"R 	c #1F2020",
"S 	c #3C3735",
"T 	c #3B2E2A",
"U 	c #181C25",
"V 	c #15171B",
"W 	c #20201F",
"X 	c #0F1014",
"Y 	c #717473",
"Z 	c #D1D6DC",
"` 	c #C3C0BF",
" .	c #2E282C",
"..	c #2E2F30",
"+.	c #38393A",
"@.	c #36383A",
"#.	c #2C2D2F",
"$.	c #212224",
"%.	c #1C1C19",
"&.	c #181919",
"*.	c #8C8F8E",
"=.	c #DCD9D7",
"-.	c #DAD8D6",
";.	c #B5B5B3",
">.	c #676A6B",
",.	c #ACADAD",
"'.	c #C1C1C1",
").	c #BEBEBF",
"!.	c #ADABAA",
"~.	c #7F7E82",
"{.	c #2B2521",
"].	c #121316",
"^.	c #0E0D0E",
"/.	c #898B89",
"(.	c #ADAFAD",
"_.	c #7B7E7C",
":.	c #1D1F21",
"<.	c #07060A",
"[.	c #18181B",
"}.	c #1D1D1F",
"|.	c #111115",
"1.	c #21211E",
"2.	c #0B0A0D",
"3.	c #434549",
"4.	c #515458",
"5.	c #5A5351",
"6.	c #4F5255",
"7.	c #232226",
"8.	c #3A3839",
"9.	c #45484A",
"0.	c #121315",
"a.	c #AAAAAD",
"b.	c #DAD9D6",
"c.	c #D1D7DE",
"d.	c #C7C6C3",
"e.	c #383832",
"f.	c #1F2223",
"g.	c #1F2124",
"h.	c #575353",
"i.	c #D0D0CE",
"j.	c #232727",
"k.	c #949494",
"l.	c #B4B2B9",
"m.	c #1D1F22",
"n.	c #403D3D",
"o.	c #C3BEBC",
"p.	c #25241A",
"q.	c #7F7D83",
"r.	c #B8B8BB",
"s.	c #1F2325",
"t.	c #1F2326",
"u.	c #202120",
"v.	c #202223",
"w.	c #3E4041",
"x.	c #C1C2C2",
"y.	c #121314",
"z.	c #474B45",
"A.	c #CECDCF",
"B.	c #DCDAD7",
"C.	c #C9CCCF",
"D.	c #5B544C",
"E.	c #202020",
"F.	c #716A6F",
"G.	c #D4D5D7",
"H.	c #232623",
"I.	c #111113",
"J.	c #2D2C26",
"K.	c #9D9A9A",
"L.	c #D4D6D6",
"M.	c #C0BBBE",
"N.	c #646363",
"O.	c #474746",
"P.	c #6E6E6F",
"Q.	c #C0C2C3",
"R.	c #D6D6D6",
"S.	c #212321",
"T.	c #111012",
"U.	c #49494D",
"V.	c #CCCDCC",
"W.	c #D8D7D5",
"X.	c #D7D6D4",
"Y.	c #D4D4D3",
"Z.	c #D3D6D9",
"`.	c #D3D2D1",
" +	c #23241E",
".+	c #484D4E",
"++	c #AAA9A9",
"@+	c #D1D3D8",
"#+	c #D8D8D7",
"$+	c #D3D3D1",
"%+	c #939297",
"&+	c #1D2128",
"*+	c #2C2E31",
"=+	c #4A504E",
"-+	c #6E6F6A",
";+	c #767880",
">+	c #5F6465",
",+	c #454846",
"'+	c #2A2C2C",
")+	c #23231C",
"  . + @ # $ % & * * * = - ; ",
"> , ' ) ! ~ { ] ^ / ( _ : < ",
"& [ } | 1 2 3 4 5 6 7 8 9 , ",
"0 a a b c d e f g e h i j & ",
"k l m n e o p q r s t u v w ",
"x y z A B C D E F G H I J K ",
"L M N O P Q R R } S T U V W ",
"X Y Z t `  ...+.@.#.$.%.&.[ ",
"x *.=.-.;.>.,.'.).!.~.{.].* ",
"^./.(.(.(.(.(.(.(.(.(._.:.W ",
"<.[.}.}.}.}.}.}.}.}.}.}.|.1.",
"2.3.4.5.6.7.<.<.<.8.4.4.9.@ ",
"0.a.b.c.d.e.f.g.[ h.i.b.a.j.",
"x k.H -.l.1., m.< n.o.H k.p.",
"x q.e O r.s.t.u.v.w.x.e q.p.",
"y.z.A.B.C.D.E.R } F.G.A.z.H.",
"I.J.K.e L.M.N.O.P.Q.R.K.J.S.",
"T.R U.V.W.W.X.Y.Z.e `.U.R R ",
"0. +} .+++@+#+e -.$+%+}  +j.",
"X , &+[ *+=+-+;+>+,+'+&+, m.",
"x [ [ )+)+[ [ [ [ )+R [ [ p."};
