/* XPM */
static char * n7_xpm[] = {
"14 21 153 2",
"  	c #17140F",
". 	c #1D1C19",
"+ 	c #18140F",
"@ 	c #1E1C17",
"# 	c #1F1D16",
"$ 	c #201E14",
"% 	c #201D15",
"& 	c #1D1C18",
"* 	c #191611",
"= 	c #1C1E23",
"- 	c #191712",
"; 	c #1E1F21",
"> 	c #1F1F20",
", 	c #202120",
"' 	c #202121",
") 	c #21211F",
"! 	c #1F2022",
"~ 	c #1F2021",
"{ 	c #1E1E1E",
"] 	c #1A1A1E",
"^ 	c #1B1B1C",
"/ 	c #232620",
"( 	c #646866",
"_ 	c #6E7072",
": 	c #6E7177",
"< 	c #6D6F74",
"[ 	c #707274",
"} 	c #6D6D70",
"| 	c #71726E",
"1 	c #62656A",
"2 	c #3E4743",
"3 	c #170E11",
"4 	c #3E3D42",
"5 	c #C4C5C7",
"6 	c #D8D8D5",
"7 	c #D3D4D7",
"8 	c #D8D8D9",
"9 	c #D8D9DA",
"0 	c #A6A1A1",
"a 	c #292323",
"b 	c #383E3A",
"c 	c #C1C6C3",
"d 	c #D8D8D7",
"e 	c #D8D9DE",
"f 	c #D8D8D8",
"g 	c #D8D8D6",
"h 	c #D8D9DD",
"i 	c #D7D7D4",
"j 	c #626464",
"k 	c #23221C",
"l 	c #222023",
"m 	c #646562",
"n 	c #6C6C6A",
"o 	c #67686C",
"p 	c #6C6B65",
"q 	c #696A69",
"r 	c #74716D",
"s 	c #C7C6C5",
"t 	c #C7C5C2",
"u 	c #363941",
"v 	c #24231B",
"w 	c #14110F",
"x 	c #24231C",
"y 	c #1E2226",
"z 	c #242423",
"A 	c #7C7D82",
"B 	c #CCCFDB",
"C 	c #D7D7D5",
"D 	c #98949A",
"E 	c #2B2927",
"F 	c #1D1F24",
"G 	c #131111",
"H 	c #212120",
"I 	c #1E1F24",
"J 	c #1F2123",
"K 	c #22221F",
"L 	c #564C50",
"M 	c #C9CACA",
"N 	c #C3C7C3",
"O 	c #39423E",
"P 	c #24231F",
"Q 	c #131214",
"R 	c #202222",
"S 	c #202021",
"T 	c #373439",
"U 	c #B0ADAD",
"V 	c #D3D3D0",
"W 	c #6B706B",
"X 	c #0F0C0C",
"Y 	c #191713",
"Z 	c #686E6C",
"` 	c #A9B2AD",
" .	c #878887",
"..	c #231F1F",
"+.	c #090508",
"@.	c #171618",
"#.	c #1B1C1D",
"$.	c #141215",
"%.	c #0D090C",
"&.	c #353C37",
"*.	c #5B5157",
"=.	c #4D505A",
"-.	c #363835",
";.	c #0E080B",
">.	c #3E3736",
",.	c #C5C6CB",
"'.	c #D4D6DB",
").	c #D6D6D3",
"!.	c #7C7478",
"~.	c #242221",
"{.	c #1D1F25",
"].	c #22221E",
"^.	c #636566",
"/.	c #D6D7DC",
"(.	c #CBCBC9",
"_.	c #3E403F",
":.	c #21221E",
"<.	c #22231F",
"[.	c #252428",
"}.	c #A0A0A0",
"|.	c #AFADAD",
"1.	c #1E2023",
"2.	c #414441",
"3.	c #BFC1C1",
"4.	c #D3D3D2",
"5.	c #797476",
"6.	c #121011",
"7.	c #585857",
"8.	c #D0D0D1",
"9.	c #5F5B58",
"0.	c #212526",
"a.	c #212424",
"b.	c #212323",
"c.	c #232421",
"d.	c #101119",
"e.	c #212222",
"f.	c #676E6F",
"g.	c #C8C9CB",
"h.	c #4A4B4A",
"i.	c #202325",
"j.	c #71797C",
"k.	c #BBC1C2",
"l.	c #C0BEC1",
"m.	c #9FA5A3",
"n.	c #2E3638",
"o.	c #181717",
"p.	c #2E312E",
"q.	c #393B38",
"r.	c #3A3A38",
"s.	c #353532",
"t.	c #222423",
"u.	c #23221D",
"v.	c #1E1F23",
"  . + @ # $ . % & $ . $ . $ ",
"* = - ; > , ' ) ! ) ~ { ] ^ ",
"/ ( _ : < [ [ [ [ } | 1 2 3 ",
"4 5 6 6 6 6 7 6 6 8 9 6 0 a ",
"b c d 6 e 6 f g h 6 6 i j k ",
"l m n o o p q q r s 6 t u v ",
"w ! ~ , x y ) z A B C D E F ",
"G H , I H J K L M 6 N O P F ",
"Q R ~ , ! S T U 6 V W F ! ! ",
"X Y Y Y Y Y Z ` `  ...Y Y Y ",
"+.+.+.+.+.+.@.#.#.$.+.+.+.+.",
"+.+.+.+.%.&.*.=.-.;.+.+.+.+.",
"w H ~ , >.,.'.).!.~.F {.{.].",
"G H , F ^.6 /.(._.:.F {.{.].",
"Q <., [.}.6 6 |.y ].F {.{.].",
"w 1.].2.3.h 4.5., ~ ! , ) ) ",
"6.k 1.7.8.6 ).9.! , 0.a.b.c.",
"d.e., f.6 6 g.h.) F ].) H ! ",
"w <.i.j.k.l.m.n.{.) ) ~ ! H ",
"o., ) p.q.r.s.t.) u.v.! ! ! ",
"w H ) ].].) H H ) ].].) H v "};
