/* XPM */
static char * n8_xpm[] = {
"14 21 148 2",
"  	c #171413",
". 	c #1D1914",
"+ 	c #1B1915",
"@ 	c #19171B",
"# 	c #1D1A15",
"$ 	c #181513",
"% 	c #1D1A1C",
"& 	c #16141A",
"* 	c #1F1C1B",
"= 	c #1D1A17",
"- 	c #181616",
"; 	c #201F24",
"> 	c #222223",
", 	c #212123",
"' 	c #232321",
") 	c #23262A",
"! 	c #30302C",
"~ 	c #373431",
"{ 	c #2C2C2B",
"] 	c #24232C",
"^ 	c #171518",
"/ 	c #22201A",
"( 	c #292B27",
"_ 	c #6B6369",
": 	c #939A9D",
"< 	c #A9A8A9",
"[ 	c #B7B1B1",
"} 	c #A0A1A8",
"| 	c #817F80",
"1 	c #191719",
"2 	c #202025",
"3 	c #3C3B35",
"4 	c #B5B9B7",
"5 	c #D7D7D6",
"6 	c #D8D8D7",
"7 	c #191515",
"8 	c #302D29",
"9 	c #9E9BA1",
"0 	c #D6D6D6",
"a 	c #D0D1D0",
"b 	c #BAB8B8",
"c 	c #B4B4B3",
"d 	c #BEC1C0",
"e 	c #D5D6D5",
"f 	c #131212",
"g 	c #3D4143",
"h 	c #CFCFCF",
"i 	c #D2D3D2",
"j 	c #7C807B",
"k 	c #312C28",
"l 	c #202127",
"m 	c #393E39",
"n 	c #A8A9AA",
"o 	c #5A5753",
"p 	c #C2C4C4",
"q 	c #272D2F",
"r 	c #1F2026",
"s 	c #24231E",
"t 	c #212020",
"u 	c #5F5A5E",
"v 	c #515155",
"w 	c #D6D6D5",
"x 	c #C9C9C8",
"y 	c #4A453F",
"z 	c #242027",
"A 	c #232220",
"B 	c #252224",
"C 	c #7D7977",
"D 	c #34332D",
"E 	c #B0B3B5",
"F 	c #B1ADAB",
"G 	c #696566",
"H 	c #5F5656",
"I 	c #7D7C79",
"J 	c #C8C7C6",
"K 	c #0E0D10",
"L 	c #1A1815",
"M 	c #232929",
"N 	c #9B9897",
"O 	c #AEB2AF",
"P 	c #07050D",
"Q 	c #171319",
"R 	c #1C1C22",
"S 	c #1A181A",
"T 	c #4D4F54",
"U 	c #4A4E51",
"V 	c #5C5351",
"W 	c #5A5352",
"X 	c #232933",
"Y 	c #181A1E",
"Z 	c #403E40",
"` 	c #555258",
" .	c #71777D",
"..	c #CFD0CF",
"+.	c #5D676F",
"@.	c #252521",
"#.	c #211F1C",
"$.	c #272C30",
"%.	c #8D9296",
"&.	c #A3A4A2",
"*.	c #B5AFB5",
"=.	c #242423",
"-.	c #24231C",
";.	c #232320",
">.	c #4C4D4A",
",.	c #CBCBCA",
"'.	c #ADADAA",
").	c #A8A0A3",
"!.	c #202023",
"~.	c #24231B",
"{.	c #1F2027",
"].	c #40413B",
"^.	c #BDBFBF",
"/.	c #8D8C8C",
"(.	c #BDBFBE",
"_.	c #363536",
":.	c #212124",
"<.	c #232119",
"[.	c #63656E",
"}.	c #D3D4D3",
"|.	c #5A6066",
"1.	c #D2D2D1",
"2.	c #AEAEB0",
"3.	c #6C6666",
"4.	c #5E5658",
"5.	c #7A7E84",
"6.	c #C6C6C6",
"7.	c #2C2A2E",
"8.	c #9E9999",
"9.	c #D7D8D7",
"0.	c #252A26",
"a.	c #7D8085",
"b.	c #D3D3D2",
"c.	c #8B8B90",
"d.	c #22211F",
"e.	c #232426",
"f.	c #3A3A38",
"g.	c #4D5254",
"h.	c #6B6866",
"i.	c #6E7576",
"j.	c #596159",
"k.	c #44494C",
"l.	c #2D2C29",
"m.	c #242219",
"n.	c #25231A",
"o.	c #24231F",
"p.	c #24231A",
"q.	c #24231D",
"  . + @ # $ % & * = @ + .   ",
"- ; > , ' ) ! ~ { ] , > ; - ",
"^ / > ( _ : < [ } | ( > / ^ ",
"1 2 3 4 5 6 6 6 6 5 4 3 2 1 ",
"7 8 9 0 5 a b c d e 0 9 8 7 ",
"f g h 6 i j k l m n 6 h g f ",
"f o 6 6 p q r s t u 6 6 o f ",
"f v w 6 x y z A B C 6 w v f ",
"f D E 6 w F G H I J 6 E D f ",
"K L M N O O O O O O N M L K ",
"P P P Q R R R R R R Q P P P ",
"P S T U V W X Y Z ` U T S P ",
"f  .6 6 ..+.@.#.$.%.w 6  .f ",
"f &.6 6 *.=.-.2 ;.>.,.6 &.f ",
"f '.6 6 ).;.!.~.{.].^.6 '.f ",
"f /.6 6 (._.:., <.[.}.6 /.f ",
"f |.1.6 w 2.3.4.5.6.6 1.|.f ",
"f 7.8.9.6 6 6 6 6 6 9.8.7.f ",
"f ' 0.a.(.6 6 6 6 b.c.0.' f ",
"f d.:.e.f.g.h.i.j.k.l.:.d.f ",
"f m.;.n.~.o.m.' p.q.o.;.m.f "};
