/* XPM */
static char * n9_xpm[] = {
"14 21 235 2",
"  	c #121215",
". 	c #191D20",
"+ 	c #191C20",
"@ 	c #1E1C18",
"# 	c #1D1E1F",
"$ 	c #191C1F",
"% 	c #1B1514",
"& 	c #1A1D20",
"* 	c #211D17",
"= 	c #221D17",
"- 	c #191A19",
"; 	c #222122",
"> 	c #191817",
", 	c #1E2227",
"' 	c #23201C",
") 	c #29231F",
"! 	c #1E2024",
"~ 	c #2B2321",
"{ 	c #2D2F31",
"] 	c #272C2F",
"^ 	c #26282B",
"/ 	c #1F1F1E",
"( 	c #252323",
"_ 	c #14151A",
": 	c #241E19",
"< 	c #1E2229",
"[ 	c #1A191C",
"} 	c #1C1E21",
"| 	c #191F26",
"1 	c #2A262C",
"2 	c #6E6B72",
"3 	c #979297",
"4 	c #ABACAF",
"5 	c #A7AEAB",
"6 	c #9A9B9A",
"7 	c #65666A",
"8 	c #2A2529",
"9 	c #14161D",
"0 	c #241F1C",
"a 	c #27211D",
"b 	c #1B110F",
"c 	c #25221F",
"d 	c #4E504F",
"e 	c #BFBABA",
"f 	c #D6D7D5",
"g 	c #D5D6D1",
"h 	c #D6D7D2",
"i 	c #D6D7DD",
"j 	c #D7D8D2",
"k 	c #D6D6DC",
"l 	c #BFBAB6",
"m 	c #171516",
"n 	c #3A3838",
"o 	c #BBB8B4",
"p 	c #D5D6DE",
"q 	c #D6D7D3",
"r 	c #CCCCD3",
"s 	c #BCBAB7",
"t 	c #B8BCB5",
"u 	c #CDCECB",
"v 	c #D4D5DC",
"w 	c #141417",
"x 	c #888482",
"y 	c #D9DADE",
"z 	c #CBCDCA",
"A 	c #5A6767",
"B 	c #382D28",
"C 	c #242D2C",
"D 	c #666662",
"E 	c #CCCEC9",
"F 	c #D4D5D1",
"G 	c #16131E",
"H 	c #B0AFAE",
"I 	c #D7D8D9",
"J 	c #8D9699",
"K 	c #2B231A",
"L 	c #1F2022",
"M 	c #1F232A",
"N 	c #212020",
"O 	c #808A87",
"P 	c #DADBD4",
"Q 	c #302B2E",
"R 	c #BFBDBB",
"S 	c #D4D5D9",
"T 	c #D8D9D5",
"U 	c #797575",
"V 	c #1D2127",
"W 	c #201F1E",
"X 	c #1D2025",
"Y 	c #6E6465",
"Z 	c #2A232E",
"` 	c #BFBCB9",
" .	c #D5D6DB",
"..	c #D4D5D6",
"+.	c #7B7F7D",
"@.	c #24201C",
"#.	c #222327",
"$.	c #1A2027",
"%.	c #5D6B6C",
"&.	c #D1D2D0",
"*.	c #0D1111",
"=.	c #8A958B",
"-.	c #A9B3AC",
";.	c #B9B3AC",
">.	c #8C9490",
",.	c #271F1A",
"'.	c #1A1413",
").	c #27190F",
"!.	c #1D181A",
"~.	c #8A8683",
"{.	c #C2B3AC",
"].	c #05030F",
"^.	c #13151E",
"/.	c #171A23",
"(.	c #1F1A23",
"_.	c #161820",
":.	c #0A060F",
"<.	c #181720",
"[.	c #241A23",
"}.	c #0B0C16",
"|.	c #344641",
"1.	c #55515B",
"2.	c #53515C",
"3.	c #4C4E5D",
"4.	c #484D56",
"5.	c #475157",
"6.	c #4C515E",
"7.	c #564D5B",
"8.	c #3C404D",
"9.	c #12141C",
"0.	c #27221E",
"a.	c #4A4A4F",
"b.	c #B7B4AF",
"c.	c #D3D3D0",
"d.	c #CDCFD6",
"e.	c #CED0CB",
"f.	c #CFCFCC",
"g.	c #B7B3B1",
"h.	c #AFB2B8",
"i.	c #121621",
"j.	c #12121A",
"k.	c #1E1E1E",
"l.	c #232326",
"m.	c #353533",
"n.	c #636364",
"o.	c #83847F",
"p.	c #8D948E",
"q.	c #7D7B84",
"r.	c #5F5B53",
"s.	c #6E7072",
"t.	c #D8D9D6",
"u.	c #BBB7B6",
"v.	c #241B22",
"w.	c #131118",
"x.	c #201F1D",
"y.	c #231F1C",
"z.	c #1B1E22",
"A.	c #202226",
"B.	c #292016",
"C.	c #212429",
"D.	c #828288",
"E.	c #D4D5D5",
"F.	c #BDBFBB",
"G.	c #282831",
"H.	c #1A1513",
"I.	c #656266",
"J.	c #A3A3A6",
"K.	c #B1A5A8",
"L.	c #939C94",
"M.	c #46393D",
"N.	c #202028",
"O.	c #222126",
"P.	c #32332F",
"Q.	c #BDC0BE",
"R.	c #D7D8DA",
"S.	c #DADBD9",
"T.	c #BCBAB4",
"U.	c #272222",
"V.	c #151315",
"W.	c #4C5658",
"X.	c #D7D8D5",
"Y.	c #D4D5D7",
"Z.	c #D2D1D3",
"`.	c #94979B",
" +	c #5C4A4D",
".+	c #4A4E52",
"++	c #9D9FA4",
"@+	c #D4D6D1",
"#+	c #D9DAD7",
"$+	c #CAC9C8",
"%+	c #676261",
"&+	c #0E0F13",
"*+	c #171414",
"=+	c #2A2F31",
"-+	c #A2A9A2",
";+	c #D4D5D3",
">+	c #D5D5DA",
",+	c #D7D6D3",
"'+	c #D5D6D7",
")+	c #D1D1CD",
"!+	c #696161",
"~+	c #1E2228",
"{+	c #272320",
"]+	c #333236",
"^+	c #949A9C",
"/+	c #D0D2CD",
"(+	c #D7D7DD",
"_+	c #ACB0B2",
":+	c #5C5D58",
"<+	c #1D2318",
"[+	c #1F2321",
"}+	c #222326",
"|+	c #101412",
"1+	c #1F2320",
"2+	c #232223",
"3+	c #2E2C28",
"4+	c #424D41",
"5+	c #606664",
"6+	c #6B8076",
"7+	c #657272",
"8+	c #455251",
"9+	c #373537",
"0+	c #272A18",
"a+	c #222120",
"b+	c #1F1B18",
"c+	c #160F11",
"d+	c #222020",
"e+	c #2E261F",
"f+	c #221F1B",
"g+	c #2D251E",
"h+	c #25201C",
"i+	c #2C251E",
"j+	c #26201B",
"k+	c #27221F",
"l+	c #0D0C13",
"  . + @ # $ % & * . = - + ; ",
"> , ' ) ! ~ { ] ^ / ( _ : < ",
"[ } | 1 2 3 4 5 6 7 8 9 0 a ",
"b c d e f g h i j k l d c b ",
"m n o p q r s t u i v o n m ",
"w x y q z A B C D E F y x w ",
"G H g I J K L M N O P g H G ",
"Q R S T U V W X N Y P S R Q ",
"Z `  ...+.@.#.$.N %.&. .` Z ",
"*.=.-.;.>.,.'.).!.~.{.-.=.*.",
"].^./.(._.:.].].].<.[./.^.].",
"].}.|.1.2.3.4.5.6.2.7.6.8.].",
"9.0.a.b.c.j d.e.f.g.h I h.i.",
"j.k.l.m.n.o.p.q.r.s.T t.u.v.",
"w.x.y.; z.A.B.C.* D.E.h F.G.",
"H.I.J.K.L.M.N.O.P.Q.R.S.T.U.",
"V.W.X.Y.Z.`. +.+++@+#+$+%+&+",
"*+=+-+P ;+>+,+,+'+q )+!+~+- ",
"w {+]+^+/+P (+j j _+:+<+[+}+",
"|+1+2+3+4+5+6+7+8+9+{+0+a+b+",
"c+d+y.e+f+@.g+f+h+i+f+j+k+l+"};
