/* XPM */
static char * app_xpm[] = {
"32 32 295 2",
"  	c None",
". 	c #3F4561",
"+ 	c #434B66",
"@ 	c #657693",
"# 	c #414965",
"$ 	c #444B66",
"% 	c #9AA8BE",
"& 	c #9BADC3",
"* 	c #687D9D",
"= 	c #424965",
"- 	c #9CAABE",
"; 	c #AEBCCF",
"> 	c #617C9F",
", 	c #5F7A9F",
"' 	c #6D819F",
") 	c #9DAAC0",
"! 	c #AFBDCF",
"~ 	c #99ABC2",
"{ 	c #98A9C1",
"] 	c #92A5BE",
"^ 	c #768DAD",
"/ 	c #6F82A1",
"( 	c #9EACC0",
"_ 	c #B1BDD0",
": 	c #9BACC3",
"< 	c #9CACC3",
"[ 	c #9CADC4",
"} 	c #8095B3",
"| 	c #3B5B89",
"1 	c #6880A4",
"2 	c #7384A3",
"3 	c #424A65",
"4 	c #A0ADC1",
"5 	c #B3BFD1",
"6 	c #9DADC4",
"7 	c #9EAEC5",
"8 	c #9FAEC5",
"9 	c #617AA0",
"0 	c #44628F",
"a 	c #6C84A7",
"b 	c #7687A5",
"c 	c #434A66",
"d 	c #444C66",
"e 	c #A2ADC2",
"f 	c #B3C0D2",
"g 	c #9FAFC5",
"h 	c #A0AFC6",
"i 	c #A1B0C6",
"j 	c #A2B0C7",
"k 	c #91A2BD",
"l 	c #516C96",
"m 	c #486491",
"n 	c #7187A9",
"o 	c #7A8AA7",
"p 	c #A3AFC2",
"q 	c #B5C1D3",
"r 	c #A1B0C7",
"s 	c #A2B1C7",
"t 	c #A3B1C8",
"u 	c #A4B2C8",
"v 	c #A5B2C9",
"w 	c #5D769E",
"x 	c #4C6793",
"y 	c #4D6894",
"z 	c #4E6894",
"A 	c #7A8EAF",
"B 	c #96A2B9",
"C 	c #454C67",
"D 	c #A4AFC3",
"E 	c #B7C2D3",
"F 	c #A5B3C9",
"G 	c #A6B3C9",
"H 	c #A7B4CA",
"I 	c #8799B6",
"J 	c #57709A",
"K 	c #526B97",
"L 	c #536C98",
"M 	c #667BA2",
"N 	c #BDC6D7",
"O 	c #A7B0C5",
"P 	c #A5B0C4",
"Q 	c #B9C3D5",
"R 	c #A6B4CA",
"S 	c #A8B5CB",
"T 	c #A9B5CB",
"U 	c #A6B3CA",
"V 	c #8294B3",
"W 	c #5C749C",
"X 	c #6379A1",
"Y 	c #586F9A",
"Z 	c #6B7FA6",
"` 	c #ACB7CD",
" .	c #C0C8D9",
"..	c #A9B2C5",
"+.	c #454C66",
"@.	c #A7B2C5",
"#.	c #BAC4D6",
"$.	c #A8B5CA",
"%.	c #A9B6CC",
"&.	c #AAB6CC",
"*.	c #ABB7CD",
"=.	c #93A2BE",
"-.	c #5A719C",
";.	c #7E8FB1",
">.	c #919FBD",
",.	c #ADB8CE",
"'.	c #B0BACF",
").	c #A3AFC8",
"!.	c #9CA8C3",
"~.	c #8995AF",
"{.	c #A8B2C5",
"].	c #BBC5D6",
"^.	c #ABB7CC",
"/.	c #ADB8CD",
"(.	c #AEB9CE",
"_.	c #7083A8",
":.	c #667AA3",
"<.	c #AAB5CC",
"[.	c #B1BBD0",
"}.	c #B1BACF",
"|.	c #8A99B9",
"1.	c #677AA3",
"2.	c #8997B8",
"3.	c #8A95B0",
"4.	c #AAB3C6",
"5.	c #ACB8CD",
"6.	c #AFB9CF",
"7.	c #AFBACF",
"8.	c #94A2BE",
"9.	c #7183A9",
"0.	c #7B8CAF",
"a.	c #B3BCD1",
"b.	c #B2BBD0",
"c.	c #808FB2",
"d.	c #6A7CA5",
"e.	c #6B7CA5",
"f.	c #6C7DA6",
"g.	c #6D7EA7",
"h.	c #8E9BBA",
"i.	c #8E97B2",
"j.	c #919AB0",
"k.	c #CAD1DF",
"l.	c #B0BAD0",
"m.	c #B2BCD1",
"n.	c #8796B6",
"o.	c #9AA6C2",
"p.	c #A4AFC8",
"q.	c #AFB8CE",
"r.	c #B5BED3",
"s.	c #8B98B8",
"t.	c #6F7FA8",
"u.	c #7080A8",
"v.	c #7180A9",
"w.	c #7281AA",
"x.	c #7582AA",
"y.	c #A6AFC9",
"z.	c #7E86A1",
"A.	c #464B66",
"B.	c #95A0B8",
"C.	c #BBC4D6",
"D.	c #B3BDD1",
"E.	c #B4BDD2",
"F.	c #98A4C1",
"G.	c #7E8CB0",
"H.	c #8391B4",
"I.	c #8A97B8",
"J.	c #B4BDD1",
"K.	c #B8C0D4",
"L.	c #A4AEC8",
"M.	c #7281A9",
"N.	c #7382AA",
"O.	c #7483AB",
"P.	c #7583AB",
"Q.	c #7684AC",
"R.	c #7885AD",
"S.	c #96A1BF",
"T.	c #949CB6",
"U.	c #454B66",
"V.	c #ACB3C7",
"W.	c #ADB7CD",
"X.	c #A3AEC7",
"Y.	c #B5BED2",
"Z.	c #B1BAD0",
"`.	c #99A5C1",
" +	c #ADB6CD",
".+	c #8694B6",
"++	c #7381AA",
"@+	c #B3BAD0",
"#+	c #BAC1D5",
"$+	c #8390B4",
"%+	c #7785AC",
"&+	c #7986AE",
"*+	c #7B87AE",
"=+	c #7B88AF",
"-+	c #9AA3C1",
";+	c #969DB8",
">+	c #464C66",
",+	c #8C95B1",
"'+	c #96A2C0",
")+	c #AEB7CD",
"!+	c #7384AA",
"~+	c #8F9CBB",
"{+	c #9FA9C4",
"]+	c #7B89AF",
"^+	c #7E8BB1",
"/+	c #8C98B9",
"(+	c #BCC3D6",
"_+	c #B0B7CF",
":+	c #7C88AF",
"<+	c #7D89B0",
"[+	c #7E8AB0",
"}+	c #7F8AB1",
"|+	c #9DA4C3",
"1+	c #979EB8",
"2+	c #8F97B3",
"3+	c #939DBD",
"4+	c #7584AC",
"5+	c #7784AC",
"6+	c #BBC1D6",
"7+	c #BEC4D8",
"8+	c #A2AAC6",
"9+	c #808BB2",
"0+	c #818BB2",
"a+	c #828CB3",
"b+	c #838DB4",
"c+	c #9FA7C4",
"d+	c #9AA0BA",
"e+	c #929AB5",
"f+	c #7A87AE",
"g+	c #808AB1",
"h+	c #939CBD",
"i+	c #B5BCD2",
"j+	c #C1C6D9",
"k+	c #9BA3C2",
"l+	c #858EB4",
"m+	c #868FB5",
"n+	c #8790B6",
"o+	c #A2A9C6",
"p+	c #9DA2BB",
"q+	c #959CB7",
"r+	c #848EB4",
"s+	c #AEB4CE",
"t+	c #C4C8DB",
"u+	c #9CA3C3",
"v+	c #8A92B8",
"w+	c #8B93B8",
"x+	c #A4ABC8",
"y+	c #9EA1BC",
"z+	c #969CB8",
"A+	c #9EA5C3",
"B+	c #8891B6",
"C+	c #8A92B7",
"D+	c #9299BD",
"E+	c #B8BDD3",
"F+	c #C6CADC",
"G+	c #A4A9C7",
"H+	c #8F95BB",
"I+	c #A7ABC9",
"J+	c #9EA2BC",
"K+	c #989EB8",
"L+	c #A1A8C6",
"M+	c #8C94B9",
"N+	c #8D94B9",
"O+	c #8F96BB",
"P+	c #C6C9DC",
"Q+	c #C8CBDD",
"R+	c #C9CBDE",
"S+	c #AFB2CE",
"T+	c #A9ADCA",
"U+	c #999EB9",
"V+	c #A5AAC8",
"W+	c #9398BD",
"X+	c #A5A8C8",
"Y+	c #CBCDDF",
"Z+	c #9FA2BC",
"`+	c #444B67",
" @	c #444A65",
".@	c #9B9EBA",
"+@	c #A9ACCA",
"@@	c #999CC0",
"#@	c #999DC1",
"$@	c #9C9FC2",
"%@	c #D4D5E4",
"&@	c #BBBCCF",
"*@	c #444A66",
"=@	c #9DA0BB",
"-@	c #ADAECC",
";@	c #9FA0C4",
">@	c #B9B9D4",
",@	c #B8B9CD",
"'@	c #454B67",
")@	c #434965",
"!@	c #9FA0BB",
"~@	c #B3B3C9",
"{@	c #8588A3",
"                                                                ",
"                                .                               ",
"                              + @ #                             ",
"                            $ % & * =                           ",
"                          $ - ; > , ' =                         ",
"                        $ ) ! ~ { ] ^ / =                       ",
"                      $ ( _ : < [ } | 1 2 3                     ",
"                    $ 4 5 6 7 7 8 { 9 0 a b c                   ",
"                  d e f g h h i j j k l m n o c                 ",
"                d p q r j s t u u v w x y z A B $               ",
"              C D E t u u F F G H H I J K L M N O $             ",
"            C P Q F G R H H S S T U V W X Y Z `  ...+.          ",
"          C @.#.H $.S T %.&.&.*.*.=.-.;.*.>.,.'.).!.~.$         ",
"        C {.].T %.&.^.*.` /.,.(.(.` _.:.<.[.}.|.1.1.2.3.$       ",
"      C 4.N *.*.5.,.,.(.6.7.'.'.8.9.1.0.a.b.c.d.e.f.g.h.i.$     ",
"    . j.k.,.(.(.6.7.'.l.[.b.m.a.n.o.p.q.r.s.g.t.u.v.w.x.y.z..   ",
"      A.B.C.'.[.[.b.m.a.D.E.F.G.H.I.J.K.L.M.N.O.P.Q.R.S.T.U.    ",
"        $ V.W.X.E.E.Y.Z.`. +.+u.v.++@+#+$+%+R.&+*+=+-+;+U.      ",
"          >+,+'+)+!+~+{+M.]+P.P.^+/+(+_+*+:+<+[+}+|+1+U.        ",
"            $ 2+3+N.4+5+Q.R.&+*+6+7+7+8+9+0+a+b+c+d++.          ",
"              U.e+S.f+*+:+<+[+g+h+i+j+k+l+m+n+o+p++.            ",
"                U.q+k+9+0+a+b+r+m+s+t+u+v+w+x+y+>+              ",
"                  U.z+A+m+n+B+C+D+E+F+G+H+I+J+>+                ",
"                    + K+L+M+N+O+P+Q+R+S+T+J+$                   ",
"                      $ U+V+W+W+X+S+Y+Y+Z+`+                    ",
"                         @.@+@@@#@$@%@&@*@                      ",
"                          *@=@-@;@>@,@'@                        ",
"                            )@!@>@~@U.                          ",
"                               @{@ @                            ",
"                                .                               ",
"                                                                ",
"                                                                "};
