/* XPM */
static char * folder_xpm[] = {
"32 32 428 2",
"  	c None",
". 	c #AEBCC3",
"+ 	c #B0BDC3",
"@ 	c #AFBDC3",
"# 	c #93A6B1",
"$ 	c #91A5B0",
"% 	c #9EB0B8",
"& 	c #92A5B0",
"* 	c #A5B5BD",
"= 	c #96A5AD",
"- 	c #8A9AA5",
"; 	c #8A9BA5",
"> 	c #92A1AA",
", 	c #92A1AB",
"' 	c #9BA9B0",
") 	c #9AA8AE",
"! 	c #8C99A2",
"~ 	c #8E9BA3",
"{ 	c #8D9AA3",
"] 	c #8D9BA3",
"^ 	c #8C9AA3",
"/ 	c #8A98A1",
"( 	c #9BA8AE",
"_ 	c #ACC8CF",
": 	c #ACC9D0",
"< 	c #ACC9CF",
"[ 	c #ABC8CF",
"} 	c #ABC8CE",
"| 	c #AAC7CE",
"1 	c #A9C6CF",
"2 	c #A8C6CE",
"3 	c #A7C5CD",
"4 	c #A6C5CD",
"5 	c #A5C5CD",
"6 	c #A5C4CD",
"7 	c #A4C4CC",
"8 	c #A3C3CC",
"9 	c #A2C3CB",
"0 	c #A2C2CB",
"a 	c #A1C2CA",
"b 	c #A1C2CB",
"c 	c #A0C2CA",
"d 	c #9FC1CA",
"e 	c #9EC1C9",
"f 	c #9DC0C9",
"g 	c #9DC0C8",
"h 	c #9CBFC8",
"i 	c #9BBFC8",
"j 	c #98BDC7",
"k 	c #A2C1CA",
"l 	c #A2C1C9",
"m 	c #A1C0C9",
"n 	c #A0C0C8",
"o 	c #9FBFC9",
"p 	c #9DBEC8",
"q 	c #9CBDC7",
"r 	c #9CBEC7",
"s 	c #9BBDC6",
"t 	c #9ABCC7",
"u 	c #9ABCC6",
"v 	c #99BBC6",
"w 	c #98BBC5",
"x 	c #97BAC5",
"y 	c #96BAC5",
"z 	c #97BAC4",
"A 	c #95B9C5",
"B 	c #95B9C4",
"C 	c #94B8C4",
"D 	c #93B8C3",
"E 	c #92B7C3",
"F 	c #91B7C2",
"G 	c #91B6C2",
"H 	c #90B7C2",
"I 	c #8FB6C2",
"J 	c #8EB5C1",
"K 	c #9FBFC8",
"L 	c #9EBFC8",
"M 	c #9BBDC7",
"N 	c #99BCC6",
"O 	c #98BBC6",
"P 	c #96BAC4",
"Q 	c #95B9C3",
"R 	c #94B9C3",
"S 	c #92B7C2",
"T 	c #90B6C1",
"U 	c #8FB6C1",
"V 	c #8EB5C0",
"W 	c #8CB4C0",
"X 	c #9DBDC6",
"Y 	c #9CBCC5",
"Z 	c #9BBCC5",
"` 	c #9ABBC4",
" .	c #9ABBC3",
"..	c #99BAC3",
"+.	c #98BAC3",
"@.	c #97B9C3",
"#.	c #95B8C2",
"$.	c #94B7C1",
"%.	c #94B8C1",
"&.	c #93B7C1",
"*.	c #92B6C1",
"=.	c #91B6C0",
"-.	c #90B5C0",
";.	c #8FB4BF",
">.	c #8EB3BF",
",.	c #8BB2BD",
"'.	c #8BB1BD",
").	c #8AB1BC",
"!.	c #89B1BC",
"~.	c #89B0BC",
"{.	c #88AFBC",
"].	c #88AEBC",
"^.	c #9BBBC4",
"/.	c #9ABAC4",
"(.	c #99BAC2",
"_.	c #98B9C2",
":.	c #98B9C3",
"<.	c #97B8C2",
"[.	c #96B8C2",
"}.	c #95B7C1",
"|.	c #93B6BF",
"1.	c #92B5BF",
"2.	c #90B3BF",
"3.	c #90B3BE",
"4.	c #8EB1BE",
"5.	c #8BB0BC",
"6.	c #88AEBA",
"7.	c #87ADBA",
"8.	c #86ADBA",
"9.	c #86ACBA",
"0.	c #85ACBA",
"a.	c #85ABBA",
"b.	c #84ABB9",
"c.	c #84AAB9",
"d.	c #84A9B9",
"e.	c #83AAB9",
"f.	c #83A9B8",
"g.	c #98B7C1",
"h.	c #97B7C1",
"i.	c #97B7C0",
"j.	c #96B6C0",
"k.	c #95B6C0",
"l.	c #93B5BF",
"m.	c #92B4BF",
"n.	c #90B2BE",
"o.	c #8FB2BD",
"p.	c #8FB1BD",
"q.	c #8DB1BC",
"r.	c #8CAFBC",
"s.	c #8BAFBB",
"t.	c #88AEBB",
"u.	c #82A9B8",
"v.	c #82A9B7",
"w.	c #82A8B7",
"x.	c #81A8B7",
"y.	c #81A7B7",
"z.	c #81A7B6",
"A.	c #7FA6B6",
"B.	c #80A6B6",
"C.	c #7EA5B6",
"D.	c #7DA4B5",
"E.	c #93B3BE",
"F.	c #92B3BE",
"G.	c #91B2BE",
"H.	c #8FB0BC",
"I.	c #8EB0BC",
"J.	c #8CAEBB",
"K.	c #8BAEBB",
"L.	c #8BADBA",
"M.	c #89ADBA",
"N.	c #88ABB9",
"O.	c #87AAB8",
"P.	c #85A9B7",
"Q.	c #81A6B6",
"R.	c #7FA5B5",
"S.	c #7EA4B5",
"T.	c #7EA4B4",
"U.	c #7DA4B4",
"V.	c #7DA3B4",
"W.	c #7CA2B4",
"X.	c #7CA3B4",
"Y.	c #7BA2B3",
"Z.	c #7AA1B3",
"`.	c #7AA0B3",
" +	c #79A1B3",
".+	c #79A0B3",
"++	c #78A0B3",
"@+	c #789FB2",
"#+	c #779FB2",
"$+	c #8BACBB",
"%+	c #8AACB9",
"&+	c #89AAB9",
"*+	c #86A8B8",
"=+	c #85A7B8",
"-+	c #83A6B7",
";+	c #82A4B6",
">+	c #7EA2B5",
",+	c #7A9FB3",
"'+	c #799FB3",
")+	c #789FB3",
"!+	c #789EB2",
"~+	c #779DB2",
"{+	c #769DB2",
"]+	c #769CB2",
"^+	c #759CB1",
"/+	c #759BB1",
"(+	c #749BB1",
"_+	c #749AB1",
":+	c #739AB0",
"<+	c #7299B0",
"[+	c #87A8B8",
"}+	c #84A6B6",
"|+	c #83A5B6",
"1+	c #80A4B6",
"2+	c #80A2B5",
"3+	c #7DA1B4",
"4+	c #7CA0B2",
"5+	c #779CB0",
"6+	c #759BB0",
"7+	c #759AB0",
"8+	c #749AB0",
"9+	c #7399AF",
"0+	c #7398AF",
"a+	c #7298AF",
"b+	c #7297AF",
"c+	c #7197AE",
"d+	c #7196AE",
"e+	c #7096AE",
"f+	c #7097AE",
"g+	c #6F95AE",
"h+	c #6F95AD",
"i+	c #6E95AD",
"j+	c #6D94AD",
"k+	c #80A3B4",
"l+	c #7EA2B2",
"m+	c #7EA1B2",
"n+	c #7B9FB1",
"o+	c #799DB1",
"p+	c #789DB0",
"q+	c #759AAE",
"r+	c #7198AC",
"s+	c #7097AC",
"t+	c #7197AC",
"u+	c #6F96AC",
"v+	c #7096AC",
"w+	c #6E95AB",
"x+	c #6F95AB",
"y+	c #6D94AB",
"z+	c #6C94AB",
"A+	c #6C93AB",
"B+	c #6B93AB",
"C+	c #6B92AB",
"D+	c #6A92AB",
"E+	c #6A91AA",
"F+	c #6991AA",
"G+	c #6990AA",
"H+	c #7A9EB1",
"I+	c #799CB0",
"J+	c #779CAF",
"K+	c #7699AF",
"L+	c #7499AE",
"M+	c #7298AE",
"N+	c #6E94AA",
"O+	c #6C93AA",
"P+	c #6C92AA",
"Q+	c #6B92AA",
"R+	c #6B91AA",
"S+	c #6B90A9",
"T+	c #6A90A9",
"U+	c #698FA9",
"V+	c #688FA9",
"W+	c #688FA8",
"X+	c #678FA8",
"Y+	c #678EA8",
"Z+	c #668DA8",
"`+	c #658CA7",
" @	c #648CA7",
".@	c #648BA7",
"+@	c #648AA7",
"@@	c #7497AD",
"#@	c #7295AC",
"$@	c #7195AC",
"%@	c #6F93AB",
"&@	c #6D92AA",
"*@	c #6B91A8",
"=@	c #688FA7",
"-@	c #678EA7",
";@	c #678CA7",
">@	c #668DA6",
",@	c #668CA6",
"'@	c #648BA6",
")@	c #658AA6",
"!@	c #638AA6",
"~@	c #648AA5",
"{@	c #638AA5",
"]@	c #6389A5",
"^@	c #6289A5",
"/@	c #6189A5",
"(@	c #6189A4",
"_@	c #6088A4",
":@	c #6087A4",
"<@	c #5F86A4",
"[@	c #6D91A9",
"}@	c #6C90A8",
"|@	c #6A8FA7",
"1@	c #698EA7",
"2@	c #658BA6",
"3@	c #648AA4",
"4@	c #638AA4",
"5@	c #6389A4",
"6@	c #6289A4",
"7@	c #6288A4",
"8@	c #6187A4",
"9@	c #5F86A3",
"0@	c #5E86A3",
"a@	c #5E85A3",
"b@	c #5D84A3",
"c@	c #5C84A2",
"d@	c #5C83A2",
"e@	c #5C82A2",
"f@	c #5B82A2",
"g@	c #5B81A2",
"h@	c #668BA5",
"i@	c #6589A4",
"j@	c #6489A4",
"k@	c #6086A2",
"l@	c #5F86A1",
"m@	c #5F85A1",
"n@	c #5E84A1",
"o@	c #5D84A0",
"p@	c #5C83A0",
"q@	c #5C82A0",
"r@	c #5C81A0",
"s@	c #5B829F",
"t@	c #5B809F",
"u@	c #5A819F",
"v@	c #5A809F",
"w@	c #597F9F",
"x@	c #587F9F",
"y@	c #587E9F",
"z@	c #577E9F",
"A@	c #567E9F",
"B@	c #557C9E",
"C@	c #6185A1",
"D@	c #5F84A1",
"E@	c #5D829F",
"F@	c #5B819F",
"G@	c #597F9E",
"H@	c #597E9E",
"I@	c #587E9E",
"J@	c #587D9E",
"K@	c #577D9E",
"L@	c #567D9D",
"M@	c #557C9D",
"N@	c #547B9D",
"O@	c #547A9C",
"P@	c #537A9C",
"Q@	c #53799C",
"R@	c #52799C",
"S@	c #52789C",
"T@	c #52789B",
"U@	c #51789B",
"V@	c #5A809E",
"W@	c #587D9D",
"X@	c #577D9C",
"Y@	c #577C9C",
"Z@	c #567C9C",
"`@	c #567B9C",
" #	c #557B9C",
".#	c #53799B",
"+#	c #51779B",
"@#	c #50769B",
"##	c #4F769A",
"$#	c #4E759A",
"%#	c #4D7499",
"&#	c #53799A",
"*#	c #537999",
"=#	c #537899",
"-#	c #527799",
";#	c #527899",
">#	c #517799",
",#	c #517698",
"'#	c #507698",
")#	c #507598",
"!#	c #4F7598",
"~#	c #4E7598",
"{#	c #4E7497",
"]#	c #4E7397",
"^#	c #4D7397",
"/#	c #4D7297",
"(#	c #4C7397",
"_#	c #4C7297",
":#	c #4B7197",
"<#	c #4A7197",
"[#	c #4A7096",
"}#	c #496F96",
"|#	c #4F7498",
"1#	c #4D7296",
"2#	c #4C7296",
"3#	c #4C7196",
"4#	c #4B7196",
"5#	c #4B7096",
"6#	c #4A7095",
"7#	c #4A6F95",
"8#	c #496F95",
"9#	c #486E94",
"0#	c #476D94",
"a#	c #466C94",
"b#	c #466B94",
"c#	c #456B94",
"d#	c #4C7398",
"e#	c #4C7298",
"f#	c #4B7298",
"g#	c #4B7198",
"h#	c #4A7198",
"i#	c #4A7098",
"j#	c #497098",
"k#	c #496F98",
"l#	c #486F97",
"m#	c #486E97",
"n#	c #476E97",
"o#	c #476D97",
"p#	c #466D96",
"q#	c #456C96",
"r#	c #446B96",
"s#	c #446B95",
"t#	c #436994",
"u#	c #426893",
"                                                                ",
"                                                                ",
"      . + @ @ @ @ @ @ @ @ @                                     ",
"      # $ $ $ $ $ $ $ $ $ $ %                                   ",
"      $ & & & & & & & & & & $ *                                 ",
"    = - ; ; ; ; ; ; ; ; ; ; ; - > , , , , , , , , , , , > '     ",
"  ) ! ~ ~ ~ ~ ~ ~ { { { { { { ] { { { { { { { { { ^ ^ ^ ^ / (   ",
"  _ : < [ } | 1 2 2 3 3 4 5 6 7 8 9 0 a b c d d e f f g h i j   ",
"  k l m n o o p p q r s t u v w x y z A B C D E F G H I J J J   ",
"  K L p p M s s u N O w x P B Q R D D S F T U V W W W W W W W   ",
"  X Y Z ` `  ...+.@.@.#.#.$.%.&.*.=.-.;.>.,.,.'.'.).!.~.~.{.].  ",
"  ^./...(._.:.<.[.}.$.|.|.1.2.3.4.5.6.7.8.9.0.a.b.b.b.c.d.e.f.  ",
"  g.h.i.j.k.l.m.n.o.p.q.r.s.t.a.u.v.v.w.x.y.y.z.A.B.C.C.C.D.D.  ",
"  E.F.G.H.I.J.K.L.M.N.O.P.Q.R.S.T.U.U.V.W.X.Y.Y.Z.`. +.+++@+#+  ",
"  J.$+%+&+O.*+*+=+-+;+>+,+'+'+)+!+!+~+~+{+]+^+^+^+/+(+_+:+:+<+  ",
"  [+=+}+|+;+1+2+3+4+5+6+7+8+8+9+9+0+0+a+b+c+d+e+e+f+g+h+i+j+j+  ",
"  k+l+m+4+n+o+p+q+r+s+t+u+v+w+x+w+y+y+z+A+A+B+B+C+D+E+F+F+G+G+  ",
"  H+I+J+K+L+M+N+O+P+Q+R+R+S+T+T+U+U+V+W+X+Y+Y+Z+Z+`+`+ @.@.@+@  ",
"  @@#@$@%@&@*@=@=@-@-@-@;@>@,@,@'@)@!@~@{@]@^@^@/@(@_@_@:@:@<@  ",
"  [@}@|@1@2@3@4@5@6@7@7@7@8@8@:@:@<@9@0@a@a@b@b@c@d@d@e@f@g@g@  ",
"  h@i@j@k@l@m@m@m@n@n@o@o@p@p@q@r@s@t@u@v@w@w@w@x@y@z@z@A@A@B@  ",
"  C@D@E@s@F@u@v@v@w@w@G@H@I@J@K@K@L@L@M@M@N@N@O@O@P@Q@R@S@T@U@  ",
"  V@I@W@X@Y@Z@`@ # #O@O@P@O@P@Q@.#T@T@+#+#@#@#########$#$#%#%#  ",
"  &#&#*#=#=#-#;#>#,#'#)#!#!#~#{#{#{#]#^#/#(#_#:#:#<#<#[#[#}#}#  ",
"  !#|#{#]#]#]#^#^#1#2#3#4#5#[#6#7#7#8#8#8#9#9#0#0#a#a#a#b#c#c#  ",
"  _#^#d#d#e#e#f#g#h#i#j#k#j#l#m#m#m#n#o#p#p#q#q#r#r#s#s#s#t#u#  ",
"                                                                ",
"                                                                ",
"                                                                ",
"                                                                ",
"                                                                ",
"                                                                "};
