/* XPM */
static char * closeO_xpm[] = {
"25 48 124 2",
"  	c None",
". 	c #436485",
"+ 	c #AED1F4",
"@ 	c #A9CFF3",
"# 	c #A3C6E9",
"$ 	c #7FB4EB",
"% 	c #86B8EC",
"& 	c #8DBFED",
"* 	c #7DB2E9",
"= 	c #4773A1",
"- 	c #79AFE7",
"; 	c #4471A0",
"> 	c #A4BBD0",
", 	c #C4E0FA",
"' 	c #76ACE4",
") 	c #42729E",
"! 	c #C0DDF8",
"~ 	c #95C3F3",
"{ 	c #72A9E2",
"] 	c #416F9F",
"^ 	c #BBD8F5",
"/ 	c #8FC1EF",
"( 	c #70A7E0",
"_ 	c #3F6D9D",
": 	c #B7D5F3",
"< 	c #87B8EB",
"[ 	c #729BC4",
"} 	c #537DA9",
"| 	c #6BA3DD",
"1 	c #3B6A9B",
"2 	c #B1D1F1",
"3 	c #7EB2E8",
"4 	c #4D7AA9",
"5 	c #FFFFFF",
"6 	c #68A1DC",
"7 	c #39699B",
"8 	c #AECEEE",
"9 	c #77ACE3",
"0 	c #4776A7",
"a 	c #659ED9",
"b 	c #36689C",
"c 	c #AACBEC",
"d 	c #4273A6",
"e 	c #629FD8",
"f 	c #346A9C",
"g 	c #3B6FA5",
"h 	c #5692D0",
"i 	c #2C629A",
"j 	c #99BEE1",
"k 	c #5490CE",
"l 	c #2E689E",
"m 	c #5893D0",
"n 	c #2D6599",
"o 	c #99BDE1",
"p 	c #5691CE",
"q 	c #2E659E",
"r 	c #5A98D2",
"s 	c #2F6699",
"t 	c #9ABEE2",
"u 	c #5792CF",
"v 	c #2F669F",
"w 	c #5B96D3",
"x 	c #2F6399",
"y 	c #9BBFE3",
"z 	c #3067A0",
"A 	c #5C9AD4",
"B 	c #9CC0E4",
"C 	c #5A95D2",
"D 	c #3C82C4",
"E 	c #3168A1",
"F 	c #5D98D5",
"G 	c #30649A",
"H 	c #9CC1E4",
"I 	c #5E99D6",
"J 	c #32659A",
"K 	c #9DC1E5",
"L 	c #5C97D4",
"M 	c #619ED7",
"N 	c #33699B",
"O 	c #86A4C0",
"P 	c #9EC3E6",
"Q 	c #619CD9",
"R 	c #63A0D9",
"S 	c #4577A5",
"T 	c #8DAAC5",
"U 	c #A8CBEE",
"V 	c #A5C7E9",
"W 	c #6AA1DA",
"X 	c #A4C4E4",
"Y 	c #689FD2",
"Z 	c #A2C0DE",
"` 	c #6599C9",
" .	c #4782B9",
"..	c #3B6999",
"+.	c #A1BDD9",
"@.	c #6090C2",
"#.	c #396593",
"$.	c #9FBAD5",
"%.	c #578ABF",
"&.	c #38628E",
"*.	c #9DB6CF",
"=.	c #5188BB",
"-.	c #365F88",
";.	c #9AB2CA",
">.	c #4882B8",
",.	c #335B83",
"'.	c #98ADC0",
").	c #325678",
"!.	c #99AEC1",
"~.	c #4477A6",
"{.	c #32577A",
"].	c #99ADC1",
"^.	c #4475A8",
"/.	c #32567A",
"(.	c #99AEC3",
"_.	c #4576A9",
":.	c #3B6693",
"<.	c #32577C",
"[.	c #4479AA",
"}.	c #99AFC3",
"|.	c #4477AC",
"1.	c #8293A4",
"2.	c #9AAFC4",
"3.	c #2E5378",
". . . . . . . . . . . . . . . . . . . . . . . . . ",
"+ + + + + + + + + + + + + + + + + + + + + + + @ # ",
"$ $ $ $ $ $ $ $ $ $ $ $ $ $ $ $ $ $ $ $ $ $ $ % & ",
"* * = = = = = = = = = = = = = = = = = = = = = = * ",
"- ; > , , , , , , , , , , , , , , , , , , , , > ; ",
"' ) ! ~ ~ ~ ~ ~ ~ ~ ~ ~ ~ ~ ~ ~ ~ ~ ~ ~ ~ ~ ~ ! ) ",
"{ ] ^ / / / / / / / / / / / / / / / / / / / / ^ ] ",
"( _ : < < < < < [ } } < < < < } } [ < < < < < : _ ",
"| 1 2 3 3 3 3 3 4 5 5 4 3 3 4 5 5 4 3 3 3 3 3 2 1 ",
"6 7 8 9 9 9 9 9 0 5 5 5 0 0 5 5 5 0 9 9 9 9 9 8 7 ",
"a b c ( ( ( ( ( ( d 5 5 5 5 5 5 d ( ( ( ( ( ( c b ",
"e f # 6 6 6 6 6 6 6 g 5 5 5 5 g 6 6 6 6 6 6 6 # f ",
"h i j k k k k k k k l 5 5 5 5 l k k k k k k k j i ",
"m n o p p p p p p q 5 5 5 5 5 5 q p p p p p p o n ",
"r s t u u u u u v 5 5 5 v v 5 5 5 v u u u u u t s ",
"w x y m m m m m z 5 5 z m m z 5 5 z m m m m m y x ",
"A x B C C C C C D E E C C C C E E D C C C C C B x ",
"F G H w w w w w w w w w w w w w w w w w w w w H G ",
"I J K L L L L L L L L L L L L L L L L L L L L K J ",
"M N O P P P P P P P P P P P P P P P P P P P P O N ",
"Q Q J J J J J J J J J J J J J J J J J J J J J J Q ",
"R R R R R R R R R R R R R R R R R R R R R R R R R ",
"h h h h h h h h h h h h h h h h h h h h h h h h h ",
"S S S S S S S S S S S S S S S S S S S S S S S S S ",
". . . . . . . . . . . . . . . . . . . . . . . . . ",
"+ + + + + + + + + + + + + + + + + + + + + + + @ # ",
"$ $ $ $ $ $ $ $ $ $ $ $ $ $ $ $ $ $ $ $ $ $ $ % & ",
"* * = = = = = = = = = = = = = = = = = = = = = = * ",
"- ; T U U U U U U U U U U U U U U U U U U U U T ; ",
"' ) V W W W W W W W W W W W W W W W W W W W W V ) ",
"{ ] X Y Y Y Y Y Y Y Y Y Y Y Y Y Y Y Y Y Y Y Y X ] ",
"( _ Z ` ` ` ` `  .....` ` ` ` .... .` ` ` ` ` Z _ ",
"| 1 +.@.@.@.@.@.#.5 5 #.@.@.#.5 5 #.@.@.@.@.@.+.1 ",
"6 7 $.%.%.%.%.%.&.5 5 5 &.&.5 5 5 &.%.%.%.%.%.$.7 ",
"a b *.=.=.=.=.=.=.-.5 5 5 5 5 5 -.=.=.=.=.=.=.*.b ",
"e f ;.>.>.>.>.>.>.>.,.5 5 5 5 ,.>.>.>.>.>.>.>.;.f ",
"h i '.S S S S S S S ).5 5 5 5 ).S S S S S S S '.i ",
"m n '.S S S S S S ).5 5 5 5 5 5 ).S S S S S S '.n ",
"r s !.~.~.~.~.~.{.5 5 5 {.{.5 5 5 {.~.~.~.~.~.!.s ",
"w x ].^.^.^.^.^./.5 5 /.^.^./.5 5 /.^.^.^.^.^.].x ",
"A x (._._._._._.:.<.<._._._._.<.<.:._._._._._.(.x ",
"F G (.[.[.[.[.[.[.[.[.[.[.[.[.[.[.[.[.[.[.[.[.(.G ",
"I J }.|.|.|.|.|.|.|.|.|.|.|.|.|.|.|.|.|.|.|.|.}.J ",
"M N 1.2.2.2.2.2.2.2.2.2.2.2.2.2.2.2.2.2.2.2.2.1.N ",
"Q Q 3.3.3.3.3.3.3.3.3.3.3.3.3.3.3.3.3.3.3.3.3.3.Q ",
"R R R R R R R R R R R R R R R R R R R R R R R R R ",
"h h h h h h h h h h h h h h h h h h h h h h h h h ",
"S S S S S S S S S S S S S S S S S S S S S S S S S "};
