/* XPM */
static char * closeA_xpm[] = {
"25 48 86 1",
" 	c None",
".	c #456583",
"+	c #AED1F4",
"@	c #A9CFF3",
"#	c #A3C6E9",
"$	c #81B8EB",
"%	c #88BCEC",
"&	c #8DBFED",
"*	c #7DB2E9",
"=	c #4773A1",
"-	c #79AFE7",
";	c #4471A0",
">	c #9CB4CC",
",	c #BAD8F6",
"'	c #76ACE4",
")	c #42729E",
"!	c #B6D5F4",
"~	c #86B8EC",
"{	c #72A9E2",
"]	c #416F9F",
"^	c #B1D1F1",
"/	c #7EB2E8",
"(	c #70A7E0",
"_	c #3F6D9D",
":	c #AECEEE",
"<	c #78ACE2",
"[	c #6794BD",
"}	c #4876A6",
"|	c #6BA3DD",
"1	c #3B6A9B",
"2	c #ABCBEB",
"3	c #71A7DF",
"4	c #4373A5",
"5	c #FFFFFF",
"6	c #68A1DC",
"7	c #39699B",
"8	c #A5C7E9",
"9	c #6AA1DA",
"0	c #3D6FA3",
"a	c #659ED9",
"b	c #36689C",
"c	c #A2C4E6",
"d	c #639BD5",
"e	c #386CA2",
"f	c #629FD8",
"g	c #346A9C",
"h	c #9DC0E3",
"i	c #5D99D1",
"j	c #3369A1",
"k	c #5692D0",
"l	c #2C629A",
"m	c #9ABADA",
"n	c #508BC8",
"o	c #2F6297",
"p	c #5893D0",
"q	c #2D6599",
"r	c #4F8BC9",
"s	c #5A98D2",
"t	c #2F6699",
"u	c #99BADB",
"v	c #2F6399",
"w	c #5B96D3",
"x	c #98BBDC",
"y	c #508FCA",
"z	c #5C9AD4",
"A	c #99BBDD",
"B	c #4F8CCB",
"C	c #387BBA",
"D	c #2E639A",
"E	c #5D98D5",
"F	c #30649A",
"G	c #99BCDD",
"H	c #508DCC",
"I	c #5E99D6",
"J	c #32659A",
"K	c #9ABDDE",
"L	c #5291CC",
"M	c #619ED7",
"N	c #33699B",
"O	c #829EBA",
"P	c #99BDDF",
"Q	c #619CD9",
"R	c #2B5F95",
"S	c #63A0D9",
"T	c #4577A5",
"U	c #262626",
".........................",
"+++++++++++++++++++++++@#",
"$$$$$$$$$$$$$$$$$$$$$$$%&",
"**======================*",
"-;>,,,,,,,,,,,,,,,,,,,,>;",
"')!~~~~~~~~~~~~~~~~~~~~!)",
"{]^////////////////////^]",
"(_:<<<<<[}}<<<<}}[<<<<<:_",
"|123333345543345543333321",
"6789999905550055509999987",
"abcdddddde555555eddddddcb",
"fghiiiiiiij5555jiiiiiiihg",
"klmnnnnnnno5555onnnnnnnml",
"pqmrrrrrro555555orrrrrrmq",
"sturrrrrv555vv555vrrrrrut",
"wvxyyyyyt55tyyt55tyyyyyxv",
"zvABBBBBCDDBBBBDDCBBBBBAv",
"EFGHHHHHHHHHHHHHHHHHHHHGF",
"IJKLLLLLLLLLLLLLLLLLLLLKJ",
"MNOPPPPPPPPPPPPPPPPPPPPON",
"QQRRRRRRRRRRRRRRRRRRRRRRQ",
"SSSSSSSSSSSSSSSSSSSSSSSSS",
"kkkkkkkkkkkkkkkkkkkkkkkkk",
"TTTTTTTTTTTTTTTTTTTTTTTTT",
"UUUUUUUUUUUUUUUUUUUUUUUUU",
"UUUUUUUUUUUUUUUUUUUUUUUUU",
"UUUUUUUUUUUUUUUUUUUUUUUUU",
"UUUUUUUUUUUUUUUUUUUUUUUUU",
"UUUUUUUUUUUUUUUUUUUUUUUUU",
"UUUUUUUUUUUUUUUUUUUUUUUUU",
"UUUUUUUUUUUUUUUUUUUUUUUUU",
"UUUUUUUUUUUUUUUUUUUUUUUUU",
"UUUUUUUUUUUUUUUUUUUUUUUUU",
"UUUUUUUUUUUUUUUUUUUUUUUUU",
"UUUUUUUUUUUUUUUUUUUUUUUUU",
"UUUUUUUUUUUUUUUUUUUUUUUUU",
"UUUUUUUUUUUUUUUUUUUUUUUUU",
"UUUUUUUUUUUUUUUUUUUUUUUUU",
"UUUUUUUUUUUUUUUUUUUUUUUUU",
"UUUUUUUUUUUUUUUUUUUUUUUUU",
"UUUUUUUUUUUUUUUUUUUUUUUUU",
"UUUUUUUUUUUUUUUUUUUUUUUUU",
"UUUUUUUUUUUUUUUUUUUUUUUUU",
"UUUUUUUUUUUUUUUUUUUUUUUUU",
"UUUUUUUUUUUUUUUUUUUUUUUUU",
"UUUUUUUUUUUUUUUUUUUUUUUUU",
"UUUUUUUUUUUUUUUUUUUUUUUUU",
"UUUUUUUUUUUUUUUUUUUUUUUUU"};
