/* XPM */
static char * dframeATR_xpm[] = {
"5 29 50 1",
" 	c None",
".	c #436485",
"+	c #456B8F",
"@	c #9AC7F0",
"#	c #7CAEE2",
"$	c #446484",
"%	c #7DB2E9",
"&	c #90BDEC",
"*	c #74A4D6",
"=	c #456583",
"-	c #79AFE7",
";	c #75A9DF",
">	c #435F7B",
",	c #76ACE4",
"'	c #73A7DD",
")	c #73A9DB",
"!	c #3F5367",
"~	c #72A9E2",
"{	c #6EA3DA",
"]	c #70A7E0",
"^	c #6CA1D8",
"/	c #3B4957",
"(	c #6BA3DD",
"_	c #679DD5",
":	c #68A1DC",
"<	c #659BD3",
"[	c #659ED9",
"}	c #6198D1",
"|	c #629FD8",
"1	c #5F99CF",
"2	c #5692D0",
"3	c #508DCC",
"4	c #5893D0",
"5	c #528ECC",
"6	c #5A98D2",
"7	c #548FCC",
"8	c #5B96D3",
"9	c #5690CC",
"0	c #5C9AD4",
"a	c #5991CB",
"b	c #5D98D5",
"c	c #5A92CC",
"d	c #5E99D6",
"e	c #5C94CE",
"f	c #619ED7",
"g	c #619CD9",
"h	c #609AD0",
"i	c #63A0D9",
"j	c #5F9AD1",
"k	c #4577A5",
"     ",
"     ",
"     ",
"     ",
"     ",
"     ",
".+   ",
"@#$  ",
"%&*= ",
"--;> ",
",,')!",
"~~~{!",
"]]]^/",
"(((_/",
":::</",
"[[[}/",
"|||1/",
"2223/",
"4445/",
"6667/",
"8889/",
"000a/",
"bbbc/",
"ddde/",
"fff1/",
"gggh/",
"iiij/",
"2222/",
"kkkk/"};
