/* XPM */
static char * dframeAT_xpm[] = {
"5 29 53 1",
" 	c None",
".	c #456B8F",
"+	c #436485",
"@	c #9DC0E3",
"#	c #A5CCF1",
"$	c #446484",
"%	c #A5CBEF",
"&	c #97C1ED",
"*	c #89B9EB",
"=	c #435F7B",
"-	c #A1C7ED",
";	c #86B7EA",
">	c #79AFE7",
",	c #415467",
"'	c #9EC6EC",
")	c #91BCE9",
"!	c #76ACE4",
"~	c #9DC5EB",
"{	c #7AAEE4",
"]	c #72A9E2",
"^	c #3D4B59",
"/	c #99C1E9",
"(	c #70A7E0",
"_	c #98C1E8",
":	c #6BA3DD",
"<	c #96BFE6",
"[	c #68A1DC",
"}	c #92BBE4",
"|	c #659ED9",
"1	c #91BBE3",
"2	c #629FD8",
"3	c #8AB5DE",
"4	c #5692D0",
"5	c #8AB4DE",
"6	c #5893D0",
"7	c #8BB6DF",
"8	c #5A98D2",
"9	c #8BB5DF",
"0	c #5B96D3",
"a	c #8DB8E1",
"b	c #5C9AD4",
"c	c #8EB9E2",
"d	c #5D98D5",
"e	c #8EB8E2",
"f	c #5E99D6",
"g	c #90BBE4",
"h	c #619ED7",
"i	c #91BAE3",
"j	c #619CD9",
"k	c #92BCE4",
"l	c #63A0D9",
"m	c #4674A4",
"n	c #4577A5",
"     ",
"     ",
"     ",
"     ",
"     ",
"     ",
"   .+",
"  +@#",
" $%&*",
" =-;>",
",')!!",
",~{]]",
"^/(((",
"^_:::",
"^<[[[",
"^}|||",
"^1222",
"^3444",
"^5666",
"^7888",
"^9000",
"^abbb",
"^cddd",
"^efff",
"^ghhh",
"^ijjj",
"^klll",
"^3444",
"^mnnn"};
