/* XPM */
static char * maximizeA_xpm[] = {
"26 48 80 1",
" 	c None",
".	c #456583",
"+	c #AED1F4",
"@	c #81B8EB",
"#	c #7DB2E9",
"$	c #4773A1",
"%	c #79AFE7",
"&	c #4471A0",
"*	c #9CB4CC",
"=	c #BAD8F6",
"-	c #76ACE4",
";	c #42729E",
">	c #B6D5F4",
",	c #86B8EC",
"'	c #72A9E2",
")	c #416F9F",
"!	c #B1D1F1",
"~	c #7EB2E8",
"{	c #70A7E0",
"]	c #3F6D9D",
"^	c #AECEEE",
"/	c #78ACE2",
"(	c #4876A6",
"_	c #6BA3DD",
":	c #3B6A9B",
"<	c #ABCBEB",
"[	c #71A7DF",
"}	c #4373A5",
"|	c #FFFFFF",
"1	c #68A1DC",
"2	c #39699B",
"3	c #A5C7E9",
"4	c #6AA1DA",
"5	c #3D6FA3",
"6	c #659ED9",
"7	c #36689C",
"8	c #A2C4E6",
"9	c #639BD5",
"0	c #386CA2",
"a	c #629FD8",
"b	c #346A9C",
"c	c #9DC0E3",
"d	c #5D99D1",
"e	c #3369A1",
"f	c #5692D0",
"g	c #2C629A",
"h	c #9ABADA",
"i	c #508BC8",
"j	c #2F6297",
"k	c #5893D0",
"l	c #2D6599",
"m	c #4F8BC9",
"n	c #5A98D2",
"o	c #2F6699",
"p	c #99BADB",
"q	c #2F6399",
"r	c #5B96D3",
"s	c #98BBDC",
"t	c #508FCA",
"u	c #5C9AD4",
"v	c #99BBDD",
"w	c #4F8CCB",
"x	c #2E639A",
"y	c #5D98D5",
"z	c #30649A",
"A	c #99BCDD",
"B	c #508DCC",
"C	c #5E99D6",
"D	c #32659A",
"E	c #9ABDDE",
"F	c #5291CC",
"G	c #619ED7",
"H	c #33699B",
"I	c #829EBA",
"J	c #99BDDF",
"K	c #619CD9",
"L	c #2B5F95",
"M	c #63A0D9",
"N	c #4577A5",
"O	c #262626",
"..........................",
"++++++++++++++++++++++++++",
"@@@@@@@@@@@@@@@@@@@@@@@@@@",
"##$$$$$$$$$$$$$$$$$$$$$$##",
"%&*====================*&%",
"-;>,,,,,,,,,,,,,,,,,,,,>;-",
"')!~~~~~~~~~~~~~~~~~~~~!)'",
"{]^/////((((((((((/////^]{",
"_:<[[[[[}||||||||}[[[[[<:_",
"123444445||||||||544444321",
"678999990|000000|099999876",
"abcddddde|edddde|edddddcba",
"fghiiiiij|jiiiij|jiiiiihgf",
"klhmmmmmj|jmmmmj|jmmmmmhlk",
"nopmmmmmq|qqqqqq|qmmmmmpon",
"rqsttttto||||||||otttttsqr",
"uqvwwwwwxxxxxxxxxxwwwwwvqu",
"yzABBBBBBBBBBBBBBBBBBBBAzy",
"CDEFFFFFFFFFFFFFFFFFFFFEDC",
"GHIJJJJJJJJJJJJJJJJJJJJIHG",
"KKLLLLLLLLLLLLLLLLLLLLLLKK",
"MMMMMMMMMMMMMMMMMMMMMMMMMM",
"ffffffffffffffffffffffffff",
"NNNNNNNNNNNNNNNNNNNNNNNNNN",
"OOOOOOOOOOOOOOOOOOOOOOOOOO",
"OOOOOOOOOOOOOOOOOOOOOOOOOO",
"OOOOOOOOOOOOOOOOOOOOOOOOOO",
"OOOOOOOOOOOOOOOOOOOOOOOOOO",
"OOOOOOOOOOOOOOOOOOOOOOOOOO",
"OOOOOOOOOOOOOOOOOOOOOOOOOO",
"OOOOOOOOOOOOOOOOOOOOOOOOOO",
"OOOOOOOOOOOOOOOOOOOOOOOOOO",
"OOOOOOOOOOOOOOOOOOOOOOOOOO",
"OOOOOOOOOOOOOOOOOOOOOOOOOO",
"OOOOOOOOOOOOOOOOOOOOOOOOOO",
"OOOOOOOOOOOOOOOOOOOOOOOOOO",
"OOOOOOOOOOOOOOOOOOOOOOOOOO",
"OOOOOOOOOOOOOOOOOOOOOOOOOO",
"OOOOOOOOOOOOOOOOOOOOOOOOOO",
"OOOOOOOOOOOOOOOOOOOOOOOOOO",
"OOOOOOOOOOOOOOOOOOOOOOOOOO",
"OOOOOOOOOOOOOOOOOOOOOOOOOO",
"OOOOOOOOOOOOOOOOOOOOOOOOOO",
"OOOOOOOOOOOOOOOOOOOOOOOOOO",
"OOOOOOOOOOOOOOOOOOOOOOOOOO",
"OOOOOOOOOOOOOOOOOOOOOOOOOO",
"OOOOOOOOOOOOOOOOOOOOOOOOOO",
"OOOOOOOOOOOOOOOOOOOOOOOOOO"};
