/* XPM */
static char * maximizeO_xpm[] = {
"26 48 121 2",
"  	c None",
". 	c #436485",
"+ 	c #AED1F4",
"@ 	c #7FB4EB",
"# 	c #7DB2E9",
"$ 	c #4773A1",
"% 	c #79AFE7",
"& 	c #4471A0",
"* 	c #A4BBD0",
"= 	c #C4E0FA",
"- 	c #76ACE4",
"; 	c #42729E",
"> 	c #C0DDF8",
", 	c #95C3F3",
"' 	c #72A9E2",
") 	c #416F9F",
"! 	c #BBD8F5",
"~ 	c #8FC1EF",
"{ 	c #70A7E0",
"] 	c #3F6D9D",
"^ 	c #B7D5F3",
"/ 	c #87B8EB",
"( 	c #537DA9",
"_ 	c #6BA3DD",
": 	c #3B6A9B",
"< 	c #B1D1F1",
"[ 	c #7EB2E8",
"} 	c #4D7AA9",
"| 	c #FFFFFF",
"1 	c #68A1DC",
"2 	c #39699B",
"3 	c #AECEEE",
"4 	c #77ACE3",
"5 	c #4776A7",
"6 	c #659ED9",
"7 	c #36689C",
"8 	c #AACBEC",
"9 	c #4273A6",
"0 	c #629FD8",
"a 	c #346A9C",
"b 	c #A3C6E9",
"c 	c #3B6FA5",
"d 	c #5692D0",
"e 	c #2C629A",
"f 	c #99BEE1",
"g 	c #5490CE",
"h 	c #2E689E",
"i 	c #5893D0",
"j 	c #2D6599",
"k 	c #99BDE1",
"l 	c #5691CE",
"m 	c #2E659E",
"n 	c #5A98D2",
"o 	c #2F6699",
"p 	c #9ABEE2",
"q 	c #5792CF",
"r 	c #2F669F",
"s 	c #5B96D3",
"t 	c #2F6399",
"u 	c #9BBFE3",
"v 	c #3067A0",
"w 	c #5C9AD4",
"x 	c #9CC0E4",
"y 	c #5A95D2",
"z 	c #3168A1",
"A 	c #5D98D5",
"B 	c #30649A",
"C 	c #9CC1E4",
"D 	c #5E99D6",
"E 	c #32659A",
"F 	c #9DC1E5",
"G 	c #5C97D4",
"H 	c #619ED7",
"I 	c #33699B",
"J 	c #86A4C0",
"K 	c #9EC3E6",
"L 	c #619CD9",
"M 	c #63A0D9",
"N 	c #4577A5",
"O 	c #466584",
"P 	c #AED2F4",
"Q 	c #81B8EB",
"R 	c #4874A2",
"S 	c #8DAAC5",
"T 	c #A8CBEE",
"U 	c #A5C7E9",
"V 	c #6AA1DA",
"W 	c #A4C4E4",
"X 	c #689FD2",
"Y 	c #A2C0DE",
"Z 	c #6599C9",
"` 	c #3B6999",
" .	c #A1BDD9",
"..	c #6090C2",
"+.	c #396593",
"@.	c #9FBAD5",
"#.	c #578ABF",
"$.	c #38628E",
"%.	c #9DB6CF",
"&.	c #5188BB",
"*.	c #365F88",
"=.	c #9AB2CA",
"-.	c #4882B8",
";.	c #335B83",
">.	c #98ADC0",
",.	c #325678",
"'.	c #99AEC1",
").	c #4477A6",
"!.	c #32577A",
"~.	c #99ADC1",
"{.	c #4475A8",
"].	c #32567A",
"^.	c #99AEC3",
"/.	c #4576A9",
"(.	c #32577C",
"_.	c #4479AA",
":.	c #99AFC3",
"<.	c #4477AC",
"[.	c #8293A4",
"}.	c #9AAFC4",
"|.	c #2E5378",
". . . . . . . . . . . . . . . . . . . . . . . . . . ",
"+ + + + + + + + + + + + + + + + + + + + + + + + + + ",
"@ @ @ @ @ @ @ @ @ @ @ @ @ @ @ @ @ @ @ @ @ @ @ @ @ @ ",
"# # $ $ $ $ $ $ $ $ $ $ $ $ $ $ $ $ $ $ $ $ $ $ # # ",
"% & * = = = = = = = = = = = = = = = = = = = = * & % ",
"- ; > , , , , , , , , , , , , , , , , , , , , > ; - ",
"' ) ! ~ ~ ~ ~ ~ ~ ~ ~ ~ ~ ~ ~ ~ ~ ~ ~ ~ ~ ~ ~ ! ) ' ",
"{ ] ^ / / / / / ( ( ( ( ( ( ( ( ( ( / / / / / ^ ] { ",
"_ : < [ [ [ [ [ } | | | | | | | | } [ [ [ [ [ < : _ ",
"1 2 3 4 4 4 4 4 5 | | | | | | | | 5 4 4 4 4 4 3 2 1 ",
"6 7 8 { { { { { 9 | 9 9 9 9 9 9 | 9 { { { { { 8 7 6 ",
"0 a b 1 1 1 1 1 c | c 1 1 1 1 c | c 1 1 1 1 1 b a 0 ",
"d e f g g g g g h | h g g g g h | h g g g g g f e d ",
"i j k l l l l l m | m l l l l m | m l l l l l k j i ",
"n o p q q q q q r | r r r r r r | r q q q q q p o n ",
"s t u i i i i i v | | | | | | | | v i i i i i u t s ",
"w t x y y y y y z z z z z z z z z z y y y y y x t w ",
"A B C s s s s s s s s s s s s s s s s s s s s C B A ",
"D E F G G G G G G G G G G G G G G G G G G G G F E D ",
"H I J K K K K K K K K K K K K K K K K K K K K J I H ",
"L L E E E E E E E E E E E E E E E E E E E E E E L L ",
"M M M M M M M M M M M M M M M M M M M M M M M M M M ",
"d d d d d d d d d d d d d d d d d d d d d d d d d d ",
"N N N N N N N N N N N N N N N N N N N N N N N N N N ",
"O O O O O O O O O O O O O O O O O O O O O O O O O O ",
"P P P P P P P P P P P P P P P P P P P P P P P P P P ",
"Q Q Q Q Q Q Q Q Q Q Q Q Q Q Q Q Q Q Q Q Q Q Q Q Q Q ",
"[ [ R R R R R R R R R R R R R R R R R R R R R R [ [ ",
"% & S T T T T T T T T T T T T T T T T T T T T S & % ",
"- ; U V V V V V V V V V V V V V V V V V V V V U ; - ",
"' ) W X X X X X X X X X X X X X X X X X X X X W ) ' ",
"{ ] Y Z Z Z Z Z ` ` ` ` ` ` ` ` ` ` Z Z Z Z Z Y ] { ",
"_ :  ...........+.| | | | | | | | +........... .: _ ",
"1 2 @.#.#.#.#.#.$.| | | | | | | | $.#.#.#.#.#.@.2 1 ",
"6 7 %.&.&.&.&.&.*.| *.*.*.*.*.*.| *.&.&.&.&.&.%.7 6 ",
"0 a =.-.-.-.-.-.;.| ;.-.-.-.-.;.| ;.-.-.-.-.-.=.a 0 ",
"d e >.N N N N N ,.| ,.N N N N ,.| ,.N N N N N >.e d ",
"i j >.N N N N N ,.| ,.N N N N ,.| ,.N N N N N >.j i ",
"n o '.).).).).).!.| !.!.!.!.!.!.| !.).).).).).'.o n ",
"s t ~.{.{.{.{.{.].| | | | | | | | ].{.{.{.{.{.~.t s ",
"w t ^./././././.(.(.(.(.(.(.(.(.(.(./././././.^.t w ",
"A B ^._._._._._._._._._._._._._._._._._._._._.^.B A ",
"D E :.<.<.<.<.<.<.<.<.<.<.<.<.<.<.<.<.<.<.<.<.:.E D ",
"H I [.}.}.}.}.}.}.}.}.}.}.}.}.}.}.}.}.}.}.}.}.[.I H ",
"L L |.|.|.|.|.|.|.|.|.|.|.|.|.|.|.|.|.|.|.|.|.|.L L ",
"M M M M M M M M M M M M M M M M M M M M M M M M M M ",
"d d d d d d d d d d d d d d d d d d d d d d d d d d ",
"N N N N N N N N N N N N N N N N N N N N N N N N N N "};
