/* XPM */
static char * menusel_xpm[] = {
"1 21 21 1",
" 	c None",
".	c #B8D4FE",
"+	c #B6D3FE",
"@	c #B3D1FD",
"#	c #B1CFFD",
"$	c #B0CEFC",
"%	c #AECDFC",
"&	c #ABCBFB",
"*	c #A9CAFB",
"=	c #A7C9FB",
"-	c #A6C8FA",
";	c #A4C6FA",
">	c #A0C4FA",
",	c #9FC3F9",
"'	c #9DC2F9",
")	c #9BC1F9",
"!	c #99BFF9",
"~	c #98BEF8",
"{	c #94BCF8",
"]	c #93BBF7",
"^	c #90B9F6",
".",
"+",
"@",
"#",
"$",
"%",
"&",
"*",
"=",
"-",
";",
">",
",",
"'",
")",
"!",
"~",
"{",
"]",
"]",
"^"};
