/* XPM */
static char * minimizeA_xpm[] = {
"26 48 78 1",
" 	c None",
".	c #436383",
"+	c #ADD0F3",
"@	c #7FB4EB",
"#	c #7CB1E8",
"$	c #4672A0",
"%	c #79AFE7",
"&	c #44709E",
"*	c #9CB4CC",
"=	c #BAD8F6",
"-	c #74ABE4",
";	c #42729E",
">	c #B6D5F4",
",	c #84B7EC",
"'	c #72A9E2",
")	c #406E9E",
"!	c #B1D1F1",
"~	c #7DB1E7",
"{	c #6EA6E0",
"]	c #3E6C9C",
"^	c #AECEEE",
"/	c #76ABE2",
"(	c #6BA3DD",
"_	c #3B6A9B",
":	c #A9CAEB",
"<	c #70A6DE",
"[	c #67A0DB",
"}	c #39699B",
"|	c #A5C7E9",
"1	c #68A0DA",
"2	c #659ED9",
"3	c #36679A",
"4	c #A2C4E6",
"5	c #619AD5",
"6	c #619ED7",
"7	c #34699A",
"8	c #9DC0E3",
"9	c #5C98D0",
"0	c #5692D0",
"a	c #2C6198",
"b	c #98B9DA",
"c	c #4E8AC8",
"d	c #5893D0",
"e	c #2D6497",
"f	c #4D8AC9",
"g	c #2E6196",
"h	c #5997D1",
"i	c #2E6598",
"j	c #99BADB",
"k	c #4F8BC9",
"l	c #2F6297",
"m	c #FFFFFF",
"n	c #5A95D2",
"o	c #2E6298",
"p	c #98BBDC",
"q	c #508FCA",
"r	c #5C9AD4",
"s	c #2F6399",
"t	c #99BBDD",
"u	c #4F8CCB",
"v	c #2E639A",
"w	c #5D98D5",
"x	c #30649A",
"y	c #99BCDD",
"z	c #508DCC",
"A	c #5E99D6",
"B	c #326498",
"C	c #9ABDDE",
"D	c #5291CC",
"E	c #5F9DD7",
"F	c #32689A",
"G	c #829EBA",
"H	c #99BDDF",
"I	c #609BD8",
"J	c #2B5E93",
"K	c #63A0D9",
"L	c #4576A3",
"M	c #252525",
"..........................",
"++++++++++++++++++++++++++",
"@@@@@@@@@@@@@@@@@@@@@@@@@@",
"##$$$$$$$$$$$$$$$$$$$$$$##",
"%&*====================*&%",
"-;>,,,,,,,,,,,,,,,,,,,,>;-",
"')!~~~~~~~~~~~~~~~~~~~~!)'",
"{]^////////////////////^]{",
"(_:<<<<<<<<<<<<<<<<<<<<:_(",
"[}|11111111111111111111|}[",
"23455555555555555555555432",
"67899999999999999999999876",
"0abccccccccccccccccccccba0",
"debfffffggggggggggfffffbed",
"hijkkkkklmmmmmmmmlkkkkkjih",
"nopqqqqqimmmmmmmmiqqqqqpon",
"rstuuuuuvvvvvvvvvvuuuuutsr",
"wxyzzzzzzzzzzzzzzzzzzzzyxw",
"ABCDDDDDDDDDDDDDDDDDDDDCBA",
"EFGHHHHHHHHHHHHHHHHHHHHGFE",
"IIJJJJJJJJJJJJJJJJJJJJJJII",
"KKKKKKKKKKKKKKKKKKKKKKKKKK",
"00000000000000000000000000",
"LLLLLLLLLLLLLLLLLLLLLLLLLL",
"MMMMMMMMMMMMMMMMMMMMMMMMMM",
"MMMMMMMMMMMMMMMMMMMMMMMMMM",
"MMMMMMMMMMMMMMMMMMMMMMMMMM",
"MMMMMMMMMMMMMMMMMMMMMMMMMM",
"MMMMMMMMMMMMMMMMMMMMMMMMMM",
"MMMMMMMMMMMMMMMMMMMMMMMMMM",
"MMMMMMMMMMMMMMMMMMMMMMMMMM",
"MMMMMMMMMMMMMMMMMMMMMMMMMM",
"MMMMMMMMMMMMMMMMMMMMMMMMMM",
"MMMMMMMMMMMMMMMMMMMMMMMMMM",
"MMMMMMMMMMMMMMMMMMMMMMMMMM",
"MMMMMMMMMMMMMMMMMMMMMMMMMM",
"MMMMMMMMMMMMMMMMMMMMMMMMMM",
"MMMMMMMMMMMMMMMMMMMMMMMMMM",
"MMMMMMMMMMMMMMMMMMMMMMMMMM",
"MMMMMMMMMMMMMMMMMMMMMMMMMM",
"MMMMMMMMMMMMMMMMMMMMMMMMMM",
"MMMMMMMMMMMMMMMMMMMMMMMMMM",
"MMMMMMMMMMMMMMMMMMMMMMMMMM",
"MMMMMMMMMMMMMMMMMMMMMMMMMM",
"MMMMMMMMMMMMMMMMMMMMMMMMMM",
"MMMMMMMMMMMMMMMMMMMMMMMMMM",
"MMMMMMMMMMMMMMMMMMMMMMMMMM",
"MMMMMMMMMMMMMMMMMMMMMMMMMM"};
