/* XPM */
static char * minimizeO_xpm[] = {
"26 48 108 2",
"  	c None",
". 	c #436383",
"+ 	c #ADD0F3",
"@ 	c #7FB4EB",
"# 	c #7CB1E8",
"$ 	c #4672A0",
"% 	c #79AFE7",
"& 	c #44709E",
"* 	c #A4BBD0",
"= 	c #C4E0FA",
"- 	c #74ABE4",
"; 	c #42729E",
"> 	c #BEDCF8",
", 	c #95C3F3",
"' 	c #72A9E2",
") 	c #406E9E",
"! 	c #BBD8F5",
"~ 	c #8DC0EF",
"{ 	c #6EA6E0",
"] 	c #3E6C9C",
"^ 	c #B7D5F3",
"/ 	c #85B7EB",
"( 	c #6BA3DD",
"_ 	c #3B6A9B",
": 	c #B1D1F1",
"< 	c #7DB1E7",
"[ 	c #67A0DB",
"} 	c #39699B",
"| 	c #AECEEE",
"1 	c #75ABE3",
"2 	c #659ED9",
"3 	c #36679A",
"4 	c #A8CAEC",
"5 	c #619ED7",
"6 	c #34699A",
"7 	c #A3C6E9",
"8 	c #66A0DC",
"9 	c #5692D0",
"0 	c #2C6198",
"a 	c #99BEE1",
"b 	c #528FCE",
"c 	c #5893D0",
"d 	c #2D6497",
"e 	c #99BDE1",
"f 	c #5490CE",
"g 	c #2D649D",
"h 	c #5997D1",
"i 	c #2E6598",
"j 	c #9ABEE2",
"k 	c #5792CF",
"l 	c #2E659E",
"m 	c #FFFFFF",
"n 	c #5A95D2",
"o 	c #2E6298",
"p 	c #30669E",
"q 	c #5C9AD4",
"r 	c #2F6399",
"s 	c #9BBFE3",
"t 	c #5994D1",
"u 	c #31679F",
"v 	c #5D98D5",
"w 	c #30649A",
"x 	c #9CC1E4",
"y 	c #5E99D6",
"z 	c #326498",
"A 	c #9DC1E5",
"B 	c #5C97D4",
"C 	c #5F9DD7",
"D 	c #32689A",
"E 	c #86A4C0",
"F 	c #9EC3E6",
"G 	c #609BD8",
"H 	c #316499",
"I 	c #63A0D9",
"J 	c #4576A3",
"K 	c #8DAAC5",
"L 	c #A6CAEE",
"M 	c #A5C7E9",
"N 	c #68A0DA",
"O 	c #A4C4E4",
"P 	c #679ED1",
"Q 	c #A2C0DE",
"R 	c #6398C9",
"S 	c #A1BDD9",
"T 	c #5F8FC1",
"U 	c #9EB9D4",
"V 	c #5689BE",
"W 	c #9DB6CF",
"X 	c #4F87BB",
"Y 	c #9AB2CA",
"Z 	c #4781B7",
"` 	c #98ADC0",
" .	c #4577A5",
"..	c #315577",
"+.	c #4477A6",
"@.	c #325678",
"#.	c #98ACC0",
"$.	c #4475A8",
"%.	c #325578",
"&.	c #98ADC2",
"*.	c #4576A9",
"=.	c #31567B",
"-.	c #4479AA",
";.	c #97AEC3",
">.	c #4476AA",
",.	c #8293A4",
"'.	c #98AEC4",
").	c #2E5378",
". . . . . . . . . . . . . . . . . . . . . . . . . . ",
"+ + + + + + + + + + + + + + + + + + + + + + + + + + ",
"@ @ @ @ @ @ @ @ @ @ @ @ @ @ @ @ @ @ @ @ @ @ @ @ @ @ ",
"# # $ $ $ $ $ $ $ $ $ $ $ $ $ $ $ $ $ $ $ $ $ $ # # ",
"% & * = = = = = = = = = = = = = = = = = = = = * & % ",
"- ; > , , , , , , , , , , , , , , , , , , , , > ; - ",
"' ) ! ~ ~ ~ ~ ~ ~ ~ ~ ~ ~ ~ ~ ~ ~ ~ ~ ~ ~ ~ ~ ! ) ' ",
"{ ] ^ / / / / / / / / / / / / / / / / / / / / ^ ] { ",
"( _ : < < < < < < < < < < < < < < < < < < < < : _ ( ",
"[ } | 1 1 1 1 1 1 1 1 1 1 1 1 1 1 1 1 1 1 1 1 | } [ ",
"2 3 4 { { { { { { { { { { { { { { { { { { { { 4 3 2 ",
"5 6 7 8 8 8 8 8 8 8 8 8 8 8 8 8 8 8 8 8 8 8 8 7 6 5 ",
"9 0 a b b b b b b b b b b b b b b b b b b b b a 0 9 ",
"c d e f f f f f g g g g g g g g g g f f f f f e d c ",
"h i j k k k k k l m m m m m m m m l k k k k k j i h ",
"n o j c c c c c p m m m m m m m m p c c c c c j o n ",
"q r s t t t t t u u u u u u u u u u t t t t t s r q ",
"v w x n n n n n n n n n n n n n n n n n n n n x w v ",
"y z A B B B B B B B B B B B B B B B B B B B B A z y ",
"C D E F F F F F F F F F F F F F F F F F F F F E D C ",
"G G H H H H H H H H H H H H H H H H H H H H H H G G ",
"I I I I I I I I I I I I I I I I I I I I I I I I I I ",
"9 9 9 9 9 9 9 9 9 9 9 9 9 9 9 9 9 9 9 9 9 9 9 9 9 9 ",
"J J J J J J J J J J J J J J J J J J J J J J J J J J ",
". . . . . . . . . . . . . . . . . . . . . . . . . . ",
"+ + + + + + + + + + + + + + + + + + + + + + + + + + ",
"@ @ @ @ @ @ @ @ @ @ @ @ @ @ @ @ @ @ @ @ @ @ @ @ @ @ ",
"# # $ $ $ $ $ $ $ $ $ $ $ $ $ $ $ $ $ $ $ $ $ $ # # ",
"% & K L L L L L L L L L L L L L L L L L L L L K & % ",
"- ; M N N N N N N N N N N N N N N N N N N N N M ; - ",
"' ) O P P P P P P P P P P P P P P P P P P P P O ) ' ",
"{ ] Q R R R R R R R R R R R R R R R R R R R R Q ] { ",
"( _ S T T T T T T T T T T T T T T T T T T T T S _ ( ",
"[ } U V V V V V V V V V V V V V V V V V V V V U } [ ",
"2 3 W X X X X X X X X X X X X X X X X X X X X W 3 2 ",
"5 6 Y Z Z Z Z Z Z Z Z Z Z Z Z Z Z Z Z Z Z Z Z Y 6 5 ",
"9 0 ` J J J J J J J J J J J J J J J J J J J J ` 0 9 ",
"c d `  . . . . ..................... . . . . .` d c ",
"h i ` +.+.+.+.+.@.m m m m m m m m @.+.+.+.+.+.` i h ",
"n o #.$.$.$.$.$.%.m m m m m m m m %.$.$.$.$.$.#.o n ",
"q r &.*.*.*.*.*.=.=.=.=.=.=.=.=.=.=.*.*.*.*.*.&.r q ",
"v w &.-.-.-.-.-.-.-.-.-.-.-.-.-.-.-.-.-.-.-.-.&.w v ",
"y z ;.>.>.>.>.>.>.>.>.>.>.>.>.>.>.>.>.>.>.>.>.;.z y ",
"C D ,.'.'.'.'.'.'.'.'.'.'.'.'.'.'.'.'.'.'.'.'.,.D C ",
"G G ).).).).).).).).).).).).).).).).).).).).).).G G ",
"I I I I I I I I I I I I I I I I I I I I I I I I I I ",
"9 9 9 9 9 9 9 9 9 9 9 9 9 9 9 9 9 9 9 9 9 9 9 9 9 9 ",
"J J J J J J J J J J J J J J J J J J J J J J J J J J "};
