/* XPM */
static char * restoreO_xpm[] = {
"26 48 113 2",
"  	c None",
". 	c #436485",
"+ 	c #AED1F4",
"@ 	c #7FB4EB",
"# 	c #7DB2E9",
"$ 	c #4773A1",
"% 	c #79AFE7",
"& 	c #4471A0",
"* 	c #A4BBD0",
"= 	c #C4E0FA",
"- 	c #76ACE4",
"; 	c #42729E",
"> 	c #C0DDF8",
", 	c #95C3F3",
"' 	c #72A9E2",
") 	c #416F9F",
"! 	c #BBD8F5",
"~ 	c #8FC1EF",
"{ 	c #70A7E0",
"] 	c #3F6D9D",
"^ 	c #B7D5F3",
"/ 	c #87B8EB",
"( 	c #6BA3DD",
"_ 	c #3B6A9B",
": 	c #B1D1F1",
"< 	c #7EB2E8",
"[ 	c #4D7AA9",
"} 	c #68A1DC",
"| 	c #39699B",
"1 	c #AECEEE",
"2 	c #77ACE3",
"3 	c #4776A7",
"4 	c #FFFFFF",
"5 	c #659ED9",
"6 	c #36689C",
"7 	c #AACBEC",
"8 	c #4273A6",
"9 	c #629FD8",
"0 	c #346A9C",
"a 	c #A3C6E9",
"b 	c #3B6FA5",
"c 	c #5692D0",
"d 	c #2C629A",
"e 	c #99BEE1",
"f 	c #5490CE",
"g 	c #2E689E",
"h 	c #5893D0",
"i 	c #2D6599",
"j 	c #99BDE1",
"k 	c #5691CE",
"l 	c #2E659E",
"m 	c #5A98D2",
"n 	c #2F6699",
"o 	c #9ABEE2",
"p 	c #5792CF",
"q 	c #2F669F",
"r 	c #5B96D3",
"s 	c #2F6399",
"t 	c #9BBFE3",
"u 	c #3067A0",
"v 	c #5C9AD4",
"w 	c #9CC0E4",
"x 	c #5A95D2",
"y 	c #5D98D5",
"z 	c #30649A",
"A 	c #9CC1E4",
"B 	c #5E99D6",
"C 	c #32659A",
"D 	c #9DC1E5",
"E 	c #5C97D4",
"F 	c #619ED7",
"G 	c #33699B",
"H 	c #86A4C0",
"I 	c #9EC3E6",
"J 	c #619CD9",
"K 	c #63A0D9",
"L 	c #4577A5",
"M 	c #8DAAC5",
"N 	c #A8CBEE",
"O 	c #A5C7E9",
"P 	c #6AA1DA",
"Q 	c #A4C4E4",
"R 	c #689FD2",
"S 	c #A2C0DE",
"T 	c #6599C9",
"U 	c #A1BDD9",
"V 	c #6090C2",
"W 	c #396593",
"X 	c #9FBAD5",
"Y 	c #578ABF",
"Z 	c #38628E",
"` 	c #9DB6CF",
" .	c #5188BB",
"..	c #365F88",
"+.	c #9AB2CA",
"@.	c #4882B8",
"#.	c #335B83",
"$.	c #98ADC0",
"%.	c #325678",
"&.	c #99AEC1",
"*.	c #4477A6",
"=.	c #32577A",
"-.	c #99ADC1",
";.	c #4475A8",
">.	c #32567A",
",.	c #99AEC3",
"'.	c #4576A9",
").	c #4479AA",
"!.	c #99AFC3",
"~.	c #4477AC",
"{.	c #8293A4",
"].	c #9AAFC4",
"^.	c #2E5378",
". . . . . . . . . . . . . . . . . . . . . . . . . . ",
"+ + + + + + + + + + + + + + + + + + + + + + + + + + ",
"@ @ @ @ @ @ @ @ @ @ @ @ @ @ @ @ @ @ @ @ @ @ @ @ @ @ ",
"# # $ $ $ $ $ $ $ $ $ $ $ $ $ $ $ $ $ $ $ $ $ $ # # ",
"% & * = = = = = = = = = = = = = = = = = = = = * & % ",
"- ; > , , , , , , , , , , , , , , , , , , , , > ; - ",
"' ) ! ~ ~ ~ ~ ~ ~ ~ ~ ~ ~ ~ ~ ~ ~ ~ ~ ~ ~ ~ ~ ! ) ' ",
"{ ] ^ / / / / / / / / / / / / / / / / / / / / ^ ] { ",
"( _ : < < < < < < [ [ [ [ [ [ [ [ < < < < < < : _ ( ",
"} | 1 2 2 2 2 2 2 3 4 4 4 4 4 4 3 2 2 2 2 2 2 1 | } ",
"5 6 7 { { { { { { 8 4 4 4 4 4 4 8 { { { { { { 7 6 5 ",
"9 0 a } } } } } } b 4 b b b b 4 b } } } } } } a 0 9 ",
"c d e f f f f f f g 4 g f f g 4 g f f f f f f e d c ",
"h i j k k k k k k l 4 l l l l 4 l k k k k k k j i h ",
"m n o p p p p p p q 4 4 4 4 4 4 q p p p p p p o n m ",
"r s t h h h h h h u u u u u u u u h h h h h h t s r ",
"v s w x x x x x x x x x x x x x x x x x x x x w s v ",
"y z A r r r r r r r r r r r r r r r r r r r r A z y ",
"B C D E E E E E E E E E E E E E E E E E E E E D C B ",
"F G H I I I I I I I I I I I I I I I I I I I I H G F ",
"J J C C C C C C C C C C C C C C C C C C C C C C J J ",
"K K K K K K K K K K K K K K K K K K K K K K K K K K ",
"c c c c c c c c c c c c c c c c c c c c c c c c c c ",
"L L L L L L L L L L L L L L L L L L L L L L L L L L ",
". . . . . . . . . . . . . . . . . . . . . . . . . . ",
"+ + + + + + + + + + + + + + + + + + + + + + + + + + ",
"@ @ @ @ @ @ @ @ @ @ @ @ @ @ @ @ @ @ @ @ @ @ @ @ @ @ ",
"# # $ $ $ $ $ $ $ $ $ $ $ $ $ $ $ $ $ $ $ $ $ $ # # ",
"% & M N N N N N N N N N N N N N N N N N N N N M & % ",
"- ; O P P P P P P P P P P P P P P P P P P P P O ; - ",
"' ) Q R R R R R R R R R R R R R R R R R R R R Q ) ' ",
"{ ] S T T T T T T T T T T T T T T T T T T T T S ] { ",
"( _ U V V V V V V W W W W W W W W V V V V V V U _ ( ",
"} | X Y Y Y Y Y Y Z 4 4 4 4 4 4 Z Y Y Y Y Y Y X | } ",
"5 6 `  . . . . . ...4 4 4 4 4 4 .. . . . . . .` 6 5 ",
"9 0 +.@.@.@.@.@.@.#.4 #.#.#.#.4 #.@.@.@.@.@.@.+.0 9 ",
"c d $.L L L L L L %.4 %.L L %.4 %.L L L L L L $.d c ",
"h i $.L L L L L L %.4 %.%.%.%.4 %.L L L L L L $.i h ",
"m n &.*.*.*.*.*.*.=.4 4 4 4 4 4 =.*.*.*.*.*.*.&.n m ",
"r s -.;.;.;.;.;.;.>.>.>.>.>.>.>.>.;.;.;.;.;.;.-.s r ",
"v s ,.'.'.'.'.'.'.'.'.'.'.'.'.'.'.'.'.'.'.'.'.,.s v ",
"y z ,.).).).).).).).).).).).).).).).).).).).).,.z y ",
"B C !.~.~.~.~.~.~.~.~.~.~.~.~.~.~.~.~.~.~.~.~.!.C B ",
"F G {.].].].].].].].].].].].].].].].].].].].].{.G F ",
"J J ^.^.^.^.^.^.^.^.^.^.^.^.^.^.^.^.^.^.^.^.^.^.J J ",
"K K K K K K K K K K K K K K K K K K K K K K K K K K ",
"c c c c c c c c c c c c c c c c c c c c c c c c c c ",
"L L L L L L L L L L L L L L L L L L L L L L L L L L "};
