/* XPM */
static char * titleAB_xpm[] = {
"1 24 24 1",
" 	c None",
".	c #456583",
"+	c #AED1F4",
"@	c #81B8EB",
"#	c #7DB2E9",
"$	c #79AFE7",
"%	c #76ACE4",
"&	c #72A9E2",
"*	c #70A7E0",
"=	c #6BA3DD",
"-	c #68A1DC",
";	c #659ED9",
">	c #629FD8",
",	c #5692D0",
"'	c #5893D0",
")	c #5A98D2",
"!	c #5B96D3",
"~	c #5C9AD4",
"{	c #5D98D5",
"]	c #5E99D6",
"^	c #619ED7",
"/	c #619CD9",
"(	c #63A0D9",
"_	c #4577A5",
".",
"+",
"@",
"#",
"$",
"%",
"&",
"*",
"=",
"-",
";",
">",
",",
"'",
")",
"!",
"~",
"{",
"]",
"^",
"/",
"(",
",",
"_"};
