/* XPM */
static char * maximizeI_xpm[] = {
"19 42 4 1",
" 	c None",
".	c #416BA4",
"+	c #549DE9",
"@	c #2E4A70",
"...................",
"...................",
"...................",
"..++++++++++++++...",
"..++++++++++++++...",
"..++..........++...",
"..++...++++++.++...",
"..++...++++++.++...",
"..++.....++++.++...",
"..++....+++++.++...",
"..++...+++.++.++...",
"..++..+++..++.++...",
"..++.+++......++...",
"..++.++.......++...",
"..++..........++...",
"..++++++++++++++...",
"..++++++++++++++...",
"...................",
"...................",
"...................",
"...................",
"...................",
"...................",
"...................",
"..@@@@@@@@@@@@@@...",
"..@@@@@@@@@@@@@@...",
"..@@..........@@...",
"..@@...@@@@@@.@@...",
"..@@...@@@@@@.@@...",
"..@@.....@@@@.@@...",
"..@@....@@@@@.@@...",
"..@@...@@@.@@.@@...",
"..@@..@@@..@@.@@...",
"..@@.@@@......@@...",
"..@@.@@.......@@...",
"..@@..........@@...",
"..@@@@@@@@@@@@@@...",
"..@@@@@@@@@@@@@@...",
"...................",
"...................",
"...................",
"..................."};
