/* XPM */
static char * icewm_xpm[] = {
"106 20 304 2",
"  	c None",
". 	c #F7F4F3",
"+ 	c #F6F4F2",
"@ 	c #ECD7D4",
"# 	c #E48A88",
"$ 	c #E17675",
"% 	c #EAC5C2",
"& 	c #F6F3F2",
"* 	c #EFCFC0",
"= 	c #F0BCA5",
"- 	c #F0B79D",
"; 	c #EFCCBC",
"> 	c #E37C78",
", 	c #D61615",
"' 	c #D40000",
") 	c #DF5D5C",
"! 	c #F3ECEA",
"~ 	c #F5F3F1",
"{ 	c #F0DBCC",
"] 	c #F1A07D",
"^ 	c #F35919",
"/ 	c #F44D07",
"( 	c #F34B05",
"_ 	c #F38355",
": 	c #E36559",
"< 	c #D61717",
"[ 	c #D40706",
"} 	c #E15757",
"| 	c #101010",
"1 	c #F4F2EF",
"2 	c #F0E5D7",
"3 	c #F3C68F",
"4 	c #F4C38A",
"5 	c #F1B090",
"6 	c #F35C1D",
"7 	c #F44B05",
"8 	c #F46427",
"9 	c #ED8A70",
"0 	c #E15C55",
"a 	c #DE4945",
"b 	c #EEA7A0",
"c 	c #F4F1EF",
"d 	c #F3C58C",
"e 	c #F99315",
"f 	c #F9A339",
"g 	c #F3C49C",
"h 	c #F29A75",
"i 	c #F47F4E",
"j 	c #F48556",
"k 	c #F47742",
"l 	c #F37C4B",
"m 	c #F1936F",
"n 	c #F29A79",
"o 	c #F3936A",
"p 	c #F1D1C2",
"q 	c #888684",
"r 	c #131313",
"s 	c #F3F0EE",
"t 	c #F1D7B8",
"u 	c #F89E2E",
"v 	c #FB8B00",
"w 	c #FA9821",
"x 	c #F6C993",
"y 	c #F2B094",
"z 	c #F36E36",
"A 	c #F34E08",
"B 	c #F44802",
"C 	c #2D2C2C",
"D 	c #918E8C",
"E 	c #2E2D2D",
"F 	c #F3F0ED",
"G 	c #EFDFD2",
"H 	c #F3C996",
"I 	c #FA8F0B",
"J 	c #FA8E07",
"K 	c #F9AD4F",
"L 	c #F5E2C9",
"M 	c #F0B49A",
"N 	c #F35F21",
"O 	c #F34800",
"P 	c #F45C1D",
"Q 	c #F2D7C9",
"R 	c #AEABA8",
"S 	c #3F3E3D",
"T 	c #3E3D3C",
"U 	c #AFACA9",
"V 	c #868482",
"W 	c #242323",
"X 	c #181818",
"Y 	c #656362",
"Z 	c #73716F",
"` 	c #222121",
" .	c #1E1E1D",
"..	c #8B8987",
"+.	c #D1CECA",
"@.	c #535251",
"#.	c #1A1A1A",
"$.	c #171616",
"%.	c #4E4D4B",
"&.	c #E3DFDB",
"*.	c #686665",
"=.	c #1C1C1C",
"-.	c #6B6967",
";.	c #959290",
">.	c #2B2B2A",
",.	c #151515",
"'.	c #3B3A39",
").	c #C7C4C0",
"!.	c #B0ADAA",
"~.	c #353534",
"{.	c #959391",
"].	c #F2EFED",
"^.	c #EFD5C8",
"/.	c #F19D7A",
"(.	c #F19971",
"_.	c #F3B280",
":.	c #F89E30",
"<.	c #FA971C",
"[.	c #F7C990",
"}.	c #F2885B",
"|.	c #F46225",
"1.	c #F46226",
"2.	c #F5C9B6",
"3.	c #504F4E",
"4.	c #9C9997",
"5.	c #9B9996",
"6.	c #E2DFDC",
"7.	c #DEDBD8",
"8.	c #4E4D4C",
"9.	c #797775",
"0.	c #7A7877",
"a.	c #4C4B4A",
"b.	c #D6D2CF",
"c.	c #706E6D",
"d.	c #B6B3B0",
"e.	c #716F6E",
"f.	c #5C5B5A",
"g.	c #757371",
"h.	c #4D4C4B",
"i.	c #787674",
"j.	c #5A5857",
"k.	c #D7D3D0",
"l.	c #817F7D",
"m.	c #A6A4A1",
"n.	c #D5D1CE",
"o.	c #F2EFEC",
"p.	c #F1A483",
"q.	c #F44C06",
"r.	c #F34F0A",
"s.	c #F38551",
"t.	c #F6B66D",
"u.	c #FA9E2C",
"v.	c #F6D7B0",
"w.	c #F0C5B2",
"x.	c #F2AE95",
"y.	c #F3AD92",
"z.	c #F4D9CE",
"A.	c #232222",
"B.	c #D2CFCB",
"C.	c #CFCCC8",
"D.	c #CDCAC7",
"E.	c #282827",
"F.	c #CCC9C6",
"G.	c #262626",
"H.	c #CECBC7",
"I.	c #272726",
"J.	c #ECE9E6",
"K.	c #141414",
"L.	c #292928",
"M.	c #908E8B",
"N.	c #F1EEEB",
"O.	c #F1A17F",
"P.	c #F44F0A",
"Q.	c #F58550",
"R.	c #F8B971",
"S.	c #FA9D29",
"T.	c #F6D3A8",
"U.	c #E69A97",
"V.	c #E26F6D",
"W.	c #E26D6C",
"X.	c #EDC3C1",
"Y.	c #767472",
"Z.	c #777573",
"`.	c #BFBBB8",
" +	c #454443",
".+	c #191919",
"++	c #111111",
"@+	c #C0BDBA",
"#+	c #A9A6A4",
"$+	c #EBE6E1",
"%+	c #EFD2C4",
"&+	c #F29871",
"*+	c #F5966D",
"=+	c #F7B688",
"-+	c #F9A237",
";+	c #FA9415",
">+	c #F7BF7B",
",+	c #ECD1CD",
"'+	c #DB403F",
")+	c #D40605",
"!+	c #D40A0A",
"~+	c #EDB8B6",
"{+	c #A2A09D",
"]+	c #242424",
"^+	c #EBE5DF",
"/+	c #F1DDD2",
"(+	c #F3D0A6",
"_+	c #F99313",
":+	c #FA8C04",
"<+	c #F9A238",
"[+	c #F3D4AE",
"}+	c #EBE4DF",
"|+	c #E27C7A",
"1+	c #DA2F2F",
"2+	c #EEDEDB",
"3+	c #4F4E4D",
"4+	c #525150",
"5+	c #E3DFDA",
"6+	c #E0DCD8",
"7+	c #7B7977",
"8+	c #212120",
"9+	c #AAA7A4",
"0+	c #5C5A59",
"a+	c #1F1F1E",
"b+	c #CDC9C6",
"c+	c #5E5D5C",
"d+	c #EBE6E2",
"e+	c #F0DDC5",
"f+	c #F6A948",
"g+	c #FB8B01",
"h+	c #FA9B24",
"i+	c #F5C794",
"j+	c #ECC8C5",
"k+	c #E9BCB9",
"l+	c #EAC6C3",
"m+	c #E8ABA8",
"n+	c #E06766",
"o+	c #D71F1F",
"p+	c #D40303",
"q+	c #D50A0A",
"r+	c #E88D8C",
"s+	c #ADAAA7",
"t+	c #ACA9A6",
"u+	c #878583",
"v+	c #646261",
"w+	c #20201F",
"x+	c #8D8B89",
"y+	c #2F2E2E",
"z+	c #94918F",
"A+	c #878482",
"B+	c #666463",
"C+	c #1B1B1B",
"D+	c #A19E9B",
"E+	c #313030",
"F+	c #B0AEAB",
"G+	c #ECE7E3",
"H+	c #F2CFA5",
"I+	c #F89F30",
"J+	c #FAAD4E",
"K+	c #F0B9A4",
"L+	c #DE5A59",
"M+	c #D92E2E",
"N+	c #DA3332",
"O+	c #D82726",
"P+	c #D92828",
"Q+	c #E15959",
"R+	c #E36968",
"S+	c #E67C7B",
"T+	c #F0D9D7",
"U+	c #EDE8E4",
"V+	c #F3D8B6",
"W+	c #F5CEAC",
"X+	c #E58682",
"Y+	c #D50E0E",
"Z+	c #D40101",
"`+	c #D71818",
" @	c #E98373",
".@	c #F4A768",
"+@	c #F4A253",
"@@	c #F1C9AA",
"#@	c #EDE8E5",
"$@	c #E8A19F",
"%@	c #DE4A4A",
"&@	c #D82020",
"*@	c #E26362",
"=@	c #F3A368",
"-@	c #FA9820",
";@	c #FA8F0A",
">@	c #F8B057",
",@	c #EEE6DE",
"'@	c #EEEAE7",
")@	c #EEE5E2",
"!@	c #EFD2CF",
"~@	c #EFD0CD",
"{@	c #F6BC7A",
"]@	c #FA9315",
"^@	c #FAAC4D",
"/@	c #EFE8E2",
"(@	c #F0ECE9",
"_@	c #F0E0CA",
":@	c #F6BB70",
"<@	c #FAB158",
"[@	c #F8DDBA",
"}@	c #F0EDEA",
". . . . . . . . . . . . . . . . . . . . . . . . . . . . . . . . . . . . . . . . . . . . . . . . . . . . . . . . . . . . . . . . . . . . . . . . . . . . . . . . . . . . . . . . . . . . . . . . . . . . . . . . . . ",
"+ + + + + + + + + + + + + @ # $ % + + + + + + + + + + + + + + + + + + + + + + + + + + + + + + + + + + + + + + + + + + + + + + + + + + + + + + + + + + + + + + + + + + + + + + + + + + + + + + + + + + + + + + + + + ",
"& & & & & & & & & * = - ; > , ' ) ! & & & & & & & & & & & & & & & & & & & & & & & & & & & & & & & & & & & & & & & & & & & & & & & & & & & & & & & & & & & & & & & & & & & & & & & & & & & & & & & & & & & & & & & & ",
"~ ~ ~ ~ ~ ~ ~ { ] ^ / ( _ : < [ } ! ~ ~ ~ ~ ~ ~ ~ ~ ~ ~ ~ ~ ~ ~ ~ ~ ~ ~ ~ ~ ~ ~ ~ ~ ~ ~ ~ ~ ~ ~ ~ ~ ~ | ~ ~ ~ ~ ~ ~ ~ ~ ~ ~ ~ ~ ~ ~ ~ ~ ~ ~ ~ ~ ~ ~ ~ ~ ~ ~ ~ ~ ~ ~ ~ ~ ~ ~ ~ ~ ~ ~ ~ ~ ~ ~ ~ ~ ~ ~ ~ ~ ~ ~ ~ ~ ~ ~ ",
"1 1 1 1 1 2 3 4 5 6 7 / 8 9 0 a b 1 1 1 1 1 1 1 1 1 1 1 1 1 1 1 1 1 1 1 1 1 1 1 1 1 1 1 1 1 1 1 1 1 1 | 1 1 | 1 1 1 1 1 1 1 1 1 1 1 1 1 1 1 1 1 1 1 1 1 1 | 1 1 1 1 1 1 1 1 1 1 1 1 1 1 1 1 1 1 1 1 1 1 1 1 1 1 1 1 ",
"c c c c c d e f g h i j k l m n o p c c c c c c c c c c q r q c c c c c c c c c c c c c c c c c c c c | c c c c c c c c c c c c c c c c c c c c | c c c c c c c c c c c c c c c c c c c c c c c c c c c c c c c c c ",
"s s s s t u v w x s s s s y z A B o s s s s s s s s s s C D E s s s s s s s s s s s s s s s s s s s s | s s s s s s s s s s s s s s s s s s s s | s s s s s s s s s s s s s s s s s s s s s s s s s s s s s s s s s ",
"F F F G H I J K L F F F F F M N O P Q F F F F F F F F R S F T U F F F | V W X Y F F F | V W X Y F F F | F F | F F F Z `  ...F F +.@.#.$.%.&.F | | | | F F | F F F *.=.=.-.F F F | ;.>.,.'.).F F !.~.,.>.{.F F F F F ",
"].^./.(._.:.<.[.].].].].].].].}.|.1.2.].].].].].].].].3.4.].5.3.].].].| 3.6.7.8.9.].].| 3.6.7.8.9.].].| ].].| ].].0.a.b.].c.].].~.d.].].e.f.].].| ].].].].| ].].g.3.6.7.h.i.].].| j.k.].l.S ].].` m.].n.*.].].].].].",
"o.p.q.r.s.t.u.v.o.o.o.o.o.o.o.w.x.y.z.o.o.o.o.o.o.o.+.A.o.o.o.A.B.o.o.| C.o.o.D.E.o.o.| C.o.o.D.E.o.o.| o.o.| o.o.E.F.o.o.o.o.o.o.o.o.o.o.` o.o.| o.o.o.o.| o.o.G.H.o.o.F.I.o.o.| J.o.o.o.K.o.o.L.M.n.o.o.o.o.o.o.o.",
"N.O.( P.Q.R.S.T.N.N.N.N.N.N.N.U.V.W.X.N.N.N.N.N.N.N.Y.| | | | | Z.N.N.| N.N.N.N.K.N.N.| N.N.N.N.K.N.N.| N.N.| N.N.r N.N.N.N.N.N.`. +.+| | ++N.N.| N.N.N.N.| N.N.r N.N.N.N.K.N.N.| N.N.N.N.| N.N.@+@.` L.#+N.N.N.N.N.",
"$+%+&+*+=+-+;+>+$+$+$+$+$+$+,+'+)+!+~+$+$+$+$+$+$+$+A.B.$+$+$+B.A.$+$+| C.$+$+H.E.$+$+| C.$+$+H.E.$+$+| $+$+| $+$+E.D.$+$+$+$+$+E.{+$+$+$+| $+$+| $+$+$+$+| $+$+G.C.$+$+D.I.$+$+| $+$+$+$+| $+$+$+$+$+!.]+$+$+$+$+$+",
"$+$+^+/+(+_+:+<+[+$+$+$+$+}+|+< ' 1+2+$+$+$+$+$+$+5.3.$+$+$+$+$+3+4.$+| 4+5+6+3.9.$+$+| 4+5+6+3.9.$+$+| $+$+| $+$+7+%.k.$+g.$+$+8+9+$++.0+| $+$+a+b+$+$+$+| $+$+Z @.5+6+8.Y.$+$+| $+$+$+$+| $+$+c+F.$+R ` $+$+$+$+$+",
"d+d+d+d+e+f+g+h+i+j+k+l+m+n+o+p+q+r+d+d+d+d+d+d+d+T s+d+d+d+d+d+t+S d+| u+W X v+d+d+d+| u+W X v+d+d+d+| d+d+| d+d+d+e.w+a+x+d+d+t+y+K.C z+| d+d+A+#.| d+d+| d+d+d+B+C+C+*.d+d+d+| d+d+d+d+| d+d+D+E+K.~.F+d+d+d+d+d+",
"G+G+G+G+G+H+I+J+K+L+M+N+O+P+Q+R+S+T+G+G+G+G+G+G+G+G+G+G+G+G+G+G+G+G+G+| G+G+G+G+G+G+G+| G+G+G+G+G+G+G+G+G+G+G+G+G+G+G+G+G+G+G+G+G+G+G+G+G+G+G+G+G+G+G+G+G+G+G+G+G+G+G+G+G+G+G+G+G+G+G+G+G+G+G+G+G+G+G+G+G+G+G+G+G+G+",
"U+U+U+U+U+U+V+W+X+Y+' Z+`+ @.@+@@@U+U+U+U+U+U+U+U+U+U+U+U+U+U+U+U+U+U+| U+U+U+U+U+U+U+| U+U+U+U+U+U+U+U+U+U+U+U+U+U+U+U+U+U+U+U+U+U+U+U+U+U+U+U+U+U+U+U+U+U+U+U+U+U+U+U+U+U+U+U+U+U+U+U+U+U+U+U+U+U+U+U+U+U+U+U+U+U+",
"#@#@#@#@#@#@#@#@$@%@P+&@*@=@-@;@>@,@#@#@#@#@#@#@#@#@#@#@#@#@#@#@#@#@#@| #@#@#@#@#@#@#@| #@#@#@#@#@#@#@#@#@#@#@#@#@#@#@#@#@#@#@#@#@#@#@#@#@#@#@#@#@#@#@#@#@#@#@#@#@#@#@#@#@#@#@#@#@#@#@#@#@#@#@#@#@#@#@#@#@#@#@#@#@#@",
"'@'@'@'@'@'@'@'@'@)@!@~@'@{@]@v ^@/@'@'@'@'@'@'@'@'@'@'@'@'@'@'@'@'@'@'@'@'@'@'@'@'@'@'@'@'@'@'@'@'@'@'@'@'@'@'@'@'@'@'@'@'@'@'@'@'@'@'@'@'@'@'@'@'@'@'@'@'@'@'@'@'@'@'@'@'@'@'@'@'@'@'@'@'@'@'@'@'@'@'@'@'@'@'@'@'@",
"(@(@(@(@(@(@(@(@(@(@(@(@(@_@:@<@[@(@(@(@(@(@(@(@(@(@(@(@(@(@(@(@(@(@(@(@(@(@(@(@(@(@(@(@(@(@(@(@(@(@(@(@(@(@(@(@(@(@(@(@(@(@(@(@(@(@(@(@(@(@(@(@(@(@(@(@(@(@(@(@(@(@(@(@(@(@(@(@(@(@(@(@(@(@(@(@(@(@(@(@(@(@(@(@(@(@",
"}@}@}@}@}@}@}@}@}@}@}@}@}@}@}@}@}@}@}@}@}@}@}@}@}@}@}@}@}@}@}@}@}@}@}@}@}@}@}@}@}@}@}@}@}@}@}@}@}@}@}@}@}@}@}@}@}@}@}@}@}@}@}@}@}@}@}@}@}@}@}@}@}@}@}@}@}@}@}@}@}@}@}@}@}@}@}@}@}@}@}@}@}@}@}@}@}@}@}@}@}@}@}@}@}@}@"};
