/* XPM */
static char *expand[] = {
/* columns rows colors chars-per-pixel */
"16 8 3 1",
"  c black",
". c gray100",
"X c None",
/* pixels */
"XXXXXX..XX..XXXX",
"XXXXX..XX..XXXXX",
"XXXX..XX..XXXXXX",
"XXXXX..XX..XXXXX",
"XXXXXX..XX..XXXX",
"XXXXXXXXXXXXXXXX",
"XXXXXXXXXXXXXXXX",
"XXXXXXXXXXXXXXXX"
};
