/* XPM */
static char * toolbarbg_xpm[] = {
"1 40 23 1",
" 	c None",
".	c #6892BA",
"+	c #5480AF",
"@	c #4F7DAC",
"#	c #507DAC",
"$	c #4F7EAD",
"%	c #4F7CAB",
"&	c #4E7CAB",
"*	c #4E7DAC",
"=	c #4E7BAA",
"-	c #4D7BAA",
";	c #4D7CAB",
">	c #4D7AA9",
",	c #4C7AA9",
"'	c #4C7BAA",
")	c #4C79A8",
"!	c #4B79A8",
"~	c #4B7AA9",
"{	c #4B78A7",
"]	c #4A78A7",
"^	c #4B77A6",
"/	c #4A7AA9",
"(	c #4C78A7",
".",
"+",
"@",
"#",
"$",
"$",
"@",
"#",
"%",
"&",
"&",
"*",
"*",
"@",
"%",
"=",
"=",
"-",
";",
"&",
"&",
"=",
">",
",",
"'",
">",
")",
"!",
"~",
")",
")",
"{",
"]",
"^",
")",
"/",
"(",
">",
"-",
">"};
