/* XPM */
static char * toolbuttonbg_xpm[] = {
"46 40 174 2",
"  	c None",
". 	c #6782B9",
"+ 	c #465564",
"@ 	c #4F6DAB",
"# 	c #EDF6FF",
"$ 	c #EDF5FF",
"% 	c #E9F3FD",
"& 	c #E2EDFA",
"* 	c #DCE9F6",
"= 	c #D7E4F3",
"- 	c #D1E0EF",
"; 	c #CBDBEB",
"> 	c #C6D7E8",
", 	c #C0D2E4",
"' 	c #BACDE0",
") 	c #B5C9DD",
"! 	c #AEC4DA",
"~ 	c #A8BFD6",
"{ 	c #A4BBD2",
"] 	c #9EB7CE",
"^ 	c #97B2CB",
"/ 	c #91ACC7",
"( 	c #8DA9C3",
"_ 	c #8AA6C2",
": 	c #8BA7C3",
"< 	c #89A3BD",
"[ 	c #4B6AA9",
"} 	c #A9BCCF",
"| 	c #B2C4D8",
"1 	c #AFC3D7",
"2 	c #9EB5CC",
"3 	c #8BA6C1",
"4 	c #7897B6",
"5 	c #6586A7",
"6 	c #A6BACE",
"7 	c #ADC2D7",
"8 	c #ACC1D6",
"9 	c #ADC2D5",
"0 	c #ACC0D6",
"a 	c #A4B9D0",
"b 	c #8DA8C3",
"c 	c #6185A9",
"d 	c #4E769E",
"e 	c #4A739C",
"f 	c #4C749C",
"g 	c #4A719C",
"h 	c #51779D",
"i 	c #4D6AA7",
"j 	c #A1B6CB",
"k 	c #A8BDD2",
"l 	c #A8BED2",
"m 	c #A6BDD2",
"n 	c #A8BCD2",
"o 	c #A1B7CD",
"p 	c #88A4C0",
"q 	c #7091B2",
"r 	c #587EA4",
"s 	c #9DB2C9",
"t 	c #A3B8CF",
"u 	c #A3B7CF",
"v 	c #A3B9CF",
"w 	c #A1B7CF",
"x 	c #91ABC5",
"y 	c #7895B6",
"z 	c #5C81A6",
"A 	c #51759D",
"B 	c #4A69A8",
"C 	c #99AFC5",
"D 	c #9DB5CB",
"E 	c #9DB3CB",
"F 	c #9DB4CB",
"G 	c #9CB4CA",
"H 	c #9BB3CB",
"I 	c #9BB2CB",
"J 	c #8AA5C0",
"K 	c #6E8FB0",
"L 	c #537AA1",
"M 	c #94ABC4",
"N 	c #97AFC9",
"O 	c #96AFC8",
"P 	c #97B0C7",
"Q 	c #96AEC8",
"R 	c #89A4BF",
"S 	c #6C8EB0",
"T 	c #4B69A7",
"U 	c #8FA8C1",
"V 	c #90ABC6",
"W 	c #90ABC4",
"X 	c #8CA7C2",
"Y 	c #7391B3",
"Z 	c #587CA4",
"` 	c #50749C",
" .	c #4C6AA8",
"..	c #8CA4BE",
"+.	c #7F9DBB",
"@.	c #6487AA",
"#.	c #4D759D",
"$.	c #86A1BC",
"%.	c #86A2BE",
"&.	c #86A0BE",
"*.	c #85A2BF",
"=.	c #7693B4",
"-.	c #5B80A5",
";.	c #4B739B",
">.	c #4C6BAA",
",.	c #819DB9",
"'.	c #819EBB",
").	c #819CBB",
"!.	c #809BBA",
"~.	c #6F90B1",
"{.	c #567CA2",
"].	c #7C99B6",
"^.	c #7A99B8",
"/.	c #7A97B8",
"(.	c #7998B7",
"_.	c #7999B7",
":.	c #7C9AB8",
"<.	c #6D8EAF",
"[.	c #5579A1",
"}.	c #7795B3",
"|.	c #7492B4",
"1.	c #7594B3",
"2.	c #7494B2",
"3.	c #7494B4",
"4.	c #7390B1",
"5.	c #6F8EB1",
"6.	c #597FA5",
"7.	c #51769B",
"8.	c #4D6BA9",
"9.	c #6F8EAD",
"0.	c #688AAC",
"a.	c #5F83A7",
"b.	c #4E749E",
"c.	c #4D6CAB",
"d.	c #6889AA",
"e.	c #5279A0",
"f.	c #4C729C",
"g.	c #4F759B",
"h.	c #587CA0",
"i.	c #49729B",
"j.	c #4F739B",
"k.	c #567BA0",
"l.	c #4E6CAA",
"m.	c #557A9F",
"n.	c #4E6DAC",
"o.	c #4E759C",
"p.	c #506EAC",
"q.	c #55789F",
"r.	c #54799E",
"s.	c #506FAE",
"t.	c #4E749A",
"u.	c #53789D",
"v.	c #516FAD",
"w.	c #4D749B",
"x.	c #5270AE",
"y.	c #5170AF",
"z.	c #5371AF",
"A.	c #5271B0",
"B.	c #5472B0",
"C.	c #89A6C3",
"D.	c #91AFCD",
"E.	c #92AFCC",
"F.	c #91ADC9",
"G.	c #8AA8C6",
"H.	c #84A3C2",
"I.	c #809FBE",
"J.	c #799ABB",
"K.	c #7395B7",
"L.	c #6D91B3",
"M.	c #688CB0",
"N.	c #668AAE",
"O.	c #678BAF",
"P.	c #6486A8",
"Q.	c #475E77",
". + + + + + + + + + + + + + + + + + + + + + + + + + + + + + + + + + + + + + + + + + + + + . ",
"@ + # # # $ $ $ $ $ $ $ $ $ $ $ $ $ $ $ $ $ $ % & * = - ; > , ' ) ! ~ { ] ^ / ( _ : < < + @ ",
"[ + $ } | | | | | | | | | | | | | | | | | | | | | | | | | | | | | | | | | | 1 2 3 4 5 < + [ ",
"[ + $ 6 7 7 7 8 8 8 9 7 7 8 8 9 8 8 9 0 9 8 7 7 7 7 7 7 7 7 7 8 7 8 a b 4 c d e f g h < + [ ",
"i + $ j k k k l l k k k k l l k l m k l k k k k k k n k k n o p q r f f f f f f f g h < + i ",
"[ + $ s t u t t v t w t w t v u t t u t u w t t u t t x y z f f f f f f f f f f f g A < + [ ",
"B + $ C D E F F F F F E F F G E H E G F F I E G J K L e f f f f f f f f f f f f f g A < + B ",
"B + $ M N O P Q O N N O O Q O N O P Q N Q R S L e f f f f f f f f f f f f f f f f g A < + B ",
"T + $ U V W x x x x x x x x x x x x X Y Z f e f f f f f f f f f f f f f f f f f f g ` < + T ",
" .+ $ ..X X X X X X X X X X X 3 +.@.#.e f f f f f f f f f f f f f f f f f f f f f g ` < +  .",
" .+ $ $.%.%.%.&.&.*.*.*.%.%.=.-.;.e f f f f f f f f f f f f f f f f f f f f f f f g ` < +  .",
">.+ $ ,.+.'.'.).).).).!.~.{.f f f f f f f f f f f f f f f f f f f f f f f f f f f g ` < + >.",
">.+ $ ].^././.(._.:.<.[.e f f f f f f f f f f f f f f f f f f f f f f f f f f f f g ` < + >.",
"[ + $ }.|.1.2.3.K {.f f f f f f f f f f f f f f f f f f f f f f f f f f f f f f f g ` < + [ ",
" .+ $ 4.5.~.<.6.f e f f f f f f f f f f f f f f f f f f f f f f f f f f f f f f f g 7.< +  .",
"8.+ $ 9.0.a.b.e f f f f f f f f f f f f f f f f f f f f f f f f f f f f f f f f f g 7.< + 8.",
"c.+ $ d.e.f.e f f f f f f f f f f f f f f f f f f f f f f f f f f f f f f f f f f g g.< + c.",
">.+ $ h.i.f f f f f f f f f f f f f f f f f f f f f f f f f f f f f f f f f f f f g j.< + >.",
"8.+ $ k.e f f f f f f f f f f f f f f f f f f f f f f f f f f f f f f f f f f f f g j.< + 8.",
"l.+ $ k.e f f f f f f f f f f f f f f f f f f f f f f f f f f f f f f f f f f f f g j.< + l.",
"l.+ % m.e f f f f f f f f f f f f f f f f f f f f f f f f f f f f f f f f f f f f g j.< + l.",
"n.+ & m.e f f f f f f f f f f f f f f f f f f f f f f f f f f f f f f f f f f f f g j.< + n.",
"c.+ * m.e f f f f f f f f f f f f f f f f f f f f f f f f f f f f f f f f f f f f g j.< + c.",
"l.+ = m.e f f f f f f f f f f f f f f f f f f f f f f f f f f f f f f f f f f f f g j.< + l.",
"@ + - m.e f f f f f f f f f f f f f f f f f f f f f f f f f f f f f f f f f f f f g o.< + @ ",
"p.+ ; m.e f f f f f f f f f f f f f f f f f f f f f f f f f f f f f f f f f f f f e o.< + p.",
"n.+ > q.e f f f f f f f f f f f f f f f f f f f f f f f f f f f f f f f f f f f f e o.< + n.",
"p.+ , r.e f f f f f f f f f f f f f f f f f f f f f f f f f f f f f f f f f f f f e o.< + p.",
"s.+ ' r.e f f f f f f f f f f f f f f f f f f f f f f f f f f f f f f f f f f f f e t.< + s.",
"s.+ ) r.e f f f f f f f f f f f f f f f f f f f f f f f f f f f f f f f f f f f f e t.< + s.",
"s.+ ! u.e f f f f f f f f f f f f f f f f f f f f f f f f f f f f f f f f f f f f e t.< + s.",
"v.+ ~ u.e f f f f f f f f f f f f f f f f f f f f f f f f f f f f f f f f f f f f e w.< + v.",
"s.+ { u.e f f f f f f f f f f f f f f f f f f f f f f f f f f f f f f f f f f f f e w.< + s.",
"x.+ ] u.e f f f f f f f f f f f f f f f f f f f f f f f f f f f f f f f f f f f f e w.< + x.",
"y.+ ^ u.e f f f f f f f f f f f f f f f f f f f f f f f f f f f f f f f f f f f f e w.< + y.",
"x.+ / u.e f f f f f f f f f f f f f f f f f f f f f f f f f f f f f f f f f f f f e w.< + x.",
"z.+ ( u.e f f f f f f f f f f f f f f f f f f f f f f f f f f f f f f f f f f f f e w.< + z.",
"A.+ _ u.e f f f f f f f f f f f f f f f f f f f f f f f f f f f f f f f f f f f f e w.< + A.",
"B.+ : C.D.D.D.D.D.D.D.D.D.D.D.D.D.D.D.D.D.D.D.D.D.D.D.D.D.D.D.E.F.G.H.I.J.K.L.M.N.O.P.P.+ B.",
"B.+ + Q.Q.Q.Q.Q.Q.Q.Q.Q.Q.Q.Q.Q.Q.Q.Q.Q.Q.Q.Q.Q.Q.Q.Q.Q.Q.Q.Q.Q.Q.Q.Q.Q.Q.Q.Q.Q.Q.Q.Q.+ + B."};
