/* XPM */
static char * workspacebuttonactive_xpm[] = {
"16 30 67 1",
" 	c #031425",
".	c #354657",
"+	c #C0CBD6",
"@	c #06203B",
"#	c #A3B4C5",
"$	c #7C92A9",
"%	c #051F3B",
"&	c #99ACC0",
"*	c #6B849F",
"=	c #92A7BC",
"-	c #617C99",
";	c #617C98",
">	c #91A6BC",
",	c #8DA3BA",
"'	c #5A7694",
")	c #5D7996",
"!	c #5E7A97",
"~	c #8FA4BA",
"{	c #879EB6",
"]	c #506E8E",
"^	c #516F8F",
"/	c #52708F",
"(	c #547291",
"_	c #48688A",
":	c #406185",
"<	c #7792AE",
"[	c #8199B3",
"}	c #486789",
"|	c #496A8A",
"1	c #48698A",
"2	c #3B5D82",
"3	c #2F547B",
"4	c #1C446F",
"5	c #153F6B",
"6	c #5E7EA0",
"7	c #7C96B0",
"8	c #416285",
"9	c #395D81",
"0	c #2C5279",
"a	c #0C3765",
"b	c #093564",
"c	c #597A9D",
"d	c #7691AD",
"e	c #375A7F",
"f	c #385B80",
"g	c #2E527A",
"h	c #1C456F",
"i	c #0D3866",
"j	c #728DAB",
"k	c #264C75",
"l	c #143D6A",
"m	c #6D8AA8",
"n	c #284E76",
"o	c #274D76",
"p	c #1E4670",
"q	c #113B69",
"r	c #6886A5",
"s	c #214872",
"t	c #0F3A68",
"u	c #093664",
"v	c #6483A3",
"w	c #1A436E",
"x	c #6080A1",
"y	c #0A3664",
"z	c #5D7DA0",
"A	c #0B3765",
"B	c #5B7C9E",
"                ",
".++++++++++++++.",
"@#$$$$$$$$$$$$#@",
"%&************&%",
"%=----------;;>%",
"%,'''''''''')!~%",
"%{]]]]]^/(((_:<%",
"%[}}}}_|1223456%",
"%7::::89055abbc%",
"%deeefghibbbbbc%",
"%j333klbbbbbbbc%",
"%mnopqbbbbbbbbc%",
"%rs4tbbuuuubbbc%",
"%vwqbbbuuuubbbc%",
"%xqybbbbbbbbbbc%",
"%zAbbbbbbbbbbbc%",
"%Bbbbbbbbbbbbbc%",
"%cbbbbbbbbbbbbc%",
"%cbbbbbbbbbbbbc%",
"%cbbbbbbbbbbbbc%",
"%cbbbbbbbbbbbbc%",
"%cbbbbbbbbbbbbc%",
"%cbbbbbbbbbbbbc%",
"%cbbbbbbbbbbbbc%",
"%cbbbbbbbbbbbbc%",
"%cbbbbbbbbbbbbc%",
"%cbbbbbbbbbbbbc%",
"%cbbbbbbbbbbbbc%",
"%cccccccccccccc%",
"%%%%%%%%%%%%%%%%"};
